<?xml version="1.0" encoding="utf-8"?><svg xmlns="http://www.w3.org/2000/svg" xmlns:xlink="http://www.w3.org/1999/xlink" width="763" height="1264" preserveAspectRatio="xMidYMid" viewBox="0 0 763 1264" style="z-index:1;margin-right:-2px;display:block;background-repeat-y:initial;background-repeat-x:initial;background-color:rgb(153, 204, 255);animation-play-state:paused" ><g transform="translate(381.5,632) scale(1,1) translate(-381.5,-632)" style="transform:matrix(1, 0, 0, 1, 0, 0);animation-play-state:paused" ><defs style="animation-play-state:paused" ><linearGradient id="lg-0.7391281906957092" x1="0" x2="0" y1="0" y2="1" style="animation-play-state:paused" ><stop stop-color="#89d0ff" offset="0" style="animation-play-state:paused" ></stop>

  
<stop stop-color="#5bb7f4" offset="1" style="animation-play-state:paused" ></stop></linearGradient></defs>


<rect x="0" y="0" width="763" height="1264" fill="url(#lg-0.7391281906957092)" style="animation-play-state:paused" ></rect>
<circle cx="0" cy="540.3796134865802" r="34.6836554278498" fill="#8bd0fd" transform="matrix(1,0,0,1,0,0)" style="transform:matrix(1, 0, 0, 1, 0, 0);animation-play-state:paused" ></circle>
<circle cx="34.6836554278498" cy="506.9969521154641" r="68.75315810939662" fill="#8bd0fd" transform="matrix(1,0,0,1,-0.005429744720458984,0)" style="transform:matrix(1, 0, 0, 1, -0.00542974, 0);animation-play-state:paused" ></circle>
<circle cx="103.43681353724642" cy="513.2246628102309" r="78.6325806964605" fill="#8bd0fd" transform="matrix(1,0,0,1,-0.022117653861641884,0)" style="transform:matrix(1, 0, 0, 1, -0.0221177, 0);animation-play-state:paused" ></circle>
<circle cx="182.06939423370693" cy="533.3359319255462" r="77.57644945831557" fill="#8bd0fd" transform="matrix(1,0,0,1,-0.05069183558225632,0)" style="transform:matrix(1, 0, 0, 1, -0.0506918, 0);animation-play-state:paused" ></circle>
<circle cx="259.6458436920225" cy="560.6393825989529" r="55.72970580436653" fill="#8bd0fd" transform="matrix(1,0,0,1,-0.09182170033454895,0)" style="transform:matrix(1, 0, 0, 1, -0.0918217, 0);animation-play-state:paused" ></circle>
<circle cx="315.375549496389" cy="570.3111675437867" r="56.19819330674866" fill="#8bd0fd" transform="matrix(1,0,0,1,-0.14621886610984802,0)" style="transform:matrix(1, 0, 0, 1, -0.146219, 0);animation-play-state:paused" ></circle>
<circle cx="371.57374280313763" cy="579.504994142093" r="79.90967087880261" fill="#8bd0fd" transform="matrix(1,0,0,1,-0.21463720500469208,0)" style="transform:matrix(1, 0, 0, 1, -0.214637, 0);animation-play-state:paused" ></circle>
<circle cx="451.48341368194025" cy="567.9165746767816" r="63.97738261747502" fill="#8bd0fd" transform="matrix(1,0,0,1,-0.2978716492652893,0)" style="transform:matrix(1, 0, 0, 1, -0.297872, 0);animation-play-state:paused" ></circle>
<circle cx="515.4607962994153" cy="552.4334753564433" r="70.16747600236849" fill="#8bd0fd" transform="matrix(1,0,0,1,-0.3967548906803131,0)" style="transform:matrix(1, 0, 0, 1, -0.396755, 0);animation-play-state:paused" ></circle>
<circle cx="585.6282723017838" cy="548.4165561078139" r="52.30405576355588" fill="#8bd0fd" transform="matrix(1,0,0,1,-0.5121519565582275,0)" style="transform:matrix(1, 0, 0, 1, -0.512152, 0);animation-play-state:paused" ></circle>
<circle cx="637.9323280653397" cy="509.7257565262554" r="89.60331462253592" fill="#8bd0fd" transform="matrix(1,0,0,1,-0.6449503302574158,0)" style="transform:matrix(1, 0, 0, 1, -0.64495, 0);animation-play-state:paused" ></circle>
<circle cx="727.5356426878756" cy="538.3380267062452" r="40.113986240891705" fill="#8bd0fd" transform="matrix(1,0,0,1,-0.7960466146469116,0)" style="transform:matrix(1, 0, 0, 1, -0.796047, 0);animation-play-state:paused" ></circle>
<circle cx="767.6496289287672" cy="501.0315178686256" r="66.66128364715993" fill="#8bd0fd" transform="matrix(1,0,0,1,-0.9663257002830505,0)" style="transform:matrix(1, 0, 0, 1, -0.966326, 0);animation-play-state:paused" ></circle>
<circle cx="834.3109125759272" cy="518.0278407920345" r="44.914588076442314" fill="#8bd0fd" transform="matrix(1,0,0,1,-1.156632423400879,0)" style="transform:matrix(1, 0, 0, 1, -1.15663, 0);animation-play-state:paused" ></circle>
<circle cx="0" cy="550.2818471446828" r="78.09846071276434" fill="#9bd3ff" transform="matrix(1,0,0,1,0,0)" style="transform:matrix(1, 0, 0, 1, 0, 0);animation-play-state:paused" ></circle>
<circle cx="78.09846071276434" cy="579.9317553293617" r="67.133353485035" fill="#9bd3ff" transform="matrix(1,0,0,1,-0.022117653861641884,0)" style="transform:matrix(1, 0, 0, 1, -0.0221177, 0);animation-play-state:paused" ></circle>
<circle cx="145.23181419779934" cy="576.8873968488787" r="90.30507011633638" fill="#9bd3ff" transform="matrix(1,0,0,1,-0.09182170033454895,0)" style="transform:matrix(1, 0, 0, 1, -0.0918217, 0);animation-play-state:paused" ></circle>
<circle cx="235.5368843141357" cy="628.3152578094471" r="34.16233567854375" fill="#9bd3ff" transform="matrix(1,0,0,1,-0.21463720500469208,0)" style="transform:matrix(1, 0, 0, 1, -0.214637, 0);animation-play-state:paused" ></circle>
<circle cx="269.69921999267945" cy="613.6100533479499" r="86.41684377483742" fill="#9bd3ff" transform="matrix(1,0,0,1,-0.3967548906803131,0)" style="transform:matrix(1, 0, 0, 1, -0.396755, 0);animation-play-state:paused" ></circle>
<circle cx="356.11606376751683" cy="639.1626576525425" r="60.584447602780685" fill="#9bd3ff" transform="matrix(1,0,0,1,-0.6449503302574158,0)" style="transform:matrix(1, 0, 0, 1, -0.64495, 0);animation-play-state:paused" ></circle>
<circle cx="416.70051137029753" cy="633.9028471642528" r="91.19336757912352" fill="#9bd3ff" transform="matrix(1,0,0,1,-0.9663257002830505,0)" style="transform:matrix(1, 0, 0, 1, -0.966326, 0);animation-play-state:paused" ></circle>
<circle cx="507.89387894942104" cy="628.2223658484124" r="39.685251367007396" fill="#9bd3ff" transform="matrix(1,0,0,1,-1.3677335977554321,0)" style="transform:matrix(1, 0, 0, 1, -1.36773, 0);animation-play-state:paused" ></circle>
<circle cx="547.5791303164284" cy="605.0049010794222" r="74.64629566368048" fill="#9bd3ff" transform="matrix(1,0,0,1,-1.8546782732009888,0)" style="transform:matrix(1, 0, 0, 1, -1.85468, 0);animation-play-state:paused" ></circle>
<circle cx="622.2254259801089" cy="617.2885713642496" r="35.276740374255375" fill="#9bd3ff" transform="matrix(1,0,0,1,-2.4294803142547607,0)" style="transform:matrix(1, 0, 0, 1, -2.42948, 0);animation-play-state:paused" ></circle>
<circle cx="657.5021663543642" cy="578.7917460608287" r="75.11097106708303" fill="#9bd3ff" transform="matrix(1,0,0,1,-3.0886495113372803,0)" style="transform:matrix(1, 0, 0, 1, -3.08865, 0);animation-play-state:paused" ></circle>
<circle cx="732.6131374214473" cy="604.0231254145015" r="36.19720641987218" fill="#9bd3ff" transform="matrix(1,0,0,1,-3.819972276687622,0)" style="transform:matrix(1, 0, 0, 1, -3.81997, 0);animation-play-state:paused" ></circle>
<circle cx="768.8103438413194" cy="548.5533071283808" r="78.34568563584308" fill="#9bd3ff" transform="matrix(1,0,0,1,-4.60075569152832,0)" style="transform:matrix(1, 0, 0, 1, -4.60076, 0);animation-play-state:paused" ></circle>
<circle cx="0" cy="642.3665329346449" r="53.027889221129335" fill="#a9d6ff" transform="matrix(1,0,0,1,0,0)" style="transform:matrix(1, 0, 0, 1, 0, 0);animation-play-state:paused" ></circle>
<circle cx="53.027889221129335" cy="664.4531527346089" r="40.21174023512228" fill="#a9d6ff" transform="matrix(1,0,0,1,-0.05069185048341751,0)" style="transform:matrix(1, 0, 0, 1, -0.0506919, 0);animation-play-state:paused" ></circle>
<circle cx="93.2396294562516" cy="671.5694951986545" r="37.97272340088508" fill="#a9d6ff" transform="matrix(1,0,0,1,-0.21463724970817566,0)" style="transform:matrix(1, 0, 0, 1, -0.214637, 0);animation-play-state:paused" ></circle>
<circle cx="131.2123528571367" cy="681.5375042373876" r="31.072388909222077" fill="#a9d6ff" transform="matrix(1,0,0,1,-0.5121520161628723,0)" style="transform:matrix(1, 0, 0, 1, -0.512152, 0);animation-play-state:paused" ></circle>
<circle cx="162.28474176635876" cy="681.7488231264578" r="35.170240322245746" fill="#a9d6ff" transform="matrix(1,0,0,1,-0.9663259983062744,0)" style="transform:matrix(1, 0, 0, 1, -0.966326, 0);animation-play-state:paused" ></circle>
<circle cx="197.4549820886045" cy="685.844922881869" r="34.81558483093866" fill="#a9d6ff" transform="matrix(1,0,0,1,-1.6002674102783203,0)" style="transform:matrix(1, 0, 0, 1, -1.60027, 0);animation-play-state:paused" ></circle>
<circle cx="232.27056691954317" cy="669.6290806533121" r="77.48418796221681" fill="#a9d6ff" transform="matrix(1,0,0,1,-2.429480791091919,0)" style="transform:matrix(1, 0, 0, 1, -2.42948, 0);animation-play-state:paused" ></circle>
<circle cx="309.75475488176" cy="698.495942809711" r="33.25188790533804" fill="#a9d6ff" transform="matrix(1,0,0,1,-3.4464619159698486,0)" style="transform:matrix(1, 0, 0, 1, -3.44646, 0);animation-play-state:paused" ></circle>
<circle cx="343.00664278709803" cy="699.3056916501587" r="55.28829778211853" fill="#a9d6ff" transform="matrix(1,0,0,1,-4.600757122039795,0)" style="transform:matrix(1, 0, 0, 1, -4.60076, 0);animation-play-state:paused" ></circle>
<circle cx="398.2949405692166" cy="702.4324133214576" r="67.53196060517674" fill="#a9d6ff" transform="matrix(1,0,0,1,-5.794002532958984,0)" style="transform:matrix(1, 0, 0, 1, -5.794, 0);animation-play-state:paused" ></circle>
<circle cx="465.8269011743933" cy="687.549987815366" r="69.55747563364017" fill="#a9d6ff" transform="matrix(1,0,0,1,-6.911351680755615,0)" style="transform:matrix(1, 0, 0, 1, -6.91135, 0);animation-play-state:paused" ></circle>
<circle cx="535.3843768080335" cy="679.4996791855662" r="54.74820663199563" fill="#a9d6ff" transform="matrix(1,0,0,1,-7.868857383728027,0)" style="transform:matrix(1, 0, 0, 1, -7.86886, 0);animation-play-state:paused" ></circle>
<circle cx="590.1325834400291" cy="681.2102342633121" r="37.77492259602273" fill="#a9d6ff" transform="matrix(1,0,0,1,-8.632266998291016,0)" style="transform:matrix(1, 0, 0, 1, -8.63227, 0);animation-play-state:paused" ></circle>
<circle cx="627.9075060360518" cy="650.2817641964648" r="71.8880527795917" fill="#a9d6ff" transform="matrix(1,0,0,1,-9.203954696655273,0)" style="transform:matrix(1, 0, 0, 1, -9.20395, 0);animation-play-state:paused" ></circle>
<circle cx="699.7955588156435" cy="670.9703626482619" r="34.98793882907113" fill="#a9d6ff" transform="matrix(1,0,0,1,-9.603245735168457,0)" style="transform:matrix(1, 0, 0, 1, -9.60325, 0);animation-play-state:paused" ></circle>
<circle cx="734.7834976447147" cy="616.1670449283579" r="80.83987455851708" fill="#a9d6ff" transform="matrix(1,0,0,1,-9.853781700134277,0)" style="transform:matrix(1, 0, 0, 1, -9.85378, 0);animation-play-state:paused" ></circle>
<circle cx="815.6233722032317" cy="620.2646954414656" r="62.78556738967909" fill="#a9d6ff" transform="matrix(1,0,0,1,-9.977882385253906,0)" style="transform:matrix(1, 0, 0, 1, -9.97788, 0);animation-play-state:paused" ></circle>
<circle cx="0" cy="679.3600988524349" r="73.86658428963752" fill="#b7d9ff" transform="matrix(1,0,0,1,0,0)" style="transform:matrix(1, 0, 0, 1, 0, 0);animation-play-state:paused" ></circle>
<circle cx="73.86658428963752" cy="713.1882779468816" r="56.64391148519907" fill="#b7d9ff" transform="matrix(1,0,0,1,-0.09182170033454895,0)" style="transform:matrix(1, 0, 0, 1, -0.0918217, 0);animation-play-state:paused" ></circle>
<circle cx="130.51049577483658" cy="719.3935052931315" r="61.56757360537212" fill="#b7d9ff" transform="matrix(1,0,0,1,-0.3967548906803131,0)" style="transform:matrix(1, 0, 0, 1, -0.396755, 0);animation-play-state:paused" ></circle>
<circle cx="192.07806938020872" cy="722.8773034194837" r="75.73176580426168" fill="#b7d9ff" transform="matrix(1,0,0,1,-0.9663257002830505,0)" style="transform:matrix(1, 0, 0, 1, -0.966326, 0);animation-play-state:paused" ></circle>
<circle cx="267.8098351844704" cy="754.0980573638357" r="38.87459632283758" fill="#b7d9ff" transform="matrix(1,0,0,1,-1.8546782732009888,0)" style="transform:matrix(1, 0, 0, 1, -1.85468, 0);animation-play-state:paused" ></circle>
<circle cx="306.684431507308" cy="752.8124111248846" r="64.53720431666657" fill="#b7d9ff" transform="matrix(1,0,0,1,-3.0886495113372803,0)" style="transform:matrix(1, 0, 0, 1, -3.08865, 0);animation-play-state:paused" ></circle>
<circle cx="371.22163582397457" cy="765.800525488113" r="68.03121520722418" fill="#b7d9ff" transform="matrix(1,0,0,1,-4.60075569152832,0)" style="transform:matrix(1, 0, 0, 1, -4.60076, 0);animation-play-state:paused" ></circle>
<circle cx="439.25285103119876" cy="756.4907425313398" r="63.35591585371665" fill="#b7d9ff" transform="matrix(1,0,0,1,-6.180027961730957,0)" style="transform:matrix(1, 0, 0, 1, -6.18003, 0);animation-play-state:paused" ></circle>
<circle cx="502.60876688491544" cy="734.9983516877996" r="86.63100364889581" fill="#b7d9ff" transform="matrix(1,0,0,1,-7.57051944732666,0)" style="transform:matrix(1, 0, 0, 1, -7.57052, 0);animation-play-state:paused" ></circle>
<circle cx="589.2397705338112" cy="736.9468050460595" r="47.52257212828747" fill="#b7d9ff" transform="matrix(1,0,0,1,-8.632266998291016,0)" style="transform:matrix(1, 0, 0, 1, -8.63227, 0);animation-play-state:paused" ></circle>
<circle cx="636.7623426620987" cy="706.1636980711091" r="77.014066325677" fill="#b7d9ff" transform="matrix(1,0,0,1,-9.355050086975098,0)" style="transform:matrix(1, 0, 0, 1, -9.35505, 0);animation-play-state:paused" ></circle>
<circle cx="713.7764089877758" cy="709.0005817725254" r="56.44968427126994" fill="#b7d9ff" transform="matrix(1,0,0,1,-9.785362243652344,0)" style="transform:matrix(1, 0, 0, 1, -9.78536, 0);animation-play-state:paused" ></circle>
<circle cx="770.2260932590457" cy="660.8482635280303" r="87.63322935466721" fill="#b7d9ff" transform="matrix(1,0,0,1,-9.977882385253906,0)" style="transform:matrix(1, 0, 0, 1, -9.97788, 0);animation-play-state:paused" ></circle>
<circle cx="0" cy="746.8423118074593" r="69.29807349378389" fill="#c3dcff" transform="matrix(1,0,0,1,0,0)" style="transform:matrix(1, 0, 0, 1, 0, 0);animation-play-state:paused" ></circle>
<circle cx="69.29807349378389" cy="786.7889452427845" r="44.002017044860345" fill="#c3dcff" transform="matrix(1,0,0,1,-0.14621886610984802,0)" style="transform:matrix(1, 0, 0, 1, -0.146219, 0);animation-play-state:paused" ></circle>
<circle cx="113.30009053864424" cy="781.8712727389627" r="57.05044633485522" fill="#c3dcff" transform="matrix(1,0,0,1,-0.6449503302574158,0)" style="transform:matrix(1, 0, 0, 1, -0.64495, 0);animation-play-state:paused" ></circle>
<circle cx="170.35053687349946" cy="796.3414207551784" r="50.67795655174721" fill="#c3dcff" transform="matrix(1,0,0,1,-1.600266933441162,0)" style="transform:matrix(1, 0, 0, 1, -1.60027, 0);animation-play-state:paused" ></circle>
<circle cx="221.02849342524667" cy="783.8773871496559" r="91.37539522325083" fill="#c3dcff" transform="matrix(1,0,0,1,-3.0886495113372803,0)" style="transform:matrix(1, 0, 0, 1, -3.08865, 0);animation-play-state:paused" ></circle>
<circle cx="312.4038886484975" cy="815.4144505588752" r="67.1092651833214" fill="#c3dcff" transform="matrix(1,0,0,1,-5,0)" style="transform:matrix(1, 0, 0, 1, -5, 0);animation-play-state:paused" ></circle>
<circle cx="379.5131538318189" cy="829.6531868390954" r="55.49382022458067" fill="#c3dcff" transform="matrix(1,0,0,1,-6.911351203918457,0)" style="transform:matrix(1, 0, 0, 1, -6.91135, 0);animation-play-state:paused" ></circle>
<circle cx="435.0069740563996" cy="820.4425640578727" r="56.78639523510645" fill="#c3dcff" transform="matrix(1,0,0,1,-8.39973258972168,0)" style="transform:matrix(1, 0, 0, 1, -8.39973, 0);animation-play-state:paused" ></circle>
<circle cx="491.79336929150605" cy="799.5052347007563" r="87.90006323131252" fill="#c3dcff" transform="matrix(1,0,0,1,-9.355050086975098,0)" style="transform:matrix(1, 0, 0, 1, -9.35505, 0);animation-play-state:paused" ></circle>
<circle cx="579.6934325228185" cy="778.1134308372164" r="83.22982705848476" fill="#c3dcff" transform="matrix(1,0,0,1,-9.853780746459961,0)" style="transform:matrix(1, 0, 0, 1, -9.85378, 0);animation-play-state:paused" ></circle>
<circle cx="662.9232595813032" cy="789.1617906214043" r="46.133881817709934" fill="#c3dcff" transform="matrix(1,0,0,1,-10,0)" style="transform:matrix(1, 0, 0, 1, -10, 0);animation-play-state:paused" ></circle>
<circle cx="709.0571413990132" cy="772.6205295224058" r="55.69071066936013" fill="#c3dcff" transform="matrix(1,0,0,1,-9.853780746459961,0)" style="transform:matrix(1, 0, 0, 1, -9.85378, 0);animation-play-state:paused" ></circle>
<circle cx="764.7478520683733" cy="729.6371039799387" r="83.25431489703108" fill="#c3dcff" transform="matrix(1,0,0,1,-9.355049133300781,0)" style="transform:matrix(1, 0, 0, 1, -9.35505, 0);animation-play-state:paused" ></circle>
<circle cx="0" cy="822.0482723602865" r="58.29310636642783" fill="#cedfff" transform="matrix(1,0,0,1,0,0)" style="transform:matrix(1, 0, 0, 1, 0, 0);animation-play-state:paused" ></circle>
<circle cx="58.29310636642783" cy="835.0396268722574" r="56.0280498762868" fill="#cedfff" transform="matrix(1,0,0,1,-0.2146373838186264,0)" style="transform:matrix(1, 0, 0, 1, -0.214637, 0);animation-play-state:paused" ></circle>
<circle cx="114.32115624271464" cy="846.8406432953309" r="53.73521327684806" fill="#cedfff" transform="matrix(1,0,0,1,-0.9663266539573669,0)" style="transform:matrix(1, 0, 0, 1, -0.966327, 0);animation-play-state:paused" ></circle>
<circle cx="168.05636951956268" cy="856.457036918213" r="52.93997446062812" fill="#cedfff" transform="matrix(1,0,0,1,-2.4294822216033936,0)" style="transform:matrix(1, 0, 0, 1, -2.42948, 0);animation-play-state:paused" ></circle>
<circle cx="220.9963439801908" cy="848.9222003080612" r="85.32609676944254" fill="#cedfff" transform="matrix(1,0,0,1,-4.600759983062744,0)" style="transform:matrix(1, 0, 0, 1, -4.60076, 0);animation-play-state:paused" ></circle>
<circle cx="306.32244074963336" cy="881.9218511060634" r="42.619254129549766" fill="#cedfff" transform="matrix(1,0,0,1,-6.911355018615723,0)" style="transform:matrix(1, 0, 0, 1, -6.91136, 0);animation-play-state:paused" ></circle>
<circle cx="348.9416948791831" cy="887.1621761110246" r="47.23909426477044" fill="#cedfff" transform="matrix(1,0,0,1,-8.632269859313965,0)" style="transform:matrix(1, 0, 0, 1, -8.63227, 0);animation-play-state:paused" ></circle>
<circle cx="396.1807891439536" cy="890.0321684399026" r="42.61395242538907" fill="#cedfff" transform="matrix(1,0,0,1,-9.603246688842773,0)" style="transform:matrix(1, 0, 0, 1, -9.60325, 0);animation-play-state:paused" ></circle>
<circle cx="438.79474156934265" cy="877.4511350129742" r="80.72864164786722" fill="#cedfff" transform="matrix(1,0,0,1,-9.977882385253906,0)" style="transform:matrix(1, 0, 0, 1, -9.97788, 0);animation-play-state:paused" ></circle>
<circle cx="519.5233832172098" cy="873.448784793251" r="42.73000968150616" fill="#cedfff" transform="matrix(1,0,0,1,-9.908177375793457,0)" style="transform:matrix(1, 0, 0, 1, -9.90818, 0);animation-play-state:paused" ></circle>
<circle cx="562.253392898716" cy="871.1754526740217" r="36.62708934280975" fill="#cedfff" transform="matrix(1,0,0,1,-9.355046272277832,0)" style="transform:matrix(1, 0, 0, 1, -9.35505, 0);animation-play-state:paused" ></circle>
<circle cx="598.8804822415258" cy="870.5514549788619" r="31.36827128018752" fill="#cedfff" transform="matrix(1,0,0,1,-8.14531421661377,0)" style="transform:matrix(1, 0, 0, 1, -8.14531, 0);animation-play-state:paused" ></circle>
<circle cx="630.2487535217133" cy="836.319183934479" r="71.16361063206293" fill="#cedfff" transform="matrix(1,0,0,1,-6.180017471313477,0)" style="transform:matrix(1, 0, 0, 1, -6.18002, 0);animation-play-state:paused" ></circle>
<circle cx="701.4123641537763" cy="803.2622777223878" r="88.18415302176398" fill="#cedfff" transform="matrix(1,0,0,1,-3.8199596405029297,0)" style="transform:matrix(1, 0, 0, 1, -3.81996, 0);animation-play-state:paused" ></circle>
<circle cx="789.5965171755403" cy="840.2931693852402" r="40.280822161173944" fill="#cedfff" transform="matrix(1,0,0,1,-1.8546695709228516,0)" style="transform:matrix(1, 0, 0, 1, -1.85467, 0);animation-play-state:paused" ></circle>
<circle cx="829.8773393367142" cy="813.4695390384758" r="55.681097572007204" fill="#cedfff" transform="matrix(1,0,0,1,-0.6449451446533203,0)" style="transform:matrix(1, 0, 0, 1, -0.644945, 0);animation-play-state:paused" ></circle>
<circle cx="0" cy="899.9332831128611" r="45.05559740594906" fill="#d8e3ff" transform="matrix(1,0,0,1,0,0)" style="transform:matrix(1, 0, 0, 1, 0, 0);animation-play-state:paused" ></circle>
<circle cx="45.05559740594906" cy="887.3263943525646" r="63.00194117854312" fill="#d8e3ff" transform="matrix(1,0,0,1,-0.297871857881546,0)" style="transform:matrix(1, 0, 0, 1, -0.297872, 0);animation-play-state:paused" ></circle>
<circle cx="108.05753858449218" cy="876.6843420039054" r="89.89070733205601" fill="#d8e3ff" transform="matrix(1,0,0,1,-1.3677345514297485,0)" style="transform:matrix(1, 0, 0, 1, -1.36773, 0);animation-play-state:paused" ></circle>
<circle cx="197.9482459165482" cy="910.4838946336057" r="75.3710866642532" fill="#d8e3ff" transform="matrix(1,0,0,1,-3.4464633464813232,0)" style="transform:matrix(1, 0, 0, 1, -3.44646, 0);animation-play-state:paused" ></circle>
<circle cx="273.3193325808014" cy="922.7926946336437" r="91.71067931459305" fill="#d8e3ff" transform="matrix(1,0,0,1,-6.1800312995910645,0)" style="transform:matrix(1, 0, 0, 1, -6.18003, 0);animation-play-state:paused" ></circle>
<circle cx="365.03001189539447" cy="951.3020464364192" r="52.07802205486668" fill="#d8e3ff" transform="matrix(1,0,0,1,-8.399735450744629,0)" style="transform:matrix(1, 0, 0, 1, -8.39974, 0);animation-play-state:paused" ></circle>
<circle cx="417.10803395026113" cy="944.8013112027221" r="82.12799628925144" fill="#d8e3ff" transform="matrix(1,0,0,1,-9.603246688842773,0)" style="transform:matrix(1, 0, 0, 1, -9.60325, 0);animation-play-state:paused" ></circle>
<circle cx="499.23603023951256" cy="919.6271501507824" r="92.81527350350314" fill="#d8e3ff" transform="matrix(1,0,0,1,-9.9945707321167,0)" style="transform:matrix(1, 0, 0, 1, -9.99457, 0);animation-play-state:paused" ></circle>
<circle cx="592.0513037430158" cy="907.73921438914" r="69.85031437628305" fill="#d8e3ff" transform="matrix(1,0,0,1,-9.785361289978027,0)" style="transform:matrix(1, 0, 0, 1, -9.78536, 0);animation-play-state:paused" ></circle>
<circle cx="661.9016181192987" cy="881.3559515422057" r="82.3631257685822" fill="#d8e3ff" transform="matrix(1,0,0,1,-8.843363761901855,0)" style="transform:matrix(1, 0, 0, 1, -8.84336, 0);animation-play-state:paused" ></circle>
<circle cx="744.264743887881" cy="891.3708400923409" r="54.886408035645346" fill="#d8e3ff" transform="matrix(1,0,0,1,-6.911342620849609,0)" style="transform:matrix(1, 0, 0, 1, -6.91134, 0);animation-play-state:paused" ></circle>
<circle cx="799.1511519235263" cy="884.4642069816638" r="52.930747176439105" fill="#d8e3ff" transform="matrix(1,0,0,1,-4.205990791320801,0)" style="transform:matrix(1, 0, 0, 1, -4.20599, 0);animation-play-state:paused" ></circle>
<circle cx="0" cy="976.2389296169647" r="33.13422531919613" fill="#e1e7ff" transform="matrix(1,0,0,1,0,0)" style="transform:matrix(1, 0, 0, 1, 0, 0);animation-play-state:paused" ></circle>
<circle cx="33.13422531919613" cy="967.435763131095" r="44.31945221576175" fill="#e1e7ff" transform="matrix(1,0,0,1,-0.3967548906803131,0)" style="transform:matrix(1, 0, 0, 1, -0.396755, 0);animation-play-state:paused" ></circle>
<circle cx="77.45367753495788" cy="927.8947662645814" r="92.12452233581045" fill="#e1e7ff" transform="matrix(1,0,0,1,-1.8546782732009888,0)" style="transform:matrix(1, 0, 0, 1, -1.85468, 0);animation-play-state:paused" ></circle>
<circle cx="169.57819987076834" cy="971.7944164936351" r="66.31546045677437" fill="#e1e7ff" transform="matrix(1,0,0,1,-4.60075569152832,0)" style="transform:matrix(1, 0, 0, 1, -4.60076, 0);animation-play-state:paused" ></circle>
<circle cx="235.8936603275427" cy="983.5879867095565" r="70.76834187600043" fill="#e1e7ff" transform="matrix(1,0,0,1,-7.57051944732666,0)" style="transform:matrix(1, 0, 0, 1, -7.57052, 0);animation-play-state:paused" ></circle>
<circle cx="306.6620022035431" cy="1006.2417290379569" r="41.453767711964616" fill="#e1e7ff" transform="matrix(1,0,0,1,-9.355050086975098,0)" style="transform:matrix(1, 0, 0, 1, -9.35505, 0);animation-play-state:paused" ></circle>
<circle cx="348.1157699155077" cy="1009.4683199071243" r="62.20092413707266" fill="#e1e7ff" transform="matrix(1,0,0,1,-9.977882385253906,0)" style="transform:matrix(1, 0, 0, 1, -9.97788, 0);animation-play-state:paused" ></circle>
<circle cx="410.3166940525804" cy="1012.7465735319894" r="35.89303117379756" fill="#e1e7ff" transform="matrix(1,0,0,1,-9.78536319732666,0)" style="transform:matrix(1, 0, 0, 1, -9.78536, 0);animation-play-state:paused" ></circle>
<circle cx="446.20972522637794" cy="1002.5458523752295" r="66.09976708670538" fill="#e1e7ff" transform="matrix(1,0,0,1,-8.632266998291016,0)" style="transform:matrix(1, 0, 0, 1, -8.63227, 0);animation-play-state:paused" ></circle>
<circle cx="512.3094923130833" cy="993.8201436140387" r="53.9054611762677" fill="#e1e7ff" transform="matrix(1,0,0,1,-6.180026531219482,0)" style="transform:matrix(1, 0, 0, 1, -6.18003, 0);animation-play-state:paused" ></circle>
<circle cx="566.214953489351" cy="990.8357659287188" r="43.310675524830735" fill="#e1e7ff" transform="matrix(1,0,0,1,-3.088648796081543,0)" style="transform:matrix(1, 0, 0, 1, -3.08865, 0);animation-play-state:paused" ></circle>
<circle cx="609.5256290141817" cy="969.3528504282027" r="65.03613811079501" fill="#e1e7ff" transform="matrix(1,0,0,1,-0.9663257598876953,0)" style="transform:matrix(1, 0, 0, 1, -0.966326, 0);animation-play-state:paused" ></circle>
<circle cx="674.5617671249768" cy="966.0850580951612" r="54.14828451668821" fill="#e1e7ff" transform="matrix(1,0,0,1,-0.09182167053222656,0)" style="transform:matrix(1, 0, 0, 1, -0.0918217, 0);animation-play-state:paused" ></circle>
<circle cx="728.710051641665" cy="956.559984243696" r="54.4251860984738" fill="#e1e7ff" transform="matrix(1,0,0,1,-0.09182170033454895,0)" style="transform:matrix(1, 0, 0, 1, -0.0918217, 0);animation-play-state:paused" ></circle>
<circle cx="783.1352377401388" cy="961.2106714279893" r="43.36880600050408" fill="#e1e7ff" transform="matrix(1,0,0,1,-0.9663257002830505,0)" style="transform:matrix(1, 0, 0, 1, -0.966326, 0);animation-play-state:paused" ></circle>
<circle cx="0" cy="1021.0825910226741" r="47.43117414777156" fill="#e9ebff" transform="matrix(1,0,0,1,0,0)" style="transform:matrix(1, 0, 0, 1, 0, 0);animation-play-state:paused" ></circle>
<circle cx="47.43117414777156" cy="1024.482607425986" r="50.929837623783364" fill="#e9ebff" transform="matrix(1,0,0,1,-0.5121520161628723,0)" style="transform:matrix(1, 0, 0, 1, -0.512152, 0);animation-play-state:paused" ></circle>
<circle cx="98.36101177155493" cy="996.9466339102717" r="91.00906989386033" fill="#e9ebff" transform="matrix(1,0,0,1,-2.429480791091919,0)" style="transform:matrix(1, 0, 0, 1, -2.42948, 0);animation-play-state:paused" ></circle>
<circle cx="189.37008166541526" cy="1030.6716997279138" r="78.31396375913769" fill="#e9ebff" transform="matrix(1,0,0,1,-5.794002532958984,0)" style="transform:matrix(1, 0, 0, 1, -5.794, 0);animation-play-state:paused" ></circle>
<circle cx="267.68404542455295" cy="1051.942992756406" r="72.7837930727123" fill="#e9ebff" transform="matrix(1,0,0,1,-8.632266998291016,0)" style="transform:matrix(1, 0, 0, 1, -8.63227, 0);animation-play-state:paused" ></circle>
<circle cx="340.46783849726523" cy="1071.0195254401422" r="54.08462831463505" fill="#e9ebff" transform="matrix(1,0,0,1,-9.853781700134277,0)" style="transform:matrix(1, 0, 0, 1, -9.85378, 0);animation-play-state:paused" ></circle>
<circle cx="394.5524668119003" cy="1076.2635695418503" r="42.29393501695192" fill="#e9ebff" transform="matrix(1,0,0,1,-9.908178329467773,0)" style="transform:matrix(1, 0, 0, 1, -9.90818, 0);animation-play-state:paused" ></circle>
<circle cx="436.8464018288522" cy="1065.740276548749" r="70.42138757148732" fill="#e9ebff" transform="matrix(1,0,0,1,-8.843366622924805,0)" style="transform:matrix(1, 0, 0, 1, -8.84337, 0);animation-play-state:paused" ></circle>
<circle cx="507.26778940033955" cy="1056.4114843207374" r="54.57159560294964" fill="#e9ebff" transform="matrix(1,0,0,1,-6.180024147033691,0)" style="transform:matrix(1, 0, 0, 1, -6.18002, 0);animation-play-state:paused" ></circle>
<circle cx="561.8393850032892" cy="1037.2540575243502" r="71.83020066201325" fill="#e9ebff" transform="matrix(1,0,0,1,-2.749044418334961,0)" style="transform:matrix(1, 0, 0, 1, -2.74904, 0);animation-play-state:paused" ></circle>
<circle cx="633.6695856653024" cy="1027.099781101693" r="64.17121193287518" fill="#e9ebff" transform="matrix(1,0,0,1,-0.6449489593505859,0)" style="transform:matrix(1, 0, 0, 1, -0.644949, 0);animation-play-state:paused" ></circle>
<circle cx="697.8407975981776" cy="1023.2511221024816" r="55.021612441618416" fill="#e9ebff" transform="matrix(1,0,0,1,-0.005429267883300781,0)" style="transform:matrix(1, 0, 0, 1, -0.00542927, 0);animation-play-state:paused" ></circle>
<circle cx="752.862410039796" cy="1028.0322050728255" r="42.77652873436634" fill="#e9ebff" transform="matrix(1,0,0,1,-0.3967560827732086,0)" style="transform:matrix(1, 0, 0, 1, -0.396756, 0);animation-play-state:paused" ></circle>
<circle cx="795.6389387741624" cy="984.9236008036464" r="71.4507519274275" fill="#e9ebff" transform="matrix(1,0,0,1,-2.1311471462249756,0)" style="transform:matrix(1, 0, 0, 1, -2.13115, 0);animation-play-state:paused" ></circle>
<circle cx="0" cy="1044.4645944063332" r="79.6128379947223" fill="#f0f0ff" transform="matrix(1,0,0,1,0,0)" style="transform:matrix(1, 0, 0, 1, 0, 0);animation-play-state:paused" ></circle>
<circle cx="79.6128379947223" cy="1101.401177038955" r="40.64833049382099" fill="#f0f0ff" transform="matrix(1,0,0,1,-0.6449503302574158,0)" style="transform:matrix(1, 0, 0, 1, -0.64495, 0);animation-play-state:paused" ></circle>
<circle cx="120.26116848854329" cy="1095.281394194708" r="54.4206617880835" fill="#f0f0ff" transform="matrix(1,0,0,1,-3.0886495113372803,0)" style="transform:matrix(1, 0, 0, 1, -3.08865, 0);animation-play-state:paused" ></circle>
<circle cx="174.68183027662678" cy="1102.7187999615153" r="57.307899307982446" fill="#f0f0ff" transform="matrix(1,0,0,1,-6.911351203918457,0)" style="transform:matrix(1, 0, 0, 1, -6.91135, 0);animation-play-state:paused" ></circle>
<circle cx="231.98972958460922" cy="1121.220690058919" r="39.932076921413" fill="#f0f0ff" transform="matrix(1,0,0,1,-9.355050086975098,0)" style="transform:matrix(1, 0, 0, 1, -9.35505, 0);animation-play-state:paused" ></circle>
<circle cx="271.9218065060222" cy="1109.8046303417016" r="87.6051243814455" fill="#f0f0ff" transform="matrix(1,0,0,1,-10,0)" style="transform:matrix(1, 0, 0, 1, -10, 0);animation-play-state:paused" ></circle>
<circle cx="359.52693088746776" cy="1135.158472810568" r="70.04948547503662" fill="#f0f0ff" transform="matrix(1,0,0,1,-9.355049133300781,0)" style="transform:matrix(1, 0, 0, 1, -9.35505, 0);animation-play-state:paused" ></circle>
<circle cx="429.57641636250435" cy="1129.7798310685616" r="67.58328272544021" fill="#f0f0ff" transform="matrix(1,0,0,1,-6.911350727081299,0)" style="transform:matrix(1, 0, 0, 1, -6.91135, 0);animation-play-state:paused" ></circle>
<circle cx="497.15969908794455" cy="1115.2254092569933" r="68.09852843433951" fill="#f0f0ff" transform="matrix(1,0,0,1,-3.088648796081543,0)" style="transform:matrix(1, 0, 0, 1, -3.08865, 0);animation-play-state:paused" ></circle>
<circle cx="565.2582275222841" cy="1089.6761836828011" r="87.0642917774625" fill="#f0f0ff" transform="matrix(1,0,0,1,-0.6449508666992188,0)" style="transform:matrix(1, 0, 0, 1, -0.644951, 0);animation-play-state:paused" ></circle>
<circle cx="652.3225192997465" cy="1081.3171163149875" r="68.88742789840937" fill="#f0f0ff" transform="matrix(1,0,0,1,0,0)" style="transform:matrix(1, 0, 0, 1, 0, 0);animation-play-state:paused" ></circle>
<circle cx="721.2099471981559" cy="1052.5146356274638" r="81.87294971145455" fill="#f0f0ff" transform="matrix(1,0,0,1,-0.6449503302574158,0)" style="transform:matrix(1, 0, 0, 1, -0.64495, 0);animation-play-state:paused" ></circle>
<circle cx="0" cy="1128.5096723000868" r="61.241939749927624" fill="#f6f4ff" transform="matrix(1,0,0,1,0,0)" style="transform:matrix(1, 0, 0, 1, 0, 0);animation-play-state:paused" ></circle>
<circle cx="61.241939749927624" cy="1131.9421848503523" r="69.54562532769377" fill="#f6f4ff" transform="matrix(1,0,0,1,-0.7960484027862549,0)" style="transform:matrix(1, 0, 0, 1, -0.796048, 0);animation-play-state:paused" ></circle>
<circle cx="130.7875650776214" cy="1129.8546767992557" r="91.4840968086449" fill="#f6f4ff" transform="matrix(1,0,0,1,-3.8199806213378906,0)" style="transform:matrix(1, 0, 0, 1, -3.81998, 0);animation-play-state:paused" ></circle>
<circle cx="222.27166188626632" cy="1159.2977612186305" r="85.25965649958724" fill="#f6f4ff" transform="matrix(1,0,0,1,-7.868866443634033,0)" style="transform:matrix(1, 0, 0, 1, -7.86887, 0);animation-play-state:paused" ></circle>
<circle cx="307.5313183858535" cy="1189.163720716418" r="55.170202215126466" fill="#f6f4ff" transform="matrix(1,0,0,1,-9.78536605834961,0)" style="transform:matrix(1, 0, 0, 1, -9.78537, 0);animation-play-state:paused" ></circle>
<circle cx="362.70152060097996" cy="1198.3037810603596" r="62.509822183911695" fill="#f6f4ff" transform="matrix(1,0,0,1,-9.853777885437012,0)" style="transform:matrix(1, 0, 0, 1, -9.85378, 0);animation-play-state:paused" ></circle>
<circle cx="425.21134278489166" cy="1192.855051629712" r="66.51206111484586" fill="#f6f4ff" transform="matrix(1,0,0,1,-8.145303726196289,0)" style="transform:matrix(1, 0, 0, 1, -8.1453, 0);animation-play-state:paused" ></circle>
<circle cx="491.7234038997375" cy="1170.2316309356513" r="91.62930594632323" fill="#f6f4ff" transform="matrix(1,0,0,1,-4.20596981048584,0)" style="transform:matrix(1, 0, 0, 1, -4.20597, 0);animation-play-state:paused" ></circle>
<circle cx="583.3527098460607" cy="1149.6642733661117" r="82.42841907702204" fill="#f6f4ff" transform="matrix(1,0,0,1,-0.9663095474243164,0)" style="transform:matrix(1, 0, 0, 1, -0.96631, 0);animation-play-state:paused" ></circle>
<circle cx="665.7811289230827" cy="1152.7510038502617" r="55.076032489095084" fill="#f6f4ff" transform="matrix(1,0,0,1,-0.005428314208984375,0)" style="transform:matrix(1, 0, 0, 1, -0.00542831, 0);animation-play-state:paused" ></circle>
<circle cx="720.8571614121778" cy="1159.681743222992" r="39.64460062579851" fill="#f6f4ff" transform="matrix(1,0,0,1,-0.6449658274650574,0)" style="transform:matrix(1, 0, 0, 1, -0.644966, 0);animation-play-state:paused" ></circle>
<circle cx="760.5017620379763" cy="1122.480885601829" r="66.70272889976368" fill="#f6f4ff" transform="matrix(1,0,0,1,-3.446505308151245,0)" style="transform:matrix(1, 0, 0, 1, -3.44651, 0);animation-play-state:paused" ></circle>
<circle cx="827.2044909377399" cy="1130.9618556715732" r="50.670815552167724" fill="#f6f4ff" transform="matrix(1,0,0,1,-7.570561408996582,0)" style="transform:matrix(1, 0, 0, 1, -7.57056, 0);animation-play-state:paused" ></circle>
<circle cx="0" cy="1154.5205944728618" r="91.23283793928188" fill="#fbfaff" transform="matrix(1,0,0,1,0,0)" style="transform:matrix(1, 0, 0, 1, 0, 0);animation-play-state:paused" ></circle>
<circle cx="91.23283793928188" cy="1217.4872000587568" r="50.94339369866578" fill="#fbfaff" transform="matrix(1,0,0,1,-0.9663266539573669,0)" style="transform:matrix(1, 0, 0, 1, -0.966327, 0);animation-play-state:paused" ></circle>
<circle cx="142.17623163794767" cy="1226.3678937090929" r="49.99032847231366" fill="#fbfaff" transform="matrix(1,0,0,1,-4.600759983062744,0)" style="transform:matrix(1, 0, 0, 1, -4.60076, 0);animation-play-state:paused" ></circle>
<circle cx="192.16656011026132" cy="1236.6068215542746" r="45.99688246271688" fill="#fbfaff" transform="matrix(1,0,0,1,-8.632269859313965,0)" style="transform:matrix(1, 0, 0, 1, -8.63227, 0);animation-play-state:paused" ></circle>
<circle cx="238.1634425729782" cy="1234.2960044343322" r="65.88267101173093" fill="#fbfaff" transform="matrix(1,0,0,1,-9.977882385253906,0)" style="transform:matrix(1, 0, 0, 1, -9.97788, 0);animation-play-state:paused" ></circle>
<circle cx="304.04611358470913" cy="1251.3670217230049" r="51.85323202970766" fill="#fbfaff" transform="matrix(1,0,0,1,-9.355046272277832,0)" style="transform:matrix(1, 0, 0, 1, -9.35505, 0);animation-play-state:paused" ></circle>
<circle cx="355.8993456144168" cy="1257.1591921278552" r="84.95122051427103" fill="#fbfaff" transform="matrix(1,0,0,1,-6.180017471313477,0)" style="transform:matrix(1, 0, 0, 1, -6.18002, 0);animation-play-state:paused" ></circle>
<circle cx="440.85056612868783" cy="1250.4834041547283" r="72.40286615787205" fill="#fbfaff" transform="matrix(1,0,0,1,-1.8546695709228516,0)" style="transform:matrix(1, 0, 0, 1, -1.85467, 0);animation-play-state:paused" ></circle>
<circle cx="513.2534322865599" cy="1238.794698201696" r="60.81955810164903" fill="#fbfaff" transform="matrix(1,0,0,1,-0.09181976318359375,0)" style="transform:matrix(1, 0, 0, 1, -0.0918198, 0);animation-play-state:paused" ></circle>
<circle cx="574.072990388209" cy="1232.4676285459764" r="52.056450930888964" fill="#fbfaff" transform="matrix(1,0,0,1,-0.3967595100402832,0)" style="transform:matrix(1, 0, 0, 1, -0.39676, 0);animation-play-state:paused" ></circle>
<circle cx="626.129441319098" cy="1235.1800672191364" r="37.45394223133636" fill="#fbfaff" transform="matrix(1,0,0,1,-3.0886662006378174,0)" style="transform:matrix(1, 0, 0, 1, -3.08867, 0);animation-play-state:paused" ></circle>
<circle cx="663.5833835504343" cy="1227.0473610012602" r="41.6467629789174" fill="#fbfaff" transform="matrix(1,0,0,1,-7.570536136627197,0)" style="transform:matrix(1, 0, 0, 1, -7.57054, 0);animation-play-state:paused" ></circle>
<circle cx="705.2301465293517" cy="1174.974035140348" r="87.42725476262754" fill="#fbfaff" transform="matrix(1,0,0,1,-9.785367012023926,0)" style="transform:matrix(1, 0, 0, 1, -9.78537, 0);animation-play-state:paused" ></circle>
<circle cx="792.6574012919792" cy="1210.380537782225" r="41.45984151852569" fill="#fbfaff" transform="matrix(1,0,0,1,-9.785358428955078,0)" style="transform:matrix(1, 0, 0, 1, -9.78536, 0);animation-play-state:paused" ></circle>
<circle cx="0" cy="1249.3319384662516" r="63.89005127812376" fill="#ffffff" transform="matrix(1,0,0,1,0,0)" style="transform:matrix(1, 0, 0, 1, 0, 0);animation-play-state:paused" ></circle>
<circle cx="63.89005127812376" cy="1260.2769647116872" r="65.78650444093255" fill="#ffffff" transform="matrix(1,0,0,1,-1.1566351652145386,0)" style="transform:matrix(1, 0, 0, 1, -1.15664, 0);animation-play-state:paused" ></circle>
<circle cx="129.6765557190563" cy="1299.6502387979951" r="33.2654819837119" fill="#ffffff" transform="matrix(1,0,0,1,-5.399253845214844,0)" style="transform:matrix(1, 0, 0, 1, -5.39925, 0);animation-play-state:paused" ></circle>
<circle cx="162.9420377027682" cy="1280.717102934331" r="65.86896922359178" fill="#ffffff" transform="matrix(1,0,0,1,-9.203959465026855,0)" style="transform:matrix(1, 0, 0, 1, -9.20396, 0);animation-play-state:paused" ></circle>
<circle cx="228.81100692636" cy="1284.5948394492416" r="86.21047503238653" fill="#ffffff" transform="matrix(1,0,0,1,-9.97788143157959,0)" style="transform:matrix(1, 0, 0, 1, -9.97788, 0);animation-play-state:paused" ></circle>
<circle cx="315.0214819587465" cy="1318.0081528501623" r="38.218983834886274" fill="#ffffff" transform="matrix(1,0,0,1,-8.399717330932617,0)" style="transform:matrix(1, 0, 0, 1, -8.39972, 0);animation-play-state:paused" ></circle>
<circle cx="353.2404657936328" cy="1318.8337134442204" r="80.61993936468657" fill="#ffffff" transform="matrix(1,0,0,1,-3.819941997528076,0)" style="transform:matrix(1, 0, 0, 1, -3.81994, 0);animation-play-state:paused" ></circle>
<circle cx="433.86040515831934" cy="1318.4472714761273" r="45.857901009124376" fill="#ffffff" transform="matrix(1,0,0,1,-0.5121402740478516,0)" style="transform:matrix(1, 0, 0, 1, -0.51214, 0);animation-play-state:paused" ></circle>
<circle cx="479.7183061674437" cy="1304.3697922284036" r="70.01346105816567" fill="#ffffff" transform="matrix(1,0,0,1,-0.09182664752006531,0)" style="transform:matrix(1, 0, 0, 1, -0.0918266, 0);animation-play-state:paused" ></circle>
<circle cx="549.7317672256094" cy="1301.6426941872942" r="46.02931777190125" fill="#ffffff" transform="matrix(1,0,0,1,-2.1311769485473633,0)" style="transform:matrix(1, 0, 0, 1, -2.13118, 0);animation-play-state:paused" ></circle>
<circle cx="595.7610849975106" cy="1303.5307090099243" r="33.339521705545614" fill="#ffffff" transform="matrix(1,0,0,1,-6.911396026611328,0)" style="transform:matrix(1, 0, 0, 1, -6.9114, 0);animation-play-state:paused" ></circle>
<circle cx="629.1006067030562" cy="1278.1292473442409" r="61.465560677705525" fill="#ffffff" transform="matrix(1,0,0,1,-9.702140808105469,0)" style="transform:matrix(1, 0, 0, 1, -9.70214, 0);animation-play-state:paused" ></circle>
<circle cx="690.5661673807617" cy="1287.8701500247994" r="39.22174629253976" fill="#ffffff" transform="matrix(1,0,0,1,-9.785350799560547,0)" style="transform:matrix(1, 0, 0, 1, -9.78535, 0);animation-play-state:paused" ></circle>
<circle cx="729.7879136733015" cy="1274.4512062345786" r="47.05365888740701" fill="#ffffff" transform="matrix(1,0,0,1,-7.250898361206055,0)" style="transform:matrix(1, 0, 0, 1, -7.2509, 0);animation-play-state:paused" ></circle>
<circle cx="776.8415725607085" cy="1227.0914177042653" r="79.53802223356375" fill="#ffffff" transform="matrix(1,0,0,1,-2.4294233322143555,0)" style="transform:matrix(1, 0, 0, 1, -2.42942, 0);animation-play-state:paused" ></circle></g></svg>