<?xml version="1.0" encoding="utf-8"?><svg xmlns="http://www.w3.org/2000/svg" xmlns:xlink="http://www.w3.org/1999/xlink" width="777" height="1264" preserveAspectRatio="xMidYMid" viewBox="0 0 777 1264" style="z-index:1;margin-right:-2px;display:block;background-repeat-y:initial;background-repeat-x:initial;background-color:rgb(153, 204, 255);animation-play-state:paused" ><g transform="translate(388.5,632) scale(1,1) translate(-388.5,-632)" style="transform:matrix(1, 0, 0, 1, 0, 0);animation-play-state:paused" ><defs style="animation-play-state:paused" ><linearGradient id="lg-0.20234402135260887" x1="0" x2="0" y1="0" y2="1" style="animation-play-state:paused" ><stop stop-color="#b0dfff" offset="0" style="animation-play-state:paused" ></stop>

  
<stop stop-color="#5bb7f4" offset="1" style="animation-play-state:paused" ></stop></linearGradient></defs>


<rect x="0" y="0" width="777" height="1264" fill="url(#lg-0.20234402135260887)" style="animation-play-state:paused" ></rect>
<circle cx="0" cy="484.70200244131036" r="81.08166463224136" fill="#8bd0fd" transform="matrix(1,0,0,1,0,0)" style="transform:matrix(1, 0, 0, 1, 0, 0);animation-play-state:paused" ></circle>
<circle cx="81.08166463224136" cy="529.4468952085517" r="55.344999691959806" fill="#8bd0fd" transform="matrix(1,0,0,1,-0.005429744720458984,0)" style="transform:matrix(1, 0, 0, 1, -0.00542974, 0);animation-play-state:paused" ></circle>
<circle cx="136.42666432420117" cy="526.9404746346803" r="70.71561650593752" fill="#8bd0fd" transform="matrix(1,0,0,1,-0.022117653861641884,0)" style="transform:matrix(1, 0, 0, 1, -0.0221177, 0);animation-play-state:paused" ></circle>
<circle cx="207.1422808301387" cy="548.6004194275756" r="59.62312638148444" fill="#8bd0fd" transform="matrix(1,0,0,1,-0.05069183558225632,0)" style="transform:matrix(1, 0, 0, 1, -0.0506918, 0);animation-play-state:paused" ></circle>
<circle cx="266.76540721162314" cy="547.9053001292835" r="90.67397220717015" fill="#8bd0fd" transform="matrix(1,0,0,1,-0.09182170033454895,0)" style="transform:matrix(1, 0, 0, 1, -0.0918217, 0);animation-play-state:paused" ></circle>
<circle cx="357.4393794187933" cy="574.8501992186407" r="74.52355940259662" fill="#8bd0fd" transform="matrix(1,0,0,1,-0.14621886610984802,0)" style="transform:matrix(1, 0, 0, 1, -0.146219, 0);animation-play-state:paused" ></circle>
<circle cx="431.9629388213899" cy="577.0012823611572" r="37.234823034536795" fill="#8bd0fd" transform="matrix(1,0,0,1,-0.21463720500469208,0)" style="transform:matrix(1, 0, 0, 1, -0.214637, 0);animation-play-state:paused" ></circle>
<circle cx="469.19776185592673" cy="561.0842237297499" r="83.91165271204054" fill="#8bd0fd" transform="matrix(1,0,0,1,-0.2978716492652893,0)" style="transform:matrix(1, 0, 0, 1, -0.297872, 0);animation-play-state:paused" ></circle>
<circle cx="553.1094145679673" cy="559.0394994509835" r="45.158182915927945" fill="#8bd0fd" transform="matrix(1,0,0,1,-0.3967548906803131,0)" style="transform:matrix(1, 0, 0, 1, -0.396755, 0);animation-play-state:paused" ></circle>
<circle cx="598.2675974838952" cy="527.9592453722014" r="83.40513273072608" fill="#8bd0fd" transform="matrix(1,0,0,1,-0.5121519565582275,0)" style="transform:matrix(1, 0, 0, 1, -0.512152, 0);animation-play-state:paused" ></circle>
<circle cx="681.6727302146213" cy="531.3240097967581" r="55.961384322099384" fill="#8bd0fd" transform="matrix(1,0,0,1,-0.6449503302574158,0)" style="transform:matrix(1, 0, 0, 1, -0.64495, 0);animation-play-state:paused" ></circle>
<circle cx="737.6341145367207" cy="541.4002435005186" r="37.64791413794834" fill="#8bd0fd" transform="matrix(1,0,0,1,-0.7960466146469116,0)" style="transform:matrix(1, 0, 0, 1, -0.796047, 0);animation-play-state:paused" ></circle>
<circle cx="775.282028674669" cy="542.7882755343934" r="32.82157611934448" fill="#8bd0fd" transform="matrix(1,0,0,1,-0.9663257002830505,0)" style="transform:matrix(1, 0, 0, 1, -0.966326, 0);animation-play-state:paused" ></circle>
<circle cx="808.1036047940136" cy="482.8723513165437" r="76.48308044689813" fill="#8bd0fd" transform="matrix(1,0,0,1,-1.156632423400879,0)" style="transform:matrix(1, 0, 0, 1, -1.15663, 0);animation-play-state:paused" ></circle>
<circle cx="0" cy="565.1384040748362" r="65.71799660430314" fill="#9bd3ff" transform="matrix(1,0,0,1,0,0)" style="transform:matrix(1, 0, 0, 1, 0, 0);animation-play-state:paused" ></circle>
<circle cx="65.71799660430314" cy="562.22020704165" r="82.0250438120267" fill="#9bd3ff" transform="matrix(1,0,0,1,-0.022117653861641884,0)" style="transform:matrix(1, 0, 0, 1, -0.0221177, 0);animation-play-state:paused" ></circle>
<circle cx="147.74304041632985" cy="587.8938460518473" r="75.44690451368574" fill="#9bd3ff" transform="matrix(1,0,0,1,-0.09182170033454895,0)" style="transform:matrix(1, 0, 0, 1, -0.0918217, 0);animation-play-state:paused" ></circle>
<circle cx="223.1899449300156" cy="613.5150935322257" r="59.70289263265715" fill="#9bd3ff" transform="matrix(1,0,0,1,-0.21463720500469208,0)" style="transform:matrix(1, 0, 0, 1, -0.214637, 0);animation-play-state:paused" ></circle>
<circle cx="282.89283756267275" cy="619.9642973576681" r="73.68400542977311" fill="#9bd3ff" transform="matrix(1,0,0,1,-0.3967548906803131,0)" style="transform:matrix(1, 0, 0, 1, -0.396755, 0);animation-play-state:paused" ></circle>
<circle cx="356.57684299244585" cy="638.3642694792276" r="57.15499114540273" fill="#9bd3ff" transform="matrix(1,0,0,1,-0.6449503302574158,0)" style="transform:matrix(1, 0, 0, 1, -0.64495, 0);animation-play-state:paused" ></circle>
<circle cx="413.7318341378486" cy="638.1320000802557" r="75.29238515275006" fill="#9bd3ff" transform="matrix(1,0,0,1,-0.9663257002830505,0)" style="transform:matrix(1, 0, 0, 1, -0.966326, 0);animation-play-state:paused" ></circle>
<circle cx="489.02421929059864" cy="620.0077608835182" r="77.26981088514063" fill="#9bd3ff" transform="matrix(1,0,0,1,-1.3677335977554321,0)" style="transform:matrix(1, 0, 0, 1, -1.36773, 0);animation-play-state:paused" ></circle>
<circle cx="566.2940301757393" cy="597.1021294494103" r="85.39761192063467" fill="#9bd3ff" transform="matrix(1,0,0,1,-1.8546782732009888,0)" style="transform:matrix(1, 0, 0, 1, -1.85468, 0);animation-play-state:paused" ></circle>
<circle cx="651.6916420963739" cy="569.1292566814639" r="92.0979213333083" fill="#9bd3ff" transform="matrix(1,0,0,1,-2.4294803142547607,0)" style="transform:matrix(1, 0, 0, 1, -2.42948, 0);animation-play-state:paused" ></circle>
<circle cx="743.7895634296822" cy="585.0729663136506" r="53.695996504359556" fill="#9bd3ff" transform="matrix(1,0,0,1,-3.0886495113372803,0)" style="transform:matrix(1, 0, 0, 1, -3.08865, 0);animation-play-state:paused" ></circle>
<circle cx="797.4855599340417" cy="533.4337177719046" r="87.52346629822033" fill="#9bd3ff" transform="matrix(1,0,0,1,-3.819972276687622,0)" style="transform:matrix(1, 0, 0, 1, -3.81997, 0);animation-play-state:paused" ></circle>
<circle cx="0" cy="667.5310706653495" r="32.05744111220873" fill="#a9d6ff" transform="matrix(1,0,0,1,0,0)" style="transform:matrix(1, 0, 0, 1, 0, 0);animation-play-state:paused" ></circle>
<circle cx="32.05744111220873" cy="608.4242027106745" r="88.62624168951658" fill="#a9d6ff" transform="matrix(1,0,0,1,-0.05069185048341751,0)" style="transform:matrix(1, 0, 0, 1, -0.0506919, 0);animation-play-state:paused" ></circle>
<circle cx="120.6836828017253" cy="663.2090865265935" r="51.72783489050456" fill="#a9d6ff" transform="matrix(1,0,0,1,-0.21463724970817566,0)" style="transform:matrix(1, 0, 0, 1, -0.214637, 0);animation-play-state:paused" ></circle>
<circle cx="172.41151769222986" cy="649.2523370709739" r="85.02098620464771" fill="#a9d6ff" transform="matrix(1,0,0,1,-0.5121520161628723,0)" style="transform:matrix(1, 0, 0, 1, -0.512152, 0);animation-play-state:paused" ></circle>
<circle cx="257.43250389687756" cy="683.9711249011893" r="54.4135542776273" fill="#a9d6ff" transform="matrix(1,0,0,1,-0.9663259983062744,0)" style="transform:matrix(1, 0, 0, 1, -0.966326, 0);animation-play-state:paused" ></circle>
<circle cx="311.84605817450483" cy="696.411030840122" r="40.499271030025284" fill="#a9d6ff" transform="matrix(1,0,0,1,-1.6002674102783203,0)" style="transform:matrix(1, 0, 0, 1, -1.60027, 0);animation-play-state:paused" ></circle>
<circle cx="352.3453292045301" cy="695.9139516905909" r="90.31635659590486" fill="#a9d6ff" transform="matrix(1,0,0,1,-2.429480791091919,0)" style="transform:matrix(1, 0, 0, 1, -2.42948, 0);animation-play-state:paused" ></circle>
<circle cx="442.66168580043495" cy="696.5300155676586" r="56.60657371831543" fill="#a9d6ff" transform="matrix(1,0,0,1,-3.4464619159698486,0)" style="transform:matrix(1, 0, 0, 1, -3.44646, 0);animation-play-state:paused" ></circle>
<circle cx="499.26825951875037" cy="693.5325747223313" r="36.43940016013335" fill="#a9d6ff" transform="matrix(1,0,0,1,-4.600757122039795,0)" style="transform:matrix(1, 0, 0, 1, -4.60076, 0);animation-play-state:paused" ></circle>
<circle cx="535.7076596788837" cy="664.2617862535956" r="91.79377438561889" fill="#a9d6ff" transform="matrix(1,0,0,1,-5.794002532958984,0)" style="transform:matrix(1, 0, 0, 1, -5.794, 0);animation-play-state:paused" ></circle>
<circle cx="627.5014340645026" cy="649.4632282167292" r="76.58439346390709" fill="#a9d6ff" transform="matrix(1,0,0,1,-6.911351680755615,0)" style="transform:matrix(1, 0, 0, 1, -6.91135, 0);animation-play-state:paused" ></circle>
<circle cx="704.0858275284097" cy="640.1118147111281" r="67.59270577621861" fill="#a9d6ff" transform="matrix(1,0,0,1,-7.868857383728027,0)" style="transform:matrix(1, 0, 0, 1, -7.86886, 0);animation-play-state:paused" ></circle>
<circle cx="771.6785333046283" cy="664.4881954527319" r="35.0735898649459" fill="#a9d6ff" transform="matrix(1,0,0,1,-8.632266998291016,0)" style="transform:matrix(1, 0, 0, 1, -8.63227, 0);animation-play-state:paused" ></circle>
<circle cx="806.7521231695742" cy="619.1431617423527" r="67.23193936905017" fill="#a9d6ff" transform="matrix(1,0,0,1,-9.203954696655273,0)" style="transform:matrix(1, 0, 0, 1, -9.20395, 0);animation-play-state:paused" ></circle>
<circle cx="0" cy="706.8842580095318" r="50.92978499205684" fill="#b7d9ff" transform="matrix(1,0,0,1,0,0)" style="transform:matrix(1, 0, 0, 1, 0, 0);animation-play-state:paused" ></circle>
<circle cx="50.92978499205684" cy="697.7753125341616" r="67.34966995393896" fill="#b7d9ff" transform="matrix(1,0,0,1,-0.09182170033454895,0)" style="transform:matrix(1, 0, 0, 1, -0.0918217, 0);animation-play-state:paused" ></circle>
<circle cx="118.2794549459958" cy="741.4354406518687" r="31.82687714303419" fill="#b7d9ff" transform="matrix(1,0,0,1,-0.3967548906803131,0)" style="transform:matrix(1, 0, 0, 1, -0.396755, 0);animation-play-state:paused" ></circle>
<circle cx="150.10633208903" cy="702.5593186336397" r="88.87157439211596" fill="#b7d9ff" transform="matrix(1,0,0,1,-0.9663257002830505,0)" style="transform:matrix(1, 0, 0, 1, -0.966326, 0);animation-play-state:paused" ></circle>
<circle cx="238.97790648114596" cy="725.0828088269778" r="92.9256694798344" fill="#b7d9ff" transform="matrix(1,0,0,1,-1.8546782732009888,0)" style="transform:matrix(1, 0, 0, 1, -1.85468, 0);animation-play-state:paused" ></circle>
<circle cx="331.90357596098033" cy="760.877850107585" r="40.74101971671685" fill="#b7d9ff" transform="matrix(1,0,0,1,-3.0886495113372803,0)" style="transform:matrix(1, 0, 0, 1, -3.08865, 0);animation-play-state:paused" ></circle>
<circle cx="372.64459567769717" cy="764.4826843350161" r="71.81973561763827" fill="#b7d9ff" transform="matrix(1,0,0,1,-4.60075569152832,0)" style="transform:matrix(1, 0, 0, 1, -4.60076, 0);animation-play-state:paused" ></circle>
<circle cx="444.46433129533546" cy="753.6285144233227" r="83.13810507081072" fill="#b7d9ff" transform="matrix(1,0,0,1,-6.180027961730957,0)" style="transform:matrix(1, 0, 0, 1, -6.18003, 0);animation-play-state:paused" ></circle>
<circle cx="527.6024363661462" cy="729.9359407058625" r="88.59110967718554" fill="#b7d9ff" transform="matrix(1,0,0,1,-7.57051944732666,0)" style="transform:matrix(1, 0, 0, 1, -7.57052, 0);animation-play-state:paused" ></circle>
<circle cx="616.1935460433317" cy="725.1511663604105" r="60.92535397633585" fill="#b7d9ff" transform="matrix(1,0,0,1,-8.632266998291016,0)" style="transform:matrix(1, 0, 0, 1, -8.63227, 0);animation-play-state:paused" ></circle>
<circle cx="677.1189000196675" cy="734.9886811592874" r="37.02950317512974" fill="#b7d9ff" transform="matrix(1,0,0,1,-9.355050086975098,0)" style="transform:matrix(1, 0, 0, 1, -9.35505, 0);animation-play-state:paused" ></circle>
<circle cx="714.1484031947973" cy="680.6126774995249" r="86.87788848946153" fill="#b7d9ff" transform="matrix(1,0,0,1,-9.785362243652344,0)" style="transform:matrix(1, 0, 0, 1, -9.78536, 0);animation-play-state:paused" ></circle>
<circle cx="801.0262916842588" cy="674.9782704411077" r="73.00331045988588" fill="#b7d9ff" transform="matrix(1,0,0,1,-9.977882385253906,0)" style="transform:matrix(1, 0, 0, 1, -9.97788, 0);animation-play-state:paused" ></circle>
<circle cx="0" cy="768.1070403986454" r="51.57746633446215" fill="#c3dcff" transform="matrix(1,0,0,1,0,0)" style="transform:matrix(1, 0, 0, 1, 0, 0);animation-play-state:paused" ></circle>
<circle cx="51.57746633446215" cy="797.1607419053756" r="31.555353963616753" fill="#c3dcff" transform="matrix(1,0,0,1,-0.14621886610984802,0)" style="transform:matrix(1, 0, 0, 1, -0.146219, 0);animation-play-state:paused" ></circle>
<circle cx="83.13282029807891" cy="776.0651301921077" r="57.18169882352705" fill="#c3dcff" transform="matrix(1,0,0,1,-0.6449503302574158,0)" style="transform:matrix(1, 0, 0, 1, -0.64495, 0);animation-play-state:paused" ></circle>
<circle cx="140.31451912160597" cy="785.6999052411355" r="57.78805282009926" fill="#c3dcff" transform="matrix(1,0,0,1,-1.600266933441162,0)" style="transform:matrix(1, 0, 0, 1, -1.60027, 0);animation-play-state:paused" ></circle>
<circle cx="198.10257194170524" cy="778.9673118513738" r="86.77550404230867" fill="#c3dcff" transform="matrix(1,0,0,1,-3.0886495113372803,0)" style="transform:matrix(1, 0, 0, 1, -3.08865, 0);animation-play-state:paused" ></circle>
<circle cx="284.8780759840139" cy="805.3633106654921" r="76.9733649301514" fill="#c3dcff" transform="matrix(1,0,0,1,-5,0)" style="transform:matrix(1, 0, 0, 1, -5, 0);animation-play-state:paused" ></circle>
<circle cx="361.8514409141653" cy="823.2045521655969" r="82.55704292685229" fill="#c3dcff" transform="matrix(1,0,0,1,-6.911351203918457,0)" style="transform:matrix(1, 0, 0, 1, -6.91135, 0);animation-play-state:paused" ></circle>
<circle cx="444.40848384101764" cy="818.1784631917789" r="68.45513021860445" fill="#c3dcff" transform="matrix(1,0,0,1,-8.39973258972168,0)" style="transform:matrix(1, 0, 0, 1, -8.39973, 0);animation-play-state:paused" ></circle>
<circle cx="512.8636140596221" cy="795.6153174713659" r="89.51204138622427" fill="#c3dcff" transform="matrix(1,0,0,1,-9.355050086975098,0)" style="transform:matrix(1, 0, 0, 1, -9.35505, 0);animation-play-state:paused" ></circle>
<circle cx="602.3756554458464" cy="808.3049914457324" r="32.84038571291518" fill="#c3dcff" transform="matrix(1,0,0,1,-9.853780746459961,0)" style="transform:matrix(1, 0, 0, 1, -9.85378, 0);animation-play-state:paused" ></circle>
<circle cx="635.2160411587615" cy="783.9291954533829" r="60.45582971384183" fill="#c3dcff" transform="matrix(1,0,0,1,-10,0)" style="transform:matrix(1, 0, 0, 1, -10, 0);animation-play-state:paused" ></circle>
<circle cx="695.6718708726033" cy="776.7968199578494" r="56.07456662524271" fill="#c3dcff" transform="matrix(1,0,0,1,-9.853780746459961,0)" style="transform:matrix(1, 0, 0, 1, -9.85378, 0);animation-play-state:paused" ></circle>
<circle cx="751.746437497846" cy="767.8212445125063" r="55.41794773746537" fill="#c3dcff" transform="matrix(1,0,0,1,-9.355049133300781,0)" style="transform:matrix(1, 0, 0, 1, -9.35505, 0);animation-play-state:paused" ></circle>
<circle cx="807.1643852353114" cy="784.2546576080557" r="35.3745269998735" fill="#c3dcff" transform="matrix(1,0,0,1,-8.399733543395996,0)" style="transform:matrix(1, 0, 0, 1, -8.39973, 0);animation-play-state:paused" ></circle>
<circle cx="0" cy="839.4192486295036" r="43.817292808747005" fill="#cedfff" transform="matrix(1,0,0,1,0,0)" style="transform:matrix(1, 0, 0, 1, 0, 0);animation-play-state:paused" ></circle>
<circle cx="43.817292808747005" cy="847.637237435004" r="41.66859572809447" fill="#cedfff" transform="matrix(1,0,0,1,-0.2146373838186264,0)" style="transform:matrix(1, 0, 0, 1, -0.214637, 0);animation-play-state:paused" ></circle>
<circle cx="85.48588853684149" cy="811.4013722700154" r="86.11416016760361" fill="#cedfff" transform="matrix(1,0,0,1,-0.9663266539573669,0)" style="transform:matrix(1, 0, 0, 1, -0.966327, 0);animation-play-state:paused" ></circle>
<circle cx="171.6000487044451" cy="851.0293210385039" r="61.15380494350624" fill="#cedfff" transform="matrix(1,0,0,1,-2.4294822216033936,0)" style="transform:matrix(1, 0, 0, 1, -2.42948, 0);animation-play-state:paused" ></circle>
<circle cx="232.75385364795133" cy="863.3540754103227" r="59.5463727554761" fill="#cedfff" transform="matrix(1,0,0,1,-4.600759983062744,0)" style="transform:matrix(1, 0, 0, 1, -4.60076, 0);animation-play-state:paused" ></circle>
<circle cx="292.3002264034274" cy="875.1344920934038" r="56.75905442001046" fill="#cedfff" transform="matrix(1,0,0,1,-6.911355018615723,0)" style="transform:matrix(1, 0, 0, 1, -6.91136, 0);animation-play-state:paused" ></circle>
<circle cx="349.05928082343786" cy="887.4947103020697" r="36.98176833884163" fill="#cedfff" transform="matrix(1,0,0,1,-8.632269859313965,0)" style="transform:matrix(1, 0, 0, 1, -8.63227, 0);animation-play-state:paused" ></circle>
<circle cx="386.0410491622795" cy="891.6315163243453" r="48.51523998088341" fill="#cedfff" transform="matrix(1,0,0,1,-9.603246688842773,0)" style="transform:matrix(1, 0, 0, 1, -9.60325, 0);animation-play-state:paused" ></circle>
<circle cx="434.55628914316287" cy="885.9011768446655" r="42.871321881838014" fill="#cedfff" transform="matrix(1,0,0,1,-9.977882385253906,0)" style="transform:matrix(1, 0, 0, 1, -9.97788, 0);animation-play-state:paused" ></circle>
<circle cx="477.4276110250009" cy="880.5480802526745" r="41.69187697119538" fill="#cedfff" transform="matrix(1,0,0,1,-9.908177375793457,0)" style="transform:matrix(1, 0, 0, 1, -9.90818, 0);animation-play-state:paused" ></circle>
<circle cx="519.1194879961963" cy="866.464937904798" r="63.29052793073558" fill="#cedfff" transform="matrix(1,0,0,1,-9.355046272277832,0)" style="transform:matrix(1, 0, 0, 1, -9.35505, 0);animation-play-state:paused" ></circle>
<circle cx="582.4100159269319" cy="838.3494991883194" r="89.57427781516245" fill="#cedfff" transform="matrix(1,0,0,1,-8.14531421661377,0)" style="transform:matrix(1, 0, 0, 1, -8.14531, 0);animation-play-state:paused" ></circle>
<circle cx="671.9842937420943" cy="835.1450003138146" r="64.93060305185192" fill="#cedfff" transform="matrix(1,0,0,1,-6.180017471313477,0)" style="transform:matrix(1, 0, 0, 1, -6.18002, 0);animation-play-state:paused" ></circle>
<circle cx="736.9148967939462" cy="798.5592589790558" r="86.82590837504144" fill="#cedfff" transform="matrix(1,0,0,1,-3.8199596405029297,0)" style="transform:matrix(1, 0, 0, 1, -3.81996, 0);animation-play-state:paused" ></circle>
<circle cx="823.7408051689877" cy="831.3143157575228" r="45.140506221317665" fill="#cedfff" transform="matrix(1,0,0,1,-1.8546695709228516,0)" style="transform:matrix(1, 0, 0, 1, -1.85467, 0);animation-play-state:paused" ></circle>
<circle cx="0" cy="885.5967467485416" r="57.002711042882005" fill="#d8e3ff" transform="matrix(1,0,0,1,0,0)" style="transform:matrix(1, 0, 0, 1, 0, 0);animation-play-state:paused" ></circle>
<circle cx="57.002711042882005" cy="894.6792559376233" r="57.934382964678726" fill="#d8e3ff" transform="matrix(1,0,0,1,-0.297871857881546,0)" style="transform:matrix(1, 0, 0, 1, -0.297872, 0);animation-play-state:paused" ></circle>
<circle cx="114.93709400756073" cy="896.9729809864895" r="67.48903817440191" fill="#d8e3ff" transform="matrix(1,0,0,1,-1.3677345514297485,0)" style="transform:matrix(1, 0, 0, 1, -1.36773, 0);animation-play-state:paused" ></circle>
<circle cx="182.42613218196266" cy="925.2060542906902" r="45.23640004476638" fill="#d8e3ff" transform="matrix(1,0,0,1,-3.4464633464813232,0)" style="transform:matrix(1, 0, 0, 1, -3.44646, 0);animation-play-state:paused" ></circle>
<circle cx="227.66253222672904" cy="919.1705686998381" r="70.10821880958107" fill="#d8e3ff" transform="matrix(1,0,0,1,-6.1800312995910645,0)" style="transform:matrix(1, 0, 0, 1, -6.18003, 0);animation-play-state:paused" ></circle>
<circle cx="297.7707510363101" cy="938.4346271378319" r="55.54206082036104" fill="#d8e3ff" transform="matrix(1,0,0,1,-8.399735450744629,0)" style="transform:matrix(1, 0, 0, 1, -8.39974, 0);animation-play-state:paused" ></circle>
<circle cx="353.31281185667115" cy="947.919817586911" r="55.94249384802729" fill="#d8e3ff" transform="matrix(1,0,0,1,-9.603246688842773,0)" style="transform:matrix(1, 0, 0, 1, -9.60325, 0);animation-play-state:paused" ></circle>
<circle cx="409.25530570469846" cy="948.9963577900215" r="78.04891860079026" fill="#d8e3ff" transform="matrix(1,0,0,1,-9.9945707321167,0)" style="transform:matrix(1, 0, 0, 1, -9.99457, 0);animation-play-state:paused" ></circle>
<circle cx="487.30422430548873" cy="943.3807194893429" r="34.79600279736469" fill="#d8e3ff" transform="matrix(1,0,0,1,-9.785361289978027,0)" style="transform:matrix(1, 0, 0, 1, -9.78536, 0);animation-play-state:paused" ></circle>
<circle cx="522.1002271028534" cy="917.4601925885529" r="88.54597709889174" fill="#d8e3ff" transform="matrix(1,0,0,1,-8.843363761901855,0)" style="transform:matrix(1, 0, 0, 1, -8.84336, 0);animation-play-state:paused" ></circle>
<circle cx="610.6462042017451" cy="902.0580816394818" r="75.69877743193811" fill="#d8e3ff" transform="matrix(1,0,0,1,-6.911342620849609,0)" style="transform:matrix(1, 0, 0, 1, -6.91134, 0);animation-play-state:paused" ></circle>
<circle cx="686.3449816336832" cy="922.5320496652761" r="34.20487014750745" fill="#d8e3ff" transform="matrix(1,0,0,1,-4.205990791320801,0)" style="transform:matrix(1, 0, 0, 1, -4.20599, 0);animation-play-state:paused" ></circle>
<circle cx="720.5498517811907" cy="861.8762912979912" r="89.82100287739026" fill="#d8e3ff" transform="matrix(1,0,0,1,-1.8546714782714844,0)" style="transform:matrix(1, 0, 0, 1, -1.85467, 0);animation-play-state:paused" ></circle>
<circle cx="810.3708546585809" cy="875.7406669776528" r="60.057381983615855" fill="#d8e3ff" transform="matrix(1,0,0,1,-0.5121488571166992,0)" style="transform:matrix(1, 0, 0, 1, -0.512149, 0);animation-play-state:paused" ></circle>
<circle cx="0" cy="957.2354336566447" r="48.97047195279609" fill="#e1e7ff" transform="matrix(1,0,0,1,0,0)" style="transform:matrix(1, 0, 0, 1, 0, 0);animation-play-state:paused" ></circle>
<circle cx="48.97047195279609" cy="970.727482940079" r="43.16849106600149" fill="#e1e7ff" transform="matrix(1,0,0,1,-0.3967548906803131,0)" style="transform:matrix(1, 0, 0, 1, -0.396755, 0);animation-play-state:paused" ></circle>
<circle cx="92.13896301879758" cy="967.1041745631492" r="53.41465816973957" fill="#e1e7ff" transform="matrix(1,0,0,1,-1.8546782732009888,0)" style="transform:matrix(1, 0, 0, 1, -1.85468, 0);animation-play-state:paused" ></circle>
<circle cx="145.55362118853714" cy="992.1894712755206" r="31.72987682410556" fill="#e1e7ff" transform="matrix(1,0,0,1,-4.60075569152832,0)" style="transform:matrix(1, 0, 0, 1, -4.60076, 0);animation-play-state:paused" ></circle>
<circle cx="177.2834980126427" cy="969.6811243532497" r="70.99699052649298" fill="#e1e7ff" transform="matrix(1,0,0,1,-7.57051944732666,0)" style="transform:matrix(1, 0, 0, 1, -7.57052, 0);animation-play-state:paused" ></circle>
<circle cx="248.28048853913566" cy="996.6314594292046" r="44.71963241396076" fill="#e1e7ff" transform="matrix(1,0,0,1,-9.355050086975098,0)" style="transform:matrix(1, 0, 0, 1, -9.35505, 0);animation-play-state:paused" ></circle>
<circle cx="293.0001209530964" cy="1005.9708238806754" r="33.99947519343593" fill="#e1e7ff" transform="matrix(1,0,0,1,-9.977882385253906,0)" style="transform:matrix(1, 0, 0, 1, -9.97788, 0);animation-play-state:paused" ></circle>
<circle cx="326.9995961465323" cy="1008.338853352678" r="40.329755118033056" fill="#e1e7ff" transform="matrix(1,0,0,1,-9.78536319732666,0)" style="transform:matrix(1, 0, 0, 1, -9.78536, 0);animation-play-state:paused" ></circle>
<circle cx="367.3293512645654" cy="1012.1935961280366" r="58.209045407547165" fill="#e1e7ff" transform="matrix(1,0,0,1,-8.632266998291016,0)" style="transform:matrix(1, 0, 0, 1, -8.63227, 0);animation-play-state:paused" ></circle>
<circle cx="425.5383966721125" cy="1008.9898902302011" r="61.27487261567084" fill="#e1e7ff" transform="matrix(1,0,0,1,-6.180026531219482,0)" style="transform:matrix(1, 0, 0, 1, -6.18003, 0);animation-play-state:paused" ></circle>
<circle cx="486.8132692877834" cy="1005.7140919308572" r="33.87195605953443" fill="#e1e7ff" transform="matrix(1,0,0,1,-3.088648796081543,0)" style="transform:matrix(1, 0, 0, 1, -3.08865, 0);animation-play-state:paused" ></circle>
<circle cx="520.6852253473178" cy="985.3073228330437" r="75.1729567861551" fill="#e1e7ff" transform="matrix(1,0,0,1,-0.9663257598876953,0)" style="transform:matrix(1, 0, 0, 1, -0.966326, 0);animation-play-state:paused" ></circle>
<circle cx="595.8581821334728" cy="979.9330621088081" r="56.311600642589084" fill="#e1e7ff" transform="matrix(1,0,0,1,-0.09182167053222656,0)" style="transform:matrix(1, 0, 0, 1, -0.0918217, 0);animation-play-state:paused" ></circle>
<circle cx="652.1697827760619" cy="951.6100529745927" r="79.06194304859203" fill="#e1e7ff" transform="matrix(1,0,0,1,-0.09182170033454895,0)" style="transform:matrix(1, 0, 0, 1, -0.0918217, 0);animation-play-state:paused" ></circle>
<circle cx="731.231725824654" cy="972.6559281817039" r="40.94351994233726" fill="#e1e7ff" transform="matrix(1,0,0,1,-0.9663257002830505,0)" style="transform:matrix(1, 0, 0, 1, -0.966326, 0);animation-play-state:paused" ></circle>
<circle cx="772.1752457669912" cy="960.3657295246444" r="46.9448974493782" fill="#e1e7ff" transform="matrix(1,0,0,1,-3.0886495113372803,0)" style="transform:matrix(1, 0, 0, 1, -3.08865, 0);animation-play-state:paused" ></circle>
<circle cx="0" cy="1001.1727455314604" r="64.02271205711641" fill="#e9ebff" transform="matrix(1,0,0,1,0,0)" style="transform:matrix(1, 0, 0, 1, 0, 0);animation-play-state:paused" ></circle>
<circle cx="64.02271205711641" cy="996.1347981435267" r="81.6817080451516" fill="#e9ebff" transform="matrix(1,0,0,1,-0.5121520161628723,0)" style="transform:matrix(1, 0, 0, 1, -0.512152, 0);animation-play-state:paused" ></circle>
<circle cx="145.704420102268" cy="1028.8597028632882" r="65.52496221188022" fill="#e9ebff" transform="matrix(1,0,0,1,-2.429480791091919,0)" style="transform:matrix(1, 0, 0, 1, -2.42948, 0);animation-play-state:paused" ></circle>
<circle cx="211.2293823141482" cy="1047.7182098587896" r="55.303747943104774" fill="#e9ebff" transform="matrix(1,0,0,1,-5.794002532958984,0)" style="transform:matrix(1, 0, 0, 1, -5.794, 0);animation-play-state:paused" ></circle>
<circle cx="266.533130257253" cy="1045.020489437096" r="87.54112134926794" fill="#e9ebff" transform="matrix(1,0,0,1,-8.632266998291016,0)" style="transform:matrix(1, 0, 0, 1, -8.63227, 0);animation-play-state:paused" ></circle>
<circle cx="354.07425160652093" cy="1073.1818803180167" r="45.31103374175394" fill="#e9ebff" transform="matrix(1,0,0,1,-9.853781700134277,0)" style="transform:matrix(1, 0, 0, 1, -9.85378, 0);animation-play-state:paused" ></circle>
<circle cx="399.38528534827486" cy="1075.9859522014751" r="59.901780606583486" fill="#e9ebff" transform="matrix(1,0,0,1,-9.908178329467773,0)" style="transform:matrix(1, 0, 0, 1, -9.90818, 0);animation-play-state:paused" ></circle>
<circle cx="459.28706595485835" cy="1062.1431388183669" r="72.52255392005569" fill="#e9ebff" transform="matrix(1,0,0,1,-8.843366622924805,0)" style="transform:matrix(1, 0, 0, 1, -8.84337, 0);animation-play-state:paused" ></circle>
<circle cx="531.809619874914" cy="1045.7492186248878" r="72.85756866361125" fill="#e9ebff" transform="matrix(1,0,0,1,-6.180024147033691,0)" style="transform:matrix(1, 0, 0, 1, -6.18002, 0);animation-play-state:paused" ></circle>
<circle cx="604.6671885385252" cy="1033.0214977287656" r="67.36355414881535" fill="#e9ebff" transform="matrix(1,0,0,1,-2.749044418334961,0)" style="transform:matrix(1, 0, 0, 1, -2.74904, 0);animation-play-state:paused" ></circle>
<circle cx="672.0307426873405" cy="1029.6011395826192" r="55.2643107114699" fill="#e9ebff" transform="matrix(1,0,0,1,-0.6449489593505859,0)" style="transform:matrix(1, 0, 0, 1, -0.644949, 0);animation-play-state:paused" ></circle>
<circle cx="727.2950533988104" cy="1015.3815776546094" r="59.837692525151205" fill="#e9ebff" transform="matrix(1,0,0,1,-0.005429267883300781,0)" style="transform:matrix(1, 0, 0, 1, -0.00542927, 0);animation-play-state:paused" ></circle>
<circle cx="787.1327459239616" cy="1020.0354723440181" r="47.07595153812009" fill="#e9ebff" transform="matrix(1,0,0,1,-0.3967560827732086,0)" style="transform:matrix(1, 0, 0, 1, -0.396756, 0);animation-play-state:paused" ></circle>
<circle cx="0" cy="1043.1277435303916" r="80.72688039134036" fill="#f0f0ff" transform="matrix(1,0,0,1,0,0)" style="transform:matrix(1, 0, 0, 1, 0, 0);animation-play-state:paused" ></circle>
<circle cx="80.72688039134036" cy="1053.3455230104478" r="91.15281724745579" fill="#f0f0ff" transform="matrix(1,0,0,1,-0.6449503302574158,0)" style="transform:matrix(1, 0, 0, 1, -0.64495, 0);animation-play-state:paused" ></circle>
<circle cx="171.87969763879613" cy="1107.0065563786857" r="49.31037052376276" fill="#f0f0ff" transform="matrix(1,0,0,1,-3.0886495113372803,0)" style="transform:matrix(1, 0, 0, 1, -3.08865, 0);animation-play-state:paused" ></circle>
<circle cx="221.19006816255887" cy="1096.9506455608525" r="83.30185988728674" fill="#f0f0ff" transform="matrix(1,0,0,1,-6.911351203918457,0)" style="transform:matrix(1, 0, 0, 1, -6.91135, 0);animation-play-state:paused" ></circle>
<circle cx="304.4919280498456" cy="1117.2123239945008" r="87.8190623296027" fill="#f0f0ff" transform="matrix(1,0,0,1,-9.355050086975098,0)" style="transform:matrix(1, 0, 0, 1, -9.35505, 0);animation-play-state:paused" ></circle>
<circle cx="392.3109903794483" cy="1139.3891515127298" r="51.89259957732478" fill="#f0f0ff" transform="matrix(1,0,0,1,-10,0)" style="transform:matrix(1, 0, 0, 1, -10, 0);animation-play-state:paused" ></circle>
<circle cx="444.2035899567731" cy="1128.3193493122155" r="67.88809595763628" fill="#f0f0ff" transform="matrix(1,0,0,1,-9.355049133300781,0)" style="transform:matrix(1, 0, 0, 1, -9.35505, 0);animation-play-state:paused" ></circle>
<circle cx="512.0916859144094" cy="1122.8102623663378" r="45.028737311279876" fill="#f0f0ff" transform="matrix(1,0,0,1,-6.911350727081299,0)" style="transform:matrix(1, 0, 0, 1, -6.91135, 0);animation-play-state:paused" ></circle>
<circle cx="557.1204232256893" cy="1118.5543541413138" r="41.175485827460115" fill="#f0f0ff" transform="matrix(1,0,0,1,-3.088648796081543,0)" style="transform:matrix(1, 0, 0, 1, -3.08865, 0);animation-play-state:paused" ></circle>
<circle cx="598.2959090531493" cy="1112.447074552748" r="42.518749072881114" fill="#f0f0ff" transform="matrix(1,0,0,1,-0.6449508666992188,0)" style="transform:matrix(1, 0, 0, 1, -0.644951, 0);animation-play-state:paused" ></circle>
<circle cx="640.8146581260304" cy="1112.6343697881607" r="35.113389158142375" fill="#f0f0ff" transform="matrix(1,0,0,1,0,0)" style="transform:matrix(1, 0, 0, 1, 0, 0);animation-play-state:paused" ></circle>
<circle cx="675.9280472841727" cy="1059.5659407797173" r="90.59841904301332" fill="#f0f0ff" transform="matrix(1,0,0,1,-0.6449503302574158,0)" style="transform:matrix(1, 0, 0, 1, -0.64495, 0);animation-play-state:paused" ></circle>
<circle cx="766.5264663271861" cy="1101.7509095565242" r="32.757344085949526" fill="#f0f0ff" transform="matrix(1,0,0,1,-3.0886495113372803,0)" style="transform:matrix(1, 0, 0, 1, -3.08865, 0);animation-play-state:paused" ></circle>
<circle cx="799.2838104131356" cy="1063.8195620028368" r="60.039894894535735" fill="#f0f0ff" transform="matrix(1,0,0,1,-6.911351203918457,0)" style="transform:matrix(1, 0, 0, 1, -6.91135, 0);animation-play-state:paused" ></circle>
<circle cx="859.3237053076714" cy="1094.884264011137" r="31.022693551187295" fill="#f0f0ff" transform="matrix(1,0,0,1,-9.355050086975098,0)" style="transform:matrix(1, 0, 0, 1, -9.35505, 0);animation-play-state:paused" ></circle>
<circle cx="0" cy="1134.6691871708238" r="56.10901069098028" fill="#f6f4ff" transform="matrix(1,0,0,1,0,0)" style="transform:matrix(1, 0, 0, 1, 0, 0);animation-play-state:paused" ></circle>
<circle cx="56.10901069098028" cy="1114.8184456525487" r="84.91514249126313" fill="#f6f4ff" transform="matrix(1,0,0,1,-0.7960484027862549,0)" style="transform:matrix(1, 0, 0, 1, -0.796048, 0);animation-play-state:paused" ></circle>
<circle cx="141.0241531822434" cy="1140.8235931337144" r="80.03149389178628" fill="#f6f4ff" transform="matrix(1,0,0,1,-3.8199806213378906,0)" style="transform:matrix(1, 0, 0, 1, -3.81998, 0);animation-play-state:paused" ></circle>
<circle cx="221.05564707402968" cy="1163.3882163155195" r="74.65504061147561" fill="#f6f4ff" transform="matrix(1,0,0,1,-7.868866443634033,0)" style="transform:matrix(1, 0, 0, 1, -7.86887, 0);animation-play-state:paused" ></circle>
<circle cx="295.71068768550526" cy="1184.2922635693658" r="61.78383615978475" fill="#f6f4ff" transform="matrix(1,0,0,1,-9.78536605834961,0)" style="transform:matrix(1, 0, 0, 1, -9.78537, 0);animation-play-state:paused" ></circle>
<circle cx="357.49452384529" cy="1194.6302876110785" r="76.95235428761161" fill="#f6f4ff" transform="matrix(1,0,0,1,-9.853777885437012,0)" style="transform:matrix(1, 0, 0, 1, -9.85378, 0);animation-play-state:paused" ></circle>
<circle cx="434.44687813290165" cy="1190.3513818890085" r="82.07826661313482" fill="#f6f4ff" transform="matrix(1,0,0,1,-8.145303726196289,0)" style="transform:matrix(1, 0, 0, 1, -8.1453, 0);animation-play-state:paused" ></circle>
<circle cx="516.5251447460364" cy="1176.4578108768" r="64.59109064113724" fill="#f6f4ff" transform="matrix(1,0,0,1,-4.20596981048584,0)" style="transform:matrix(1, 0, 0, 1, -4.20597, 0);animation-play-state:paused" ></circle>
<circle cx="581.1162353871737" cy="1164.2846467912204" r="63.3920893365953" fill="#f6f4ff" transform="matrix(1,0,0,1,-0.9663095474243164,0)" style="transform:matrix(1, 0, 0, 1, -0.96631, 0);animation-play-state:paused" ></circle>
<circle cx="644.508324723769" cy="1138.4387531185089" r="80.38001772046356" fill="#f6f4ff" transform="matrix(1,0,0,1,-0.005428314208984375,0)" style="transform:matrix(1, 0, 0, 1, -0.00542831, 0);animation-play-state:paused" ></circle>
<circle cx="724.8883424442325" cy="1158.3938757217927" r="41.96781206058016" fill="#f6f4ff" transform="matrix(1,0,0,1,-0.6449658274650574,0)" style="transform:matrix(1, 0, 0, 1, -0.644966, 0);animation-play-state:paused" ></circle>
<circle cx="766.8561545048127" cy="1148.8295689606045" r="45.49662228049029" fill="#f6f4ff" transform="matrix(1,0,0,1,-3.446505308151245,0)" style="transform:matrix(1, 0, 0, 1, -3.44651, 0);animation-play-state:paused" ></circle>
<circle cx="812.352776785303" cy="1154.7355381389511" r="36.101850372601334" fill="#f6f4ff" transform="matrix(1,0,0,1,-7.570561408996582,0)" style="transform:matrix(1, 0, 0, 1, -7.57056, 0);animation-play-state:paused" ></circle>
<circle cx="848.4546271579044" cy="1155.9434301395129" r="32.41801171665086" fill="#f6f4ff" transform="matrix(1,0,0,1,-9.702140808105469,0)" style="transform:matrix(1, 0, 0, 1, -9.70214, 0);animation-play-state:paused" ></circle>
<circle cx="0" cy="1188.9948710467897" r="62.5042741276752" fill="#fbfaff" transform="matrix(1,0,0,1,0,0)" style="transform:matrix(1, 0, 0, 1, 0, 0);animation-play-state:paused" ></circle>
<circle cx="62.5042741276752" cy="1193.8363242352232" r="69.68033083275124" fill="#fbfaff" transform="matrix(1,0,0,1,-0.9663266539573669,0)" style="transform:matrix(1, 0, 0, 1, -0.966327, 0);animation-play-state:paused" ></circle>
<circle cx="132.18460496042644" cy="1238.669037522238" r="31.995343474820345" fill="#fbfaff" transform="matrix(1,0,0,1,-4.600759983062744,0)" style="transform:matrix(1, 0, 0, 1, -4.60076, 0);animation-play-state:paused" ></circle>
<circle cx="164.17994843524679" cy="1206.5112384889253" r="82.97067698309539" fill="#fbfaff" transform="matrix(1,0,0,1,-8.632269859313965,0)" style="transform:matrix(1, 0, 0, 1, -8.63227, 0);animation-play-state:paused" ></circle>
<circle cx="247.15062541834217" cy="1239.374191155523" r="56.403543609552095" fill="#fbfaff" transform="matrix(1,0,0,1,-9.977882385253906,0)" style="transform:matrix(1, 0, 0, 1, -9.97788, 0);animation-play-state:paused" ></circle>
<circle cx="303.55416902789426" cy="1245.8199478091688" r="69.28876708162883" fill="#fbfaff" transform="matrix(1,0,0,1,-9.355046272277832,0)" style="transform:matrix(1, 0, 0, 1, -9.35505, 0);animation-play-state:paused" ></circle>
<circle cx="372.84293610952307" cy="1262.4895311111088" r="31.232822845918783" fill="#fbfaff" transform="matrix(1,0,0,1,-6.180017471313477,0)" style="transform:matrix(1, 0, 0, 1, -6.18002, 0);animation-play-state:paused" ></circle>
<circle cx="404.07575895544187" cy="1260.6891866455126" r="68.81692420777873" fill="#fbfaff" transform="matrix(1,0,0,1,-1.8546695709228516,0)" style="transform:matrix(1, 0, 0, 1, -1.85467, 0);animation-play-state:paused" ></circle>
<circle cx="472.89268316322057" cy="1255.1191019729044" r="34.0691944906103" fill="#fbfaff" transform="matrix(1,0,0,1,-0.09181976318359375,0)" style="transform:matrix(1, 0, 0, 1, -0.0918198, 0);animation-play-state:paused" ></circle>
<circle cx="506.96187765383087" cy="1246.3856524517225" r="48.13907336011557" fill="#fbfaff" transform="matrix(1,0,0,1,-0.3967595100402832,0)" style="transform:matrix(1, 0, 0, 1, -0.39676, 0);animation-play-state:paused" ></circle>
<circle cx="555.1009510139464" cy="1234.5021027540568" r="57.322267221480075" fill="#fbfaff" transform="matrix(1,0,0,1,-3.0886662006378174,0)" style="transform:matrix(1, 0, 0, 1, -3.08867, 0);animation-play-state:paused" ></circle>
<circle cx="612.4232182354265" cy="1226.72843153749" r="53.88753513291812" fill="#fbfaff" transform="matrix(1,0,0,1,-7.570536136627197,0)" style="transform:matrix(1, 0, 0, 1, -7.57054, 0);animation-play-state:paused" ></circle>
<circle cx="666.3107533683446" cy="1200.315739554633" r="74.21519530545608" fill="#fbfaff" transform="matrix(1,0,0,1,-9.785367012023926,0)" style="transform:matrix(1, 0, 0, 1, -9.78537, 0);animation-play-state:paused" ></circle>
<circle cx="740.5259486738007" cy="1193.9006869314571" r="64.4686924115654" fill="#fbfaff" transform="matrix(1,0,0,1,-9.785358428955078,0)" style="transform:matrix(1, 0, 0, 1, -9.78536, 0);animation-play-state:paused" ></circle>
<circle cx="804.9946410853661" cy="1152.7976272625049" r="86.43993132767581" fill="#fbfaff" transform="matrix(1,0,0,1,-7.570499420166016,0)" style="transform:matrix(1, 0, 0, 1, -7.5705, 0);animation-play-state:paused" ></circle>
<circle cx="0" cy="1228.9267147605894" r="80.8944043661754" fill="#ffffff" transform="matrix(1,0,0,1,0,0)" style="transform:matrix(1, 0, 0, 1, 0, 0);animation-play-state:paused" ></circle>
<circle cx="80.8944043661754" cy="1256.783781097462" r="72.84897020004858" fill="#ffffff" transform="matrix(1,0,0,1,-1.1566351652145386,0)" style="transform:matrix(1, 0, 0, 1, -1.15664, 0);animation-play-state:paused" ></circle>
<circle cx="153.74337456622396" cy="1285.440434873069" r="55.935201767279295" fill="#ffffff" transform="matrix(1,0,0,1,-5.399253845214844,0)" style="transform:matrix(1, 0, 0, 1, -5.39925, 0);animation-play-state:paused" ></circle>
<circle cx="209.67857633350326" cy="1305.4415785935923" r="37.22031059733397" fill="#ffffff" transform="matrix(1,0,0,1,-9.203959465026855,0)" style="transform:matrix(1, 0, 0, 1, -9.20396, 0);animation-play-state:paused" ></circle>
<circle cx="246.89888693083722" cy="1304.739135344284" r="48.60982221888373" fill="#ffffff" transform="matrix(1,0,0,1,-9.97788143157959,0)" style="transform:matrix(1, 0, 0, 1, -9.97788, 0);animation-play-state:paused" ></circle>
<circle cx="295.50870914972097" cy="1314.3385906715973" r="40.5992995209512" fill="#ffffff" transform="matrix(1,0,0,1,-8.399717330932617,0)" style="transform:matrix(1, 0, 0, 1, -8.39972, 0);animation-play-state:paused" ></circle>
<circle cx="336.1080086706722" cy="1316.7287007970933" r="57.29087673101738" fill="#ffffff" transform="matrix(1,0,0,1,-3.819941997528076,0)" style="transform:matrix(1, 0, 0, 1, -3.81994, 0);animation-play-state:paused" ></circle>
<circle cx="393.39888540168954" cy="1324.942563909064" r="69.8822091903822" fill="#ffffff" transform="matrix(1,0,0,1,-0.5121402740478516,0)" style="transform:matrix(1, 0, 0, 1, -0.51214, 0);animation-play-state:paused" ></circle>
<circle cx="463.2810945920717" cy="1314.9636724056459" r="47.77960363060757" fill="#ffffff" transform="matrix(1,0,0,1,-0.09182664752006531,0)" style="transform:matrix(1, 0, 0, 1, -0.0918266, 0);animation-play-state:paused" ></circle>
<circle cx="511.0606982226793" cy="1310.6870540845312" r="40.449885746617504" fill="#ffffff" transform="matrix(1,0,0,1,-2.1311769485473633,0)" style="transform:matrix(1, 0, 0, 1, -2.13118, 0);animation-play-state:paused" ></circle>
<circle cx="551.5105839692968" cy="1299.7009666704187" r="52.23165167027216" fill="#ffffff" transform="matrix(1,0,0,1,-6.911396026611328,0)" style="transform:matrix(1, 0, 0, 1, -6.9114, 0);animation-play-state:paused" ></circle>
<circle cx="603.742235639569" cy="1279.155356986969" r="70.45993148326473" fill="#ffffff" transform="matrix(1,0,0,1,-9.702140808105469,0)" style="transform:matrix(1, 0, 0, 1, -9.70214, 0);animation-play-state:paused" ></circle>
<circle cx="674.2021671228338" cy="1259.4856341176676" r="75.37228776128558" fill="#ffffff" transform="matrix(1,0,0,1,-9.785350799560547,0)" style="transform:matrix(1, 0, 0, 1, -9.78535, 0);animation-play-state:paused" ></circle>
<circle cx="749.5744548841194" cy="1276.8527952748252" r="44.06683251763642" fill="#ffffff" transform="matrix(1,0,0,1,-7.250898361206055,0)" style="transform:matrix(1, 0, 0, 1, -7.2509, 0);animation-play-state:paused" ></circle>
<circle cx="793.6412874017558" cy="1252.963478248875" r="58.36377247199389" fill="#ffffff" transform="matrix(1,0,0,1,-2.4294233322143555,0)" style="transform:matrix(1, 0, 0, 1, -2.42942, 0);animation-play-state:paused" ></circle></g></svg>