<?xml version="1.0" encoding="utf-8"?><svg xmlns="http://www.w3.org/2000/svg" xmlns:xlink="http://www.w3.org/1999/xlink" width="1536" height="722" preserveAspectRatio="xMidYMid" viewBox="0 0 1536 722" style="z-index:1;margin-right:-2px;display:block;background-repeat-y:initial;background-repeat-x:initial;background-color:rgb(153, 204, 255);animation-play-state:paused" ><g transform="translate(768,361) scale(1,1) translate(-768,-361)" style="transform:matrix(1, 0, 0, 1, 0, 0);animation-play-state:paused" ><defs style="animation-play-state:paused" ><linearGradient id="lg-0.1385122167274151" x1="0" x2="0" y1="0" y2="1" style="animation-play-state:paused" ><stop stop-color="rgba(255, 255, 255, 0)" offset="0" style="animation-play-state:paused" ></stop>

  
<stop stop-color="rgba(130, 140, 147, 0)" offset="1" style="animation-play-state:paused" ></stop></linearGradient></defs>


<rect x="0" y="0" width="1536" height="722" fill="url(#lg-0.1385122167274151)" style="animation-play-state:paused" ></rect>
<circle cx="0" cy="262.8502667863719" r="72.6247776780234" fill="#91cbf0" transform="matrix(1,0,0,1,0,0)" style="transform:matrix(1, 0, 0, 1, 0, 0);animation-play-state:paused" ></circle>
<circle cx="72.6247776780234" cy="313.80615648699967" r="33.31159797579709" fill="#91cbf0" transform="matrix(1,0,0,1,-0.005429744720458984,0)" style="transform:matrix(1, 0, 0, 1, -0.00542974, 0);animation-play-state:paused" ></circle>
<circle cx="105.9363756538205" cy="302.3179038877432" r="46.09306475941937" fill="#91cbf0" transform="matrix(1,0,0,1,-0.022117653861641884,0)" style="transform:matrix(1, 0, 0, 1, -0.0221177, 0);animation-play-state:paused" ></circle>
<circle cx="152.02944041323988" cy="260.7327058466079" r="92.74967345273579" fill="#91cbf0" transform="matrix(1,0,0,1,-0.05069183558225632,0)" style="transform:matrix(1, 0, 0, 1, -0.0506918, 0);animation-play-state:paused" ></circle>
<circle cx="244.77911386597566" cy="309.48689443758224" r="49.55533742455715" fill="#91cbf0" transform="matrix(1,0,0,1,-0.09182170033454895,0)" style="transform:matrix(1, 0, 0, 1, -0.0918217, 0);animation-play-state:paused" ></circle>
<circle cx="294.3344512905328" cy="311.97274849962804" r="51.38106629571646" fill="#91cbf0" transform="matrix(1,0,0,1,-0.14621886610984802,0)" style="transform:matrix(1, 0, 0, 1, -0.146219, 0);animation-play-state:paused" ></circle>
<circle cx="345.71551758624923" cy="328.41408099877765" r="32.714884718985466" fill="#91cbf0" transform="matrix(1,0,0,1,-0.21463720500469208,0)" style="transform:matrix(1, 0, 0, 1, -0.214637, 0);animation-play-state:paused" ></circle>
<circle cx="378.4304023052347" cy="313.0743414940971" r="60.662899732474145" fill="#91cbf0" transform="matrix(1,0,0,1,-0.2978716492652893,0)" style="transform:matrix(1, 0, 0, 1, -0.297872, 0);animation-play-state:paused" ></circle>
<circle cx="439.09330203770884" cy="314.2098071558379" r="69.64200960994067" fill="#91cbf0" transform="matrix(1,0,0,1,-0.3967548906803131,0)" style="transform:matrix(1, 0, 0, 1, -0.396755, 0);animation-play-state:paused" ></circle>
<circle cx="508.7353116476495" cy="333.66869726893606" r="40.314143103345515" fill="#91cbf0" transform="matrix(1,0,0,1,-0.5121519565582275,0)" style="transform:matrix(1, 0, 0, 1, -0.512152, 0);animation-play-state:paused" ></circle>
<circle cx="549.049454750995" cy="329.2228597307468" r="60.73229805022588" fill="#91cbf0" transform="matrix(1,0,0,1,-0.6449503302574158,0)" style="transform:matrix(1, 0, 0, 1, -0.64495, 0);animation-play-state:paused" ></circle>
<circle cx="609.7817528012208" cy="328.39029039267" r="87.41225739478355" fill="#91cbf0" transform="matrix(1,0,0,1,-0.7960466146469116,0)" style="transform:matrix(1, 0, 0, 1, -0.796047, 0);animation-play-state:paused" ></circle>
<circle cx="697.1940101960043" cy="345.10124310367684" r="44.27880215114087" fill="#91cbf0" transform="matrix(1,0,0,1,-0.9663257002830505,0)" style="transform:matrix(1, 0, 0, 1, -0.966326, 0);animation-play-state:paused" ></circle>
<circle cx="741.4728123471452" cy="347.73726823587606" r="54.59109906373616" fill="#91cbf0" transform="matrix(1,0,0,1,-1.156632423400879,0)" style="transform:matrix(1, 0, 0, 1, -1.15663, 0);animation-play-state:paused" ></circle>
<circle cx="796.0639114108814" cy="348.12376428220807" r="42.78772270216152" fill="#91cbf0" transform="matrix(1,0,0,1,-1.3677335977554321,0)" style="transform:matrix(1, 0, 0, 1, -1.36773, 0);animation-play-state:paused" ></circle>
<circle cx="838.8516341130429" cy="342.5479498861357" r="67.31407302848892" fill="#91cbf0" transform="matrix(1,0,0,1,-1.600266933441162,0)" style="transform:matrix(1, 0, 0, 1, -1.60027, 0);animation-play-state:paused" ></circle>
<circle cx="906.1657071415318" cy="338.3751791372955" r="53.847553825420064" fill="#91cbf0" transform="matrix(1,0,0,1,-1.8546782732009888,0)" style="transform:matrix(1, 0, 0, 1, -1.85468, 0);animation-play-state:paused" ></circle>
<circle cx="960.0132609669519" cy="326.7515042488384" r="77.48963381911595" fill="#91cbf0" transform="matrix(1,0,0,1,-2.131143569946289,0)" style="transform:matrix(1, 0, 0, 1, -2.13114, 0);animation-play-state:paused" ></circle>
<circle cx="1037.5028947860678" cy="334.07015077203334" r="37.82929127344458" fill="#91cbf0" transform="matrix(1,0,0,1,-2.4294803142547607,0)" style="transform:matrix(1, 0, 0, 1, -2.42948, 0);animation-play-state:paused" ></circle>
<circle cx="1075.3321860595124" cy="307.67505721946895" r="88.13903850049238" fill="#91cbf0" transform="matrix(1,0,0,1,-2.749046802520752,0)" style="transform:matrix(1, 0, 0, 1, -2.74905, 0);animation-play-state:paused" ></circle>
<circle cx="1163.4712245600049" cy="303.14046186724875" r="75.83384717390578" fill="#91cbf0" transform="matrix(1,0,0,1,-3.0886495113372803,0)" style="transform:matrix(1, 0, 0, 1, -3.08865, 0);animation-play-state:paused" ></circle>
<circle cx="1239.3050717339106" cy="294.8655130529319" r="74.86885620879848" fill="#91cbf0" transform="matrix(1,0,0,1,-3.446460723876953,0)" style="transform:matrix(1, 0, 0, 1, -3.44646, 0);animation-play-state:paused" ></circle>
<circle cx="1314.173927942709" cy="298.8354975146492" r="59.95394491635151" fill="#91cbf0" transform="matrix(1,0,0,1,-3.819972276687622,0)" style="transform:matrix(1, 0, 0, 1, -3.81997, 0);animation-play-state:paused" ></circle>
<circle cx="1374.1278728590605" cy="309.7445019773918" r="42.50508826288523" fill="#91cbf0" transform="matrix(1,0,0,1,-4.205999374389648,0)" style="transform:matrix(1, 0, 0, 1, -4.206, 0);animation-play-state:paused" ></circle>
<circle cx="1416.6329611219458" cy="305.74489944728634" r="43.66608860694613" fill="#91cbf0" transform="matrix(1,0,0,1,-4.60075569152832,0)" style="transform:matrix(1, 0, 0, 1, -4.60076, 0);animation-play-state:paused" ></circle>
<circle cx="1460.299049728892" cy="314.60426119010026" r="32.72180258980127" fill="#91cbf0" transform="matrix(1,0,0,1,-5,0)" style="transform:matrix(1, 0, 0, 1, -5, 0);animation-play-state:paused" ></circle>
<circle cx="1493.0208523186932" cy="307.55565791194874" r="37.46703125776071" fill="#91cbf0" transform="matrix(1,0,0,1,-5.399243354797363,0)" style="transform:matrix(1, 0, 0, 1, -5.39924, 0);animation-play-state:paused" ></circle>
<circle cx="1530.487883576454" cy="311.6528265576517" r="32.18699146796619" fill="#91cbf0" transform="matrix(1,0,0,1,-5.79400110244751,0)" style="transform:matrix(1, 0, 0, 1, -5.794, 0);animation-play-state:paused" ></circle>
<circle cx="1562.67487504442" cy="298.59085444589954" r="41.40291103677485" fill="#91cbf0" transform="matrix(1,0,0,1,-6.180027961730957,0)" style="transform:matrix(1, 0, 0, 1, -6.18003, 0);animation-play-state:paused" ></circle>
<circle cx="1604.077786081195" cy="292.66049081346165" r="43.89219100221461" fill="#91cbf0" transform="matrix(1,0,0,1,-6.553539276123047,0)" style="transform:matrix(1, 0, 0, 1, -6.55354, 0);animation-play-state:paused" ></circle>
<circle cx="0" cy="353.49043039109097" r="48.75797467409087" fill="#a8d1f5" transform="matrix(1,0,0,1,0,0)" style="transform:matrix(1, 0, 0, 1, 0, 0);animation-play-state:paused" ></circle>
<circle cx="48.75797467409087" cy="312.6579994565251" r="88.39705983394748" fill="#a8d1f5" transform="matrix(1,0,0,1,-0.022117653861641884,0)" style="transform:matrix(1, 0, 0, 1, -0.0221177, 0);animation-play-state:paused" ></circle>
<circle cx="137.15503450803834" cy="321.47186407460936" r="91.8419107094995" fill="#a8d1f5" transform="matrix(1,0,0,1,-0.09182170033454895,0)" style="transform:matrix(1, 0, 0, 1, -0.0918217, 0);animation-play-state:paused" ></circle>
<circle cx="228.99694521753784" cy="378.9925915698712" r="39.19224799905491" fill="#a8d1f5" transform="matrix(1,0,0,1,-0.21463720500469208,0)" style="transform:matrix(1, 0, 0, 1, -0.214637, 0);animation-play-state:paused" ></circle>
<circle cx="268.18919321659274" cy="386.72490657180026" r="32.36436582504254" fill="#a8d1f5" transform="matrix(1,0,0,1,-0.3967548906803131,0)" style="transform:matrix(1, 0, 0, 1, -0.396755, 0);animation-play-state:paused" ></circle>
<circle cx="300.55355904163525" cy="369.3674248823283" r="58.36999853795045" fill="#a8d1f5" transform="matrix(1,0,0,1,-0.6449503302574158,0)" style="transform:matrix(1, 0, 0, 1, -0.64495, 0);animation-play-state:paused" ></circle>
<circle cx="358.9235575795857" cy="354.4806788835232" r="89.98896464615416" fill="#a8d1f5" transform="matrix(1,0,0,1,-0.9663257002830505,0)" style="transform:matrix(1, 0, 0, 1, -0.966326, 0);animation-play-state:paused" ></circle>
<circle cx="448.91252222573985" cy="380.46261861847233" r="63.2551431506094" fill="#a8d1f5" transform="matrix(1,0,0,1,-1.3677335977554321,0)" style="transform:matrix(1, 0, 0, 1, -1.36773, 0);animation-play-state:paused" ></circle>
<circle cx="512.1676653763493" cy="390.90566982912424" r="52.77038701624865" fill="#a8d1f5" transform="matrix(1,0,0,1,-1.8546782732009888,0)" style="transform:matrix(1, 0, 0, 1, -1.85468, 0);animation-play-state:paused" ></circle>
<circle cx="564.9380523925979" cy="391.57964578375044" r="64.35980178653294" fill="#a8d1f5" transform="matrix(1,0,0,1,-2.4294803142547607,0)" style="transform:matrix(1, 0, 0, 1, -2.42948, 0);animation-play-state:paused" ></circle>
<circle cx="629.2978541791308" cy="393.11086676970456" r="87.15831464497903" fill="#a8d1f5" transform="matrix(1,0,0,1,-3.0886495113372803,0)" style="transform:matrix(1, 0, 0, 1, -3.08865, 0);animation-play-state:paused" ></circle>
<circle cx="716.4561688241098" cy="405.7747110236459" r="77.29702767477289" fill="#a8d1f5" transform="matrix(1,0,0,1,-3.819972276687622,0)" style="transform:matrix(1, 0, 0, 1, -3.81997, 0);animation-play-state:paused" ></circle>
<circle cx="793.7531964988827" cy="410.4646844480928" r="38.15456280400937" fill="#a8d1f5" transform="matrix(1,0,0,1,-4.60075569152832,0)" style="transform:matrix(1, 0, 0, 1, -4.60076, 0);animation-play-state:paused" ></circle>
<circle cx="831.9077593028921" cy="405.9923133499246" r="60.163577912741076" fill="#a8d1f5" transform="matrix(1,0,0,1,-5.399243354797363,0)" style="transform:matrix(1, 0, 0, 1, -5.39924, 0);animation-play-state:paused" ></circle>
<circle cx="892.0713372156332" cy="397.5511379389056" r="74.53189372037532" fill="#a8d1f5" transform="matrix(1,0,0,1,-6.180027961730957,0)" style="transform:matrix(1, 0, 0, 1, -6.18003, 0);animation-play-state:paused" ></circle>
<circle cx="966.6032309360086" cy="385.5844673255875" r="85.12419879549299" fill="#a8d1f5" transform="matrix(1,0,0,1,-6.911351203918457,0)" style="transform:matrix(1, 0, 0, 1, -6.91135, 0);animation-play-state:paused" ></circle>
<circle cx="1051.7274297315016" cy="391.51242553823124" r="46.21353553281845" fill="#a8d1f5" transform="matrix(1,0,0,1,-7.57051944732666,0)" style="transform:matrix(1, 0, 0, 1, -7.57052, 0);animation-play-state:paused" ></circle>
<circle cx="1097.94096526432" cy="384.39288995911676" r="53.55064173983601" fill="#a8d1f5" transform="matrix(1,0,0,1,-8.1453218460083,0)" style="transform:matrix(1, 0, 0, 1, -8.14532, 0);animation-play-state:paused" ></circle>
<circle cx="1151.491607004156" cy="362.75947267256595" r="82.17634209975358" fill="#a8d1f5" transform="matrix(1,0,0,1,-8.632266998291016,0)" style="transform:matrix(1, 0, 0, 1, -8.63227, 0);animation-play-state:paused" ></circle>
<circle cx="1233.6679491039097" cy="382.93251793372167" r="39.94947163148432" fill="#a8d1f5" transform="matrix(1,0,0,1,-9.033674240112305,0)" style="transform:matrix(1, 0, 0, 1, -9.03367, 0);animation-play-state:paused" ></circle>
<circle cx="1273.617420735394" cy="339.34872209933275" r="91.96047436182057" fill="#a8d1f5" transform="matrix(1,0,0,1,-9.355050086975098,0)" style="transform:matrix(1, 0, 0, 1, -9.35505, 0);animation-play-state:paused" ></circle>
<circle cx="1365.5778950972147" cy="354.3224108361165" r="61.77212605710637" fill="#a8d1f5" transform="matrix(1,0,0,1,-9.60324478149414,0)" style="transform:matrix(1, 0, 0, 1, -9.60324, 0);animation-play-state:paused" ></circle>
<circle cx="1427.350021154321" cy="354.7598358234312" r="55.560330473440416" fill="#a8d1f5" transform="matrix(1,0,0,1,-9.785362243652344,0)" style="transform:matrix(1, 0, 0, 1, -9.78536, 0);animation-play-state:paused" ></circle>
<circle cx="1482.9103516277614" cy="327.0537048525465" r="76.04537935502896" fill="#a8d1f5" transform="matrix(1,0,0,1,-9.908178329467773,0)" style="transform:matrix(1, 0, 0, 1, -9.90818, 0);animation-play-state:paused" ></circle>
<circle cx="1558.9557309827903" cy="359.906674637626" r="42.15119370902538" fill="#a8d1f5" transform="matrix(1,0,0,1,-9.977882385253906,0)" style="transform:matrix(1, 0, 0, 1, -9.97788, 0);animation-play-state:paused" ></circle>
<circle cx="1601.1069246918157" cy="365.07226550449434" r="36.0502946104232" fill="#a8d1f5" transform="matrix(1,0,0,1,-10,0)" style="transform:matrix(1, 0, 0, 1, -10, 0);animation-play-state:paused" ></circle>
<circle cx="0" cy="392.9171307075013" r="67.56905774374891" fill="#bdd7f8" transform="matrix(1,0,0,1,0,0)" style="transform:matrix(1, 0, 0, 1, 0, 0);animation-play-state:paused" ></circle>
<circle cx="67.56905774374891" cy="376.0189687517674" r="89.52754114041889" fill="#bdd7f8" transform="matrix(1,0,0,1,-0.05069185048341751,0)" style="transform:matrix(1, 0, 0, 1, -0.0506918, 0);animation-play-state:paused" ></circle>
<circle cx="157.0965988841678" cy="397.23668950627894" r="80.41945523015073" fill="#bdd7f8" transform="matrix(1,0,0,1,-0.21463724970817566,0)" style="transform:matrix(1, 0, 0, 1, -0.214637, 0);animation-play-state:paused" ></circle>
<circle cx="237.51605411431854" cy="446.48971027015915" r="33.189666838461385" fill="#bdd7f8" transform="matrix(1,0,0,1,-0.5121520161628723,0)" style="transform:matrix(1, 0, 0, 1, -0.512152, 0);animation-play-state:paused" ></circle>
<circle cx="270.7057209527799" cy="417.42857755064387" r="72.80540294361609" fill="#bdd7f8" transform="matrix(1,0,0,1,-0.9663259983062744,0)" style="transform:matrix(1, 0, 0, 1, -0.966326, 0);animation-play-state:paused" ></circle>
<circle cx="343.51112389639604" cy="417.95748472873066" r="84.4950522681267" fill="#bdd7f8" transform="matrix(1,0,0,1,-1.6002674102783203,0)" style="transform:matrix(1, 0, 0, 1, -1.60027, 0);animation-play-state:paused" ></circle>
<circle cx="428.00617616452274" cy="442.68761635831135" r="58.942028136305325" fill="#bdd7f8" transform="matrix(1,0,0,1,-2.429480791091919,0)" style="transform:matrix(1, 0, 0, 1, -2.42948, 0);animation-play-state:paused" ></circle>
<circle cx="486.9482043008281" cy="444.20844972800353" r="67.84013646540069" fill="#bdd7f8" transform="matrix(1,0,0,1,-3.4464619159698486,0)" style="transform:matrix(1, 0, 0, 1, -3.44646, 0);animation-play-state:paused" ></circle>
<circle cx="554.7883407662288" cy="462.44669313955615" r="34.679700056069464" fill="#bdd7f8" transform="matrix(1,0,0,1,-4.600757122039795,0)" style="transform:matrix(1, 0, 0, 1, -4.60076, 0);animation-play-state:paused" ></circle>
<circle cx="589.4680408222982" cy="455.67314839875615" r="65.69795726669534" fill="#bdd7f8" transform="matrix(1,0,0,1,-5.794002532958984,0)" style="transform:matrix(1, 0, 0, 1, -5.794, 0);animation-play-state:paused" ></circle>
<circle cx="655.1659980889935" cy="462.54924518179763" r="64.94924366353321" fill="#bdd7f8" transform="matrix(1,0,0,1,-6.911351680755615,0)" style="transform:matrix(1, 0, 0, 1, -6.91135, 0);animation-play-state:paused" ></circle>
<circle cx="720.1152417525268" cy="467.20124622552186" r="90.86821307896292" fill="#bdd7f8" transform="matrix(1,0,0,1,-7.868857383728027,0)" style="transform:matrix(1, 0, 0, 1, -7.86886, 0);animation-play-state:paused" ></circle>
<circle cx="810.9834548314898" cy="468.46492312415216" r="82.41425019068981" fill="#bdd7f8" transform="matrix(1,0,0,1,-8.632266998291016,0)" style="transform:matrix(1, 0, 0, 1, -8.63227, 0);animation-play-state:paused" ></circle>
<circle cx="893.3977050221796" cy="459.6558213629282" r="73.20926906997389" fill="#bdd7f8" transform="matrix(1,0,0,1,-9.203954696655273,0)" style="transform:matrix(1, 0, 0, 1, -9.20396, 0);animation-play-state:paused" ></circle>
<circle cx="966.6069740921535" cy="456.5487543293767" r="56.23567490644401" fill="#bdd7f8" transform="matrix(1,0,0,1,-9.603245735168457,0)" style="transform:matrix(1, 0, 0, 1, -9.60325, 0);animation-play-state:paused" ></circle>
<circle cx="1022.8426489985975" cy="446.3588360861105" r="69.4167360698979" fill="#bdd7f8" transform="matrix(1,0,0,1,-9.853781700134277,0)" style="transform:matrix(1, 0, 0, 1, -9.85378, 0);animation-play-state:paused" ></circle>
<circle cx="1092.2593850684955" cy="433.0212454030321" r="80.88093714394566" fill="#bdd7f8" transform="matrix(1,0,0,1,-9.977882385253906,0)" style="transform:matrix(1, 0, 0, 1, -9.97788, 0);animation-play-state:paused" ></circle>
<circle cx="1173.140322212441" cy="437.80919160379653" r="57.17060510561774" fill="#bdd7f8" transform="matrix(1,0,0,1,-9.994569778442383,0)" style="transform:matrix(1, 0, 0, 1, -9.99457, 0);animation-play-state:paused" ></circle>
<circle cx="1230.310927318059" cy="428.67703686945026" r="62.742831046249314" fill="#bdd7f8" transform="matrix(1,0,0,1,-9.908178329467773,0)" style="transform:matrix(1, 0, 0, 1, -9.90818, 0);animation-play-state:paused" ></circle>
<circle cx="1293.0537583643084" cy="431.3658250988173" r="51.967768065807505" fill="#bdd7f8" transform="matrix(1,0,0,1,-9.702127456665039,0)" style="transform:matrix(1, 0, 0, 1, -9.70213, 0);animation-play-state:paused" ></circle>
<circle cx="1345.021526430116" cy="392.6541485049221" r="90.22426819834615" fill="#bdd7f8" transform="matrix(1,0,0,1,-9.355048179626465,0)" style="transform:matrix(1, 0, 0, 1, -9.35505, 0);animation-play-state:paused" ></circle>
<circle cx="1435.2457946284621" cy="424.65909701195744" r="47.32615501897723" fill="#bdd7f8" transform="matrix(1,0,0,1,-8.843366622924805,0)" style="transform:matrix(1, 0, 0, 1, -8.84337, 0);animation-play-state:paused" ></circle>
<circle cx="1482.5719496474394" cy="378.3154946177132" r="85.69897471469125" fill="#bdd7f8" transform="matrix(1,0,0,1,-8.145318984985352,0)" style="transform:matrix(1, 0, 0, 1, -8.14532, 0);animation-play-state:paused" ></circle>
<circle cx="1568.2709243621307" cy="392.67282045766854" r="65.03971757886742" fill="#bdd7f8" transform="matrix(1,0,0,1,-7.250951766967773,0)" style="transform:matrix(1, 0, 0, 1, -7.25095, 0);animation-play-state:paused" ></circle>
<circle cx="0" cy="453.26224889699375" r="68.94812591917187" fill="#cfddfa" transform="matrix(1,0,0,1,0,0)" style="transform:matrix(1, 0, 0, 1, 0, 0);animation-play-state:paused" ></circle>
<circle cx="68.94812591917187" cy="483.9131561191565" r="47.68684745688185" fill="#cfddfa" transform="matrix(1,0,0,1,-0.09182170033454895,0)" style="transform:matrix(1, 0, 0, 1, -0.0918217, 0);animation-play-state:paused" ></circle>
<circle cx="116.63497337605372" cy="477.8242665410341" r="57.16068240064364" fill="#cfddfa" transform="matrix(1,0,0,1,-0.3967548906803131,0)" style="transform:matrix(1, 0, 0, 1, -0.396755, 0);animation-play-state:paused" ></circle>
<circle cx="173.79565577669734" cy="493.0795225456279" r="46.2283822692404" fill="#cfddfa" transform="matrix(1,0,0,1,-0.9663257002830505,0)" style="transform:matrix(1, 0, 0, 1, -0.966326, 0);animation-play-state:paused" ></circle>
<circle cx="220.02403804593774" cy="495.6144274114078" r="47.16770123370078" fill="#cfddfa" transform="matrix(1,0,0,1,-1.8546782732009888,0)" style="transform:matrix(1, 0, 0, 1, -1.85468, 0);animation-play-state:paused" ></circle>
<circle cx="267.1917392796385" cy="490.4808451174574" r="58.170484414381406" fill="#cfddfa" transform="matrix(1,0,0,1,-3.0886495113372803,0)" style="transform:matrix(1, 0, 0, 1, -3.08865, 0);animation-play-state:paused" ></circle>
<circle cx="325.3622236940199" cy="501.9411408093737" r="49.24493807083666" fill="#cfddfa" transform="matrix(1,0,0,1,-4.60075569152832,0)" style="transform:matrix(1, 0, 0, 1, -4.60076, 0);animation-play-state:paused" ></circle>
<circle cx="374.6071617648566" cy="481.72944970020365" r="88.29126719157138" fill="#cfddfa" transform="matrix(1,0,0,1,-6.180027961730957,0)" style="transform:matrix(1, 0, 0, 1, -6.18003, 0);animation-play-state:paused" ></circle>
<circle cx="462.89842895642795" cy="507.86332885026013" r="59.02122848545362" fill="#cfddfa" transform="matrix(1,0,0,1,-7.57051944732666,0)" style="transform:matrix(1, 0, 0, 1, -7.57052, 0);animation-play-state:paused" ></circle>
<circle cx="521.9196574418816" cy="514.7951283440892" r="55.1491342977862" fill="#cfddfa" transform="matrix(1,0,0,1,-8.632266998291016,0)" style="transform:matrix(1, 0, 0, 1, -8.63227, 0);animation-play-state:paused" ></circle>
<circle cx="577.0687917396677" cy="518.4347328096139" r="58.8786458970034" fill="#cfddfa" transform="matrix(1,0,0,1,-9.355050086975098,0)" style="transform:matrix(1, 0, 0, 1, -9.35505, 0);animation-play-state:paused" ></circle>
<circle cx="635.9474376366711" cy="528.8427004177234" r="34.68824573092137" fill="#cfddfa" transform="matrix(1,0,0,1,-9.785362243652344,0)" style="transform:matrix(1, 0, 0, 1, -9.78536, 0);animation-play-state:paused" ></circle>
<circle cx="670.6356833675925" cy="528.2300576843867" r="51.07377378066371" fill="#cfddfa" transform="matrix(1,0,0,1,-9.977882385253906,0)" style="transform:matrix(1, 0, 0, 1, -9.97788, 0);animation-play-state:paused" ></circle>
<circle cx="721.7094571482562" cy="530.8025582956127" r="71.85836427672304" fill="#cfddfa" transform="matrix(1,0,0,1,-9.977882385253906,0)" style="transform:matrix(1, 0, 0, 1, -9.97788, 0);animation-play-state:paused" ></circle>
<circle cx="793.5678214249792" cy="534.2356301402156" r="44.164760520379104" fill="#cfddfa" transform="matrix(1,0,0,1,-9.78536319732666,0)" style="transform:matrix(1, 0, 0, 1, -9.78536, 0);animation-play-state:paused" ></circle>
<circle cx="837.7325819453583" cy="532.1295687338675" r="35.522505279753574" fill="#cfddfa" transform="matrix(1,0,0,1,-9.355049133300781,0)" style="transform:matrix(1, 0, 0, 1, -9.35505, 0);animation-play-state:paused" ></circle>
<circle cx="873.2550872251119" cy="522.7080560829727" r="80.82121568816578" fill="#cfddfa" transform="matrix(1,0,0,1,-8.632266998291016,0)" style="transform:matrix(1, 0, 0, 1, -8.63227, 0);animation-play-state:paused" ></circle>
<circle cx="954.0763029132777" cy="520.1180491053112" r="54.62516405078195" fill="#cfddfa" transform="matrix(1,0,0,1,-7.57051944732666,0)" style="transform:matrix(1, 0, 0, 1, -7.57052, 0);animation-play-state:paused" ></circle>
<circle cx="1008.7014669640596" cy="506.6199905262826" r="78.11836919958097" fill="#cfddfa" transform="matrix(1,0,0,1,-6.180026531219482,0)" style="transform:matrix(1, 0, 0, 1, -6.18003, 0);animation-play-state:paused" ></circle>
<circle cx="1086.8198361636405" cy="499.03096927061586" r="74.21175530201893" fill="#cfddfa" transform="matrix(1,0,0,1,-4.600756645202637,0)" style="transform:matrix(1, 0, 0, 1, -4.60076, 0);animation-play-state:paused" ></circle>
<circle cx="1161.0315914656594" cy="503.2103743130562" r="53.393571650022466" fill="#cfddfa" transform="matrix(1,0,0,1,-3.088648796081543,0)" style="transform:matrix(1, 0, 0, 1, -3.08865, 0);animation-play-state:paused" ></circle>
<circle cx="1214.425163115682" cy="475.7475075880317" r="86.3786325899091" fill="#cfddfa" transform="matrix(1,0,0,1,-1.8546791076660156,0)" style="transform:matrix(1, 0, 0, 1, -1.85468, 0);animation-play-state:paused" ></circle>
<circle cx="1300.803795705591" cy="488.35858706808085" r="57.22651475492914" fill="#cfddfa" transform="matrix(1,0,0,1,-0.9663257598876953,0)" style="transform:matrix(1, 0, 0, 1, -0.966326, 0);animation-play-state:paused" ></circle>
<circle cx="1358.0303104605202" cy="502.51264598068894" r="36.32339931084457" fill="#cfddfa" transform="matrix(1,0,0,1,-0.3967552185058594,0)" style="transform:matrix(1, 0, 0, 1, -0.396755, 0);animation-play-state:paused" ></circle>
<circle cx="1394.3537097713647" cy="492.5544179794431" r="44.39212550254719" fill="#cfddfa" transform="matrix(1,0,0,1,-0.09182167053222656,0)" style="transform:matrix(1, 0, 0, 1, -0.0918217, 0);animation-play-state:paused" ></circle>
<circle cx="1438.745835273912" cy="460.63197589464613" r="71.91328352822134" fill="#cfddfa" transform="matrix(1,0,0,1,0,0)" style="transform:matrix(1, 0, 0, 1, 0, 0);animation-play-state:paused" ></circle>
<circle cx="1510.6591188021334" cy="458.9133481430487" r="66.43082396675352" fill="#cfddfa" transform="matrix(1,0,0,1,-0.09182170033454895,0)" style="transform:matrix(1, 0, 0, 1, -0.0918217, 0);animation-play-state:paused" ></circle>
<circle cx="1577.0899427688869" cy="453.7545355220848" r="65.05716420813467" fill="#cfddfa" transform="matrix(1,0,0,1,-0.3967548906803131,0)" style="transform:matrix(1, 0, 0, 1, -0.396755, 0);animation-play-state:paused" ></circle>
<circle cx="0" cy="506.2260648412934" r="76.47827929892216" fill="#dfe5fb" transform="matrix(1,0,0,1,0,0)" style="transform:matrix(1, 0, 0, 1, 0, 0);animation-play-state:paused" ></circle>
<circle cx="76.47827929892216" cy="559.7074399877497" r="35.43957864836739" fill="#dfe5fb" transform="matrix(1,0,0,1,-0.14621886610984802,0)" style="transform:matrix(1, 0, 0, 1, -0.146219, 0);animation-play-state:paused" ></circle>
<circle cx="111.91785794728955" cy="555.6367477476133" r="41.324827645361" fill="#dfe5fb" transform="matrix(1,0,0,1,-0.6449503302574158,0)" style="transform:matrix(1, 0, 0, 1, -0.64495, 0);animation-play-state:paused" ></circle>
<circle cx="153.24268559265056" cy="550.1181420281299" r="49.847945496247156" fill="#dfe5fb" transform="matrix(1,0,0,1,-1.600266933441162,0)" style="transform:matrix(1, 0, 0, 1, -1.60027, 0);animation-play-state:paused" ></circle>
<circle cx="203.0906310888977" cy="539.0573364867279" r="66.77762261441715" fill="#dfe5fb" transform="matrix(1,0,0,1,-3.0886495113372803,0)" style="transform:matrix(1, 0, 0, 1, -3.08865, 0);animation-play-state:paused" ></circle>
<circle cx="269.86825370331485" cy="540.7619289562828" r="73.53951186672803" fill="#dfe5fb" transform="matrix(1,0,0,1,-5,0)" style="transform:matrix(1, 0, 0, 1, -5, 0);animation-play-state:paused" ></circle>
<circle cx="343.4077655700429" cy="539.4223084901577" r="88.29582721085677" fill="#dfe5fb" transform="matrix(1,0,0,1,-6.911351203918457,0)" style="transform:matrix(1, 0, 0, 1, -6.91135, 0);animation-play-state:paused" ></circle>
<circle cx="431.70359278089967" cy="556.7801923157716" r="78.44471826521442" fill="#dfe5fb" transform="matrix(1,0,0,1,-8.39973258972168,0)" style="transform:matrix(1, 0, 0, 1, -8.39973, 0);animation-play-state:paused" ></circle>
<circle cx="510.1483110461141" cy="566.3413001071541" r="78.57837974078564" fill="#dfe5fb" transform="matrix(1,0,0,1,-9.355050086975098,0)" style="transform:matrix(1, 0, 0, 1, -9.35505, 0);animation-play-state:paused" ></circle>
<circle cx="588.7266907868998" cy="580.4532347344722" r="62.641392738441056" fill="#dfe5fb" transform="matrix(1,0,0,1,-9.853780746459961,0)" style="transform:matrix(1, 0, 0, 1, -9.85378, 0);animation-play-state:paused" ></circle>
<circle cx="651.3680835253408" cy="586.182254854986" r="64.84808894015082" fill="#dfe5fb" transform="matrix(1,0,0,1,-10,0)" style="transform:matrix(1, 0, 0, 1, -10, 0);animation-play-state:paused" ></circle>
<circle cx="716.2161724654916" cy="593.5111286308965" r="55.47827986086642" fill="#dfe5fb" transform="matrix(1,0,0,1,-9.853780746459961,0)" style="transform:matrix(1, 0, 0, 1, -9.85378, 0);animation-play-state:paused" ></circle>
<circle cx="771.694452326358" cy="597.5831269305139" r="72.21605285514855" fill="#dfe5fb" transform="matrix(1,0,0,1,-9.355049133300781,0)" style="transform:matrix(1, 0, 0, 1, -9.35505, 0);animation-play-state:paused" ></circle>
<circle cx="843.9105051815066" cy="589.7544227022678" r="69.51830261082547" fill="#dfe5fb" transform="matrix(1,0,0,1,-8.399733543395996,0)" style="transform:matrix(1, 0, 0, 1, -8.39973, 0);animation-play-state:paused" ></circle>
<circle cx="913.428807792332" cy="583.9406117173068" r="61.8722565186162" fill="#dfe5fb" transform="matrix(1,0,0,1,-6.911350727081299,0)" style="transform:matrix(1, 0, 0, 1, -6.91135, 0);animation-play-state:paused" ></circle>
<circle cx="975.3010643109482" cy="575.5606902725684" r="69.27681858890381" fill="#dfe5fb" transform="matrix(1,0,0,1,-5,0)" style="transform:matrix(1, 0, 0, 1, -5, 0);animation-play-state:paused" ></circle>
<circle cx="1044.577882899852" cy="573.4707172334294" r="56.760652030479605" fill="#dfe5fb" transform="matrix(1,0,0,1,-3.088648796081543,0)" style="transform:matrix(1, 0, 0, 1, -3.08865, 0);animation-play-state:paused" ></circle>
<circle cx="1101.3385349303317" cy="563.7584503473031" r="65.74274943131365" fill="#dfe5fb" transform="matrix(1,0,0,1,-1.600266456604004,0)" style="transform:matrix(1, 0, 0, 1, -1.60027, 0);animation-play-state:paused" ></circle>
<circle cx="1167.0812843616454" cy="558.2901117397648" r="63.68208553603876" fill="#dfe5fb" transform="matrix(1,0,0,1,-0.6449508666992188,0)" style="transform:matrix(1, 0, 0, 1, -0.644951, 0);animation-play-state:paused" ></circle>
<circle cx="1230.7633698976842" cy="571.3820033878691" r="36.81258919765038" fill="#dfe5fb" transform="matrix(1,0,0,1,-0.14621925354003906,0)" style="transform:matrix(1, 0, 0, 1, -0.146219, 0);animation-play-state:paused" ></circle>
<circle cx="1267.5759590953346" cy="570.1760389868389" r="35.64489988803671" fill="#dfe5fb" transform="matrix(1,0,0,1,0,0)" style="transform:matrix(1, 0, 0, 1, 0, 0);animation-play-state:paused" ></circle>
<circle cx="1303.2208589833713" cy="532.0138629948234" r="78.9041140203863" fill="#dfe5fb" transform="matrix(1,0,0,1,-0.14621886610984802,0)" style="transform:matrix(1, 0, 0, 1, -0.146219, 0);animation-play-state:paused" ></circle>
<circle cx="1382.1249730037575" cy="564.5907110066472" r="34.8169279799259" fill="#dfe5fb" transform="matrix(1,0,0,1,-0.6449503302574158,0)" style="transform:matrix(1, 0, 0, 1, -0.64495, 0);animation-play-state:paused" ></circle>
<circle cx="1416.9419009836834" cy="548.8951159374349" r="48.42825798797031" fill="#dfe5fb" transform="matrix(1,0,0,1,-1.600266933441162,0)" style="transform:matrix(1, 0, 0, 1, -1.60027, 0);animation-play-state:paused" ></circle>
<circle cx="1465.3701589716536" cy="510.55631863320144" r="80.25000117193983" fill="#dfe5fb" transform="matrix(1,0,0,1,-3.0886495113372803,0)" style="transform:matrix(1, 0, 0, 1, -3.08865, 0);animation-play-state:paused" ></circle>
<circle cx="1545.6201601435935" cy="541.5504204210231" r="46.45935481389006" fill="#dfe5fb" transform="matrix(1,0,0,1,-5,0)" style="transform:matrix(1, 0, 0, 1, -5, 0);animation-play-state:paused" ></circle>
<circle cx="1592.0795149574835" cy="544.9194317108286" r="41.22364782580764" fill="#dfe5fb" transform="matrix(1,0,0,1,-6.911351203918457,0)" style="transform:matrix(1, 0, 0, 1, -6.91135, 0);animation-play-state:paused" ></circle>
<circle cx="0" cy="620.3842072977375" r="33.0131605852188" fill="#ecedfc" transform="matrix(1,0,0,1,0,0)" style="transform:matrix(1, 0, 0, 1, 0, 0);animation-play-state:paused" ></circle>
<circle cx="33.0131605852188" cy="558.5205342422438" r="88.36465444289675" fill="#ecedfc" transform="matrix(1,0,0,1,-0.2146373838186264,0)" style="transform:matrix(1, 0, 0, 1, -0.214637, 0);animation-play-state:paused" ></circle>
<circle cx="121.37781502811555" cy="619.9263483259556" r="39.66324952569257" fill="#ecedfc" transform="matrix(1,0,0,1,-0.9663266539573669,0)" style="transform:matrix(1, 0, 0, 1, -0.966327, 0);animation-play-state:paused" ></circle>
<circle cx="161.04106455380813" cy="573.6689409833873" r="91.03066870580784" fill="#ecedfc" transform="matrix(1,0,0,1,-2.4294822216033936,0)" style="transform:matrix(1, 0, 0, 1, -2.42948, 0);animation-play-state:paused" ></circle>
<circle cx="252.07173325961597" cy="617.6398371028268" r="52.547041908507865" fill="#ecedfc" transform="matrix(1,0,0,1,-4.600759983062744,0)" style="transform:matrix(1, 0, 0, 1, -4.60076, 0);animation-play-state:paused" ></circle>
<circle cx="304.6187751681238" cy="624.2621055191823" r="49.35947173090962" fill="#ecedfc" transform="matrix(1,0,0,1,-6.911355018615723,0)" style="transform:matrix(1, 0, 0, 1, -6.91135, 0);animation-play-state:paused" ></circle>
<circle cx="353.9782468990334" cy="627.4116237222382" r="50.37551930920232" fill="#ecedfc" transform="matrix(1,0,0,1,-8.632269859313965,0)" style="transform:matrix(1, 0, 0, 1, -8.63227, 0);animation-play-state:paused" ></circle>
<circle cx="404.35376620823575" cy="628.1933588601242" r="55.97816899480702" fill="#ecedfc" transform="matrix(1,0,0,1,-9.603246688842773,0)" style="transform:matrix(1, 0, 0, 1, -9.60325, 0);animation-play-state:paused" ></circle>
<circle cx="460.3319352030428" cy="637.2698443919227" r="47.2824490210574" fill="#ecedfc" transform="matrix(1,0,0,1,-9.977882385253906,0)" style="transform:matrix(1, 0, 0, 1, -9.97788, 0);animation-play-state:paused" ></circle>
<circle cx="507.6143842241002" cy="644.3889745768404" r="38.37023117060708" fill="#ecedfc" transform="matrix(1,0,0,1,-9.908177375793457,0)" style="transform:matrix(1, 0, 0, 1, -9.90818, 0);animation-play-state:paused" ></circle>
<circle cx="545.9846153947072" cy="630.0982140463575" r="86.19737341335122" fill="#ecedfc" transform="matrix(1,0,0,1,-9.355046272277832,0)" style="transform:matrix(1, 0, 0, 1, -9.35505, 0);animation-play-state:paused" ></circle>
<circle cx="632.1819888080585" cy="643.7091362551106" r="76.76561234573451" fill="#ecedfc" transform="matrix(1,0,0,1,-8.14531421661377,0)" style="transform:matrix(1, 0, 0, 1, -8.14531, 0);animation-play-state:paused" ></circle>
<circle cx="708.947601153793" cy="655.7729419228855" r="45.812146876520195" fill="#ecedfc" transform="matrix(1,0,0,1,-6.180017471313477,0)" style="transform:matrix(1, 0, 0, 1, -6.18002, 0);animation-play-state:paused" ></circle>
<circle cx="754.7597480303132" cy="659.0253881772011" r="47.110248960472845" fill="#ecedfc" transform="matrix(1,0,0,1,-3.8199596405029297,0)" style="transform:matrix(1, 0, 0, 1, -3.81996, 0);animation-play-state:paused" ></circle>
<circle cx="801.869996990786" cy="656.1736770010795" r="72.30135627042773" fill="#ecedfc" transform="matrix(1,0,0,1,-1.8546695709228516,0)" style="transform:matrix(1, 0, 0, 1, -1.85467, 0);animation-play-state:paused" ></circle>
<circle cx="874.1713532612138" cy="653.4014677255666" r="39.77589553038228" fill="#ecedfc" transform="matrix(1,0,0,1,-0.6449451446533203,0)" style="transform:matrix(1, 0, 0, 1, -0.644945, 0);animation-play-state:paused" ></circle>
<circle cx="913.947248791596" cy="649.8647800266398" r="44.444419724642785" fill="#ecedfc" transform="matrix(1,0,0,1,-0.09181976318359375,0)" style="transform:matrix(1, 0, 0, 1, -0.0918198, 0);animation-play-state:paused" ></circle>
<circle cx="958.3916685162388" cy="637.7473493009871" r="74.80209905379098" fill="#ecedfc" transform="matrix(1,0,0,1,-0.022118574008345604,0)" style="transform:matrix(1, 0, 0, 1, -0.0221186, 0);animation-play-state:paused" ></circle>
<circle cx="1033.1937675700299" cy="644.2538820259874" r="38.00057443170066" fill="#ecedfc" transform="matrix(1,0,0,1,-0.3967595100402832,0)" style="transform:matrix(1, 0, 0, 1, -0.39676, 0);animation-play-state:paused" ></circle>
<circle cx="1071.1943420017305" cy="619.6260575526508" r="85.22363245866913" fill="#ecedfc" transform="matrix(1,0,0,1,-1.367743968963623,0)" style="transform:matrix(1, 0, 0, 1, -1.36774, 0);animation-play-state:paused" ></circle>
<circle cx="1156.4179744603996" cy="635.9015572074777" r="39.707233962692676" fill="#ecedfc" transform="matrix(1,0,0,1,-3.0886662006378174,0)" style="transform:matrix(1, 0, 0, 1, -3.08867, 0);animation-play-state:paused" ></circle>
<circle cx="1196.1252084230923" cy="621.7702402226315" r="57.14927730519531" fill="#ecedfc" transform="matrix(1,0,0,1,-5.399263381958008,0)" style="transform:matrix(1, 0, 0, 1, -5.39926, 0);animation-play-state:paused" ></circle>
<circle cx="1253.2744857282876" cy="595.7497317731306" r="84.73590282308838" fill="#ecedfc" transform="matrix(1,0,0,1,-7.570536136627197,0)" style="transform:matrix(1, 0, 0, 1, -7.57054, 0);animation-play-state:paused" ></circle>
<circle cx="1338.0103885513759" cy="604.8262778788707" r="61.94831334085442" fill="#ecedfc" transform="matrix(1,0,0,1,-9.033683776855469,0)" style="transform:matrix(1, 0, 0, 1, -9.03368, 0);animation-play-state:paused" ></circle>
<circle cx="1399.9587018922302" cy="602.3739351563659" r="58.35932219858131" fill="#ecedfc" transform="matrix(1,0,0,1,-9.785367012023926,0)" style="transform:matrix(1, 0, 0, 1, -9.78537, 0);animation-play-state:paused" ></circle>
<circle cx="1458.3180240908116" cy="569.6401989016385" r="83.77337789943577" fill="#ecedfc" transform="matrix(1,0,0,1,-10,0)" style="transform:matrix(1, 0, 0, 1, -10, 0);animation-play-state:paused" ></circle>
<circle cx="1542.0914019902473" cy="572.0818517012814" r="72.68859306086034" fill="#ecedfc" transform="matrix(1,0,0,1,-9.785358428955078,0)" style="transform:matrix(1, 0, 0, 1, -9.78536, 0);animation-play-state:paused" ></circle>
<circle cx="1614.7799950511076" cy="616.409081828264" r="32.94620538151385" fill="#ecedfc" transform="matrix(1,0,0,1,-9.033662796020508,0)" style="transform:matrix(1, 0, 0, 1, -9.03366, 0);animation-play-state:paused" ></circle>
<circle cx="0" cy="650.4851022349717" r="59.59574813752362" fill="#f7f5fd" transform="matrix(1,0,0,1,0,0)" style="transform:matrix(1, 0, 0, 1, 0, 0);animation-play-state:paused" ></circle>
<circle cx="59.59574813752362" cy="661.147836540873" r="54.97621522096938" fill="#f7f5fd" transform="matrix(1,0,0,1,-0.297871857881546,0)" style="transform:matrix(1, 0, 0, 1, -0.297872, 0);animation-play-state:paused" ></circle>
<circle cx="114.57196335849301" cy="671.3275134450789" r="49.63115993895117" fill="#f7f5fd" transform="matrix(1,0,0,1,-1.3677345514297485,0)" style="transform:matrix(1, 0, 0, 1, -1.36773, 0);animation-play-state:paused" ></circle>
<circle cx="164.20312329744417" cy="644.7053226127376" r="81.92919744468517" fill="#f7f5fd" transform="matrix(1,0,0,1,-3.4464633464813232,0)" style="transform:matrix(1, 0, 0, 1, -3.44646, 0);animation-play-state:paused" ></circle>
<circle cx="246.13232074212934" cy="659.0581235254558" r="77.18968340977351" fill="#f7f5fd" transform="matrix(1,0,0,1,-6.1800312995910645,0)" style="transform:matrix(1, 0, 0, 1, -6.18003, 0);animation-play-state:paused" ></circle>
<circle cx="323.32200415190283" cy="688.6478563462362" r="48.001862331187844" fill="#f7f5fd" transform="matrix(1,0,0,1,-8.399735450744629,0)" style="transform:matrix(1, 0, 0, 1, -8.39974, 0);animation-play-state:paused" ></circle>
<circle cx="371.3238664830907" cy="676.1696471485103" r="73.94300626282337" fill="#f7f5fd" transform="matrix(1,0,0,1,-9.603246688842773,0)" style="transform:matrix(1, 0, 0, 1, -9.60325, 0);animation-play-state:paused" ></circle>
<circle cx="445.26687274591404" cy="680.1253975471362" r="83.03995873573129" fill="#f7f5fd" transform="matrix(1,0,0,1,-9.9945707321167,0)" style="transform:matrix(1, 0, 0, 1, -9.99457, 0);animation-play-state:paused" ></circle>
<circle cx="528.3068314816453" cy="689.3997768359104" r="87.04521265244011" fill="#f7f5fd" transform="matrix(1,0,0,1,-9.785361289978027,0)" style="transform:matrix(1, 0, 0, 1, -9.78536, 0);animation-play-state:paused" ></circle>
<circle cx="615.3520441340854" cy="701.2500185487538" r="86.99748420124688" fill="#f7f5fd" transform="matrix(1,0,0,1,-8.843363761901855,0)" style="transform:matrix(1, 0, 0, 1, -8.84336, 0);animation-play-state:paused" ></circle>
<circle cx="702.3495283353323" cy="716.5563668566144" r="53.067786467127476" fill="#f7f5fd" transform="matrix(1,0,0,1,-6.911342620849609,0)" style="transform:matrix(1, 0, 0, 1, -6.91134, 0);animation-play-state:paused" ></circle>
<circle cx="755.4173148024597" cy="720.4691635313192" r="77.86377268241938" fill="#f7f5fd" transform="matrix(1,0,0,1,-4.205990791320801,0)" style="transform:matrix(1, 0, 0, 1, -4.20599, 0);animation-play-state:paused" ></circle>
<circle cx="833.2810874848791" cy="713.1935469543427" r="86.33633669975497" fill="#f7f5fd" transform="matrix(1,0,0,1,-1.8546714782714844,0)" style="transform:matrix(1, 0, 0, 1, -1.85467, 0);animation-play-state:paused" ></circle>
<circle cx="919.617424184634" cy="703.5829603550518" r="77.74110024724581" fill="#f7f5fd" transform="matrix(1,0,0,1,-0.5121488571166992,0)" style="transform:matrix(1, 0, 0, 1, -0.512149, 0);animation-play-state:paused" ></circle>
<circle cx="997.3585244318799" cy="695.7210757479265" r="73.32847803667383" fill="#f7f5fd" transform="matrix(1,0,0,1,-0.022116661071777344,0)" style="transform:matrix(1, 0, 0, 1, -0.0221167, 0);animation-play-state:paused" ></circle>
<circle cx="1070.6870024685538" cy="706.4992138187968" r="32.77479070810355" fill="#f7f5fd" transform="matrix(1,0,0,1,-0.14622078835964203,0)" style="transform:matrix(1, 0, 0, 1, -0.146221, 0);animation-play-state:paused" ></circle>
<circle cx="1103.4617931766575" cy="692.0480200323829" r="57.142922291541744" fill="#f7f5fd" transform="matrix(1,0,0,1,-0.9663317203521729,0)" style="transform:matrix(1, 0, 0, 1, -0.966332, 0);animation-play-state:paused" ></circle>
<circle cx="1160.6047154681992" cy="688.3348575961033" r="54.878839427080365" fill="#f7f5fd" transform="matrix(1,0,0,1,-2.749058246612549,0)" style="transform:matrix(1, 0, 0, 1, -2.74906, 0);animation-play-state:paused" ></circle>
<circle cx="1215.4835548952794" cy="678.6331500746599" r="62.02414289551473" fill="#f7f5fd" transform="matrix(1,0,0,1,-5.399258613586426,0)" style="transform:matrix(1, 0, 0, 1, -5.39926, 0);animation-play-state:paused" ></circle>
<circle cx="1277.5076977907943" cy="657.0189122444176" r="81.62368565557749" fill="#f7f5fd" transform="matrix(1,0,0,1,-7.868867874145508,0)" style="transform:matrix(1, 0, 0, 1, -7.86887, 0);animation-play-state:paused" ></circle>
<circle cx="1359.1313834463717" cy="663.6046633722628" r="63.22285787613284" fill="#f7f5fd" transform="matrix(1,0,0,1,-9.355055809020996,0)" style="transform:matrix(1, 0, 0, 1, -9.35506, 0);animation-play-state:paused" ></circle>
<circle cx="1422.3542413225045" cy="664.7994932586856" r="55.945727868215094" fill="#f7f5fd" transform="matrix(1,0,0,1,-9.949310302734375,0)" style="transform:matrix(1, 0, 0, 1, -9.94931, 0);animation-play-state:paused" ></circle>
<circle cx="1478.2999691907196" cy="666.3632136159953" r="50.13028977930622" fill="#f7f5fd" transform="matrix(1,0,0,1,-9.90817642211914,0)" style="transform:matrix(1, 0, 0, 1, -9.90818, 0);animation-play-state:paused" ></circle>
<circle cx="1528.4302589700258" cy="626.0293537278677" r="80.77165905701516" fill="#f7f5fd" transform="matrix(1,0,0,1,-9.20394515991211,0)" style="transform:matrix(1, 0, 0, 1, -9.20395, 0);animation-play-state:paused" ></circle>
<circle cx="0" cy="690.5603770415884" r="77.86635246534307" fill="#ffffff" transform="matrix(1,0,0,1,0,0)" style="transform:matrix(1, 0, 0, 1, 0, 0);animation-play-state:paused" ></circle>
<circle cx="77.86635246534307" cy="690.689722187325" r="86.53190293422564" fill="#ffffff" transform="matrix(1,0,0,1,-0.3967548906803131,0)" style="transform:matrix(1, 0, 0, 1, -0.396755, 0);animation-play-state:paused" ></circle>
<circle cx="164.3982553995687" cy="710.6441956190205" r="77.77928944672792" fill="#ffffff" transform="matrix(1,0,0,1,-1.8546782732009888,0)" style="transform:matrix(1, 0, 0, 1, -1.85468, 0);animation-play-state:paused" ></circle>
<circle cx="242.17754484629663" cy="750.4602564332702" r="40.82259263049638" fill="#ffffff" transform="matrix(1,0,0,1,-4.60075569152832,0)" style="transform:matrix(1, 0, 0, 1, -4.60076, 0);animation-play-state:paused" ></circle>
<circle cx="283.000137476793" cy="732.2542548440894" r="68.28306450952486" fill="#ffffff" transform="matrix(1,0,0,1,-7.57051944732666,0)" style="transform:matrix(1, 0, 0, 1, -7.57052, 0);animation-play-state:paused" ></circle>
<circle cx="351.28320198631786" cy="751.7103164519616" r="49.59098737859397" fill="#ffffff" transform="matrix(1,0,0,1,-9.355050086975098,0)" style="transform:matrix(1, 0, 0, 1, -9.35505, 0);animation-play-state:paused" ></circle>
<circle cx="400.87418936491184" cy="757.0329085528897" r="47.01096470524505" fill="#ffffff" transform="matrix(1,0,0,1,-9.977882385253906,0)" style="transform:matrix(1, 0, 0, 1, -9.97788, 0);animation-play-state:paused" ></circle>
<circle cx="447.8851540701569" cy="745.8443419121442" r="76.28393836373213" fill="#ffffff" transform="matrix(1,0,0,1,-9.78536319732666,0)" style="transform:matrix(1, 0, 0, 1, -9.78536, 0);animation-play-state:paused" ></circle>
<circle cx="524.169092433889" cy="750.8309294438409" r="87.06117435168099" fill="#ffffff" transform="matrix(1,0,0,1,-8.632266998291016,0)" style="transform:matrix(1, 0, 0, 1, -8.63227, 0);animation-play-state:paused" ></circle>
<circle cx="611.2302667855699" cy="766.6783785852679" r="70.71414537821113" fill="#ffffff" transform="matrix(1,0,0,1,-6.180026531219482,0)" style="transform:matrix(1, 0, 0, 1, -6.18003, 0);animation-play-state:paused" ></circle>
<circle cx="681.9444121637811" cy="773.4376740083859" r="78.55258216931153" fill="#ffffff" transform="matrix(1,0,0,1,-3.088648796081543,0)" style="transform:matrix(1, 0, 0, 1, -3.08865, 0);animation-play-state:paused" ></circle>
<circle cx="760.4969943330926" cy="782.9330949994339" r="91.00608884968902" fill="#ffffff" transform="matrix(1,0,0,1,-0.9663257598876953,0)" style="transform:matrix(1, 0, 0, 1, -0.966326, 0);animation-play-state:paused" ></circle>
<circle cx="851.5030831827817" cy="777.9566696854482" r="46.31842626513547" fill="#ffffff" transform="matrix(1,0,0,1,-0.09182167053222656,0)" style="transform:matrix(1, 0, 0, 1, -0.0918217, 0);animation-play-state:paused" ></circle>
<circle cx="897.8215094479172" cy="774.6615078518269" r="46.03732463323849" fill="#ffffff" transform="matrix(1,0,0,1,-0.09182170033454895,0)" style="transform:matrix(1, 0, 0, 1, -0.0918217, 0);animation-play-state:paused" ></circle>
<circle cx="943.8588340811557" cy="759.3642586374892" r="89.65642558923558" fill="#ffffff" transform="matrix(1,0,0,1,-0.9663257002830505,0)" style="transform:matrix(1, 0, 0, 1, -0.966326, 0);animation-play-state:paused" ></circle>
<circle cx="1033.5152596703913" cy="747.7894645448418" r="87.28214988498279" fill="#ffffff" transform="matrix(1,0,0,1,-3.0886495113372803,0)" style="transform:matrix(1, 0, 0, 1, -3.08865, 0);animation-play-state:paused" ></circle>
<circle cx="1120.797409555374" cy="758.7139031141811" r="45.87080734895254" fill="#ffffff" transform="matrix(1,0,0,1,-6.180027961730957,0)" style="transform:matrix(1, 0, 0, 1, -6.18003, 0);animation-play-state:paused" ></circle>
<circle cx="1166.6682169043265" cy="764.0353065440222" r="32.05021938052343" fill="#ffffff" transform="matrix(1,0,0,1,-8.632266998291016,0)" style="transform:matrix(1, 0, 0, 1, -8.63227, 0);animation-play-state:paused" ></circle>
<circle cx="1198.71843628485" cy="762.9712527867274" r="31.24639458802723" fill="#ffffff" transform="matrix(1,0,0,1,-9.785362243652344,0)" style="transform:matrix(1, 0, 0, 1, -9.78536, 0);animation-play-state:paused" ></circle>
<circle cx="1229.9648308728772" cy="717.0991836912074" r="92.68351090000931" fill="#ffffff" transform="matrix(1,0,0,1,-9.977882385253906,0)" style="transform:matrix(1, 0, 0, 1, -9.97788, 0);animation-play-state:paused" ></circle>
<circle cx="1322.6483417728864" cy="756.5826157234112" r="31.63648859190473" fill="#ffffff" transform="matrix(1,0,0,1,-9.355049133300781,0)" style="transform:matrix(1, 0, 0, 1, -9.35505, 0);animation-play-state:paused" ></circle>
<circle cx="1354.284830364791" cy="734.3864407629611" r="54.15913267267739" fill="#ffffff" transform="matrix(1,0,0,1,-7.57051944732666,0)" style="transform:matrix(1, 0, 0, 1, -7.57052, 0);animation-play-state:paused" ></circle>
<circle cx="1408.4439630374684" cy="708.9517729690618" r="74.99620274661004" fill="#ffffff" transform="matrix(1,0,0,1,-4.600756645202637,0)" style="transform:matrix(1, 0, 0, 1, -4.60076, 0);animation-play-state:paused" ></circle>
<circle cx="1483.4401657840785" cy="744.7183471751731" r="35.13956723458073" fill="#ffffff" transform="matrix(1,0,0,1,-1.8546791076660156,0)" style="transform:matrix(1, 0, 0, 1, -1.85468, 0);animation-play-state:paused" ></circle>
<circle cx="1518.5797330186592" cy="697.4553573951778" r="73.79438696582719" fill="#ffffff" transform="matrix(1,0,0,1,-0.3967552185058594,0)" style="transform:matrix(1, 0, 0, 1, -0.396755, 0);animation-play-state:paused" ></circle></g></svg>