<?xml version="1.0" encoding="utf-8"?>
<svg xmlns="http://www.w3.org/2000/svg" xmlns:xlink="http://www.w3.org/1999/xlink" style="margin: auto; background: rgba(122, 206, 255, 0); display: block; z-index: 1; position: relative; shape-rendering: auto;" width="1536" height="664" preserveAspectRatio="xMidYMid" viewBox="0 0 1536 664">
<g transform="translate(768,332) scale(1,1) translate(-768,-332)"><g transform="translate(-100 445.6550186194825) rotate(0)">
  <animateTransform attributeName="transform" type="translate" keyTimes="0;1" values="-100 445.6550186194825;1536 445.6550186194825" dur="250s" repeatCount="indefinite" begin="-155.98747622379454s"></animateTransform>
  <path d="M84.717,33.597c0.791-2.503,1.186-5.138,1.186-7.773C85.903,11.594,74.308,0,60.079,0 c-9.881,0-18.445,5.534-22.793,13.702c-1.581-0.527-3.426-0.791-5.138-0.791c-9.486,0-17.128,7.642-17.128,17.128 c0,1.186,0.132,2.372,0.395,3.426C6.719,34.783,0,42.424,0,51.515C0,61.66,8.169,69.829,18.314,69.829h63.373 C91.831,69.829,100,61.66,100,51.515C99.868,42.556,93.281,35.046,84.717,33.597z" fill="rgba(255, 255, 255, 0.2970324116368448)" transform="scale(0.9300000000000002)"></path>
</g><g transform="translate(-100 480.61745130794094) rotate(0)">
  <animateTransform attributeName="transform" type="translate" keyTimes="0;1" values="-100 480.61745130794094;1536 480.61745130794094" dur="250s" repeatCount="indefinite" begin="-69.001844659556s"></animateTransform>
  <path d="M84.717,33.597c0.791-2.503,1.186-5.138,1.186-7.773C85.903,11.594,74.308,0,60.079,0 c-9.881,0-18.445,5.534-22.793,13.702c-1.581-0.527-3.426-0.791-5.138-0.791c-9.486,0-17.128,7.642-17.128,17.128 c0,1.186,0.132,2.372,0.395,3.426C6.719,34.783,0,42.424,0,51.515C0,61.66,8.169,69.829,18.314,69.829h63.373 C91.831,69.829,100,61.66,100,51.515C99.868,42.556,93.281,35.046,84.717,33.597z" fill="rgba(255, 255, 255, 0.2970324116368448)" transform="scale(0.9300000000000002)"></path>
</g><g transform="translate(-100 418.5107927332571) rotate(0)">
  <animateTransform attributeName="transform" type="translate" keyTimes="0;1" values="-100 418.5107927332571;1536 418.5107927332571" dur="250s" repeatCount="indefinite" begin="-249.57212434287223s"></animateTransform>
  <path d="M84.717,33.597c0.791-2.503,1.186-5.138,1.186-7.773C85.903,11.594,74.308,0,60.079,0 c-9.881,0-18.445,5.534-22.793,13.702c-1.581-0.527-3.426-0.791-5.138-0.791c-9.486,0-17.128,7.642-17.128,17.128 c0,1.186,0.132,2.372,0.395,3.426C6.719,34.783,0,42.424,0,51.515C0,61.66,8.169,69.829,18.314,69.829h63.373 C91.831,69.829,100,61.66,100,51.515C99.868,42.556,93.281,35.046,84.717,33.597z" fill="rgba(255, 255, 255, 0.2970324116368448)" transform="scale(0.9300000000000002)"></path>
</g><g transform="translate(-100 608.6212967315837) rotate(0)">
  <animateTransform attributeName="transform" type="translate" keyTimes="0;1" values="-100 608.6212967315837;1536 608.6212967315837" dur="250s" repeatCount="indefinite" begin="-241.76297236890264s"></animateTransform>
  <path d="M84.717,33.597c0.791-2.503,1.186-5.138,1.186-7.773C85.903,11.594,74.308,0,60.079,0 c-9.881,0-18.445,5.534-22.793,13.702c-1.581-0.527-3.426-0.791-5.138-0.791c-9.486,0-17.128,7.642-17.128,17.128 c0,1.186,0.132,2.372,0.395,3.426C6.719,34.783,0,42.424,0,51.515C0,61.66,8.169,69.829,18.314,69.829h63.373 C91.831,69.829,100,61.66,100,51.515C99.868,42.556,93.281,35.046,84.717,33.597z" fill="rgba(255, 255, 255, 0.2970324116368448)" transform="scale(0.9300000000000002)"></path>
</g><g transform="translate(-100 54.45320876311949) rotate(0)">
  <animateTransform attributeName="transform" type="translate" keyTimes="0;1" values="-100 54.45320876311949;1536 54.45320876311949" dur="250s" repeatCount="indefinite" begin="-134.5369369715256s"></animateTransform>
  <path d="M84.717,33.597c0.791-2.503,1.186-5.138,1.186-7.773C85.903,11.594,74.308,0,60.079,0 c-9.881,0-18.445,5.534-22.793,13.702c-1.581-0.527-3.426-0.791-5.138-0.791c-9.486,0-17.128,7.642-17.128,17.128 c0,1.186,0.132,2.372,0.395,3.426C6.719,34.783,0,42.424,0,51.515C0,61.66,8.169,69.829,18.314,69.829h63.373 C91.831,69.829,100,61.66,100,51.515C99.868,42.556,93.281,35.046,84.717,33.597z" fill="rgba(255, 255, 255, 0.2970324116368448)" transform="scale(0.9300000000000002)"></path>
</g><g transform="translate(-100 257.200807917299) rotate(0)">
  <animateTransform attributeName="transform" type="translate" keyTimes="0;1" values="-100 257.200807917299;1536 257.200807917299" dur="250s" repeatCount="indefinite" begin="-163.98023098283727s"></animateTransform>
  <path d="M84.717,33.597c0.791-2.503,1.186-5.138,1.186-7.773C85.903,11.594,74.308,0,60.079,0 c-9.881,0-18.445,5.534-22.793,13.702c-1.581-0.527-3.426-0.791-5.138-0.791c-9.486,0-17.128,7.642-17.128,17.128 c0,1.186,0.132,2.372,0.395,3.426C6.719,34.783,0,42.424,0,51.515C0,61.66,8.169,69.829,18.314,69.829h63.373 C91.831,69.829,100,61.66,100,51.515C99.868,42.556,93.281,35.046,84.717,33.597z" fill="rgba(255, 255, 255, 0.2970324116368448)" transform="scale(0.9300000000000002)"></path>
</g><g transform="translate(-100 536.8453868663569) rotate(0)">
  <animateTransform attributeName="transform" type="translate" keyTimes="0;1" values="-100 536.8453868663569;1536 536.8453868663569" dur="250s" repeatCount="indefinite" begin="-67.27036992235602s"></animateTransform>
  <path d="M84.717,33.597c0.791-2.503,1.186-5.138,1.186-7.773C85.903,11.594,74.308,0,60.079,0 c-9.881,0-18.445,5.534-22.793,13.702c-1.581-0.527-3.426-0.791-5.138-0.791c-9.486,0-17.128,7.642-17.128,17.128 c0,1.186,0.132,2.372,0.395,3.426C6.719,34.783,0,42.424,0,51.515C0,61.66,8.169,69.829,18.314,69.829h63.373 C91.831,69.829,100,61.66,100,51.515C99.868,42.556,93.281,35.046,84.717,33.597z" fill="rgba(255, 255, 255, 0.2970324116368448)" transform="scale(0.9300000000000002)"></path>
</g><g transform="translate(-100 622.3491954354259) rotate(0)">
  <animateTransform attributeName="transform" type="translate" keyTimes="0;1" values="-100 622.3491954354259;1536 622.3491954354259" dur="250s" repeatCount="indefinite" begin="-175.71368018792577s"></animateTransform>
  <path d="M84.717,33.597c0.791-2.503,1.186-5.138,1.186-7.773C85.903,11.594,74.308,0,60.079,0 c-9.881,0-18.445,5.534-22.793,13.702c-1.581-0.527-3.426-0.791-5.138-0.791c-9.486,0-17.128,7.642-17.128,17.128 c0,1.186,0.132,2.372,0.395,3.426C6.719,34.783,0,42.424,0,51.515C0,61.66,8.169,69.829,18.314,69.829h63.373 C91.831,69.829,100,61.66,100,51.515C99.868,42.556,93.281,35.046,84.717,33.597z" fill="rgba(255, 255, 255, 0.2970324116368448)" transform="scale(0.9300000000000002)"></path>
</g><g transform="translate(-100 35.31883406876496) rotate(0)">
  <animateTransform attributeName="transform" type="translate" keyTimes="0;1" values="-100 35.31883406876496;1536 35.31883406876496" dur="250s" repeatCount="indefinite" begin="-88.38494866023305s"></animateTransform>
  <path d="M84.717,33.597c0.791-2.503,1.186-5.138,1.186-7.773C85.903,11.594,74.308,0,60.079,0 c-9.881,0-18.445,5.534-22.793,13.702c-1.581-0.527-3.426-0.791-5.138-0.791c-9.486,0-17.128,7.642-17.128,17.128 c0,1.186,0.132,2.372,0.395,3.426C6.719,34.783,0,42.424,0,51.515C0,61.66,8.169,69.829,18.314,69.829h63.373 C91.831,69.829,100,61.66,100,51.515C99.868,42.556,93.281,35.046,84.717,33.597z" fill="rgba(255, 255, 255, 0.2970324116368448)" transform="scale(0.9300000000000002)"></path>
</g><g transform="translate(-100 492.7717468370571) rotate(0)">
  <animateTransform attributeName="transform" type="translate" keyTimes="0;1" values="-100 492.7717468370571;1536 492.7717468370571" dur="250s" repeatCount="indefinite" begin="-131.51127251910404s"></animateTransform>
  <path d="M84.717,33.597c0.791-2.503,1.186-5.138,1.186-7.773C85.903,11.594,74.308,0,60.079,0 c-9.881,0-18.445,5.534-22.793,13.702c-1.581-0.527-3.426-0.791-5.138-0.791c-9.486,0-17.128,7.642-17.128,17.128 c0,1.186,0.132,2.372,0.395,3.426C6.719,34.783,0,42.424,0,51.515C0,61.66,8.169,69.829,18.314,69.829h63.373 C91.831,69.829,100,61.66,100,51.515C99.868,42.556,93.281,35.046,84.717,33.597z" fill="rgba(255, 255, 255, 0.2970324116368448)" transform="scale(0.9300000000000002)"></path>
</g><g transform="translate(-100 431.81375490749735) rotate(0)">
  <animateTransform attributeName="transform" type="translate" keyTimes="0;1" values="-100 431.81375490749735;1536 431.81375490749735" dur="125s" repeatCount="indefinite" begin="-154.78827090719932s"></animateTransform>
  <path d="M84.717,33.597c0.791-2.503,1.186-5.138,1.186-7.773C85.903,11.594,74.308,0,60.079,0 c-9.881,0-18.445,5.534-22.793,13.702c-1.581-0.527-3.426-0.791-5.138-0.791c-9.486,0-17.128,7.642-17.128,17.128 c0,1.186,0.132,2.372,0.395,3.426C6.719,34.783,0,42.424,0,51.515C0,61.66,8.169,69.829,18.314,69.829h63.373 C91.831,69.829,100,61.66,100,51.515C99.868,42.556,93.281,35.046,84.717,33.597z" fill="rgba(255, 255, 255, 0.28025821808845774)" transform="scale(1.02)"></path>
</g><g transform="translate(-100 550.6505384697762) rotate(0)">
  <animateTransform attributeName="transform" type="translate" keyTimes="0;1" values="-100 550.6505384697762;1536 550.6505384697762" dur="125s" repeatCount="indefinite" begin="-124.5754600198064s"></animateTransform>
  <path d="M84.717,33.597c0.791-2.503,1.186-5.138,1.186-7.773C85.903,11.594,74.308,0,60.079,0 c-9.881,0-18.445,5.534-22.793,13.702c-1.581-0.527-3.426-0.791-5.138-0.791c-9.486,0-17.128,7.642-17.128,17.128 c0,1.186,0.132,2.372,0.395,3.426C6.719,34.783,0,42.424,0,51.515C0,61.66,8.169,69.829,18.314,69.829h63.373 C91.831,69.829,100,61.66,100,51.515C99.868,42.556,93.281,35.046,84.717,33.597z" fill="rgba(255, 255, 255, 0.28025821808845774)" transform="scale(1.02)"></path>
</g><g transform="translate(-100 236.13069589654577) rotate(0)">
  <animateTransform attributeName="transform" type="translate" keyTimes="0;1" values="-100 236.13069589654577;1536 236.13069589654577" dur="125s" repeatCount="indefinite" begin="-217.2029830620944s"></animateTransform>
  <path d="M84.717,33.597c0.791-2.503,1.186-5.138,1.186-7.773C85.903,11.594,74.308,0,60.079,0 c-9.881,0-18.445,5.534-22.793,13.702c-1.581-0.527-3.426-0.791-5.138-0.791c-9.486,0-17.128,7.642-17.128,17.128 c0,1.186,0.132,2.372,0.395,3.426C6.719,34.783,0,42.424,0,51.515C0,61.66,8.169,69.829,18.314,69.829h63.373 C91.831,69.829,100,61.66,100,51.515C99.868,42.556,93.281,35.046,84.717,33.597z" fill="rgba(255, 255, 255, 0.28025821808845774)" transform="scale(1.02)"></path>
</g><g transform="translate(-100 136.05332298085187) rotate(0)">
  <animateTransform attributeName="transform" type="translate" keyTimes="0;1" values="-100 136.05332298085187;1536 136.05332298085187" dur="125s" repeatCount="indefinite" begin="-115.83726139993384s"></animateTransform>
  <path d="M84.717,33.597c0.791-2.503,1.186-5.138,1.186-7.773C85.903,11.594,74.308,0,60.079,0 c-9.881,0-18.445,5.534-22.793,13.702c-1.581-0.527-3.426-0.791-5.138-0.791c-9.486,0-17.128,7.642-17.128,17.128 c0,1.186,0.132,2.372,0.395,3.426C6.719,34.783,0,42.424,0,51.515C0,61.66,8.169,69.829,18.314,69.829h63.373 C91.831,69.829,100,61.66,100,51.515C99.868,42.556,93.281,35.046,84.717,33.597z" fill="rgba(255, 255, 255, 0.28025821808845774)" transform="scale(1.02)"></path>
</g><g transform="translate(-100 280.1948314967334) rotate(0)">
  <animateTransform attributeName="transform" type="translate" keyTimes="0;1" values="-100 280.1948314967334;1536 280.1948314967334" dur="125s" repeatCount="indefinite" begin="-229.18802118693375s"></animateTransform>
  <path d="M84.717,33.597c0.791-2.503,1.186-5.138,1.186-7.773C85.903,11.594,74.308,0,60.079,0 c-9.881,0-18.445,5.534-22.793,13.702c-1.581-0.527-3.426-0.791-5.138-0.791c-9.486,0-17.128,7.642-17.128,17.128 c0,1.186,0.132,2.372,0.395,3.426C6.719,34.783,0,42.424,0,51.515C0,61.66,8.169,69.829,18.314,69.829h63.373 C91.831,69.829,100,61.66,100,51.515C99.868,42.556,93.281,35.046,84.717,33.597z" fill="rgba(255, 255, 255, 0.28025821808845774)" transform="scale(1.02)"></path>
</g><g transform="translate(-100 224.57774981733886) rotate(0)">
  <animateTransform attributeName="transform" type="translate" keyTimes="0;1" values="-100 224.57774981733886;1536 224.57774981733886" dur="125s" repeatCount="indefinite" begin="-94.66854494406651s"></animateTransform>
  <path d="M84.717,33.597c0.791-2.503,1.186-5.138,1.186-7.773C85.903,11.594,74.308,0,60.079,0 c-9.881,0-18.445,5.534-22.793,13.702c-1.581-0.527-3.426-0.791-5.138-0.791c-9.486,0-17.128,7.642-17.128,17.128 c0,1.186,0.132,2.372,0.395,3.426C6.719,34.783,0,42.424,0,51.515C0,61.66,8.169,69.829,18.314,69.829h63.373 C91.831,69.829,100,61.66,100,51.515C99.868,42.556,93.281,35.046,84.717,33.597z" fill="rgba(255, 255, 255, 0.28025821808845774)" transform="scale(1.02)"></path>
</g><g transform="translate(-100 533.49110976184) rotate(0)">
  <animateTransform attributeName="transform" type="translate" keyTimes="0;1" values="-100 533.49110976184;1536 533.49110976184" dur="125s" repeatCount="indefinite" begin="-90.67849470527366s"></animateTransform>
  <path d="M84.717,33.597c0.791-2.503,1.186-5.138,1.186-7.773C85.903,11.594,74.308,0,60.079,0 c-9.881,0-18.445,5.534-22.793,13.702c-1.581-0.527-3.426-0.791-5.138-0.791c-9.486,0-17.128,7.642-17.128,17.128 c0,1.186,0.132,2.372,0.395,3.426C6.719,34.783,0,42.424,0,51.515C0,61.66,8.169,69.829,18.314,69.829h63.373 C91.831,69.829,100,61.66,100,51.515C99.868,42.556,93.281,35.046,84.717,33.597z" fill="rgba(255, 255, 255, 0.28025821808845774)" transform="scale(1.02)"></path>
</g><g transform="translate(-100 463.5035475949357) rotate(0)">
  <animateTransform attributeName="transform" type="translate" keyTimes="0;1" values="-100 463.5035475949357;1536 463.5035475949357" dur="125s" repeatCount="indefinite" begin="-7.283798020420784s"></animateTransform>
  <path d="M84.717,33.597c0.791-2.503,1.186-5.138,1.186-7.773C85.903,11.594,74.308,0,60.079,0 c-9.881,0-18.445,5.534-22.793,13.702c-1.581-0.527-3.426-0.791-5.138-0.791c-9.486,0-17.128,7.642-17.128,17.128 c0,1.186,0.132,2.372,0.395,3.426C6.719,34.783,0,42.424,0,51.515C0,61.66,8.169,69.829,18.314,69.829h63.373 C91.831,69.829,100,61.66,100,51.515C99.868,42.556,93.281,35.046,84.717,33.597z" fill="rgba(255, 255, 255, 0.28025821808845774)" transform="scale(1.02)"></path>
</g><g transform="translate(-100 303.74494142008507) rotate(0)">
  <animateTransform attributeName="transform" type="translate" keyTimes="0;1" values="-100 303.74494142008507;1536 303.74494142008507" dur="125s" repeatCount="indefinite" begin="-74.46949095814132s"></animateTransform>
  <path d="M84.717,33.597c0.791-2.503,1.186-5.138,1.186-7.773C85.903,11.594,74.308,0,60.079,0 c-9.881,0-18.445,5.534-22.793,13.702c-1.581-0.527-3.426-0.791-5.138-0.791c-9.486,0-17.128,7.642-17.128,17.128 c0,1.186,0.132,2.372,0.395,3.426C6.719,34.783,0,42.424,0,51.515C0,61.66,8.169,69.829,18.314,69.829h63.373 C91.831,69.829,100,61.66,100,51.515C99.868,42.556,93.281,35.046,84.717,33.597z" fill="rgba(255, 255, 255, 0.28025821808845774)" transform="scale(1.02)"></path>
</g><g transform="translate(-100 80.52110230132048) rotate(0)">
  <animateTransform attributeName="transform" type="translate" keyTimes="0;1" values="-100 80.52110230132048;1536 80.52110230132048" dur="125s" repeatCount="indefinite" begin="-126.02940777985638s"></animateTransform>
  <path d="M84.717,33.597c0.791-2.503,1.186-5.138,1.186-7.773C85.903,11.594,74.308,0,60.079,0 c-9.881,0-18.445,5.534-22.793,13.702c-1.581-0.527-3.426-0.791-5.138-0.791c-9.486,0-17.128,7.642-17.128,17.128 c0,1.186,0.132,2.372,0.395,3.426C6.719,34.783,0,42.424,0,51.515C0,61.66,8.169,69.829,18.314,69.829h63.373 C91.831,69.829,100,61.66,100,51.515C99.868,42.556,93.281,35.046,84.717,33.597z" fill="rgba(255, 255, 255, 0.28025821808845774)" transform="scale(1.02)"></path>
</g><g transform="translate(-100 553.8673526370657) rotate(0)">
  <animateTransform attributeName="transform" type="translate" keyTimes="0;1" values="-100 553.8673526370657;1536 553.8673526370657" dur="83.33333333333333s" repeatCount="indefinite" begin="-7.38985401015313s"></animateTransform>
  <path d="M84.717,33.597c0.791-2.503,1.186-5.138,1.186-7.773C85.903,11.594,74.308,0,60.079,0 c-9.881,0-18.445,5.534-22.793,13.702c-1.581-0.527-3.426-0.791-5.138-0.791c-9.486,0-17.128,7.642-17.128,17.128 c0,1.186,0.132,2.372,0.395,3.426C6.719,34.783,0,42.424,0,51.515C0,61.66,8.169,69.829,18.314,69.829h63.373 C91.831,69.829,100,61.66,100,51.515C99.868,42.556,93.281,35.046,84.717,33.597z" fill="rgba(255, 255, 255, 0.30541950841103827)" transform="scale(1.1100000000000003)"></path>
</g><g transform="translate(-100 391.0195079375459) rotate(0)">
  <animateTransform attributeName="transform" type="translate" keyTimes="0;1" values="-100 391.0195079375459;1536 391.0195079375459" dur="83.33333333333333s" repeatCount="indefinite" begin="-217.71695426153943s"></animateTransform>
  <path d="M84.717,33.597c0.791-2.503,1.186-5.138,1.186-7.773C85.903,11.594,74.308,0,60.079,0 c-9.881,0-18.445,5.534-22.793,13.702c-1.581-0.527-3.426-0.791-5.138-0.791c-9.486,0-17.128,7.642-17.128,17.128 c0,1.186,0.132,2.372,0.395,3.426C6.719,34.783,0,42.424,0,51.515C0,61.66,8.169,69.829,18.314,69.829h63.373 C91.831,69.829,100,61.66,100,51.515C99.868,42.556,93.281,35.046,84.717,33.597z" fill="rgba(255, 255, 255, 0.30541950841103827)" transform="scale(1.1100000000000003)"></path>
</g><g transform="translate(-100 520.0365771816543) rotate(0)">
  <animateTransform attributeName="transform" type="translate" keyTimes="0;1" values="-100 520.0365771816543;1536 520.0365771816543" dur="83.33333333333333s" repeatCount="indefinite" begin="-229.30762110886565s"></animateTransform>
  <path d="M84.717,33.597c0.791-2.503,1.186-5.138,1.186-7.773C85.903,11.594,74.308,0,60.079,0 c-9.881,0-18.445,5.534-22.793,13.702c-1.581-0.527-3.426-0.791-5.138-0.791c-9.486,0-17.128,7.642-17.128,17.128 c0,1.186,0.132,2.372,0.395,3.426C6.719,34.783,0,42.424,0,51.515C0,61.66,8.169,69.829,18.314,69.829h63.373 C91.831,69.829,100,61.66,100,51.515C99.868,42.556,93.281,35.046,84.717,33.597z" fill="rgba(255, 255, 255, 0.30541950841103827)" transform="scale(1.1100000000000003)"></path>
</g><g transform="translate(-100 137.90971887694195) rotate(0)">
  <animateTransform attributeName="transform" type="translate" keyTimes="0;1" values="-100 137.90971887694195;1536 137.90971887694195" dur="83.33333333333333s" repeatCount="indefinite" begin="-240.49178833977203s"></animateTransform>
  <path d="M84.717,33.597c0.791-2.503,1.186-5.138,1.186-7.773C85.903,11.594,74.308,0,60.079,0 c-9.881,0-18.445,5.534-22.793,13.702c-1.581-0.527-3.426-0.791-5.138-0.791c-9.486,0-17.128,7.642-17.128,17.128 c0,1.186,0.132,2.372,0.395,3.426C6.719,34.783,0,42.424,0,51.515C0,61.66,8.169,69.829,18.314,69.829h63.373 C91.831,69.829,100,61.66,100,51.515C99.868,42.556,93.281,35.046,84.717,33.597z" fill="rgba(255, 255, 255, 0.30541950841103827)" transform="scale(1.1100000000000003)"></path>
</g><g transform="translate(-100 200.91136851009026) rotate(0)">
  <animateTransform attributeName="transform" type="translate" keyTimes="0;1" values="-100 200.91136851009026;1536 200.91136851009026" dur="83.33333333333333s" repeatCount="indefinite" begin="-72.86970265634352s"></animateTransform>
  <path d="M84.717,33.597c0.791-2.503,1.186-5.138,1.186-7.773C85.903,11.594,74.308,0,60.079,0 c-9.881,0-18.445,5.534-22.793,13.702c-1.581-0.527-3.426-0.791-5.138-0.791c-9.486,0-17.128,7.642-17.128,17.128 c0,1.186,0.132,2.372,0.395,3.426C6.719,34.783,0,42.424,0,51.515C0,61.66,8.169,69.829,18.314,69.829h63.373 C91.831,69.829,100,61.66,100,51.515C99.868,42.556,93.281,35.046,84.717,33.597z" fill="rgba(255, 255, 255, 0.30541950841103827)" transform="scale(1.1100000000000003)"></path>
</g><g transform="translate(-100 128.57389682702535) rotate(0)">
  <animateTransform attributeName="transform" type="translate" keyTimes="0;1" values="-100 128.57389682702535;1536 128.57389682702535" dur="83.33333333333333s" repeatCount="indefinite" begin="-203.15367823051645s"></animateTransform>
  <path d="M84.717,33.597c0.791-2.503,1.186-5.138,1.186-7.773C85.903,11.594,74.308,0,60.079,0 c-9.881,0-18.445,5.534-22.793,13.702c-1.581-0.527-3.426-0.791-5.138-0.791c-9.486,0-17.128,7.642-17.128,17.128 c0,1.186,0.132,2.372,0.395,3.426C6.719,34.783,0,42.424,0,51.515C0,61.66,8.169,69.829,18.314,69.829h63.373 C91.831,69.829,100,61.66,100,51.515C99.868,42.556,93.281,35.046,84.717,33.597z" fill="rgba(255, 255, 255, 0.30541950841103827)" transform="scale(1.1100000000000003)"></path>
</g><g transform="translate(-100 376.48489838865527) rotate(0)">
  <animateTransform attributeName="transform" type="translate" keyTimes="0;1" values="-100 376.48489838865527;1536 376.48489838865527" dur="83.33333333333333s" repeatCount="indefinite" begin="-169.3740164724404s"></animateTransform>
  <path d="M84.717,33.597c0.791-2.503,1.186-5.138,1.186-7.773C85.903,11.594,74.308,0,60.079,0 c-9.881,0-18.445,5.534-22.793,13.702c-1.581-0.527-3.426-0.791-5.138-0.791c-9.486,0-17.128,7.642-17.128,17.128 c0,1.186,0.132,2.372,0.395,3.426C6.719,34.783,0,42.424,0,51.515C0,61.66,8.169,69.829,18.314,69.829h63.373 C91.831,69.829,100,61.66,100,51.515C99.868,42.556,93.281,35.046,84.717,33.597z" fill="rgba(255, 255, 255, 0.30541950841103827)" transform="scale(1.1100000000000003)"></path>
</g><g transform="translate(-100 325.3495394304665) rotate(0)">
  <animateTransform attributeName="transform" type="translate" keyTimes="0;1" values="-100 325.3495394304665;1536 325.3495394304665" dur="83.33333333333333s" repeatCount="indefinite" begin="-140.17315163110666s"></animateTransform>
  <path d="M84.717,33.597c0.791-2.503,1.186-5.138,1.186-7.773C85.903,11.594,74.308,0,60.079,0 c-9.881,0-18.445,5.534-22.793,13.702c-1.581-0.527-3.426-0.791-5.138-0.791c-9.486,0-17.128,7.642-17.128,17.128 c0,1.186,0.132,2.372,0.395,3.426C6.719,34.783,0,42.424,0,51.515C0,61.66,8.169,69.829,18.314,69.829h63.373 C91.831,69.829,100,61.66,100,51.515C99.868,42.556,93.281,35.046,84.717,33.597z" fill="rgba(255, 255, 255, 0.30541950841103827)" transform="scale(1.1100000000000003)"></path>
</g><g transform="translate(-100 99.90531413624926) rotate(0)">
  <animateTransform attributeName="transform" type="translate" keyTimes="0;1" values="-100 99.90531413624926;1536 99.90531413624926" dur="83.33333333333333s" repeatCount="indefinite" begin="-145.85247733303464s"></animateTransform>
  <path d="M84.717,33.597c0.791-2.503,1.186-5.138,1.186-7.773C85.903,11.594,74.308,0,60.079,0 c-9.881,0-18.445,5.534-22.793,13.702c-1.581-0.527-3.426-0.791-5.138-0.791c-9.486,0-17.128,7.642-17.128,17.128 c0,1.186,0.132,2.372,0.395,3.426C6.719,34.783,0,42.424,0,51.515C0,61.66,8.169,69.829,18.314,69.829h63.373 C91.831,69.829,100,61.66,100,51.515C99.868,42.556,93.281,35.046,84.717,33.597z" fill="rgba(255, 255, 255, 0.30541950841103827)" transform="scale(1.1100000000000003)"></path>
</g><g transform="translate(-100 68.08892826983899) rotate(0)">
  <animateTransform attributeName="transform" type="translate" keyTimes="0;1" values="-100 68.08892826983899;1536 68.08892826983899" dur="83.33333333333333s" repeatCount="indefinite" begin="-166.93333098934488s"></animateTransform>
  <path d="M84.717,33.597c0.791-2.503,1.186-5.138,1.186-7.773C85.903,11.594,74.308,0,60.079,0 c-9.881,0-18.445,5.534-22.793,13.702c-1.581-0.527-3.426-0.791-5.138-0.791c-9.486,0-17.128,7.642-17.128,17.128 c0,1.186,0.132,2.372,0.395,3.426C6.719,34.783,0,42.424,0,51.515C0,61.66,8.169,69.829,18.314,69.829h63.373 C91.831,69.829,100,61.66,100,51.515C99.868,42.556,93.281,35.046,84.717,33.597z" fill="rgba(255, 255, 255, 0.30541950841103827)" transform="scale(1.1100000000000003)"></path>
</g><g transform="translate(-100 104.2014749875874) rotate(0)">
  <animateTransform attributeName="transform" type="translate" keyTimes="0;1" values="-100 104.2014749875874;1536 104.2014749875874" dur="62.5s" repeatCount="indefinite" begin="-113.87050037366569s"></animateTransform>
  <path d="M84.717,33.597c0.791-2.503,1.186-5.138,1.186-7.773C85.903,11.594,74.308,0,60.079,0 c-9.881,0-18.445,5.534-22.793,13.702c-1.581-0.527-3.426-0.791-5.138-0.791c-9.486,0-17.128,7.642-17.128,17.128 c0,1.186,0.132,2.372,0.395,3.426C6.719,34.783,0,42.424,0,51.515C0,61.66,8.169,69.829,18.314,69.829h63.373 C91.831,69.829,100,61.66,100,51.515C99.868,42.556,93.281,35.046,84.717,33.597z" fill="rgba(255, 255, 255, 0.46477434712071575)" transform="scale(1.2000000000000002)"></path>
</g><g transform="translate(-100 324.6818002257086) rotate(0)">
  <animateTransform attributeName="transform" type="translate" keyTimes="0;1" values="-100 324.6818002257086;1536 324.6818002257086" dur="62.5s" repeatCount="indefinite" begin="-129.56367115171685s"></animateTransform>
  <path d="M84.717,33.597c0.791-2.503,1.186-5.138,1.186-7.773C85.903,11.594,74.308,0,60.079,0 c-9.881,0-18.445,5.534-22.793,13.702c-1.581-0.527-3.426-0.791-5.138-0.791c-9.486,0-17.128,7.642-17.128,17.128 c0,1.186,0.132,2.372,0.395,3.426C6.719,34.783,0,42.424,0,51.515C0,61.66,8.169,69.829,18.314,69.829h63.373 C91.831,69.829,100,61.66,100,51.515C99.868,42.556,93.281,35.046,84.717,33.597z" fill="rgba(255, 255, 255, 0.46477434712071575)" transform="scale(1.2000000000000002)"></path>
</g><g transform="translate(-100 426.792629346524) rotate(0)">
  <animateTransform attributeName="transform" type="translate" keyTimes="0;1" values="-100 426.792629346524;1536 426.792629346524" dur="62.5s" repeatCount="indefinite" begin="-112.5210535493012s"></animateTransform>
  <path d="M84.717,33.597c0.791-2.503,1.186-5.138,1.186-7.773C85.903,11.594,74.308,0,60.079,0 c-9.881,0-18.445,5.534-22.793,13.702c-1.581-0.527-3.426-0.791-5.138-0.791c-9.486,0-17.128,7.642-17.128,17.128 c0,1.186,0.132,2.372,0.395,3.426C6.719,34.783,0,42.424,0,51.515C0,61.66,8.169,69.829,18.314,69.829h63.373 C91.831,69.829,100,61.66,100,51.515C99.868,42.556,93.281,35.046,84.717,33.597z" fill="rgba(255, 255, 255, 0.46477434712071575)" transform="scale(1.2000000000000002)"></path>
</g><g transform="translate(-100 208.68140235225164) rotate(0)">
  <animateTransform attributeName="transform" type="translate" keyTimes="0;1" values="-100 208.68140235225164;1536 208.68140235225164" dur="62.5s" repeatCount="indefinite" begin="-195.82968443986414s"></animateTransform>
  <path d="M84.717,33.597c0.791-2.503,1.186-5.138,1.186-7.773C85.903,11.594,74.308,0,60.079,0 c-9.881,0-18.445,5.534-22.793,13.702c-1.581-0.527-3.426-0.791-5.138-0.791c-9.486,0-17.128,7.642-17.128,17.128 c0,1.186,0.132,2.372,0.395,3.426C6.719,34.783,0,42.424,0,51.515C0,61.66,8.169,69.829,18.314,69.829h63.373 C91.831,69.829,100,61.66,100,51.515C99.868,42.556,93.281,35.046,84.717,33.597z" fill="rgba(255, 255, 255, 0.46477434712071575)" transform="scale(1.2000000000000002)"></path>
</g><g transform="translate(-100 478.9871564449306) rotate(0)">
  <animateTransform attributeName="transform" type="translate" keyTimes="0;1" values="-100 478.9871564449306;1536 478.9871564449306" dur="62.5s" repeatCount="indefinite" begin="-143.8544351494251s"></animateTransform>
  <path d="M84.717,33.597c0.791-2.503,1.186-5.138,1.186-7.773C85.903,11.594,74.308,0,60.079,0 c-9.881,0-18.445,5.534-22.793,13.702c-1.581-0.527-3.426-0.791-5.138-0.791c-9.486,0-17.128,7.642-17.128,17.128 c0,1.186,0.132,2.372,0.395,3.426C6.719,34.783,0,42.424,0,51.515C0,61.66,8.169,69.829,18.314,69.829h63.373 C91.831,69.829,100,61.66,100,51.515C99.868,42.556,93.281,35.046,84.717,33.597z" fill="rgba(255, 255, 255, 0.46477434712071575)" transform="scale(1.2000000000000002)"></path>
</g><g transform="translate(-100 289.6145235891233) rotate(0)">
  <animateTransform attributeName="transform" type="translate" keyTimes="0;1" values="-100 289.6145235891233;1536 289.6145235891233" dur="62.5s" repeatCount="indefinite" begin="-10.498124729932833s"></animateTransform>
  <path d="M84.717,33.597c0.791-2.503,1.186-5.138,1.186-7.773C85.903,11.594,74.308,0,60.079,0 c-9.881,0-18.445,5.534-22.793,13.702c-1.581-0.527-3.426-0.791-5.138-0.791c-9.486,0-17.128,7.642-17.128,17.128 c0,1.186,0.132,2.372,0.395,3.426C6.719,34.783,0,42.424,0,51.515C0,61.66,8.169,69.829,18.314,69.829h63.373 C91.831,69.829,100,61.66,100,51.515C99.868,42.556,93.281,35.046,84.717,33.597z" fill="rgba(255, 255, 255, 0.46477434712071575)" transform="scale(1.2000000000000002)"></path>
</g><g transform="translate(-100 384.75720672282716) rotate(0)">
  <animateTransform attributeName="transform" type="translate" keyTimes="0;1" values="-100 384.75720672282716;1536 384.75720672282716" dur="62.5s" repeatCount="indefinite" begin="-75.50255122668665s"></animateTransform>
  <path d="M84.717,33.597c0.791-2.503,1.186-5.138,1.186-7.773C85.903,11.594,74.308,0,60.079,0 c-9.881,0-18.445,5.534-22.793,13.702c-1.581-0.527-3.426-0.791-5.138-0.791c-9.486,0-17.128,7.642-17.128,17.128 c0,1.186,0.132,2.372,0.395,3.426C6.719,34.783,0,42.424,0,51.515C0,61.66,8.169,69.829,18.314,69.829h63.373 C91.831,69.829,100,61.66,100,51.515C99.868,42.556,93.281,35.046,84.717,33.597z" fill="rgba(255, 255, 255, 0.46477434712071575)" transform="scale(1.2000000000000002)"></path>
</g><g transform="translate(-100 600.751713004232) rotate(0)">
  <animateTransform attributeName="transform" type="translate" keyTimes="0;1" values="-100 600.751713004232;1536 600.751713004232" dur="62.5s" repeatCount="indefinite" begin="-46.574045240347864s"></animateTransform>
  <path d="M84.717,33.597c0.791-2.503,1.186-5.138,1.186-7.773C85.903,11.594,74.308,0,60.079,0 c-9.881,0-18.445,5.534-22.793,13.702c-1.581-0.527-3.426-0.791-5.138-0.791c-9.486,0-17.128,7.642-17.128,17.128 c0,1.186,0.132,2.372,0.395,3.426C6.719,34.783,0,42.424,0,51.515C0,61.66,8.169,69.829,18.314,69.829h63.373 C91.831,69.829,100,61.66,100,51.515C99.868,42.556,93.281,35.046,84.717,33.597z" fill="rgba(255, 255, 255, 0.46477434712071575)" transform="scale(1.2000000000000002)"></path>
</g><g transform="translate(-100 525.3070614908836) rotate(0)">
  <animateTransform attributeName="transform" type="translate" keyTimes="0;1" values="-100 525.3070614908836;1536 525.3070614908836" dur="62.5s" repeatCount="indefinite" begin="-231.54179527513608s"></animateTransform>
  <path d="M84.717,33.597c0.791-2.503,1.186-5.138,1.186-7.773C85.903,11.594,74.308,0,60.079,0 c-9.881,0-18.445,5.534-22.793,13.702c-1.581-0.527-3.426-0.791-5.138-0.791c-9.486,0-17.128,7.642-17.128,17.128 c0,1.186,0.132,2.372,0.395,3.426C6.719,34.783,0,42.424,0,51.515C0,61.66,8.169,69.829,18.314,69.829h63.373 C91.831,69.829,100,61.66,100,51.515C99.868,42.556,93.281,35.046,84.717,33.597z" fill="rgba(255, 255, 255, 0.46477434712071575)" transform="scale(1.2000000000000002)"></path>
</g><g transform="translate(-100 282.3381717264393) rotate(0)">
  <animateTransform attributeName="transform" type="translate" keyTimes="0;1" values="-100 282.3381717264393;1536 282.3381717264393" dur="62.5s" repeatCount="indefinite" begin="-182.16439237296555s"></animateTransform>
  <path d="M84.717,33.597c0.791-2.503,1.186-5.138,1.186-7.773C85.903,11.594,74.308,0,60.079,0 c-9.881,0-18.445,5.534-22.793,13.702c-1.581-0.527-3.426-0.791-5.138-0.791c-9.486,0-17.128,7.642-17.128,17.128 c0,1.186,0.132,2.372,0.395,3.426C6.719,34.783,0,42.424,0,51.515C0,61.66,8.169,69.829,18.314,69.829h63.373 C91.831,69.829,100,61.66,100,51.515C99.868,42.556,93.281,35.046,84.717,33.597z" fill="rgba(255, 255, 255, 0.46477434712071575)" transform="scale(1.2000000000000002)"></path>
</g><g transform="translate(-100 35.65360699042425) rotate(0)">
  <animateTransform attributeName="transform" type="translate" keyTimes="0;1" values="-100 35.65360699042425;1536 35.65360699042425" dur="62.5s" repeatCount="indefinite" begin="-31.323072838760126s"></animateTransform>
  <path d="M84.717,33.597c0.791-2.503,1.186-5.138,1.186-7.773C85.903,11.594,74.308,0,60.079,0 c-9.881,0-18.445,5.534-22.793,13.702c-1.581-0.527-3.426-0.791-5.138-0.791c-9.486,0-17.128,7.642-17.128,17.128 c0,1.186,0.132,2.372,0.395,3.426C6.719,34.783,0,42.424,0,51.515C0,61.66,8.169,69.829,18.314,69.829h63.373 C91.831,69.829,100,61.66,100,51.515C99.868,42.556,93.281,35.046,84.717,33.597z" fill="rgba(255, 255, 255, 0.46477434712071575)" transform="scale(1.2000000000000002)"></path>
</g></g>
</svg>