<?xml version="1.0" encoding="utf-8"?><svg xmlns="http://www.w3.org/2000/svg" xmlns:xlink="http://www.w3.org/1999/xlink" width="1536" height="664" preserveAspectRatio="xMidYMid" viewBox="0 0 1536 664" style="z-index:1;margin-right:-2px;display:block;background-repeat-y:initial;background-repeat-x:initial;background-color:rgba(122, 206, 255, 0);animation-play-state:paused" ><g transform="translate(768,332) scale(1,1) translate(-768,-332)" style="transform:matrix(1, 0, 0, 1, 0, 0);animation-play-state:paused" ><g transform="matrix(1,0,0,1,1390.65771484375,182.21751403808594)" style="transform:matrix(1, 0, 0, 1, 1390.66, 182.218);animation-play-state:paused" ><path d="M84.717,33.597c0.791-2.503,1.186-5.138,1.186-7.773C85.903,11.594,74.308,0,60.079,0 c-9.881,0-18.445,5.534-22.793,13.702c-1.581-0.527-3.426-0.791-5.138-0.791c-9.486,0-17.128,7.642-17.128,17.128 c0,1.186,0.132,2.372,0.395,3.426C6.719,34.783,0,42.424,0,51.515C0,61.66,8.169,69.829,18.314,69.829h63.373 C91.831,69.829,100,61.66,100,51.515C99.868,42.556,93.281,35.046,84.717,33.597z" fill="rgba(255, 255, 255, 0.2970324116368448)" transform="scale(0.6475)" style="transform:matrix(0.6475, 0, 0, 0.6475, 0, 0);animation-play-state:paused" ></path></g>
<g transform="matrix(1,0,0,1,-59.773162841796875,53.58622360229492)" style="transform:matrix(1, 0, 0, 1, -59.7732, 53.5862);animation-play-state:paused" ><path d="M84.717,33.597c0.791-2.503,1.186-5.138,1.186-7.773C85.903,11.594,74.308,0,60.079,0 c-9.881,0-18.445,5.534-22.793,13.702c-1.581-0.527-3.426-0.791-5.138-0.791c-9.486,0-17.128,7.642-17.128,17.128 c0,1.186,0.132,2.372,0.395,3.426C6.719,34.783,0,42.424,0,51.515C0,61.66,8.169,69.829,18.314,69.829h63.373 C91.831,69.829,100,61.66,100,51.515C99.868,42.556,93.281,35.046,84.717,33.597z" fill="rgba(255, 255, 255, 0.2970324116368448)" transform="scale(0.6475)" style="transform:matrix(0.6475, 0, 0, 0.6475, 0, 0);animation-play-state:paused" ></path></g>
<g transform="matrix(1,0,0,1,874.8873291015625,560.6832275390625)" style="transform:matrix(1, 0, 0, 1, 874.887, 560.683);animation-play-state:paused" ><path d="M84.717,33.597c0.791-2.503,1.186-5.138,1.186-7.773C85.903,11.594,74.308,0,60.079,0 c-9.881,0-18.445,5.534-22.793,13.702c-1.581-0.527-3.426-0.791-5.138-0.791c-9.486,0-17.128,7.642-17.128,17.128 c0,1.186,0.132,2.372,0.395,3.426C6.719,34.783,0,42.424,0,51.515C0,61.66,8.169,69.829,18.314,69.829h63.373 C91.831,69.829,100,61.66,100,51.515C99.868,42.556,93.281,35.046,84.717,33.597z" fill="rgba(255, 255, 255, 0.2970324116368448)" transform="scale(0.6475)" style="transform:matrix(0.6475, 0, 0, 0.6475, 0, 0);animation-play-state:paused" ></path></g>
<g transform="matrix(1,0,0,1,1216.950439453125,169.4270477294922)" style="transform:matrix(1, 0, 0, 1, 1216.95, 169.427);animation-play-state:paused" ><path d="M84.717,33.597c0.791-2.503,1.186-5.138,1.186-7.773C85.903,11.594,74.308,0,60.079,0 c-9.881,0-18.445,5.534-22.793,13.702c-1.581-0.527-3.426-0.791-5.138-0.791c-9.486,0-17.128,7.642-17.128,17.128 c0,1.186,0.132,2.372,0.395,3.426C6.719,34.783,0,42.424,0,51.515C0,61.66,8.169,69.829,18.314,69.829h63.373 C91.831,69.829,100,61.66,100,51.515C99.868,42.556,93.281,35.046,84.717,33.597z" fill="rgba(255, 255, 255, 0.2970324116368448)" transform="scale(0.6475)" style="transform:matrix(0.6475, 0, 0, 0.6475, 0, 0);animation-play-state:paused" ></path></g>
<g transform="matrix(1,0,0,1,1368.102783203125,312.3337707519531)" style="transform:matrix(1, 0, 0, 1, 1368.1, 312.334);animation-play-state:paused" ><path d="M84.717,33.597c0.791-2.503,1.186-5.138,1.186-7.773C85.903,11.594,74.308,0,60.079,0 c-9.881,0-18.445,5.534-22.793,13.702c-1.581-0.527-3.426-0.791-5.138-0.791c-9.486,0-17.128,7.642-17.128,17.128 c0,1.186,0.132,2.372,0.395,3.426C6.719,34.783,0,42.424,0,51.515C0,61.66,8.169,69.829,18.314,69.829h63.373 C91.831,69.829,100,61.66,100,51.515C99.868,42.556,93.281,35.046,84.717,33.597z" fill="rgba(255, 255, 255, 0.2970324116368448)" transform="scale(0.6475)" style="transform:matrix(0.6475, 0, 0, 0.6475, 0, 0);animation-play-state:paused" ></path></g>
<g transform="matrix(1,0,0,1,879.811279296875,248.10491943359375)" style="transform:matrix(1, 0, 0, 1, 879.811, 248.105);animation-play-state:paused" ><path d="M84.717,33.597c0.791-2.503,1.186-5.138,1.186-7.773C85.903,11.594,74.308,0,60.079,0 c-9.881,0-18.445,5.534-22.793,13.702c-1.581-0.527-3.426-0.791-5.138-0.791c-9.486,0-17.128,7.642-17.128,17.128 c0,1.186,0.132,2.372,0.395,3.426C6.719,34.783,0,42.424,0,51.515C0,61.66,8.169,69.829,18.314,69.829h63.373 C91.831,69.829,100,61.66,100,51.515C99.868,42.556,93.281,35.046,84.717,33.597z" fill="rgba(255, 255, 255, 0.2970324116368448)" transform="scale(0.6475)" style="transform:matrix(0.6475, 0, 0, 0.6475, 0, 0);animation-play-state:paused" ></path></g>
<g transform="matrix(1,0,0,1,1400.898193359375,246.64877319335938)" style="transform:matrix(1, 0, 0, 1, 1400.9, 246.649);animation-play-state:paused" ><path d="M84.717,33.597c0.791-2.503,1.186-5.138,1.186-7.773C85.903,11.594,74.308,0,60.079,0 c-9.881,0-18.445,5.534-22.793,13.702c-1.581-0.527-3.426-0.791-5.138-0.791c-9.486,0-17.128,7.642-17.128,17.128 c0,1.186,0.132,2.372,0.395,3.426C6.719,34.783,0,42.424,0,51.515C0,61.66,8.169,69.829,18.314,69.829h63.373 C91.831,69.829,100,61.66,100,51.515C99.868,42.556,93.281,35.046,84.717,33.597z" fill="rgba(255, 255, 255, 0.2970324116368448)" transform="scale(0.6475)" style="transform:matrix(0.6475, 0, 0, 0.6475, 0, 0);animation-play-state:paused" ></path></g>
<g transform="matrix(1,0,0,1,1443.123779296875,625.9908447265625)" style="transform:matrix(1, 0, 0, 1, 1443.12, 625.991);animation-play-state:paused" ><path d="M84.717,33.597c0.791-2.503,1.186-5.138,1.186-7.773C85.903,11.594,74.308,0,60.079,0 c-9.881,0-18.445,5.534-22.793,13.702c-1.581-0.527-3.426-0.791-5.138-0.791c-9.486,0-17.128,7.642-17.128,17.128 c0,1.186,0.132,2.372,0.395,3.426C6.719,34.783,0,42.424,0,51.515C0,61.66,8.169,69.829,18.314,69.829h63.373 C91.831,69.829,100,61.66,100,51.515C99.868,42.556,93.281,35.046,84.717,33.597z" fill="rgba(255, 255, 255, 0.2970324116368448)" transform="scale(0.6475)" style="transform:matrix(0.6475, 0, 0, 0.6475, 0, 0);animation-play-state:paused" ></path></g>
<g transform="matrix(1,0,0,1,762.017822265625,518.214111328125)" style="transform:matrix(1, 0, 0, 1, 762.018, 518.214);animation-play-state:paused" ><path d="M84.717,33.597c0.791-2.503,1.186-5.138,1.186-7.773C85.903,11.594,74.308,0,60.079,0 c-9.881,0-18.445,5.534-22.793,13.702c-1.581-0.527-3.426-0.791-5.138-0.791c-9.486,0-17.128,7.642-17.128,17.128 c0,1.186,0.132,2.372,0.395,3.426C6.719,34.783,0,42.424,0,51.515C0,61.66,8.169,69.829,18.314,69.829h63.373 C91.831,69.829,100,61.66,100,51.515C99.868,42.556,93.281,35.046,84.717,33.597z" fill="rgba(255, 255, 255, 0.2970324116368448)" transform="scale(0.6475)" style="transform:matrix(0.6475, 0, 0, 0.6475, 0, 0);animation-play-state:paused" ></path></g>
<g transform="matrix(1,0,0,1,70.6297607421875,648.6924438476562)" style="transform:matrix(1, 0, 0, 1, 70.6298, 648.692);animation-play-state:paused" ><path d="M84.717,33.597c0.791-2.503,1.186-5.138,1.186-7.773C85.903,11.594,74.308,0,60.079,0 c-9.881,0-18.445,5.534-22.793,13.702c-1.581-0.527-3.426-0.791-5.138-0.791c-9.486,0-17.128,7.642-17.128,17.128 c0,1.186,0.132,2.372,0.395,3.426C6.719,34.783,0,42.424,0,51.515C0,61.66,8.169,69.829,18.314,69.829h63.373 C91.831,69.829,100,61.66,100,51.515C99.868,42.556,93.281,35.046,84.717,33.597z" fill="rgba(255, 255, 255, 0.2970324116368448)" transform="scale(0.6475)" style="transform:matrix(0.6475, 0, 0, 0.6475, 0, 0);animation-play-state:paused" ></path></g>
<g transform="matrix(1,0,0,1,1299.3323974609375,128.55523681640625)" style="transform:matrix(1, 0, 0, 1, 1299.33, 128.555);animation-play-state:paused" ><path d="M84.717,33.597c0.791-2.503,1.186-5.138,1.186-7.773C85.903,11.594,74.308,0,60.079,0 c-9.881,0-18.445,5.534-22.793,13.702c-1.581-0.527-3.426-0.791-5.138-0.791c-9.486,0-17.128,7.642-17.128,17.128 c0,1.186,0.132,2.372,0.395,3.426C6.719,34.783,0,42.424,0,51.515C0,61.66,8.169,69.829,18.314,69.829h63.373 C91.831,69.829,100,61.66,100,51.515C99.868,42.556,93.281,35.046,84.717,33.597z" fill="rgba(255, 255, 255, 0.2970324116368448)" transform="scale(0.6475)" style="transform:matrix(0.6475, 0, 0, 0.6475, 0, 0);animation-play-state:paused" ></path></g>
<g transform="matrix(1,0,0,1,1459.611328125,594.4038696289062)" style="transform:matrix(1, 0, 0, 1, 1459.61, 594.404);animation-play-state:paused" ><path d="M84.717,33.597c0.791-2.503,1.186-5.138,1.186-7.773C85.903,11.594,74.308,0,60.079,0 c-9.881,0-18.445,5.534-22.793,13.702c-1.581-0.527-3.426-0.791-5.138-0.791c-9.486,0-17.128,7.642-17.128,17.128 c0,1.186,0.132,2.372,0.395,3.426C6.719,34.783,0,42.424,0,51.515C0,61.66,8.169,69.829,18.314,69.829h63.373 C91.831,69.829,100,61.66,100,51.515C99.868,42.556,93.281,35.046,84.717,33.597z" fill="rgba(255, 255, 255, 0.2970324116368448)" transform="scale(0.6475)" style="transform:matrix(0.6475, 0, 0, 0.6475, 0, 0);animation-play-state:paused" ></path></g>
<g transform="matrix(1,0,0,1,1098.6083984375,106.39270782470703)" style="transform:matrix(1, 0, 0, 1, 1098.61, 106.393);animation-play-state:paused" ><path d="M84.717,33.597c0.791-2.503,1.186-5.138,1.186-7.773C85.903,11.594,74.308,0,60.079,0 c-9.881,0-18.445,5.534-22.793,13.702c-1.581-0.527-3.426-0.791-5.138-0.791c-9.486,0-17.128,7.642-17.128,17.128 c0,1.186,0.132,2.372,0.395,3.426C6.719,34.783,0,42.424,0,51.515C0,61.66,8.169,69.829,18.314,69.829h63.373 C91.831,69.829,100,61.66,100,51.515C99.868,42.556,93.281,35.046,84.717,33.597z" fill="rgba(255, 255, 255, 0.28025821808845774)" transform="scale(0.765)" style="transform:matrix(0.765, 0, 0, 0.765, 0, 0);animation-play-state:paused" ></path></g>
<g transform="matrix(1,0,0,1,1179.617919921875,614.903076171875)" style="transform:matrix(1, 0, 0, 1, 1179.62, 614.903);animation-play-state:paused" ><path d="M84.717,33.597c0.791-2.503,1.186-5.138,1.186-7.773C85.903,11.594,74.308,0,60.079,0 c-9.881,0-18.445,5.534-22.793,13.702c-1.581-0.527-3.426-0.791-5.138-0.791c-9.486,0-17.128,7.642-17.128,17.128 c0,1.186,0.132,2.372,0.395,3.426C6.719,34.783,0,42.424,0,51.515C0,61.66,8.169,69.829,18.314,69.829h63.373 C91.831,69.829,100,61.66,100,51.515C99.868,42.556,93.281,35.046,84.717,33.597z" fill="rgba(255, 255, 255, 0.28025821808845774)" transform="scale(0.765)" style="transform:matrix(0.765, 0, 0, 0.765, 0, 0);animation-play-state:paused" ></path></g>
<g transform="matrix(1,0,0,1,946.4578857421875,364.9591064453125)" style="transform:matrix(1, 0, 0, 1, 946.458, 364.959);animation-play-state:paused" ><path d="M84.717,33.597c0.791-2.503,1.186-5.138,1.186-7.773C85.903,11.594,74.308,0,60.079,0 c-9.881,0-18.445,5.534-22.793,13.702c-1.581-0.527-3.426-0.791-5.138-0.791c-9.486,0-17.128,7.642-17.128,17.128 c0,1.186,0.132,2.372,0.395,3.426C6.719,34.783,0,42.424,0,51.515C0,61.66,8.169,69.829,18.314,69.829h63.373 C91.831,69.829,100,61.66,100,51.515C99.868,42.556,93.281,35.046,84.717,33.597z" fill="rgba(255, 255, 255, 0.28025821808845774)" transform="scale(0.765)" style="transform:matrix(0.765, 0, 0, 0.765, 0, 0);animation-play-state:paused" ></path></g>
<g transform="matrix(1,0,0,1,194.38360595703125,382.6106262207031)" style="transform:matrix(1, 0, 0, 1, 194.384, 382.611);animation-play-state:paused" ><path d="M84.717,33.597c0.791-2.503,1.186-5.138,1.186-7.773C85.903,11.594,74.308,0,60.079,0 c-9.881,0-18.445,5.534-22.793,13.702c-1.581-0.527-3.426-0.791-5.138-0.791c-9.486,0-17.128,7.642-17.128,17.128 c0,1.186,0.132,2.372,0.395,3.426C6.719,34.783,0,42.424,0,51.515C0,61.66,8.169,69.829,18.314,69.829h63.373 C91.831,69.829,100,61.66,100,51.515C99.868,42.556,93.281,35.046,84.717,33.597z" fill="rgba(255, 255, 255, 0.28025821808845774)" transform="scale(0.765)" style="transform:matrix(0.765, 0, 0, 0.765, 0, 0);animation-play-state:paused" ></path></g>
<g transform="matrix(1,0,0,1,979.7708740234375,58.263206481933594)" style="transform:matrix(1, 0, 0, 1, 979.771, 58.2632);animation-play-state:paused" ><path d="M84.717,33.597c0.791-2.503,1.186-5.138,1.186-7.773C85.903,11.594,74.308,0,60.079,0 c-9.881,0-18.445,5.534-22.793,13.702c-1.581-0.527-3.426-0.791-5.138-0.791c-9.486,0-17.128,7.642-17.128,17.128 c0,1.186,0.132,2.372,0.395,3.426C6.719,34.783,0,42.424,0,51.515C0,61.66,8.169,69.829,18.314,69.829h63.373 C91.831,69.829,100,61.66,100,51.515C99.868,42.556,93.281,35.046,84.717,33.597z" fill="rgba(255, 255, 255, 0.28025821808845774)" transform="scale(0.765)" style="transform:matrix(0.765, 0, 0, 0.765, 0, 0);animation-play-state:paused" ></path></g>
<g transform="matrix(1,0,0,1,133.13131713867188,337.3426818847656)" style="transform:matrix(1, 0, 0, 1, 133.131, 337.343);animation-play-state:paused" ><path d="M84.717,33.597c0.791-2.503,1.186-5.138,1.186-7.773C85.903,11.594,74.308,0,60.079,0 c-9.881,0-18.445,5.534-22.793,13.702c-1.581-0.527-3.426-0.791-5.138-0.791c-9.486,0-17.128,7.642-17.128,17.128 c0,1.186,0.132,2.372,0.395,3.426C6.719,34.783,0,42.424,0,51.515C0,61.66,8.169,69.829,18.314,69.829h63.373 C91.831,69.829,100,61.66,100,51.515C99.868,42.556,93.281,35.046,84.717,33.597z" fill="rgba(255, 255, 255, 0.28025821808845774)" transform="scale(0.765)" style="transform:matrix(0.765, 0, 0, 0.765, 0, 0);animation-play-state:paused" ></path></g>
<g transform="matrix(1,0,0,1,416.63226318359375,430.87860107421875)" style="transform:matrix(1, 0, 0, 1, 416.632, 430.879);animation-play-state:paused" ><path d="M84.717,33.597c0.791-2.503,1.186-5.138,1.186-7.773C85.903,11.594,74.308,0,60.079,0 c-9.881,0-18.445,5.534-22.793,13.702c-1.581-0.527-3.426-0.791-5.138-0.791c-9.486,0-17.128,7.642-17.128,17.128 c0,1.186,0.132,2.372,0.395,3.426C6.719,34.783,0,42.424,0,51.515C0,61.66,8.169,69.829,18.314,69.829h63.373 C91.831,69.829,100,61.66,100,51.515C99.868,42.556,93.281,35.046,84.717,33.597z" fill="rgba(255, 255, 255, 0.28025821808845774)" transform="scale(0.765)" style="transform:matrix(0.765, 0, 0, 0.765, 0, 0);animation-play-state:paused" ></path></g>
<g transform="matrix(1,0,0,1,466.134033203125,339.1540832519531)" style="transform:matrix(1, 0, 0, 1, 466.134, 339.154);animation-play-state:paused" ><path d="M84.717,33.597c0.791-2.503,1.186-5.138,1.186-7.773C85.903,11.594,74.308,0,60.079,0 c-9.881,0-18.445,5.534-22.793,13.702c-1.581-0.527-3.426-0.791-5.138-0.791c-9.486,0-17.128,7.642-17.128,17.128 c0,1.186,0.132,2.372,0.395,3.426C6.719,34.783,0,42.424,0,51.515C0,61.66,8.169,69.829,18.314,69.829h63.373 C91.831,69.829,100,61.66,100,51.515C99.868,42.556,93.281,35.046,84.717,33.597z" fill="rgba(255, 255, 255, 0.28025821808845774)" transform="scale(0.765)" style="transform:matrix(0.765, 0, 0, 0.765, 0, 0);animation-play-state:paused" ></path></g>
<g transform="matrix(1,0,0,1,100.99736022949219,255.8931884765625)" style="transform:matrix(1, 0, 0, 1, 100.997, 255.893);animation-play-state:paused" ><path d="M84.717,33.597c0.791-2.503,1.186-5.138,1.186-7.773C85.903,11.594,74.308,0,60.079,0 c-9.881,0-18.445,5.534-22.793,13.702c-1.581-0.527-3.426-0.791-5.138-0.791c-9.486,0-17.128,7.642-17.128,17.128 c0,1.186,0.132,2.372,0.395,3.426C6.719,34.783,0,42.424,0,51.515C0,61.66,8.169,69.829,18.314,69.829h63.373 C91.831,69.829,100,61.66,100,51.515C99.868,42.556,93.281,35.046,84.717,33.597z" fill="rgba(255, 255, 255, 0.28025821808845774)" transform="scale(0.765)" style="transform:matrix(0.765, 0, 0, 0.765, 0, 0);animation-play-state:paused" ></path></g>
<g transform="matrix(1,0,0,1,543.1848754882812,102.30615234375)" style="transform:matrix(1, 0, 0, 1, 543.185, 102.306);animation-play-state:paused" ><path d="M84.717,33.597c0.791-2.503,1.186-5.138,1.186-7.773C85.903,11.594,74.308,0,60.079,0 c-9.881,0-18.445,5.534-22.793,13.702c-1.581-0.527-3.426-0.791-5.138-0.791c-9.486,0-17.128,7.642-17.128,17.128 c0,1.186,0.132,2.372,0.395,3.426C6.719,34.783,0,42.424,0,51.515C0,61.66,8.169,69.829,18.314,69.829h63.373 C91.831,69.829,100,61.66,100,51.515C99.868,42.556,93.281,35.046,84.717,33.597z" fill="rgba(255, 255, 255, 0.28025821808845774)" transform="scale(0.765)" style="transform:matrix(0.765, 0, 0, 0.765, 0, 0);animation-play-state:paused" ></path></g>
<g transform="matrix(1,0,0,1,455.92291259765625,211.80979919433594)" style="transform:matrix(1, 0, 0, 1, 455.923, 211.81);animation-play-state:paused" ><path d="M84.717,33.597c0.791-2.503,1.186-5.138,1.186-7.773C85.903,11.594,74.308,0,60.079,0 c-9.881,0-18.445,5.534-22.793,13.702c-1.581-0.527-3.426-0.791-5.138-0.791c-9.486,0-17.128,7.642-17.128,17.128 c0,1.186,0.132,2.372,0.395,3.426C6.719,34.783,0,42.424,0,51.515C0,61.66,8.169,69.829,18.314,69.829h63.373 C91.831,69.829,100,61.66,100,51.515C99.868,42.556,93.281,35.046,84.717,33.597z" fill="rgba(255, 255, 255, 0.28025821808845774)" transform="scale(0.765)" style="transform:matrix(0.765, 0, 0, 0.765, 0, 0);animation-play-state:paused" ></path></g>
<g transform="matrix(1,0,0,1,609.7828979492188,560.3364868164062)" style="transform:matrix(1, 0, 0, 1, 609.783, 560.336);animation-play-state:paused" ><path d="M84.717,33.597c0.791-2.503,1.186-5.138,1.186-7.773C85.903,11.594,74.308,0,60.079,0 c-9.881,0-18.445,5.534-22.793,13.702c-1.581-0.527-3.426-0.791-5.138-0.791c-9.486,0-17.128,7.642-17.128,17.128 c0,1.186,0.132,2.372,0.395,3.426C6.719,34.783,0,42.424,0,51.515C0,61.66,8.169,69.829,18.314,69.829h63.373 C91.831,69.829,100,61.66,100,51.515C99.868,42.556,93.281,35.046,84.717,33.597z" fill="rgba(255, 255, 255, 0.28025821808845774)" transform="scale(0.765)" style="transform:matrix(0.765, 0, 0, 0.765, 0, 0);animation-play-state:paused" ></path></g>
<g transform="matrix(1,0,0,1,483.53424072265625,168.93002319335938)" style="transform:matrix(1, 0, 0, 1, 483.534, 168.93);animation-play-state:paused" ><path d="M84.717,33.597c0.791-2.503,1.186-5.138,1.186-7.773C85.903,11.594,74.308,0,60.079,0 c-9.881,0-18.445,5.534-22.793,13.702c-1.581-0.527-3.426-0.791-5.138-0.791c-9.486,0-17.128,7.642-17.128,17.128 c0,1.186,0.132,2.372,0.395,3.426C6.719,34.783,0,42.424,0,51.515C0,61.66,8.169,69.829,18.314,69.829h63.373 C91.831,69.829,100,61.66,100,51.515C99.868,42.556,93.281,35.046,84.717,33.597z" fill="rgba(255, 255, 255, 0.30541950841103827)" transform="scale(0.8825)" style="transform:matrix(0.8825, 0, 0, 0.8825, 0, 0);animation-play-state:paused" ></path></g>
<g transform="matrix(1,0,0,1,-46.609718322753906,214.77700805664062)" style="transform:matrix(1, 0, 0, 1, -46.6097, 214.777);animation-play-state:paused" ><path d="M84.717,33.597c0.791-2.503,1.186-5.138,1.186-7.773C85.903,11.594,74.308,0,60.079,0 c-9.881,0-18.445,5.534-22.793,13.702c-1.581-0.527-3.426-0.791-5.138-0.791c-9.486,0-17.128,7.642-17.128,17.128 c0,1.186,0.132,2.372,0.395,3.426C6.719,34.783,0,42.424,0,51.515C0,61.66,8.169,69.829,18.314,69.829h63.373 C91.831,69.829,100,61.66,100,51.515C99.868,42.556,93.281,35.046,84.717,33.597z" fill="rgba(255, 255, 255, 0.30541950841103827)" transform="scale(0.8825)" style="transform:matrix(0.8825, 0, 0, 0.8825, 0, 0);animation-play-state:paused" ></path></g>
<g transform="matrix(1,0,0,1,731.499755859375,467.12139892578125)" style="transform:matrix(1, 0, 0, 1, 731.5, 467.121);animation-play-state:paused" ><path d="M84.717,33.597c0.791-2.503,1.186-5.138,1.186-7.773C85.903,11.594,74.308,0,60.079,0 c-9.881,0-18.445,5.534-22.793,13.702c-1.581-0.527-3.426-0.791-5.138-0.791c-9.486,0-17.128,7.642-17.128,17.128 c0,1.186,0.132,2.372,0.395,3.426C6.719,34.783,0,42.424,0,51.515C0,61.66,8.169,69.829,18.314,69.829h63.373 C91.831,69.829,100,61.66,100,51.515C99.868,42.556,93.281,35.046,84.717,33.597z" fill="rgba(255, 255, 255, 0.30541950841103827)" transform="scale(0.8825)" style="transform:matrix(0.8825, 0, 0, 0.8825, 0, 0);animation-play-state:paused" ></path></g>
<g transform="matrix(1,0,0,1,603.252197265625,355.39990234375)" style="transform:matrix(1, 0, 0, 1, 603.252, 355.4);animation-play-state:paused" ><path d="M84.717,33.597c0.791-2.503,1.186-5.138,1.186-7.773C85.903,11.594,74.308,0,60.079,0 c-9.881,0-18.445,5.534-22.793,13.702c-1.581-0.527-3.426-0.791-5.138-0.791c-9.486,0-17.128,7.642-17.128,17.128 c0,1.186,0.132,2.372,0.395,3.426C6.719,34.783,0,42.424,0,51.515C0,61.66,8.169,69.829,18.314,69.829h63.373 C91.831,69.829,100,61.66,100,51.515C99.868,42.556,93.281,35.046,84.717,33.597z" fill="rgba(255, 255, 255, 0.30541950841103827)" transform="scale(0.8825)" style="transform:matrix(0.8825, 0, 0, 0.8825, 0, 0);animation-play-state:paused" ></path></g>
<g transform="matrix(1,0,0,1,263.1923828125,487.5753173828125)" style="transform:matrix(1, 0, 0, 1, 263.192, 487.575);animation-play-state:paused" ><path d="M84.717,33.597c0.791-2.503,1.186-5.138,1.186-7.773C85.903,11.594,74.308,0,60.079,0 c-9.881,0-18.445,5.534-22.793,13.702c-1.581-0.527-3.426-0.791-5.138-0.791c-9.486,0-17.128,7.642-17.128,17.128 c0,1.186,0.132,2.372,0.395,3.426C6.719,34.783,0,42.424,0,51.515C0,61.66,8.169,69.829,18.314,69.829h63.373 C91.831,69.829,100,61.66,100,51.515C99.868,42.556,93.281,35.046,84.717,33.597z" fill="rgba(255, 255, 255, 0.30541950841103827)" transform="scale(0.8825)" style="transform:matrix(0.8825, 0, 0, 0.8825, 0, 0);animation-play-state:paused" ></path></g>
<g transform="matrix(1,0,0,1,469.887939453125,521.6491088867188)" style="transform:matrix(1, 0, 0, 1, 469.888, 521.649);animation-play-state:paused" ><path d="M84.717,33.597c0.791-2.503,1.186-5.138,1.186-7.773C85.903,11.594,74.308,0,60.079,0 c-9.881,0-18.445,5.534-22.793,13.702c-1.581-0.527-3.426-0.791-5.138-0.791c-9.486,0-17.128,7.642-17.128,17.128 c0,1.186,0.132,2.372,0.395,3.426C6.719,34.783,0,42.424,0,51.515C0,61.66,8.169,69.829,18.314,69.829h63.373 C91.831,69.829,100,61.66,100,51.515C99.868,42.556,93.281,35.046,84.717,33.597z" fill="rgba(255, 255, 255, 0.30541950841103827)" transform="scale(0.8825)" style="transform:matrix(0.8825, 0, 0, 0.8825, 0, 0);animation-play-state:paused" ></path></g>
<g transform="matrix(1,0,0,1,1241.177978515625,357.70343017578125)" style="transform:matrix(1, 0, 0, 1, 1241.18, 357.703);animation-play-state:paused" ><path d="M84.717,33.597c0.791-2.503,1.186-5.138,1.186-7.773C85.903,11.594,74.308,0,60.079,0 c-9.881,0-18.445,5.534-22.793,13.702c-1.581-0.527-3.426-0.791-5.138-0.791c-9.486,0-17.128,7.642-17.128,17.128 c0,1.186,0.132,2.372,0.395,3.426C6.719,34.783,0,42.424,0,51.515C0,61.66,8.169,69.829,18.314,69.829h63.373 C91.831,69.829,100,61.66,100,51.515C99.868,42.556,93.281,35.046,84.717,33.597z" fill="rgba(255, 255, 255, 0.30541950841103827)" transform="scale(0.8825)" style="transform:matrix(0.8825, 0, 0, 0.8825, 0, 0);animation-play-state:paused" ></path></g>
<g transform="matrix(1,0,0,1,242.0203857421875,227.84898376464844)" style="transform:matrix(1, 0, 0, 1, 242.02, 227.849);animation-play-state:paused" ><path d="M84.717,33.597c0.791-2.503,1.186-5.138,1.186-7.773C85.903,11.594,74.308,0,60.079,0 c-9.881,0-18.445,5.534-22.793,13.702c-1.581-0.527-3.426-0.791-5.138-0.791c-9.486,0-17.128,7.642-17.128,17.128 c0,1.186,0.132,2.372,0.395,3.426C6.719,34.783,0,42.424,0,51.515C0,61.66,8.169,69.829,18.314,69.829h63.373 C91.831,69.829,100,61.66,100,51.515C99.868,42.556,93.281,35.046,84.717,33.597z" fill="rgba(255, 255, 255, 0.30541950841103827)" transform="scale(0.8825)" style="transform:matrix(0.8825, 0, 0, 0.8825, 0, 0);animation-play-state:paused" ></path></g>
<g transform="matrix(1,0,0,1,1298.212158203125,202.77427673339844)" style="transform:matrix(1, 0, 0, 1, 1298.21, 202.774);animation-play-state:paused" ><path d="M84.717,33.597c0.791-2.503,1.186-5.138,1.186-7.773C85.903,11.594,74.308,0,60.079,0 c-9.881,0-18.445,5.534-22.793,13.702c-1.581-0.527-3.426-0.791-5.138-0.791c-9.486,0-17.128,7.642-17.128,17.128 c0,1.186,0.132,2.372,0.395,3.426C6.719,34.783,0,42.424,0,51.515C0,61.66,8.169,69.829,18.314,69.829h63.373 C91.831,69.829,100,61.66,100,51.515C99.868,42.556,93.281,35.046,84.717,33.597z" fill="rgba(255, 255, 255, 0.30541950841103827)" transform="scale(0.8825)" style="transform:matrix(0.8825, 0, 0, 0.8825, 0, 0);animation-play-state:paused" ></path></g>
<g transform="matrix(1,0,0,1,-75.40228271484375,357.99407958984375)" style="transform:matrix(1, 0, 0, 1, -75.4023, 357.994);animation-play-state:paused" ><path d="M84.717,33.597c0.791-2.503,1.186-5.138,1.186-7.773C85.903,11.594,74.308,0,60.079,0 c-9.881,0-18.445,5.534-22.793,13.702c-1.581-0.527-3.426-0.791-5.138-0.791c-9.486,0-17.128,7.642-17.128,17.128 c0,1.186,0.132,2.372,0.395,3.426C6.719,34.783,0,42.424,0,51.515C0,61.66,8.169,69.829,18.314,69.829h63.373 C91.831,69.829,100,61.66,100,51.515C99.868,42.556,93.281,35.046,84.717,33.597z" fill="rgba(255, 255, 255, 0.30541950841103827)" transform="scale(0.8825)" style="transform:matrix(0.8825, 0, 0, 0.8825, 0, 0);animation-play-state:paused" ></path></g>
<g transform="matrix(1,0,0,1,1110.201171875,312.49853515625)" style="transform:matrix(1, 0, 0, 1, 1110.2, 312.499);animation-play-state:paused" ><path d="M84.717,33.597c0.791-2.503,1.186-5.138,1.186-7.773C85.903,11.594,74.308,0,60.079,0 c-9.881,0-18.445,5.534-22.793,13.702c-1.581-0.527-3.426-0.791-5.138-0.791c-9.486,0-17.128,7.642-17.128,17.128 c0,1.186,0.132,2.372,0.395,3.426C6.719,34.783,0,42.424,0,51.515C0,61.66,8.169,69.829,18.314,69.829h63.373 C91.831,69.829,100,61.66,100,51.515C99.868,42.556,93.281,35.046,84.717,33.597z" fill="rgba(255, 255, 255, 0.30541950841103827)" transform="scale(0.8825)" style="transform:matrix(0.8825, 0, 0, 0.8825, 0, 0);animation-play-state:paused" ></path></g>
<g transform="matrix(1,0,0,1,723.304931640625,392.30657958984375)" style="transform:matrix(1, 0, 0, 1, 723.305, 392.307);animation-play-state:paused" ><path d="M84.717,33.597c0.791-2.503,1.186-5.138,1.186-7.773C85.903,11.594,74.308,0,60.079,0 c-9.881,0-18.445,5.534-22.793,13.702c-1.581-0.527-3.426-0.791-5.138-0.791c-9.486,0-17.128,7.642-17.128,17.128 c0,1.186,0.132,2.372,0.395,3.426C6.719,34.783,0,42.424,0,51.515C0,61.66,8.169,69.829,18.314,69.829h63.373 C91.831,69.829,100,61.66,100,51.515C99.868,42.556,93.281,35.046,84.717,33.597z" fill="rgba(255, 255, 255, 0.30541950841103827)" transform="scale(0.8825)" style="transform:matrix(0.8825, 0, 0, 0.8825, 0, 0);animation-play-state:paused" ></path></g>
<g transform="matrix(1,0,0,1,793.2344360351562,350.2266540527344)" style="transform:matrix(1, 0, 0, 1, 793.234, 350.227);animation-play-state:paused" ><path d="M84.717,33.597c0.791-2.503,1.186-5.138,1.186-7.773C85.903,11.594,74.308,0,60.079,0 c-9.881,0-18.445,5.534-22.793,13.702c-1.581-0.527-3.426-0.791-5.138-0.791c-9.486,0-17.128,7.642-17.128,17.128 c0,1.186,0.132,2.372,0.395,3.426C6.719,34.783,0,42.424,0,51.515C0,61.66,8.169,69.829,18.314,69.829h63.373 C91.831,69.829,100,61.66,100,51.515C99.868,42.556,93.281,35.046,84.717,33.597z" fill="rgba(255, 255, 255, 0.46477434712071575)" transform="scale(1)" style="transform:matrix(1, 0, 0, 1, 0, 0);animation-play-state:paused" ></path></g>
<g transform="matrix(1,0,0,1,550.8169555664062,167.54383850097656)" style="transform:matrix(1, 0, 0, 1, 550.817, 167.544);animation-play-state:paused" ><path d="M84.717,33.597c0.791-2.503,1.186-5.138,1.186-7.773C85.903,11.594,74.308,0,60.079,0 c-9.881,0-18.445,5.534-22.793,13.702c-1.581-0.527-3.426-0.791-5.138-0.791c-9.486,0-17.128,7.642-17.128,17.128 c0,1.186,0.132,2.372,0.395,3.426C6.719,34.783,0,42.424,0,51.515C0,61.66,8.169,69.829,18.314,69.829h63.373 C91.831,69.829,100,61.66,100,51.515C99.868,42.556,93.281,35.046,84.717,33.597z" fill="rgba(255, 255, 255, 0.46477434712071575)" transform="scale(1)" style="transform:matrix(1, 0, 0, 1, 0, 0);animation-play-state:paused" ></path></g>
<g transform="matrix(1,0,0,1,852.6826171875,244.7342529296875)" style="transform:matrix(1, 0, 0, 1, 852.683, 244.734);animation-play-state:paused" ><path d="M84.717,33.597c0.791-2.503,1.186-5.138,1.186-7.773C85.903,11.594,74.308,0,60.079,0 c-9.881,0-18.445,5.534-22.793,13.702c-1.581-0.527-3.426-0.791-5.138-0.791c-9.486,0-17.128,7.642-17.128,17.128 c0,1.186,0.132,2.372,0.395,3.426C6.719,34.783,0,42.424,0,51.515C0,61.66,8.169,69.829,18.314,69.829h63.373 C91.831,69.829,100,61.66,100,51.515C99.868,42.556,93.281,35.046,84.717,33.597z" fill="rgba(255, 255, 255, 0.46477434712071575)" transform="scale(1)" style="transform:matrix(1, 0, 0, 1, 0, 0);animation-play-state:paused" ></path></g>
<g transform="matrix(1,0,0,1,174.92092895507812,415.026123046875)" style="transform:matrix(1, 0, 0, 1, 174.921, 415.026);animation-play-state:paused" ><path d="M84.717,33.597c0.791-2.503,1.186-5.138,1.186-7.773C85.903,11.594,74.308,0,60.079,0 c-9.881,0-18.445,5.534-22.793,13.702c-1.581-0.527-3.426-0.791-5.138-0.791c-9.486,0-17.128,7.642-17.128,17.128 c0,1.186,0.132,2.372,0.395,3.426C6.719,34.783,0,42.424,0,51.515C0,61.66,8.169,69.829,18.314,69.829h63.373 C91.831,69.829,100,61.66,100,51.515C99.868,42.556,93.281,35.046,84.717,33.597z" fill="rgba(255, 255, 255, 0.46477434712071575)" transform="scale(1)" style="transform:matrix(1, 0, 0, 1, 0, 0);animation-play-state:paused" ></path></g>
<g transform="matrix(1,0,0,1,733.4293212890625,290.0771484375)" style="transform:matrix(1, 0, 0, 1, 733.429, 290.077);animation-play-state:paused" ><path d="M84.717,33.597c0.791-2.503,1.186-5.138,1.186-7.773C85.903,11.594,74.308,0,60.079,0 c-9.881,0-18.445,5.534-22.793,13.702c-1.581-0.527-3.426-0.791-5.138-0.791c-9.486,0-17.128,7.642-17.128,17.128 c0,1.186,0.132,2.372,0.395,3.426C6.719,34.783,0,42.424,0,51.515C0,61.66,8.169,69.829,18.314,69.829h63.373 C91.831,69.829,100,61.66,100,51.515C99.868,42.556,93.281,35.046,84.717,33.597z" fill="rgba(255, 255, 255, 0.46477434712071575)" transform="scale(1)" style="transform:matrix(1, 0, 0, 1, 0, 0);animation-play-state:paused" ></path></g>
<g transform="matrix(1,0,0,1,1411.141845703125,171.1269989013672)" style="transform:matrix(1, 0, 0, 1, 1411.14, 171.127);animation-play-state:paused" ><path d="M84.717,33.597c0.791-2.503,1.186-5.138,1.186-7.773C85.903,11.594,74.308,0,60.079,0 c-9.881,0-18.445,5.534-22.793,13.702c-1.581-0.527-3.426-0.791-5.138-0.791c-9.486,0-17.128,7.642-17.128,17.128 c0,1.186,0.132,2.372,0.395,3.426C6.719,34.783,0,42.424,0,51.515C0,61.66,8.169,69.829,18.314,69.829h63.373 C91.831,69.829,100,61.66,100,51.515C99.868,42.556,93.281,35.046,84.717,33.597z" fill="rgba(255, 255, 255, 0.46477434712071575)" transform="scale(1)" style="transform:matrix(1, 0, 0, 1, 0, 0);animation-play-state:paused" ></path></g>
<g transform="matrix(1,0,0,1,207.56546020507812,99.7715072631836)" style="transform:matrix(1, 0, 0, 1, 207.565, 99.7715);animation-play-state:paused" ><path d="M84.717,33.597c0.791-2.503,1.186-5.138,1.186-7.773C85.903,11.594,74.308,0,60.079,0 c-9.881,0-18.445,5.534-22.793,13.702c-1.581-0.527-3.426-0.791-5.138-0.791c-9.486,0-17.128,7.642-17.128,17.128 c0,1.186,0.132,2.372,0.395,3.426C6.719,34.783,0,42.424,0,51.515C0,61.66,8.169,69.829,18.314,69.829h63.373 C91.831,69.829,100,61.66,100,51.515C99.868,42.556,93.281,35.046,84.717,33.597z" fill="rgba(255, 255, 255, 0.46477434712071575)" transform="scale(1)" style="transform:matrix(1, 0, 0, 1, 0, 0);animation-play-state:paused" ></path></g>
<g transform="matrix(1,0,0,1,1236.780517578125,583.1655883789062)" style="transform:matrix(1, 0, 0, 1, 1236.78, 583.166);animation-play-state:paused" ><path d="M84.717,33.597c0.791-2.503,1.186-5.138,1.186-7.773C85.903,11.594,74.308,0,60.079,0 c-9.881,0-18.445,5.534-22.793,13.702c-1.581-0.527-3.426-0.791-5.138-0.791c-9.486,0-17.128,7.642-17.128,17.128 c0,1.186,0.132,2.372,0.395,3.426C6.719,34.783,0,42.424,0,51.515C0,61.66,8.169,69.829,18.314,69.829h63.373 C91.831,69.829,100,61.66,100,51.515C99.868,42.556,93.281,35.046,84.717,33.597z" fill="rgba(255, 255, 255, 0.46477434712071575)" transform="scale(1)" style="transform:matrix(1, 0, 0, 1, 0, 0);animation-play-state:paused" ></path></g>
<g transform="matrix(1,0,0,1,127.23600769042969,189.94285583496094)" style="transform:matrix(1, 0, 0, 1, 127.236, 189.943);animation-play-state:paused" ><path d="M84.717,33.597c0.791-2.503,1.186-5.138,1.186-7.773C85.903,11.594,74.308,0,60.079,0 c-9.881,0-18.445,5.534-22.793,13.702c-1.581-0.527-3.426-0.791-5.138-0.791c-9.486,0-17.128,7.642-17.128,17.128 c0,1.186,0.132,2.372,0.395,3.426C6.719,34.783,0,42.424,0,51.515C0,61.66,8.169,69.829,18.314,69.829h63.373 C91.831,69.829,100,61.66,100,51.515C99.868,42.556,93.281,35.046,84.717,33.597z" fill="rgba(255, 255, 255, 0.46477434712071575)" transform="scale(1)" style="transform:matrix(1, 0, 0, 1, 0, 0);animation-play-state:paused" ></path></g>
<g transform="matrix(1,0,0,1,1076.70556640625,345.9024658203125)" style="transform:matrix(1, 0, 0, 1, 1076.71, 345.902);animation-play-state:paused" ><path d="M84.717,33.597c0.791-2.503,1.186-5.138,1.186-7.773C85.903,11.594,74.308,0,60.079,0 c-9.881,0-18.445,5.534-22.793,13.702c-1.581-0.527-3.426-0.791-5.138-0.791c-9.486,0-17.128,7.642-17.128,17.128 c0,1.186,0.132,2.372,0.395,3.426C6.719,34.783,0,42.424,0,51.515C0,61.66,8.169,69.829,18.314,69.829h63.373 C91.831,69.829,100,61.66,100,51.515C99.868,42.556,93.281,35.046,84.717,33.597z" fill="rgba(255, 255, 255, 0.46477434712071575)" transform="scale(1)" style="transform:matrix(1, 0, 0, 1, 0, 0);animation-play-state:paused" ></path></g>
<g transform="matrix(1,0,0,1,147.63790893554688,579.9916381835938)" style="transform:matrix(1, 0, 0, 1, 147.638, 579.992);animation-play-state:paused" ><path d="M84.717,33.597c0.791-2.503,1.186-5.138,1.186-7.773C85.903,11.594,74.308,0,60.079,0 c-9.881,0-18.445,5.534-22.793,13.702c-1.581-0.527-3.426-0.791-5.138-0.791c-9.486,0-17.128,7.642-17.128,17.128 c0,1.186,0.132,2.372,0.395,3.426C6.719,34.783,0,42.424,0,51.515C0,61.66,8.169,69.829,18.314,69.829h63.373 C91.831,69.829,100,61.66,100,51.515C99.868,42.556,93.281,35.046,84.717,33.597z" fill="rgba(255, 255, 255, 0.46477434712071575)" transform="scale(1)" style="transform:matrix(1, 0, 0, 1, 0, 0);animation-play-state:paused" ></path></g>
<g transform="matrix(1,0,0,1,1032.224853515625,396.7102966308594)" style="transform:matrix(1, 0, 0, 1, 1032.22, 396.71);animation-play-state:paused" ><path d="M84.717,33.597c0.791-2.503,1.186-5.138,1.186-7.773C85.903,11.594,74.308,0,60.079,0 c-9.881,0-18.445,5.534-22.793,13.702c-1.581-0.527-3.426-0.791-5.138-0.791c-9.486,0-17.128,7.642-17.128,17.128 c0,1.186,0.132,2.372,0.395,3.426C6.719,34.783,0,42.424,0,51.515C0,61.66,8.169,69.829,18.314,69.829h63.373 C91.831,69.829,100,61.66,100,51.515C99.868,42.556,93.281,35.046,84.717,33.597z" fill="rgba(255, 255, 255, 0.46477434712071575)" transform="scale(1)" style="transform:matrix(1, 0, 0, 1, 0, 0);animation-play-state:paused" ></path></g></g></svg>