<?xml version="1.0" encoding="utf-8"?>
<svg xmlns="http://www.w3.org/2000/svg" xmlns:xlink="http://www.w3.org/1999/xlink" style="margin: auto; background: rgba(122, 206, 255, 0); display: block; z-index: 1; position: relative; shape-rendering: auto;" width="1916" height="1244" preserveAspectRatio="xMidYMid" viewBox="0 0 1916 1244">
<g transform="translate(958,622) scale(1,1) translate(-958,-622)"><g transform="translate(-100 187.93244409045948) rotate(0)">
  <animateTransform attributeName="transform" type="translate" keyTimes="0;1" values="-100 187.93244409045948;1916 187.93244409045948" dur="250s" repeatCount="indefinite" begin="-214.94520101387266s"></animateTransform>
  <path d="M84.717,33.597c0.791-2.503,1.186-5.138,1.186-7.773C85.903,11.594,74.308,0,60.079,0 c-9.881,0-18.445,5.534-22.793,13.702c-1.581-0.527-3.426-0.791-5.138-0.791c-9.486,0-17.128,7.642-17.128,17.128 c0,1.186,0.132,2.372,0.395,3.426C6.719,34.783,0,42.424,0,51.515C0,61.66,8.169,69.829,18.314,69.829h63.373 C91.831,69.829,100,61.66,100,51.515C99.868,42.556,93.281,35.046,84.717,33.597z" fill="rgba(234, 211, 184, 0.6694194572202621)" transform="scale(0.55)"></path>
</g><g transform="translate(-100 449.03847195005795) rotate(0)">
  <animateTransform attributeName="transform" type="translate" keyTimes="0;1" values="-100 449.03847195005795;1916 449.03847195005795" dur="250s" repeatCount="indefinite" begin="-188.7262506836837s"></animateTransform>
  <path d="M84.717,33.597c0.791-2.503,1.186-5.138,1.186-7.773C85.903,11.594,74.308,0,60.079,0 c-9.881,0-18.445,5.534-22.793,13.702c-1.581-0.527-3.426-0.791-5.138-0.791c-9.486,0-17.128,7.642-17.128,17.128 c0,1.186,0.132,2.372,0.395,3.426C6.719,34.783,0,42.424,0,51.515C0,61.66,8.169,69.829,18.314,69.829h63.373 C91.831,69.829,100,61.66,100,51.515C99.868,42.556,93.281,35.046,84.717,33.597z" fill="rgba(234, 211, 184, 0.6694194572202621)" transform="scale(0.55)"></path>
</g><g transform="translate(-100 933.6990400530302) rotate(0)">
  <animateTransform attributeName="transform" type="translate" keyTimes="0;1" values="-100 933.6990400530302;1916 933.6990400530302" dur="250s" repeatCount="indefinite" begin="-145.54151859358066s"></animateTransform>
  <path d="M84.717,33.597c0.791-2.503,1.186-5.138,1.186-7.773C85.903,11.594,74.308,0,60.079,0 c-9.881,0-18.445,5.534-22.793,13.702c-1.581-0.527-3.426-0.791-5.138-0.791c-9.486,0-17.128,7.642-17.128,17.128 c0,1.186,0.132,2.372,0.395,3.426C6.719,34.783,0,42.424,0,51.515C0,61.66,8.169,69.829,18.314,69.829h63.373 C91.831,69.829,100,61.66,100,51.515C99.868,42.556,93.281,35.046,84.717,33.597z" fill="rgba(234, 211, 184, 0.6694194572202621)" transform="scale(0.55)"></path>
</g><g transform="translate(-100 427.98859285985947) rotate(0)">
  <animateTransform attributeName="transform" type="translate" keyTimes="0;1" values="-100 427.98859285985947;1916 427.98859285985947" dur="250s" repeatCount="indefinite" begin="-109.9471198413674s"></animateTransform>
  <path d="M84.717,33.597c0.791-2.503,1.186-5.138,1.186-7.773C85.903,11.594,74.308,0,60.079,0 c-9.881,0-18.445,5.534-22.793,13.702c-1.581-0.527-3.426-0.791-5.138-0.791c-9.486,0-17.128,7.642-17.128,17.128 c0,1.186,0.132,2.372,0.395,3.426C6.719,34.783,0,42.424,0,51.515C0,61.66,8.169,69.829,18.314,69.829h63.373 C91.831,69.829,100,61.66,100,51.515C99.868,42.556,93.281,35.046,84.717,33.597z" fill="rgba(234, 211, 184, 0.6694194572202621)" transform="scale(0.55)"></path>
</g><g transform="translate(-100 1058.9627635935922) rotate(0)">
  <animateTransform attributeName="transform" type="translate" keyTimes="0;1" values="-100 1058.9627635935922;1916 1058.9627635935922" dur="250s" repeatCount="indefinite" begin="-216.15835124367987s"></animateTransform>
  <path d="M84.717,33.597c0.791-2.503,1.186-5.138,1.186-7.773C85.903,11.594,74.308,0,60.079,0 c-9.881,0-18.445,5.534-22.793,13.702c-1.581-0.527-3.426-0.791-5.138-0.791c-9.486,0-17.128,7.642-17.128,17.128 c0,1.186,0.132,2.372,0.395,3.426C6.719,34.783,0,42.424,0,51.515C0,61.66,8.169,69.829,18.314,69.829h63.373 C91.831,69.829,100,61.66,100,51.515C99.868,42.556,93.281,35.046,84.717,33.597z" fill="rgba(234, 211, 184, 0.6694194572202621)" transform="scale(0.55)"></path>
</g><g transform="translate(-100 524.1424206054093) rotate(0)">
  <animateTransform attributeName="transform" type="translate" keyTimes="0;1" values="-100 524.1424206054093;1916 524.1424206054093" dur="250s" repeatCount="indefinite" begin="-247.32698357458426s"></animateTransform>
  <path d="M84.717,33.597c0.791-2.503,1.186-5.138,1.186-7.773C85.903,11.594,74.308,0,60.079,0 c-9.881,0-18.445,5.534-22.793,13.702c-1.581-0.527-3.426-0.791-5.138-0.791c-9.486,0-17.128,7.642-17.128,17.128 c0,1.186,0.132,2.372,0.395,3.426C6.719,34.783,0,42.424,0,51.515C0,61.66,8.169,69.829,18.314,69.829h63.373 C91.831,69.829,100,61.66,100,51.515C99.868,42.556,93.281,35.046,84.717,33.597z" fill="rgba(234, 211, 184, 0.6694194572202621)" transform="scale(0.55)"></path>
</g><g transform="translate(-100 316.8882578277218) rotate(0)">
  <animateTransform attributeName="transform" type="translate" keyTimes="0;1" values="-100 316.8882578277218;1916 316.8882578277218" dur="250s" repeatCount="indefinite" begin="-188.75206017595391s"></animateTransform>
  <path d="M84.717,33.597c0.791-2.503,1.186-5.138,1.186-7.773C85.903,11.594,74.308,0,60.079,0 c-9.881,0-18.445,5.534-22.793,13.702c-1.581-0.527-3.426-0.791-5.138-0.791c-9.486,0-17.128,7.642-17.128,17.128 c0,1.186,0.132,2.372,0.395,3.426C6.719,34.783,0,42.424,0,51.515C0,61.66,8.169,69.829,18.314,69.829h63.373 C91.831,69.829,100,61.66,100,51.515C99.868,42.556,93.281,35.046,84.717,33.597z" fill="rgba(234, 211, 184, 0.6694194572202621)" transform="scale(0.55)"></path>
</g><g transform="translate(-100 513.6083544385621) rotate(0)">
  <animateTransform attributeName="transform" type="translate" keyTimes="0;1" values="-100 513.6083544385621;1916 513.6083544385621" dur="250s" repeatCount="indefinite" begin="-180.3497351732376s"></animateTransform>
  <path d="M84.717,33.597c0.791-2.503,1.186-5.138,1.186-7.773C85.903,11.594,74.308,0,60.079,0 c-9.881,0-18.445,5.534-22.793,13.702c-1.581-0.527-3.426-0.791-5.138-0.791c-9.486,0-17.128,7.642-17.128,17.128 c0,1.186,0.132,2.372,0.395,3.426C6.719,34.783,0,42.424,0,51.515C0,61.66,8.169,69.829,18.314,69.829h63.373 C91.831,69.829,100,61.66,100,51.515C99.868,42.556,93.281,35.046,84.717,33.597z" fill="rgba(234, 211, 184, 0.6694194572202621)" transform="scale(0.55)"></path>
</g><g transform="translate(-100 332.235031618043) rotate(0)">
  <animateTransform attributeName="transform" type="translate" keyTimes="0;1" values="-100 332.235031618043;1916 332.235031618043" dur="250s" repeatCount="indefinite" begin="-115.48542508442222s"></animateTransform>
  <path d="M84.717,33.597c0.791-2.503,1.186-5.138,1.186-7.773C85.903,11.594,74.308,0,60.079,0 c-9.881,0-18.445,5.534-22.793,13.702c-1.581-0.527-3.426-0.791-5.138-0.791c-9.486,0-17.128,7.642-17.128,17.128 c0,1.186,0.132,2.372,0.395,3.426C6.719,34.783,0,42.424,0,51.515C0,61.66,8.169,69.829,18.314,69.829h63.373 C91.831,69.829,100,61.66,100,51.515C99.868,42.556,93.281,35.046,84.717,33.597z" fill="rgba(234, 211, 184, 0.6694194572202621)" transform="scale(0.55)"></path>
</g><g transform="translate(-100 257.42817438168686) rotate(0)">
  <animateTransform attributeName="transform" type="translate" keyTimes="0;1" values="-100 257.42817438168686;1916 257.42817438168686" dur="250s" repeatCount="indefinite" begin="-49.83156150845447s"></animateTransform>
  <path d="M84.717,33.597c0.791-2.503,1.186-5.138,1.186-7.773C85.903,11.594,74.308,0,60.079,0 c-9.881,0-18.445,5.534-22.793,13.702c-1.581-0.527-3.426-0.791-5.138-0.791c-9.486,0-17.128,7.642-17.128,17.128 c0,1.186,0.132,2.372,0.395,3.426C6.719,34.783,0,42.424,0,51.515C0,61.66,8.169,69.829,18.314,69.829h63.373 C91.831,69.829,100,61.66,100,51.515C99.868,42.556,93.281,35.046,84.717,33.597z" fill="rgba(234, 211, 184, 0.6694194572202621)" transform="scale(0.55)"></path>
</g><g transform="translate(-100 149.36327595570756) rotate(0)">
  <animateTransform attributeName="transform" type="translate" keyTimes="0;1" values="-100 149.36327595570756;1916 149.36327595570756" dur="250s" repeatCount="indefinite" begin="-67.44888186769715s"></animateTransform>
  <path d="M84.717,33.597c0.791-2.503,1.186-5.138,1.186-7.773C85.903,11.594,74.308,0,60.079,0 c-9.881,0-18.445,5.534-22.793,13.702c-1.581-0.527-3.426-0.791-5.138-0.791c-9.486,0-17.128,7.642-17.128,17.128 c0,1.186,0.132,2.372,0.395,3.426C6.719,34.783,0,42.424,0,51.515C0,61.66,8.169,69.829,18.314,69.829h63.373 C91.831,69.829,100,61.66,100,51.515C99.868,42.556,93.281,35.046,84.717,33.597z" fill="rgba(234, 211, 184, 0.6694194572202621)" transform="scale(0.55)"></path>
</g><g transform="translate(-100 263.0595697408973) rotate(0)">
  <animateTransform attributeName="transform" type="translate" keyTimes="0;1" values="-100 263.0595697408973;1916 263.0595697408973" dur="250s" repeatCount="indefinite" begin="-135.98557000701834s"></animateTransform>
  <path d="M84.717,33.597c0.791-2.503,1.186-5.138,1.186-7.773C85.903,11.594,74.308,0,60.079,0 c-9.881,0-18.445,5.534-22.793,13.702c-1.581-0.527-3.426-0.791-5.138-0.791c-9.486,0-17.128,7.642-17.128,17.128 c0,1.186,0.132,2.372,0.395,3.426C6.719,34.783,0,42.424,0,51.515C0,61.66,8.169,69.829,18.314,69.829h63.373 C91.831,69.829,100,61.66,100,51.515C99.868,42.556,93.281,35.046,84.717,33.597z" fill="rgba(234, 211, 184, 0.6694194572202621)" transform="scale(0.55)"></path>
</g><g transform="translate(-100 972.1761525152729) rotate(0)">
  <animateTransform attributeName="transform" type="translate" keyTimes="0;1" values="-100 972.1761525152729;1916 972.1761525152729" dur="250s" repeatCount="indefinite" begin="-11.85665511911671s"></animateTransform>
  <path d="M84.717,33.597c0.791-2.503,1.186-5.138,1.186-7.773C85.903,11.594,74.308,0,60.079,0 c-9.881,0-18.445,5.534-22.793,13.702c-1.581-0.527-3.426-0.791-5.138-0.791c-9.486,0-17.128,7.642-17.128,17.128 c0,1.186,0.132,2.372,0.395,3.426C6.719,34.783,0,42.424,0,51.515C0,61.66,8.169,69.829,18.314,69.829h63.373 C91.831,69.829,100,61.66,100,51.515C99.868,42.556,93.281,35.046,84.717,33.597z" fill="rgba(234, 211, 184, 0.6694194572202621)" transform="scale(0.55)"></path>
</g><g transform="translate(-100 874.7242779653137) rotate(0)">
  <animateTransform attributeName="transform" type="translate" keyTimes="0;1" values="-100 874.7242779653137;1916 874.7242779653137" dur="250s" repeatCount="indefinite" begin="-74.52033175543022s"></animateTransform>
  <path d="M84.717,33.597c0.791-2.503,1.186-5.138,1.186-7.773C85.903,11.594,74.308,0,60.079,0 c-9.881,0-18.445,5.534-22.793,13.702c-1.581-0.527-3.426-0.791-5.138-0.791c-9.486,0-17.128,7.642-17.128,17.128 c0,1.186,0.132,2.372,0.395,3.426C6.719,34.783,0,42.424,0,51.515C0,61.66,8.169,69.829,18.314,69.829h63.373 C91.831,69.829,100,61.66,100,51.515C99.868,42.556,93.281,35.046,84.717,33.597z" fill="rgba(234, 211, 184, 0.6694194572202621)" transform="scale(0.55)"></path>
</g><g transform="translate(-100 855.8809820175095) rotate(0)">
  <animateTransform attributeName="transform" type="translate" keyTimes="0;1" values="-100 855.8809820175095;1916 855.8809820175095" dur="250s" repeatCount="indefinite" begin="-173.2274469549066s"></animateTransform>
  <path d="M84.717,33.597c0.791-2.503,1.186-5.138,1.186-7.773C85.903,11.594,74.308,0,60.079,0 c-9.881,0-18.445,5.534-22.793,13.702c-1.581-0.527-3.426-0.791-5.138-0.791c-9.486,0-17.128,7.642-17.128,17.128 c0,1.186,0.132,2.372,0.395,3.426C6.719,34.783,0,42.424,0,51.515C0,61.66,8.169,69.829,18.314,69.829h63.373 C91.831,69.829,100,61.66,100,51.515C99.868,42.556,93.281,35.046,84.717,33.597z" fill="rgba(234, 211, 184, 0.6694194572202621)" transform="scale(0.55)"></path>
</g><g transform="translate(-100 1170.1809751938745) rotate(0)">
  <animateTransform attributeName="transform" type="translate" keyTimes="0;1" values="-100 1170.1809751938745;1916 1170.1809751938745" dur="250s" repeatCount="indefinite" begin="-116.05307066793819s"></animateTransform>
  <path d="M84.717,33.597c0.791-2.503,1.186-5.138,1.186-7.773C85.903,11.594,74.308,0,60.079,0 c-9.881,0-18.445,5.534-22.793,13.702c-1.581-0.527-3.426-0.791-5.138-0.791c-9.486,0-17.128,7.642-17.128,17.128 c0,1.186,0.132,2.372,0.395,3.426C6.719,34.783,0,42.424,0,51.515C0,61.66,8.169,69.829,18.314,69.829h63.373 C91.831,69.829,100,61.66,100,51.515C99.868,42.556,93.281,35.046,84.717,33.597z" fill="rgba(234, 211, 184, 0.6694194572202621)" transform="scale(0.55)"></path>
</g><g transform="translate(-100 567.315561672868) rotate(0)">
  <animateTransform attributeName="transform" type="translate" keyTimes="0;1" values="-100 567.315561672868;1916 567.315561672868" dur="250s" repeatCount="indefinite" begin="-185.55182450752682s"></animateTransform>
  <path d="M84.717,33.597c0.791-2.503,1.186-5.138,1.186-7.773C85.903,11.594,74.308,0,60.079,0 c-9.881,0-18.445,5.534-22.793,13.702c-1.581-0.527-3.426-0.791-5.138-0.791c-9.486,0-17.128,7.642-17.128,17.128 c0,1.186,0.132,2.372,0.395,3.426C6.719,34.783,0,42.424,0,51.515C0,61.66,8.169,69.829,18.314,69.829h63.373 C91.831,69.829,100,61.66,100,51.515C99.868,42.556,93.281,35.046,84.717,33.597z" fill="rgba(234, 211, 184, 0.6694194572202621)" transform="scale(0.55)"></path>
</g><g transform="translate(-100 471.0434832454209) rotate(0)">
  <animateTransform attributeName="transform" type="translate" keyTimes="0;1" values="-100 471.0434832454209;1916 471.0434832454209" dur="250s" repeatCount="indefinite" begin="-28.448605168698126s"></animateTransform>
  <path d="M84.717,33.597c0.791-2.503,1.186-5.138,1.186-7.773C85.903,11.594,74.308,0,60.079,0 c-9.881,0-18.445,5.534-22.793,13.702c-1.581-0.527-3.426-0.791-5.138-0.791c-9.486,0-17.128,7.642-17.128,17.128 c0,1.186,0.132,2.372,0.395,3.426C6.719,34.783,0,42.424,0,51.515C0,61.66,8.169,69.829,18.314,69.829h63.373 C91.831,69.829,100,61.66,100,51.515C99.868,42.556,93.281,35.046,84.717,33.597z" fill="rgba(234, 211, 184, 0.6694194572202621)" transform="scale(0.55)"></path>
</g><g transform="translate(-100 1218.9403250372698) rotate(0)">
  <animateTransform attributeName="transform" type="translate" keyTimes="0;1" values="-100 1218.9403250372698;1916 1218.9403250372698" dur="250s" repeatCount="indefinite" begin="-15.78837752138651s"></animateTransform>
  <path d="M84.717,33.597c0.791-2.503,1.186-5.138,1.186-7.773C85.903,11.594,74.308,0,60.079,0 c-9.881,0-18.445,5.534-22.793,13.702c-1.581-0.527-3.426-0.791-5.138-0.791c-9.486,0-17.128,7.642-17.128,17.128 c0,1.186,0.132,2.372,0.395,3.426C6.719,34.783,0,42.424,0,51.515C0,61.66,8.169,69.829,18.314,69.829h63.373 C91.831,69.829,100,61.66,100,51.515C99.868,42.556,93.281,35.046,84.717,33.597z" fill="rgba(234, 211, 184, 0.6694194572202621)" transform="scale(0.55)"></path>
</g><g transform="translate(-100 1209.0799104492003) rotate(0)">
  <animateTransform attributeName="transform" type="translate" keyTimes="0;1" values="-100 1209.0799104492003;1916 1209.0799104492003" dur="250s" repeatCount="indefinite" begin="-224.1014202148867s"></animateTransform>
  <path d="M84.717,33.597c0.791-2.503,1.186-5.138,1.186-7.773C85.903,11.594,74.308,0,60.079,0 c-9.881,0-18.445,5.534-22.793,13.702c-1.581-0.527-3.426-0.791-5.138-0.791c-9.486,0-17.128,7.642-17.128,17.128 c0,1.186,0.132,2.372,0.395,3.426C6.719,34.783,0,42.424,0,51.515C0,61.66,8.169,69.829,18.314,69.829h63.373 C91.831,69.829,100,61.66,100,51.515C99.868,42.556,93.281,35.046,84.717,33.597z" fill="rgba(234, 211, 184, 0.6694194572202621)" transform="scale(0.55)"></path>
</g><g transform="translate(-100 34.123982058440916) rotate(0)">
  <animateTransform attributeName="transform" type="translate" keyTimes="0;1" values="-100 34.123982058440916;1916 34.123982058440916" dur="250s" repeatCount="indefinite" begin="-181.67449663285885s"></animateTransform>
  <path d="M84.717,33.597c0.791-2.503,1.186-5.138,1.186-7.773C85.903,11.594,74.308,0,60.079,0 c-9.881,0-18.445,5.534-22.793,13.702c-1.581-0.527-3.426-0.791-5.138-0.791c-9.486,0-17.128,7.642-17.128,17.128 c0,1.186,0.132,2.372,0.395,3.426C6.719,34.783,0,42.424,0,51.515C0,61.66,8.169,69.829,18.314,69.829h63.373 C91.831,69.829,100,61.66,100,51.515C99.868,42.556,93.281,35.046,84.717,33.597z" fill="rgba(234, 211, 184, 0.6694194572202621)" transform="scale(0.55)"></path>
</g><g transform="translate(-100 950.9522626466004) rotate(0)">
  <animateTransform attributeName="transform" type="translate" keyTimes="0;1" values="-100 950.9522626466004;1916 950.9522626466004" dur="250s" repeatCount="indefinite" begin="-76.67181352389568s"></animateTransform>
  <path d="M84.717,33.597c0.791-2.503,1.186-5.138,1.186-7.773C85.903,11.594,74.308,0,60.079,0 c-9.881,0-18.445,5.534-22.793,13.702c-1.581-0.527-3.426-0.791-5.138-0.791c-9.486,0-17.128,7.642-17.128,17.128 c0,1.186,0.132,2.372,0.395,3.426C6.719,34.783,0,42.424,0,51.515C0,61.66,8.169,69.829,18.314,69.829h63.373 C91.831,69.829,100,61.66,100,51.515C99.868,42.556,93.281,35.046,84.717,33.597z" fill="rgba(234, 211, 184, 0.6694194572202621)" transform="scale(0.55)"></path>
</g><g transform="translate(-100 713.2625921427668) rotate(0)">
  <animateTransform attributeName="transform" type="translate" keyTimes="0;1" values="-100 713.2625921427668;1916 713.2625921427668" dur="250s" repeatCount="indefinite" begin="-154.76496513645876s"></animateTransform>
  <path d="M84.717,33.597c0.791-2.503,1.186-5.138,1.186-7.773C85.903,11.594,74.308,0,60.079,0 c-9.881,0-18.445,5.534-22.793,13.702c-1.581-0.527-3.426-0.791-5.138-0.791c-9.486,0-17.128,7.642-17.128,17.128 c0,1.186,0.132,2.372,0.395,3.426C6.719,34.783,0,42.424,0,51.515C0,61.66,8.169,69.829,18.314,69.829h63.373 C91.831,69.829,100,61.66,100,51.515C99.868,42.556,93.281,35.046,84.717,33.597z" fill="rgba(234, 211, 184, 0.6694194572202621)" transform="scale(0.55)"></path>
</g><g transform="translate(-100 192.5444134917886) rotate(0)">
  <animateTransform attributeName="transform" type="translate" keyTimes="0;1" values="-100 192.5444134917886;1916 192.5444134917886" dur="250s" repeatCount="indefinite" begin="-206.92874560540585s"></animateTransform>
  <path d="M84.717,33.597c0.791-2.503,1.186-5.138,1.186-7.773C85.903,11.594,74.308,0,60.079,0 c-9.881,0-18.445,5.534-22.793,13.702c-1.581-0.527-3.426-0.791-5.138-0.791c-9.486,0-17.128,7.642-17.128,17.128 c0,1.186,0.132,2.372,0.395,3.426C6.719,34.783,0,42.424,0,51.515C0,61.66,8.169,69.829,18.314,69.829h63.373 C91.831,69.829,100,61.66,100,51.515C99.868,42.556,93.281,35.046,84.717,33.597z" fill="rgba(234, 211, 184, 0.6694194572202621)" transform="scale(0.55)"></path>
</g><g transform="translate(-100 935.8106873955406) rotate(0)">
  <animateTransform attributeName="transform" type="translate" keyTimes="0;1" values="-100 935.8106873955406;1916 935.8106873955406" dur="250s" repeatCount="indefinite" begin="-206.70421283832556s"></animateTransform>
  <path d="M84.717,33.597c0.791-2.503,1.186-5.138,1.186-7.773C85.903,11.594,74.308,0,60.079,0 c-9.881,0-18.445,5.534-22.793,13.702c-1.581-0.527-3.426-0.791-5.138-0.791c-9.486,0-17.128,7.642-17.128,17.128 c0,1.186,0.132,2.372,0.395,3.426C6.719,34.783,0,42.424,0,51.515C0,61.66,8.169,69.829,18.314,69.829h63.373 C91.831,69.829,100,61.66,100,51.515C99.868,42.556,93.281,35.046,84.717,33.597z" fill="rgba(234, 211, 184, 0.6694194572202621)" transform="scale(0.55)"></path>
</g><g transform="translate(-100 233.23191783537578) rotate(0)">
  <animateTransform attributeName="transform" type="translate" keyTimes="0;1" values="-100 233.23191783537578;1916 233.23191783537578" dur="125s" repeatCount="indefinite" begin="-49.96499252590581s"></animateTransform>
  <path d="M84.717,33.597c0.791-2.503,1.186-5.138,1.186-7.773C85.903,11.594,74.308,0,60.079,0 c-9.881,0-18.445,5.534-22.793,13.702c-1.581-0.527-3.426-0.791-5.138-0.791c-9.486,0-17.128,7.642-17.128,17.128 c0,1.186,0.132,2.372,0.395,3.426C6.719,34.783,0,42.424,0,51.515C0,61.66,8.169,69.829,18.314,69.829h63.373 C91.831,69.829,100,61.66,100,51.515C99.868,42.556,93.281,35.046,84.717,33.597z" fill="rgba(234, 211, 184, 0.6694194572202621)" transform="scale(0.7)"></path>
</g><g transform="translate(-100 47.45961929588304) rotate(0)">
  <animateTransform attributeName="transform" type="translate" keyTimes="0;1" values="-100 47.45961929588304;1916 47.45961929588304" dur="125s" repeatCount="indefinite" begin="-101.93110715089165s"></animateTransform>
  <path d="M84.717,33.597c0.791-2.503,1.186-5.138,1.186-7.773C85.903,11.594,74.308,0,60.079,0 c-9.881,0-18.445,5.534-22.793,13.702c-1.581-0.527-3.426-0.791-5.138-0.791c-9.486,0-17.128,7.642-17.128,17.128 c0,1.186,0.132,2.372,0.395,3.426C6.719,34.783,0,42.424,0,51.515C0,61.66,8.169,69.829,18.314,69.829h63.373 C91.831,69.829,100,61.66,100,51.515C99.868,42.556,93.281,35.046,84.717,33.597z" fill="rgba(234, 211, 184, 0.6694194572202621)" transform="scale(0.7)"></path>
</g><g transform="translate(-100 13.625449960607394) rotate(0)">
  <animateTransform attributeName="transform" type="translate" keyTimes="0;1" values="-100 13.625449960607394;1916 13.625449960607394" dur="125s" repeatCount="indefinite" begin="-147.17787748094042s"></animateTransform>
  <path d="M84.717,33.597c0.791-2.503,1.186-5.138,1.186-7.773C85.903,11.594,74.308,0,60.079,0 c-9.881,0-18.445,5.534-22.793,13.702c-1.581-0.527-3.426-0.791-5.138-0.791c-9.486,0-17.128,7.642-17.128,17.128 c0,1.186,0.132,2.372,0.395,3.426C6.719,34.783,0,42.424,0,51.515C0,61.66,8.169,69.829,18.314,69.829h63.373 C91.831,69.829,100,61.66,100,51.515C99.868,42.556,93.281,35.046,84.717,33.597z" fill="rgba(234, 211, 184, 0.6694194572202621)" transform="scale(0.7)"></path>
</g><g transform="translate(-100 364.34853825328594) rotate(0)">
  <animateTransform attributeName="transform" type="translate" keyTimes="0;1" values="-100 364.34853825328594;1916 364.34853825328594" dur="125s" repeatCount="indefinite" begin="-36.97172701069717s"></animateTransform>
  <path d="M84.717,33.597c0.791-2.503,1.186-5.138,1.186-7.773C85.903,11.594,74.308,0,60.079,0 c-9.881,0-18.445,5.534-22.793,13.702c-1.581-0.527-3.426-0.791-5.138-0.791c-9.486,0-17.128,7.642-17.128,17.128 c0,1.186,0.132,2.372,0.395,3.426C6.719,34.783,0,42.424,0,51.515C0,61.66,8.169,69.829,18.314,69.829h63.373 C91.831,69.829,100,61.66,100,51.515C99.868,42.556,93.281,35.046,84.717,33.597z" fill="rgba(234, 211, 184, 0.6694194572202621)" transform="scale(0.7)"></path>
</g><g transform="translate(-100 664.9713308465583) rotate(0)">
  <animateTransform attributeName="transform" type="translate" keyTimes="0;1" values="-100 664.9713308465583;1916 664.9713308465583" dur="125s" repeatCount="indefinite" begin="-133.54193932289627s"></animateTransform>
  <path d="M84.717,33.597c0.791-2.503,1.186-5.138,1.186-7.773C85.903,11.594,74.308,0,60.079,0 c-9.881,0-18.445,5.534-22.793,13.702c-1.581-0.527-3.426-0.791-5.138-0.791c-9.486,0-17.128,7.642-17.128,17.128 c0,1.186,0.132,2.372,0.395,3.426C6.719,34.783,0,42.424,0,51.515C0,61.66,8.169,69.829,18.314,69.829h63.373 C91.831,69.829,100,61.66,100,51.515C99.868,42.556,93.281,35.046,84.717,33.597z" fill="rgba(234, 211, 184, 0.6694194572202621)" transform="scale(0.7)"></path>
</g><g transform="translate(-100 1150.099054491409) rotate(0)">
  <animateTransform attributeName="transform" type="translate" keyTimes="0;1" values="-100 1150.099054491409;1916 1150.099054491409" dur="125s" repeatCount="indefinite" begin="-43.83125285535422s"></animateTransform>
  <path d="M84.717,33.597c0.791-2.503,1.186-5.138,1.186-7.773C85.903,11.594,74.308,0,60.079,0 c-9.881,0-18.445,5.534-22.793,13.702c-1.581-0.527-3.426-0.791-5.138-0.791c-9.486,0-17.128,7.642-17.128,17.128 c0,1.186,0.132,2.372,0.395,3.426C6.719,34.783,0,42.424,0,51.515C0,61.66,8.169,69.829,18.314,69.829h63.373 C91.831,69.829,100,61.66,100,51.515C99.868,42.556,93.281,35.046,84.717,33.597z" fill="rgba(234, 211, 184, 0.6694194572202621)" transform="scale(0.7)"></path>
</g><g transform="translate(-100 187.8282093804497) rotate(0)">
  <animateTransform attributeName="transform" type="translate" keyTimes="0;1" values="-100 187.8282093804497;1916 187.8282093804497" dur="125s" repeatCount="indefinite" begin="-195.92422573946754s"></animateTransform>
  <path d="M84.717,33.597c0.791-2.503,1.186-5.138,1.186-7.773C85.903,11.594,74.308,0,60.079,0 c-9.881,0-18.445,5.534-22.793,13.702c-1.581-0.527-3.426-0.791-5.138-0.791c-9.486,0-17.128,7.642-17.128,17.128 c0,1.186,0.132,2.372,0.395,3.426C6.719,34.783,0,42.424,0,51.515C0,61.66,8.169,69.829,18.314,69.829h63.373 C91.831,69.829,100,61.66,100,51.515C99.868,42.556,93.281,35.046,84.717,33.597z" fill="rgba(234, 211, 184, 0.6694194572202621)" transform="scale(0.7)"></path>
</g><g transform="translate(-100 527.0348593529318) rotate(0)">
  <animateTransform attributeName="transform" type="translate" keyTimes="0;1" values="-100 527.0348593529318;1916 527.0348593529318" dur="125s" repeatCount="indefinite" begin="-173.19999388892836s"></animateTransform>
  <path d="M84.717,33.597c0.791-2.503,1.186-5.138,1.186-7.773C85.903,11.594,74.308,0,60.079,0 c-9.881,0-18.445,5.534-22.793,13.702c-1.581-0.527-3.426-0.791-5.138-0.791c-9.486,0-17.128,7.642-17.128,17.128 c0,1.186,0.132,2.372,0.395,3.426C6.719,34.783,0,42.424,0,51.515C0,61.66,8.169,69.829,18.314,69.829h63.373 C91.831,69.829,100,61.66,100,51.515C99.868,42.556,93.281,35.046,84.717,33.597z" fill="rgba(234, 211, 184, 0.6694194572202621)" transform="scale(0.7)"></path>
</g><g transform="translate(-100 70.95529625117366) rotate(0)">
  <animateTransform attributeName="transform" type="translate" keyTimes="0;1" values="-100 70.95529625117366;1916 70.95529625117366" dur="125s" repeatCount="indefinite" begin="-227.8031641346947s"></animateTransform>
  <path d="M84.717,33.597c0.791-2.503,1.186-5.138,1.186-7.773C85.903,11.594,74.308,0,60.079,0 c-9.881,0-18.445,5.534-22.793,13.702c-1.581-0.527-3.426-0.791-5.138-0.791c-9.486,0-17.128,7.642-17.128,17.128 c0,1.186,0.132,2.372,0.395,3.426C6.719,34.783,0,42.424,0,51.515C0,61.66,8.169,69.829,18.314,69.829h63.373 C91.831,69.829,100,61.66,100,51.515C99.868,42.556,93.281,35.046,84.717,33.597z" fill="rgba(234, 211, 184, 0.6694194572202621)" transform="scale(0.7)"></path>
</g><g transform="translate(-100 472.8164368915616) rotate(0)">
  <animateTransform attributeName="transform" type="translate" keyTimes="0;1" values="-100 472.8164368915616;1916 472.8164368915616" dur="125s" repeatCount="indefinite" begin="-121.84763702537776s"></animateTransform>
  <path d="M84.717,33.597c0.791-2.503,1.186-5.138,1.186-7.773C85.903,11.594,74.308,0,60.079,0 c-9.881,0-18.445,5.534-22.793,13.702c-1.581-0.527-3.426-0.791-5.138-0.791c-9.486,0-17.128,7.642-17.128,17.128 c0,1.186,0.132,2.372,0.395,3.426C6.719,34.783,0,42.424,0,51.515C0,61.66,8.169,69.829,18.314,69.829h63.373 C91.831,69.829,100,61.66,100,51.515C99.868,42.556,93.281,35.046,84.717,33.597z" fill="rgba(234, 211, 184, 0.6694194572202621)" transform="scale(0.7)"></path>
</g><g transform="translate(-100 3.1810881378842213) rotate(0)">
  <animateTransform attributeName="transform" type="translate" keyTimes="0;1" values="-100 3.1810881378842213;1916 3.1810881378842213" dur="125s" repeatCount="indefinite" begin="-199.3268435817463s"></animateTransform>
  <path d="M84.717,33.597c0.791-2.503,1.186-5.138,1.186-7.773C85.903,11.594,74.308,0,60.079,0 c-9.881,0-18.445,5.534-22.793,13.702c-1.581-0.527-3.426-0.791-5.138-0.791c-9.486,0-17.128,7.642-17.128,17.128 c0,1.186,0.132,2.372,0.395,3.426C6.719,34.783,0,42.424,0,51.515C0,61.66,8.169,69.829,18.314,69.829h63.373 C91.831,69.829,100,61.66,100,51.515C99.868,42.556,93.281,35.046,84.717,33.597z" fill="rgba(234, 211, 184, 0.6694194572202621)" transform="scale(0.7)"></path>
</g><g transform="translate(-100 408.88327564555595) rotate(0)">
  <animateTransform attributeName="transform" type="translate" keyTimes="0;1" values="-100 408.88327564555595;1916 408.88327564555595" dur="125s" repeatCount="indefinite" begin="-171.38645974217752s"></animateTransform>
  <path d="M84.717,33.597c0.791-2.503,1.186-5.138,1.186-7.773C85.903,11.594,74.308,0,60.079,0 c-9.881,0-18.445,5.534-22.793,13.702c-1.581-0.527-3.426-0.791-5.138-0.791c-9.486,0-17.128,7.642-17.128,17.128 c0,1.186,0.132,2.372,0.395,3.426C6.719,34.783,0,42.424,0,51.515C0,61.66,8.169,69.829,18.314,69.829h63.373 C91.831,69.829,100,61.66,100,51.515C99.868,42.556,93.281,35.046,84.717,33.597z" fill="rgba(234, 211, 184, 0.6694194572202621)" transform="scale(0.7)"></path>
</g><g transform="translate(-100 268.77832964277025) rotate(0)">
  <animateTransform attributeName="transform" type="translate" keyTimes="0;1" values="-100 268.77832964277025;1916 268.77832964277025" dur="125s" repeatCount="indefinite" begin="-64.91494738777448s"></animateTransform>
  <path d="M84.717,33.597c0.791-2.503,1.186-5.138,1.186-7.773C85.903,11.594,74.308,0,60.079,0 c-9.881,0-18.445,5.534-22.793,13.702c-1.581-0.527-3.426-0.791-5.138-0.791c-9.486,0-17.128,7.642-17.128,17.128 c0,1.186,0.132,2.372,0.395,3.426C6.719,34.783,0,42.424,0,51.515C0,61.66,8.169,69.829,18.314,69.829h63.373 C91.831,69.829,100,61.66,100,51.515C99.868,42.556,93.281,35.046,84.717,33.597z" fill="rgba(234, 211, 184, 0.6694194572202621)" transform="scale(0.7)"></path>
</g><g transform="translate(-100 406.7134706506743) rotate(0)">
  <animateTransform attributeName="transform" type="translate" keyTimes="0;1" values="-100 406.7134706506743;1916 406.7134706506743" dur="125s" repeatCount="indefinite" begin="-74.94463394463408s"></animateTransform>
  <path d="M84.717,33.597c0.791-2.503,1.186-5.138,1.186-7.773C85.903,11.594,74.308,0,60.079,0 c-9.881,0-18.445,5.534-22.793,13.702c-1.581-0.527-3.426-0.791-5.138-0.791c-9.486,0-17.128,7.642-17.128,17.128 c0,1.186,0.132,2.372,0.395,3.426C6.719,34.783,0,42.424,0,51.515C0,61.66,8.169,69.829,18.314,69.829h63.373 C91.831,69.829,100,61.66,100,51.515C99.868,42.556,93.281,35.046,84.717,33.597z" fill="rgba(234, 211, 184, 0.6694194572202621)" transform="scale(0.7)"></path>
</g><g transform="translate(-100 503.66948214509864) rotate(0)">
  <animateTransform attributeName="transform" type="translate" keyTimes="0;1" values="-100 503.66948214509864;1916 503.66948214509864" dur="125s" repeatCount="indefinite" begin="-130.10979822290315s"></animateTransform>
  <path d="M84.717,33.597c0.791-2.503,1.186-5.138,1.186-7.773C85.903,11.594,74.308,0,60.079,0 c-9.881,0-18.445,5.534-22.793,13.702c-1.581-0.527-3.426-0.791-5.138-0.791c-9.486,0-17.128,7.642-17.128,17.128 c0,1.186,0.132,2.372,0.395,3.426C6.719,34.783,0,42.424,0,51.515C0,61.66,8.169,69.829,18.314,69.829h63.373 C91.831,69.829,100,61.66,100,51.515C99.868,42.556,93.281,35.046,84.717,33.597z" fill="rgba(234, 211, 184, 0.6694194572202621)" transform="scale(0.7)"></path>
</g><g transform="translate(-100 461.24193763137816) rotate(0)">
  <animateTransform attributeName="transform" type="translate" keyTimes="0;1" values="-100 461.24193763137816;1916 461.24193763137816" dur="125s" repeatCount="indefinite" begin="-236.5001489589924s"></animateTransform>
  <path d="M84.717,33.597c0.791-2.503,1.186-5.138,1.186-7.773C85.903,11.594,74.308,0,60.079,0 c-9.881,0-18.445,5.534-22.793,13.702c-1.581-0.527-3.426-0.791-5.138-0.791c-9.486,0-17.128,7.642-17.128,17.128 c0,1.186,0.132,2.372,0.395,3.426C6.719,34.783,0,42.424,0,51.515C0,61.66,8.169,69.829,18.314,69.829h63.373 C91.831,69.829,100,61.66,100,51.515C99.868,42.556,93.281,35.046,84.717,33.597z" fill="rgba(234, 211, 184, 0.6694194572202621)" transform="scale(0.7)"></path>
</g><g transform="translate(-100 426.5402588478113) rotate(0)">
  <animateTransform attributeName="transform" type="translate" keyTimes="0;1" values="-100 426.5402588478113;1916 426.5402588478113" dur="125s" repeatCount="indefinite" begin="-211.75492851184802s"></animateTransform>
  <path d="M84.717,33.597c0.791-2.503,1.186-5.138,1.186-7.773C85.903,11.594,74.308,0,60.079,0 c-9.881,0-18.445,5.534-22.793,13.702c-1.581-0.527-3.426-0.791-5.138-0.791c-9.486,0-17.128,7.642-17.128,17.128 c0,1.186,0.132,2.372,0.395,3.426C6.719,34.783,0,42.424,0,51.515C0,61.66,8.169,69.829,18.314,69.829h63.373 C91.831,69.829,100,61.66,100,51.515C99.868,42.556,93.281,35.046,84.717,33.597z" fill="rgba(234, 211, 184, 0.6694194572202621)" transform="scale(0.7)"></path>
</g><g transform="translate(-100 618.9534410702984) rotate(0)">
  <animateTransform attributeName="transform" type="translate" keyTimes="0;1" values="-100 618.9534410702984;1916 618.9534410702984" dur="125s" repeatCount="indefinite" begin="-176.58041473964337s"></animateTransform>
  <path d="M84.717,33.597c0.791-2.503,1.186-5.138,1.186-7.773C85.903,11.594,74.308,0,60.079,0 c-9.881,0-18.445,5.534-22.793,13.702c-1.581-0.527-3.426-0.791-5.138-0.791c-9.486,0-17.128,7.642-17.128,17.128 c0,1.186,0.132,2.372,0.395,3.426C6.719,34.783,0,42.424,0,51.515C0,61.66,8.169,69.829,18.314,69.829h63.373 C91.831,69.829,100,61.66,100,51.515C99.868,42.556,93.281,35.046,84.717,33.597z" fill="rgba(234, 211, 184, 0.6694194572202621)" transform="scale(0.7)"></path>
</g><g transform="translate(-100 189.88749308680974) rotate(0)">
  <animateTransform attributeName="transform" type="translate" keyTimes="0;1" values="-100 189.88749308680974;1916 189.88749308680974" dur="125s" repeatCount="indefinite" begin="-6.019203625002801s"></animateTransform>
  <path d="M84.717,33.597c0.791-2.503,1.186-5.138,1.186-7.773C85.903,11.594,74.308,0,60.079,0 c-9.881,0-18.445,5.534-22.793,13.702c-1.581-0.527-3.426-0.791-5.138-0.791c-9.486,0-17.128,7.642-17.128,17.128 c0,1.186,0.132,2.372,0.395,3.426C6.719,34.783,0,42.424,0,51.515C0,61.66,8.169,69.829,18.314,69.829h63.373 C91.831,69.829,100,61.66,100,51.515C99.868,42.556,93.281,35.046,84.717,33.597z" fill="rgba(234, 211, 184, 0.6694194572202621)" transform="scale(0.7)"></path>
</g><g transform="translate(-100 407.19364734557786) rotate(0)">
  <animateTransform attributeName="transform" type="translate" keyTimes="0;1" values="-100 407.19364734557786;1916 407.19364734557786" dur="125s" repeatCount="indefinite" begin="-17.828852802619423s"></animateTransform>
  <path d="M84.717,33.597c0.791-2.503,1.186-5.138,1.186-7.773C85.903,11.594,74.308,0,60.079,0 c-9.881,0-18.445,5.534-22.793,13.702c-1.581-0.527-3.426-0.791-5.138-0.791c-9.486,0-17.128,7.642-17.128,17.128 c0,1.186,0.132,2.372,0.395,3.426C6.719,34.783,0,42.424,0,51.515C0,61.66,8.169,69.829,18.314,69.829h63.373 C91.831,69.829,100,61.66,100,51.515C99.868,42.556,93.281,35.046,84.717,33.597z" fill="rgba(234, 211, 184, 0.6694194572202621)" transform="scale(0.7)"></path>
</g><g transform="translate(-100 339.65152479757717) rotate(0)">
  <animateTransform attributeName="transform" type="translate" keyTimes="0;1" values="-100 339.65152479757717;1916 339.65152479757717" dur="125s" repeatCount="indefinite" begin="-46.01142743001579s"></animateTransform>
  <path d="M84.717,33.597c0.791-2.503,1.186-5.138,1.186-7.773C85.903,11.594,74.308,0,60.079,0 c-9.881,0-18.445,5.534-22.793,13.702c-1.581-0.527-3.426-0.791-5.138-0.791c-9.486,0-17.128,7.642-17.128,17.128 c0,1.186,0.132,2.372,0.395,3.426C6.719,34.783,0,42.424,0,51.515C0,61.66,8.169,69.829,18.314,69.829h63.373 C91.831,69.829,100,61.66,100,51.515C99.868,42.556,93.281,35.046,84.717,33.597z" fill="rgba(234, 211, 184, 0.6694194572202621)" transform="scale(0.7)"></path>
</g><g transform="translate(-100 77.83474649890375) rotate(0)">
  <animateTransform attributeName="transform" type="translate" keyTimes="0;1" values="-100 77.83474649890375;1916 77.83474649890375" dur="125s" repeatCount="indefinite" begin="-184.30989202936087s"></animateTransform>
  <path d="M84.717,33.597c0.791-2.503,1.186-5.138,1.186-7.773C85.903,11.594,74.308,0,60.079,0 c-9.881,0-18.445,5.534-22.793,13.702c-1.581-0.527-3.426-0.791-5.138-0.791c-9.486,0-17.128,7.642-17.128,17.128 c0,1.186,0.132,2.372,0.395,3.426C6.719,34.783,0,42.424,0,51.515C0,61.66,8.169,69.829,18.314,69.829h63.373 C91.831,69.829,100,61.66,100,51.515C99.868,42.556,93.281,35.046,84.717,33.597z" fill="rgba(234, 211, 184, 0.6694194572202621)" transform="scale(0.7)"></path>
</g><g transform="translate(-100 72.38167285249816) rotate(0)">
  <animateTransform attributeName="transform" type="translate" keyTimes="0;1" values="-100 72.38167285249816;1916 72.38167285249816" dur="125s" repeatCount="indefinite" begin="-221.35400497144485s"></animateTransform>
  <path d="M84.717,33.597c0.791-2.503,1.186-5.138,1.186-7.773C85.903,11.594,74.308,0,60.079,0 c-9.881,0-18.445,5.534-22.793,13.702c-1.581-0.527-3.426-0.791-5.138-0.791c-9.486,0-17.128,7.642-17.128,17.128 c0,1.186,0.132,2.372,0.395,3.426C6.719,34.783,0,42.424,0,51.515C0,61.66,8.169,69.829,18.314,69.829h63.373 C91.831,69.829,100,61.66,100,51.515C99.868,42.556,93.281,35.046,84.717,33.597z" fill="rgba(234, 211, 184, 0.6694194572202621)" transform="scale(0.7)"></path>
</g><g transform="translate(-100 554.484439353747) rotate(0)">
  <animateTransform attributeName="transform" type="translate" keyTimes="0;1" values="-100 554.484439353747;1916 554.484439353747" dur="125s" repeatCount="indefinite" begin="-115.46472491740472s"></animateTransform>
  <path d="M84.717,33.597c0.791-2.503,1.186-5.138,1.186-7.773C85.903,11.594,74.308,0,60.079,0 c-9.881,0-18.445,5.534-22.793,13.702c-1.581-0.527-3.426-0.791-5.138-0.791c-9.486,0-17.128,7.642-17.128,17.128 c0,1.186,0.132,2.372,0.395,3.426C6.719,34.783,0,42.424,0,51.515C0,61.66,8.169,69.829,18.314,69.829h63.373 C91.831,69.829,100,61.66,100,51.515C99.868,42.556,93.281,35.046,84.717,33.597z" fill="rgba(234, 211, 184, 0.6694194572202621)" transform="scale(0.7)"></path>
</g><g transform="translate(-100 240.75276849264867) rotate(0)">
  <animateTransform attributeName="transform" type="translate" keyTimes="0;1" values="-100 240.75276849264867;1916 240.75276849264867" dur="125s" repeatCount="indefinite" begin="-34.148095263109305s"></animateTransform>
  <path d="M84.717,33.597c0.791-2.503,1.186-5.138,1.186-7.773C85.903,11.594,74.308,0,60.079,0 c-9.881,0-18.445,5.534-22.793,13.702c-1.581-0.527-3.426-0.791-5.138-0.791c-9.486,0-17.128,7.642-17.128,17.128 c0,1.186,0.132,2.372,0.395,3.426C6.719,34.783,0,42.424,0,51.515C0,61.66,8.169,69.829,18.314,69.829h63.373 C91.831,69.829,100,61.66,100,51.515C99.868,42.556,93.281,35.046,84.717,33.597z" fill="rgba(234, 211, 184, 0.6694194572202621)" transform="scale(0.7)"></path>
</g><g transform="translate(-100 158.9514036723895) rotate(0)">
  <animateTransform attributeName="transform" type="translate" keyTimes="0;1" values="-100 158.9514036723895;1916 158.9514036723895" dur="83.33333333333333s" repeatCount="indefinite" begin="-5.7890375495871504s"></animateTransform>
  <path d="M84.717,33.597c0.791-2.503,1.186-5.138,1.186-7.773C85.903,11.594,74.308,0,60.079,0 c-9.881,0-18.445,5.534-22.793,13.702c-1.581-0.527-3.426-0.791-5.138-0.791c-9.486,0-17.128,7.642-17.128,17.128 c0,1.186,0.132,2.372,0.395,3.426C6.719,34.783,0,42.424,0,51.515C0,61.66,8.169,69.829,18.314,69.829h63.373 C91.831,69.829,100,61.66,100,51.515C99.868,42.556,93.281,35.046,84.717,33.597z" fill="rgba(234, 211, 184, 0.4010323604460686)" transform="scale(0.85)"></path>
</g><g transform="translate(-100 565.2468434959362) rotate(0)">
  <animateTransform attributeName="transform" type="translate" keyTimes="0;1" values="-100 565.2468434959362;1916 565.2468434959362" dur="83.33333333333333s" repeatCount="indefinite" begin="-218.65321803686655s"></animateTransform>
  <path d="M84.717,33.597c0.791-2.503,1.186-5.138,1.186-7.773C85.903,11.594,74.308,0,60.079,0 c-9.881,0-18.445,5.534-22.793,13.702c-1.581-0.527-3.426-0.791-5.138-0.791c-9.486,0-17.128,7.642-17.128,17.128 c0,1.186,0.132,2.372,0.395,3.426C6.719,34.783,0,42.424,0,51.515C0,61.66,8.169,69.829,18.314,69.829h63.373 C91.831,69.829,100,61.66,100,51.515C99.868,42.556,93.281,35.046,84.717,33.597z" fill="rgba(234, 211, 184, 0.4010323604460686)" transform="scale(0.85)"></path>
</g><g transform="translate(-100 76.72499151227782) rotate(0)">
  <animateTransform attributeName="transform" type="translate" keyTimes="0;1" values="-100 76.72499151227782;1916 76.72499151227782" dur="83.33333333333333s" repeatCount="indefinite" begin="-197.43880377119183s"></animateTransform>
  <path d="M84.717,33.597c0.791-2.503,1.186-5.138,1.186-7.773C85.903,11.594,74.308,0,60.079,0 c-9.881,0-18.445,5.534-22.793,13.702c-1.581-0.527-3.426-0.791-5.138-0.791c-9.486,0-17.128,7.642-17.128,17.128 c0,1.186,0.132,2.372,0.395,3.426C6.719,34.783,0,42.424,0,51.515C0,61.66,8.169,69.829,18.314,69.829h63.373 C91.831,69.829,100,61.66,100,51.515C99.868,42.556,93.281,35.046,84.717,33.597z" fill="rgba(234, 211, 184, 0.4010323604460686)" transform="scale(0.85)"></path>
</g><g transform="translate(-100 475.76870295394644) rotate(0)">
  <animateTransform attributeName="transform" type="translate" keyTimes="0;1" values="-100 475.76870295394644;1916 475.76870295394644" dur="83.33333333333333s" repeatCount="indefinite" begin="-199.93250042399086s"></animateTransform>
  <path d="M84.717,33.597c0.791-2.503,1.186-5.138,1.186-7.773C85.903,11.594,74.308,0,60.079,0 c-9.881,0-18.445,5.534-22.793,13.702c-1.581-0.527-3.426-0.791-5.138-0.791c-9.486,0-17.128,7.642-17.128,17.128 c0,1.186,0.132,2.372,0.395,3.426C6.719,34.783,0,42.424,0,51.515C0,61.66,8.169,69.829,18.314,69.829h63.373 C91.831,69.829,100,61.66,100,51.515C99.868,42.556,93.281,35.046,84.717,33.597z" fill="rgba(234, 211, 184, 0.4010323604460686)" transform="scale(0.85)"></path>
</g><g transform="translate(-100 34.609491215108285) rotate(0)">
  <animateTransform attributeName="transform" type="translate" keyTimes="0;1" values="-100 34.609491215108285;1916 34.609491215108285" dur="83.33333333333333s" repeatCount="indefinite" begin="-36.440811002276085s"></animateTransform>
  <path d="M84.717,33.597c0.791-2.503,1.186-5.138,1.186-7.773C85.903,11.594,74.308,0,60.079,0 c-9.881,0-18.445,5.534-22.793,13.702c-1.581-0.527-3.426-0.791-5.138-0.791c-9.486,0-17.128,7.642-17.128,17.128 c0,1.186,0.132,2.372,0.395,3.426C6.719,34.783,0,42.424,0,51.515C0,61.66,8.169,69.829,18.314,69.829h63.373 C91.831,69.829,100,61.66,100,51.515C99.868,42.556,93.281,35.046,84.717,33.597z" fill="rgba(234, 211, 184, 0.4010323604460686)" transform="scale(0.85)"></path>
</g><g transform="translate(-100 913.8100683033346) rotate(0)">
  <animateTransform attributeName="transform" type="translate" keyTimes="0;1" values="-100 913.8100683033346;1916 913.8100683033346" dur="83.33333333333333s" repeatCount="indefinite" begin="-174.90927138236424s"></animateTransform>
  <path d="M84.717,33.597c0.791-2.503,1.186-5.138,1.186-7.773C85.903,11.594,74.308,0,60.079,0 c-9.881,0-18.445,5.534-22.793,13.702c-1.581-0.527-3.426-0.791-5.138-0.791c-9.486,0-17.128,7.642-17.128,17.128 c0,1.186,0.132,2.372,0.395,3.426C6.719,34.783,0,42.424,0,51.515C0,61.66,8.169,69.829,18.314,69.829h63.373 C91.831,69.829,100,61.66,100,51.515C99.868,42.556,93.281,35.046,84.717,33.597z" fill="rgba(234, 211, 184, 0.4010323604460686)" transform="scale(0.85)"></path>
</g><g transform="translate(-100 129.42544605114284) rotate(0)">
  <animateTransform attributeName="transform" type="translate" keyTimes="0;1" values="-100 129.42544605114284;1916 129.42544605114284" dur="83.33333333333333s" repeatCount="indefinite" begin="-26.981902899695818s"></animateTransform>
  <path d="M84.717,33.597c0.791-2.503,1.186-5.138,1.186-7.773C85.903,11.594,74.308,0,60.079,0 c-9.881,0-18.445,5.534-22.793,13.702c-1.581-0.527-3.426-0.791-5.138-0.791c-9.486,0-17.128,7.642-17.128,17.128 c0,1.186,0.132,2.372,0.395,3.426C6.719,34.783,0,42.424,0,51.515C0,61.66,8.169,69.829,18.314,69.829h63.373 C91.831,69.829,100,61.66,100,51.515C99.868,42.556,93.281,35.046,84.717,33.597z" fill="rgba(234, 211, 184, 0.4010323604460686)" transform="scale(0.85)"></path>
</g><g transform="translate(-100 222.54586064568574) rotate(0)">
  <animateTransform attributeName="transform" type="translate" keyTimes="0;1" values="-100 222.54586064568574;1916 222.54586064568574" dur="83.33333333333333s" repeatCount="indefinite" begin="-203.47357471397692s"></animateTransform>
  <path d="M84.717,33.597c0.791-2.503,1.186-5.138,1.186-7.773C85.903,11.594,74.308,0,60.079,0 c-9.881,0-18.445,5.534-22.793,13.702c-1.581-0.527-3.426-0.791-5.138-0.791c-9.486,0-17.128,7.642-17.128,17.128 c0,1.186,0.132,2.372,0.395,3.426C6.719,34.783,0,42.424,0,51.515C0,61.66,8.169,69.829,18.314,69.829h63.373 C91.831,69.829,100,61.66,100,51.515C99.868,42.556,93.281,35.046,84.717,33.597z" fill="rgba(234, 211, 184, 0.4010323604460686)" transform="scale(0.85)"></path>
</g><g transform="translate(-100 1058.365310767578) rotate(0)">
  <animateTransform attributeName="transform" type="translate" keyTimes="0;1" values="-100 1058.365310767578;1916 1058.365310767578" dur="83.33333333333333s" repeatCount="indefinite" begin="-94.79201486751826s"></animateTransform>
  <path d="M84.717,33.597c0.791-2.503,1.186-5.138,1.186-7.773C85.903,11.594,74.308,0,60.079,0 c-9.881,0-18.445,5.534-22.793,13.702c-1.581-0.527-3.426-0.791-5.138-0.791c-9.486,0-17.128,7.642-17.128,17.128 c0,1.186,0.132,2.372,0.395,3.426C6.719,34.783,0,42.424,0,51.515C0,61.66,8.169,69.829,18.314,69.829h63.373 C91.831,69.829,100,61.66,100,51.515C99.868,42.556,93.281,35.046,84.717,33.597z" fill="rgba(234, 211, 184, 0.4010323604460686)" transform="scale(0.85)"></path>
</g><g transform="translate(-100 333.62396674142246) rotate(0)">
  <animateTransform attributeName="transform" type="translate" keyTimes="0;1" values="-100 333.62396674142246;1916 333.62396674142246" dur="83.33333333333333s" repeatCount="indefinite" begin="-78.27143127000969s"></animateTransform>
  <path d="M84.717,33.597c0.791-2.503,1.186-5.138,1.186-7.773C85.903,11.594,74.308,0,60.079,0 c-9.881,0-18.445,5.534-22.793,13.702c-1.581-0.527-3.426-0.791-5.138-0.791c-9.486,0-17.128,7.642-17.128,17.128 c0,1.186,0.132,2.372,0.395,3.426C6.719,34.783,0,42.424,0,51.515C0,61.66,8.169,69.829,18.314,69.829h63.373 C91.831,69.829,100,61.66,100,51.515C99.868,42.556,93.281,35.046,84.717,33.597z" fill="rgba(234, 211, 184, 0.4010323604460686)" transform="scale(0.85)"></path>
</g><g transform="translate(-100 400.8776236474865) rotate(0)">
  <animateTransform attributeName="transform" type="translate" keyTimes="0;1" values="-100 400.8776236474865;1916 400.8776236474865" dur="83.33333333333333s" repeatCount="indefinite" begin="-175.627068831031s"></animateTransform>
  <path d="M84.717,33.597c0.791-2.503,1.186-5.138,1.186-7.773C85.903,11.594,74.308,0,60.079,0 c-9.881,0-18.445,5.534-22.793,13.702c-1.581-0.527-3.426-0.791-5.138-0.791c-9.486,0-17.128,7.642-17.128,17.128 c0,1.186,0.132,2.372,0.395,3.426C6.719,34.783,0,42.424,0,51.515C0,61.66,8.169,69.829,18.314,69.829h63.373 C91.831,69.829,100,61.66,100,51.515C99.868,42.556,93.281,35.046,84.717,33.597z" fill="rgba(234, 211, 184, 0.4010323604460686)" transform="scale(0.85)"></path>
</g><g transform="translate(-100 971.3492801840268) rotate(0)">
  <animateTransform attributeName="transform" type="translate" keyTimes="0;1" values="-100 971.3492801840268;1916 971.3492801840268" dur="83.33333333333333s" repeatCount="indefinite" begin="-135.53436659347295s"></animateTransform>
  <path d="M84.717,33.597c0.791-2.503,1.186-5.138,1.186-7.773C85.903,11.594,74.308,0,60.079,0 c-9.881,0-18.445,5.534-22.793,13.702c-1.581-0.527-3.426-0.791-5.138-0.791c-9.486,0-17.128,7.642-17.128,17.128 c0,1.186,0.132,2.372,0.395,3.426C6.719,34.783,0,42.424,0,51.515C0,61.66,8.169,69.829,18.314,69.829h63.373 C91.831,69.829,100,61.66,100,51.515C99.868,42.556,93.281,35.046,84.717,33.597z" fill="rgba(234, 211, 184, 0.4010323604460686)" transform="scale(0.85)"></path>
</g><g transform="translate(-100 557.6345099725653) rotate(0)">
  <animateTransform attributeName="transform" type="translate" keyTimes="0;1" values="-100 557.6345099725653;1916 557.6345099725653" dur="83.33333333333333s" repeatCount="indefinite" begin="-27.653042161297993s"></animateTransform>
  <path d="M84.717,33.597c0.791-2.503,1.186-5.138,1.186-7.773C85.903,11.594,74.308,0,60.079,0 c-9.881,0-18.445,5.534-22.793,13.702c-1.581-0.527-3.426-0.791-5.138-0.791c-9.486,0-17.128,7.642-17.128,17.128 c0,1.186,0.132,2.372,0.395,3.426C6.719,34.783,0,42.424,0,51.515C0,61.66,8.169,69.829,18.314,69.829h63.373 C91.831,69.829,100,61.66,100,51.515C99.868,42.556,93.281,35.046,84.717,33.597z" fill="rgba(234, 211, 184, 0.4010323604460686)" transform="scale(0.85)"></path>
</g><g transform="translate(-100 1126.6487404213697) rotate(0)">
  <animateTransform attributeName="transform" type="translate" keyTimes="0;1" values="-100 1126.6487404213697;1916 1126.6487404213697" dur="83.33333333333333s" repeatCount="indefinite" begin="-54.32071460448806s"></animateTransform>
  <path d="M84.717,33.597c0.791-2.503,1.186-5.138,1.186-7.773C85.903,11.594,74.308,0,60.079,0 c-9.881,0-18.445,5.534-22.793,13.702c-1.581-0.527-3.426-0.791-5.138-0.791c-9.486,0-17.128,7.642-17.128,17.128 c0,1.186,0.132,2.372,0.395,3.426C6.719,34.783,0,42.424,0,51.515C0,61.66,8.169,69.829,18.314,69.829h63.373 C91.831,69.829,100,61.66,100,51.515C99.868,42.556,93.281,35.046,84.717,33.597z" fill="rgba(234, 211, 184, 0.4010323604460686)" transform="scale(0.85)"></path>
</g><g transform="translate(-100 775.380346765246) rotate(0)">
  <animateTransform attributeName="transform" type="translate" keyTimes="0;1" values="-100 775.380346765246;1916 775.380346765246" dur="83.33333333333333s" repeatCount="indefinite" begin="-62.85170256960054s"></animateTransform>
  <path d="M84.717,33.597c0.791-2.503,1.186-5.138,1.186-7.773C85.903,11.594,74.308,0,60.079,0 c-9.881,0-18.445,5.534-22.793,13.702c-1.581-0.527-3.426-0.791-5.138-0.791c-9.486,0-17.128,7.642-17.128,17.128 c0,1.186,0.132,2.372,0.395,3.426C6.719,34.783,0,42.424,0,51.515C0,61.66,8.169,69.829,18.314,69.829h63.373 C91.831,69.829,100,61.66,100,51.515C99.868,42.556,93.281,35.046,84.717,33.597z" fill="rgba(234, 211, 184, 0.4010323604460686)" transform="scale(0.85)"></path>
</g><g transform="translate(-100 41.777596224514156) rotate(0)">
  <animateTransform attributeName="transform" type="translate" keyTimes="0;1" values="-100 41.777596224514156;1916 41.777596224514156" dur="83.33333333333333s" repeatCount="indefinite" begin="-130.03273086307s"></animateTransform>
  <path d="M84.717,33.597c0.791-2.503,1.186-5.138,1.186-7.773C85.903,11.594,74.308,0,60.079,0 c-9.881,0-18.445,5.534-22.793,13.702c-1.581-0.527-3.426-0.791-5.138-0.791c-9.486,0-17.128,7.642-17.128,17.128 c0,1.186,0.132,2.372,0.395,3.426C6.719,34.783,0,42.424,0,51.515C0,61.66,8.169,69.829,18.314,69.829h63.373 C91.831,69.829,100,61.66,100,51.515C99.868,42.556,93.281,35.046,84.717,33.597z" fill="rgba(234, 211, 184, 0.4010323604460686)" transform="scale(0.85)"></path>
</g><g transform="translate(-100 688.7305846258375) rotate(0)">
  <animateTransform attributeName="transform" type="translate" keyTimes="0;1" values="-100 688.7305846258375;1916 688.7305846258375" dur="83.33333333333333s" repeatCount="indefinite" begin="-52.70235533411866s"></animateTransform>
  <path d="M84.717,33.597c0.791-2.503,1.186-5.138,1.186-7.773C85.903,11.594,74.308,0,60.079,0 c-9.881,0-18.445,5.534-22.793,13.702c-1.581-0.527-3.426-0.791-5.138-0.791c-9.486,0-17.128,7.642-17.128,17.128 c0,1.186,0.132,2.372,0.395,3.426C6.719,34.783,0,42.424,0,51.515C0,61.66,8.169,69.829,18.314,69.829h63.373 C91.831,69.829,100,61.66,100,51.515C99.868,42.556,93.281,35.046,84.717,33.597z" fill="rgba(234, 211, 184, 0.4010323604460686)" transform="scale(0.85)"></path>
</g><g transform="translate(-100 533.2825367372897) rotate(0)">
  <animateTransform attributeName="transform" type="translate" keyTimes="0;1" values="-100 533.2825367372897;1916 533.2825367372897" dur="83.33333333333333s" repeatCount="indefinite" begin="-209.3496628822031s"></animateTransform>
  <path d="M84.717,33.597c0.791-2.503,1.186-5.138,1.186-7.773C85.903,11.594,74.308,0,60.079,0 c-9.881,0-18.445,5.534-22.793,13.702c-1.581-0.527-3.426-0.791-5.138-0.791c-9.486,0-17.128,7.642-17.128,17.128 c0,1.186,0.132,2.372,0.395,3.426C6.719,34.783,0,42.424,0,51.515C0,61.66,8.169,69.829,18.314,69.829h63.373 C91.831,69.829,100,61.66,100,51.515C99.868,42.556,93.281,35.046,84.717,33.597z" fill="rgba(234, 211, 184, 0.4010323604460686)" transform="scale(0.85)"></path>
</g><g transform="translate(-100 156.79449036164422) rotate(0)">
  <animateTransform attributeName="transform" type="translate" keyTimes="0;1" values="-100 156.79449036164422;1916 156.79449036164422" dur="83.33333333333333s" repeatCount="indefinite" begin="-112.56179400726774s"></animateTransform>
  <path d="M84.717,33.597c0.791-2.503,1.186-5.138,1.186-7.773C85.903,11.594,74.308,0,60.079,0 c-9.881,0-18.445,5.534-22.793,13.702c-1.581-0.527-3.426-0.791-5.138-0.791c-9.486,0-17.128,7.642-17.128,17.128 c0,1.186,0.132,2.372,0.395,3.426C6.719,34.783,0,42.424,0,51.515C0,61.66,8.169,69.829,18.314,69.829h63.373 C91.831,69.829,100,61.66,100,51.515C99.868,42.556,93.281,35.046,84.717,33.597z" fill="rgba(234, 211, 184, 0.4010323604460686)" transform="scale(0.85)"></path>
</g><g transform="translate(-100 1131.901201519776) rotate(0)">
  <animateTransform attributeName="transform" type="translate" keyTimes="0;1" values="-100 1131.901201519776;1916 1131.901201519776" dur="83.33333333333333s" repeatCount="indefinite" begin="-9.331743739103393s"></animateTransform>
  <path d="M84.717,33.597c0.791-2.503,1.186-5.138,1.186-7.773C85.903,11.594,74.308,0,60.079,0 c-9.881,0-18.445,5.534-22.793,13.702c-1.581-0.527-3.426-0.791-5.138-0.791c-9.486,0-17.128,7.642-17.128,17.128 c0,1.186,0.132,2.372,0.395,3.426C6.719,34.783,0,42.424,0,51.515C0,61.66,8.169,69.829,18.314,69.829h63.373 C91.831,69.829,100,61.66,100,51.515C99.868,42.556,93.281,35.046,84.717,33.597z" fill="rgba(234, 211, 184, 0.4010323604460686)" transform="scale(0.85)"></path>
</g><g transform="translate(-100 1153.5436968916156) rotate(0)">
  <animateTransform attributeName="transform" type="translate" keyTimes="0;1" values="-100 1153.5436968916156;1916 1153.5436968916156" dur="83.33333333333333s" repeatCount="indefinite" begin="-91.72560033923833s"></animateTransform>
  <path d="M84.717,33.597c0.791-2.503,1.186-5.138,1.186-7.773C85.903,11.594,74.308,0,60.079,0 c-9.881,0-18.445,5.534-22.793,13.702c-1.581-0.527-3.426-0.791-5.138-0.791c-9.486,0-17.128,7.642-17.128,17.128 c0,1.186,0.132,2.372,0.395,3.426C6.719,34.783,0,42.424,0,51.515C0,61.66,8.169,69.829,18.314,69.829h63.373 C91.831,69.829,100,61.66,100,51.515C99.868,42.556,93.281,35.046,84.717,33.597z" fill="rgba(234, 211, 184, 0.4010323604460686)" transform="scale(0.85)"></path>
</g><g transform="translate(-100 289.77339138412174) rotate(0)">
  <animateTransform attributeName="transform" type="translate" keyTimes="0;1" values="-100 289.77339138412174;1916 289.77339138412174" dur="83.33333333333333s" repeatCount="indefinite" begin="-143.77992702542392s"></animateTransform>
  <path d="M84.717,33.597c0.791-2.503,1.186-5.138,1.186-7.773C85.903,11.594,74.308,0,60.079,0 c-9.881,0-18.445,5.534-22.793,13.702c-1.581-0.527-3.426-0.791-5.138-0.791c-9.486,0-17.128,7.642-17.128,17.128 c0,1.186,0.132,2.372,0.395,3.426C6.719,34.783,0,42.424,0,51.515C0,61.66,8.169,69.829,18.314,69.829h63.373 C91.831,69.829,100,61.66,100,51.515C99.868,42.556,93.281,35.046,84.717,33.597z" fill="rgba(234, 211, 184, 0.4010323604460686)" transform="scale(0.85)"></path>
</g><g transform="translate(-100 971.7821634225329) rotate(0)">
  <animateTransform attributeName="transform" type="translate" keyTimes="0;1" values="-100 971.7821634225329;1916 971.7821634225329" dur="83.33333333333333s" repeatCount="indefinite" begin="-12.736499090570398s"></animateTransform>
  <path d="M84.717,33.597c0.791-2.503,1.186-5.138,1.186-7.773C85.903,11.594,74.308,0,60.079,0 c-9.881,0-18.445,5.534-22.793,13.702c-1.581-0.527-3.426-0.791-5.138-0.791c-9.486,0-17.128,7.642-17.128,17.128 c0,1.186,0.132,2.372,0.395,3.426C6.719,34.783,0,42.424,0,51.515C0,61.66,8.169,69.829,18.314,69.829h63.373 C91.831,69.829,100,61.66,100,51.515C99.868,42.556,93.281,35.046,84.717,33.597z" fill="rgba(234, 211, 184, 0.4010323604460686)" transform="scale(0.85)"></path>
</g><g transform="translate(-100 665.1461044892102) rotate(0)">
  <animateTransform attributeName="transform" type="translate" keyTimes="0;1" values="-100 665.1461044892102;1916 665.1461044892102" dur="83.33333333333333s" repeatCount="indefinite" begin="-87.44190062173041s"></animateTransform>
  <path d="M84.717,33.597c0.791-2.503,1.186-5.138,1.186-7.773C85.903,11.594,74.308,0,60.079,0 c-9.881,0-18.445,5.534-22.793,13.702c-1.581-0.527-3.426-0.791-5.138-0.791c-9.486,0-17.128,7.642-17.128,17.128 c0,1.186,0.132,2.372,0.395,3.426C6.719,34.783,0,42.424,0,51.515C0,61.66,8.169,69.829,18.314,69.829h63.373 C91.831,69.829,100,61.66,100,51.515C99.868,42.556,93.281,35.046,84.717,33.597z" fill="rgba(234, 211, 184, 0.4010323604460686)" transform="scale(0.85)"></path>
</g><g transform="translate(-100 771.848291812222) rotate(0)">
  <animateTransform attributeName="transform" type="translate" keyTimes="0;1" values="-100 771.848291812222;1916 771.848291812222" dur="83.33333333333333s" repeatCount="indefinite" begin="-123.36862317152203s"></animateTransform>
  <path d="M84.717,33.597c0.791-2.503,1.186-5.138,1.186-7.773C85.903,11.594,74.308,0,60.079,0 c-9.881,0-18.445,5.534-22.793,13.702c-1.581-0.527-3.426-0.791-5.138-0.791c-9.486,0-17.128,7.642-17.128,17.128 c0,1.186,0.132,2.372,0.395,3.426C6.719,34.783,0,42.424,0,51.515C0,61.66,8.169,69.829,18.314,69.829h63.373 C91.831,69.829,100,61.66,100,51.515C99.868,42.556,93.281,35.046,84.717,33.597z" fill="rgba(234, 211, 184, 0.4010323604460686)" transform="scale(0.85)"></path>
</g><g transform="translate(-100 693.8853599915498) rotate(0)">
  <animateTransform attributeName="transform" type="translate" keyTimes="0;1" values="-100 693.8853599915498;1916 693.8853599915498" dur="62.5s" repeatCount="indefinite" begin="-174.4480144643765s"></animateTransform>
  <path d="M84.717,33.597c0.791-2.503,1.186-5.138,1.186-7.773C85.903,11.594,74.308,0,60.079,0 c-9.881,0-18.445,5.534-22.793,13.702c-1.581-0.527-3.426-0.791-5.138-0.791c-9.486,0-17.128,7.642-17.128,17.128 c0,1.186,0.132,2.372,0.395,3.426C6.719,34.783,0,42.424,0,51.515C0,61.66,8.169,69.829,18.314,69.829h63.373 C91.831,69.829,100,61.66,100,51.515C99.868,42.556,93.281,35.046,84.717,33.597z" fill="rgba(234, 211, 184, 0.6694194572202621)" transform="scale(1)"></path>
</g><g transform="translate(-100 115.89752334353385) rotate(0)">
  <animateTransform attributeName="transform" type="translate" keyTimes="0;1" values="-100 115.89752334353385;1916 115.89752334353385" dur="62.5s" repeatCount="indefinite" begin="-73.33288632850955s"></animateTransform>
  <path d="M84.717,33.597c0.791-2.503,1.186-5.138,1.186-7.773C85.903,11.594,74.308,0,60.079,0 c-9.881,0-18.445,5.534-22.793,13.702c-1.581-0.527-3.426-0.791-5.138-0.791c-9.486,0-17.128,7.642-17.128,17.128 c0,1.186,0.132,2.372,0.395,3.426C6.719,34.783,0,42.424,0,51.515C0,61.66,8.169,69.829,18.314,69.829h63.373 C91.831,69.829,100,61.66,100,51.515C99.868,42.556,93.281,35.046,84.717,33.597z" fill="rgba(234, 211, 184, 0.6694194572202621)" transform="scale(1)"></path>
</g><g transform="translate(-100 1026.2953051637958) rotate(0)">
  <animateTransform attributeName="transform" type="translate" keyTimes="0;1" values="-100 1026.2953051637958;1916 1026.2953051637958" dur="62.5s" repeatCount="indefinite" begin="-103.26586279971028s"></animateTransform>
  <path d="M84.717,33.597c0.791-2.503,1.186-5.138,1.186-7.773C85.903,11.594,74.308,0,60.079,0 c-9.881,0-18.445,5.534-22.793,13.702c-1.581-0.527-3.426-0.791-5.138-0.791c-9.486,0-17.128,7.642-17.128,17.128 c0,1.186,0.132,2.372,0.395,3.426C6.719,34.783,0,42.424,0,51.515C0,61.66,8.169,69.829,18.314,69.829h63.373 C91.831,69.829,100,61.66,100,51.515C99.868,42.556,93.281,35.046,84.717,33.597z" fill="rgba(234, 211, 184, 0.6694194572202621)" transform="scale(1)"></path>
</g><g transform="translate(-100 308.3216512928788) rotate(0)">
  <animateTransform attributeName="transform" type="translate" keyTimes="0;1" values="-100 308.3216512928788;1916 308.3216512928788" dur="62.5s" repeatCount="indefinite" begin="-139.81145573429248s"></animateTransform>
  <path d="M84.717,33.597c0.791-2.503,1.186-5.138,1.186-7.773C85.903,11.594,74.308,0,60.079,0 c-9.881,0-18.445,5.534-22.793,13.702c-1.581-0.527-3.426-0.791-5.138-0.791c-9.486,0-17.128,7.642-17.128,17.128 c0,1.186,0.132,2.372,0.395,3.426C6.719,34.783,0,42.424,0,51.515C0,61.66,8.169,69.829,18.314,69.829h63.373 C91.831,69.829,100,61.66,100,51.515C99.868,42.556,93.281,35.046,84.717,33.597z" fill="rgba(234, 211, 184, 0.6694194572202621)" transform="scale(1)"></path>
</g><g transform="translate(-100 938.112816049858) rotate(0)">
  <animateTransform attributeName="transform" type="translate" keyTimes="0;1" values="-100 938.112816049858;1916 938.112816049858" dur="62.5s" repeatCount="indefinite" begin="-23.057785833922708s"></animateTransform>
  <path d="M84.717,33.597c0.791-2.503,1.186-5.138,1.186-7.773C85.903,11.594,74.308,0,60.079,0 c-9.881,0-18.445,5.534-22.793,13.702c-1.581-0.527-3.426-0.791-5.138-0.791c-9.486,0-17.128,7.642-17.128,17.128 c0,1.186,0.132,2.372,0.395,3.426C6.719,34.783,0,42.424,0,51.515C0,61.66,8.169,69.829,18.314,69.829h63.373 C91.831,69.829,100,61.66,100,51.515C99.868,42.556,93.281,35.046,84.717,33.597z" fill="rgba(234, 211, 184, 0.6694194572202621)" transform="scale(1)"></path>
</g><g transform="translate(-100 1064.99555818854) rotate(0)">
  <animateTransform attributeName="transform" type="translate" keyTimes="0;1" values="-100 1064.99555818854;1916 1064.99555818854" dur="62.5s" repeatCount="indefinite" begin="-154.17845164219528s"></animateTransform>
  <path d="M84.717,33.597c0.791-2.503,1.186-5.138,1.186-7.773C85.903,11.594,74.308,0,60.079,0 c-9.881,0-18.445,5.534-22.793,13.702c-1.581-0.527-3.426-0.791-5.138-0.791c-9.486,0-17.128,7.642-17.128,17.128 c0,1.186,0.132,2.372,0.395,3.426C6.719,34.783,0,42.424,0,51.515C0,61.66,8.169,69.829,18.314,69.829h63.373 C91.831,69.829,100,61.66,100,51.515C99.868,42.556,93.281,35.046,84.717,33.597z" fill="rgba(234, 211, 184, 0.6694194572202621)" transform="scale(1)"></path>
</g><g transform="translate(-100 442.0188278768181) rotate(0)">
  <animateTransform attributeName="transform" type="translate" keyTimes="0;1" values="-100 442.0188278768181;1916 442.0188278768181" dur="62.5s" repeatCount="indefinite" begin="-16.321390521062796s"></animateTransform>
  <path d="M84.717,33.597c0.791-2.503,1.186-5.138,1.186-7.773C85.903,11.594,74.308,0,60.079,0 c-9.881,0-18.445,5.534-22.793,13.702c-1.581-0.527-3.426-0.791-5.138-0.791c-9.486,0-17.128,7.642-17.128,17.128 c0,1.186,0.132,2.372,0.395,3.426C6.719,34.783,0,42.424,0,51.515C0,61.66,8.169,69.829,18.314,69.829h63.373 C91.831,69.829,100,61.66,100,51.515C99.868,42.556,93.281,35.046,84.717,33.597z" fill="rgba(234, 211, 184, 0.6694194572202621)" transform="scale(1)"></path>
</g><g transform="translate(-100 636.8695838116392) rotate(0)">
  <animateTransform attributeName="transform" type="translate" keyTimes="0;1" values="-100 636.8695838116392;1916 636.8695838116392" dur="62.5s" repeatCount="indefinite" begin="-224.91887169260488s"></animateTransform>
  <path d="M84.717,33.597c0.791-2.503,1.186-5.138,1.186-7.773C85.903,11.594,74.308,0,60.079,0 c-9.881,0-18.445,5.534-22.793,13.702c-1.581-0.527-3.426-0.791-5.138-0.791c-9.486,0-17.128,7.642-17.128,17.128 c0,1.186,0.132,2.372,0.395,3.426C6.719,34.783,0,42.424,0,51.515C0,61.66,8.169,69.829,18.314,69.829h63.373 C91.831,69.829,100,61.66,100,51.515C99.868,42.556,93.281,35.046,84.717,33.597z" fill="rgba(234, 211, 184, 0.6694194572202621)" transform="scale(1)"></path>
</g><g transform="translate(-100 539.1700699744736) rotate(0)">
  <animateTransform attributeName="transform" type="translate" keyTimes="0;1" values="-100 539.1700699744736;1916 539.1700699744736" dur="62.5s" repeatCount="indefinite" begin="-123.18749702549403s"></animateTransform>
  <path d="M84.717,33.597c0.791-2.503,1.186-5.138,1.186-7.773C85.903,11.594,74.308,0,60.079,0 c-9.881,0-18.445,5.534-22.793,13.702c-1.581-0.527-3.426-0.791-5.138-0.791c-9.486,0-17.128,7.642-17.128,17.128 c0,1.186,0.132,2.372,0.395,3.426C6.719,34.783,0,42.424,0,51.515C0,61.66,8.169,69.829,18.314,69.829h63.373 C91.831,69.829,100,61.66,100,51.515C99.868,42.556,93.281,35.046,84.717,33.597z" fill="rgba(234, 211, 184, 0.6694194572202621)" transform="scale(1)"></path>
</g><g transform="translate(-100 936.4728981997728) rotate(0)">
  <animateTransform attributeName="transform" type="translate" keyTimes="0;1" values="-100 936.4728981997728;1916 936.4728981997728" dur="62.5s" repeatCount="indefinite" begin="-158.84448250806733s"></animateTransform>
  <path d="M84.717,33.597c0.791-2.503,1.186-5.138,1.186-7.773C85.903,11.594,74.308,0,60.079,0 c-9.881,0-18.445,5.534-22.793,13.702c-1.581-0.527-3.426-0.791-5.138-0.791c-9.486,0-17.128,7.642-17.128,17.128 c0,1.186,0.132,2.372,0.395,3.426C6.719,34.783,0,42.424,0,51.515C0,61.66,8.169,69.829,18.314,69.829h63.373 C91.831,69.829,100,61.66,100,51.515C99.868,42.556,93.281,35.046,84.717,33.597z" fill="rgba(234, 211, 184, 0.6694194572202621)" transform="scale(1)"></path>
</g><g transform="translate(-100 1087.136824645959) rotate(0)">
  <animateTransform attributeName="transform" type="translate" keyTimes="0;1" values="-100 1087.136824645959;1916 1087.136824645959" dur="62.5s" repeatCount="indefinite" begin="-228.55012046178453s"></animateTransform>
  <path d="M84.717,33.597c0.791-2.503,1.186-5.138,1.186-7.773C85.903,11.594,74.308,0,60.079,0 c-9.881,0-18.445,5.534-22.793,13.702c-1.581-0.527-3.426-0.791-5.138-0.791c-9.486,0-17.128,7.642-17.128,17.128 c0,1.186,0.132,2.372,0.395,3.426C6.719,34.783,0,42.424,0,51.515C0,61.66,8.169,69.829,18.314,69.829h63.373 C91.831,69.829,100,61.66,100,51.515C99.868,42.556,93.281,35.046,84.717,33.597z" fill="rgba(234, 211, 184, 0.6694194572202621)" transform="scale(1)"></path>
</g><g transform="translate(-100 1068.9112366931631) rotate(0)">
  <animateTransform attributeName="transform" type="translate" keyTimes="0;1" values="-100 1068.9112366931631;1916 1068.9112366931631" dur="62.5s" repeatCount="indefinite" begin="-82.22837136753324s"></animateTransform>
  <path d="M84.717,33.597c0.791-2.503,1.186-5.138,1.186-7.773C85.903,11.594,74.308,0,60.079,0 c-9.881,0-18.445,5.534-22.793,13.702c-1.581-0.527-3.426-0.791-5.138-0.791c-9.486,0-17.128,7.642-17.128,17.128 c0,1.186,0.132,2.372,0.395,3.426C6.719,34.783,0,42.424,0,51.515C0,61.66,8.169,69.829,18.314,69.829h63.373 C91.831,69.829,100,61.66,100,51.515C99.868,42.556,93.281,35.046,84.717,33.597z" fill="rgba(234, 211, 184, 0.6694194572202621)" transform="scale(1)"></path>
</g><g transform="translate(-100 333.67401777488004) rotate(0)">
  <animateTransform attributeName="transform" type="translate" keyTimes="0;1" values="-100 333.67401777488004;1916 333.67401777488004" dur="62.5s" repeatCount="indefinite" begin="-224.2426201917083s"></animateTransform>
  <path d="M84.717,33.597c0.791-2.503,1.186-5.138,1.186-7.773C85.903,11.594,74.308,0,60.079,0 c-9.881,0-18.445,5.534-22.793,13.702c-1.581-0.527-3.426-0.791-5.138-0.791c-9.486,0-17.128,7.642-17.128,17.128 c0,1.186,0.132,2.372,0.395,3.426C6.719,34.783,0,42.424,0,51.515C0,61.66,8.169,69.829,18.314,69.829h63.373 C91.831,69.829,100,61.66,100,51.515C99.868,42.556,93.281,35.046,84.717,33.597z" fill="rgba(234, 211, 184, 0.6694194572202621)" transform="scale(1)"></path>
</g><g transform="translate(-100 375.61499317570696) rotate(0)">
  <animateTransform attributeName="transform" type="translate" keyTimes="0;1" values="-100 375.61499317570696;1916 375.61499317570696" dur="62.5s" repeatCount="indefinite" begin="-75.92302844930488s"></animateTransform>
  <path d="M84.717,33.597c0.791-2.503,1.186-5.138,1.186-7.773C85.903,11.594,74.308,0,60.079,0 c-9.881,0-18.445,5.534-22.793,13.702c-1.581-0.527-3.426-0.791-5.138-0.791c-9.486,0-17.128,7.642-17.128,17.128 c0,1.186,0.132,2.372,0.395,3.426C6.719,34.783,0,42.424,0,51.515C0,61.66,8.169,69.829,18.314,69.829h63.373 C91.831,69.829,100,61.66,100,51.515C99.868,42.556,93.281,35.046,84.717,33.597z" fill="rgba(234, 211, 184, 0.6694194572202621)" transform="scale(1)"></path>
</g><g transform="translate(-100 153.5343715158469) rotate(0)">
  <animateTransform attributeName="transform" type="translate" keyTimes="0;1" values="-100 153.5343715158469;1916 153.5343715158469" dur="62.5s" repeatCount="indefinite" begin="-136.8409200157068s"></animateTransform>
  <path d="M84.717,33.597c0.791-2.503,1.186-5.138,1.186-7.773C85.903,11.594,74.308,0,60.079,0 c-9.881,0-18.445,5.534-22.793,13.702c-1.581-0.527-3.426-0.791-5.138-0.791c-9.486,0-17.128,7.642-17.128,17.128 c0,1.186,0.132,2.372,0.395,3.426C6.719,34.783,0,42.424,0,51.515C0,61.66,8.169,69.829,18.314,69.829h63.373 C91.831,69.829,100,61.66,100,51.515C99.868,42.556,93.281,35.046,84.717,33.597z" fill="rgba(234, 211, 184, 0.6694194572202621)" transform="scale(1)"></path>
</g><g transform="translate(-100 350.9391158846373) rotate(0)">
  <animateTransform attributeName="transform" type="translate" keyTimes="0;1" values="-100 350.9391158846373;1916 350.9391158846373" dur="62.5s" repeatCount="indefinite" begin="-23.226198667792353s"></animateTransform>
  <path d="M84.717,33.597c0.791-2.503,1.186-5.138,1.186-7.773C85.903,11.594,74.308,0,60.079,0 c-9.881,0-18.445,5.534-22.793,13.702c-1.581-0.527-3.426-0.791-5.138-0.791c-9.486,0-17.128,7.642-17.128,17.128 c0,1.186,0.132,2.372,0.395,3.426C6.719,34.783,0,42.424,0,51.515C0,61.66,8.169,69.829,18.314,69.829h63.373 C91.831,69.829,100,61.66,100,51.515C99.868,42.556,93.281,35.046,84.717,33.597z" fill="rgba(234, 211, 184, 0.6694194572202621)" transform="scale(1)"></path>
</g><g transform="translate(-100 552.4503311611728) rotate(0)">
  <animateTransform attributeName="transform" type="translate" keyTimes="0;1" values="-100 552.4503311611728;1916 552.4503311611728" dur="62.5s" repeatCount="indefinite" begin="-199.30407345171753s"></animateTransform>
  <path d="M84.717,33.597c0.791-2.503,1.186-5.138,1.186-7.773C85.903,11.594,74.308,0,60.079,0 c-9.881,0-18.445,5.534-22.793,13.702c-1.581-0.527-3.426-0.791-5.138-0.791c-9.486,0-17.128,7.642-17.128,17.128 c0,1.186,0.132,2.372,0.395,3.426C6.719,34.783,0,42.424,0,51.515C0,61.66,8.169,69.829,18.314,69.829h63.373 C91.831,69.829,100,61.66,100,51.515C99.868,42.556,93.281,35.046,84.717,33.597z" fill="rgba(234, 211, 184, 0.6694194572202621)" transform="scale(1)"></path>
</g><g transform="translate(-100 1116.7011423003057) rotate(0)">
  <animateTransform attributeName="transform" type="translate" keyTimes="0;1" values="-100 1116.7011423003057;1916 1116.7011423003057" dur="62.5s" repeatCount="indefinite" begin="-38.739259064273725s"></animateTransform>
  <path d="M84.717,33.597c0.791-2.503,1.186-5.138,1.186-7.773C85.903,11.594,74.308,0,60.079,0 c-9.881,0-18.445,5.534-22.793,13.702c-1.581-0.527-3.426-0.791-5.138-0.791c-9.486,0-17.128,7.642-17.128,17.128 c0,1.186,0.132,2.372,0.395,3.426C6.719,34.783,0,42.424,0,51.515C0,61.66,8.169,69.829,18.314,69.829h63.373 C91.831,69.829,100,61.66,100,51.515C99.868,42.556,93.281,35.046,84.717,33.597z" fill="rgba(234, 211, 184, 0.6694194572202621)" transform="scale(1)"></path>
</g><g transform="translate(-100 819.1571998143642) rotate(0)">
  <animateTransform attributeName="transform" type="translate" keyTimes="0;1" values="-100 819.1571998143642;1916 819.1571998143642" dur="62.5s" repeatCount="indefinite" begin="-14.699735398708281s"></animateTransform>
  <path d="M84.717,33.597c0.791-2.503,1.186-5.138,1.186-7.773C85.903,11.594,74.308,0,60.079,0 c-9.881,0-18.445,5.534-22.793,13.702c-1.581-0.527-3.426-0.791-5.138-0.791c-9.486,0-17.128,7.642-17.128,17.128 c0,1.186,0.132,2.372,0.395,3.426C6.719,34.783,0,42.424,0,51.515C0,61.66,8.169,69.829,18.314,69.829h63.373 C91.831,69.829,100,61.66,100,51.515C99.868,42.556,93.281,35.046,84.717,33.597z" fill="rgba(234, 211, 184, 0.6694194572202621)" transform="scale(1)"></path>
</g><g transform="translate(-100 558.7274490267505) rotate(0)">
  <animateTransform attributeName="transform" type="translate" keyTimes="0;1" values="-100 558.7274490267505;1916 558.7274490267505" dur="62.5s" repeatCount="indefinite" begin="-180.5027837261925s"></animateTransform>
  <path d="M84.717,33.597c0.791-2.503,1.186-5.138,1.186-7.773C85.903,11.594,74.308,0,60.079,0 c-9.881,0-18.445,5.534-22.793,13.702c-1.581-0.527-3.426-0.791-5.138-0.791c-9.486,0-17.128,7.642-17.128,17.128 c0,1.186,0.132,2.372,0.395,3.426C6.719,34.783,0,42.424,0,51.515C0,61.66,8.169,69.829,18.314,69.829h63.373 C91.831,69.829,100,61.66,100,51.515C99.868,42.556,93.281,35.046,84.717,33.597z" fill="rgba(234, 211, 184, 0.6694194572202621)" transform="scale(1)"></path>
</g><g transform="translate(-100 1085.878523048709) rotate(0)">
  <animateTransform attributeName="transform" type="translate" keyTimes="0;1" values="-100 1085.878523048709;1916 1085.878523048709" dur="62.5s" repeatCount="indefinite" begin="-231.1054791261738s"></animateTransform>
  <path d="M84.717,33.597c0.791-2.503,1.186-5.138,1.186-7.773C85.903,11.594,74.308,0,60.079,0 c-9.881,0-18.445,5.534-22.793,13.702c-1.581-0.527-3.426-0.791-5.138-0.791c-9.486,0-17.128,7.642-17.128,17.128 c0,1.186,0.132,2.372,0.395,3.426C6.719,34.783,0,42.424,0,51.515C0,61.66,8.169,69.829,18.314,69.829h63.373 C91.831,69.829,100,61.66,100,51.515C99.868,42.556,93.281,35.046,84.717,33.597z" fill="rgba(234, 211, 184, 0.6694194572202621)" transform="scale(1)"></path>
</g><g transform="translate(-100 82.9897508253226) rotate(0)">
  <animateTransform attributeName="transform" type="translate" keyTimes="0;1" values="-100 82.9897508253226;1916 82.9897508253226" dur="62.5s" repeatCount="indefinite" begin="-227.33769117173492s"></animateTransform>
  <path d="M84.717,33.597c0.791-2.503,1.186-5.138,1.186-7.773C85.903,11.594,74.308,0,60.079,0 c-9.881,0-18.445,5.534-22.793,13.702c-1.581-0.527-3.426-0.791-5.138-0.791c-9.486,0-17.128,7.642-17.128,17.128 c0,1.186,0.132,2.372,0.395,3.426C6.719,34.783,0,42.424,0,51.515C0,61.66,8.169,69.829,18.314,69.829h63.373 C91.831,69.829,100,61.66,100,51.515C99.868,42.556,93.281,35.046,84.717,33.597z" fill="rgba(234, 211, 184, 0.6694194572202621)" transform="scale(1)"></path>
</g><g transform="translate(-100 495.07711409477656) rotate(0)">
  <animateTransform attributeName="transform" type="translate" keyTimes="0;1" values="-100 495.07711409477656;1916 495.07711409477656" dur="62.5s" repeatCount="indefinite" begin="-76.19541914797846s"></animateTransform>
  <path d="M84.717,33.597c0.791-2.503,1.186-5.138,1.186-7.773C85.903,11.594,74.308,0,60.079,0 c-9.881,0-18.445,5.534-22.793,13.702c-1.581-0.527-3.426-0.791-5.138-0.791c-9.486,0-17.128,7.642-17.128,17.128 c0,1.186,0.132,2.372,0.395,3.426C6.719,34.783,0,42.424,0,51.515C0,61.66,8.169,69.829,18.314,69.829h63.373 C91.831,69.829,100,61.66,100,51.515C99.868,42.556,93.281,35.046,84.717,33.597z" fill="rgba(234, 211, 184, 0.6694194572202621)" transform="scale(1)"></path>
</g><g transform="translate(-100 573.2077930706027) rotate(0)">
  <animateTransform attributeName="transform" type="translate" keyTimes="0;1" values="-100 573.2077930706027;1916 573.2077930706027" dur="62.5s" repeatCount="indefinite" begin="-135.26314073493256s"></animateTransform>
  <path d="M84.717,33.597c0.791-2.503,1.186-5.138,1.186-7.773C85.903,11.594,74.308,0,60.079,0 c-9.881,0-18.445,5.534-22.793,13.702c-1.581-0.527-3.426-0.791-5.138-0.791c-9.486,0-17.128,7.642-17.128,17.128 c0,1.186,0.132,2.372,0.395,3.426C6.719,34.783,0,42.424,0,51.515C0,61.66,8.169,69.829,18.314,69.829h63.373 C91.831,69.829,100,61.66,100,51.515C99.868,42.556,93.281,35.046,84.717,33.597z" fill="rgba(234, 211, 184, 0.6694194572202621)" transform="scale(1)"></path>
</g><g transform="translate(-100 985.6920077616712) rotate(0)">
  <animateTransform attributeName="transform" type="translate" keyTimes="0;1" values="-100 985.6920077616712;1916 985.6920077616712" dur="62.5s" repeatCount="indefinite" begin="-166.1655744107283s"></animateTransform>
  <path d="M84.717,33.597c0.791-2.503,1.186-5.138,1.186-7.773C85.903,11.594,74.308,0,60.079,0 c-9.881,0-18.445,5.534-22.793,13.702c-1.581-0.527-3.426-0.791-5.138-0.791c-9.486,0-17.128,7.642-17.128,17.128 c0,1.186,0.132,2.372,0.395,3.426C6.719,34.783,0,42.424,0,51.515C0,61.66,8.169,69.829,18.314,69.829h63.373 C91.831,69.829,100,61.66,100,51.515C99.868,42.556,93.281,35.046,84.717,33.597z" fill="rgba(234, 211, 184, 0.6694194572202621)" transform="scale(1)"></path>
</g></g>
</svg>