<?xml version="1.0" encoding="utf-8"?>
<svg xmlns="http://www.w3.org/2000/svg" xmlns:xlink="http://www.w3.org/1999/xlink" style="margin: auto; background: rgba(255, 255, 255, 0); display: block; z-index: 1; position: relative; shape-rendering: auto;" width="2117" height="1283" preserveAspectRatio="xMidYMid" viewBox="0 0 2117 1283">
<g transform="translate(1058.5,641.5) scale(1,1) translate(-1058.5,-641.5)"><g transform="translate(-100 270.6758607356815) rotate(0)">
  <animateTransform attributeName="transform" type="translate" keyTimes="0;1" values="-100 270.6758607356815;2117 270.6758607356815" dur="333.3333333333333s" repeatCount="indefinite" begin="-260.33138521186197s"></animateTransform>
  <path d="M84.717,33.597c0.791-2.503,1.186-5.138,1.186-7.773C85.903,11.594,74.308,0,60.079,0 c-9.881,0-18.445,5.534-22.793,13.702c-1.581-0.527-3.426-0.791-5.138-0.791c-9.486,0-17.128,7.642-17.128,17.128 c0,1.186,0.132,2.372,0.395,3.426C6.719,34.783,0,42.424,0,51.515C0,61.66,8.169,69.829,18.314,69.829h63.373 C91.831,69.829,100,61.66,100,51.515C99.868,42.556,93.281,35.046,84.717,33.597z" fill="rgba(180, 178, 221, 0.437883064516129)" transform="scale(0.55)"></path>
</g><g transform="translate(-100 35.7500003793549) rotate(0)">
  <animateTransform attributeName="transform" type="translate" keyTimes="0;1" values="-100 35.7500003793549;2117 35.7500003793549" dur="333.3333333333333s" repeatCount="indefinite" begin="-72.53640613058391s"></animateTransform>
  <path d="M84.717,33.597c0.791-2.503,1.186-5.138,1.186-7.773C85.903,11.594,74.308,0,60.079,0 c-9.881,0-18.445,5.534-22.793,13.702c-1.581-0.527-3.426-0.791-5.138-0.791c-9.486,0-17.128,7.642-17.128,17.128 c0,1.186,0.132,2.372,0.395,3.426C6.719,34.783,0,42.424,0,51.515C0,61.66,8.169,69.829,18.314,69.829h63.373 C91.831,69.829,100,61.66,100,51.515C99.868,42.556,93.281,35.046,84.717,33.597z" fill="rgba(180, 178, 221, 0.437883064516129)" transform="scale(0.55)"></path>
</g><g transform="translate(-100 1121.448547001342) rotate(0)">
  <animateTransform attributeName="transform" type="translate" keyTimes="0;1" values="-100 1121.448547001342;2117 1121.448547001342" dur="333.3333333333333s" repeatCount="indefinite" begin="-105.81385756328275s"></animateTransform>
  <path d="M84.717,33.597c0.791-2.503,1.186-5.138,1.186-7.773C85.903,11.594,74.308,0,60.079,0 c-9.881,0-18.445,5.534-22.793,13.702c-1.581-0.527-3.426-0.791-5.138-0.791c-9.486,0-17.128,7.642-17.128,17.128 c0,1.186,0.132,2.372,0.395,3.426C6.719,34.783,0,42.424,0,51.515C0,61.66,8.169,69.829,18.314,69.829h63.373 C91.831,69.829,100,61.66,100,51.515C99.868,42.556,93.281,35.046,84.717,33.597z" fill="rgba(180, 178, 221, 0.437883064516129)" transform="scale(0.55)"></path>
</g><g transform="translate(-100 814.4594500191685) rotate(0)">
  <animateTransform attributeName="transform" type="translate" keyTimes="0;1" values="-100 814.4594500191685;2117 814.4594500191685" dur="333.3333333333333s" repeatCount="indefinite" begin="-203.4787654247503s"></animateTransform>
  <path d="M84.717,33.597c0.791-2.503,1.186-5.138,1.186-7.773C85.903,11.594,74.308,0,60.079,0 c-9.881,0-18.445,5.534-22.793,13.702c-1.581-0.527-3.426-0.791-5.138-0.791c-9.486,0-17.128,7.642-17.128,17.128 c0,1.186,0.132,2.372,0.395,3.426C6.719,34.783,0,42.424,0,51.515C0,61.66,8.169,69.829,18.314,69.829h63.373 C91.831,69.829,100,61.66,100,51.515C99.868,42.556,93.281,35.046,84.717,33.597z" fill="rgba(180, 178, 221, 0.437883064516129)" transform="scale(0.55)"></path>
</g><g transform="translate(-100 458.58336545269617) rotate(0)">
  <animateTransform attributeName="transform" type="translate" keyTimes="0;1" values="-100 458.58336545269617;2117 458.58336545269617" dur="333.3333333333333s" repeatCount="indefinite" begin="-170.7997052673326s"></animateTransform>
  <path d="M84.717,33.597c0.791-2.503,1.186-5.138,1.186-7.773C85.903,11.594,74.308,0,60.079,0 c-9.881,0-18.445,5.534-22.793,13.702c-1.581-0.527-3.426-0.791-5.138-0.791c-9.486,0-17.128,7.642-17.128,17.128 c0,1.186,0.132,2.372,0.395,3.426C6.719,34.783,0,42.424,0,51.515C0,61.66,8.169,69.829,18.314,69.829h63.373 C91.831,69.829,100,61.66,100,51.515C99.868,42.556,93.281,35.046,84.717,33.597z" fill="rgba(180, 178, 221, 0.437883064516129)" transform="scale(0.55)"></path>
</g><g transform="translate(-100 850.4541051767684) rotate(0)">
  <animateTransform attributeName="transform" type="translate" keyTimes="0;1" values="-100 850.4541051767684;2117 850.4541051767684" dur="333.3333333333333s" repeatCount="indefinite" begin="-87.63966645443632s"></animateTransform>
  <path d="M84.717,33.597c0.791-2.503,1.186-5.138,1.186-7.773C85.903,11.594,74.308,0,60.079,0 c-9.881,0-18.445,5.534-22.793,13.702c-1.581-0.527-3.426-0.791-5.138-0.791c-9.486,0-17.128,7.642-17.128,17.128 c0,1.186,0.132,2.372,0.395,3.426C6.719,34.783,0,42.424,0,51.515C0,61.66,8.169,69.829,18.314,69.829h63.373 C91.831,69.829,100,61.66,100,51.515C99.868,42.556,93.281,35.046,84.717,33.597z" fill="rgba(180, 178, 221, 0.437883064516129)" transform="scale(0.55)"></path>
</g><g transform="translate(-100 834.9542549644207) rotate(0)">
  <animateTransform attributeName="transform" type="translate" keyTimes="0;1" values="-100 834.9542549644207;2117 834.9542549644207" dur="333.3333333333333s" repeatCount="indefinite" begin="-126.19766020391113s"></animateTransform>
  <path d="M84.717,33.597c0.791-2.503,1.186-5.138,1.186-7.773C85.903,11.594,74.308,0,60.079,0 c-9.881,0-18.445,5.534-22.793,13.702c-1.581-0.527-3.426-0.791-5.138-0.791c-9.486,0-17.128,7.642-17.128,17.128 c0,1.186,0.132,2.372,0.395,3.426C6.719,34.783,0,42.424,0,51.515C0,61.66,8.169,69.829,18.314,69.829h63.373 C91.831,69.829,100,61.66,100,51.515C99.868,42.556,93.281,35.046,84.717,33.597z" fill="rgba(180, 178, 221, 0.437883064516129)" transform="scale(0.55)"></path>
</g><g transform="translate(-100 1071.9678268215282) rotate(0)">
  <animateTransform attributeName="transform" type="translate" keyTimes="0;1" values="-100 1071.9678268215282;2117 1071.9678268215282" dur="333.3333333333333s" repeatCount="indefinite" begin="-94.81997457883732s"></animateTransform>
  <path d="M84.717,33.597c0.791-2.503,1.186-5.138,1.186-7.773C85.903,11.594,74.308,0,60.079,0 c-9.881,0-18.445,5.534-22.793,13.702c-1.581-0.527-3.426-0.791-5.138-0.791c-9.486,0-17.128,7.642-17.128,17.128 c0,1.186,0.132,2.372,0.395,3.426C6.719,34.783,0,42.424,0,51.515C0,61.66,8.169,69.829,18.314,69.829h63.373 C91.831,69.829,100,61.66,100,51.515C99.868,42.556,93.281,35.046,84.717,33.597z" fill="rgba(180, 178, 221, 0.437883064516129)" transform="scale(0.55)"></path>
</g><g transform="translate(-100 128.93176339223635) rotate(0)">
  <animateTransform attributeName="transform" type="translate" keyTimes="0;1" values="-100 128.93176339223635;2117 128.93176339223635" dur="333.3333333333333s" repeatCount="indefinite" begin="-296.4694351871696s"></animateTransform>
  <path d="M84.717,33.597c0.791-2.503,1.186-5.138,1.186-7.773C85.903,11.594,74.308,0,60.079,0 c-9.881,0-18.445,5.534-22.793,13.702c-1.581-0.527-3.426-0.791-5.138-0.791c-9.486,0-17.128,7.642-17.128,17.128 c0,1.186,0.132,2.372,0.395,3.426C6.719,34.783,0,42.424,0,51.515C0,61.66,8.169,69.829,18.314,69.829h63.373 C91.831,69.829,100,61.66,100,51.515C99.868,42.556,93.281,35.046,84.717,33.597z" fill="rgba(180, 178, 221, 0.437883064516129)" transform="scale(0.55)"></path>
</g><g transform="translate(-100 1228.7883456842098) rotate(0)">
  <animateTransform attributeName="transform" type="translate" keyTimes="0;1" values="-100 1228.7883456842098;2117 1228.7883456842098" dur="333.3333333333333s" repeatCount="indefinite" begin="-53.662635567250405s"></animateTransform>
  <path d="M84.717,33.597c0.791-2.503,1.186-5.138,1.186-7.773C85.903,11.594,74.308,0,60.079,0 c-9.881,0-18.445,5.534-22.793,13.702c-1.581-0.527-3.426-0.791-5.138-0.791c-9.486,0-17.128,7.642-17.128,17.128 c0,1.186,0.132,2.372,0.395,3.426C6.719,34.783,0,42.424,0,51.515C0,61.66,8.169,69.829,18.314,69.829h63.373 C91.831,69.829,100,61.66,100,51.515C99.868,42.556,93.281,35.046,84.717,33.597z" fill="rgba(180, 178, 221, 0.437883064516129)" transform="scale(0.55)"></path>
</g><g transform="translate(-100 921.0807311697492) rotate(0)">
  <animateTransform attributeName="transform" type="translate" keyTimes="0;1" values="-100 921.0807311697492;2117 921.0807311697492" dur="333.3333333333333s" repeatCount="indefinite" begin="-20.463666540638357s"></animateTransform>
  <path d="M84.717,33.597c0.791-2.503,1.186-5.138,1.186-7.773C85.903,11.594,74.308,0,60.079,0 c-9.881,0-18.445,5.534-22.793,13.702c-1.581-0.527-3.426-0.791-5.138-0.791c-9.486,0-17.128,7.642-17.128,17.128 c0,1.186,0.132,2.372,0.395,3.426C6.719,34.783,0,42.424,0,51.515C0,61.66,8.169,69.829,18.314,69.829h63.373 C91.831,69.829,100,61.66,100,51.515C99.868,42.556,93.281,35.046,84.717,33.597z" fill="rgba(180, 178, 221, 0.437883064516129)" transform="scale(0.55)"></path>
</g><g transform="translate(-100 126.81948608243994) rotate(0)">
  <animateTransform attributeName="transform" type="translate" keyTimes="0;1" values="-100 126.81948608243994;2117 126.81948608243994" dur="333.3333333333333s" repeatCount="indefinite" begin="-44.6011540519818s"></animateTransform>
  <path d="M84.717,33.597c0.791-2.503,1.186-5.138,1.186-7.773C85.903,11.594,74.308,0,60.079,0 c-9.881,0-18.445,5.534-22.793,13.702c-1.581-0.527-3.426-0.791-5.138-0.791c-9.486,0-17.128,7.642-17.128,17.128 c0,1.186,0.132,2.372,0.395,3.426C6.719,34.783,0,42.424,0,51.515C0,61.66,8.169,69.829,18.314,69.829h63.373 C91.831,69.829,100,61.66,100,51.515C99.868,42.556,93.281,35.046,84.717,33.597z" fill="rgba(180, 178, 221, 0.437883064516129)" transform="scale(0.55)"></path>
</g><g transform="translate(-100 884.3736192925568) rotate(0)">
  <animateTransform attributeName="transform" type="translate" keyTimes="0;1" values="-100 884.3736192925568;2117 884.3736192925568" dur="333.3333333333333s" repeatCount="indefinite" begin="-157.39233691842327s"></animateTransform>
  <path d="M84.717,33.597c0.791-2.503,1.186-5.138,1.186-7.773C85.903,11.594,74.308,0,60.079,0 c-9.881,0-18.445,5.534-22.793,13.702c-1.581-0.527-3.426-0.791-5.138-0.791c-9.486,0-17.128,7.642-17.128,17.128 c0,1.186,0.132,2.372,0.395,3.426C6.719,34.783,0,42.424,0,51.515C0,61.66,8.169,69.829,18.314,69.829h63.373 C91.831,69.829,100,61.66,100,51.515C99.868,42.556,93.281,35.046,84.717,33.597z" fill="rgba(180, 178, 221, 0.437883064516129)" transform="scale(0.55)"></path>
</g><g transform="translate(-100 397.63586720002513) rotate(0)">
  <animateTransform attributeName="transform" type="translate" keyTimes="0;1" values="-100 397.63586720002513;2117 397.63586720002513" dur="166.66666666666666s" repeatCount="indefinite" begin="-241.31103351292032s"></animateTransform>
  <path d="M84.717,33.597c0.791-2.503,1.186-5.138,1.186-7.773C85.903,11.594,74.308,0,60.079,0 c-9.881,0-18.445,5.534-22.793,13.702c-1.581-0.527-3.426-0.791-5.138-0.791c-9.486,0-17.128,7.642-17.128,17.128 c0,1.186,0.132,2.372,0.395,3.426C6.719,34.783,0,42.424,0,51.515C0,61.66,8.169,69.829,18.314,69.829h63.373 C91.831,69.829,100,61.66,100,51.515C99.868,42.556,93.281,35.046,84.717,33.597z" fill="rgba(181, 179, 212, 0.437883064516129)" transform="scale(0.7)"></path>
</g><g transform="translate(-100 772.7987893901714) rotate(0)">
  <animateTransform attributeName="transform" type="translate" keyTimes="0;1" values="-100 772.7987893901714;2117 772.7987893901714" dur="166.66666666666666s" repeatCount="indefinite" begin="-269.19029792215747s"></animateTransform>
  <path d="M84.717,33.597c0.791-2.503,1.186-5.138,1.186-7.773C85.903,11.594,74.308,0,60.079,0 c-9.881,0-18.445,5.534-22.793,13.702c-1.581-0.527-3.426-0.791-5.138-0.791c-9.486,0-17.128,7.642-17.128,17.128 c0,1.186,0.132,2.372,0.395,3.426C6.719,34.783,0,42.424,0,51.515C0,61.66,8.169,69.829,18.314,69.829h63.373 C91.831,69.829,100,61.66,100,51.515C99.868,42.556,93.281,35.046,84.717,33.597z" fill="rgba(181, 179, 212, 0.437883064516129)" transform="scale(0.7)"></path>
</g><g transform="translate(-100 965.0401450366105) rotate(0)">
  <animateTransform attributeName="transform" type="translate" keyTimes="0;1" values="-100 965.0401450366105;2117 965.0401450366105" dur="166.66666666666666s" repeatCount="indefinite" begin="-254.29823832393768s"></animateTransform>
  <path d="M84.717,33.597c0.791-2.503,1.186-5.138,1.186-7.773C85.903,11.594,74.308,0,60.079,0 c-9.881,0-18.445,5.534-22.793,13.702c-1.581-0.527-3.426-0.791-5.138-0.791c-9.486,0-17.128,7.642-17.128,17.128 c0,1.186,0.132,2.372,0.395,3.426C6.719,34.783,0,42.424,0,51.515C0,61.66,8.169,69.829,18.314,69.829h63.373 C91.831,69.829,100,61.66,100,51.515C99.868,42.556,93.281,35.046,84.717,33.597z" fill="rgba(181, 179, 212, 0.437883064516129)" transform="scale(0.7)"></path>
</g><g transform="translate(-100 454.93255917375313) rotate(0)">
  <animateTransform attributeName="transform" type="translate" keyTimes="0;1" values="-100 454.93255917375313;2117 454.93255917375313" dur="166.66666666666666s" repeatCount="indefinite" begin="-44.19172513327685s"></animateTransform>
  <path d="M84.717,33.597c0.791-2.503,1.186-5.138,1.186-7.773C85.903,11.594,74.308,0,60.079,0 c-9.881,0-18.445,5.534-22.793,13.702c-1.581-0.527-3.426-0.791-5.138-0.791c-9.486,0-17.128,7.642-17.128,17.128 c0,1.186,0.132,2.372,0.395,3.426C6.719,34.783,0,42.424,0,51.515C0,61.66,8.169,69.829,18.314,69.829h63.373 C91.831,69.829,100,61.66,100,51.515C99.868,42.556,93.281,35.046,84.717,33.597z" fill="rgba(181, 179, 212, 0.437883064516129)" transform="scale(0.7)"></path>
</g><g transform="translate(-100 72.70077396788557) rotate(0)">
  <animateTransform attributeName="transform" type="translate" keyTimes="0;1" values="-100 72.70077396788557;2117 72.70077396788557" dur="166.66666666666666s" repeatCount="indefinite" begin="-23.31543826355927s"></animateTransform>
  <path d="M84.717,33.597c0.791-2.503,1.186-5.138,1.186-7.773C85.903,11.594,74.308,0,60.079,0 c-9.881,0-18.445,5.534-22.793,13.702c-1.581-0.527-3.426-0.791-5.138-0.791c-9.486,0-17.128,7.642-17.128,17.128 c0,1.186,0.132,2.372,0.395,3.426C6.719,34.783,0,42.424,0,51.515C0,61.66,8.169,69.829,18.314,69.829h63.373 C91.831,69.829,100,61.66,100,51.515C99.868,42.556,93.281,35.046,84.717,33.597z" fill="rgba(181, 179, 212, 0.437883064516129)" transform="scale(0.7)"></path>
</g><g transform="translate(-100 1270.4046411530594) rotate(0)">
  <animateTransform attributeName="transform" type="translate" keyTimes="0;1" values="-100 1270.4046411530594;2117 1270.4046411530594" dur="166.66666666666666s" repeatCount="indefinite" begin="-58.07023061715677s"></animateTransform>
  <path d="M84.717,33.597c0.791-2.503,1.186-5.138,1.186-7.773C85.903,11.594,74.308,0,60.079,0 c-9.881,0-18.445,5.534-22.793,13.702c-1.581-0.527-3.426-0.791-5.138-0.791c-9.486,0-17.128,7.642-17.128,17.128 c0,1.186,0.132,2.372,0.395,3.426C6.719,34.783,0,42.424,0,51.515C0,61.66,8.169,69.829,18.314,69.829h63.373 C91.831,69.829,100,61.66,100,51.515C99.868,42.556,93.281,35.046,84.717,33.597z" fill="rgba(181, 179, 212, 0.437883064516129)" transform="scale(0.7)"></path>
</g><g transform="translate(-100 1088.1924480027337) rotate(0)">
  <animateTransform attributeName="transform" type="translate" keyTimes="0;1" values="-100 1088.1924480027337;2117 1088.1924480027337" dur="166.66666666666666s" repeatCount="indefinite" begin="-220.5270855021438s"></animateTransform>
  <path d="M84.717,33.597c0.791-2.503,1.186-5.138,1.186-7.773C85.903,11.594,74.308,0,60.079,0 c-9.881,0-18.445,5.534-22.793,13.702c-1.581-0.527-3.426-0.791-5.138-0.791c-9.486,0-17.128,7.642-17.128,17.128 c0,1.186,0.132,2.372,0.395,3.426C6.719,34.783,0,42.424,0,51.515C0,61.66,8.169,69.829,18.314,69.829h63.373 C91.831,69.829,100,61.66,100,51.515C99.868,42.556,93.281,35.046,84.717,33.597z" fill="rgba(181, 179, 212, 0.437883064516129)" transform="scale(0.7)"></path>
</g><g transform="translate(-100 834.0890675603968) rotate(0)">
  <animateTransform attributeName="transform" type="translate" keyTimes="0;1" values="-100 834.0890675603968;2117 834.0890675603968" dur="166.66666666666666s" repeatCount="indefinite" begin="-255.60535787122805s"></animateTransform>
  <path d="M84.717,33.597c0.791-2.503,1.186-5.138,1.186-7.773C85.903,11.594,74.308,0,60.079,0 c-9.881,0-18.445,5.534-22.793,13.702c-1.581-0.527-3.426-0.791-5.138-0.791c-9.486,0-17.128,7.642-17.128,17.128 c0,1.186,0.132,2.372,0.395,3.426C6.719,34.783,0,42.424,0,51.515C0,61.66,8.169,69.829,18.314,69.829h63.373 C91.831,69.829,100,61.66,100,51.515C99.868,42.556,93.281,35.046,84.717,33.597z" fill="rgba(181, 179, 212, 0.437883064516129)" transform="scale(0.7)"></path>
</g><g transform="translate(-100 871.4706117540375) rotate(0)">
  <animateTransform attributeName="transform" type="translate" keyTimes="0;1" values="-100 871.4706117540375;2117 871.4706117540375" dur="166.66666666666666s" repeatCount="indefinite" begin="-227.11288955931255s"></animateTransform>
  <path d="M84.717,33.597c0.791-2.503,1.186-5.138,1.186-7.773C85.903,11.594,74.308,0,60.079,0 c-9.881,0-18.445,5.534-22.793,13.702c-1.581-0.527-3.426-0.791-5.138-0.791c-9.486,0-17.128,7.642-17.128,17.128 c0,1.186,0.132,2.372,0.395,3.426C6.719,34.783,0,42.424,0,51.515C0,61.66,8.169,69.829,18.314,69.829h63.373 C91.831,69.829,100,61.66,100,51.515C99.868,42.556,93.281,35.046,84.717,33.597z" fill="rgba(181, 179, 212, 0.437883064516129)" transform="scale(0.7)"></path>
</g><g transform="translate(-100 42.82467309572762) rotate(0)">
  <animateTransform attributeName="transform" type="translate" keyTimes="0;1" values="-100 42.82467309572762;2117 42.82467309572762" dur="166.66666666666666s" repeatCount="indefinite" begin="-318.3574642390416s"></animateTransform>
  <path d="M84.717,33.597c0.791-2.503,1.186-5.138,1.186-7.773C85.903,11.594,74.308,0,60.079,0 c-9.881,0-18.445,5.534-22.793,13.702c-1.581-0.527-3.426-0.791-5.138-0.791c-9.486,0-17.128,7.642-17.128,17.128 c0,1.186,0.132,2.372,0.395,3.426C6.719,34.783,0,42.424,0,51.515C0,61.66,8.169,69.829,18.314,69.829h63.373 C91.831,69.829,100,61.66,100,51.515C99.868,42.556,93.281,35.046,84.717,33.597z" fill="rgba(181, 179, 212, 0.437883064516129)" transform="scale(0.7)"></path>
</g><g transform="translate(-100 916.0564215315488) rotate(0)">
  <animateTransform attributeName="transform" type="translate" keyTimes="0;1" values="-100 916.0564215315488;2117 916.0564215315488" dur="166.66666666666666s" repeatCount="indefinite" begin="-295.971148494455s"></animateTransform>
  <path d="M84.717,33.597c0.791-2.503,1.186-5.138,1.186-7.773C85.903,11.594,74.308,0,60.079,0 c-9.881,0-18.445,5.534-22.793,13.702c-1.581-0.527-3.426-0.791-5.138-0.791c-9.486,0-17.128,7.642-17.128,17.128 c0,1.186,0.132,2.372,0.395,3.426C6.719,34.783,0,42.424,0,51.515C0,61.66,8.169,69.829,18.314,69.829h63.373 C91.831,69.829,100,61.66,100,51.515C99.868,42.556,93.281,35.046,84.717,33.597z" fill="rgba(181, 179, 212, 0.437883064516129)" transform="scale(0.7)"></path>
</g><g transform="translate(-100 175.9950903203162) rotate(0)">
  <animateTransform attributeName="transform" type="translate" keyTimes="0;1" values="-100 175.9950903203162;2117 175.9950903203162" dur="166.66666666666666s" repeatCount="indefinite" begin="-73.80636150075803s"></animateTransform>
  <path d="M84.717,33.597c0.791-2.503,1.186-5.138,1.186-7.773C85.903,11.594,74.308,0,60.079,0 c-9.881,0-18.445,5.534-22.793,13.702c-1.581-0.527-3.426-0.791-5.138-0.791c-9.486,0-17.128,7.642-17.128,17.128 c0,1.186,0.132,2.372,0.395,3.426C6.719,34.783,0,42.424,0,51.515C0,61.66,8.169,69.829,18.314,69.829h63.373 C91.831,69.829,100,61.66,100,51.515C99.868,42.556,93.281,35.046,84.717,33.597z" fill="rgba(181, 179, 212, 0.437883064516129)" transform="scale(0.7)"></path>
</g><g transform="translate(-100 501.3656099306488) rotate(0)">
  <animateTransform attributeName="transform" type="translate" keyTimes="0;1" values="-100 501.3656099306488;2117 501.3656099306488" dur="166.66666666666666s" repeatCount="indefinite" begin="-208.6341257872885s"></animateTransform>
  <path d="M84.717,33.597c0.791-2.503,1.186-5.138,1.186-7.773C85.903,11.594,74.308,0,60.079,0 c-9.881,0-18.445,5.534-22.793,13.702c-1.581-0.527-3.426-0.791-5.138-0.791c-9.486,0-17.128,7.642-17.128,17.128 c0,1.186,0.132,2.372,0.395,3.426C6.719,34.783,0,42.424,0,51.515C0,61.66,8.169,69.829,18.314,69.829h63.373 C91.831,69.829,100,61.66,100,51.515C99.868,42.556,93.281,35.046,84.717,33.597z" fill="rgba(181, 179, 212, 0.437883064516129)" transform="scale(0.7)"></path>
</g><g transform="translate(-100 437.85416933032656) rotate(0)">
  <animateTransform attributeName="transform" type="translate" keyTimes="0;1" values="-100 437.85416933032656;2117 437.85416933032656" dur="111.1111111111111s" repeatCount="indefinite" begin="-51.103474442957705s"></animateTransform>
  <path d="M84.717,33.597c0.791-2.503,1.186-5.138,1.186-7.773C85.903,11.594,74.308,0,60.079,0 c-9.881,0-18.445,5.534-22.793,13.702c-1.581-0.527-3.426-0.791-5.138-0.791c-9.486,0-17.128,7.642-17.128,17.128 c0,1.186,0.132,2.372,0.395,3.426C6.719,34.783,0,42.424,0,51.515C0,61.66,8.169,69.829,18.314,69.829h63.373 C91.831,69.829,100,61.66,100,51.515C99.868,42.556,93.281,35.046,84.717,33.597z" fill="rgba(160, 158, 187, 0.437883064516129)" transform="scale(0.85)"></path>
</g><g transform="translate(-100 699.9202768531555) rotate(0)">
  <animateTransform attributeName="transform" type="translate" keyTimes="0;1" values="-100 699.9202768531555;2117 699.9202768531555" dur="111.1111111111111s" repeatCount="indefinite" begin="-11.642632910576173s"></animateTransform>
  <path d="M84.717,33.597c0.791-2.503,1.186-5.138,1.186-7.773C85.903,11.594,74.308,0,60.079,0 c-9.881,0-18.445,5.534-22.793,13.702c-1.581-0.527-3.426-0.791-5.138-0.791c-9.486,0-17.128,7.642-17.128,17.128 c0,1.186,0.132,2.372,0.395,3.426C6.719,34.783,0,42.424,0,51.515C0,61.66,8.169,69.829,18.314,69.829h63.373 C91.831,69.829,100,61.66,100,51.515C99.868,42.556,93.281,35.046,84.717,33.597z" fill="rgba(160, 158, 187, 0.437883064516129)" transform="scale(0.85)"></path>
</g><g transform="translate(-100 1258.2306669458621) rotate(0)">
  <animateTransform attributeName="transform" type="translate" keyTimes="0;1" values="-100 1258.2306669458621;2117 1258.2306669458621" dur="111.1111111111111s" repeatCount="indefinite" begin="-151.01808663672395s"></animateTransform>
  <path d="M84.717,33.597c0.791-2.503,1.186-5.138,1.186-7.773C85.903,11.594,74.308,0,60.079,0 c-9.881,0-18.445,5.534-22.793,13.702c-1.581-0.527-3.426-0.791-5.138-0.791c-9.486,0-17.128,7.642-17.128,17.128 c0,1.186,0.132,2.372,0.395,3.426C6.719,34.783,0,42.424,0,51.515C0,61.66,8.169,69.829,18.314,69.829h63.373 C91.831,69.829,100,61.66,100,51.515C99.868,42.556,93.281,35.046,84.717,33.597z" fill="rgba(160, 158, 187, 0.437883064516129)" transform="scale(0.85)"></path>
</g><g transform="translate(-100 960.2198100670563) rotate(0)">
  <animateTransform attributeName="transform" type="translate" keyTimes="0;1" values="-100 960.2198100670563;2117 960.2198100670563" dur="111.1111111111111s" repeatCount="indefinite" begin="-317.93703782782s"></animateTransform>
  <path d="M84.717,33.597c0.791-2.503,1.186-5.138,1.186-7.773C85.903,11.594,74.308,0,60.079,0 c-9.881,0-18.445,5.534-22.793,13.702c-1.581-0.527-3.426-0.791-5.138-0.791c-9.486,0-17.128,7.642-17.128,17.128 c0,1.186,0.132,2.372,0.395,3.426C6.719,34.783,0,42.424,0,51.515C0,61.66,8.169,69.829,18.314,69.829h63.373 C91.831,69.829,100,61.66,100,51.515C99.868,42.556,93.281,35.046,84.717,33.597z" fill="rgba(160, 158, 187, 0.437883064516129)" transform="scale(0.85)"></path>
</g><g transform="translate(-100 683.3444920630071) rotate(0)">
  <animateTransform attributeName="transform" type="translate" keyTimes="0;1" values="-100 683.3444920630071;2117 683.3444920630071" dur="111.1111111111111s" repeatCount="indefinite" begin="-98.82963800288495s"></animateTransform>
  <path d="M84.717,33.597c0.791-2.503,1.186-5.138,1.186-7.773C85.903,11.594,74.308,0,60.079,0 c-9.881,0-18.445,5.534-22.793,13.702c-1.581-0.527-3.426-0.791-5.138-0.791c-9.486,0-17.128,7.642-17.128,17.128 c0,1.186,0.132,2.372,0.395,3.426C6.719,34.783,0,42.424,0,51.515C0,61.66,8.169,69.829,18.314,69.829h63.373 C91.831,69.829,100,61.66,100,51.515C99.868,42.556,93.281,35.046,84.717,33.597z" fill="rgba(160, 158, 187, 0.437883064516129)" transform="scale(0.85)"></path>
</g><g transform="translate(-100 885.8496939745347) rotate(0)">
  <animateTransform attributeName="transform" type="translate" keyTimes="0;1" values="-100 885.8496939745347;2117 885.8496939745347" dur="111.1111111111111s" repeatCount="indefinite" begin="-328.85034782409286s"></animateTransform>
  <path d="M84.717,33.597c0.791-2.503,1.186-5.138,1.186-7.773C85.903,11.594,74.308,0,60.079,0 c-9.881,0-18.445,5.534-22.793,13.702c-1.581-0.527-3.426-0.791-5.138-0.791c-9.486,0-17.128,7.642-17.128,17.128 c0,1.186,0.132,2.372,0.395,3.426C6.719,34.783,0,42.424,0,51.515C0,61.66,8.169,69.829,18.314,69.829h63.373 C91.831,69.829,100,61.66,100,51.515C99.868,42.556,93.281,35.046,84.717,33.597z" fill="rgba(160, 158, 187, 0.437883064516129)" transform="scale(0.85)"></path>
</g><g transform="translate(-100 167.59011696603122) rotate(0)">
  <animateTransform attributeName="transform" type="translate" keyTimes="0;1" values="-100 167.59011696603122;2117 167.59011696603122" dur="111.1111111111111s" repeatCount="indefinite" begin="-242.98331580527483s"></animateTransform>
  <path d="M84.717,33.597c0.791-2.503,1.186-5.138,1.186-7.773C85.903,11.594,74.308,0,60.079,0 c-9.881,0-18.445,5.534-22.793,13.702c-1.581-0.527-3.426-0.791-5.138-0.791c-9.486,0-17.128,7.642-17.128,17.128 c0,1.186,0.132,2.372,0.395,3.426C6.719,34.783,0,42.424,0,51.515C0,61.66,8.169,69.829,18.314,69.829h63.373 C91.831,69.829,100,61.66,100,51.515C99.868,42.556,93.281,35.046,84.717,33.597z" fill="rgba(160, 158, 187, 0.437883064516129)" transform="scale(0.85)"></path>
</g><g transform="translate(-100 345.5923331302421) rotate(0)">
  <animateTransform attributeName="transform" type="translate" keyTimes="0;1" values="-100 345.5923331302421;2117 345.5923331302421" dur="111.1111111111111s" repeatCount="indefinite" begin="-41.40165507979509s"></animateTransform>
  <path d="M84.717,33.597c0.791-2.503,1.186-5.138,1.186-7.773C85.903,11.594,74.308,0,60.079,0 c-9.881,0-18.445,5.534-22.793,13.702c-1.581-0.527-3.426-0.791-5.138-0.791c-9.486,0-17.128,7.642-17.128,17.128 c0,1.186,0.132,2.372,0.395,3.426C6.719,34.783,0,42.424,0,51.515C0,61.66,8.169,69.829,18.314,69.829h63.373 C91.831,69.829,100,61.66,100,51.515C99.868,42.556,93.281,35.046,84.717,33.597z" fill="rgba(160, 158, 187, 0.437883064516129)" transform="scale(0.85)"></path>
</g><g transform="translate(-100 468.15968819602267) rotate(0)">
  <animateTransform attributeName="transform" type="translate" keyTimes="0;1" values="-100 468.15968819602267;2117 468.15968819602267" dur="111.1111111111111s" repeatCount="indefinite" begin="-209.113562956622s"></animateTransform>
  <path d="M84.717,33.597c0.791-2.503,1.186-5.138,1.186-7.773C85.903,11.594,74.308,0,60.079,0 c-9.881,0-18.445,5.534-22.793,13.702c-1.581-0.527-3.426-0.791-5.138-0.791c-9.486,0-17.128,7.642-17.128,17.128 c0,1.186,0.132,2.372,0.395,3.426C6.719,34.783,0,42.424,0,51.515C0,61.66,8.169,69.829,18.314,69.829h63.373 C91.831,69.829,100,61.66,100,51.515C99.868,42.556,93.281,35.046,84.717,33.597z" fill="rgba(160, 158, 187, 0.437883064516129)" transform="scale(0.85)"></path>
</g><g transform="translate(-100 591.8417253615029) rotate(0)">
  <animateTransform attributeName="transform" type="translate" keyTimes="0;1" values="-100 591.8417253615029;2117 591.8417253615029" dur="111.1111111111111s" repeatCount="indefinite" begin="-329.30155064549837s"></animateTransform>
  <path d="M84.717,33.597c0.791-2.503,1.186-5.138,1.186-7.773C85.903,11.594,74.308,0,60.079,0 c-9.881,0-18.445,5.534-22.793,13.702c-1.581-0.527-3.426-0.791-5.138-0.791c-9.486,0-17.128,7.642-17.128,17.128 c0,1.186,0.132,2.372,0.395,3.426C6.719,34.783,0,42.424,0,51.515C0,61.66,8.169,69.829,18.314,69.829h63.373 C91.831,69.829,100,61.66,100,51.515C99.868,42.556,93.281,35.046,84.717,33.597z" fill="rgba(160, 158, 187, 0.437883064516129)" transform="scale(0.85)"></path>
</g><g transform="translate(-100 568.0806069538536) rotate(0)">
  <animateTransform attributeName="transform" type="translate" keyTimes="0;1" values="-100 568.0806069538536;2117 568.0806069538536" dur="111.1111111111111s" repeatCount="indefinite" begin="-263.34292316503723s"></animateTransform>
  <path d="M84.717,33.597c0.791-2.503,1.186-5.138,1.186-7.773C85.903,11.594,74.308,0,60.079,0 c-9.881,0-18.445,5.534-22.793,13.702c-1.581-0.527-3.426-0.791-5.138-0.791c-9.486,0-17.128,7.642-17.128,17.128 c0,1.186,0.132,2.372,0.395,3.426C6.719,34.783,0,42.424,0,51.515C0,61.66,8.169,69.829,18.314,69.829h63.373 C91.831,69.829,100,61.66,100,51.515C99.868,42.556,93.281,35.046,84.717,33.597z" fill="rgba(160, 158, 187, 0.437883064516129)" transform="scale(0.85)"></path>
</g><g transform="translate(-100 776.739939603096) rotate(0)">
  <animateTransform attributeName="transform" type="translate" keyTimes="0;1" values="-100 776.739939603096;2117 776.739939603096" dur="111.1111111111111s" repeatCount="indefinite" begin="-22.709073581105816s"></animateTransform>
  <path d="M84.717,33.597c0.791-2.503,1.186-5.138,1.186-7.773C85.903,11.594,74.308,0,60.079,0 c-9.881,0-18.445,5.534-22.793,13.702c-1.581-0.527-3.426-0.791-5.138-0.791c-9.486,0-17.128,7.642-17.128,17.128 c0,1.186,0.132,2.372,0.395,3.426C6.719,34.783,0,42.424,0,51.515C0,61.66,8.169,69.829,18.314,69.829h63.373 C91.831,69.829,100,61.66,100,51.515C99.868,42.556,93.281,35.046,84.717,33.597z" fill="rgba(160, 158, 187, 0.437883064516129)" transform="scale(0.85)"></path>
</g><g transform="translate(-100 72.7761808554948) rotate(0)">
  <animateTransform attributeName="transform" type="translate" keyTimes="0;1" values="-100 72.7761808554948;2117 72.7761808554948" dur="111.1111111111111s" repeatCount="indefinite" begin="-47.9824390309244s"></animateTransform>
  <path d="M84.717,33.597c0.791-2.503,1.186-5.138,1.186-7.773C85.903,11.594,74.308,0,60.079,0 c-9.881,0-18.445,5.534-22.793,13.702c-1.581-0.527-3.426-0.791-5.138-0.791c-9.486,0-17.128,7.642-17.128,17.128 c0,1.186,0.132,2.372,0.395,3.426C6.719,34.783,0,42.424,0,51.515C0,61.66,8.169,69.829,18.314,69.829h63.373 C91.831,69.829,100,61.66,100,51.515C99.868,42.556,93.281,35.046,84.717,33.597z" fill="rgba(160, 158, 187, 0.437883064516129)" transform="scale(0.85)"></path>
</g><g transform="translate(-100 140.1428739630692) rotate(0)">
  <animateTransform attributeName="transform" type="translate" keyTimes="0;1" values="-100 140.1428739630692;2117 140.1428739630692" dur="83.33333333333333s" repeatCount="indefinite" begin="-158.9740653869267s"></animateTransform>
  <path d="M84.717,33.597c0.791-2.503,1.186-5.138,1.186-7.773C85.903,11.594,74.308,0,60.079,0 c-9.881,0-18.445,5.534-22.793,13.702c-1.581-0.527-3.426-0.791-5.138-0.791c-9.486,0-17.128,7.642-17.128,17.128 c0,1.186,0.132,2.372,0.395,3.426C6.719,34.783,0,42.424,0,51.515C0,61.66,8.169,69.829,18.314,69.829h63.373 C91.831,69.829,100,61.66,100,51.515C99.868,42.556,93.281,35.046,84.717,33.597z" fill="rgba(100, 98, 137, 0.437883064516129)" transform="scale(1)"></path>
</g><g transform="translate(-100 473.8860435273972) rotate(0)">
  <animateTransform attributeName="transform" type="translate" keyTimes="0;1" values="-100 473.8860435273972;2117 473.8860435273972" dur="83.33333333333333s" repeatCount="indefinite" begin="-211.56178895308466s"></animateTransform>
  <path d="M84.717,33.597c0.791-2.503,1.186-5.138,1.186-7.773C85.903,11.594,74.308,0,60.079,0 c-9.881,0-18.445,5.534-22.793,13.702c-1.581-0.527-3.426-0.791-5.138-0.791c-9.486,0-17.128,7.642-17.128,17.128 c0,1.186,0.132,2.372,0.395,3.426C6.719,34.783,0,42.424,0,51.515C0,61.66,8.169,69.829,18.314,69.829h63.373 C91.831,69.829,100,61.66,100,51.515C99.868,42.556,93.281,35.046,84.717,33.597z" fill="rgba(100, 98, 137, 0.437883064516129)" transform="scale(1)"></path>
</g><g transform="translate(-100 787.0657432407162) rotate(0)">
  <animateTransform attributeName="transform" type="translate" keyTimes="0;1" values="-100 787.0657432407162;2117 787.0657432407162" dur="83.33333333333333s" repeatCount="indefinite" begin="-287.7361909990035s"></animateTransform>
  <path d="M84.717,33.597c0.791-2.503,1.186-5.138,1.186-7.773C85.903,11.594,74.308,0,60.079,0 c-9.881,0-18.445,5.534-22.793,13.702c-1.581-0.527-3.426-0.791-5.138-0.791c-9.486,0-17.128,7.642-17.128,17.128 c0,1.186,0.132,2.372,0.395,3.426C6.719,34.783,0,42.424,0,51.515C0,61.66,8.169,69.829,18.314,69.829h63.373 C91.831,69.829,100,61.66,100,51.515C99.868,42.556,93.281,35.046,84.717,33.597z" fill="rgba(100, 98, 137, 0.437883064516129)" transform="scale(1)"></path>
</g><g transform="translate(-100 540.4439603525159) rotate(0)">
  <animateTransform attributeName="transform" type="translate" keyTimes="0;1" values="-100 540.4439603525159;2117 540.4439603525159" dur="83.33333333333333s" repeatCount="indefinite" begin="-7.499429340544224s"></animateTransform>
  <path d="M84.717,33.597c0.791-2.503,1.186-5.138,1.186-7.773C85.903,11.594,74.308,0,60.079,0 c-9.881,0-18.445,5.534-22.793,13.702c-1.581-0.527-3.426-0.791-5.138-0.791c-9.486,0-17.128,7.642-17.128,17.128 c0,1.186,0.132,2.372,0.395,3.426C6.719,34.783,0,42.424,0,51.515C0,61.66,8.169,69.829,18.314,69.829h63.373 C91.831,69.829,100,61.66,100,51.515C99.868,42.556,93.281,35.046,84.717,33.597z" fill="rgba(100, 98, 137, 0.437883064516129)" transform="scale(1)"></path>
</g><g transform="translate(-100 1225.1531170824694) rotate(0)">
  <animateTransform attributeName="transform" type="translate" keyTimes="0;1" values="-100 1225.1531170824694;2117 1225.1531170824694" dur="83.33333333333333s" repeatCount="indefinite" begin="-161.20361846030346s"></animateTransform>
  <path d="M84.717,33.597c0.791-2.503,1.186-5.138,1.186-7.773C85.903,11.594,74.308,0,60.079,0 c-9.881,0-18.445,5.534-22.793,13.702c-1.581-0.527-3.426-0.791-5.138-0.791c-9.486,0-17.128,7.642-17.128,17.128 c0,1.186,0.132,2.372,0.395,3.426C6.719,34.783,0,42.424,0,51.515C0,61.66,8.169,69.829,18.314,69.829h63.373 C91.831,69.829,100,61.66,100,51.515C99.868,42.556,93.281,35.046,84.717,33.597z" fill="rgba(100, 98, 137, 0.437883064516129)" transform="scale(1)"></path>
</g><g transform="translate(-100 1068.1817314830162) rotate(0)">
  <animateTransform attributeName="transform" type="translate" keyTimes="0;1" values="-100 1068.1817314830162;2117 1068.1817314830162" dur="83.33333333333333s" repeatCount="indefinite" begin="-146.69589809315733s"></animateTransform>
  <path d="M84.717,33.597c0.791-2.503,1.186-5.138,1.186-7.773C85.903,11.594,74.308,0,60.079,0 c-9.881,0-18.445,5.534-22.793,13.702c-1.581-0.527-3.426-0.791-5.138-0.791c-9.486,0-17.128,7.642-17.128,17.128 c0,1.186,0.132,2.372,0.395,3.426C6.719,34.783,0,42.424,0,51.515C0,61.66,8.169,69.829,18.314,69.829h63.373 C91.831,69.829,100,61.66,100,51.515C99.868,42.556,93.281,35.046,84.717,33.597z" fill="rgba(100, 98, 137, 0.437883064516129)" transform="scale(1)"></path>
</g><g transform="translate(-100 1010.8330964115156) rotate(0)">
  <animateTransform attributeName="transform" type="translate" keyTimes="0;1" values="-100 1010.8330964115156;2117 1010.8330964115156" dur="83.33333333333333s" repeatCount="indefinite" begin="-26.54623628184797s"></animateTransform>
  <path d="M84.717,33.597c0.791-2.503,1.186-5.138,1.186-7.773C85.903,11.594,74.308,0,60.079,0 c-9.881,0-18.445,5.534-22.793,13.702c-1.581-0.527-3.426-0.791-5.138-0.791c-9.486,0-17.128,7.642-17.128,17.128 c0,1.186,0.132,2.372,0.395,3.426C6.719,34.783,0,42.424,0,51.515C0,61.66,8.169,69.829,18.314,69.829h63.373 C91.831,69.829,100,61.66,100,51.515C99.868,42.556,93.281,35.046,84.717,33.597z" fill="rgba(100, 98, 137, 0.437883064516129)" transform="scale(1)"></path>
</g><g transform="translate(-100 747.3677913684243) rotate(0)">
  <animateTransform attributeName="transform" type="translate" keyTimes="0;1" values="-100 747.3677913684243;2117 747.3677913684243" dur="83.33333333333333s" repeatCount="indefinite" begin="-147.157858663869s"></animateTransform>
  <path d="M84.717,33.597c0.791-2.503,1.186-5.138,1.186-7.773C85.903,11.594,74.308,0,60.079,0 c-9.881,0-18.445,5.534-22.793,13.702c-1.581-0.527-3.426-0.791-5.138-0.791c-9.486,0-17.128,7.642-17.128,17.128 c0,1.186,0.132,2.372,0.395,3.426C6.719,34.783,0,42.424,0,51.515C0,61.66,8.169,69.829,18.314,69.829h63.373 C91.831,69.829,100,61.66,100,51.515C99.868,42.556,93.281,35.046,84.717,33.597z" fill="rgba(100, 98, 137, 0.437883064516129)" transform="scale(1)"></path>
</g><g transform="translate(-100 326.0646193960614) rotate(0)">
  <animateTransform attributeName="transform" type="translate" keyTimes="0;1" values="-100 326.0646193960614;2117 326.0646193960614" dur="83.33333333333333s" repeatCount="indefinite" begin="-170.95549852382567s"></animateTransform>
  <path d="M84.717,33.597c0.791-2.503,1.186-5.138,1.186-7.773C85.903,11.594,74.308,0,60.079,0 c-9.881,0-18.445,5.534-22.793,13.702c-1.581-0.527-3.426-0.791-5.138-0.791c-9.486,0-17.128,7.642-17.128,17.128 c0,1.186,0.132,2.372,0.395,3.426C6.719,34.783,0,42.424,0,51.515C0,61.66,8.169,69.829,18.314,69.829h63.373 C91.831,69.829,100,61.66,100,51.515C99.868,42.556,93.281,35.046,84.717,33.597z" fill="rgba(100, 98, 137, 0.437883064516129)" transform="scale(1)"></path>
</g><g transform="translate(-100 839.1067864478559) rotate(0)">
  <animateTransform attributeName="transform" type="translate" keyTimes="0;1" values="-100 839.1067864478559;2117 839.1067864478559" dur="83.33333333333333s" repeatCount="indefinite" begin="-76.55711402048586s"></animateTransform>
  <path d="M84.717,33.597c0.791-2.503,1.186-5.138,1.186-7.773C85.903,11.594,74.308,0,60.079,0 c-9.881,0-18.445,5.534-22.793,13.702c-1.581-0.527-3.426-0.791-5.138-0.791c-9.486,0-17.128,7.642-17.128,17.128 c0,1.186,0.132,2.372,0.395,3.426C6.719,34.783,0,42.424,0,51.515C0,61.66,8.169,69.829,18.314,69.829h63.373 C91.831,69.829,100,61.66,100,51.515C99.868,42.556,93.281,35.046,84.717,33.597z" fill="rgba(100, 98, 137, 0.437883064516129)" transform="scale(1)"></path>
</g><g transform="translate(-100 1241.8220149377569) rotate(0)">
  <animateTransform attributeName="transform" type="translate" keyTimes="0;1" values="-100 1241.8220149377569;2117 1241.8220149377569" dur="83.33333333333333s" repeatCount="indefinite" begin="-227.73663952790344s"></animateTransform>
  <path d="M84.717,33.597c0.791-2.503,1.186-5.138,1.186-7.773C85.903,11.594,74.308,0,60.079,0 c-9.881,0-18.445,5.534-22.793,13.702c-1.581-0.527-3.426-0.791-5.138-0.791c-9.486,0-17.128,7.642-17.128,17.128 c0,1.186,0.132,2.372,0.395,3.426C6.719,34.783,0,42.424,0,51.515C0,61.66,8.169,69.829,18.314,69.829h63.373 C91.831,69.829,100,61.66,100,51.515C99.868,42.556,93.281,35.046,84.717,33.597z" fill="rgba(100, 98, 137, 0.437883064516129)" transform="scale(1)"></path>
</g><g transform="translate(-100 302.2726894271194) rotate(0)">
  <animateTransform attributeName="transform" type="translate" keyTimes="0;1" values="-100 302.2726894271194;2117 302.2726894271194" dur="83.33333333333333s" repeatCount="indefinite" begin="-77.57817388484385s"></animateTransform>
  <path d="M84.717,33.597c0.791-2.503,1.186-5.138,1.186-7.773C85.903,11.594,74.308,0,60.079,0 c-9.881,0-18.445,5.534-22.793,13.702c-1.581-0.527-3.426-0.791-5.138-0.791c-9.486,0-17.128,7.642-17.128,17.128 c0,1.186,0.132,2.372,0.395,3.426C6.719,34.783,0,42.424,0,51.515C0,61.66,8.169,69.829,18.314,69.829h63.373 C91.831,69.829,100,61.66,100,51.515C99.868,42.556,93.281,35.046,84.717,33.597z" fill="rgba(100, 98, 137, 0.437883064516129)" transform="scale(1)"></path>
</g><g transform="translate(-100 1013.2375143554156) rotate(0)">
  <animateTransform attributeName="transform" type="translate" keyTimes="0;1" values="-100 1013.2375143554156;2117 1013.2375143554156" dur="83.33333333333333s" repeatCount="indefinite" begin="-250.29692389861847s"></animateTransform>
  <path d="M84.717,33.597c0.791-2.503,1.186-5.138,1.186-7.773C85.903,11.594,74.308,0,60.079,0 c-9.881,0-18.445,5.534-22.793,13.702c-1.581-0.527-3.426-0.791-5.138-0.791c-9.486,0-17.128,7.642-17.128,17.128 c0,1.186,0.132,2.372,0.395,3.426C6.719,34.783,0,42.424,0,51.515C0,61.66,8.169,69.829,18.314,69.829h63.373 C91.831,69.829,100,61.66,100,51.515C99.868,42.556,93.281,35.046,84.717,33.597z" fill="rgba(100, 98, 137, 0.437883064516129)" transform="scale(1)"></path>
</g></g>
</svg>