<?xml version="1.0" encoding="utf-8"?>
<svg xmlns="http://www.w3.org/2000/svg" xmlns:xlink="http://www.w3.org/1999/xlink" style="margin: auto; background: rgba(122, 206, 255, 0); display: block; z-index: 1; position: relative; shape-rendering: auto;" width="1536" height="664" preserveAspectRatio="xMidYMid" viewBox="0 0 1536 664">
<g transform="translate(768,332) scale(1,1) translate(-768,-332)"><g transform="translate(-100 474.6838425174708) rotate(0)">
  <animateTransform attributeName="transform" type="translate" keyTimes="0;1" values="-100 474.6838425174708;1536 474.6838425174708" dur="200s" repeatCount="indefinite" begin="-101.11484530035727s"></animateTransform>
  <path d="M84.717,33.597c0.791-2.503,1.186-5.138,1.186-7.773C85.903,11.594,74.308,0,60.079,0 c-9.881,0-18.445,5.534-22.793,13.702c-1.581-0.527-3.426-0.791-5.138-0.791c-9.486,0-17.128,7.642-17.128,17.128 c0,1.186,0.132,2.372,0.395,3.426C6.719,34.783,0,42.424,0,51.515C0,61.66,8.169,69.829,18.314,69.829h63.373 C91.831,69.829,100,61.66,100,51.515C99.868,42.556,93.281,35.046,84.717,33.597z" fill="rgba(255, 255, 255, 0.2970324116368448)" transform="scale(0.9300000000000002)"></path>
</g><g transform="translate(-100 127.91421091609472) rotate(0)">
  <animateTransform attributeName="transform" type="translate" keyTimes="0;1" values="-100 127.91421091609472;1536 127.91421091609472" dur="200s" repeatCount="indefinite" begin="-73.70427878069759s"></animateTransform>
  <path d="M84.717,33.597c0.791-2.503,1.186-5.138,1.186-7.773C85.903,11.594,74.308,0,60.079,0 c-9.881,0-18.445,5.534-22.793,13.702c-1.581-0.527-3.426-0.791-5.138-0.791c-9.486,0-17.128,7.642-17.128,17.128 c0,1.186,0.132,2.372,0.395,3.426C6.719,34.783,0,42.424,0,51.515C0,61.66,8.169,69.829,18.314,69.829h63.373 C91.831,69.829,100,61.66,100,51.515C99.868,42.556,93.281,35.046,84.717,33.597z" fill="rgba(255, 255, 255, 0.2970324116368448)" transform="scale(0.9300000000000002)"></path>
</g><g transform="translate(-100 197.0445078410989) rotate(0)">
  <animateTransform attributeName="transform" type="translate" keyTimes="0;1" values="-100 197.0445078410989;1536 197.0445078410989" dur="200s" repeatCount="indefinite" begin="-16.891546226259855s"></animateTransform>
  <path d="M84.717,33.597c0.791-2.503,1.186-5.138,1.186-7.773C85.903,11.594,74.308,0,60.079,0 c-9.881,0-18.445,5.534-22.793,13.702c-1.581-0.527-3.426-0.791-5.138-0.791c-9.486,0-17.128,7.642-17.128,17.128 c0,1.186,0.132,2.372,0.395,3.426C6.719,34.783,0,42.424,0,51.515C0,61.66,8.169,69.829,18.314,69.829h63.373 C91.831,69.829,100,61.66,100,51.515C99.868,42.556,93.281,35.046,84.717,33.597z" fill="rgba(255, 255, 255, 0.2970324116368448)" transform="scale(0.9300000000000002)"></path>
</g><g transform="translate(-100 488.8226916486434) rotate(0)">
  <animateTransform attributeName="transform" type="translate" keyTimes="0;1" values="-100 488.8226916486434;1536 488.8226916486434" dur="200s" repeatCount="indefinite" begin="-114.32511666250358s"></animateTransform>
  <path d="M84.717,33.597c0.791-2.503,1.186-5.138,1.186-7.773C85.903,11.594,74.308,0,60.079,0 c-9.881,0-18.445,5.534-22.793,13.702c-1.581-0.527-3.426-0.791-5.138-0.791c-9.486,0-17.128,7.642-17.128,17.128 c0,1.186,0.132,2.372,0.395,3.426C6.719,34.783,0,42.424,0,51.515C0,61.66,8.169,69.829,18.314,69.829h63.373 C91.831,69.829,100,61.66,100,51.515C99.868,42.556,93.281,35.046,84.717,33.597z" fill="rgba(255, 255, 255, 0.2970324116368448)" transform="scale(0.9300000000000002)"></path>
</g><g transform="translate(-100 258.67641628120543) rotate(0)">
  <animateTransform attributeName="transform" type="translate" keyTimes="0;1" values="-100 258.67641628120543;1536 258.67641628120543" dur="200s" repeatCount="indefinite" begin="-155.2350515245194s"></animateTransform>
  <path d="M84.717,33.597c0.791-2.503,1.186-5.138,1.186-7.773C85.903,11.594,74.308,0,60.079,0 c-9.881,0-18.445,5.534-22.793,13.702c-1.581-0.527-3.426-0.791-5.138-0.791c-9.486,0-17.128,7.642-17.128,17.128 c0,1.186,0.132,2.372,0.395,3.426C6.719,34.783,0,42.424,0,51.515C0,61.66,8.169,69.829,18.314,69.829h63.373 C91.831,69.829,100,61.66,100,51.515C99.868,42.556,93.281,35.046,84.717,33.597z" fill="rgba(255, 255, 255, 0.2970324116368448)" transform="scale(0.9300000000000002)"></path>
</g><g transform="translate(-100 611.6351309286905) rotate(0)">
  <animateTransform attributeName="transform" type="translate" keyTimes="0;1" values="-100 611.6351309286905;1536 611.6351309286905" dur="200s" repeatCount="indefinite" begin="-166.40032305786724s"></animateTransform>
  <path d="M84.717,33.597c0.791-2.503,1.186-5.138,1.186-7.773C85.903,11.594,74.308,0,60.079,0 c-9.881,0-18.445,5.534-22.793,13.702c-1.581-0.527-3.426-0.791-5.138-0.791c-9.486,0-17.128,7.642-17.128,17.128 c0,1.186,0.132,2.372,0.395,3.426C6.719,34.783,0,42.424,0,51.515C0,61.66,8.169,69.829,18.314,69.829h63.373 C91.831,69.829,100,61.66,100,51.515C99.868,42.556,93.281,35.046,84.717,33.597z" fill="rgba(255, 255, 255, 0.2970324116368448)" transform="scale(0.9300000000000002)"></path>
</g><g transform="translate(-100 337.7741906660333) rotate(0)">
  <animateTransform attributeName="transform" type="translate" keyTimes="0;1" values="-100 337.7741906660333;1536 337.7741906660333" dur="200s" repeatCount="indefinite" begin="-45.17041373460153s"></animateTransform>
  <path d="M84.717,33.597c0.791-2.503,1.186-5.138,1.186-7.773C85.903,11.594,74.308,0,60.079,0 c-9.881,0-18.445,5.534-22.793,13.702c-1.581-0.527-3.426-0.791-5.138-0.791c-9.486,0-17.128,7.642-17.128,17.128 c0,1.186,0.132,2.372,0.395,3.426C6.719,34.783,0,42.424,0,51.515C0,61.66,8.169,69.829,18.314,69.829h63.373 C91.831,69.829,100,61.66,100,51.515C99.868,42.556,93.281,35.046,84.717,33.597z" fill="rgba(255, 255, 255, 0.2970324116368448)" transform="scale(0.9300000000000002)"></path>
</g><g transform="translate(-100 154.95022431024745) rotate(0)">
  <animateTransform attributeName="transform" type="translate" keyTimes="0;1" values="-100 154.95022431024745;1536 154.95022431024745" dur="200s" repeatCount="indefinite" begin="-153.15001129378615s"></animateTransform>
  <path d="M84.717,33.597c0.791-2.503,1.186-5.138,1.186-7.773C85.903,11.594,74.308,0,60.079,0 c-9.881,0-18.445,5.534-22.793,13.702c-1.581-0.527-3.426-0.791-5.138-0.791c-9.486,0-17.128,7.642-17.128,17.128 c0,1.186,0.132,2.372,0.395,3.426C6.719,34.783,0,42.424,0,51.515C0,61.66,8.169,69.829,18.314,69.829h63.373 C91.831,69.829,100,61.66,100,51.515C99.868,42.556,93.281,35.046,84.717,33.597z" fill="rgba(255, 255, 255, 0.2970324116368448)" transform="scale(0.9300000000000002)"></path>
</g><g transform="translate(-100 332.1502453106101) rotate(0)">
  <animateTransform attributeName="transform" type="translate" keyTimes="0;1" values="-100 332.1502453106101;1536 332.1502453106101" dur="200s" repeatCount="indefinite" begin="-128.9725490170942s"></animateTransform>
  <path d="M84.717,33.597c0.791-2.503,1.186-5.138,1.186-7.773C85.903,11.594,74.308,0,60.079,0 c-9.881,0-18.445,5.534-22.793,13.702c-1.581-0.527-3.426-0.791-5.138-0.791c-9.486,0-17.128,7.642-17.128,17.128 c0,1.186,0.132,2.372,0.395,3.426C6.719,34.783,0,42.424,0,51.515C0,61.66,8.169,69.829,18.314,69.829h63.373 C91.831,69.829,100,61.66,100,51.515C99.868,42.556,93.281,35.046,84.717,33.597z" fill="rgba(255, 255, 255, 0.2970324116368448)" transform="scale(0.9300000000000002)"></path>
</g><g transform="translate(-100 46.27459124799613) rotate(0)">
  <animateTransform attributeName="transform" type="translate" keyTimes="0;1" values="-100 46.27459124799613;1536 46.27459124799613" dur="200s" repeatCount="indefinite" begin="-11.106472556128999s"></animateTransform>
  <path d="M84.717,33.597c0.791-2.503,1.186-5.138,1.186-7.773C85.903,11.594,74.308,0,60.079,0 c-9.881,0-18.445,5.534-22.793,13.702c-1.581-0.527-3.426-0.791-5.138-0.791c-9.486,0-17.128,7.642-17.128,17.128 c0,1.186,0.132,2.372,0.395,3.426C6.719,34.783,0,42.424,0,51.515C0,61.66,8.169,69.829,18.314,69.829h63.373 C91.831,69.829,100,61.66,100,51.515C99.868,42.556,93.281,35.046,84.717,33.597z" fill="rgba(255, 255, 255, 0.2970324116368448)" transform="scale(0.9300000000000002)"></path>
</g><g transform="translate(-100 631.0241447039307) rotate(0)">
  <animateTransform attributeName="transform" type="translate" keyTimes="0;1" values="-100 631.0241447039307;1536 631.0241447039307" dur="100s" repeatCount="indefinite" begin="-30.52471550824487s"></animateTransform>
  <path d="M84.717,33.597c0.791-2.503,1.186-5.138,1.186-7.773C85.903,11.594,74.308,0,60.079,0 c-9.881,0-18.445,5.534-22.793,13.702c-1.581-0.527-3.426-0.791-5.138-0.791c-9.486,0-17.128,7.642-17.128,17.128 c0,1.186,0.132,2.372,0.395,3.426C6.719,34.783,0,42.424,0,51.515C0,61.66,8.169,69.829,18.314,69.829h63.373 C91.831,69.829,100,61.66,100,51.515C99.868,42.556,93.281,35.046,84.717,33.597z" fill="rgba(255, 255, 255, 0.28025821808845774)" transform="scale(1.02)"></path>
</g><g transform="translate(-100 130.07735568552636) rotate(0)">
  <animateTransform attributeName="transform" type="translate" keyTimes="0;1" values="-100 130.07735568552636;1536 130.07735568552636" dur="100s" repeatCount="indefinite" begin="-50.88767897776183s"></animateTransform>
  <path d="M84.717,33.597c0.791-2.503,1.186-5.138,1.186-7.773C85.903,11.594,74.308,0,60.079,0 c-9.881,0-18.445,5.534-22.793,13.702c-1.581-0.527-3.426-0.791-5.138-0.791c-9.486,0-17.128,7.642-17.128,17.128 c0,1.186,0.132,2.372,0.395,3.426C6.719,34.783,0,42.424,0,51.515C0,61.66,8.169,69.829,18.314,69.829h63.373 C91.831,69.829,100,61.66,100,51.515C99.868,42.556,93.281,35.046,84.717,33.597z" fill="rgba(255, 255, 255, 0.28025821808845774)" transform="scale(1.02)"></path>
</g><g transform="translate(-100 438.96872769873085) rotate(0)">
  <animateTransform attributeName="transform" type="translate" keyTimes="0;1" values="-100 438.96872769873085;1536 438.96872769873085" dur="100s" repeatCount="indefinite" begin="-2.0102962148329517s"></animateTransform>
  <path d="M84.717,33.597c0.791-2.503,1.186-5.138,1.186-7.773C85.903,11.594,74.308,0,60.079,0 c-9.881,0-18.445,5.534-22.793,13.702c-1.581-0.527-3.426-0.791-5.138-0.791c-9.486,0-17.128,7.642-17.128,17.128 c0,1.186,0.132,2.372,0.395,3.426C6.719,34.783,0,42.424,0,51.515C0,61.66,8.169,69.829,18.314,69.829h63.373 C91.831,69.829,100,61.66,100,51.515C99.868,42.556,93.281,35.046,84.717,33.597z" fill="rgba(255, 255, 255, 0.28025821808845774)" transform="scale(1.02)"></path>
</g><g transform="translate(-100 210.23715840022973) rotate(0)">
  <animateTransform attributeName="transform" type="translate" keyTimes="0;1" values="-100 210.23715840022973;1536 210.23715840022973" dur="100s" repeatCount="indefinite" begin="-4.67649331504858s"></animateTransform>
  <path d="M84.717,33.597c0.791-2.503,1.186-5.138,1.186-7.773C85.903,11.594,74.308,0,60.079,0 c-9.881,0-18.445,5.534-22.793,13.702c-1.581-0.527-3.426-0.791-5.138-0.791c-9.486,0-17.128,7.642-17.128,17.128 c0,1.186,0.132,2.372,0.395,3.426C6.719,34.783,0,42.424,0,51.515C0,61.66,8.169,69.829,18.314,69.829h63.373 C91.831,69.829,100,61.66,100,51.515C99.868,42.556,93.281,35.046,84.717,33.597z" fill="rgba(255, 255, 255, 0.28025821808845774)" transform="scale(1.02)"></path>
</g><g transform="translate(-100 213.95446640787938) rotate(0)">
  <animateTransform attributeName="transform" type="translate" keyTimes="0;1" values="-100 213.95446640787938;1536 213.95446640787938" dur="100s" repeatCount="indefinite" begin="-155.66522662629052s"></animateTransform>
  <path d="M84.717,33.597c0.791-2.503,1.186-5.138,1.186-7.773C85.903,11.594,74.308,0,60.079,0 c-9.881,0-18.445,5.534-22.793,13.702c-1.581-0.527-3.426-0.791-5.138-0.791c-9.486,0-17.128,7.642-17.128,17.128 c0,1.186,0.132,2.372,0.395,3.426C6.719,34.783,0,42.424,0,51.515C0,61.66,8.169,69.829,18.314,69.829h63.373 C91.831,69.829,100,61.66,100,51.515C99.868,42.556,93.281,35.046,84.717,33.597z" fill="rgba(255, 255, 255, 0.28025821808845774)" transform="scale(1.02)"></path>
</g><g transform="translate(-100 500.21635240634043) rotate(0)">
  <animateTransform attributeName="transform" type="translate" keyTimes="0;1" values="-100 500.21635240634043;1536 500.21635240634043" dur="100s" repeatCount="indefinite" begin="-125.01742208245817s"></animateTransform>
  <path d="M84.717,33.597c0.791-2.503,1.186-5.138,1.186-7.773C85.903,11.594,74.308,0,60.079,0 c-9.881,0-18.445,5.534-22.793,13.702c-1.581-0.527-3.426-0.791-5.138-0.791c-9.486,0-17.128,7.642-17.128,17.128 c0,1.186,0.132,2.372,0.395,3.426C6.719,34.783,0,42.424,0,51.515C0,61.66,8.169,69.829,18.314,69.829h63.373 C91.831,69.829,100,61.66,100,51.515C99.868,42.556,93.281,35.046,84.717,33.597z" fill="rgba(255, 255, 255, 0.28025821808845774)" transform="scale(1.02)"></path>
</g><g transform="translate(-100 636.600083180687) rotate(0)">
  <animateTransform attributeName="transform" type="translate" keyTimes="0;1" values="-100 636.600083180687;1536 636.600083180687" dur="100s" repeatCount="indefinite" begin="-124.8993175372437s"></animateTransform>
  <path d="M84.717,33.597c0.791-2.503,1.186-5.138,1.186-7.773C85.903,11.594,74.308,0,60.079,0 c-9.881,0-18.445,5.534-22.793,13.702c-1.581-0.527-3.426-0.791-5.138-0.791c-9.486,0-17.128,7.642-17.128,17.128 c0,1.186,0.132,2.372,0.395,3.426C6.719,34.783,0,42.424,0,51.515C0,61.66,8.169,69.829,18.314,69.829h63.373 C91.831,69.829,100,61.66,100,51.515C99.868,42.556,93.281,35.046,84.717,33.597z" fill="rgba(255, 255, 255, 0.28025821808845774)" transform="scale(1.02)"></path>
</g><g transform="translate(-100 635.3418451781034) rotate(0)">
  <animateTransform attributeName="transform" type="translate" keyTimes="0;1" values="-100 635.3418451781034;1536 635.3418451781034" dur="100s" repeatCount="indefinite" begin="-198.5326053093567s"></animateTransform>
  <path d="M84.717,33.597c0.791-2.503,1.186-5.138,1.186-7.773C85.903,11.594,74.308,0,60.079,0 c-9.881,0-18.445,5.534-22.793,13.702c-1.581-0.527-3.426-0.791-5.138-0.791c-9.486,0-17.128,7.642-17.128,17.128 c0,1.186,0.132,2.372,0.395,3.426C6.719,34.783,0,42.424,0,51.515C0,61.66,8.169,69.829,18.314,69.829h63.373 C91.831,69.829,100,61.66,100,51.515C99.868,42.556,93.281,35.046,84.717,33.597z" fill="rgba(255, 255, 255, 0.28025821808845774)" transform="scale(1.02)"></path>
</g><g transform="translate(-100 12.55150812426153) rotate(0)">
  <animateTransform attributeName="transform" type="translate" keyTimes="0;1" values="-100 12.55150812426153;1536 12.55150812426153" dur="100s" repeatCount="indefinite" begin="-169.4312987633805s"></animateTransform>
  <path d="M84.717,33.597c0.791-2.503,1.186-5.138,1.186-7.773C85.903,11.594,74.308,0,60.079,0 c-9.881,0-18.445,5.534-22.793,13.702c-1.581-0.527-3.426-0.791-5.138-0.791c-9.486,0-17.128,7.642-17.128,17.128 c0,1.186,0.132,2.372,0.395,3.426C6.719,34.783,0,42.424,0,51.515C0,61.66,8.169,69.829,18.314,69.829h63.373 C91.831,69.829,100,61.66,100,51.515C99.868,42.556,93.281,35.046,84.717,33.597z" fill="rgba(255, 255, 255, 0.28025821808845774)" transform="scale(1.02)"></path>
</g><g transform="translate(-100 102.75690904666382) rotate(0)">
  <animateTransform attributeName="transform" type="translate" keyTimes="0;1" values="-100 102.75690904666382;1536 102.75690904666382" dur="100s" repeatCount="indefinite" begin="-26.232411690941948s"></animateTransform>
  <path d="M84.717,33.597c0.791-2.503,1.186-5.138,1.186-7.773C85.903,11.594,74.308,0,60.079,0 c-9.881,0-18.445,5.534-22.793,13.702c-1.581-0.527-3.426-0.791-5.138-0.791c-9.486,0-17.128,7.642-17.128,17.128 c0,1.186,0.132,2.372,0.395,3.426C6.719,34.783,0,42.424,0,51.515C0,61.66,8.169,69.829,18.314,69.829h63.373 C91.831,69.829,100,61.66,100,51.515C99.868,42.556,93.281,35.046,84.717,33.597z" fill="rgba(255, 255, 255, 0.28025821808845774)" transform="scale(1.02)"></path>
</g><g transform="translate(-100 565.4941528325674) rotate(0)">
  <animateTransform attributeName="transform" type="translate" keyTimes="0;1" values="-100 565.4941528325674;1536 565.4941528325674" dur="66.66666666666667s" repeatCount="indefinite" begin="-50.3023380756793s"></animateTransform>
  <path d="M84.717,33.597c0.791-2.503,1.186-5.138,1.186-7.773C85.903,11.594,74.308,0,60.079,0 c-9.881,0-18.445,5.534-22.793,13.702c-1.581-0.527-3.426-0.791-5.138-0.791c-9.486,0-17.128,7.642-17.128,17.128 c0,1.186,0.132,2.372,0.395,3.426C6.719,34.783,0,42.424,0,51.515C0,61.66,8.169,69.829,18.314,69.829h63.373 C91.831,69.829,100,61.66,100,51.515C99.868,42.556,93.281,35.046,84.717,33.597z" fill="rgba(255, 255, 255, 0.30541950841103827)" transform="scale(1.1100000000000003)"></path>
</g><g transform="translate(-100 506.00807438528943) rotate(0)">
  <animateTransform attributeName="transform" type="translate" keyTimes="0;1" values="-100 506.00807438528943;1536 506.00807438528943" dur="66.66666666666667s" repeatCount="indefinite" begin="-162.46466839060662s"></animateTransform>
  <path d="M84.717,33.597c0.791-2.503,1.186-5.138,1.186-7.773C85.903,11.594,74.308,0,60.079,0 c-9.881,0-18.445,5.534-22.793,13.702c-1.581-0.527-3.426-0.791-5.138-0.791c-9.486,0-17.128,7.642-17.128,17.128 c0,1.186,0.132,2.372,0.395,3.426C6.719,34.783,0,42.424,0,51.515C0,61.66,8.169,69.829,18.314,69.829h63.373 C91.831,69.829,100,61.66,100,51.515C99.868,42.556,93.281,35.046,84.717,33.597z" fill="rgba(255, 255, 255, 0.30541950841103827)" transform="scale(1.1100000000000003)"></path>
</g><g transform="translate(-100 416.3418118388066) rotate(0)">
  <animateTransform attributeName="transform" type="translate" keyTimes="0;1" values="-100 416.3418118388066;1536 416.3418118388066" dur="66.66666666666667s" repeatCount="indefinite" begin="-92.23414082121914s"></animateTransform>
  <path d="M84.717,33.597c0.791-2.503,1.186-5.138,1.186-7.773C85.903,11.594,74.308,0,60.079,0 c-9.881,0-18.445,5.534-22.793,13.702c-1.581-0.527-3.426-0.791-5.138-0.791c-9.486,0-17.128,7.642-17.128,17.128 c0,1.186,0.132,2.372,0.395,3.426C6.719,34.783,0,42.424,0,51.515C0,61.66,8.169,69.829,18.314,69.829h63.373 C91.831,69.829,100,61.66,100,51.515C99.868,42.556,93.281,35.046,84.717,33.597z" fill="rgba(255, 255, 255, 0.30541950841103827)" transform="scale(1.1100000000000003)"></path>
</g><g transform="translate(-100 111.68124099869327) rotate(0)">
  <animateTransform attributeName="transform" type="translate" keyTimes="0;1" values="-100 111.68124099869327;1536 111.68124099869327" dur="66.66666666666667s" repeatCount="indefinite" begin="-183.94665167139794s"></animateTransform>
  <path d="M84.717,33.597c0.791-2.503,1.186-5.138,1.186-7.773C85.903,11.594,74.308,0,60.079,0 c-9.881,0-18.445,5.534-22.793,13.702c-1.581-0.527-3.426-0.791-5.138-0.791c-9.486,0-17.128,7.642-17.128,17.128 c0,1.186,0.132,2.372,0.395,3.426C6.719,34.783,0,42.424,0,51.515C0,61.66,8.169,69.829,18.314,69.829h63.373 C91.831,69.829,100,61.66,100,51.515C99.868,42.556,93.281,35.046,84.717,33.597z" fill="rgba(255, 255, 255, 0.30541950841103827)" transform="scale(1.1100000000000003)"></path>
</g><g transform="translate(-100 523.0619619365059) rotate(0)">
  <animateTransform attributeName="transform" type="translate" keyTimes="0;1" values="-100 523.0619619365059;1536 523.0619619365059" dur="66.66666666666667s" repeatCount="indefinite" begin="-171.01387483966133s"></animateTransform>
  <path d="M84.717,33.597c0.791-2.503,1.186-5.138,1.186-7.773C85.903,11.594,74.308,0,60.079,0 c-9.881,0-18.445,5.534-22.793,13.702c-1.581-0.527-3.426-0.791-5.138-0.791c-9.486,0-17.128,7.642-17.128,17.128 c0,1.186,0.132,2.372,0.395,3.426C6.719,34.783,0,42.424,0,51.515C0,61.66,8.169,69.829,18.314,69.829h63.373 C91.831,69.829,100,61.66,100,51.515C99.868,42.556,93.281,35.046,84.717,33.597z" fill="rgba(255, 255, 255, 0.30541950841103827)" transform="scale(1.1100000000000003)"></path>
</g><g transform="translate(-100 628.0560689553279) rotate(0)">
  <animateTransform attributeName="transform" type="translate" keyTimes="0;1" values="-100 628.0560689553279;1536 628.0560689553279" dur="66.66666666666667s" repeatCount="indefinite" begin="-21.73652874184544s"></animateTransform>
  <path d="M84.717,33.597c0.791-2.503,1.186-5.138,1.186-7.773C85.903,11.594,74.308,0,60.079,0 c-9.881,0-18.445,5.534-22.793,13.702c-1.581-0.527-3.426-0.791-5.138-0.791c-9.486,0-17.128,7.642-17.128,17.128 c0,1.186,0.132,2.372,0.395,3.426C6.719,34.783,0,42.424,0,51.515C0,61.66,8.169,69.829,18.314,69.829h63.373 C91.831,69.829,100,61.66,100,51.515C99.868,42.556,93.281,35.046,84.717,33.597z" fill="rgba(255, 255, 255, 0.30541950841103827)" transform="scale(1.1100000000000003)"></path>
</g><g transform="translate(-100 314.06925584171216) rotate(0)">
  <animateTransform attributeName="transform" type="translate" keyTimes="0;1" values="-100 314.06925584171216;1536 314.06925584171216" dur="66.66666666666667s" repeatCount="indefinite" begin="-56.941106498498904s"></animateTransform>
  <path d="M84.717,33.597c0.791-2.503,1.186-5.138,1.186-7.773C85.903,11.594,74.308,0,60.079,0 c-9.881,0-18.445,5.534-22.793,13.702c-1.581-0.527-3.426-0.791-5.138-0.791c-9.486,0-17.128,7.642-17.128,17.128 c0,1.186,0.132,2.372,0.395,3.426C6.719,34.783,0,42.424,0,51.515C0,61.66,8.169,69.829,18.314,69.829h63.373 C91.831,69.829,100,61.66,100,51.515C99.868,42.556,93.281,35.046,84.717,33.597z" fill="rgba(255, 255, 255, 0.30541950841103827)" transform="scale(1.1100000000000003)"></path>
</g><g transform="translate(-100 175.95016028177835) rotate(0)">
  <animateTransform attributeName="transform" type="translate" keyTimes="0;1" values="-100 175.95016028177835;1536 175.95016028177835" dur="66.66666666666667s" repeatCount="indefinite" begin="-80.79286761118895s"></animateTransform>
  <path d="M84.717,33.597c0.791-2.503,1.186-5.138,1.186-7.773C85.903,11.594,74.308,0,60.079,0 c-9.881,0-18.445,5.534-22.793,13.702c-1.581-0.527-3.426-0.791-5.138-0.791c-9.486,0-17.128,7.642-17.128,17.128 c0,1.186,0.132,2.372,0.395,3.426C6.719,34.783,0,42.424,0,51.515C0,61.66,8.169,69.829,18.314,69.829h63.373 C91.831,69.829,100,61.66,100,51.515C99.868,42.556,93.281,35.046,84.717,33.597z" fill="rgba(255, 255, 255, 0.30541950841103827)" transform="scale(1.1100000000000003)"></path>
</g><g transform="translate(-100 7.907157077690647) rotate(0)">
  <animateTransform attributeName="transform" type="translate" keyTimes="0;1" values="-100 7.907157077690647;1536 7.907157077690647" dur="66.66666666666667s" repeatCount="indefinite" begin="-183.10003566866345s"></animateTransform>
  <path d="M84.717,33.597c0.791-2.503,1.186-5.138,1.186-7.773C85.903,11.594,74.308,0,60.079,0 c-9.881,0-18.445,5.534-22.793,13.702c-1.581-0.527-3.426-0.791-5.138-0.791c-9.486,0-17.128,7.642-17.128,17.128 c0,1.186,0.132,2.372,0.395,3.426C6.719,34.783,0,42.424,0,51.515C0,61.66,8.169,69.829,18.314,69.829h63.373 C91.831,69.829,100,61.66,100,51.515C99.868,42.556,93.281,35.046,84.717,33.597z" fill="rgba(255, 255, 255, 0.30541950841103827)" transform="scale(1.1100000000000003)"></path>
</g><g transform="translate(-100 33.8134685666576) rotate(0)">
  <animateTransform attributeName="transform" type="translate" keyTimes="0;1" values="-100 33.8134685666576;1536 33.8134685666576" dur="66.66666666666667s" repeatCount="indefinite" begin="-76.65485041102396s"></animateTransform>
  <path d="M84.717,33.597c0.791-2.503,1.186-5.138,1.186-7.773C85.903,11.594,74.308,0,60.079,0 c-9.881,0-18.445,5.534-22.793,13.702c-1.581-0.527-3.426-0.791-5.138-0.791c-9.486,0-17.128,7.642-17.128,17.128 c0,1.186,0.132,2.372,0.395,3.426C6.719,34.783,0,42.424,0,51.515C0,61.66,8.169,69.829,18.314,69.829h63.373 C91.831,69.829,100,61.66,100,51.515C99.868,42.556,93.281,35.046,84.717,33.597z" fill="rgba(255, 255, 255, 0.30541950841103827)" transform="scale(1.1100000000000003)"></path>
</g><g transform="translate(-100 620.7048914347508) rotate(0)">
  <animateTransform attributeName="transform" type="translate" keyTimes="0;1" values="-100 620.7048914347508;1536 620.7048914347508" dur="50s" repeatCount="indefinite" begin="-4.254285686948656s"></animateTransform>
  <path d="M84.717,33.597c0.791-2.503,1.186-5.138,1.186-7.773C85.903,11.594,74.308,0,60.079,0 c-9.881,0-18.445,5.534-22.793,13.702c-1.581-0.527-3.426-0.791-5.138-0.791c-9.486,0-17.128,7.642-17.128,17.128 c0,1.186,0.132,2.372,0.395,3.426C6.719,34.783,0,42.424,0,51.515C0,61.66,8.169,69.829,18.314,69.829h63.373 C91.831,69.829,100,61.66,100,51.515C99.868,42.556,93.281,35.046,84.717,33.597z" fill="rgba(255, 255, 255, 0.46477434712071575)" transform="scale(1.2000000000000002)"></path>
</g><g transform="translate(-100 362.64118742156353) rotate(0)">
  <animateTransform attributeName="transform" type="translate" keyTimes="0;1" values="-100 362.64118742156353;1536 362.64118742156353" dur="50s" repeatCount="indefinite" begin="-36.00572828978215s"></animateTransform>
  <path d="M84.717,33.597c0.791-2.503,1.186-5.138,1.186-7.773C85.903,11.594,74.308,0,60.079,0 c-9.881,0-18.445,5.534-22.793,13.702c-1.581-0.527-3.426-0.791-5.138-0.791c-9.486,0-17.128,7.642-17.128,17.128 c0,1.186,0.132,2.372,0.395,3.426C6.719,34.783,0,42.424,0,51.515C0,61.66,8.169,69.829,18.314,69.829h63.373 C91.831,69.829,100,61.66,100,51.515C99.868,42.556,93.281,35.046,84.717,33.597z" fill="rgba(255, 255, 255, 0.46477434712071575)" transform="scale(1.2000000000000002)"></path>
</g><g transform="translate(-100 167.64671545301786) rotate(0)">
  <animateTransform attributeName="transform" type="translate" keyTimes="0;1" values="-100 167.64671545301786;1536 167.64671545301786" dur="50s" repeatCount="indefinite" begin="-136.59349952523644s"></animateTransform>
  <path d="M84.717,33.597c0.791-2.503,1.186-5.138,1.186-7.773C85.903,11.594,74.308,0,60.079,0 c-9.881,0-18.445,5.534-22.793,13.702c-1.581-0.527-3.426-0.791-5.138-0.791c-9.486,0-17.128,7.642-17.128,17.128 c0,1.186,0.132,2.372,0.395,3.426C6.719,34.783,0,42.424,0,51.515C0,61.66,8.169,69.829,18.314,69.829h63.373 C91.831,69.829,100,61.66,100,51.515C99.868,42.556,93.281,35.046,84.717,33.597z" fill="rgba(255, 255, 255, 0.46477434712071575)" transform="scale(1.2000000000000002)"></path>
</g><g transform="translate(-100 262.7961014232932) rotate(0)">
  <animateTransform attributeName="transform" type="translate" keyTimes="0;1" values="-100 262.7961014232932;1536 262.7961014232932" dur="50s" repeatCount="indefinite" begin="-185.15875899326332s"></animateTransform>
  <path d="M84.717,33.597c0.791-2.503,1.186-5.138,1.186-7.773C85.903,11.594,74.308,0,60.079,0 c-9.881,0-18.445,5.534-22.793,13.702c-1.581-0.527-3.426-0.791-5.138-0.791c-9.486,0-17.128,7.642-17.128,17.128 c0,1.186,0.132,2.372,0.395,3.426C6.719,34.783,0,42.424,0,51.515C0,61.66,8.169,69.829,18.314,69.829h63.373 C91.831,69.829,100,61.66,100,51.515C99.868,42.556,93.281,35.046,84.717,33.597z" fill="rgba(255, 255, 255, 0.46477434712071575)" transform="scale(1.2000000000000002)"></path>
</g><g transform="translate(-100 396.5943092656576) rotate(0)">
  <animateTransform attributeName="transform" type="translate" keyTimes="0;1" values="-100 396.5943092656576;1536 396.5943092656576" dur="50s" repeatCount="indefinite" begin="-179.4907747847393s"></animateTransform>
  <path d="M84.717,33.597c0.791-2.503,1.186-5.138,1.186-7.773C85.903,11.594,74.308,0,60.079,0 c-9.881,0-18.445,5.534-22.793,13.702c-1.581-0.527-3.426-0.791-5.138-0.791c-9.486,0-17.128,7.642-17.128,17.128 c0,1.186,0.132,2.372,0.395,3.426C6.719,34.783,0,42.424,0,51.515C0,61.66,8.169,69.829,18.314,69.829h63.373 C91.831,69.829,100,61.66,100,51.515C99.868,42.556,93.281,35.046,84.717,33.597z" fill="rgba(255, 255, 255, 0.46477434712071575)" transform="scale(1.2000000000000002)"></path>
</g><g transform="translate(-100 189.02998358480434) rotate(0)">
  <animateTransform attributeName="transform" type="translate" keyTimes="0;1" values="-100 189.02998358480434;1536 189.02998358480434" dur="50s" repeatCount="indefinite" begin="-115.05154787387477s"></animateTransform>
  <path d="M84.717,33.597c0.791-2.503,1.186-5.138,1.186-7.773C85.903,11.594,74.308,0,60.079,0 c-9.881,0-18.445,5.534-22.793,13.702c-1.581-0.527-3.426-0.791-5.138-0.791c-9.486,0-17.128,7.642-17.128,17.128 c0,1.186,0.132,2.372,0.395,3.426C6.719,34.783,0,42.424,0,51.515C0,61.66,8.169,69.829,18.314,69.829h63.373 C91.831,69.829,100,61.66,100,51.515C99.868,42.556,93.281,35.046,84.717,33.597z" fill="rgba(255, 255, 255, 0.46477434712071575)" transform="scale(1.2000000000000002)"></path>
</g><g transform="translate(-100 279.97326443940506) rotate(0)">
  <animateTransform attributeName="transform" type="translate" keyTimes="0;1" values="-100 279.97326443940506;1536 279.97326443940506" dur="50s" repeatCount="indefinite" begin="-25.18090427479929s"></animateTransform>
  <path d="M84.717,33.597c0.791-2.503,1.186-5.138,1.186-7.773C85.903,11.594,74.308,0,60.079,0 c-9.881,0-18.445,5.534-22.793,13.702c-1.581-0.527-3.426-0.791-5.138-0.791c-9.486,0-17.128,7.642-17.128,17.128 c0,1.186,0.132,2.372,0.395,3.426C6.719,34.783,0,42.424,0,51.515C0,61.66,8.169,69.829,18.314,69.829h63.373 C91.831,69.829,100,61.66,100,51.515C99.868,42.556,93.281,35.046,84.717,33.597z" fill="rgba(255, 255, 255, 0.46477434712071575)" transform="scale(1.2000000000000002)"></path>
</g><g transform="translate(-100 458.16514808397864) rotate(0)">
  <animateTransform attributeName="transform" type="translate" keyTimes="0;1" values="-100 458.16514808397864;1536 458.16514808397864" dur="50s" repeatCount="indefinite" begin="-157.88668502991246s"></animateTransform>
  <path d="M84.717,33.597c0.791-2.503,1.186-5.138,1.186-7.773C85.903,11.594,74.308,0,60.079,0 c-9.881,0-18.445,5.534-22.793,13.702c-1.581-0.527-3.426-0.791-5.138-0.791c-9.486,0-17.128,7.642-17.128,17.128 c0,1.186,0.132,2.372,0.395,3.426C6.719,34.783,0,42.424,0,51.515C0,61.66,8.169,69.829,18.314,69.829h63.373 C91.831,69.829,100,61.66,100,51.515C99.868,42.556,93.281,35.046,84.717,33.597z" fill="rgba(255, 255, 255, 0.46477434712071575)" transform="scale(1.2000000000000002)"></path>
</g><g transform="translate(-100 234.2361341785273) rotate(0)">
  <animateTransform attributeName="transform" type="translate" keyTimes="0;1" values="-100 234.2361341785273;1536 234.2361341785273" dur="50s" repeatCount="indefinite" begin="-89.71212744781165s"></animateTransform>
  <path d="M84.717,33.597c0.791-2.503,1.186-5.138,1.186-7.773C85.903,11.594,74.308,0,60.079,0 c-9.881,0-18.445,5.534-22.793,13.702c-1.581-0.527-3.426-0.791-5.138-0.791c-9.486,0-17.128,7.642-17.128,17.128 c0,1.186,0.132,2.372,0.395,3.426C6.719,34.783,0,42.424,0,51.515C0,61.66,8.169,69.829,18.314,69.829h63.373 C91.831,69.829,100,61.66,100,51.515C99.868,42.556,93.281,35.046,84.717,33.597z" fill="rgba(255, 255, 255, 0.46477434712071575)" transform="scale(1.2000000000000002)"></path>
</g><g transform="translate(-100 438.4427637883697) rotate(0)">
  <animateTransform attributeName="transform" type="translate" keyTimes="0;1" values="-100 438.4427637883697;1536 438.4427637883697" dur="50s" repeatCount="indefinite" begin="-124.42568915502812s"></animateTransform>
  <path d="M84.717,33.597c0.791-2.503,1.186-5.138,1.186-7.773C85.903,11.594,74.308,0,60.079,0 c-9.881,0-18.445,5.534-22.793,13.702c-1.581-0.527-3.426-0.791-5.138-0.791c-9.486,0-17.128,7.642-17.128,17.128 c0,1.186,0.132,2.372,0.395,3.426C6.719,34.783,0,42.424,0,51.515C0,61.66,8.169,69.829,18.314,69.829h63.373 C91.831,69.829,100,61.66,100,51.515C99.868,42.556,93.281,35.046,84.717,33.597z" fill="rgba(255, 255, 255, 0.46477434712071575)" transform="scale(1.2000000000000002)"></path>
</g><g transform="translate(-100 406.9169859412624) rotate(0)">
  <animateTransform attributeName="transform" type="translate" keyTimes="0;1" values="-100 406.9169859412624;1536 406.9169859412624" dur="50s" repeatCount="indefinite" begin="-55.42443323565447s"></animateTransform>
  <path d="M84.717,33.597c0.791-2.503,1.186-5.138,1.186-7.773C85.903,11.594,74.308,0,60.079,0 c-9.881,0-18.445,5.534-22.793,13.702c-1.581-0.527-3.426-0.791-5.138-0.791c-9.486,0-17.128,7.642-17.128,17.128 c0,1.186,0.132,2.372,0.395,3.426C6.719,34.783,0,42.424,0,51.515C0,61.66,8.169,69.829,18.314,69.829h63.373 C91.831,69.829,100,61.66,100,51.515C99.868,42.556,93.281,35.046,84.717,33.597z" fill="rgba(255, 255, 255, 0.46477434712071575)" transform="scale(1.2000000000000002)"></path>
</g></g>
</svg>