<?xml version="1.0" encoding="utf-8"?>
<svg xmlns="http://www.w3.org/2000/svg" xmlns:xlink="http://www.w3.org/1999/xlink" style="margin: auto; background: rgba(122, 206, 255, 0); display: block; z-index: 1; position: relative; shape-rendering: auto;" width="1916" height="1244" preserveAspectRatio="xMidYMid" viewBox="0 0 1916 1244">
<g transform="translate(958,622) scale(1,1) translate(-958,-622)"><g transform="translate(-100 954.2240178726888) rotate(0)">
  <animateTransform attributeName="transform" type="translate" keyTimes="0;1" values="-100 954.2240178726888;1916 954.2240178726888" dur="250s" repeatCount="indefinite" begin="-152.5190980978901s"></animateTransform>
  <path d="M84.717,33.597c0.791-2.503,1.186-5.138,1.186-7.773C85.903,11.594,74.308,0,60.079,0 c-9.881,0-18.445,5.534-22.793,13.702c-1.581-0.527-3.426-0.791-5.138-0.791c-9.486,0-17.128,7.642-17.128,17.128 c0,1.186,0.132,2.372,0.395,3.426C6.719,34.783,0,42.424,0,51.515C0,61.66,8.169,69.829,18.314,69.829h63.373 C91.831,69.829,100,61.66,100,51.515C99.868,42.556,93.281,35.046,84.717,33.597z" fill="rgba(189, 222, 255, 0.4849033281880041)" transform="scale(0.55)"></path>
</g><g transform="translate(-100 453.54281722270764) rotate(0)">
  <animateTransform attributeName="transform" type="translate" keyTimes="0;1" values="-100 453.54281722270764;1916 453.54281722270764" dur="250s" repeatCount="indefinite" begin="-210.3601164361844s"></animateTransform>
  <path d="M84.717,33.597c0.791-2.503,1.186-5.138,1.186-7.773C85.903,11.594,74.308,0,60.079,0 c-9.881,0-18.445,5.534-22.793,13.702c-1.581-0.527-3.426-0.791-5.138-0.791c-9.486,0-17.128,7.642-17.128,17.128 c0,1.186,0.132,2.372,0.395,3.426C6.719,34.783,0,42.424,0,51.515C0,61.66,8.169,69.829,18.314,69.829h63.373 C91.831,69.829,100,61.66,100,51.515C99.868,42.556,93.281,35.046,84.717,33.597z" fill="rgba(189, 222, 255, 0.4849033281880041)" transform="scale(0.55)"></path>
</g><g transform="translate(-100 1056.1128734937413) rotate(0)">
  <animateTransform attributeName="transform" type="translate" keyTimes="0;1" values="-100 1056.1128734937413;1916 1056.1128734937413" dur="250s" repeatCount="indefinite" begin="-188.02757466513881s"></animateTransform>
  <path d="M84.717,33.597c0.791-2.503,1.186-5.138,1.186-7.773C85.903,11.594,74.308,0,60.079,0 c-9.881,0-18.445,5.534-22.793,13.702c-1.581-0.527-3.426-0.791-5.138-0.791c-9.486,0-17.128,7.642-17.128,17.128 c0,1.186,0.132,2.372,0.395,3.426C6.719,34.783,0,42.424,0,51.515C0,61.66,8.169,69.829,18.314,69.829h63.373 C91.831,69.829,100,61.66,100,51.515C99.868,42.556,93.281,35.046,84.717,33.597z" fill="rgba(189, 222, 255, 0.4849033281880041)" transform="scale(0.55)"></path>
</g><g transform="translate(-100 598.8427112692223) rotate(0)">
  <animateTransform attributeName="transform" type="translate" keyTimes="0;1" values="-100 598.8427112692223;1916 598.8427112692223" dur="250s" repeatCount="indefinite" begin="-37.194581551545035s"></animateTransform>
  <path d="M84.717,33.597c0.791-2.503,1.186-5.138,1.186-7.773C85.903,11.594,74.308,0,60.079,0 c-9.881,0-18.445,5.534-22.793,13.702c-1.581-0.527-3.426-0.791-5.138-0.791c-9.486,0-17.128,7.642-17.128,17.128 c0,1.186,0.132,2.372,0.395,3.426C6.719,34.783,0,42.424,0,51.515C0,61.66,8.169,69.829,18.314,69.829h63.373 C91.831,69.829,100,61.66,100,51.515C99.868,42.556,93.281,35.046,84.717,33.597z" fill="rgba(189, 222, 255, 0.4849033281880041)" transform="scale(0.55)"></path>
</g><g transform="translate(-100 111.94492778282908) rotate(0)">
  <animateTransform attributeName="transform" type="translate" keyTimes="0;1" values="-100 111.94492778282908;1916 111.94492778282908" dur="250s" repeatCount="indefinite" begin="-245.43048557728548s"></animateTransform>
  <path d="M84.717,33.597c0.791-2.503,1.186-5.138,1.186-7.773C85.903,11.594,74.308,0,60.079,0 c-9.881,0-18.445,5.534-22.793,13.702c-1.581-0.527-3.426-0.791-5.138-0.791c-9.486,0-17.128,7.642-17.128,17.128 c0,1.186,0.132,2.372,0.395,3.426C6.719,34.783,0,42.424,0,51.515C0,61.66,8.169,69.829,18.314,69.829h63.373 C91.831,69.829,100,61.66,100,51.515C99.868,42.556,93.281,35.046,84.717,33.597z" fill="rgba(189, 222, 255, 0.4849033281880041)" transform="scale(0.55)"></path>
</g><g transform="translate(-100 128.15458750794485) rotate(0)">
  <animateTransform attributeName="transform" type="translate" keyTimes="0;1" values="-100 128.15458750794485;1916 128.15458750794485" dur="250s" repeatCount="indefinite" begin="-11.80339616980186s"></animateTransform>
  <path d="M84.717,33.597c0.791-2.503,1.186-5.138,1.186-7.773C85.903,11.594,74.308,0,60.079,0 c-9.881,0-18.445,5.534-22.793,13.702c-1.581-0.527-3.426-0.791-5.138-0.791c-9.486,0-17.128,7.642-17.128,17.128 c0,1.186,0.132,2.372,0.395,3.426C6.719,34.783,0,42.424,0,51.515C0,61.66,8.169,69.829,18.314,69.829h63.373 C91.831,69.829,100,61.66,100,51.515C99.868,42.556,93.281,35.046,84.717,33.597z" fill="rgba(189, 222, 255, 0.4849033281880041)" transform="scale(0.55)"></path>
</g><g transform="translate(-100 1218.4353524639191) rotate(0)">
  <animateTransform attributeName="transform" type="translate" keyTimes="0;1" values="-100 1218.4353524639191;1916 1218.4353524639191" dur="250s" repeatCount="indefinite" begin="-197.96524736004184s"></animateTransform>
  <path d="M84.717,33.597c0.791-2.503,1.186-5.138,1.186-7.773C85.903,11.594,74.308,0,60.079,0 c-9.881,0-18.445,5.534-22.793,13.702c-1.581-0.527-3.426-0.791-5.138-0.791c-9.486,0-17.128,7.642-17.128,17.128 c0,1.186,0.132,2.372,0.395,3.426C6.719,34.783,0,42.424,0,51.515C0,61.66,8.169,69.829,18.314,69.829h63.373 C91.831,69.829,100,61.66,100,51.515C99.868,42.556,93.281,35.046,84.717,33.597z" fill="rgba(189, 222, 255, 0.4849033281880041)" transform="scale(0.55)"></path>
</g><g transform="translate(-100 891.4573042127153) rotate(0)">
  <animateTransform attributeName="transform" type="translate" keyTimes="0;1" values="-100 891.4573042127153;1916 891.4573042127153" dur="250s" repeatCount="indefinite" begin="-107.89124583257126s"></animateTransform>
  <path d="M84.717,33.597c0.791-2.503,1.186-5.138,1.186-7.773C85.903,11.594,74.308,0,60.079,0 c-9.881,0-18.445,5.534-22.793,13.702c-1.581-0.527-3.426-0.791-5.138-0.791c-9.486,0-17.128,7.642-17.128,17.128 c0,1.186,0.132,2.372,0.395,3.426C6.719,34.783,0,42.424,0,51.515C0,61.66,8.169,69.829,18.314,69.829h63.373 C91.831,69.829,100,61.66,100,51.515C99.868,42.556,93.281,35.046,84.717,33.597z" fill="rgba(189, 222, 255, 0.4849033281880041)" transform="scale(0.55)"></path>
</g><g transform="translate(-100 97.15055031533649) rotate(0)">
  <animateTransform attributeName="transform" type="translate" keyTimes="0;1" values="-100 97.15055031533649;1916 97.15055031533649" dur="250s" repeatCount="indefinite" begin="-171.7800483354316s"></animateTransform>
  <path d="M84.717,33.597c0.791-2.503,1.186-5.138,1.186-7.773C85.903,11.594,74.308,0,60.079,0 c-9.881,0-18.445,5.534-22.793,13.702c-1.581-0.527-3.426-0.791-5.138-0.791c-9.486,0-17.128,7.642-17.128,17.128 c0,1.186,0.132,2.372,0.395,3.426C6.719,34.783,0,42.424,0,51.515C0,61.66,8.169,69.829,18.314,69.829h63.373 C91.831,69.829,100,61.66,100,51.515C99.868,42.556,93.281,35.046,84.717,33.597z" fill="rgba(189, 222, 255, 0.4849033281880041)" transform="scale(0.55)"></path>
</g><g transform="translate(-100 236.81804839269782) rotate(0)">
  <animateTransform attributeName="transform" type="translate" keyTimes="0;1" values="-100 236.81804839269782;1916 236.81804839269782" dur="250s" repeatCount="indefinite" begin="-160.26114103146926s"></animateTransform>
  <path d="M84.717,33.597c0.791-2.503,1.186-5.138,1.186-7.773C85.903,11.594,74.308,0,60.079,0 c-9.881,0-18.445,5.534-22.793,13.702c-1.581-0.527-3.426-0.791-5.138-0.791c-9.486,0-17.128,7.642-17.128,17.128 c0,1.186,0.132,2.372,0.395,3.426C6.719,34.783,0,42.424,0,51.515C0,61.66,8.169,69.829,18.314,69.829h63.373 C91.831,69.829,100,61.66,100,51.515C99.868,42.556,93.281,35.046,84.717,33.597z" fill="rgba(189, 222, 255, 0.4849033281880041)" transform="scale(0.55)"></path>
</g><g transform="translate(-100 716.5992369355271) rotate(0)">
  <animateTransform attributeName="transform" type="translate" keyTimes="0;1" values="-100 716.5992369355271;1916 716.5992369355271" dur="250s" repeatCount="indefinite" begin="-212.8683185035194s"></animateTransform>
  <path d="M84.717,33.597c0.791-2.503,1.186-5.138,1.186-7.773C85.903,11.594,74.308,0,60.079,0 c-9.881,0-18.445,5.534-22.793,13.702c-1.581-0.527-3.426-0.791-5.138-0.791c-9.486,0-17.128,7.642-17.128,17.128 c0,1.186,0.132,2.372,0.395,3.426C6.719,34.783,0,42.424,0,51.515C0,61.66,8.169,69.829,18.314,69.829h63.373 C91.831,69.829,100,61.66,100,51.515C99.868,42.556,93.281,35.046,84.717,33.597z" fill="rgba(189, 222, 255, 0.4849033281880041)" transform="scale(0.55)"></path>
</g><g transform="translate(-100 918.2549211902071) rotate(0)">
  <animateTransform attributeName="transform" type="translate" keyTimes="0;1" values="-100 918.2549211902071;1916 918.2549211902071" dur="250s" repeatCount="indefinite" begin="-134.49490398908114s"></animateTransform>
  <path d="M84.717,33.597c0.791-2.503,1.186-5.138,1.186-7.773C85.903,11.594,74.308,0,60.079,0 c-9.881,0-18.445,5.534-22.793,13.702c-1.581-0.527-3.426-0.791-5.138-0.791c-9.486,0-17.128,7.642-17.128,17.128 c0,1.186,0.132,2.372,0.395,3.426C6.719,34.783,0,42.424,0,51.515C0,61.66,8.169,69.829,18.314,69.829h63.373 C91.831,69.829,100,61.66,100,51.515C99.868,42.556,93.281,35.046,84.717,33.597z" fill="rgba(189, 222, 255, 0.4849033281880041)" transform="scale(0.55)"></path>
</g><g transform="translate(-100 1213.1759339712507) rotate(0)">
  <animateTransform attributeName="transform" type="translate" keyTimes="0;1" values="-100 1213.1759339712507;1916 1213.1759339712507" dur="250s" repeatCount="indefinite" begin="-80.76720095843304s"></animateTransform>
  <path d="M84.717,33.597c0.791-2.503,1.186-5.138,1.186-7.773C85.903,11.594,74.308,0,60.079,0 c-9.881,0-18.445,5.534-22.793,13.702c-1.581-0.527-3.426-0.791-5.138-0.791c-9.486,0-17.128,7.642-17.128,17.128 c0,1.186,0.132,2.372,0.395,3.426C6.719,34.783,0,42.424,0,51.515C0,61.66,8.169,69.829,18.314,69.829h63.373 C91.831,69.829,100,61.66,100,51.515C99.868,42.556,93.281,35.046,84.717,33.597z" fill="rgba(189, 222, 255, 0.4849033281880041)" transform="scale(0.55)"></path>
</g><g transform="translate(-100 658.8265052909508) rotate(0)">
  <animateTransform attributeName="transform" type="translate" keyTimes="0;1" values="-100 658.8265052909508;1916 658.8265052909508" dur="250s" repeatCount="indefinite" begin="-138.8420253487503s"></animateTransform>
  <path d="M84.717,33.597c0.791-2.503,1.186-5.138,1.186-7.773C85.903,11.594,74.308,0,60.079,0 c-9.881,0-18.445,5.534-22.793,13.702c-1.581-0.527-3.426-0.791-5.138-0.791c-9.486,0-17.128,7.642-17.128,17.128 c0,1.186,0.132,2.372,0.395,3.426C6.719,34.783,0,42.424,0,51.515C0,61.66,8.169,69.829,18.314,69.829h63.373 C91.831,69.829,100,61.66,100,51.515C99.868,42.556,93.281,35.046,84.717,33.597z" fill="rgba(189, 222, 255, 0.4849033281880041)" transform="scale(0.55)"></path>
</g><g transform="translate(-100 639.1002019848927) rotate(0)">
  <animateTransform attributeName="transform" type="translate" keyTimes="0;1" values="-100 639.1002019848927;1916 639.1002019848927" dur="250s" repeatCount="indefinite" begin="-237.251781251898s"></animateTransform>
  <path d="M84.717,33.597c0.791-2.503,1.186-5.138,1.186-7.773C85.903,11.594,74.308,0,60.079,0 c-9.881,0-18.445,5.534-22.793,13.702c-1.581-0.527-3.426-0.791-5.138-0.791c-9.486,0-17.128,7.642-17.128,17.128 c0,1.186,0.132,2.372,0.395,3.426C6.719,34.783,0,42.424,0,51.515C0,61.66,8.169,69.829,18.314,69.829h63.373 C91.831,69.829,100,61.66,100,51.515C99.868,42.556,93.281,35.046,84.717,33.597z" fill="rgba(189, 222, 255, 0.4849033281880041)" transform="scale(0.55)"></path>
</g><g transform="translate(-100 1199.7072313436408) rotate(0)">
  <animateTransform attributeName="transform" type="translate" keyTimes="0;1" values="-100 1199.7072313436408;1916 1199.7072313436408" dur="250s" repeatCount="indefinite" begin="-206.34148446490298s"></animateTransform>
  <path d="M84.717,33.597c0.791-2.503,1.186-5.138,1.186-7.773C85.903,11.594,74.308,0,60.079,0 c-9.881,0-18.445,5.534-22.793,13.702c-1.581-0.527-3.426-0.791-5.138-0.791c-9.486,0-17.128,7.642-17.128,17.128 c0,1.186,0.132,2.372,0.395,3.426C6.719,34.783,0,42.424,0,51.515C0,61.66,8.169,69.829,18.314,69.829h63.373 C91.831,69.829,100,61.66,100,51.515C99.868,42.556,93.281,35.046,84.717,33.597z" fill="rgba(189, 222, 255, 0.4849033281880041)" transform="scale(0.55)"></path>
</g><g transform="translate(-100 525.4439821792153) rotate(0)">
  <animateTransform attributeName="transform" type="translate" keyTimes="0;1" values="-100 525.4439821792153;1916 525.4439821792153" dur="250s" repeatCount="indefinite" begin="-47.33751486445764s"></animateTransform>
  <path d="M84.717,33.597c0.791-2.503,1.186-5.138,1.186-7.773C85.903,11.594,74.308,0,60.079,0 c-9.881,0-18.445,5.534-22.793,13.702c-1.581-0.527-3.426-0.791-5.138-0.791c-9.486,0-17.128,7.642-17.128,17.128 c0,1.186,0.132,2.372,0.395,3.426C6.719,34.783,0,42.424,0,51.515C0,61.66,8.169,69.829,18.314,69.829h63.373 C91.831,69.829,100,61.66,100,51.515C99.868,42.556,93.281,35.046,84.717,33.597z" fill="rgba(189, 222, 255, 0.4849033281880041)" transform="scale(0.55)"></path>
</g><g transform="translate(-100 144.14974135158698) rotate(0)">
  <animateTransform attributeName="transform" type="translate" keyTimes="0;1" values="-100 144.14974135158698;1916 144.14974135158698" dur="250s" repeatCount="indefinite" begin="-178.00456832508843s"></animateTransform>
  <path d="M84.717,33.597c0.791-2.503,1.186-5.138,1.186-7.773C85.903,11.594,74.308,0,60.079,0 c-9.881,0-18.445,5.534-22.793,13.702c-1.581-0.527-3.426-0.791-5.138-0.791c-9.486,0-17.128,7.642-17.128,17.128 c0,1.186,0.132,2.372,0.395,3.426C6.719,34.783,0,42.424,0,51.515C0,61.66,8.169,69.829,18.314,69.829h63.373 C91.831,69.829,100,61.66,100,51.515C99.868,42.556,93.281,35.046,84.717,33.597z" fill="rgba(189, 222, 255, 0.4849033281880041)" transform="scale(0.55)"></path>
</g><g transform="translate(-100 506.7738748165856) rotate(0)">
  <animateTransform attributeName="transform" type="translate" keyTimes="0;1" values="-100 506.7738748165856;1916 506.7738748165856" dur="250s" repeatCount="indefinite" begin="-204.6542152411307s"></animateTransform>
  <path d="M84.717,33.597c0.791-2.503,1.186-5.138,1.186-7.773C85.903,11.594,74.308,0,60.079,0 c-9.881,0-18.445,5.534-22.793,13.702c-1.581-0.527-3.426-0.791-5.138-0.791c-9.486,0-17.128,7.642-17.128,17.128 c0,1.186,0.132,2.372,0.395,3.426C6.719,34.783,0,42.424,0,51.515C0,61.66,8.169,69.829,18.314,69.829h63.373 C91.831,69.829,100,61.66,100,51.515C99.868,42.556,93.281,35.046,84.717,33.597z" fill="rgba(189, 222, 255, 0.4849033281880041)" transform="scale(0.55)"></path>
</g><g transform="translate(-100 514.7506845905689) rotate(0)">
  <animateTransform attributeName="transform" type="translate" keyTimes="0;1" values="-100 514.7506845905689;1916 514.7506845905689" dur="250s" repeatCount="indefinite" begin="-125.18127023245279s"></animateTransform>
  <path d="M84.717,33.597c0.791-2.503,1.186-5.138,1.186-7.773C85.903,11.594,74.308,0,60.079,0 c-9.881,0-18.445,5.534-22.793,13.702c-1.581-0.527-3.426-0.791-5.138-0.791c-9.486,0-17.128,7.642-17.128,17.128 c0,1.186,0.132,2.372,0.395,3.426C6.719,34.783,0,42.424,0,51.515C0,61.66,8.169,69.829,18.314,69.829h63.373 C91.831,69.829,100,61.66,100,51.515C99.868,42.556,93.281,35.046,84.717,33.597z" fill="rgba(189, 222, 255, 0.4849033281880041)" transform="scale(0.55)"></path>
</g><g transform="translate(-100 829.0351769559818) rotate(0)">
  <animateTransform attributeName="transform" type="translate" keyTimes="0;1" values="-100 829.0351769559818;1916 829.0351769559818" dur="250s" repeatCount="indefinite" begin="-143.9371375293999s"></animateTransform>
  <path d="M84.717,33.597c0.791-2.503,1.186-5.138,1.186-7.773C85.903,11.594,74.308,0,60.079,0 c-9.881,0-18.445,5.534-22.793,13.702c-1.581-0.527-3.426-0.791-5.138-0.791c-9.486,0-17.128,7.642-17.128,17.128 c0,1.186,0.132,2.372,0.395,3.426C6.719,34.783,0,42.424,0,51.515C0,61.66,8.169,69.829,18.314,69.829h63.373 C91.831,69.829,100,61.66,100,51.515C99.868,42.556,93.281,35.046,84.717,33.597z" fill="rgba(189, 222, 255, 0.4849033281880041)" transform="scale(0.55)"></path>
</g><g transform="translate(-100 1095.5726558411923) rotate(0)">
  <animateTransform attributeName="transform" type="translate" keyTimes="0;1" values="-100 1095.5726558411923;1916 1095.5726558411923" dur="250s" repeatCount="indefinite" begin="-98.48601105495003s"></animateTransform>
  <path d="M84.717,33.597c0.791-2.503,1.186-5.138,1.186-7.773C85.903,11.594,74.308,0,60.079,0 c-9.881,0-18.445,5.534-22.793,13.702c-1.581-0.527-3.426-0.791-5.138-0.791c-9.486,0-17.128,7.642-17.128,17.128 c0,1.186,0.132,2.372,0.395,3.426C6.719,34.783,0,42.424,0,51.515C0,61.66,8.169,69.829,18.314,69.829h63.373 C91.831,69.829,100,61.66,100,51.515C99.868,42.556,93.281,35.046,84.717,33.597z" fill="rgba(189, 222, 255, 0.4849033281880041)" transform="scale(0.55)"></path>
</g><g transform="translate(-100 1165.8492186583626) rotate(0)">
  <animateTransform attributeName="transform" type="translate" keyTimes="0;1" values="-100 1165.8492186583626;1916 1165.8492186583626" dur="250s" repeatCount="indefinite" begin="-185.45396878261127s"></animateTransform>
  <path d="M84.717,33.597c0.791-2.503,1.186-5.138,1.186-7.773C85.903,11.594,74.308,0,60.079,0 c-9.881,0-18.445,5.534-22.793,13.702c-1.581-0.527-3.426-0.791-5.138-0.791c-9.486,0-17.128,7.642-17.128,17.128 c0,1.186,0.132,2.372,0.395,3.426C6.719,34.783,0,42.424,0,51.515C0,61.66,8.169,69.829,18.314,69.829h63.373 C91.831,69.829,100,61.66,100,51.515C99.868,42.556,93.281,35.046,84.717,33.597z" fill="rgba(189, 222, 255, 0.4849033281880041)" transform="scale(0.55)"></path>
</g><g transform="translate(-100 1142.8075304260808) rotate(0)">
  <animateTransform attributeName="transform" type="translate" keyTimes="0;1" values="-100 1142.8075304260808;1916 1142.8075304260808" dur="250s" repeatCount="indefinite" begin="-167.17012798287607s"></animateTransform>
  <path d="M84.717,33.597c0.791-2.503,1.186-5.138,1.186-7.773C85.903,11.594,74.308,0,60.079,0 c-9.881,0-18.445,5.534-22.793,13.702c-1.581-0.527-3.426-0.791-5.138-0.791c-9.486,0-17.128,7.642-17.128,17.128 c0,1.186,0.132,2.372,0.395,3.426C6.719,34.783,0,42.424,0,51.515C0,61.66,8.169,69.829,18.314,69.829h63.373 C91.831,69.829,100,61.66,100,51.515C99.868,42.556,93.281,35.046,84.717,33.597z" fill="rgba(189, 222, 255, 0.4849033281880041)" transform="scale(0.55)"></path>
</g><g transform="translate(-100 972.4292095791061) rotate(0)">
  <animateTransform attributeName="transform" type="translate" keyTimes="0;1" values="-100 972.4292095791061;1916 972.4292095791061" dur="250s" repeatCount="indefinite" begin="-231.37547975170125s"></animateTransform>
  <path d="M84.717,33.597c0.791-2.503,1.186-5.138,1.186-7.773C85.903,11.594,74.308,0,60.079,0 c-9.881,0-18.445,5.534-22.793,13.702c-1.581-0.527-3.426-0.791-5.138-0.791c-9.486,0-17.128,7.642-17.128,17.128 c0,1.186,0.132,2.372,0.395,3.426C6.719,34.783,0,42.424,0,51.515C0,61.66,8.169,69.829,18.314,69.829h63.373 C91.831,69.829,100,61.66,100,51.515C99.868,42.556,93.281,35.046,84.717,33.597z" fill="rgba(189, 222, 255, 0.4849033281880041)" transform="scale(0.55)"></path>
</g><g transform="translate(-100 593.590789845906) rotate(0)">
  <animateTransform attributeName="transform" type="translate" keyTimes="0;1" values="-100 593.590789845906;1916 593.590789845906" dur="125s" repeatCount="indefinite" begin="-133.20095846024748s"></animateTransform>
  <path d="M84.717,33.597c0.791-2.503,1.186-5.138,1.186-7.773C85.903,11.594,74.308,0,60.079,0 c-9.881,0-18.445,5.534-22.793,13.702c-1.581-0.527-3.426-0.791-5.138-0.791c-9.486,0-17.128,7.642-17.128,17.128 c0,1.186,0.132,2.372,0.395,3.426C6.719,34.783,0,42.424,0,51.515C0,61.66,8.169,69.829,18.314,69.829h63.373 C91.831,69.829,100,61.66,100,51.515C99.868,42.556,93.281,35.046,84.717,33.597z" fill="rgba(255, 255, 255, 0.5016775217363911)" transform="scale(0.7)"></path>
</g><g transform="translate(-100 541.7908568060992) rotate(0)">
  <animateTransform attributeName="transform" type="translate" keyTimes="0;1" values="-100 541.7908568060992;1916 541.7908568060992" dur="125s" repeatCount="indefinite" begin="-235.99574150986962s"></animateTransform>
  <path d="M84.717,33.597c0.791-2.503,1.186-5.138,1.186-7.773C85.903,11.594,74.308,0,60.079,0 c-9.881,0-18.445,5.534-22.793,13.702c-1.581-0.527-3.426-0.791-5.138-0.791c-9.486,0-17.128,7.642-17.128,17.128 c0,1.186,0.132,2.372,0.395,3.426C6.719,34.783,0,42.424,0,51.515C0,61.66,8.169,69.829,18.314,69.829h63.373 C91.831,69.829,100,61.66,100,51.515C99.868,42.556,93.281,35.046,84.717,33.597z" fill="rgba(255, 255, 255, 0.5016775217363911)" transform="scale(0.7)"></path>
</g><g transform="translate(-100 481.74954558331325) rotate(0)">
  <animateTransform attributeName="transform" type="translate" keyTimes="0;1" values="-100 481.74954558331325;1916 481.74954558331325" dur="125s" repeatCount="indefinite" begin="-85.22483404907366s"></animateTransform>
  <path d="M84.717,33.597c0.791-2.503,1.186-5.138,1.186-7.773C85.903,11.594,74.308,0,60.079,0 c-9.881,0-18.445,5.534-22.793,13.702c-1.581-0.527-3.426-0.791-5.138-0.791c-9.486,0-17.128,7.642-17.128,17.128 c0,1.186,0.132,2.372,0.395,3.426C6.719,34.783,0,42.424,0,51.515C0,61.66,8.169,69.829,18.314,69.829h63.373 C91.831,69.829,100,61.66,100,51.515C99.868,42.556,93.281,35.046,84.717,33.597z" fill="rgba(255, 255, 255, 0.5016775217363911)" transform="scale(0.7)"></path>
</g><g transform="translate(-100 356.0124691219986) rotate(0)">
  <animateTransform attributeName="transform" type="translate" keyTimes="0;1" values="-100 356.0124691219986;1916 356.0124691219986" dur="125s" repeatCount="indefinite" begin="-201.7897119664896s"></animateTransform>
  <path d="M84.717,33.597c0.791-2.503,1.186-5.138,1.186-7.773C85.903,11.594,74.308,0,60.079,0 c-9.881,0-18.445,5.534-22.793,13.702c-1.581-0.527-3.426-0.791-5.138-0.791c-9.486,0-17.128,7.642-17.128,17.128 c0,1.186,0.132,2.372,0.395,3.426C6.719,34.783,0,42.424,0,51.515C0,61.66,8.169,69.829,18.314,69.829h63.373 C91.831,69.829,100,61.66,100,51.515C99.868,42.556,93.281,35.046,84.717,33.597z" fill="rgba(255, 255, 255, 0.5016775217363911)" transform="scale(0.7)"></path>
</g><g transform="translate(-100 813.9984539412666) rotate(0)">
  <animateTransform attributeName="transform" type="translate" keyTimes="0;1" values="-100 813.9984539412666;1916 813.9984539412666" dur="125s" repeatCount="indefinite" begin="-27.478719913119175s"></animateTransform>
  <path d="M84.717,33.597c0.791-2.503,1.186-5.138,1.186-7.773C85.903,11.594,74.308,0,60.079,0 c-9.881,0-18.445,5.534-22.793,13.702c-1.581-0.527-3.426-0.791-5.138-0.791c-9.486,0-17.128,7.642-17.128,17.128 c0,1.186,0.132,2.372,0.395,3.426C6.719,34.783,0,42.424,0,51.515C0,61.66,8.169,69.829,18.314,69.829h63.373 C91.831,69.829,100,61.66,100,51.515C99.868,42.556,93.281,35.046,84.717,33.597z" fill="rgba(255, 255, 255, 0.5016775217363911)" transform="scale(0.7)"></path>
</g><g transform="translate(-100 96.3469818751412) rotate(0)">
  <animateTransform attributeName="transform" type="translate" keyTimes="0;1" values="-100 96.3469818751412;1916 96.3469818751412" dur="125s" repeatCount="indefinite" begin="-245.63278253233383s"></animateTransform>
  <path d="M84.717,33.597c0.791-2.503,1.186-5.138,1.186-7.773C85.903,11.594,74.308,0,60.079,0 c-9.881,0-18.445,5.534-22.793,13.702c-1.581-0.527-3.426-0.791-5.138-0.791c-9.486,0-17.128,7.642-17.128,17.128 c0,1.186,0.132,2.372,0.395,3.426C6.719,34.783,0,42.424,0,51.515C0,61.66,8.169,69.829,18.314,69.829h63.373 C91.831,69.829,100,61.66,100,51.515C99.868,42.556,93.281,35.046,84.717,33.597z" fill="rgba(255, 255, 255, 0.5016775217363911)" transform="scale(0.7)"></path>
</g><g transform="translate(-100 308.2749373413368) rotate(0)">
  <animateTransform attributeName="transform" type="translate" keyTimes="0;1" values="-100 308.2749373413368;1916 308.2749373413368" dur="125s" repeatCount="indefinite" begin="-6.880391909938222s"></animateTransform>
  <path d="M84.717,33.597c0.791-2.503,1.186-5.138,1.186-7.773C85.903,11.594,74.308,0,60.079,0 c-9.881,0-18.445,5.534-22.793,13.702c-1.581-0.527-3.426-0.791-5.138-0.791c-9.486,0-17.128,7.642-17.128,17.128 c0,1.186,0.132,2.372,0.395,3.426C6.719,34.783,0,42.424,0,51.515C0,61.66,8.169,69.829,18.314,69.829h63.373 C91.831,69.829,100,61.66,100,51.515C99.868,42.556,93.281,35.046,84.717,33.597z" fill="rgba(255, 255, 255, 0.5016775217363911)" transform="scale(0.7)"></path>
</g><g transform="translate(-100 184.14206719004738) rotate(0)">
  <animateTransform attributeName="transform" type="translate" keyTimes="0;1" values="-100 184.14206719004738;1916 184.14206719004738" dur="125s" repeatCount="indefinite" begin="-160.6331818740504s"></animateTransform>
  <path d="M84.717,33.597c0.791-2.503,1.186-5.138,1.186-7.773C85.903,11.594,74.308,0,60.079,0 c-9.881,0-18.445,5.534-22.793,13.702c-1.581-0.527-3.426-0.791-5.138-0.791c-9.486,0-17.128,7.642-17.128,17.128 c0,1.186,0.132,2.372,0.395,3.426C6.719,34.783,0,42.424,0,51.515C0,61.66,8.169,69.829,18.314,69.829h63.373 C91.831,69.829,100,61.66,100,51.515C99.868,42.556,93.281,35.046,84.717,33.597z" fill="rgba(255, 255, 255, 0.5016775217363911)" transform="scale(0.7)"></path>
</g><g transform="translate(-100 899.9636750082359) rotate(0)">
  <animateTransform attributeName="transform" type="translate" keyTimes="0;1" values="-100 899.9636750082359;1916 899.9636750082359" dur="125s" repeatCount="indefinite" begin="-64.47104227852601s"></animateTransform>
  <path d="M84.717,33.597c0.791-2.503,1.186-5.138,1.186-7.773C85.903,11.594,74.308,0,60.079,0 c-9.881,0-18.445,5.534-22.793,13.702c-1.581-0.527-3.426-0.791-5.138-0.791c-9.486,0-17.128,7.642-17.128,17.128 c0,1.186,0.132,2.372,0.395,3.426C6.719,34.783,0,42.424,0,51.515C0,61.66,8.169,69.829,18.314,69.829h63.373 C91.831,69.829,100,61.66,100,51.515C99.868,42.556,93.281,35.046,84.717,33.597z" fill="rgba(255, 255, 255, 0.5016775217363911)" transform="scale(0.7)"></path>
</g><g transform="translate(-100 1130.4391485782792) rotate(0)">
  <animateTransform attributeName="transform" type="translate" keyTimes="0;1" values="-100 1130.4391485782792;1916 1130.4391485782792" dur="125s" repeatCount="indefinite" begin="-245.8583633543323s"></animateTransform>
  <path d="M84.717,33.597c0.791-2.503,1.186-5.138,1.186-7.773C85.903,11.594,74.308,0,60.079,0 c-9.881,0-18.445,5.534-22.793,13.702c-1.581-0.527-3.426-0.791-5.138-0.791c-9.486,0-17.128,7.642-17.128,17.128 c0,1.186,0.132,2.372,0.395,3.426C6.719,34.783,0,42.424,0,51.515C0,61.66,8.169,69.829,18.314,69.829h63.373 C91.831,69.829,100,61.66,100,51.515C99.868,42.556,93.281,35.046,84.717,33.597z" fill="rgba(255, 255, 255, 0.5016775217363911)" transform="scale(0.7)"></path>
</g><g transform="translate(-100 1149.6787923098311) rotate(0)">
  <animateTransform attributeName="transform" type="translate" keyTimes="0;1" values="-100 1149.6787923098311;1916 1149.6787923098311" dur="125s" repeatCount="indefinite" begin="-156.85170011115324s"></animateTransform>
  <path d="M84.717,33.597c0.791-2.503,1.186-5.138,1.186-7.773C85.903,11.594,74.308,0,60.079,0 c-9.881,0-18.445,5.534-22.793,13.702c-1.581-0.527-3.426-0.791-5.138-0.791c-9.486,0-17.128,7.642-17.128,17.128 c0,1.186,0.132,2.372,0.395,3.426C6.719,34.783,0,42.424,0,51.515C0,61.66,8.169,69.829,18.314,69.829h63.373 C91.831,69.829,100,61.66,100,51.515C99.868,42.556,93.281,35.046,84.717,33.597z" fill="rgba(255, 255, 255, 0.5016775217363911)" transform="scale(0.7)"></path>
</g><g transform="translate(-100 890.1643456403278) rotate(0)">
  <animateTransform attributeName="transform" type="translate" keyTimes="0;1" values="-100 890.1643456403278;1916 890.1643456403278" dur="125s" repeatCount="indefinite" begin="-153.65234719604638s"></animateTransform>
  <path d="M84.717,33.597c0.791-2.503,1.186-5.138,1.186-7.773C85.903,11.594,74.308,0,60.079,0 c-9.881,0-18.445,5.534-22.793,13.702c-1.581-0.527-3.426-0.791-5.138-0.791c-9.486,0-17.128,7.642-17.128,17.128 c0,1.186,0.132,2.372,0.395,3.426C6.719,34.783,0,42.424,0,51.515C0,61.66,8.169,69.829,18.314,69.829h63.373 C91.831,69.829,100,61.66,100,51.515C99.868,42.556,93.281,35.046,84.717,33.597z" fill="rgba(255, 255, 255, 0.5016775217363911)" transform="scale(0.7)"></path>
</g><g transform="translate(-100 395.26972192637453) rotate(0)">
  <animateTransform attributeName="transform" type="translate" keyTimes="0;1" values="-100 395.26972192637453;1916 395.26972192637453" dur="125s" repeatCount="indefinite" begin="-233.1486642546585s"></animateTransform>
  <path d="M84.717,33.597c0.791-2.503,1.186-5.138,1.186-7.773C85.903,11.594,74.308,0,60.079,0 c-9.881,0-18.445,5.534-22.793,13.702c-1.581-0.527-3.426-0.791-5.138-0.791c-9.486,0-17.128,7.642-17.128,17.128 c0,1.186,0.132,2.372,0.395,3.426C6.719,34.783,0,42.424,0,51.515C0,61.66,8.169,69.829,18.314,69.829h63.373 C91.831,69.829,100,61.66,100,51.515C99.868,42.556,93.281,35.046,84.717,33.597z" fill="rgba(255, 255, 255, 0.5016775217363911)" transform="scale(0.7)"></path>
</g><g transform="translate(-100 259.72045863507543) rotate(0)">
  <animateTransform attributeName="transform" type="translate" keyTimes="0;1" values="-100 259.72045863507543;1916 259.72045863507543" dur="125s" repeatCount="indefinite" begin="-113.16888452638347s"></animateTransform>
  <path d="M84.717,33.597c0.791-2.503,1.186-5.138,1.186-7.773C85.903,11.594,74.308,0,60.079,0 c-9.881,0-18.445,5.534-22.793,13.702c-1.581-0.527-3.426-0.791-5.138-0.791c-9.486,0-17.128,7.642-17.128,17.128 c0,1.186,0.132,2.372,0.395,3.426C6.719,34.783,0,42.424,0,51.515C0,61.66,8.169,69.829,18.314,69.829h63.373 C91.831,69.829,100,61.66,100,51.515C99.868,42.556,93.281,35.046,84.717,33.597z" fill="rgba(255, 255, 255, 0.5016775217363911)" transform="scale(0.7)"></path>
</g><g transform="translate(-100 778.5553090139163) rotate(0)">
  <animateTransform attributeName="transform" type="translate" keyTimes="0;1" values="-100 778.5553090139163;1916 778.5553090139163" dur="125s" repeatCount="indefinite" begin="-207.32838459895103s"></animateTransform>
  <path d="M84.717,33.597c0.791-2.503,1.186-5.138,1.186-7.773C85.903,11.594,74.308,0,60.079,0 c-9.881,0-18.445,5.534-22.793,13.702c-1.581-0.527-3.426-0.791-5.138-0.791c-9.486,0-17.128,7.642-17.128,17.128 c0,1.186,0.132,2.372,0.395,3.426C6.719,34.783,0,42.424,0,51.515C0,61.66,8.169,69.829,18.314,69.829h63.373 C91.831,69.829,100,61.66,100,51.515C99.868,42.556,93.281,35.046,84.717,33.597z" fill="rgba(255, 255, 255, 0.5016775217363911)" transform="scale(0.7)"></path>
</g><g transform="translate(-100 978.5286440982848) rotate(0)">
  <animateTransform attributeName="transform" type="translate" keyTimes="0;1" values="-100 978.5286440982848;1916 978.5286440982848" dur="125s" repeatCount="indefinite" begin="-189.73282667293938s"></animateTransform>
  <path d="M84.717,33.597c0.791-2.503,1.186-5.138,1.186-7.773C85.903,11.594,74.308,0,60.079,0 c-9.881,0-18.445,5.534-22.793,13.702c-1.581-0.527-3.426-0.791-5.138-0.791c-9.486,0-17.128,7.642-17.128,17.128 c0,1.186,0.132,2.372,0.395,3.426C6.719,34.783,0,42.424,0,51.515C0,61.66,8.169,69.829,18.314,69.829h63.373 C91.831,69.829,100,61.66,100,51.515C99.868,42.556,93.281,35.046,84.717,33.597z" fill="rgba(255, 255, 255, 0.5016775217363911)" transform="scale(0.7)"></path>
</g><g transform="translate(-100 313.03624524615094) rotate(0)">
  <animateTransform attributeName="transform" type="translate" keyTimes="0;1" values="-100 313.03624524615094;1916 313.03624524615094" dur="125s" repeatCount="indefinite" begin="-53.17477120382647s"></animateTransform>
  <path d="M84.717,33.597c0.791-2.503,1.186-5.138,1.186-7.773C85.903,11.594,74.308,0,60.079,0 c-9.881,0-18.445,5.534-22.793,13.702c-1.581-0.527-3.426-0.791-5.138-0.791c-9.486,0-17.128,7.642-17.128,17.128 c0,1.186,0.132,2.372,0.395,3.426C6.719,34.783,0,42.424,0,51.515C0,61.66,8.169,69.829,18.314,69.829h63.373 C91.831,69.829,100,61.66,100,51.515C99.868,42.556,93.281,35.046,84.717,33.597z" fill="rgba(255, 255, 255, 0.5016775217363911)" transform="scale(0.7)"></path>
</g><g transform="translate(-100 109.94126306317604) rotate(0)">
  <animateTransform attributeName="transform" type="translate" keyTimes="0;1" values="-100 109.94126306317604;1916 109.94126306317604" dur="125s" repeatCount="indefinite" begin="-60.502427674863746s"></animateTransform>
  <path d="M84.717,33.597c0.791-2.503,1.186-5.138,1.186-7.773C85.903,11.594,74.308,0,60.079,0 c-9.881,0-18.445,5.534-22.793,13.702c-1.581-0.527-3.426-0.791-5.138-0.791c-9.486,0-17.128,7.642-17.128,17.128 c0,1.186,0.132,2.372,0.395,3.426C6.719,34.783,0,42.424,0,51.515C0,61.66,8.169,69.829,18.314,69.829h63.373 C91.831,69.829,100,61.66,100,51.515C99.868,42.556,93.281,35.046,84.717,33.597z" fill="rgba(255, 255, 255, 0.5016775217363911)" transform="scale(0.7)"></path>
</g><g transform="translate(-100 856.2470604352371) rotate(0)">
  <animateTransform attributeName="transform" type="translate" keyTimes="0;1" values="-100 856.2470604352371;1916 856.2470604352371" dur="125s" repeatCount="indefinite" begin="-213.28759815228298s"></animateTransform>
  <path d="M84.717,33.597c0.791-2.503,1.186-5.138,1.186-7.773C85.903,11.594,74.308,0,60.079,0 c-9.881,0-18.445,5.534-22.793,13.702c-1.581-0.527-3.426-0.791-5.138-0.791c-9.486,0-17.128,7.642-17.128,17.128 c0,1.186,0.132,2.372,0.395,3.426C6.719,34.783,0,42.424,0,51.515C0,61.66,8.169,69.829,18.314,69.829h63.373 C91.831,69.829,100,61.66,100,51.515C99.868,42.556,93.281,35.046,84.717,33.597z" fill="rgba(255, 255, 255, 0.5016775217363911)" transform="scale(0.7)"></path>
</g><g transform="translate(-100 801.4042751608104) rotate(0)">
  <animateTransform attributeName="transform" type="translate" keyTimes="0;1" values="-100 801.4042751608104;1916 801.4042751608104" dur="125s" repeatCount="indefinite" begin="-229.7047991258256s"></animateTransform>
  <path d="M84.717,33.597c0.791-2.503,1.186-5.138,1.186-7.773C85.903,11.594,74.308,0,60.079,0 c-9.881,0-18.445,5.534-22.793,13.702c-1.581-0.527-3.426-0.791-5.138-0.791c-9.486,0-17.128,7.642-17.128,17.128 c0,1.186,0.132,2.372,0.395,3.426C6.719,34.783,0,42.424,0,51.515C0,61.66,8.169,69.829,18.314,69.829h63.373 C91.831,69.829,100,61.66,100,51.515C99.868,42.556,93.281,35.046,84.717,33.597z" fill="rgba(255, 255, 255, 0.5016775217363911)" transform="scale(0.7)"></path>
</g><g transform="translate(-100 995.1112008358205) rotate(0)">
  <animateTransform attributeName="transform" type="translate" keyTimes="0;1" values="-100 995.1112008358205;1916 995.1112008358205" dur="125s" repeatCount="indefinite" begin="-199.27571303482878s"></animateTransform>
  <path d="M84.717,33.597c0.791-2.503,1.186-5.138,1.186-7.773C85.903,11.594,74.308,0,60.079,0 c-9.881,0-18.445,5.534-22.793,13.702c-1.581-0.527-3.426-0.791-5.138-0.791c-9.486,0-17.128,7.642-17.128,17.128 c0,1.186,0.132,2.372,0.395,3.426C6.719,34.783,0,42.424,0,51.515C0,61.66,8.169,69.829,18.314,69.829h63.373 C91.831,69.829,100,61.66,100,51.515C99.868,42.556,93.281,35.046,84.717,33.597z" fill="rgba(255, 255, 255, 0.5016775217363911)" transform="scale(0.7)"></path>
</g><g transform="translate(-100 363.0394345673357) rotate(0)">
  <animateTransform attributeName="transform" type="translate" keyTimes="0;1" values="-100 363.0394345673357;1916 363.0394345673357" dur="125s" repeatCount="indefinite" begin="-48.342799025556275s"></animateTransform>
  <path d="M84.717,33.597c0.791-2.503,1.186-5.138,1.186-7.773C85.903,11.594,74.308,0,60.079,0 c-9.881,0-18.445,5.534-22.793,13.702c-1.581-0.527-3.426-0.791-5.138-0.791c-9.486,0-17.128,7.642-17.128,17.128 c0,1.186,0.132,2.372,0.395,3.426C6.719,34.783,0,42.424,0,51.515C0,61.66,8.169,69.829,18.314,69.829h63.373 C91.831,69.829,100,61.66,100,51.515C99.868,42.556,93.281,35.046,84.717,33.597z" fill="rgba(255, 255, 255, 0.5016775217363911)" transform="scale(0.7)"></path>
</g><g transform="translate(-100 775.4087805779659) rotate(0)">
  <animateTransform attributeName="transform" type="translate" keyTimes="0;1" values="-100 775.4087805779659;1916 775.4087805779659" dur="125s" repeatCount="indefinite" begin="-39.54239530045034s"></animateTransform>
  <path d="M84.717,33.597c0.791-2.503,1.186-5.138,1.186-7.773C85.903,11.594,74.308,0,60.079,0 c-9.881,0-18.445,5.534-22.793,13.702c-1.581-0.527-3.426-0.791-5.138-0.791c-9.486,0-17.128,7.642-17.128,17.128 c0,1.186,0.132,2.372,0.395,3.426C6.719,34.783,0,42.424,0,51.515C0,61.66,8.169,69.829,18.314,69.829h63.373 C91.831,69.829,100,61.66,100,51.515C99.868,42.556,93.281,35.046,84.717,33.597z" fill="rgba(255, 255, 255, 0.5016775217363911)" transform="scale(0.7)"></path>
</g><g transform="translate(-100 495.7573690569142) rotate(0)">
  <animateTransform attributeName="transform" type="translate" keyTimes="0;1" values="-100 495.7573690569142;1916 495.7573690569142" dur="125s" repeatCount="indefinite" begin="-63.13650074887484s"></animateTransform>
  <path d="M84.717,33.597c0.791-2.503,1.186-5.138,1.186-7.773C85.903,11.594,74.308,0,60.079,0 c-9.881,0-18.445,5.534-22.793,13.702c-1.581-0.527-3.426-0.791-5.138-0.791c-9.486,0-17.128,7.642-17.128,17.128 c0,1.186,0.132,2.372,0.395,3.426C6.719,34.783,0,42.424,0,51.515C0,61.66,8.169,69.829,18.314,69.829h63.373 C91.831,69.829,100,61.66,100,51.515C99.868,42.556,93.281,35.046,84.717,33.597z" fill="rgba(255, 255, 255, 0.5016775217363911)" transform="scale(0.7)"></path>
</g><g transform="translate(-100 512.7385369060645) rotate(0)">
  <animateTransform attributeName="transform" type="translate" keyTimes="0;1" values="-100 512.7385369060645;1916 512.7385369060645" dur="125s" repeatCount="indefinite" begin="-54.02132603726728s"></animateTransform>
  <path d="M84.717,33.597c0.791-2.503,1.186-5.138,1.186-7.773C85.903,11.594,74.308,0,60.079,0 c-9.881,0-18.445,5.534-22.793,13.702c-1.581-0.527-3.426-0.791-5.138-0.791c-9.486,0-17.128,7.642-17.128,17.128 c0,1.186,0.132,2.372,0.395,3.426C6.719,34.783,0,42.424,0,51.515C0,61.66,8.169,69.829,18.314,69.829h63.373 C91.831,69.829,100,61.66,100,51.515C99.868,42.556,93.281,35.046,84.717,33.597z" fill="rgba(255, 255, 255, 0.5016775217363911)" transform="scale(0.7)"></path>
</g><g transform="translate(-100 719.4756477833027) rotate(0)">
  <animateTransform attributeName="transform" type="translate" keyTimes="0;1" values="-100 719.4756477833027;1916 719.4756477833027" dur="83.33333333333333s" repeatCount="indefinite" begin="-147.00631619442s"></animateTransform>
  <path d="M84.717,33.597c0.791-2.503,1.186-5.138,1.186-7.773C85.903,11.594,74.308,0,60.079,0 c-9.881,0-18.445,5.534-22.793,13.702c-1.581-0.527-3.426-0.791-5.138-0.791c-9.486,0-17.128,7.642-17.128,17.128 c0,1.186,0.132,2.372,0.395,3.426C6.719,34.783,0,42.424,0,51.515C0,61.66,8.169,69.829,18.314,69.829h63.373 C91.831,69.829,100,61.66,100,51.515C99.868,42.556,93.281,35.046,84.717,33.597z" fill="rgba(241, 242, 243, 0.317161392704133)" transform="scale(0.85)"></path>
</g><g transform="translate(-100 1087.6698585625884) rotate(0)">
  <animateTransform attributeName="transform" type="translate" keyTimes="0;1" values="-100 1087.6698585625884;1916 1087.6698585625884" dur="83.33333333333333s" repeatCount="indefinite" begin="-219.27049411969807s"></animateTransform>
  <path d="M84.717,33.597c0.791-2.503,1.186-5.138,1.186-7.773C85.903,11.594,74.308,0,60.079,0 c-9.881,0-18.445,5.534-22.793,13.702c-1.581-0.527-3.426-0.791-5.138-0.791c-9.486,0-17.128,7.642-17.128,17.128 c0,1.186,0.132,2.372,0.395,3.426C6.719,34.783,0,42.424,0,51.515C0,61.66,8.169,69.829,18.314,69.829h63.373 C91.831,69.829,100,61.66,100,51.515C99.868,42.556,93.281,35.046,84.717,33.597z" fill="rgba(241, 242, 243, 0.317161392704133)" transform="scale(0.85)"></path>
</g><g transform="translate(-100 392.0106219328336) rotate(0)">
  <animateTransform attributeName="transform" type="translate" keyTimes="0;1" values="-100 392.0106219328336;1916 392.0106219328336" dur="83.33333333333333s" repeatCount="indefinite" begin="-20.24784920635114s"></animateTransform>
  <path d="M84.717,33.597c0.791-2.503,1.186-5.138,1.186-7.773C85.903,11.594,74.308,0,60.079,0 c-9.881,0-18.445,5.534-22.793,13.702c-1.581-0.527-3.426-0.791-5.138-0.791c-9.486,0-17.128,7.642-17.128,17.128 c0,1.186,0.132,2.372,0.395,3.426C6.719,34.783,0,42.424,0,51.515C0,61.66,8.169,69.829,18.314,69.829h63.373 C91.831,69.829,100,61.66,100,51.515C99.868,42.556,93.281,35.046,84.717,33.597z" fill="rgba(241, 242, 243, 0.317161392704133)" transform="scale(0.85)"></path>
</g><g transform="translate(-100 105.87858956989945) rotate(0)">
  <animateTransform attributeName="transform" type="translate" keyTimes="0;1" values="-100 105.87858956989945;1916 105.87858956989945" dur="83.33333333333333s" repeatCount="indefinite" begin="-58.8175184458925s"></animateTransform>
  <path d="M84.717,33.597c0.791-2.503,1.186-5.138,1.186-7.773C85.903,11.594,74.308,0,60.079,0 c-9.881,0-18.445,5.534-22.793,13.702c-1.581-0.527-3.426-0.791-5.138-0.791c-9.486,0-17.128,7.642-17.128,17.128 c0,1.186,0.132,2.372,0.395,3.426C6.719,34.783,0,42.424,0,51.515C0,61.66,8.169,69.829,18.314,69.829h63.373 C91.831,69.829,100,61.66,100,51.515C99.868,42.556,93.281,35.046,84.717,33.597z" fill="rgba(241, 242, 243, 0.317161392704133)" transform="scale(0.85)"></path>
</g><g transform="translate(-100 616.946924793946) rotate(0)">
  <animateTransform attributeName="transform" type="translate" keyTimes="0;1" values="-100 616.946924793946;1916 616.946924793946" dur="83.33333333333333s" repeatCount="indefinite" begin="-204.50695799051s"></animateTransform>
  <path d="M84.717,33.597c0.791-2.503,1.186-5.138,1.186-7.773C85.903,11.594,74.308,0,60.079,0 c-9.881,0-18.445,5.534-22.793,13.702c-1.581-0.527-3.426-0.791-5.138-0.791c-9.486,0-17.128,7.642-17.128,17.128 c0,1.186,0.132,2.372,0.395,3.426C6.719,34.783,0,42.424,0,51.515C0,61.66,8.169,69.829,18.314,69.829h63.373 C91.831,69.829,100,61.66,100,51.515C99.868,42.556,93.281,35.046,84.717,33.597z" fill="rgba(241, 242, 243, 0.317161392704133)" transform="scale(0.85)"></path>
</g><g transform="translate(-100 388.4958473463003) rotate(0)">
  <animateTransform attributeName="transform" type="translate" keyTimes="0;1" values="-100 388.4958473463003;1916 388.4958473463003" dur="83.33333333333333s" repeatCount="indefinite" begin="-66.24020382340368s"></animateTransform>
  <path d="M84.717,33.597c0.791-2.503,1.186-5.138,1.186-7.773C85.903,11.594,74.308,0,60.079,0 c-9.881,0-18.445,5.534-22.793,13.702c-1.581-0.527-3.426-0.791-5.138-0.791c-9.486,0-17.128,7.642-17.128,17.128 c0,1.186,0.132,2.372,0.395,3.426C6.719,34.783,0,42.424,0,51.515C0,61.66,8.169,69.829,18.314,69.829h63.373 C91.831,69.829,100,61.66,100,51.515C99.868,42.556,93.281,35.046,84.717,33.597z" fill="rgba(241, 242, 243, 0.317161392704133)" transform="scale(0.85)"></path>
</g><g transform="translate(-100 77.33107895916167) rotate(0)">
  <animateTransform attributeName="transform" type="translate" keyTimes="0;1" values="-100 77.33107895916167;1916 77.33107895916167" dur="83.33333333333333s" repeatCount="indefinite" begin="-187.49754573635096s"></animateTransform>
  <path d="M84.717,33.597c0.791-2.503,1.186-5.138,1.186-7.773C85.903,11.594,74.308,0,60.079,0 c-9.881,0-18.445,5.534-22.793,13.702c-1.581-0.527-3.426-0.791-5.138-0.791c-9.486,0-17.128,7.642-17.128,17.128 c0,1.186,0.132,2.372,0.395,3.426C6.719,34.783,0,42.424,0,51.515C0,61.66,8.169,69.829,18.314,69.829h63.373 C91.831,69.829,100,61.66,100,51.515C99.868,42.556,93.281,35.046,84.717,33.597z" fill="rgba(241, 242, 243, 0.317161392704133)" transform="scale(0.85)"></path>
</g><g transform="translate(-100 146.72209885691674) rotate(0)">
  <animateTransform attributeName="transform" type="translate" keyTimes="0;1" values="-100 146.72209885691674;1916 146.72209885691674" dur="83.33333333333333s" repeatCount="indefinite" begin="-102.28954520953081s"></animateTransform>
  <path d="M84.717,33.597c0.791-2.503,1.186-5.138,1.186-7.773C85.903,11.594,74.308,0,60.079,0 c-9.881,0-18.445,5.534-22.793,13.702c-1.581-0.527-3.426-0.791-5.138-0.791c-9.486,0-17.128,7.642-17.128,17.128 c0,1.186,0.132,2.372,0.395,3.426C6.719,34.783,0,42.424,0,51.515C0,61.66,8.169,69.829,18.314,69.829h63.373 C91.831,69.829,100,61.66,100,51.515C99.868,42.556,93.281,35.046,84.717,33.597z" fill="rgba(241, 242, 243, 0.317161392704133)" transform="scale(0.85)"></path>
</g><g transform="translate(-100 85.08653617219952) rotate(0)">
  <animateTransform attributeName="transform" type="translate" keyTimes="0;1" values="-100 85.08653617219952;1916 85.08653617219952" dur="83.33333333333333s" repeatCount="indefinite" begin="-126.16488376261059s"></animateTransform>
  <path d="M84.717,33.597c0.791-2.503,1.186-5.138,1.186-7.773C85.903,11.594,74.308,0,60.079,0 c-9.881,0-18.445,5.534-22.793,13.702c-1.581-0.527-3.426-0.791-5.138-0.791c-9.486,0-17.128,7.642-17.128,17.128 c0,1.186,0.132,2.372,0.395,3.426C6.719,34.783,0,42.424,0,51.515C0,61.66,8.169,69.829,18.314,69.829h63.373 C91.831,69.829,100,61.66,100,51.515C99.868,42.556,93.281,35.046,84.717,33.597z" fill="rgba(241, 242, 243, 0.317161392704133)" transform="scale(0.85)"></path>
</g><g transform="translate(-100 384.8487936392498) rotate(0)">
  <animateTransform attributeName="transform" type="translate" keyTimes="0;1" values="-100 384.8487936392498;1916 384.8487936392498" dur="83.33333333333333s" repeatCount="indefinite" begin="-173.01989900756266s"></animateTransform>
  <path d="M84.717,33.597c0.791-2.503,1.186-5.138,1.186-7.773C85.903,11.594,74.308,0,60.079,0 c-9.881,0-18.445,5.534-22.793,13.702c-1.581-0.527-3.426-0.791-5.138-0.791c-9.486,0-17.128,7.642-17.128,17.128 c0,1.186,0.132,2.372,0.395,3.426C6.719,34.783,0,42.424,0,51.515C0,61.66,8.169,69.829,18.314,69.829h63.373 C91.831,69.829,100,61.66,100,51.515C99.868,42.556,93.281,35.046,84.717,33.597z" fill="rgba(241, 242, 243, 0.317161392704133)" transform="scale(0.85)"></path>
</g><g transform="translate(-100 121.57847131690812) rotate(0)">
  <animateTransform attributeName="transform" type="translate" keyTimes="0;1" values="-100 121.57847131690812;1916 121.57847131690812" dur="83.33333333333333s" repeatCount="indefinite" begin="-209.95716617163023s"></animateTransform>
  <path d="M84.717,33.597c0.791-2.503,1.186-5.138,1.186-7.773C85.903,11.594,74.308,0,60.079,0 c-9.881,0-18.445,5.534-22.793,13.702c-1.581-0.527-3.426-0.791-5.138-0.791c-9.486,0-17.128,7.642-17.128,17.128 c0,1.186,0.132,2.372,0.395,3.426C6.719,34.783,0,42.424,0,51.515C0,61.66,8.169,69.829,18.314,69.829h63.373 C91.831,69.829,100,61.66,100,51.515C99.868,42.556,93.281,35.046,84.717,33.597z" fill="rgba(241, 242, 243, 0.317161392704133)" transform="scale(0.85)"></path>
</g><g transform="translate(-100 32.975837522685396) rotate(0)">
  <animateTransform attributeName="transform" type="translate" keyTimes="0;1" values="-100 32.975837522685396;1916 32.975837522685396" dur="83.33333333333333s" repeatCount="indefinite" begin="-175.36761885543373s"></animateTransform>
  <path d="M84.717,33.597c0.791-2.503,1.186-5.138,1.186-7.773C85.903,11.594,74.308,0,60.079,0 c-9.881,0-18.445,5.534-22.793,13.702c-1.581-0.527-3.426-0.791-5.138-0.791c-9.486,0-17.128,7.642-17.128,17.128 c0,1.186,0.132,2.372,0.395,3.426C6.719,34.783,0,42.424,0,51.515C0,61.66,8.169,69.829,18.314,69.829h63.373 C91.831,69.829,100,61.66,100,51.515C99.868,42.556,93.281,35.046,84.717,33.597z" fill="rgba(241, 242, 243, 0.317161392704133)" transform="scale(0.85)"></path>
</g><g transform="translate(-100 210.91119485120856) rotate(0)">
  <animateTransform attributeName="transform" type="translate" keyTimes="0;1" values="-100 210.91119485120856;1916 210.91119485120856" dur="83.33333333333333s" repeatCount="indefinite" begin="-143.9395895842395s"></animateTransform>
  <path d="M84.717,33.597c0.791-2.503,1.186-5.138,1.186-7.773C85.903,11.594,74.308,0,60.079,0 c-9.881,0-18.445,5.534-22.793,13.702c-1.581-0.527-3.426-0.791-5.138-0.791c-9.486,0-17.128,7.642-17.128,17.128 c0,1.186,0.132,2.372,0.395,3.426C6.719,34.783,0,42.424,0,51.515C0,61.66,8.169,69.829,18.314,69.829h63.373 C91.831,69.829,100,61.66,100,51.515C99.868,42.556,93.281,35.046,84.717,33.597z" fill="rgba(241, 242, 243, 0.317161392704133)" transform="scale(0.85)"></path>
</g><g transform="translate(-100 1032.2127167124765) rotate(0)">
  <animateTransform attributeName="transform" type="translate" keyTimes="0;1" values="-100 1032.2127167124765;1916 1032.2127167124765" dur="83.33333333333333s" repeatCount="indefinite" begin="-177.24923643929918s"></animateTransform>
  <path d="M84.717,33.597c0.791-2.503,1.186-5.138,1.186-7.773C85.903,11.594,74.308,0,60.079,0 c-9.881,0-18.445,5.534-22.793,13.702c-1.581-0.527-3.426-0.791-5.138-0.791c-9.486,0-17.128,7.642-17.128,17.128 c0,1.186,0.132,2.372,0.395,3.426C6.719,34.783,0,42.424,0,51.515C0,61.66,8.169,69.829,18.314,69.829h63.373 C91.831,69.829,100,61.66,100,51.515C99.868,42.556,93.281,35.046,84.717,33.597z" fill="rgba(241, 242, 243, 0.317161392704133)" transform="scale(0.85)"></path>
</g><g transform="translate(-100 496.01816436783145) rotate(0)">
  <animateTransform attributeName="transform" type="translate" keyTimes="0;1" values="-100 496.01816436783145;1916 496.01816436783145" dur="83.33333333333333s" repeatCount="indefinite" begin="-135.6392552580533s"></animateTransform>
  <path d="M84.717,33.597c0.791-2.503,1.186-5.138,1.186-7.773C85.903,11.594,74.308,0,60.079,0 c-9.881,0-18.445,5.534-22.793,13.702c-1.581-0.527-3.426-0.791-5.138-0.791c-9.486,0-17.128,7.642-17.128,17.128 c0,1.186,0.132,2.372,0.395,3.426C6.719,34.783,0,42.424,0,51.515C0,61.66,8.169,69.829,18.314,69.829h63.373 C91.831,69.829,100,61.66,100,51.515C99.868,42.556,93.281,35.046,84.717,33.597z" fill="rgba(241, 242, 243, 0.317161392704133)" transform="scale(0.85)"></path>
</g><g transform="translate(-100 298.8014003054516) rotate(0)">
  <animateTransform attributeName="transform" type="translate" keyTimes="0;1" values="-100 298.8014003054516;1916 298.8014003054516" dur="83.33333333333333s" repeatCount="indefinite" begin="-230.8507266229179s"></animateTransform>
  <path d="M84.717,33.597c0.791-2.503,1.186-5.138,1.186-7.773C85.903,11.594,74.308,0,60.079,0 c-9.881,0-18.445,5.534-22.793,13.702c-1.581-0.527-3.426-0.791-5.138-0.791c-9.486,0-17.128,7.642-17.128,17.128 c0,1.186,0.132,2.372,0.395,3.426C6.719,34.783,0,42.424,0,51.515C0,61.66,8.169,69.829,18.314,69.829h63.373 C91.831,69.829,100,61.66,100,51.515C99.868,42.556,93.281,35.046,84.717,33.597z" fill="rgba(241, 242, 243, 0.317161392704133)" transform="scale(0.85)"></path>
</g><g transform="translate(-100 373.56932875602314) rotate(0)">
  <animateTransform attributeName="transform" type="translate" keyTimes="0;1" values="-100 373.56932875602314;1916 373.56932875602314" dur="83.33333333333333s" repeatCount="indefinite" begin="-185.57512751905242s"></animateTransform>
  <path d="M84.717,33.597c0.791-2.503,1.186-5.138,1.186-7.773C85.903,11.594,74.308,0,60.079,0 c-9.881,0-18.445,5.534-22.793,13.702c-1.581-0.527-3.426-0.791-5.138-0.791c-9.486,0-17.128,7.642-17.128,17.128 c0,1.186,0.132,2.372,0.395,3.426C6.719,34.783,0,42.424,0,51.515C0,61.66,8.169,69.829,18.314,69.829h63.373 C91.831,69.829,100,61.66,100,51.515C99.868,42.556,93.281,35.046,84.717,33.597z" fill="rgba(241, 242, 243, 0.317161392704133)" transform="scale(0.85)"></path>
</g><g transform="translate(-100 865.3107149321071) rotate(0)">
  <animateTransform attributeName="transform" type="translate" keyTimes="0;1" values="-100 865.3107149321071;1916 865.3107149321071" dur="83.33333333333333s" repeatCount="indefinite" begin="-166.89397996578452s"></animateTransform>
  <path d="M84.717,33.597c0.791-2.503,1.186-5.138,1.186-7.773C85.903,11.594,74.308,0,60.079,0 c-9.881,0-18.445,5.534-22.793,13.702c-1.581-0.527-3.426-0.791-5.138-0.791c-9.486,0-17.128,7.642-17.128,17.128 c0,1.186,0.132,2.372,0.395,3.426C6.719,34.783,0,42.424,0,51.515C0,61.66,8.169,69.829,18.314,69.829h63.373 C91.831,69.829,100,61.66,100,51.515C99.868,42.556,93.281,35.046,84.717,33.597z" fill="rgba(241, 242, 243, 0.317161392704133)" transform="scale(0.85)"></path>
</g><g transform="translate(-100 753.8196922633458) rotate(0)">
  <animateTransform attributeName="transform" type="translate" keyTimes="0;1" values="-100 753.8196922633458;1916 753.8196922633458" dur="83.33333333333333s" repeatCount="indefinite" begin="-112.99018398113874s"></animateTransform>
  <path d="M84.717,33.597c0.791-2.503,1.186-5.138,1.186-7.773C85.903,11.594,74.308,0,60.079,0 c-9.881,0-18.445,5.534-22.793,13.702c-1.581-0.527-3.426-0.791-5.138-0.791c-9.486,0-17.128,7.642-17.128,17.128 c0,1.186,0.132,2.372,0.395,3.426C6.719,34.783,0,42.424,0,51.515C0,61.66,8.169,69.829,18.314,69.829h63.373 C91.831,69.829,100,61.66,100,51.515C99.868,42.556,93.281,35.046,84.717,33.597z" fill="rgba(241, 242, 243, 0.317161392704133)" transform="scale(0.85)"></path>
</g><g transform="translate(-100 697.8984189489846) rotate(0)">
  <animateTransform attributeName="transform" type="translate" keyTimes="0;1" values="-100 697.8984189489846;1916 697.8984189489846" dur="83.33333333333333s" repeatCount="indefinite" begin="-52.19258074680949s"></animateTransform>
  <path d="M84.717,33.597c0.791-2.503,1.186-5.138,1.186-7.773C85.903,11.594,74.308,0,60.079,0 c-9.881,0-18.445,5.534-22.793,13.702c-1.581-0.527-3.426-0.791-5.138-0.791c-9.486,0-17.128,7.642-17.128,17.128 c0,1.186,0.132,2.372,0.395,3.426C6.719,34.783,0,42.424,0,51.515C0,61.66,8.169,69.829,18.314,69.829h63.373 C91.831,69.829,100,61.66,100,51.515C99.868,42.556,93.281,35.046,84.717,33.597z" fill="rgba(241, 242, 243, 0.317161392704133)" transform="scale(0.85)"></path>
</g><g transform="translate(-100 988.5458455711506) rotate(0)">
  <animateTransform attributeName="transform" type="translate" keyTimes="0;1" values="-100 988.5458455711506;1916 988.5458455711506" dur="83.33333333333333s" repeatCount="indefinite" begin="-197.7338266845473s"></animateTransform>
  <path d="M84.717,33.597c0.791-2.503,1.186-5.138,1.186-7.773C85.903,11.594,74.308,0,60.079,0 c-9.881,0-18.445,5.534-22.793,13.702c-1.581-0.527-3.426-0.791-5.138-0.791c-9.486,0-17.128,7.642-17.128,17.128 c0,1.186,0.132,2.372,0.395,3.426C6.719,34.783,0,42.424,0,51.515C0,61.66,8.169,69.829,18.314,69.829h63.373 C91.831,69.829,100,61.66,100,51.515C99.868,42.556,93.281,35.046,84.717,33.597z" fill="rgba(241, 242, 243, 0.317161392704133)" transform="scale(0.85)"></path>
</g><g transform="translate(-100 24.278615608835928) rotate(0)">
  <animateTransform attributeName="transform" type="translate" keyTimes="0;1" values="-100 24.278615608835928;1916 24.278615608835928" dur="83.33333333333333s" repeatCount="indefinite" begin="-17.023555049396787s"></animateTransform>
  <path d="M84.717,33.597c0.791-2.503,1.186-5.138,1.186-7.773C85.903,11.594,74.308,0,60.079,0 c-9.881,0-18.445,5.534-22.793,13.702c-1.581-0.527-3.426-0.791-5.138-0.791c-9.486,0-17.128,7.642-17.128,17.128 c0,1.186,0.132,2.372,0.395,3.426C6.719,34.783,0,42.424,0,51.515C0,61.66,8.169,69.829,18.314,69.829h63.373 C91.831,69.829,100,61.66,100,51.515C99.868,42.556,93.281,35.046,84.717,33.597z" fill="rgba(241, 242, 243, 0.317161392704133)" transform="scale(0.85)"></path>
</g><g transform="translate(-100 1042.6341447491172) rotate(0)">
  <animateTransform attributeName="transform" type="translate" keyTimes="0;1" values="-100 1042.6341447491172;1916 1042.6341447491172" dur="83.33333333333333s" repeatCount="indefinite" begin="-64.63611923757712s"></animateTransform>
  <path d="M84.717,33.597c0.791-2.503,1.186-5.138,1.186-7.773C85.903,11.594,74.308,0,60.079,0 c-9.881,0-18.445,5.534-22.793,13.702c-1.581-0.527-3.426-0.791-5.138-0.791c-9.486,0-17.128,7.642-17.128,17.128 c0,1.186,0.132,2.372,0.395,3.426C6.719,34.783,0,42.424,0,51.515C0,61.66,8.169,69.829,18.314,69.829h63.373 C91.831,69.829,100,61.66,100,51.515C99.868,42.556,93.281,35.046,84.717,33.597z" fill="rgba(241, 242, 243, 0.317161392704133)" transform="scale(0.85)"></path>
</g><g transform="translate(-100 353.6602350981369) rotate(0)">
  <animateTransform attributeName="transform" type="translate" keyTimes="0;1" values="-100 353.6602350981369;1916 353.6602350981369" dur="83.33333333333333s" repeatCount="indefinite" begin="-172.05059814167905s"></animateTransform>
  <path d="M84.717,33.597c0.791-2.503,1.186-5.138,1.186-7.773C85.903,11.594,74.308,0,60.079,0 c-9.881,0-18.445,5.534-22.793,13.702c-1.581-0.527-3.426-0.791-5.138-0.791c-9.486,0-17.128,7.642-17.128,17.128 c0,1.186,0.132,2.372,0.395,3.426C6.719,34.783,0,42.424,0,51.515C0,61.66,8.169,69.829,18.314,69.829h63.373 C91.831,69.829,100,61.66,100,51.515C99.868,42.556,93.281,35.046,84.717,33.597z" fill="rgba(241, 242, 243, 0.317161392704133)" transform="scale(0.85)"></path>
</g><g transform="translate(-100 169.19937337515705) rotate(0)">
  <animateTransform attributeName="transform" type="translate" keyTimes="0;1" values="-100 169.19937337515705;1916 169.19937337515705" dur="83.33333333333333s" repeatCount="indefinite" begin="-36.42591799889677s"></animateTransform>
  <path d="M84.717,33.597c0.791-2.503,1.186-5.138,1.186-7.773C85.903,11.594,74.308,0,60.079,0 c-9.881,0-18.445,5.534-22.793,13.702c-1.581-0.527-3.426-0.791-5.138-0.791c-9.486,0-17.128,7.642-17.128,17.128 c0,1.186,0.132,2.372,0.395,3.426C6.719,34.783,0,42.424,0,51.515C0,61.66,8.169,69.829,18.314,69.829h63.373 C91.831,69.829,100,61.66,100,51.515C99.868,42.556,93.281,35.046,84.717,33.597z" fill="rgba(241, 242, 243, 0.317161392704133)" transform="scale(0.85)"></path>
</g><g transform="translate(-100 1065.2517093164847) rotate(0)">
  <animateTransform attributeName="transform" type="translate" keyTimes="0;1" values="-100 1065.2517093164847;1916 1065.2517093164847" dur="62.5s" repeatCount="indefinite" begin="-246.89861572197748s"></animateTransform>
  <path d="M84.717,33.597c0.791-2.503,1.186-5.138,1.186-7.773C85.903,11.594,74.308,0,60.079,0 c-9.881,0-18.445,5.534-22.793,13.702c-1.581-0.527-3.426-0.791-5.138-0.791c-9.486,0-17.128,7.642-17.128,17.128 c0,1.186,0.132,2.372,0.395,3.426C6.719,34.783,0,42.424,0,51.515C0,61.66,8.169,69.829,18.314,69.829h63.373 C91.831,69.829,100,61.66,100,51.515C99.868,42.556,93.281,35.046,84.717,33.597z" fill="rgba(189, 222, 255, 0.6694194572202621)" transform="scale(1)"></path>
</g><g transform="translate(-100 1159.0859870169008) rotate(0)">
  <animateTransform attributeName="transform" type="translate" keyTimes="0;1" values="-100 1159.0859870169008;1916 1159.0859870169008" dur="62.5s" repeatCount="indefinite" begin="-107.52251483215703s"></animateTransform>
  <path d="M84.717,33.597c0.791-2.503,1.186-5.138,1.186-7.773C85.903,11.594,74.308,0,60.079,0 c-9.881,0-18.445,5.534-22.793,13.702c-1.581-0.527-3.426-0.791-5.138-0.791c-9.486,0-17.128,7.642-17.128,17.128 c0,1.186,0.132,2.372,0.395,3.426C6.719,34.783,0,42.424,0,51.515C0,61.66,8.169,69.829,18.314,69.829h63.373 C91.831,69.829,100,61.66,100,51.515C99.868,42.556,93.281,35.046,84.717,33.597z" fill="rgba(189, 222, 255, 0.6694194572202621)" transform="scale(1)"></path>
</g><g transform="translate(-100 710.5575790710284) rotate(0)">
  <animateTransform attributeName="transform" type="translate" keyTimes="0;1" values="-100 710.5575790710284;1916 710.5575790710284" dur="62.5s" repeatCount="indefinite" begin="-23.211878982239863s"></animateTransform>
  <path d="M84.717,33.597c0.791-2.503,1.186-5.138,1.186-7.773C85.903,11.594,74.308,0,60.079,0 c-9.881,0-18.445,5.534-22.793,13.702c-1.581-0.527-3.426-0.791-5.138-0.791c-9.486,0-17.128,7.642-17.128,17.128 c0,1.186,0.132,2.372,0.395,3.426C6.719,34.783,0,42.424,0,51.515C0,61.66,8.169,69.829,18.314,69.829h63.373 C91.831,69.829,100,61.66,100,51.515C99.868,42.556,93.281,35.046,84.717,33.597z" fill="rgba(189, 222, 255, 0.6694194572202621)" transform="scale(1)"></path>
</g><g transform="translate(-100 958.0717355875794) rotate(0)">
  <animateTransform attributeName="transform" type="translate" keyTimes="0;1" values="-100 958.0717355875794;1916 958.0717355875794" dur="62.5s" repeatCount="indefinite" begin="-188.5868843626698s"></animateTransform>
  <path d="M84.717,33.597c0.791-2.503,1.186-5.138,1.186-7.773C85.903,11.594,74.308,0,60.079,0 c-9.881,0-18.445,5.534-22.793,13.702c-1.581-0.527-3.426-0.791-5.138-0.791c-9.486,0-17.128,7.642-17.128,17.128 c0,1.186,0.132,2.372,0.395,3.426C6.719,34.783,0,42.424,0,51.515C0,61.66,8.169,69.829,18.314,69.829h63.373 C91.831,69.829,100,61.66,100,51.515C99.868,42.556,93.281,35.046,84.717,33.597z" fill="rgba(189, 222, 255, 0.6694194572202621)" transform="scale(1)"></path>
</g><g transform="translate(-100 42.76942266480553) rotate(0)">
  <animateTransform attributeName="transform" type="translate" keyTimes="0;1" values="-100 42.76942266480553;1916 42.76942266480553" dur="62.5s" repeatCount="indefinite" begin="-148.4610146259336s"></animateTransform>
  <path d="M84.717,33.597c0.791-2.503,1.186-5.138,1.186-7.773C85.903,11.594,74.308,0,60.079,0 c-9.881,0-18.445,5.534-22.793,13.702c-1.581-0.527-3.426-0.791-5.138-0.791c-9.486,0-17.128,7.642-17.128,17.128 c0,1.186,0.132,2.372,0.395,3.426C6.719,34.783,0,42.424,0,51.515C0,61.66,8.169,69.829,18.314,69.829h63.373 C91.831,69.829,100,61.66,100,51.515C99.868,42.556,93.281,35.046,84.717,33.597z" fill="rgba(189, 222, 255, 0.6694194572202621)" transform="scale(1)"></path>
</g><g transform="translate(-100 527.9702175481775) rotate(0)">
  <animateTransform attributeName="transform" type="translate" keyTimes="0;1" values="-100 527.9702175481775;1916 527.9702175481775" dur="62.5s" repeatCount="indefinite" begin="-119.43172587549117s"></animateTransform>
  <path d="M84.717,33.597c0.791-2.503,1.186-5.138,1.186-7.773C85.903,11.594,74.308,0,60.079,0 c-9.881,0-18.445,5.534-22.793,13.702c-1.581-0.527-3.426-0.791-5.138-0.791c-9.486,0-17.128,7.642-17.128,17.128 c0,1.186,0.132,2.372,0.395,3.426C6.719,34.783,0,42.424,0,51.515C0,61.66,8.169,69.829,18.314,69.829h63.373 C91.831,69.829,100,61.66,100,51.515C99.868,42.556,93.281,35.046,84.717,33.597z" fill="rgba(189, 222, 255, 0.6694194572202621)" transform="scale(1)"></path>
</g><g transform="translate(-100 1139.729932191707) rotate(0)">
  <animateTransform attributeName="transform" type="translate" keyTimes="0;1" values="-100 1139.729932191707;1916 1139.729932191707" dur="62.5s" repeatCount="indefinite" begin="-242.47419054029717s"></animateTransform>
  <path d="M84.717,33.597c0.791-2.503,1.186-5.138,1.186-7.773C85.903,11.594,74.308,0,60.079,0 c-9.881,0-18.445,5.534-22.793,13.702c-1.581-0.527-3.426-0.791-5.138-0.791c-9.486,0-17.128,7.642-17.128,17.128 c0,1.186,0.132,2.372,0.395,3.426C6.719,34.783,0,42.424,0,51.515C0,61.66,8.169,69.829,18.314,69.829h63.373 C91.831,69.829,100,61.66,100,51.515C99.868,42.556,93.281,35.046,84.717,33.597z" fill="rgba(189, 222, 255, 0.6694194572202621)" transform="scale(1)"></path>
</g><g transform="translate(-100 1057.7970549756988) rotate(0)">
  <animateTransform attributeName="transform" type="translate" keyTimes="0;1" values="-100 1057.7970549756988;1916 1057.7970549756988" dur="62.5s" repeatCount="indefinite" begin="-30.910263640988532s"></animateTransform>
  <path d="M84.717,33.597c0.791-2.503,1.186-5.138,1.186-7.773C85.903,11.594,74.308,0,60.079,0 c-9.881,0-18.445,5.534-22.793,13.702c-1.581-0.527-3.426-0.791-5.138-0.791c-9.486,0-17.128,7.642-17.128,17.128 c0,1.186,0.132,2.372,0.395,3.426C6.719,34.783,0,42.424,0,51.515C0,61.66,8.169,69.829,18.314,69.829h63.373 C91.831,69.829,100,61.66,100,51.515C99.868,42.556,93.281,35.046,84.717,33.597z" fill="rgba(189, 222, 255, 0.6694194572202621)" transform="scale(1)"></path>
</g><g transform="translate(-100 483.3575347731725) rotate(0)">
  <animateTransform attributeName="transform" type="translate" keyTimes="0;1" values="-100 483.3575347731725;1916 483.3575347731725" dur="62.5s" repeatCount="indefinite" begin="-201.39285744765095s"></animateTransform>
  <path d="M84.717,33.597c0.791-2.503,1.186-5.138,1.186-7.773C85.903,11.594,74.308,0,60.079,0 c-9.881,0-18.445,5.534-22.793,13.702c-1.581-0.527-3.426-0.791-5.138-0.791c-9.486,0-17.128,7.642-17.128,17.128 c0,1.186,0.132,2.372,0.395,3.426C6.719,34.783,0,42.424,0,51.515C0,61.66,8.169,69.829,18.314,69.829h63.373 C91.831,69.829,100,61.66,100,51.515C99.868,42.556,93.281,35.046,84.717,33.597z" fill="rgba(189, 222, 255, 0.6694194572202621)" transform="scale(1)"></path>
</g><g transform="translate(-100 1025.6754892313213) rotate(0)">
  <animateTransform attributeName="transform" type="translate" keyTimes="0;1" values="-100 1025.6754892313213;1916 1025.6754892313213" dur="62.5s" repeatCount="indefinite" begin="-159.59352540147364s"></animateTransform>
  <path d="M84.717,33.597c0.791-2.503,1.186-5.138,1.186-7.773C85.903,11.594,74.308,0,60.079,0 c-9.881,0-18.445,5.534-22.793,13.702c-1.581-0.527-3.426-0.791-5.138-0.791c-9.486,0-17.128,7.642-17.128,17.128 c0,1.186,0.132,2.372,0.395,3.426C6.719,34.783,0,42.424,0,51.515C0,61.66,8.169,69.829,18.314,69.829h63.373 C91.831,69.829,100,61.66,100,51.515C99.868,42.556,93.281,35.046,84.717,33.597z" fill="rgba(189, 222, 255, 0.6694194572202621)" transform="scale(1)"></path>
</g><g transform="translate(-100 793.5471546299699) rotate(0)">
  <animateTransform attributeName="transform" type="translate" keyTimes="0;1" values="-100 793.5471546299699;1916 793.5471546299699" dur="62.5s" repeatCount="indefinite" begin="-10.00553542913407s"></animateTransform>
  <path d="M84.717,33.597c0.791-2.503,1.186-5.138,1.186-7.773C85.903,11.594,74.308,0,60.079,0 c-9.881,0-18.445,5.534-22.793,13.702c-1.581-0.527-3.426-0.791-5.138-0.791c-9.486,0-17.128,7.642-17.128,17.128 c0,1.186,0.132,2.372,0.395,3.426C6.719,34.783,0,42.424,0,51.515C0,61.66,8.169,69.829,18.314,69.829h63.373 C91.831,69.829,100,61.66,100,51.515C99.868,42.556,93.281,35.046,84.717,33.597z" fill="rgba(189, 222, 255, 0.6694194572202621)" transform="scale(1)"></path>
</g><g transform="translate(-100 1132.9786823564646) rotate(0)">
  <animateTransform attributeName="transform" type="translate" keyTimes="0;1" values="-100 1132.9786823564646;1916 1132.9786823564646" dur="62.5s" repeatCount="indefinite" begin="-51.05907379027674s"></animateTransform>
  <path d="M84.717,33.597c0.791-2.503,1.186-5.138,1.186-7.773C85.903,11.594,74.308,0,60.079,0 c-9.881,0-18.445,5.534-22.793,13.702c-1.581-0.527-3.426-0.791-5.138-0.791c-9.486,0-17.128,7.642-17.128,17.128 c0,1.186,0.132,2.372,0.395,3.426C6.719,34.783,0,42.424,0,51.515C0,61.66,8.169,69.829,18.314,69.829h63.373 C91.831,69.829,100,61.66,100,51.515C99.868,42.556,93.281,35.046,84.717,33.597z" fill="rgba(189, 222, 255, 0.6694194572202621)" transform="scale(1)"></path>
</g><g transform="translate(-100 461.9525573739016) rotate(0)">
  <animateTransform attributeName="transform" type="translate" keyTimes="0;1" values="-100 461.9525573739016;1916 461.9525573739016" dur="62.5s" repeatCount="indefinite" begin="-60.73670102947498s"></animateTransform>
  <path d="M84.717,33.597c0.791-2.503,1.186-5.138,1.186-7.773C85.903,11.594,74.308,0,60.079,0 c-9.881,0-18.445,5.534-22.793,13.702c-1.581-0.527-3.426-0.791-5.138-0.791c-9.486,0-17.128,7.642-17.128,17.128 c0,1.186,0.132,2.372,0.395,3.426C6.719,34.783,0,42.424,0,51.515C0,61.66,8.169,69.829,18.314,69.829h63.373 C91.831,69.829,100,61.66,100,51.515C99.868,42.556,93.281,35.046,84.717,33.597z" fill="rgba(189, 222, 255, 0.6694194572202621)" transform="scale(1)"></path>
</g><g transform="translate(-100 293.2506611153553) rotate(0)">
  <animateTransform attributeName="transform" type="translate" keyTimes="0;1" values="-100 293.2506611153553;1916 293.2506611153553" dur="62.5s" repeatCount="indefinite" begin="-158.91458859099362s"></animateTransform>
  <path d="M84.717,33.597c0.791-2.503,1.186-5.138,1.186-7.773C85.903,11.594,74.308,0,60.079,0 c-9.881,0-18.445,5.534-22.793,13.702c-1.581-0.527-3.426-0.791-5.138-0.791c-9.486,0-17.128,7.642-17.128,17.128 c0,1.186,0.132,2.372,0.395,3.426C6.719,34.783,0,42.424,0,51.515C0,61.66,8.169,69.829,18.314,69.829h63.373 C91.831,69.829,100,61.66,100,51.515C99.868,42.556,93.281,35.046,84.717,33.597z" fill="rgba(189, 222, 255, 0.6694194572202621)" transform="scale(1)"></path>
</g><g transform="translate(-100 471.23324690497554) rotate(0)">
  <animateTransform attributeName="transform" type="translate" keyTimes="0;1" values="-100 471.23324690497554;1916 471.23324690497554" dur="62.5s" repeatCount="indefinite" begin="-172.8540991801435s"></animateTransform>
  <path d="M84.717,33.597c0.791-2.503,1.186-5.138,1.186-7.773C85.903,11.594,74.308,0,60.079,0 c-9.881,0-18.445,5.534-22.793,13.702c-1.581-0.527-3.426-0.791-5.138-0.791c-9.486,0-17.128,7.642-17.128,17.128 c0,1.186,0.132,2.372,0.395,3.426C6.719,34.783,0,42.424,0,51.515C0,61.66,8.169,69.829,18.314,69.829h63.373 C91.831,69.829,100,61.66,100,51.515C99.868,42.556,93.281,35.046,84.717,33.597z" fill="rgba(189, 222, 255, 0.6694194572202621)" transform="scale(1)"></path>
</g><g transform="translate(-100 226.22648224529522) rotate(0)">
  <animateTransform attributeName="transform" type="translate" keyTimes="0;1" values="-100 226.22648224529522;1916 226.22648224529522" dur="62.5s" repeatCount="indefinite" begin="-197.95404864735195s"></animateTransform>
  <path d="M84.717,33.597c0.791-2.503,1.186-5.138,1.186-7.773C85.903,11.594,74.308,0,60.079,0 c-9.881,0-18.445,5.534-22.793,13.702c-1.581-0.527-3.426-0.791-5.138-0.791c-9.486,0-17.128,7.642-17.128,17.128 c0,1.186,0.132,2.372,0.395,3.426C6.719,34.783,0,42.424,0,51.515C0,61.66,8.169,69.829,18.314,69.829h63.373 C91.831,69.829,100,61.66,100,51.515C99.868,42.556,93.281,35.046,84.717,33.597z" fill="rgba(189, 222, 255, 0.6694194572202621)" transform="scale(1)"></path>
</g><g transform="translate(-100 199.343106899107) rotate(0)">
  <animateTransform attributeName="transform" type="translate" keyTimes="0;1" values="-100 199.343106899107;1916 199.343106899107" dur="62.5s" repeatCount="indefinite" begin="-98.76000991925565s"></animateTransform>
  <path d="M84.717,33.597c0.791-2.503,1.186-5.138,1.186-7.773C85.903,11.594,74.308,0,60.079,0 c-9.881,0-18.445,5.534-22.793,13.702c-1.581-0.527-3.426-0.791-5.138-0.791c-9.486,0-17.128,7.642-17.128,17.128 c0,1.186,0.132,2.372,0.395,3.426C6.719,34.783,0,42.424,0,51.515C0,61.66,8.169,69.829,18.314,69.829h63.373 C91.831,69.829,100,61.66,100,51.515C99.868,42.556,93.281,35.046,84.717,33.597z" fill="rgba(189, 222, 255, 0.6694194572202621)" transform="scale(1)"></path>
</g><g transform="translate(-100 641.7735341097856) rotate(0)">
  <animateTransform attributeName="transform" type="translate" keyTimes="0;1" values="-100 641.7735341097856;1916 641.7735341097856" dur="62.5s" repeatCount="indefinite" begin="-206.2485730194691s"></animateTransform>
  <path d="M84.717,33.597c0.791-2.503,1.186-5.138,1.186-7.773C85.903,11.594,74.308,0,60.079,0 c-9.881,0-18.445,5.534-22.793,13.702c-1.581-0.527-3.426-0.791-5.138-0.791c-9.486,0-17.128,7.642-17.128,17.128 c0,1.186,0.132,2.372,0.395,3.426C6.719,34.783,0,42.424,0,51.515C0,61.66,8.169,69.829,18.314,69.829h63.373 C91.831,69.829,100,61.66,100,51.515C99.868,42.556,93.281,35.046,84.717,33.597z" fill="rgba(189, 222, 255, 0.6694194572202621)" transform="scale(1)"></path>
</g><g transform="translate(-100 798.2584146913752) rotate(0)">
  <animateTransform attributeName="transform" type="translate" keyTimes="0;1" values="-100 798.2584146913752;1916 798.2584146913752" dur="62.5s" repeatCount="indefinite" begin="-165.37350399301758s"></animateTransform>
  <path d="M84.717,33.597c0.791-2.503,1.186-5.138,1.186-7.773C85.903,11.594,74.308,0,60.079,0 c-9.881,0-18.445,5.534-22.793,13.702c-1.581-0.527-3.426-0.791-5.138-0.791c-9.486,0-17.128,7.642-17.128,17.128 c0,1.186,0.132,2.372,0.395,3.426C6.719,34.783,0,42.424,0,51.515C0,61.66,8.169,69.829,18.314,69.829h63.373 C91.831,69.829,100,61.66,100,51.515C99.868,42.556,93.281,35.046,84.717,33.597z" fill="rgba(189, 222, 255, 0.6694194572202621)" transform="scale(1)"></path>
</g><g transform="translate(-100 702.2225892602829) rotate(0)">
  <animateTransform attributeName="transform" type="translate" keyTimes="0;1" values="-100 702.2225892602829;1916 702.2225892602829" dur="62.5s" repeatCount="indefinite" begin="-153.439709759499s"></animateTransform>
  <path d="M84.717,33.597c0.791-2.503,1.186-5.138,1.186-7.773C85.903,11.594,74.308,0,60.079,0 c-9.881,0-18.445,5.534-22.793,13.702c-1.581-0.527-3.426-0.791-5.138-0.791c-9.486,0-17.128,7.642-17.128,17.128 c0,1.186,0.132,2.372,0.395,3.426C6.719,34.783,0,42.424,0,51.515C0,61.66,8.169,69.829,18.314,69.829h63.373 C91.831,69.829,100,61.66,100,51.515C99.868,42.556,93.281,35.046,84.717,33.597z" fill="rgba(189, 222, 255, 0.6694194572202621)" transform="scale(1)"></path>
</g><g transform="translate(-100 1218.84969503853) rotate(0)">
  <animateTransform attributeName="transform" type="translate" keyTimes="0;1" values="-100 1218.84969503853;1916 1218.84969503853" dur="62.5s" repeatCount="indefinite" begin="-39.77803505390165s"></animateTransform>
  <path d="M84.717,33.597c0.791-2.503,1.186-5.138,1.186-7.773C85.903,11.594,74.308,0,60.079,0 c-9.881,0-18.445,5.534-22.793,13.702c-1.581-0.527-3.426-0.791-5.138-0.791c-9.486,0-17.128,7.642-17.128,17.128 c0,1.186,0.132,2.372,0.395,3.426C6.719,34.783,0,42.424,0,51.515C0,61.66,8.169,69.829,18.314,69.829h63.373 C91.831,69.829,100,61.66,100,51.515C99.868,42.556,93.281,35.046,84.717,33.597z" fill="rgba(189, 222, 255, 0.6694194572202621)" transform="scale(1)"></path>
</g><g transform="translate(-100 885.5806425256629) rotate(0)">
  <animateTransform attributeName="transform" type="translate" keyTimes="0;1" values="-100 885.5806425256629;1916 885.5806425256629" dur="62.5s" repeatCount="indefinite" begin="-161.40397281481768s"></animateTransform>
  <path d="M84.717,33.597c0.791-2.503,1.186-5.138,1.186-7.773C85.903,11.594,74.308,0,60.079,0 c-9.881,0-18.445,5.534-22.793,13.702c-1.581-0.527-3.426-0.791-5.138-0.791c-9.486,0-17.128,7.642-17.128,17.128 c0,1.186,0.132,2.372,0.395,3.426C6.719,34.783,0,42.424,0,51.515C0,61.66,8.169,69.829,18.314,69.829h63.373 C91.831,69.829,100,61.66,100,51.515C99.868,42.556,93.281,35.046,84.717,33.597z" fill="rgba(189, 222, 255, 0.6694194572202621)" transform="scale(1)"></path>
</g><g transform="translate(-100 743.2506369555953) rotate(0)">
  <animateTransform attributeName="transform" type="translate" keyTimes="0;1" values="-100 743.2506369555953;1916 743.2506369555953" dur="62.5s" repeatCount="indefinite" begin="-190.9778180461268s"></animateTransform>
  <path d="M84.717,33.597c0.791-2.503,1.186-5.138,1.186-7.773C85.903,11.594,74.308,0,60.079,0 c-9.881,0-18.445,5.534-22.793,13.702c-1.581-0.527-3.426-0.791-5.138-0.791c-9.486,0-17.128,7.642-17.128,17.128 c0,1.186,0.132,2.372,0.395,3.426C6.719,34.783,0,42.424,0,51.515C0,61.66,8.169,69.829,18.314,69.829h63.373 C91.831,69.829,100,61.66,100,51.515C99.868,42.556,93.281,35.046,84.717,33.597z" fill="rgba(189, 222, 255, 0.6694194572202621)" transform="scale(1)"></path>
</g><g transform="translate(-100 635.4929717416543) rotate(0)">
  <animateTransform attributeName="transform" type="translate" keyTimes="0;1" values="-100 635.4929717416543;1916 635.4929717416543" dur="62.5s" repeatCount="indefinite" begin="-201.13772040128953s"></animateTransform>
  <path d="M84.717,33.597c0.791-2.503,1.186-5.138,1.186-7.773C85.903,11.594,74.308,0,60.079,0 c-9.881,0-18.445,5.534-22.793,13.702c-1.581-0.527-3.426-0.791-5.138-0.791c-9.486,0-17.128,7.642-17.128,17.128 c0,1.186,0.132,2.372,0.395,3.426C6.719,34.783,0,42.424,0,51.515C0,61.66,8.169,69.829,18.314,69.829h63.373 C91.831,69.829,100,61.66,100,51.515C99.868,42.556,93.281,35.046,84.717,33.597z" fill="rgba(189, 222, 255, 0.6694194572202621)" transform="scale(1)"></path>
</g><g transform="translate(-100 135.20136543297224) rotate(0)">
  <animateTransform attributeName="transform" type="translate" keyTimes="0;1" values="-100 135.20136543297224;1916 135.20136543297224" dur="62.5s" repeatCount="indefinite" begin="-42.736703812908175s"></animateTransform>
  <path d="M84.717,33.597c0.791-2.503,1.186-5.138,1.186-7.773C85.903,11.594,74.308,0,60.079,0 c-9.881,0-18.445,5.534-22.793,13.702c-1.581-0.527-3.426-0.791-5.138-0.791c-9.486,0-17.128,7.642-17.128,17.128 c0,1.186,0.132,2.372,0.395,3.426C6.719,34.783,0,42.424,0,51.515C0,61.66,8.169,69.829,18.314,69.829h63.373 C91.831,69.829,100,61.66,100,51.515C99.868,42.556,93.281,35.046,84.717,33.597z" fill="rgba(189, 222, 255, 0.6694194572202621)" transform="scale(1)"></path>
</g></g>
</svg>