<?xml version="1.0" encoding="utf-8"?>
<svg xmlns="http://www.w3.org/2000/svg" xmlns:xlink="http://www.w3.org/1999/xlink" style="margin: auto; background: rgba(122, 206, 255, 0); display: block; z-index: 1; position: relative; shape-rendering: auto;" width="1916" height="1244" preserveAspectRatio="xMidYMid" viewBox="0 0 1916 1244">
<g transform="translate(958,622) scale(1,1) translate(-958,-622)"><g transform="translate(-100 713.5524855003606) rotate(0)">
  <animateTransform attributeName="transform" type="translate" keyTimes="0;1" values="-100 713.5524855003606;1916 713.5524855003606" dur="250s" repeatCount="indefinite" begin="-135.83452321521028s"></animateTransform>
  <path d="M84.717,33.597c0.791-2.503,1.186-5.138,1.186-7.773C85.903,11.594,74.308,0,60.079,0 c-9.881,0-18.445,5.534-22.793,13.702c-1.581-0.527-3.426-0.791-5.138-0.791c-9.486,0-17.128,7.642-17.128,17.128 c0,1.186,0.132,2.372,0.395,3.426C6.719,34.783,0,42.424,0,51.515C0,61.66,8.169,69.829,18.314,69.829h63.373 C91.831,69.829,100,61.66,100,51.515C99.868,42.556,93.281,35.046,84.717,33.597z" fill="rgba(234, 211, 184, 0.6694194572202621)" transform="scale(0.55)"></path>
</g><g transform="translate(-100 490.38872529361475) rotate(0)">
  <animateTransform attributeName="transform" type="translate" keyTimes="0;1" values="-100 490.38872529361475;1916 490.38872529361475" dur="250s" repeatCount="indefinite" begin="-154.06121334486573s"></animateTransform>
  <path d="M84.717,33.597c0.791-2.503,1.186-5.138,1.186-7.773C85.903,11.594,74.308,0,60.079,0 c-9.881,0-18.445,5.534-22.793,13.702c-1.581-0.527-3.426-0.791-5.138-0.791c-9.486,0-17.128,7.642-17.128,17.128 c0,1.186,0.132,2.372,0.395,3.426C6.719,34.783,0,42.424,0,51.515C0,61.66,8.169,69.829,18.314,69.829h63.373 C91.831,69.829,100,61.66,100,51.515C99.868,42.556,93.281,35.046,84.717,33.597z" fill="rgba(234, 211, 184, 0.6694194572202621)" transform="scale(0.55)"></path>
</g><g transform="translate(-100 574.8461642633704) rotate(0)">
  <animateTransform attributeName="transform" type="translate" keyTimes="0;1" values="-100 574.8461642633704;1916 574.8461642633704" dur="250s" repeatCount="indefinite" begin="-197.16444121526837s"></animateTransform>
  <path d="M84.717,33.597c0.791-2.503,1.186-5.138,1.186-7.773C85.903,11.594,74.308,0,60.079,0 c-9.881,0-18.445,5.534-22.793,13.702c-1.581-0.527-3.426-0.791-5.138-0.791c-9.486,0-17.128,7.642-17.128,17.128 c0,1.186,0.132,2.372,0.395,3.426C6.719,34.783,0,42.424,0,51.515C0,61.66,8.169,69.829,18.314,69.829h63.373 C91.831,69.829,100,61.66,100,51.515C99.868,42.556,93.281,35.046,84.717,33.597z" fill="rgba(234, 211, 184, 0.6694194572202621)" transform="scale(0.55)"></path>
</g><g transform="translate(-100 754.6355171566582) rotate(0)">
  <animateTransform attributeName="transform" type="translate" keyTimes="0;1" values="-100 754.6355171566582;1916 754.6355171566582" dur="250s" repeatCount="indefinite" begin="-58.60227961800491s"></animateTransform>
  <path d="M84.717,33.597c0.791-2.503,1.186-5.138,1.186-7.773C85.903,11.594,74.308,0,60.079,0 c-9.881,0-18.445,5.534-22.793,13.702c-1.581-0.527-3.426-0.791-5.138-0.791c-9.486,0-17.128,7.642-17.128,17.128 c0,1.186,0.132,2.372,0.395,3.426C6.719,34.783,0,42.424,0,51.515C0,61.66,8.169,69.829,18.314,69.829h63.373 C91.831,69.829,100,61.66,100,51.515C99.868,42.556,93.281,35.046,84.717,33.597z" fill="rgba(234, 211, 184, 0.6694194572202621)" transform="scale(0.55)"></path>
</g><g transform="translate(-100 441.6181270181624) rotate(0)">
  <animateTransform attributeName="transform" type="translate" keyTimes="0;1" values="-100 441.6181270181624;1916 441.6181270181624" dur="250s" repeatCount="indefinite" begin="-169.60726739797843s"></animateTransform>
  <path d="M84.717,33.597c0.791-2.503,1.186-5.138,1.186-7.773C85.903,11.594,74.308,0,60.079,0 c-9.881,0-18.445,5.534-22.793,13.702c-1.581-0.527-3.426-0.791-5.138-0.791c-9.486,0-17.128,7.642-17.128,17.128 c0,1.186,0.132,2.372,0.395,3.426C6.719,34.783,0,42.424,0,51.515C0,61.66,8.169,69.829,18.314,69.829h63.373 C91.831,69.829,100,61.66,100,51.515C99.868,42.556,93.281,35.046,84.717,33.597z" fill="rgba(234, 211, 184, 0.6694194572202621)" transform="scale(0.55)"></path>
</g><g transform="translate(-100 358.13804085929223) rotate(0)">
  <animateTransform attributeName="transform" type="translate" keyTimes="0;1" values="-100 358.13804085929223;1916 358.13804085929223" dur="250s" repeatCount="indefinite" begin="-81.88574550699873s"></animateTransform>
  <path d="M84.717,33.597c0.791-2.503,1.186-5.138,1.186-7.773C85.903,11.594,74.308,0,60.079,0 c-9.881,0-18.445,5.534-22.793,13.702c-1.581-0.527-3.426-0.791-5.138-0.791c-9.486,0-17.128,7.642-17.128,17.128 c0,1.186,0.132,2.372,0.395,3.426C6.719,34.783,0,42.424,0,51.515C0,61.66,8.169,69.829,18.314,69.829h63.373 C91.831,69.829,100,61.66,100,51.515C99.868,42.556,93.281,35.046,84.717,33.597z" fill="rgba(234, 211, 184, 0.6694194572202621)" transform="scale(0.55)"></path>
</g><g transform="translate(-100 645.3215077387564) rotate(0)">
  <animateTransform attributeName="transform" type="translate" keyTimes="0;1" values="-100 645.3215077387564;1916 645.3215077387564" dur="250s" repeatCount="indefinite" begin="-150.86984982717428s"></animateTransform>
  <path d="M84.717,33.597c0.791-2.503,1.186-5.138,1.186-7.773C85.903,11.594,74.308,0,60.079,0 c-9.881,0-18.445,5.534-22.793,13.702c-1.581-0.527-3.426-0.791-5.138-0.791c-9.486,0-17.128,7.642-17.128,17.128 c0,1.186,0.132,2.372,0.395,3.426C6.719,34.783,0,42.424,0,51.515C0,61.66,8.169,69.829,18.314,69.829h63.373 C91.831,69.829,100,61.66,100,51.515C99.868,42.556,93.281,35.046,84.717,33.597z" fill="rgba(234, 211, 184, 0.6694194572202621)" transform="scale(0.55)"></path>
</g><g transform="translate(-100 1184.085698445905) rotate(0)">
  <animateTransform attributeName="transform" type="translate" keyTimes="0;1" values="-100 1184.085698445905;1916 1184.085698445905" dur="250s" repeatCount="indefinite" begin="-221.03041582485855s"></animateTransform>
  <path d="M84.717,33.597c0.791-2.503,1.186-5.138,1.186-7.773C85.903,11.594,74.308,0,60.079,0 c-9.881,0-18.445,5.534-22.793,13.702c-1.581-0.527-3.426-0.791-5.138-0.791c-9.486,0-17.128,7.642-17.128,17.128 c0,1.186,0.132,2.372,0.395,3.426C6.719,34.783,0,42.424,0,51.515C0,61.66,8.169,69.829,18.314,69.829h63.373 C91.831,69.829,100,61.66,100,51.515C99.868,42.556,93.281,35.046,84.717,33.597z" fill="rgba(234, 211, 184, 0.6694194572202621)" transform="scale(0.55)"></path>
</g><g transform="translate(-100 1211.321050701953) rotate(0)">
  <animateTransform attributeName="transform" type="translate" keyTimes="0;1" values="-100 1211.321050701953;1916 1211.321050701953" dur="250s" repeatCount="indefinite" begin="-124.21357484625317s"></animateTransform>
  <path d="M84.717,33.597c0.791-2.503,1.186-5.138,1.186-7.773C85.903,11.594,74.308,0,60.079,0 c-9.881,0-18.445,5.534-22.793,13.702c-1.581-0.527-3.426-0.791-5.138-0.791c-9.486,0-17.128,7.642-17.128,17.128 c0,1.186,0.132,2.372,0.395,3.426C6.719,34.783,0,42.424,0,51.515C0,61.66,8.169,69.829,18.314,69.829h63.373 C91.831,69.829,100,61.66,100,51.515C99.868,42.556,93.281,35.046,84.717,33.597z" fill="rgba(234, 211, 184, 0.6694194572202621)" transform="scale(0.55)"></path>
</g><g transform="translate(-100 685.1255424272838) rotate(0)">
  <animateTransform attributeName="transform" type="translate" keyTimes="0;1" values="-100 685.1255424272838;1916 685.1255424272838" dur="250s" repeatCount="indefinite" begin="-98.9210804720388s"></animateTransform>
  <path d="M84.717,33.597c0.791-2.503,1.186-5.138,1.186-7.773C85.903,11.594,74.308,0,60.079,0 c-9.881,0-18.445,5.534-22.793,13.702c-1.581-0.527-3.426-0.791-5.138-0.791c-9.486,0-17.128,7.642-17.128,17.128 c0,1.186,0.132,2.372,0.395,3.426C6.719,34.783,0,42.424,0,51.515C0,61.66,8.169,69.829,18.314,69.829h63.373 C91.831,69.829,100,61.66,100,51.515C99.868,42.556,93.281,35.046,84.717,33.597z" fill="rgba(234, 211, 184, 0.6694194572202621)" transform="scale(0.55)"></path>
</g><g transform="translate(-100 320.65444006787993) rotate(0)">
  <animateTransform attributeName="transform" type="translate" keyTimes="0;1" values="-100 320.65444006787993;1916 320.65444006787993" dur="250s" repeatCount="indefinite" begin="-194.42107543469507s"></animateTransform>
  <path d="M84.717,33.597c0.791-2.503,1.186-5.138,1.186-7.773C85.903,11.594,74.308,0,60.079,0 c-9.881,0-18.445,5.534-22.793,13.702c-1.581-0.527-3.426-0.791-5.138-0.791c-9.486,0-17.128,7.642-17.128,17.128 c0,1.186,0.132,2.372,0.395,3.426C6.719,34.783,0,42.424,0,51.515C0,61.66,8.169,69.829,18.314,69.829h63.373 C91.831,69.829,100,61.66,100,51.515C99.868,42.556,93.281,35.046,84.717,33.597z" fill="rgba(234, 211, 184, 0.6694194572202621)" transform="scale(0.55)"></path>
</g><g transform="translate(-100 573.3629865844027) rotate(0)">
  <animateTransform attributeName="transform" type="translate" keyTimes="0;1" values="-100 573.3629865844027;1916 573.3629865844027" dur="250s" repeatCount="indefinite" begin="-201.40161938627676s"></animateTransform>
  <path d="M84.717,33.597c0.791-2.503,1.186-5.138,1.186-7.773C85.903,11.594,74.308,0,60.079,0 c-9.881,0-18.445,5.534-22.793,13.702c-1.581-0.527-3.426-0.791-5.138-0.791c-9.486,0-17.128,7.642-17.128,17.128 c0,1.186,0.132,2.372,0.395,3.426C6.719,34.783,0,42.424,0,51.515C0,61.66,8.169,69.829,18.314,69.829h63.373 C91.831,69.829,100,61.66,100,51.515C99.868,42.556,93.281,35.046,84.717,33.597z" fill="rgba(234, 211, 184, 0.6694194572202621)" transform="scale(0.55)"></path>
</g><g transform="translate(-100 589.3691152248555) rotate(0)">
  <animateTransform attributeName="transform" type="translate" keyTimes="0;1" values="-100 589.3691152248555;1916 589.3691152248555" dur="250s" repeatCount="indefinite" begin="-101.25420208187025s"></animateTransform>
  <path d="M84.717,33.597c0.791-2.503,1.186-5.138,1.186-7.773C85.903,11.594,74.308,0,60.079,0 c-9.881,0-18.445,5.534-22.793,13.702c-1.581-0.527-3.426-0.791-5.138-0.791c-9.486,0-17.128,7.642-17.128,17.128 c0,1.186,0.132,2.372,0.395,3.426C6.719,34.783,0,42.424,0,51.515C0,61.66,8.169,69.829,18.314,69.829h63.373 C91.831,69.829,100,61.66,100,51.515C99.868,42.556,93.281,35.046,84.717,33.597z" fill="rgba(234, 211, 184, 0.6694194572202621)" transform="scale(0.55)"></path>
</g><g transform="translate(-100 1063.807426230279) rotate(0)">
  <animateTransform attributeName="transform" type="translate" keyTimes="0;1" values="-100 1063.807426230279;1916 1063.807426230279" dur="250s" repeatCount="indefinite" begin="-107.26165930623155s"></animateTransform>
  <path d="M84.717,33.597c0.791-2.503,1.186-5.138,1.186-7.773C85.903,11.594,74.308,0,60.079,0 c-9.881,0-18.445,5.534-22.793,13.702c-1.581-0.527-3.426-0.791-5.138-0.791c-9.486,0-17.128,7.642-17.128,17.128 c0,1.186,0.132,2.372,0.395,3.426C6.719,34.783,0,42.424,0,51.515C0,61.66,8.169,69.829,18.314,69.829h63.373 C91.831,69.829,100,61.66,100,51.515C99.868,42.556,93.281,35.046,84.717,33.597z" fill="rgba(234, 211, 184, 0.6694194572202621)" transform="scale(0.55)"></path>
</g><g transform="translate(-100 230.41663090200862) rotate(0)">
  <animateTransform attributeName="transform" type="translate" keyTimes="0;1" values="-100 230.41663090200862;1916 230.41663090200862" dur="250s" repeatCount="indefinite" begin="-131.75398154478128s"></animateTransform>
  <path d="M84.717,33.597c0.791-2.503,1.186-5.138,1.186-7.773C85.903,11.594,74.308,0,60.079,0 c-9.881,0-18.445,5.534-22.793,13.702c-1.581-0.527-3.426-0.791-5.138-0.791c-9.486,0-17.128,7.642-17.128,17.128 c0,1.186,0.132,2.372,0.395,3.426C6.719,34.783,0,42.424,0,51.515C0,61.66,8.169,69.829,18.314,69.829h63.373 C91.831,69.829,100,61.66,100,51.515C99.868,42.556,93.281,35.046,84.717,33.597z" fill="rgba(234, 211, 184, 0.6694194572202621)" transform="scale(0.55)"></path>
</g><g transform="translate(-100 1120.6194426944594) rotate(0)">
  <animateTransform attributeName="transform" type="translate" keyTimes="0;1" values="-100 1120.6194426944594;1916 1120.6194426944594" dur="250s" repeatCount="indefinite" begin="-20.54330922518066s"></animateTransform>
  <path d="M84.717,33.597c0.791-2.503,1.186-5.138,1.186-7.773C85.903,11.594,74.308,0,60.079,0 c-9.881,0-18.445,5.534-22.793,13.702c-1.581-0.527-3.426-0.791-5.138-0.791c-9.486,0-17.128,7.642-17.128,17.128 c0,1.186,0.132,2.372,0.395,3.426C6.719,34.783,0,42.424,0,51.515C0,61.66,8.169,69.829,18.314,69.829h63.373 C91.831,69.829,100,61.66,100,51.515C99.868,42.556,93.281,35.046,84.717,33.597z" fill="rgba(234, 211, 184, 0.6694194572202621)" transform="scale(0.55)"></path>
</g><g transform="translate(-100 723.6727339500654) rotate(0)">
  <animateTransform attributeName="transform" type="translate" keyTimes="0;1" values="-100 723.6727339500654;1916 723.6727339500654" dur="250s" repeatCount="indefinite" begin="-119.9894443746245s"></animateTransform>
  <path d="M84.717,33.597c0.791-2.503,1.186-5.138,1.186-7.773C85.903,11.594,74.308,0,60.079,0 c-9.881,0-18.445,5.534-22.793,13.702c-1.581-0.527-3.426-0.791-5.138-0.791c-9.486,0-17.128,7.642-17.128,17.128 c0,1.186,0.132,2.372,0.395,3.426C6.719,34.783,0,42.424,0,51.515C0,61.66,8.169,69.829,18.314,69.829h63.373 C91.831,69.829,100,61.66,100,51.515C99.868,42.556,93.281,35.046,84.717,33.597z" fill="rgba(234, 211, 184, 0.6694194572202621)" transform="scale(0.55)"></path>
</g><g transform="translate(-100 121.35917919449764) rotate(0)">
  <animateTransform attributeName="transform" type="translate" keyTimes="0;1" values="-100 121.35917919449764;1916 121.35917919449764" dur="250s" repeatCount="indefinite" begin="-130.39663574952542s"></animateTransform>
  <path d="M84.717,33.597c0.791-2.503,1.186-5.138,1.186-7.773C85.903,11.594,74.308,0,60.079,0 c-9.881,0-18.445,5.534-22.793,13.702c-1.581-0.527-3.426-0.791-5.138-0.791c-9.486,0-17.128,7.642-17.128,17.128 c0,1.186,0.132,2.372,0.395,3.426C6.719,34.783,0,42.424,0,51.515C0,61.66,8.169,69.829,18.314,69.829h63.373 C91.831,69.829,100,61.66,100,51.515C99.868,42.556,93.281,35.046,84.717,33.597z" fill="rgba(234, 211, 184, 0.6694194572202621)" transform="scale(0.55)"></path>
</g><g transform="translate(-100 1206.5508527398324) rotate(0)">
  <animateTransform attributeName="transform" type="translate" keyTimes="0;1" values="-100 1206.5508527398324;1916 1206.5508527398324" dur="250s" repeatCount="indefinite" begin="-148.08183302309502s"></animateTransform>
  <path d="M84.717,33.597c0.791-2.503,1.186-5.138,1.186-7.773C85.903,11.594,74.308,0,60.079,0 c-9.881,0-18.445,5.534-22.793,13.702c-1.581-0.527-3.426-0.791-5.138-0.791c-9.486,0-17.128,7.642-17.128,17.128 c0,1.186,0.132,2.372,0.395,3.426C6.719,34.783,0,42.424,0,51.515C0,61.66,8.169,69.829,18.314,69.829h63.373 C91.831,69.829,100,61.66,100,51.515C99.868,42.556,93.281,35.046,84.717,33.597z" fill="rgba(234, 211, 184, 0.6694194572202621)" transform="scale(0.55)"></path>
</g><g transform="translate(-100 538.0318257449114) rotate(0)">
  <animateTransform attributeName="transform" type="translate" keyTimes="0;1" values="-100 538.0318257449114;1916 538.0318257449114" dur="250s" repeatCount="indefinite" begin="-59.06179121358357s"></animateTransform>
  <path d="M84.717,33.597c0.791-2.503,1.186-5.138,1.186-7.773C85.903,11.594,74.308,0,60.079,0 c-9.881,0-18.445,5.534-22.793,13.702c-1.581-0.527-3.426-0.791-5.138-0.791c-9.486,0-17.128,7.642-17.128,17.128 c0,1.186,0.132,2.372,0.395,3.426C6.719,34.783,0,42.424,0,51.515C0,61.66,8.169,69.829,18.314,69.829h63.373 C91.831,69.829,100,61.66,100,51.515C99.868,42.556,93.281,35.046,84.717,33.597z" fill="rgba(234, 211, 184, 0.6694194572202621)" transform="scale(0.55)"></path>
</g><g transform="translate(-100 859.6059237275188) rotate(0)">
  <animateTransform attributeName="transform" type="translate" keyTimes="0;1" values="-100 859.6059237275188;1916 859.6059237275188" dur="250s" repeatCount="indefinite" begin="-71.75777740142347s"></animateTransform>
  <path d="M84.717,33.597c0.791-2.503,1.186-5.138,1.186-7.773C85.903,11.594,74.308,0,60.079,0 c-9.881,0-18.445,5.534-22.793,13.702c-1.581-0.527-3.426-0.791-5.138-0.791c-9.486,0-17.128,7.642-17.128,17.128 c0,1.186,0.132,2.372,0.395,3.426C6.719,34.783,0,42.424,0,51.515C0,61.66,8.169,69.829,18.314,69.829h63.373 C91.831,69.829,100,61.66,100,51.515C99.868,42.556,93.281,35.046,84.717,33.597z" fill="rgba(234, 211, 184, 0.6694194572202621)" transform="scale(0.55)"></path>
</g><g transform="translate(-100 627.6119749222125) rotate(0)">
  <animateTransform attributeName="transform" type="translate" keyTimes="0;1" values="-100 627.6119749222125;1916 627.6119749222125" dur="250s" repeatCount="indefinite" begin="-100.18219805685702s"></animateTransform>
  <path d="M84.717,33.597c0.791-2.503,1.186-5.138,1.186-7.773C85.903,11.594,74.308,0,60.079,0 c-9.881,0-18.445,5.534-22.793,13.702c-1.581-0.527-3.426-0.791-5.138-0.791c-9.486,0-17.128,7.642-17.128,17.128 c0,1.186,0.132,2.372,0.395,3.426C6.719,34.783,0,42.424,0,51.515C0,61.66,8.169,69.829,18.314,69.829h63.373 C91.831,69.829,100,61.66,100,51.515C99.868,42.556,93.281,35.046,84.717,33.597z" fill="rgba(234, 211, 184, 0.6694194572202621)" transform="scale(0.55)"></path>
</g><g transform="translate(-100 1116.5409096607013) rotate(0)">
  <animateTransform attributeName="transform" type="translate" keyTimes="0;1" values="-100 1116.5409096607013;1916 1116.5409096607013" dur="250s" repeatCount="indefinite" begin="-57.70570554159199s"></animateTransform>
  <path d="M84.717,33.597c0.791-2.503,1.186-5.138,1.186-7.773C85.903,11.594,74.308,0,60.079,0 c-9.881,0-18.445,5.534-22.793,13.702c-1.581-0.527-3.426-0.791-5.138-0.791c-9.486,0-17.128,7.642-17.128,17.128 c0,1.186,0.132,2.372,0.395,3.426C6.719,34.783,0,42.424,0,51.515C0,61.66,8.169,69.829,18.314,69.829h63.373 C91.831,69.829,100,61.66,100,51.515C99.868,42.556,93.281,35.046,84.717,33.597z" fill="rgba(234, 211, 184, 0.6694194572202621)" transform="scale(0.55)"></path>
</g><g transform="translate(-100 313.958576273176) rotate(0)">
  <animateTransform attributeName="transform" type="translate" keyTimes="0;1" values="-100 313.958576273176;1916 313.958576273176" dur="250s" repeatCount="indefinite" begin="-210.15941937000798s"></animateTransform>
  <path d="M84.717,33.597c0.791-2.503,1.186-5.138,1.186-7.773C85.903,11.594,74.308,0,60.079,0 c-9.881,0-18.445,5.534-22.793,13.702c-1.581-0.527-3.426-0.791-5.138-0.791c-9.486,0-17.128,7.642-17.128,17.128 c0,1.186,0.132,2.372,0.395,3.426C6.719,34.783,0,42.424,0,51.515C0,61.66,8.169,69.829,18.314,69.829h63.373 C91.831,69.829,100,61.66,100,51.515C99.868,42.556,93.281,35.046,84.717,33.597z" fill="rgba(234, 211, 184, 0.6694194572202621)" transform="scale(0.55)"></path>
</g><g transform="translate(-100 39.85918656544073) rotate(0)">
  <animateTransform attributeName="transform" type="translate" keyTimes="0;1" values="-100 39.85918656544073;1916 39.85918656544073" dur="250s" repeatCount="indefinite" begin="-61.10908570325119s"></animateTransform>
  <path d="M84.717,33.597c0.791-2.503,1.186-5.138,1.186-7.773C85.903,11.594,74.308,0,60.079,0 c-9.881,0-18.445,5.534-22.793,13.702c-1.581-0.527-3.426-0.791-5.138-0.791c-9.486,0-17.128,7.642-17.128,17.128 c0,1.186,0.132,2.372,0.395,3.426C6.719,34.783,0,42.424,0,51.515C0,61.66,8.169,69.829,18.314,69.829h63.373 C91.831,69.829,100,61.66,100,51.515C99.868,42.556,93.281,35.046,84.717,33.597z" fill="rgba(234, 211, 184, 0.6694194572202621)" transform="scale(0.55)"></path>
</g><g transform="translate(-100 349.1917396622576) rotate(0)">
  <animateTransform attributeName="transform" type="translate" keyTimes="0;1" values="-100 349.1917396622576;1916 349.1917396622576" dur="125s" repeatCount="indefinite" begin="-240.32435531401697s"></animateTransform>
  <path d="M84.717,33.597c0.791-2.503,1.186-5.138,1.186-7.773C85.903,11.594,74.308,0,60.079,0 c-9.881,0-18.445,5.534-22.793,13.702c-1.581-0.527-3.426-0.791-5.138-0.791c-9.486,0-17.128,7.642-17.128,17.128 c0,1.186,0.132,2.372,0.395,3.426C6.719,34.783,0,42.424,0,51.515C0,61.66,8.169,69.829,18.314,69.829h63.373 C91.831,69.829,100,61.66,100,51.515C99.868,42.556,93.281,35.046,84.717,33.597z" fill="rgba(234, 211, 184, 0.6694194572202621)" transform="scale(0.7)"></path>
</g><g transform="translate(-100 421.19243486358044) rotate(0)">
  <animateTransform attributeName="transform" type="translate" keyTimes="0;1" values="-100 421.19243486358044;1916 421.19243486358044" dur="125s" repeatCount="indefinite" begin="-12.97109432743354s"></animateTransform>
  <path d="M84.717,33.597c0.791-2.503,1.186-5.138,1.186-7.773C85.903,11.594,74.308,0,60.079,0 c-9.881,0-18.445,5.534-22.793,13.702c-1.581-0.527-3.426-0.791-5.138-0.791c-9.486,0-17.128,7.642-17.128,17.128 c0,1.186,0.132,2.372,0.395,3.426C6.719,34.783,0,42.424,0,51.515C0,61.66,8.169,69.829,18.314,69.829h63.373 C91.831,69.829,100,61.66,100,51.515C99.868,42.556,93.281,35.046,84.717,33.597z" fill="rgba(234, 211, 184, 0.6694194572202621)" transform="scale(0.7)"></path>
</g><g transform="translate(-100 94.33080800828513) rotate(0)">
  <animateTransform attributeName="transform" type="translate" keyTimes="0;1" values="-100 94.33080800828513;1916 94.33080800828513" dur="125s" repeatCount="indefinite" begin="-117.74952929696487s"></animateTransform>
  <path d="M84.717,33.597c0.791-2.503,1.186-5.138,1.186-7.773C85.903,11.594,74.308,0,60.079,0 c-9.881,0-18.445,5.534-22.793,13.702c-1.581-0.527-3.426-0.791-5.138-0.791c-9.486,0-17.128,7.642-17.128,17.128 c0,1.186,0.132,2.372,0.395,3.426C6.719,34.783,0,42.424,0,51.515C0,61.66,8.169,69.829,18.314,69.829h63.373 C91.831,69.829,100,61.66,100,51.515C99.868,42.556,93.281,35.046,84.717,33.597z" fill="rgba(234, 211, 184, 0.6694194572202621)" transform="scale(0.7)"></path>
</g><g transform="translate(-100 278.343912910168) rotate(0)">
  <animateTransform attributeName="transform" type="translate" keyTimes="0;1" values="-100 278.343912910168;1916 278.343912910168" dur="125s" repeatCount="indefinite" begin="-243.71275447313957s"></animateTransform>
  <path d="M84.717,33.597c0.791-2.503,1.186-5.138,1.186-7.773C85.903,11.594,74.308,0,60.079,0 c-9.881,0-18.445,5.534-22.793,13.702c-1.581-0.527-3.426-0.791-5.138-0.791c-9.486,0-17.128,7.642-17.128,17.128 c0,1.186,0.132,2.372,0.395,3.426C6.719,34.783,0,42.424,0,51.515C0,61.66,8.169,69.829,18.314,69.829h63.373 C91.831,69.829,100,61.66,100,51.515C99.868,42.556,93.281,35.046,84.717,33.597z" fill="rgba(234, 211, 184, 0.6694194572202621)" transform="scale(0.7)"></path>
</g><g transform="translate(-100 39.123981662842354) rotate(0)">
  <animateTransform attributeName="transform" type="translate" keyTimes="0;1" values="-100 39.123981662842354;1916 39.123981662842354" dur="125s" repeatCount="indefinite" begin="-173.7855891004894s"></animateTransform>
  <path d="M84.717,33.597c0.791-2.503,1.186-5.138,1.186-7.773C85.903,11.594,74.308,0,60.079,0 c-9.881,0-18.445,5.534-22.793,13.702c-1.581-0.527-3.426-0.791-5.138-0.791c-9.486,0-17.128,7.642-17.128,17.128 c0,1.186,0.132,2.372,0.395,3.426C6.719,34.783,0,42.424,0,51.515C0,61.66,8.169,69.829,18.314,69.829h63.373 C91.831,69.829,100,61.66,100,51.515C99.868,42.556,93.281,35.046,84.717,33.597z" fill="rgba(234, 211, 184, 0.6694194572202621)" transform="scale(0.7)"></path>
</g><g transform="translate(-100 160.00475804754487) rotate(0)">
  <animateTransform attributeName="transform" type="translate" keyTimes="0;1" values="-100 160.00475804754487;1916 160.00475804754487" dur="125s" repeatCount="indefinite" begin="-185.8865122941046s"></animateTransform>
  <path d="M84.717,33.597c0.791-2.503,1.186-5.138,1.186-7.773C85.903,11.594,74.308,0,60.079,0 c-9.881,0-18.445,5.534-22.793,13.702c-1.581-0.527-3.426-0.791-5.138-0.791c-9.486,0-17.128,7.642-17.128,17.128 c0,1.186,0.132,2.372,0.395,3.426C6.719,34.783,0,42.424,0,51.515C0,61.66,8.169,69.829,18.314,69.829h63.373 C91.831,69.829,100,61.66,100,51.515C99.868,42.556,93.281,35.046,84.717,33.597z" fill="rgba(234, 211, 184, 0.6694194572202621)" transform="scale(0.7)"></path>
</g><g transform="translate(-100 27.56509847923669) rotate(0)">
  <animateTransform attributeName="transform" type="translate" keyTimes="0;1" values="-100 27.56509847923669;1916 27.56509847923669" dur="125s" repeatCount="indefinite" begin="-239.7827970666913s"></animateTransform>
  <path d="M84.717,33.597c0.791-2.503,1.186-5.138,1.186-7.773C85.903,11.594,74.308,0,60.079,0 c-9.881,0-18.445,5.534-22.793,13.702c-1.581-0.527-3.426-0.791-5.138-0.791c-9.486,0-17.128,7.642-17.128,17.128 c0,1.186,0.132,2.372,0.395,3.426C6.719,34.783,0,42.424,0,51.515C0,61.66,8.169,69.829,18.314,69.829h63.373 C91.831,69.829,100,61.66,100,51.515C99.868,42.556,93.281,35.046,84.717,33.597z" fill="rgba(234, 211, 184, 0.6694194572202621)" transform="scale(0.7)"></path>
</g><g transform="translate(-100 582.5810320457224) rotate(0)">
  <animateTransform attributeName="transform" type="translate" keyTimes="0;1" values="-100 582.5810320457224;1916 582.5810320457224" dur="125s" repeatCount="indefinite" begin="-79.2362845652046s"></animateTransform>
  <path d="M84.717,33.597c0.791-2.503,1.186-5.138,1.186-7.773C85.903,11.594,74.308,0,60.079,0 c-9.881,0-18.445,5.534-22.793,13.702c-1.581-0.527-3.426-0.791-5.138-0.791c-9.486,0-17.128,7.642-17.128,17.128 c0,1.186,0.132,2.372,0.395,3.426C6.719,34.783,0,42.424,0,51.515C0,61.66,8.169,69.829,18.314,69.829h63.373 C91.831,69.829,100,61.66,100,51.515C99.868,42.556,93.281,35.046,84.717,33.597z" fill="rgba(234, 211, 184, 0.6694194572202621)" transform="scale(0.7)"></path>
</g><g transform="translate(-100 107.36032460709936) rotate(0)">
  <animateTransform attributeName="transform" type="translate" keyTimes="0;1" values="-100 107.36032460709936;1916 107.36032460709936" dur="125s" repeatCount="indefinite" begin="-192.18818285925693s"></animateTransform>
  <path d="M84.717,33.597c0.791-2.503,1.186-5.138,1.186-7.773C85.903,11.594,74.308,0,60.079,0 c-9.881,0-18.445,5.534-22.793,13.702c-1.581-0.527-3.426-0.791-5.138-0.791c-9.486,0-17.128,7.642-17.128,17.128 c0,1.186,0.132,2.372,0.395,3.426C6.719,34.783,0,42.424,0,51.515C0,61.66,8.169,69.829,18.314,69.829h63.373 C91.831,69.829,100,61.66,100,51.515C99.868,42.556,93.281,35.046,84.717,33.597z" fill="rgba(234, 211, 184, 0.6694194572202621)" transform="scale(0.7)"></path>
</g><g transform="translate(-100 119.39708412433119) rotate(0)">
  <animateTransform attributeName="transform" type="translate" keyTimes="0;1" values="-100 119.39708412433119;1916 119.39708412433119" dur="125s" repeatCount="indefinite" begin="-2.11209129314166s"></animateTransform>
  <path d="M84.717,33.597c0.791-2.503,1.186-5.138,1.186-7.773C85.903,11.594,74.308,0,60.079,0 c-9.881,0-18.445,5.534-22.793,13.702c-1.581-0.527-3.426-0.791-5.138-0.791c-9.486,0-17.128,7.642-17.128,17.128 c0,1.186,0.132,2.372,0.395,3.426C6.719,34.783,0,42.424,0,51.515C0,61.66,8.169,69.829,18.314,69.829h63.373 C91.831,69.829,100,61.66,100,51.515C99.868,42.556,93.281,35.046,84.717,33.597z" fill="rgba(234, 211, 184, 0.6694194572202621)" transform="scale(0.7)"></path>
</g><g transform="translate(-100 877.0372445265928) rotate(0)">
  <animateTransform attributeName="transform" type="translate" keyTimes="0;1" values="-100 877.0372445265928;1916 877.0372445265928" dur="125s" repeatCount="indefinite" begin="-132.64702980760612s"></animateTransform>
  <path d="M84.717,33.597c0.791-2.503,1.186-5.138,1.186-7.773C85.903,11.594,74.308,0,60.079,0 c-9.881,0-18.445,5.534-22.793,13.702c-1.581-0.527-3.426-0.791-5.138-0.791c-9.486,0-17.128,7.642-17.128,17.128 c0,1.186,0.132,2.372,0.395,3.426C6.719,34.783,0,42.424,0,51.515C0,61.66,8.169,69.829,18.314,69.829h63.373 C91.831,69.829,100,61.66,100,51.515C99.868,42.556,93.281,35.046,84.717,33.597z" fill="rgba(234, 211, 184, 0.6694194572202621)" transform="scale(0.7)"></path>
</g><g transform="translate(-100 861.6125933077634) rotate(0)">
  <animateTransform attributeName="transform" type="translate" keyTimes="0;1" values="-100 861.6125933077634;1916 861.6125933077634" dur="125s" repeatCount="indefinite" begin="-121.0594879058074s"></animateTransform>
  <path d="M84.717,33.597c0.791-2.503,1.186-5.138,1.186-7.773C85.903,11.594,74.308,0,60.079,0 c-9.881,0-18.445,5.534-22.793,13.702c-1.581-0.527-3.426-0.791-5.138-0.791c-9.486,0-17.128,7.642-17.128,17.128 c0,1.186,0.132,2.372,0.395,3.426C6.719,34.783,0,42.424,0,51.515C0,61.66,8.169,69.829,18.314,69.829h63.373 C91.831,69.829,100,61.66,100,51.515C99.868,42.556,93.281,35.046,84.717,33.597z" fill="rgba(234, 211, 184, 0.6694194572202621)" transform="scale(0.7)"></path>
</g><g transform="translate(-100 838.1300563821516) rotate(0)">
  <animateTransform attributeName="transform" type="translate" keyTimes="0;1" values="-100 838.1300563821516;1916 838.1300563821516" dur="125s" repeatCount="indefinite" begin="-238.5199625730557s"></animateTransform>
  <path d="M84.717,33.597c0.791-2.503,1.186-5.138,1.186-7.773C85.903,11.594,74.308,0,60.079,0 c-9.881,0-18.445,5.534-22.793,13.702c-1.581-0.527-3.426-0.791-5.138-0.791c-9.486,0-17.128,7.642-17.128,17.128 c0,1.186,0.132,2.372,0.395,3.426C6.719,34.783,0,42.424,0,51.515C0,61.66,8.169,69.829,18.314,69.829h63.373 C91.831,69.829,100,61.66,100,51.515C99.868,42.556,93.281,35.046,84.717,33.597z" fill="rgba(234, 211, 184, 0.6694194572202621)" transform="scale(0.7)"></path>
</g><g transform="translate(-100 70.25813836598952) rotate(0)">
  <animateTransform attributeName="transform" type="translate" keyTimes="0;1" values="-100 70.25813836598952;1916 70.25813836598952" dur="125s" repeatCount="indefinite" begin="-142.90700902847615s"></animateTransform>
  <path d="M84.717,33.597c0.791-2.503,1.186-5.138,1.186-7.773C85.903,11.594,74.308,0,60.079,0 c-9.881,0-18.445,5.534-22.793,13.702c-1.581-0.527-3.426-0.791-5.138-0.791c-9.486,0-17.128,7.642-17.128,17.128 c0,1.186,0.132,2.372,0.395,3.426C6.719,34.783,0,42.424,0,51.515C0,61.66,8.169,69.829,18.314,69.829h63.373 C91.831,69.829,100,61.66,100,51.515C99.868,42.556,93.281,35.046,84.717,33.597z" fill="rgba(234, 211, 184, 0.6694194572202621)" transform="scale(0.7)"></path>
</g><g transform="translate(-100 754.910749754831) rotate(0)">
  <animateTransform attributeName="transform" type="translate" keyTimes="0;1" values="-100 754.910749754831;1916 754.910749754831" dur="125s" repeatCount="indefinite" begin="-240.17056168164564s"></animateTransform>
  <path d="M84.717,33.597c0.791-2.503,1.186-5.138,1.186-7.773C85.903,11.594,74.308,0,60.079,0 c-9.881,0-18.445,5.534-22.793,13.702c-1.581-0.527-3.426-0.791-5.138-0.791c-9.486,0-17.128,7.642-17.128,17.128 c0,1.186,0.132,2.372,0.395,3.426C6.719,34.783,0,42.424,0,51.515C0,61.66,8.169,69.829,18.314,69.829h63.373 C91.831,69.829,100,61.66,100,51.515C99.868,42.556,93.281,35.046,84.717,33.597z" fill="rgba(234, 211, 184, 0.6694194572202621)" transform="scale(0.7)"></path>
</g><g transform="translate(-100 489.62255798007845) rotate(0)">
  <animateTransform attributeName="transform" type="translate" keyTimes="0;1" values="-100 489.62255798007845;1916 489.62255798007845" dur="125s" repeatCount="indefinite" begin="-66.82339498861279s"></animateTransform>
  <path d="M84.717,33.597c0.791-2.503,1.186-5.138,1.186-7.773C85.903,11.594,74.308,0,60.079,0 c-9.881,0-18.445,5.534-22.793,13.702c-1.581-0.527-3.426-0.791-5.138-0.791c-9.486,0-17.128,7.642-17.128,17.128 c0,1.186,0.132,2.372,0.395,3.426C6.719,34.783,0,42.424,0,51.515C0,61.66,8.169,69.829,18.314,69.829h63.373 C91.831,69.829,100,61.66,100,51.515C99.868,42.556,93.281,35.046,84.717,33.597z" fill="rgba(234, 211, 184, 0.6694194572202621)" transform="scale(0.7)"></path>
</g><g transform="translate(-100 1184.4067790384156) rotate(0)">
  <animateTransform attributeName="transform" type="translate" keyTimes="0;1" values="-100 1184.4067790384156;1916 1184.4067790384156" dur="125s" repeatCount="indefinite" begin="-86.72364523067644s"></animateTransform>
  <path d="M84.717,33.597c0.791-2.503,1.186-5.138,1.186-7.773C85.903,11.594,74.308,0,60.079,0 c-9.881,0-18.445,5.534-22.793,13.702c-1.581-0.527-3.426-0.791-5.138-0.791c-9.486,0-17.128,7.642-17.128,17.128 c0,1.186,0.132,2.372,0.395,3.426C6.719,34.783,0,42.424,0,51.515C0,61.66,8.169,69.829,18.314,69.829h63.373 C91.831,69.829,100,61.66,100,51.515C99.868,42.556,93.281,35.046,84.717,33.597z" fill="rgba(234, 211, 184, 0.6694194572202621)" transform="scale(0.7)"></path>
</g><g transform="translate(-100 79.34835413615328) rotate(0)">
  <animateTransform attributeName="transform" type="translate" keyTimes="0;1" values="-100 79.34835413615328;1916 79.34835413615328" dur="125s" repeatCount="indefinite" begin="-59.305486339828626s"></animateTransform>
  <path d="M84.717,33.597c0.791-2.503,1.186-5.138,1.186-7.773C85.903,11.594,74.308,0,60.079,0 c-9.881,0-18.445,5.534-22.793,13.702c-1.581-0.527-3.426-0.791-5.138-0.791c-9.486,0-17.128,7.642-17.128,17.128 c0,1.186,0.132,2.372,0.395,3.426C6.719,34.783,0,42.424,0,51.515C0,61.66,8.169,69.829,18.314,69.829h63.373 C91.831,69.829,100,61.66,100,51.515C99.868,42.556,93.281,35.046,84.717,33.597z" fill="rgba(234, 211, 184, 0.6694194572202621)" transform="scale(0.7)"></path>
</g><g transform="translate(-100 813.0581822034447) rotate(0)">
  <animateTransform attributeName="transform" type="translate" keyTimes="0;1" values="-100 813.0581822034447;1916 813.0581822034447" dur="125s" repeatCount="indefinite" begin="-47.32724061354388s"></animateTransform>
  <path d="M84.717,33.597c0.791-2.503,1.186-5.138,1.186-7.773C85.903,11.594,74.308,0,60.079,0 c-9.881,0-18.445,5.534-22.793,13.702c-1.581-0.527-3.426-0.791-5.138-0.791c-9.486,0-17.128,7.642-17.128,17.128 c0,1.186,0.132,2.372,0.395,3.426C6.719,34.783,0,42.424,0,51.515C0,61.66,8.169,69.829,18.314,69.829h63.373 C91.831,69.829,100,61.66,100,51.515C99.868,42.556,93.281,35.046,84.717,33.597z" fill="rgba(234, 211, 184, 0.6694194572202621)" transform="scale(0.7)"></path>
</g><g transform="translate(-100 830.7671629697251) rotate(0)">
  <animateTransform attributeName="transform" type="translate" keyTimes="0;1" values="-100 830.7671629697251;1916 830.7671629697251" dur="125s" repeatCount="indefinite" begin="-207.04344819783367s"></animateTransform>
  <path d="M84.717,33.597c0.791-2.503,1.186-5.138,1.186-7.773C85.903,11.594,74.308,0,60.079,0 c-9.881,0-18.445,5.534-22.793,13.702c-1.581-0.527-3.426-0.791-5.138-0.791c-9.486,0-17.128,7.642-17.128,17.128 c0,1.186,0.132,2.372,0.395,3.426C6.719,34.783,0,42.424,0,51.515C0,61.66,8.169,69.829,18.314,69.829h63.373 C91.831,69.829,100,61.66,100,51.515C99.868,42.556,93.281,35.046,84.717,33.597z" fill="rgba(234, 211, 184, 0.6694194572202621)" transform="scale(0.7)"></path>
</g><g transform="translate(-100 1195.0190846071903) rotate(0)">
  <animateTransform attributeName="transform" type="translate" keyTimes="0;1" values="-100 1195.0190846071903;1916 1195.0190846071903" dur="125s" repeatCount="indefinite" begin="-102.2245142046067s"></animateTransform>
  <path d="M84.717,33.597c0.791-2.503,1.186-5.138,1.186-7.773C85.903,11.594,74.308,0,60.079,0 c-9.881,0-18.445,5.534-22.793,13.702c-1.581-0.527-3.426-0.791-5.138-0.791c-9.486,0-17.128,7.642-17.128,17.128 c0,1.186,0.132,2.372,0.395,3.426C6.719,34.783,0,42.424,0,51.515C0,61.66,8.169,69.829,18.314,69.829h63.373 C91.831,69.829,100,61.66,100,51.515C99.868,42.556,93.281,35.046,84.717,33.597z" fill="rgba(234, 211, 184, 0.6694194572202621)" transform="scale(0.7)"></path>
</g><g transform="translate(-100 485.20452653053155) rotate(0)">
  <animateTransform attributeName="transform" type="translate" keyTimes="0;1" values="-100 485.20452653053155;1916 485.20452653053155" dur="125s" repeatCount="indefinite" begin="-170.2725134227392s"></animateTransform>
  <path d="M84.717,33.597c0.791-2.503,1.186-5.138,1.186-7.773C85.903,11.594,74.308,0,60.079,0 c-9.881,0-18.445,5.534-22.793,13.702c-1.581-0.527-3.426-0.791-5.138-0.791c-9.486,0-17.128,7.642-17.128,17.128 c0,1.186,0.132,2.372,0.395,3.426C6.719,34.783,0,42.424,0,51.515C0,61.66,8.169,69.829,18.314,69.829h63.373 C91.831,69.829,100,61.66,100,51.515C99.868,42.556,93.281,35.046,84.717,33.597z" fill="rgba(234, 211, 184, 0.6694194572202621)" transform="scale(0.7)"></path>
</g><g transform="translate(-100 440.69388684787657) rotate(0)">
  <animateTransform attributeName="transform" type="translate" keyTimes="0;1" values="-100 440.69388684787657;1916 440.69388684787657" dur="125s" repeatCount="indefinite" begin="-27.44227764996543s"></animateTransform>
  <path d="M84.717,33.597c0.791-2.503,1.186-5.138,1.186-7.773C85.903,11.594,74.308,0,60.079,0 c-9.881,0-18.445,5.534-22.793,13.702c-1.581-0.527-3.426-0.791-5.138-0.791c-9.486,0-17.128,7.642-17.128,17.128 c0,1.186,0.132,2.372,0.395,3.426C6.719,34.783,0,42.424,0,51.515C0,61.66,8.169,69.829,18.314,69.829h63.373 C91.831,69.829,100,61.66,100,51.515C99.868,42.556,93.281,35.046,84.717,33.597z" fill="rgba(234, 211, 184, 0.6694194572202621)" transform="scale(0.7)"></path>
</g><g transform="translate(-100 313.21372877424756) rotate(0)">
  <animateTransform attributeName="transform" type="translate" keyTimes="0;1" values="-100 313.21372877424756;1916 313.21372877424756" dur="125s" repeatCount="indefinite" begin="-167.46469910567845s"></animateTransform>
  <path d="M84.717,33.597c0.791-2.503,1.186-5.138,1.186-7.773C85.903,11.594,74.308,0,60.079,0 c-9.881,0-18.445,5.534-22.793,13.702c-1.581-0.527-3.426-0.791-5.138-0.791c-9.486,0-17.128,7.642-17.128,17.128 c0,1.186,0.132,2.372,0.395,3.426C6.719,34.783,0,42.424,0,51.515C0,61.66,8.169,69.829,18.314,69.829h63.373 C91.831,69.829,100,61.66,100,51.515C99.868,42.556,93.281,35.046,84.717,33.597z" fill="rgba(234, 211, 184, 0.6694194572202621)" transform="scale(0.7)"></path>
</g><g transform="translate(-100 1225.944723717581) rotate(0)">
  <animateTransform attributeName="transform" type="translate" keyTimes="0;1" values="-100 1225.944723717581;1916 1225.944723717581" dur="125s" repeatCount="indefinite" begin="-100.05057798689704s"></animateTransform>
  <path d="M84.717,33.597c0.791-2.503,1.186-5.138,1.186-7.773C85.903,11.594,74.308,0,60.079,0 c-9.881,0-18.445,5.534-22.793,13.702c-1.581-0.527-3.426-0.791-5.138-0.791c-9.486,0-17.128,7.642-17.128,17.128 c0,1.186,0.132,2.372,0.395,3.426C6.719,34.783,0,42.424,0,51.515C0,61.66,8.169,69.829,18.314,69.829h63.373 C91.831,69.829,100,61.66,100,51.515C99.868,42.556,93.281,35.046,84.717,33.597z" fill="rgba(234, 211, 184, 0.6694194572202621)" transform="scale(0.7)"></path>
</g><g transform="translate(-100 28.856182741042204) rotate(0)">
  <animateTransform attributeName="transform" type="translate" keyTimes="0;1" values="-100 28.856182741042204;1916 28.856182741042204" dur="83.33333333333333s" repeatCount="indefinite" begin="-153.4370882338626s"></animateTransform>
  <path d="M84.717,33.597c0.791-2.503,1.186-5.138,1.186-7.773C85.903,11.594,74.308,0,60.079,0 c-9.881,0-18.445,5.534-22.793,13.702c-1.581-0.527-3.426-0.791-5.138-0.791c-9.486,0-17.128,7.642-17.128,17.128 c0,1.186,0.132,2.372,0.395,3.426C6.719,34.783,0,42.424,0,51.515C0,61.66,8.169,69.829,18.314,69.829h63.373 C91.831,69.829,100,61.66,100,51.515C99.868,42.556,93.281,35.046,84.717,33.597z" fill="rgba(234, 225, 154, 0.29032258064516125)" transform="scale(0.85)"></path>
</g><g transform="translate(-100 298.98282154602424) rotate(0)">
  <animateTransform attributeName="transform" type="translate" keyTimes="0;1" values="-100 298.98282154602424;1916 298.98282154602424" dur="83.33333333333333s" repeatCount="indefinite" begin="-82.95844979299255s"></animateTransform>
  <path d="M84.717,33.597c0.791-2.503,1.186-5.138,1.186-7.773C85.903,11.594,74.308,0,60.079,0 c-9.881,0-18.445,5.534-22.793,13.702c-1.581-0.527-3.426-0.791-5.138-0.791c-9.486,0-17.128,7.642-17.128,17.128 c0,1.186,0.132,2.372,0.395,3.426C6.719,34.783,0,42.424,0,51.515C0,61.66,8.169,69.829,18.314,69.829h63.373 C91.831,69.829,100,61.66,100,51.515C99.868,42.556,93.281,35.046,84.717,33.597z" fill="rgba(234, 225, 154, 0.29032258064516125)" transform="scale(0.85)"></path>
</g><g transform="translate(-100 833.6448308162514) rotate(0)">
  <animateTransform attributeName="transform" type="translate" keyTimes="0;1" values="-100 833.6448308162514;1916 833.6448308162514" dur="83.33333333333333s" repeatCount="indefinite" begin="-209.24844877540383s"></animateTransform>
  <path d="M84.717,33.597c0.791-2.503,1.186-5.138,1.186-7.773C85.903,11.594,74.308,0,60.079,0 c-9.881,0-18.445,5.534-22.793,13.702c-1.581-0.527-3.426-0.791-5.138-0.791c-9.486,0-17.128,7.642-17.128,17.128 c0,1.186,0.132,2.372,0.395,3.426C6.719,34.783,0,42.424,0,51.515C0,61.66,8.169,69.829,18.314,69.829h63.373 C91.831,69.829,100,61.66,100,51.515C99.868,42.556,93.281,35.046,84.717,33.597z" fill="rgba(234, 225, 154, 0.29032258064516125)" transform="scale(0.85)"></path>
</g><g transform="translate(-100 1186.655348094607) rotate(0)">
  <animateTransform attributeName="transform" type="translate" keyTimes="0;1" values="-100 1186.655348094607;1916 1186.655348094607" dur="83.33333333333333s" repeatCount="indefinite" begin="-151.00714721125019s"></animateTransform>
  <path d="M84.717,33.597c0.791-2.503,1.186-5.138,1.186-7.773C85.903,11.594,74.308,0,60.079,0 c-9.881,0-18.445,5.534-22.793,13.702c-1.581-0.527-3.426-0.791-5.138-0.791c-9.486,0-17.128,7.642-17.128,17.128 c0,1.186,0.132,2.372,0.395,3.426C6.719,34.783,0,42.424,0,51.515C0,61.66,8.169,69.829,18.314,69.829h63.373 C91.831,69.829,100,61.66,100,51.515C99.868,42.556,93.281,35.046,84.717,33.597z" fill="rgba(234, 225, 154, 0.29032258064516125)" transform="scale(0.85)"></path>
</g><g transform="translate(-100 699.6861529384324) rotate(0)">
  <animateTransform attributeName="transform" type="translate" keyTimes="0;1" values="-100 699.6861529384324;1916 699.6861529384324" dur="83.33333333333333s" repeatCount="indefinite" begin="-57.82249694728298s"></animateTransform>
  <path d="M84.717,33.597c0.791-2.503,1.186-5.138,1.186-7.773C85.903,11.594,74.308,0,60.079,0 c-9.881,0-18.445,5.534-22.793,13.702c-1.581-0.527-3.426-0.791-5.138-0.791c-9.486,0-17.128,7.642-17.128,17.128 c0,1.186,0.132,2.372,0.395,3.426C6.719,34.783,0,42.424,0,51.515C0,61.66,8.169,69.829,18.314,69.829h63.373 C91.831,69.829,100,61.66,100,51.515C99.868,42.556,93.281,35.046,84.717,33.597z" fill="rgba(234, 225, 154, 0.29032258064516125)" transform="scale(0.85)"></path>
</g><g transform="translate(-100 355.5105094355975) rotate(0)">
  <animateTransform attributeName="transform" type="translate" keyTimes="0;1" values="-100 355.5105094355975;1916 355.5105094355975" dur="83.33333333333333s" repeatCount="indefinite" begin="-165.681763037747s"></animateTransform>
  <path d="M84.717,33.597c0.791-2.503,1.186-5.138,1.186-7.773C85.903,11.594,74.308,0,60.079,0 c-9.881,0-18.445,5.534-22.793,13.702c-1.581-0.527-3.426-0.791-5.138-0.791c-9.486,0-17.128,7.642-17.128,17.128 c0,1.186,0.132,2.372,0.395,3.426C6.719,34.783,0,42.424,0,51.515C0,61.66,8.169,69.829,18.314,69.829h63.373 C91.831,69.829,100,61.66,100,51.515C99.868,42.556,93.281,35.046,84.717,33.597z" fill="rgba(234, 225, 154, 0.29032258064516125)" transform="scale(0.85)"></path>
</g><g transform="translate(-100 562.4819375541695) rotate(0)">
  <animateTransform attributeName="transform" type="translate" keyTimes="0;1" values="-100 562.4819375541695;1916 562.4819375541695" dur="83.33333333333333s" repeatCount="indefinite" begin="-58.90875498613085s"></animateTransform>
  <path d="M84.717,33.597c0.791-2.503,1.186-5.138,1.186-7.773C85.903,11.594,74.308,0,60.079,0 c-9.881,0-18.445,5.534-22.793,13.702c-1.581-0.527-3.426-0.791-5.138-0.791c-9.486,0-17.128,7.642-17.128,17.128 c0,1.186,0.132,2.372,0.395,3.426C6.719,34.783,0,42.424,0,51.515C0,61.66,8.169,69.829,18.314,69.829h63.373 C91.831,69.829,100,61.66,100,51.515C99.868,42.556,93.281,35.046,84.717,33.597z" fill="rgba(234, 225, 154, 0.29032258064516125)" transform="scale(0.85)"></path>
</g><g transform="translate(-100 838.4552169682746) rotate(0)">
  <animateTransform attributeName="transform" type="translate" keyTimes="0;1" values="-100 838.4552169682746;1916 838.4552169682746" dur="83.33333333333333s" repeatCount="indefinite" begin="-131.64350816423996s"></animateTransform>
  <path d="M84.717,33.597c0.791-2.503,1.186-5.138,1.186-7.773C85.903,11.594,74.308,0,60.079,0 c-9.881,0-18.445,5.534-22.793,13.702c-1.581-0.527-3.426-0.791-5.138-0.791c-9.486,0-17.128,7.642-17.128,17.128 c0,1.186,0.132,2.372,0.395,3.426C6.719,34.783,0,42.424,0,51.515C0,61.66,8.169,69.829,18.314,69.829h63.373 C91.831,69.829,100,61.66,100,51.515C99.868,42.556,93.281,35.046,84.717,33.597z" fill="rgba(234, 225, 154, 0.29032258064516125)" transform="scale(0.85)"></path>
</g><g transform="translate(-100 412.8430085877924) rotate(0)">
  <animateTransform attributeName="transform" type="translate" keyTimes="0;1" values="-100 412.8430085877924;1916 412.8430085877924" dur="83.33333333333333s" repeatCount="indefinite" begin="-3.263531350544968s"></animateTransform>
  <path d="M84.717,33.597c0.791-2.503,1.186-5.138,1.186-7.773C85.903,11.594,74.308,0,60.079,0 c-9.881,0-18.445,5.534-22.793,13.702c-1.581-0.527-3.426-0.791-5.138-0.791c-9.486,0-17.128,7.642-17.128,17.128 c0,1.186,0.132,2.372,0.395,3.426C6.719,34.783,0,42.424,0,51.515C0,61.66,8.169,69.829,18.314,69.829h63.373 C91.831,69.829,100,61.66,100,51.515C99.868,42.556,93.281,35.046,84.717,33.597z" fill="rgba(234, 225, 154, 0.29032258064516125)" transform="scale(0.85)"></path>
</g><g transform="translate(-100 226.63656603506303) rotate(0)">
  <animateTransform attributeName="transform" type="translate" keyTimes="0;1" values="-100 226.63656603506303;1916 226.63656603506303" dur="83.33333333333333s" repeatCount="indefinite" begin="-246.03966646208968s"></animateTransform>
  <path d="M84.717,33.597c0.791-2.503,1.186-5.138,1.186-7.773C85.903,11.594,74.308,0,60.079,0 c-9.881,0-18.445,5.534-22.793,13.702c-1.581-0.527-3.426-0.791-5.138-0.791c-9.486,0-17.128,7.642-17.128,17.128 c0,1.186,0.132,2.372,0.395,3.426C6.719,34.783,0,42.424,0,51.515C0,61.66,8.169,69.829,18.314,69.829h63.373 C91.831,69.829,100,61.66,100,51.515C99.868,42.556,93.281,35.046,84.717,33.597z" fill="rgba(234, 225, 154, 0.29032258064516125)" transform="scale(0.85)"></path>
</g><g transform="translate(-100 1182.2273937088748) rotate(0)">
  <animateTransform attributeName="transform" type="translate" keyTimes="0;1" values="-100 1182.2273937088748;1916 1182.2273937088748" dur="83.33333333333333s" repeatCount="indefinite" begin="-45.16087653190315s"></animateTransform>
  <path d="M84.717,33.597c0.791-2.503,1.186-5.138,1.186-7.773C85.903,11.594,74.308,0,60.079,0 c-9.881,0-18.445,5.534-22.793,13.702c-1.581-0.527-3.426-0.791-5.138-0.791c-9.486,0-17.128,7.642-17.128,17.128 c0,1.186,0.132,2.372,0.395,3.426C6.719,34.783,0,42.424,0,51.515C0,61.66,8.169,69.829,18.314,69.829h63.373 C91.831,69.829,100,61.66,100,51.515C99.868,42.556,93.281,35.046,84.717,33.597z" fill="rgba(234, 225, 154, 0.29032258064516125)" transform="scale(0.85)"></path>
</g><g transform="translate(-100 201.467915820412) rotate(0)">
  <animateTransform attributeName="transform" type="translate" keyTimes="0;1" values="-100 201.467915820412;1916 201.467915820412" dur="83.33333333333333s" repeatCount="indefinite" begin="-111.82955916551579s"></animateTransform>
  <path d="M84.717,33.597c0.791-2.503,1.186-5.138,1.186-7.773C85.903,11.594,74.308,0,60.079,0 c-9.881,0-18.445,5.534-22.793,13.702c-1.581-0.527-3.426-0.791-5.138-0.791c-9.486,0-17.128,7.642-17.128,17.128 c0,1.186,0.132,2.372,0.395,3.426C6.719,34.783,0,42.424,0,51.515C0,61.66,8.169,69.829,18.314,69.829h63.373 C91.831,69.829,100,61.66,100,51.515C99.868,42.556,93.281,35.046,84.717,33.597z" fill="rgba(234, 225, 154, 0.29032258064516125)" transform="scale(0.85)"></path>
</g><g transform="translate(-100 157.95347564345607) rotate(0)">
  <animateTransform attributeName="transform" type="translate" keyTimes="0;1" values="-100 157.95347564345607;1916 157.95347564345607" dur="83.33333333333333s" repeatCount="indefinite" begin="-87.76319493852624s"></animateTransform>
  <path d="M84.717,33.597c0.791-2.503,1.186-5.138,1.186-7.773C85.903,11.594,74.308,0,60.079,0 c-9.881,0-18.445,5.534-22.793,13.702c-1.581-0.527-3.426-0.791-5.138-0.791c-9.486,0-17.128,7.642-17.128,17.128 c0,1.186,0.132,2.372,0.395,3.426C6.719,34.783,0,42.424,0,51.515C0,61.66,8.169,69.829,18.314,69.829h63.373 C91.831,69.829,100,61.66,100,51.515C99.868,42.556,93.281,35.046,84.717,33.597z" fill="rgba(234, 225, 154, 0.29032258064516125)" transform="scale(0.85)"></path>
</g><g transform="translate(-100 912.6949712174479) rotate(0)">
  <animateTransform attributeName="transform" type="translate" keyTimes="0;1" values="-100 912.6949712174479;1916 912.6949712174479" dur="83.33333333333333s" repeatCount="indefinite" begin="-136.46273031162937s"></animateTransform>
  <path d="M84.717,33.597c0.791-2.503,1.186-5.138,1.186-7.773C85.903,11.594,74.308,0,60.079,0 c-9.881,0-18.445,5.534-22.793,13.702c-1.581-0.527-3.426-0.791-5.138-0.791c-9.486,0-17.128,7.642-17.128,17.128 c0,1.186,0.132,2.372,0.395,3.426C6.719,34.783,0,42.424,0,51.515C0,61.66,8.169,69.829,18.314,69.829h63.373 C91.831,69.829,100,61.66,100,51.515C99.868,42.556,93.281,35.046,84.717,33.597z" fill="rgba(234, 225, 154, 0.29032258064516125)" transform="scale(0.85)"></path>
</g><g transform="translate(-100 222.83502663871334) rotate(0)">
  <animateTransform attributeName="transform" type="translate" keyTimes="0;1" values="-100 222.83502663871334;1916 222.83502663871334" dur="83.33333333333333s" repeatCount="indefinite" begin="-69.99043036218822s"></animateTransform>
  <path d="M84.717,33.597c0.791-2.503,1.186-5.138,1.186-7.773C85.903,11.594,74.308,0,60.079,0 c-9.881,0-18.445,5.534-22.793,13.702c-1.581-0.527-3.426-0.791-5.138-0.791c-9.486,0-17.128,7.642-17.128,17.128 c0,1.186,0.132,2.372,0.395,3.426C6.719,34.783,0,42.424,0,51.515C0,61.66,8.169,69.829,18.314,69.829h63.373 C91.831,69.829,100,61.66,100,51.515C99.868,42.556,93.281,35.046,84.717,33.597z" fill="rgba(234, 225, 154, 0.29032258064516125)" transform="scale(0.85)"></path>
</g><g transform="translate(-100 727.8058584874387) rotate(0)">
  <animateTransform attributeName="transform" type="translate" keyTimes="0;1" values="-100 727.8058584874387;1916 727.8058584874387" dur="83.33333333333333s" repeatCount="indefinite" begin="-81.38516994614136s"></animateTransform>
  <path d="M84.717,33.597c0.791-2.503,1.186-5.138,1.186-7.773C85.903,11.594,74.308,0,60.079,0 c-9.881,0-18.445,5.534-22.793,13.702c-1.581-0.527-3.426-0.791-5.138-0.791c-9.486,0-17.128,7.642-17.128,17.128 c0,1.186,0.132,2.372,0.395,3.426C6.719,34.783,0,42.424,0,51.515C0,61.66,8.169,69.829,18.314,69.829h63.373 C91.831,69.829,100,61.66,100,51.515C99.868,42.556,93.281,35.046,84.717,33.597z" fill="rgba(234, 225, 154, 0.29032258064516125)" transform="scale(0.85)"></path>
</g><g transform="translate(-100 555.8762476025468) rotate(0)">
  <animateTransform attributeName="transform" type="translate" keyTimes="0;1" values="-100 555.8762476025468;1916 555.8762476025468" dur="83.33333333333333s" repeatCount="indefinite" begin="-113.14815365291642s"></animateTransform>
  <path d="M84.717,33.597c0.791-2.503,1.186-5.138,1.186-7.773C85.903,11.594,74.308,0,60.079,0 c-9.881,0-18.445,5.534-22.793,13.702c-1.581-0.527-3.426-0.791-5.138-0.791c-9.486,0-17.128,7.642-17.128,17.128 c0,1.186,0.132,2.372,0.395,3.426C6.719,34.783,0,42.424,0,51.515C0,61.66,8.169,69.829,18.314,69.829h63.373 C91.831,69.829,100,61.66,100,51.515C99.868,42.556,93.281,35.046,84.717,33.597z" fill="rgba(234, 225, 154, 0.29032258064516125)" transform="scale(0.85)"></path>
</g><g transform="translate(-100 1188.733871043734) rotate(0)">
  <animateTransform attributeName="transform" type="translate" keyTimes="0;1" values="-100 1188.733871043734;1916 1188.733871043734" dur="83.33333333333333s" repeatCount="indefinite" begin="-165.05534098872465s"></animateTransform>
  <path d="M84.717,33.597c0.791-2.503,1.186-5.138,1.186-7.773C85.903,11.594,74.308,0,60.079,0 c-9.881,0-18.445,5.534-22.793,13.702c-1.581-0.527-3.426-0.791-5.138-0.791c-9.486,0-17.128,7.642-17.128,17.128 c0,1.186,0.132,2.372,0.395,3.426C6.719,34.783,0,42.424,0,51.515C0,61.66,8.169,69.829,18.314,69.829h63.373 C91.831,69.829,100,61.66,100,51.515C99.868,42.556,93.281,35.046,84.717,33.597z" fill="rgba(234, 225, 154, 0.29032258064516125)" transform="scale(0.85)"></path>
</g><g transform="translate(-100 258.3949527217068) rotate(0)">
  <animateTransform attributeName="transform" type="translate" keyTimes="0;1" values="-100 258.3949527217068;1916 258.3949527217068" dur="83.33333333333333s" repeatCount="indefinite" begin="-21.120659333037693s"></animateTransform>
  <path d="M84.717,33.597c0.791-2.503,1.186-5.138,1.186-7.773C85.903,11.594,74.308,0,60.079,0 c-9.881,0-18.445,5.534-22.793,13.702c-1.581-0.527-3.426-0.791-5.138-0.791c-9.486,0-17.128,7.642-17.128,17.128 c0,1.186,0.132,2.372,0.395,3.426C6.719,34.783,0,42.424,0,51.515C0,61.66,8.169,69.829,18.314,69.829h63.373 C91.831,69.829,100,61.66,100,51.515C99.868,42.556,93.281,35.046,84.717,33.597z" fill="rgba(234, 225, 154, 0.29032258064516125)" transform="scale(0.85)"></path>
</g><g transform="translate(-100 902.8113238900306) rotate(0)">
  <animateTransform attributeName="transform" type="translate" keyTimes="0;1" values="-100 902.8113238900306;1916 902.8113238900306" dur="83.33333333333333s" repeatCount="indefinite" begin="-199.31733082817533s"></animateTransform>
  <path d="M84.717,33.597c0.791-2.503,1.186-5.138,1.186-7.773C85.903,11.594,74.308,0,60.079,0 c-9.881,0-18.445,5.534-22.793,13.702c-1.581-0.527-3.426-0.791-5.138-0.791c-9.486,0-17.128,7.642-17.128,17.128 c0,1.186,0.132,2.372,0.395,3.426C6.719,34.783,0,42.424,0,51.515C0,61.66,8.169,69.829,18.314,69.829h63.373 C91.831,69.829,100,61.66,100,51.515C99.868,42.556,93.281,35.046,84.717,33.597z" fill="rgba(234, 225, 154, 0.29032258064516125)" transform="scale(0.85)"></path>
</g><g transform="translate(-100 889.6007753251492) rotate(0)">
  <animateTransform attributeName="transform" type="translate" keyTimes="0;1" values="-100 889.6007753251492;1916 889.6007753251492" dur="83.33333333333333s" repeatCount="indefinite" begin="-6.219285082169124s"></animateTransform>
  <path d="M84.717,33.597c0.791-2.503,1.186-5.138,1.186-7.773C85.903,11.594,74.308,0,60.079,0 c-9.881,0-18.445,5.534-22.793,13.702c-1.581-0.527-3.426-0.791-5.138-0.791c-9.486,0-17.128,7.642-17.128,17.128 c0,1.186,0.132,2.372,0.395,3.426C6.719,34.783,0,42.424,0,51.515C0,61.66,8.169,69.829,18.314,69.829h63.373 C91.831,69.829,100,61.66,100,51.515C99.868,42.556,93.281,35.046,84.717,33.597z" fill="rgba(234, 225, 154, 0.29032258064516125)" transform="scale(0.85)"></path>
</g><g transform="translate(-100 1024.1155468852419) rotate(0)">
  <animateTransform attributeName="transform" type="translate" keyTimes="0;1" values="-100 1024.1155468852419;1916 1024.1155468852419" dur="83.33333333333333s" repeatCount="indefinite" begin="-239.1539981341791s"></animateTransform>
  <path d="M84.717,33.597c0.791-2.503,1.186-5.138,1.186-7.773C85.903,11.594,74.308,0,60.079,0 c-9.881,0-18.445,5.534-22.793,13.702c-1.581-0.527-3.426-0.791-5.138-0.791c-9.486,0-17.128,7.642-17.128,17.128 c0,1.186,0.132,2.372,0.395,3.426C6.719,34.783,0,42.424,0,51.515C0,61.66,8.169,69.829,18.314,69.829h63.373 C91.831,69.829,100,61.66,100,51.515C99.868,42.556,93.281,35.046,84.717,33.597z" fill="rgba(234, 225, 154, 0.29032258064516125)" transform="scale(0.85)"></path>
</g><g transform="translate(-100 104.98892143219166) rotate(0)">
  <animateTransform attributeName="transform" type="translate" keyTimes="0;1" values="-100 104.98892143219166;1916 104.98892143219166" dur="83.33333333333333s" repeatCount="indefinite" begin="-155.54918205799723s"></animateTransform>
  <path d="M84.717,33.597c0.791-2.503,1.186-5.138,1.186-7.773C85.903,11.594,74.308,0,60.079,0 c-9.881,0-18.445,5.534-22.793,13.702c-1.581-0.527-3.426-0.791-5.138-0.791c-9.486,0-17.128,7.642-17.128,17.128 c0,1.186,0.132,2.372,0.395,3.426C6.719,34.783,0,42.424,0,51.515C0,61.66,8.169,69.829,18.314,69.829h63.373 C91.831,69.829,100,61.66,100,51.515C99.868,42.556,93.281,35.046,84.717,33.597z" fill="rgba(234, 225, 154, 0.29032258064516125)" transform="scale(0.85)"></path>
</g><g transform="translate(-100 133.94407171901958) rotate(0)">
  <animateTransform attributeName="transform" type="translate" keyTimes="0;1" values="-100 133.94407171901958;1916 133.94407171901958" dur="83.33333333333333s" repeatCount="indefinite" begin="-179.12624480907385s"></animateTransform>
  <path d="M84.717,33.597c0.791-2.503,1.186-5.138,1.186-7.773C85.903,11.594,74.308,0,60.079,0 c-9.881,0-18.445,5.534-22.793,13.702c-1.581-0.527-3.426-0.791-5.138-0.791c-9.486,0-17.128,7.642-17.128,17.128 c0,1.186,0.132,2.372,0.395,3.426C6.719,34.783,0,42.424,0,51.515C0,61.66,8.169,69.829,18.314,69.829h63.373 C91.831,69.829,100,61.66,100,51.515C99.868,42.556,93.281,35.046,84.717,33.597z" fill="rgba(234, 225, 154, 0.29032258064516125)" transform="scale(0.85)"></path>
</g><g transform="translate(-100 417.5677807518) rotate(0)">
  <animateTransform attributeName="transform" type="translate" keyTimes="0;1" values="-100 417.5677807518;1916 417.5677807518" dur="83.33333333333333s" repeatCount="indefinite" begin="-34.95396845207033s"></animateTransform>
  <path d="M84.717,33.597c0.791-2.503,1.186-5.138,1.186-7.773C85.903,11.594,74.308,0,60.079,0 c-9.881,0-18.445,5.534-22.793,13.702c-1.581-0.527-3.426-0.791-5.138-0.791c-9.486,0-17.128,7.642-17.128,17.128 c0,1.186,0.132,2.372,0.395,3.426C6.719,34.783,0,42.424,0,51.515C0,61.66,8.169,69.829,18.314,69.829h63.373 C91.831,69.829,100,61.66,100,51.515C99.868,42.556,93.281,35.046,84.717,33.597z" fill="rgba(234, 225, 154, 0.29032258064516125)" transform="scale(0.85)"></path>
</g><g transform="translate(-100 79.27522399954339) rotate(0)">
  <animateTransform attributeName="transform" type="translate" keyTimes="0;1" values="-100 79.27522399954339;1916 79.27522399954339" dur="62.5s" repeatCount="indefinite" begin="-111.26092254590203s"></animateTransform>
  <path d="M84.717,33.597c0.791-2.503,1.186-5.138,1.186-7.773C85.903,11.594,74.308,0,60.079,0 c-9.881,0-18.445,5.534-22.793,13.702c-1.581-0.527-3.426-0.791-5.138-0.791c-9.486,0-17.128,7.642-17.128,17.128 c0,1.186,0.132,2.372,0.395,3.426C6.719,34.783,0,42.424,0,51.515C0,61.66,8.169,69.829,18.314,69.829h63.373 C91.831,69.829,100,61.66,100,51.515C99.868,42.556,93.281,35.046,84.717,33.597z" fill="rgba(234, 211, 184, 0.6694194572202621)" transform="scale(1)"></path>
</g><g transform="translate(-100 1015.5841250227228) rotate(0)">
  <animateTransform attributeName="transform" type="translate" keyTimes="0;1" values="-100 1015.5841250227228;1916 1015.5841250227228" dur="62.5s" repeatCount="indefinite" begin="-27.83686312747191s"></animateTransform>
  <path d="M84.717,33.597c0.791-2.503,1.186-5.138,1.186-7.773C85.903,11.594,74.308,0,60.079,0 c-9.881,0-18.445,5.534-22.793,13.702c-1.581-0.527-3.426-0.791-5.138-0.791c-9.486,0-17.128,7.642-17.128,17.128 c0,1.186,0.132,2.372,0.395,3.426C6.719,34.783,0,42.424,0,51.515C0,61.66,8.169,69.829,18.314,69.829h63.373 C91.831,69.829,100,61.66,100,51.515C99.868,42.556,93.281,35.046,84.717,33.597z" fill="rgba(234, 211, 184, 0.6694194572202621)" transform="scale(1)"></path>
</g><g transform="translate(-100 64.70120242979903) rotate(0)">
  <animateTransform attributeName="transform" type="translate" keyTimes="0;1" values="-100 64.70120242979903;1916 64.70120242979903" dur="62.5s" repeatCount="indefinite" begin="-182.80705986662844s"></animateTransform>
  <path d="M84.717,33.597c0.791-2.503,1.186-5.138,1.186-7.773C85.903,11.594,74.308,0,60.079,0 c-9.881,0-18.445,5.534-22.793,13.702c-1.581-0.527-3.426-0.791-5.138-0.791c-9.486,0-17.128,7.642-17.128,17.128 c0,1.186,0.132,2.372,0.395,3.426C6.719,34.783,0,42.424,0,51.515C0,61.66,8.169,69.829,18.314,69.829h63.373 C91.831,69.829,100,61.66,100,51.515C99.868,42.556,93.281,35.046,84.717,33.597z" fill="rgba(234, 211, 184, 0.6694194572202621)" transform="scale(1)"></path>
</g><g transform="translate(-100 636.4222047896932) rotate(0)">
  <animateTransform attributeName="transform" type="translate" keyTimes="0;1" values="-100 636.4222047896932;1916 636.4222047896932" dur="62.5s" repeatCount="indefinite" begin="-17.92951817480909s"></animateTransform>
  <path d="M84.717,33.597c0.791-2.503,1.186-5.138,1.186-7.773C85.903,11.594,74.308,0,60.079,0 c-9.881,0-18.445,5.534-22.793,13.702c-1.581-0.527-3.426-0.791-5.138-0.791c-9.486,0-17.128,7.642-17.128,17.128 c0,1.186,0.132,2.372,0.395,3.426C6.719,34.783,0,42.424,0,51.515C0,61.66,8.169,69.829,18.314,69.829h63.373 C91.831,69.829,100,61.66,100,51.515C99.868,42.556,93.281,35.046,84.717,33.597z" fill="rgba(234, 211, 184, 0.6694194572202621)" transform="scale(1)"></path>
</g><g transform="translate(-100 251.6146745571185) rotate(0)">
  <animateTransform attributeName="transform" type="translate" keyTimes="0;1" values="-100 251.6146745571185;1916 251.6146745571185" dur="62.5s" repeatCount="indefinite" begin="-50.42520299845099s"></animateTransform>
  <path d="M84.717,33.597c0.791-2.503,1.186-5.138,1.186-7.773C85.903,11.594,74.308,0,60.079,0 c-9.881,0-18.445,5.534-22.793,13.702c-1.581-0.527-3.426-0.791-5.138-0.791c-9.486,0-17.128,7.642-17.128,17.128 c0,1.186,0.132,2.372,0.395,3.426C6.719,34.783,0,42.424,0,51.515C0,61.66,8.169,69.829,18.314,69.829h63.373 C91.831,69.829,100,61.66,100,51.515C99.868,42.556,93.281,35.046,84.717,33.597z" fill="rgba(234, 211, 184, 0.6694194572202621)" transform="scale(1)"></path>
</g><g transform="translate(-100 1157.9352282967445) rotate(0)">
  <animateTransform attributeName="transform" type="translate" keyTimes="0;1" values="-100 1157.9352282967445;1916 1157.9352282967445" dur="62.5s" repeatCount="indefinite" begin="-133.0051686793489s"></animateTransform>
  <path d="M84.717,33.597c0.791-2.503,1.186-5.138,1.186-7.773C85.903,11.594,74.308,0,60.079,0 c-9.881,0-18.445,5.534-22.793,13.702c-1.581-0.527-3.426-0.791-5.138-0.791c-9.486,0-17.128,7.642-17.128,17.128 c0,1.186,0.132,2.372,0.395,3.426C6.719,34.783,0,42.424,0,51.515C0,61.66,8.169,69.829,18.314,69.829h63.373 C91.831,69.829,100,61.66,100,51.515C99.868,42.556,93.281,35.046,84.717,33.597z" fill="rgba(234, 211, 184, 0.6694194572202621)" transform="scale(1)"></path>
</g><g transform="translate(-100 407.45312718817) rotate(0)">
  <animateTransform attributeName="transform" type="translate" keyTimes="0;1" values="-100 407.45312718817;1916 407.45312718817" dur="62.5s" repeatCount="indefinite" begin="-137.03669223552794s"></animateTransform>
  <path d="M84.717,33.597c0.791-2.503,1.186-5.138,1.186-7.773C85.903,11.594,74.308,0,60.079,0 c-9.881,0-18.445,5.534-22.793,13.702c-1.581-0.527-3.426-0.791-5.138-0.791c-9.486,0-17.128,7.642-17.128,17.128 c0,1.186,0.132,2.372,0.395,3.426C6.719,34.783,0,42.424,0,51.515C0,61.66,8.169,69.829,18.314,69.829h63.373 C91.831,69.829,100,61.66,100,51.515C99.868,42.556,93.281,35.046,84.717,33.597z" fill="rgba(234, 211, 184, 0.6694194572202621)" transform="scale(1)"></path>
</g><g transform="translate(-100 570.1157430368518) rotate(0)">
  <animateTransform attributeName="transform" type="translate" keyTimes="0;1" values="-100 570.1157430368518;1916 570.1157430368518" dur="62.5s" repeatCount="indefinite" begin="-198.1687239813247s"></animateTransform>
  <path d="M84.717,33.597c0.791-2.503,1.186-5.138,1.186-7.773C85.903,11.594,74.308,0,60.079,0 c-9.881,0-18.445,5.534-22.793,13.702c-1.581-0.527-3.426-0.791-5.138-0.791c-9.486,0-17.128,7.642-17.128,17.128 c0,1.186,0.132,2.372,0.395,3.426C6.719,34.783,0,42.424,0,51.515C0,61.66,8.169,69.829,18.314,69.829h63.373 C91.831,69.829,100,61.66,100,51.515C99.868,42.556,93.281,35.046,84.717,33.597z" fill="rgba(234, 211, 184, 0.6694194572202621)" transform="scale(1)"></path>
</g><g transform="translate(-100 653.1608604630233) rotate(0)">
  <animateTransform attributeName="transform" type="translate" keyTimes="0;1" values="-100 653.1608604630233;1916 653.1608604630233" dur="62.5s" repeatCount="indefinite" begin="-108.45633326217141s"></animateTransform>
  <path d="M84.717,33.597c0.791-2.503,1.186-5.138,1.186-7.773C85.903,11.594,74.308,0,60.079,0 c-9.881,0-18.445,5.534-22.793,13.702c-1.581-0.527-3.426-0.791-5.138-0.791c-9.486,0-17.128,7.642-17.128,17.128 c0,1.186,0.132,2.372,0.395,3.426C6.719,34.783,0,42.424,0,51.515C0,61.66,8.169,69.829,18.314,69.829h63.373 C91.831,69.829,100,61.66,100,51.515C99.868,42.556,93.281,35.046,84.717,33.597z" fill="rgba(234, 211, 184, 0.6694194572202621)" transform="scale(1)"></path>
</g><g transform="translate(-100 1210.727211828476) rotate(0)">
  <animateTransform attributeName="transform" type="translate" keyTimes="0;1" values="-100 1210.727211828476;1916 1210.727211828476" dur="62.5s" repeatCount="indefinite" begin="-36.22203859050322s"></animateTransform>
  <path d="M84.717,33.597c0.791-2.503,1.186-5.138,1.186-7.773C85.903,11.594,74.308,0,60.079,0 c-9.881,0-18.445,5.534-22.793,13.702c-1.581-0.527-3.426-0.791-5.138-0.791c-9.486,0-17.128,7.642-17.128,17.128 c0,1.186,0.132,2.372,0.395,3.426C6.719,34.783,0,42.424,0,51.515C0,61.66,8.169,69.829,18.314,69.829h63.373 C91.831,69.829,100,61.66,100,51.515C99.868,42.556,93.281,35.046,84.717,33.597z" fill="rgba(234, 211, 184, 0.6694194572202621)" transform="scale(1)"></path>
</g><g transform="translate(-100 668.309783487871) rotate(0)">
  <animateTransform attributeName="transform" type="translate" keyTimes="0;1" values="-100 668.309783487871;1916 668.309783487871" dur="62.5s" repeatCount="indefinite" begin="-178.6489859335868s"></animateTransform>
  <path d="M84.717,33.597c0.791-2.503,1.186-5.138,1.186-7.773C85.903,11.594,74.308,0,60.079,0 c-9.881,0-18.445,5.534-22.793,13.702c-1.581-0.527-3.426-0.791-5.138-0.791c-9.486,0-17.128,7.642-17.128,17.128 c0,1.186,0.132,2.372,0.395,3.426C6.719,34.783,0,42.424,0,51.515C0,61.66,8.169,69.829,18.314,69.829h63.373 C91.831,69.829,100,61.66,100,51.515C99.868,42.556,93.281,35.046,84.717,33.597z" fill="rgba(234, 211, 184, 0.6694194572202621)" transform="scale(1)"></path>
</g><g transform="translate(-100 641.7646578651103) rotate(0)">
  <animateTransform attributeName="transform" type="translate" keyTimes="0;1" values="-100 641.7646578651103;1916 641.7646578651103" dur="62.5s" repeatCount="indefinite" begin="-28.83418435910845s"></animateTransform>
  <path d="M84.717,33.597c0.791-2.503,1.186-5.138,1.186-7.773C85.903,11.594,74.308,0,60.079,0 c-9.881,0-18.445,5.534-22.793,13.702c-1.581-0.527-3.426-0.791-5.138-0.791c-9.486,0-17.128,7.642-17.128,17.128 c0,1.186,0.132,2.372,0.395,3.426C6.719,34.783,0,42.424,0,51.515C0,61.66,8.169,69.829,18.314,69.829h63.373 C91.831,69.829,100,61.66,100,51.515C99.868,42.556,93.281,35.046,84.717,33.597z" fill="rgba(234, 211, 184, 0.6694194572202621)" transform="scale(1)"></path>
</g><g transform="translate(-100 1235.2985781091452) rotate(0)">
  <animateTransform attributeName="transform" type="translate" keyTimes="0;1" values="-100 1235.2985781091452;1916 1235.2985781091452" dur="62.5s" repeatCount="indefinite" begin="-236.20899265252947s"></animateTransform>
  <path d="M84.717,33.597c0.791-2.503,1.186-5.138,1.186-7.773C85.903,11.594,74.308,0,60.079,0 c-9.881,0-18.445,5.534-22.793,13.702c-1.581-0.527-3.426-0.791-5.138-0.791c-9.486,0-17.128,7.642-17.128,17.128 c0,1.186,0.132,2.372,0.395,3.426C6.719,34.783,0,42.424,0,51.515C0,61.66,8.169,69.829,18.314,69.829h63.373 C91.831,69.829,100,61.66,100,51.515C99.868,42.556,93.281,35.046,84.717,33.597z" fill="rgba(234, 211, 184, 0.6694194572202621)" transform="scale(1)"></path>
</g><g transform="translate(-100 1238.202711656309) rotate(0)">
  <animateTransform attributeName="transform" type="translate" keyTimes="0;1" values="-100 1238.202711656309;1916 1238.202711656309" dur="62.5s" repeatCount="indefinite" begin="-125.67791912086635s"></animateTransform>
  <path d="M84.717,33.597c0.791-2.503,1.186-5.138,1.186-7.773C85.903,11.594,74.308,0,60.079,0 c-9.881,0-18.445,5.534-22.793,13.702c-1.581-0.527-3.426-0.791-5.138-0.791c-9.486,0-17.128,7.642-17.128,17.128 c0,1.186,0.132,2.372,0.395,3.426C6.719,34.783,0,42.424,0,51.515C0,61.66,8.169,69.829,18.314,69.829h63.373 C91.831,69.829,100,61.66,100,51.515C99.868,42.556,93.281,35.046,84.717,33.597z" fill="rgba(234, 211, 184, 0.6694194572202621)" transform="scale(1)"></path>
</g><g transform="translate(-100 855.726500351708) rotate(0)">
  <animateTransform attributeName="transform" type="translate" keyTimes="0;1" values="-100 855.726500351708;1916 855.726500351708" dur="62.5s" repeatCount="indefinite" begin="-44.85274182372429s"></animateTransform>
  <path d="M84.717,33.597c0.791-2.503,1.186-5.138,1.186-7.773C85.903,11.594,74.308,0,60.079,0 c-9.881,0-18.445,5.534-22.793,13.702c-1.581-0.527-3.426-0.791-5.138-0.791c-9.486,0-17.128,7.642-17.128,17.128 c0,1.186,0.132,2.372,0.395,3.426C6.719,34.783,0,42.424,0,51.515C0,61.66,8.169,69.829,18.314,69.829h63.373 C91.831,69.829,100,61.66,100,51.515C99.868,42.556,93.281,35.046,84.717,33.597z" fill="rgba(234, 211, 184, 0.6694194572202621)" transform="scale(1)"></path>
</g><g transform="translate(-100 320.92463875860847) rotate(0)">
  <animateTransform attributeName="transform" type="translate" keyTimes="0;1" values="-100 320.92463875860847;1916 320.92463875860847" dur="62.5s" repeatCount="indefinite" begin="-189.82125582099397s"></animateTransform>
  <path d="M84.717,33.597c0.791-2.503,1.186-5.138,1.186-7.773C85.903,11.594,74.308,0,60.079,0 c-9.881,0-18.445,5.534-22.793,13.702c-1.581-0.527-3.426-0.791-5.138-0.791c-9.486,0-17.128,7.642-17.128,17.128 c0,1.186,0.132,2.372,0.395,3.426C6.719,34.783,0,42.424,0,51.515C0,61.66,8.169,69.829,18.314,69.829h63.373 C91.831,69.829,100,61.66,100,51.515C99.868,42.556,93.281,35.046,84.717,33.597z" fill="rgba(234, 211, 184, 0.6694194572202621)" transform="scale(1)"></path>
</g><g transform="translate(-100 81.19119471127217) rotate(0)">
  <animateTransform attributeName="transform" type="translate" keyTimes="0;1" values="-100 81.19119471127217;1916 81.19119471127217" dur="62.5s" repeatCount="indefinite" begin="-7.35281033386237s"></animateTransform>
  <path d="M84.717,33.597c0.791-2.503,1.186-5.138,1.186-7.773C85.903,11.594,74.308,0,60.079,0 c-9.881,0-18.445,5.534-22.793,13.702c-1.581-0.527-3.426-0.791-5.138-0.791c-9.486,0-17.128,7.642-17.128,17.128 c0,1.186,0.132,2.372,0.395,3.426C6.719,34.783,0,42.424,0,51.515C0,61.66,8.169,69.829,18.314,69.829h63.373 C91.831,69.829,100,61.66,100,51.515C99.868,42.556,93.281,35.046,84.717,33.597z" fill="rgba(234, 211, 184, 0.6694194572202621)" transform="scale(1)"></path>
</g><g transform="translate(-100 163.765713066414) rotate(0)">
  <animateTransform attributeName="transform" type="translate" keyTimes="0;1" values="-100 163.765713066414;1916 163.765713066414" dur="62.5s" repeatCount="indefinite" begin="-219.8542103905805s"></animateTransform>
  <path d="M84.717,33.597c0.791-2.503,1.186-5.138,1.186-7.773C85.903,11.594,74.308,0,60.079,0 c-9.881,0-18.445,5.534-22.793,13.702c-1.581-0.527-3.426-0.791-5.138-0.791c-9.486,0-17.128,7.642-17.128,17.128 c0,1.186,0.132,2.372,0.395,3.426C6.719,34.783,0,42.424,0,51.515C0,61.66,8.169,69.829,18.314,69.829h63.373 C91.831,69.829,100,61.66,100,51.515C99.868,42.556,93.281,35.046,84.717,33.597z" fill="rgba(234, 211, 184, 0.6694194572202621)" transform="scale(1)"></path>
</g><g transform="translate(-100 235.9662660823309) rotate(0)">
  <animateTransform attributeName="transform" type="translate" keyTimes="0;1" values="-100 235.9662660823309;1916 235.9662660823309" dur="62.5s" repeatCount="indefinite" begin="-12.944585927865626s"></animateTransform>
  <path d="M84.717,33.597c0.791-2.503,1.186-5.138,1.186-7.773C85.903,11.594,74.308,0,60.079,0 c-9.881,0-18.445,5.534-22.793,13.702c-1.581-0.527-3.426-0.791-5.138-0.791c-9.486,0-17.128,7.642-17.128,17.128 c0,1.186,0.132,2.372,0.395,3.426C6.719,34.783,0,42.424,0,51.515C0,61.66,8.169,69.829,18.314,69.829h63.373 C91.831,69.829,100,61.66,100,51.515C99.868,42.556,93.281,35.046,84.717,33.597z" fill="rgba(234, 211, 184, 0.6694194572202621)" transform="scale(1)"></path>
</g><g transform="translate(-100 87.93739641788474) rotate(0)">
  <animateTransform attributeName="transform" type="translate" keyTimes="0;1" values="-100 87.93739641788474;1916 87.93739641788474" dur="62.5s" repeatCount="indefinite" begin="-224.19936314864154s"></animateTransform>
  <path d="M84.717,33.597c0.791-2.503,1.186-5.138,1.186-7.773C85.903,11.594,74.308,0,60.079,0 c-9.881,0-18.445,5.534-22.793,13.702c-1.581-0.527-3.426-0.791-5.138-0.791c-9.486,0-17.128,7.642-17.128,17.128 c0,1.186,0.132,2.372,0.395,3.426C6.719,34.783,0,42.424,0,51.515C0,61.66,8.169,69.829,18.314,69.829h63.373 C91.831,69.829,100,61.66,100,51.515C99.868,42.556,93.281,35.046,84.717,33.597z" fill="rgba(234, 211, 184, 0.6694194572202621)" transform="scale(1)"></path>
</g><g transform="translate(-100 248.0495262502024) rotate(0)">
  <animateTransform attributeName="transform" type="translate" keyTimes="0;1" values="-100 248.0495262502024;1916 248.0495262502024" dur="62.5s" repeatCount="indefinite" begin="-228.47475110839588s"></animateTransform>
  <path d="M84.717,33.597c0.791-2.503,1.186-5.138,1.186-7.773C85.903,11.594,74.308,0,60.079,0 c-9.881,0-18.445,5.534-22.793,13.702c-1.581-0.527-3.426-0.791-5.138-0.791c-9.486,0-17.128,7.642-17.128,17.128 c0,1.186,0.132,2.372,0.395,3.426C6.719,34.783,0,42.424,0,51.515C0,61.66,8.169,69.829,18.314,69.829h63.373 C91.831,69.829,100,61.66,100,51.515C99.868,42.556,93.281,35.046,84.717,33.597z" fill="rgba(234, 211, 184, 0.6694194572202621)" transform="scale(1)"></path>
</g><g transform="translate(-100 104.06579289929432) rotate(0)">
  <animateTransform attributeName="transform" type="translate" keyTimes="0;1" values="-100 104.06579289929432;1916 104.06579289929432" dur="62.5s" repeatCount="indefinite" begin="-14.01974394110772s"></animateTransform>
  <path d="M84.717,33.597c0.791-2.503,1.186-5.138,1.186-7.773C85.903,11.594,74.308,0,60.079,0 c-9.881,0-18.445,5.534-22.793,13.702c-1.581-0.527-3.426-0.791-5.138-0.791c-9.486,0-17.128,7.642-17.128,17.128 c0,1.186,0.132,2.372,0.395,3.426C6.719,34.783,0,42.424,0,51.515C0,61.66,8.169,69.829,18.314,69.829h63.373 C91.831,69.829,100,61.66,100,51.515C99.868,42.556,93.281,35.046,84.717,33.597z" fill="rgba(234, 211, 184, 0.6694194572202621)" transform="scale(1)"></path>
</g><g transform="translate(-100 445.47452638629136) rotate(0)">
  <animateTransform attributeName="transform" type="translate" keyTimes="0;1" values="-100 445.47452638629136;1916 445.47452638629136" dur="62.5s" repeatCount="indefinite" begin="-173.0546923160658s"></animateTransform>
  <path d="M84.717,33.597c0.791-2.503,1.186-5.138,1.186-7.773C85.903,11.594,74.308,0,60.079,0 c-9.881,0-18.445,5.534-22.793,13.702c-1.581-0.527-3.426-0.791-5.138-0.791c-9.486,0-17.128,7.642-17.128,17.128 c0,1.186,0.132,2.372,0.395,3.426C6.719,34.783,0,42.424,0,51.515C0,61.66,8.169,69.829,18.314,69.829h63.373 C91.831,69.829,100,61.66,100,51.515C99.868,42.556,93.281,35.046,84.717,33.597z" fill="rgba(234, 211, 184, 0.6694194572202621)" transform="scale(1)"></path>
</g><g transform="translate(-100 920.3158451200937) rotate(0)">
  <animateTransform attributeName="transform" type="translate" keyTimes="0;1" values="-100 920.3158451200937;1916 920.3158451200937" dur="62.5s" repeatCount="indefinite" begin="-53.27341352693749s"></animateTransform>
  <path d="M84.717,33.597c0.791-2.503,1.186-5.138,1.186-7.773C85.903,11.594,74.308,0,60.079,0 c-9.881,0-18.445,5.534-22.793,13.702c-1.581-0.527-3.426-0.791-5.138-0.791c-9.486,0-17.128,7.642-17.128,17.128 c0,1.186,0.132,2.372,0.395,3.426C6.719,34.783,0,42.424,0,51.515C0,61.66,8.169,69.829,18.314,69.829h63.373 C91.831,69.829,100,61.66,100,51.515C99.868,42.556,93.281,35.046,84.717,33.597z" fill="rgba(234, 211, 184, 0.6694194572202621)" transform="scale(1)"></path>
</g><g transform="translate(-100 881.4004113590415) rotate(0)">
  <animateTransform attributeName="transform" type="translate" keyTimes="0;1" values="-100 881.4004113590415;1916 881.4004113590415" dur="62.5s" repeatCount="indefinite" begin="-137.74295227935335s"></animateTransform>
  <path d="M84.717,33.597c0.791-2.503,1.186-5.138,1.186-7.773C85.903,11.594,74.308,0,60.079,0 c-9.881,0-18.445,5.534-22.793,13.702c-1.581-0.527-3.426-0.791-5.138-0.791c-9.486,0-17.128,7.642-17.128,17.128 c0,1.186,0.132,2.372,0.395,3.426C6.719,34.783,0,42.424,0,51.515C0,61.66,8.169,69.829,18.314,69.829h63.373 C91.831,69.829,100,61.66,100,51.515C99.868,42.556,93.281,35.046,84.717,33.597z" fill="rgba(234, 211, 184, 0.6694194572202621)" transform="scale(1)"></path>
</g></g>
</svg>