<?xml version="1.0" encoding="utf-8"?>
<svg xmlns="http://www.w3.org/2000/svg" xmlns:xlink="http://www.w3.org/1999/xlink" style="margin: auto; background: rgba(122, 206, 255, 0); display: block; z-index: 1; position: relative; shape-rendering: auto; animation-play-state: running; animation-delay: 0s;" width="1536" height="664" preserveAspectRatio="xMidYMid" viewBox="0 0 1536 664">
<g transform="translate(768,332) scale(1,1) translate(-768,-332)" style="animation-play-state: running; animation-delay: 0s;"><g transform="translate(-100 182.21750793352194) rotate(0)" style="animation-play-state: running; animation-delay: 0s;">
  <animateTransform attributeName="transform" type="translate" keyTimes="0;1" values="-100 182.21750793352194;1536 182.21750793352194" dur="200s" repeatCount="indefinite" begin="-182.2320036128172s" style="animation-play-state: running; animation-delay: 0s;"></animateTransform>
  <path d="M84.717,33.597c0.791-2.503,1.186-5.138,1.186-7.773C85.903,11.594,74.308,0,60.079,0 c-9.881,0-18.445,5.534-22.793,13.702c-1.581-0.527-3.426-0.791-5.138-0.791c-9.486,0-17.128,7.642-17.128,17.128 c0,1.186,0.132,2.372,0.395,3.426C6.719,34.783,0,42.424,0,51.515C0,61.66,8.169,69.829,18.314,69.829h63.373 C91.831,69.829,100,61.66,100,51.515C99.868,42.556,93.281,35.046,84.717,33.597z" fill="rgba(255, 255, 255, 0.2970324116368448)" transform="scale(0.6475)" style="animation-play-state: running; animation-delay: 0s;"></path>
</g><g transform="translate(-100 53.58622259863118) rotate(0)" style="animation-play-state: running; animation-delay: 0s;">
  <animateTransform attributeName="transform" type="translate" keyTimes="0;1" values="-100 53.58622259863118;1536 53.58622259863118" dur="200s" repeatCount="indefinite" begin="-4.917706648408382s" style="animation-play-state: running; animation-delay: 0s;"></animateTransform>
  <path d="M84.717,33.597c0.791-2.503,1.186-5.138,1.186-7.773C85.903,11.594,74.308,0,60.079,0 c-9.881,0-18.445,5.534-22.793,13.702c-1.581-0.527-3.426-0.791-5.138-0.791c-9.486,0-17.128,7.642-17.128,17.128 c0,1.186,0.132,2.372,0.395,3.426C6.719,34.783,0,42.424,0,51.515C0,61.66,8.169,69.829,18.314,69.829h63.373 C91.831,69.829,100,61.66,100,51.515C99.868,42.556,93.281,35.046,84.717,33.597z" fill="rgba(255, 255, 255, 0.2970324116368448)" transform="scale(0.6475)" style="animation-play-state: running; animation-delay: 0s;"></path>
</g><g transform="translate(-100 560.6832094002276) rotate(0)" style="animation-play-state: running; animation-delay: 0s;">
  <animateTransform attributeName="transform" type="translate" keyTimes="0;1" values="-100 560.6832094002276;1536 560.6832094002276" dur="200s" repeatCount="indefinite" begin="-119.17937536005016s" style="animation-play-state: running; animation-delay: 0s;"></animateTransform>
  <path d="M84.717,33.597c0.791-2.503,1.186-5.138,1.186-7.773C85.903,11.594,74.308,0,60.079,0 c-9.881,0-18.445,5.534-22.793,13.702c-1.581-0.527-3.426-0.791-5.138-0.791c-9.486,0-17.128,7.642-17.128,17.128 c0,1.186,0.132,2.372,0.395,3.426C6.719,34.783,0,42.424,0,51.515C0,61.66,8.169,69.829,18.314,69.829h63.373 C91.831,69.829,100,61.66,100,51.515C99.868,42.556,93.281,35.046,84.717,33.597z" fill="rgba(255, 255, 255, 0.2970324116368448)" transform="scale(0.6475)" style="animation-play-state: running; animation-delay: 0s;"></path>
</g><g transform="translate(-100 169.4270528744524) rotate(0)" style="animation-play-state: running; animation-delay: 0s;">
  <animateTransform attributeName="transform" type="translate" keyTimes="0;1" values="-100 169.4270528744524;1536 169.4270528744524" dur="200s" repeatCount="indefinite" begin="-160.9963875610064s" style="animation-play-state: running; animation-delay: 0s;"></animateTransform>
  <path d="M84.717,33.597c0.791-2.503,1.186-5.138,1.186-7.773C85.903,11.594,74.308,0,60.079,0 c-9.881,0-18.445,5.534-22.793,13.702c-1.581-0.527-3.426-0.791-5.138-0.791c-9.486,0-17.128,7.642-17.128,17.128 c0,1.186,0.132,2.372,0.395,3.426C6.719,34.783,0,42.424,0,51.515C0,61.66,8.169,69.829,18.314,69.829h63.373 C91.831,69.829,100,61.66,100,51.515C99.868,42.556,93.281,35.046,84.717,33.597z" fill="rgba(255, 255, 255, 0.2970324116368448)" transform="scale(0.6475)" style="animation-play-state: running; animation-delay: 0s;"></path>
</g><g transform="translate(-100 312.3337633999881) rotate(0)" style="animation-play-state: running; animation-delay: 0s;">
  <animateTransform attributeName="transform" type="translate" keyTimes="0;1" values="-100 312.3337633999881;1536 312.3337633999881" dur="200s" repeatCount="indefinite" begin="-179.47465919991114s" style="animation-play-state: running; animation-delay: 0s;"></animateTransform>
  <path d="M84.717,33.597c0.791-2.503,1.186-5.138,1.186-7.773C85.903,11.594,74.308,0,60.079,0 c-9.881,0-18.445,5.534-22.793,13.702c-1.581-0.527-3.426-0.791-5.138-0.791c-9.486,0-17.128,7.642-17.128,17.128 c0,1.186,0.132,2.372,0.395,3.426C6.719,34.783,0,42.424,0,51.515C0,61.66,8.169,69.829,18.314,69.829h63.373 C91.831,69.829,100,61.66,100,51.515C99.868,42.556,93.281,35.046,84.717,33.597z" fill="rgba(255, 255, 255, 0.2970324116368448)" transform="scale(0.6475)" style="animation-play-state: running; animation-delay: 0s;"></path>
</g><g transform="translate(-100 248.10491248989132) rotate(0)" style="animation-play-state: running; animation-delay: 0s;">
  <animateTransform attributeName="transform" type="translate" keyTimes="0;1" values="-100 248.10491248989132;1536 248.10491248989132" dur="200s" repeatCount="indefinite" begin="-119.7813318273436s" style="animation-play-state: running; animation-delay: 0s;"></animateTransform>
  <path d="M84.717,33.597c0.791-2.503,1.186-5.138,1.186-7.773C85.903,11.594,74.308,0,60.079,0 c-9.881,0-18.445,5.534-22.793,13.702c-1.581-0.527-3.426-0.791-5.138-0.791c-9.486,0-17.128,7.642-17.128,17.128 c0,1.186,0.132,2.372,0.395,3.426C6.719,34.783,0,42.424,0,51.515C0,61.66,8.169,69.829,18.314,69.829h63.373 C91.831,69.829,100,61.66,100,51.515C99.868,42.556,93.281,35.046,84.717,33.597z" fill="rgba(255, 255, 255, 0.2970324116368448)" transform="scale(0.6475)" style="animation-play-state: running; animation-delay: 0s;"></path>
</g><g transform="translate(-100 246.64877440166003) rotate(0)" style="animation-play-state: running; animation-delay: 0s;">
  <animateTransform attributeName="transform" type="translate" keyTimes="0;1" values="-100 246.64877440166003;1536 246.64877440166003" dur="200s" repeatCount="indefinite" begin="-183.4838830427364s" style="animation-play-state: running; animation-delay: 0s;"></animateTransform>
  <path d="M84.717,33.597c0.791-2.503,1.186-5.138,1.186-7.773C85.903,11.594,74.308,0,60.079,0 c-9.881,0-18.445,5.534-22.793,13.702c-1.581-0.527-3.426-0.791-5.138-0.791c-9.486,0-17.128,7.642-17.128,17.128 c0,1.186,0.132,2.372,0.395,3.426C6.719,34.783,0,42.424,0,51.515C0,61.66,8.169,69.829,18.314,69.829h63.373 C91.831,69.829,100,61.66,100,51.515C99.868,42.556,93.281,35.046,84.717,33.597z" fill="rgba(255, 255, 255, 0.2970324116368448)" transform="scale(0.6475)" style="animation-play-state: running; animation-delay: 0s;"></path>
</g><g transform="translate(-100 625.9908511091047) rotate(0)" style="animation-play-state: running; animation-delay: 0s;">
  <animateTransform attributeName="transform" type="translate" keyTimes="0;1" values="-100 625.9908511091047;1536 625.9908511091047" dur="200s" repeatCount="indefinite" begin="-188.64593972886104s" style="animation-play-state: running; animation-delay: 0s;"></animateTransform>
  <path d="M84.717,33.597c0.791-2.503,1.186-5.138,1.186-7.773C85.903,11.594,74.308,0,60.079,0 c-9.881,0-18.445,5.534-22.793,13.702c-1.581-0.527-3.426-0.791-5.138-0.791c-9.486,0-17.128,7.642-17.128,17.128 c0,1.186,0.132,2.372,0.395,3.426C6.719,34.783,0,42.424,0,51.515C0,61.66,8.169,69.829,18.314,69.829h63.373 C91.831,69.829,100,61.66,100,51.515C99.868,42.556,93.281,35.046,84.717,33.597z" fill="rgba(255, 255, 255, 0.2970324116368448)" transform="scale(0.6475)" style="animation-play-state: running; animation-delay: 0s;"></path>
</g><g transform="translate(-100 518.2141142330113) rotate(0)" style="animation-play-state: running; animation-delay: 0s;">
  <animateTransform attributeName="transform" type="translate" keyTimes="0;1" values="-100 518.2141142330113;1536 518.2141142330113" dur="200s" repeatCount="indefinite" begin="-105.3811507512068s" style="animation-play-state: running; animation-delay: 0s;"></animateTransform>
  <path d="M84.717,33.597c0.791-2.503,1.186-5.138,1.186-7.773C85.903,11.594,74.308,0,60.079,0 c-9.881,0-18.445,5.534-22.793,13.702c-1.581-0.527-3.426-0.791-5.138-0.791c-9.486,0-17.128,7.642-17.128,17.128 c0,1.186,0.132,2.372,0.395,3.426C6.719,34.783,0,42.424,0,51.515C0,61.66,8.169,69.829,18.314,69.829h63.373 C91.831,69.829,100,61.66,100,51.515C99.868,42.556,93.281,35.046,84.717,33.597z" fill="rgba(255, 255, 255, 0.2970324116368448)" transform="scale(0.6475)" style="animation-play-state: running; animation-delay: 0s;"></path>
</g><g transform="translate(-100 648.6924175526318) rotate(0)" style="animation-play-state: running; animation-delay: 0s;">
  <animateTransform attributeName="transform" type="translate" keyTimes="0;1" values="-100 648.6924175526318;1536 648.6924175526318" dur="200s" repeatCount="indefinite" begin="-20.859383500899575s" style="animation-play-state: running; animation-delay: 0s;"></animateTransform>
  <path d="M84.717,33.597c0.791-2.503,1.186-5.138,1.186-7.773C85.903,11.594,74.308,0,60.079,0 c-9.881,0-18.445,5.534-22.793,13.702c-1.581-0.527-3.426-0.791-5.138-0.791c-9.486,0-17.128,7.642-17.128,17.128 c0,1.186,0.132,2.372,0.395,3.426C6.719,34.783,0,42.424,0,51.515C0,61.66,8.169,69.829,18.314,69.829h63.373 C91.831,69.829,100,61.66,100,51.515C99.868,42.556,93.281,35.046,84.717,33.597z" fill="rgba(255, 255, 255, 0.2970324116368448)" transform="scale(0.6475)" style="animation-play-state: running; animation-delay: 0s;"></path>
</g><g transform="translate(-100 128.55524428510142) rotate(0)" style="animation-play-state: running; animation-delay: 0s;">
  <animateTransform attributeName="transform" type="translate" keyTimes="0;1" values="-100 128.55524428510142;1536 128.55524428510142" dur="200s" repeatCount="indefinite" begin="-171.06752773689618s" style="animation-play-state: running; animation-delay: 0s;"></animateTransform>
  <path d="M84.717,33.597c0.791-2.503,1.186-5.138,1.186-7.773C85.903,11.594,74.308,0,60.079,0 c-9.881,0-18.445,5.534-22.793,13.702c-1.581-0.527-3.426-0.791-5.138-0.791c-9.486,0-17.128,7.642-17.128,17.128 c0,1.186,0.132,2.372,0.395,3.426C6.719,34.783,0,42.424,0,51.515C0,61.66,8.169,69.829,18.314,69.829h63.373 C91.831,69.829,100,61.66,100,51.515C99.868,42.556,93.281,35.046,84.717,33.597z" fill="rgba(255, 255, 255, 0.2970324116368448)" transform="scale(0.6475)" style="animation-play-state: running; animation-delay: 0s;"></path>
</g><g transform="translate(-100 594.4038677119268) rotate(0)" style="animation-play-state: running; animation-delay: 0s;">
  <animateTransform attributeName="transform" type="translate" keyTimes="0;1" values="-100 594.4038677119268;1536 594.4038677119268" dur="200s" repeatCount="indefinite" begin="-190.66153651207344s" style="animation-play-state: running; animation-delay: 0s;"></animateTransform>
  <path d="M84.717,33.597c0.791-2.503,1.186-5.138,1.186-7.773C85.903,11.594,74.308,0,60.079,0 c-9.881,0-18.445,5.534-22.793,13.702c-1.581-0.527-3.426-0.791-5.138-0.791c-9.486,0-17.128,7.642-17.128,17.128 c0,1.186,0.132,2.372,0.395,3.426C6.719,34.783,0,42.424,0,51.515C0,61.66,8.169,69.829,18.314,69.829h63.373 C91.831,69.829,100,61.66,100,51.515C99.868,42.556,93.281,35.046,84.717,33.597z" fill="rgba(255, 255, 255, 0.2970324116368448)" transform="scale(0.6475)" style="animation-play-state: running; animation-delay: 0s;"></path>
</g><g transform="translate(-100 106.3927051743022) rotate(0)" style="animation-play-state: running; animation-delay: 0s;">
  <animateTransform attributeName="transform" type="translate" keyTimes="0;1" values="-100 106.3927051743022;1536 106.3927051743022" dur="100s" repeatCount="indefinite" begin="-173.2645765995461s" style="animation-play-state: running; animation-delay: 0s;"></animateTransform>
  <path d="M84.717,33.597c0.791-2.503,1.186-5.138,1.186-7.773C85.903,11.594,74.308,0,60.079,0 c-9.881,0-18.445,5.534-22.793,13.702c-1.581-0.527-3.426-0.791-5.138-0.791c-9.486,0-17.128,7.642-17.128,17.128 c0,1.186,0.132,2.372,0.395,3.426C6.719,34.783,0,42.424,0,51.515C0,61.66,8.169,69.829,18.314,69.829h63.373 C91.831,69.829,100,61.66,100,51.515C99.868,42.556,93.281,35.046,84.717,33.597z" fill="rgba(255, 255, 255, 0.28025821808845774)" transform="scale(0.765)" style="animation-play-state: running; animation-delay: 0s;"></path>
</g><g transform="translate(-100 614.9030981070159) rotate(0)" style="animation-play-state: running; animation-delay: 0s;">
  <animateTransform attributeName="transform" type="translate" keyTimes="0;1" values="-100 614.9030981070159;1536 614.9030981070159" dur="100s" repeatCount="indefinite" begin="-178.21625578661474s" style="animation-play-state: running; animation-delay: 0s;"></animateTransform>
  <path d="M84.717,33.597c0.791-2.503,1.186-5.138,1.186-7.773C85.903,11.594,74.308,0,60.079,0 c-9.881,0-18.445,5.534-22.793,13.702c-1.581-0.527-3.426-0.791-5.138-0.791c-9.486,0-17.128,7.642-17.128,17.128 c0,1.186,0.132,2.372,0.395,3.426C6.719,34.783,0,42.424,0,51.515C0,61.66,8.169,69.829,18.314,69.829h63.373 C91.831,69.829,100,61.66,100,51.515C99.868,42.556,93.281,35.046,84.717,33.597z" fill="rgba(255, 255, 255, 0.28025821808845774)" transform="scale(0.765)" style="animation-play-state: running; animation-delay: 0s;"></path>
</g><g transform="translate(-100 364.95909770657835) rotate(0)" style="animation-play-state: running; animation-delay: 0s;">
  <animateTransform attributeName="transform" type="translate" keyTimes="0;1" values="-100 364.95909770657835;1536 364.95909770657835" dur="100s" repeatCount="indefinite" begin="-63.964423332615674s" style="animation-play-state: running; animation-delay: 0s;"></animateTransform>
  <path d="M84.717,33.597c0.791-2.503,1.186-5.138,1.186-7.773C85.903,11.594,74.308,0,60.079,0 c-9.881,0-18.445,5.534-22.793,13.702c-1.581-0.527-3.426-0.791-5.138-0.791c-9.486,0-17.128,7.642-17.128,17.128 c0,1.186,0.132,2.372,0.395,3.426C6.719,34.783,0,42.424,0,51.515C0,61.66,8.169,69.829,18.314,69.829h63.373 C91.831,69.829,100,61.66,100,51.515C99.868,42.556,93.281,35.046,84.717,33.597z" fill="rgba(255, 255, 255, 0.28025821808845774)" transform="scale(0.765)" style="animation-play-state: running; animation-delay: 0s;"></path>
</g><g transform="translate(-100 382.6106348477412) rotate(0)" style="animation-play-state: running; animation-delay: 0s;">
  <animateTransform attributeName="transform" type="translate" keyTimes="0;1" values="-100 382.6106348477412;1536 382.6106348477412" dur="100s" repeatCount="indefinite" begin="-17.99410875048566s" style="animation-play-state: running; animation-delay: 0s;"></animateTransform>
  <path d="M84.717,33.597c0.791-2.503,1.186-5.138,1.186-7.773C85.903,11.594,74.308,0,60.079,0 c-9.881,0-18.445,5.534-22.793,13.702c-1.581-0.527-3.426-0.791-5.138-0.791c-9.486,0-17.128,7.642-17.128,17.128 c0,1.186,0.132,2.372,0.395,3.426C6.719,34.783,0,42.424,0,51.515C0,61.66,8.169,69.829,18.314,69.829h63.373 C91.831,69.829,100,61.66,100,51.515C99.868,42.556,93.281,35.046,84.717,33.597z" fill="rgba(255, 255, 255, 0.28025821808845774)" transform="scale(0.765)" style="animation-play-state: running; animation-delay: 0s;"></path>
</g><g transform="translate(-100 58.263207668294775) rotate(0)" style="animation-play-state: running; animation-delay: 0s;">
  <animateTransform attributeName="transform" type="translate" keyTimes="0;1" values="-100 58.263207668294775;1536 58.263207668294775" dur="100s" repeatCount="indefinite" begin="-66.00066580783563s" style="animation-play-state: running; animation-delay: 0s;"></animateTransform>
  <path d="M84.717,33.597c0.791-2.503,1.186-5.138,1.186-7.773C85.903,11.594,74.308,0,60.079,0 c-9.881,0-18.445,5.534-22.793,13.702c-1.581-0.527-3.426-0.791-5.138-0.791c-9.486,0-17.128,7.642-17.128,17.128 c0,1.186,0.132,2.372,0.395,3.426C6.719,34.783,0,42.424,0,51.515C0,61.66,8.169,69.829,18.314,69.829h63.373 C91.831,69.829,100,61.66,100,51.515C99.868,42.556,93.281,35.046,84.717,33.597z" fill="rgba(255, 255, 255, 0.28025821808845774)" transform="scale(0.765)" style="animation-play-state: running; animation-delay: 0s;"></path>
</g><g transform="translate(-100 337.34268684850105) rotate(0)" style="animation-play-state: running; animation-delay: 0s;">
  <animateTransform attributeName="transform" type="translate" keyTimes="0;1" values="-100 337.34268684850105;1536 337.34268684850105" dur="100s" repeatCount="indefinite" begin="-114.25008032165005s" style="animation-play-state: running; animation-delay: 0s;"></animateTransform>
  <path d="M84.717,33.597c0.791-2.503,1.186-5.138,1.186-7.773C85.903,11.594,74.308,0,60.079,0 c-9.881,0-18.445,5.534-22.793,13.702c-1.581-0.527-3.426-0.791-5.138-0.791c-9.486,0-17.128,7.642-17.128,17.128 c0,1.186,0.132,2.372,0.395,3.426C6.719,34.783,0,42.424,0,51.515C0,61.66,8.169,69.829,18.314,69.829h63.373 C91.831,69.829,100,61.66,100,51.515C99.868,42.556,93.281,35.046,84.717,33.597z" fill="rgba(255, 255, 255, 0.28025821808845774)" transform="scale(0.765)" style="animation-play-state: running; animation-delay: 0s;"></path>
</g><g transform="translate(-100 430.8786032491476) rotate(0)" style="animation-play-state: running; animation-delay: 0s;">
  <animateTransform attributeName="transform" type="translate" keyTimes="0;1" values="-100 430.8786032491476;1536 430.8786032491476" dur="100s" repeatCount="indefinite" begin="-31.578990304469023s" style="animation-play-state: running; animation-delay: 0s;"></animateTransform>
  <path d="M84.717,33.597c0.791-2.503,1.186-5.138,1.186-7.773C85.903,11.594,74.308,0,60.079,0 c-9.881,0-18.445,5.534-22.793,13.702c-1.581-0.527-3.426-0.791-5.138-0.791c-9.486,0-17.128,7.642-17.128,17.128 c0,1.186,0.132,2.372,0.395,3.426C6.719,34.783,0,42.424,0,51.515C0,61.66,8.169,69.829,18.314,69.829h63.373 C91.831,69.829,100,61.66,100,51.515C99.868,42.556,93.281,35.046,84.717,33.597z" fill="rgba(255, 255, 255, 0.28025821808845774)" transform="scale(0.765)" style="animation-play-state: running; animation-delay: 0s;"></path>
</g><g transform="translate(-100 339.1540696492595) rotate(0)" style="animation-play-state: running; animation-delay: 0s;">
  <animateTransform attributeName="transform" type="translate" keyTimes="0;1" values="-100 339.1540696492595;1536 339.1540696492595" dur="100s" repeatCount="indefinite" begin="-134.60477168446997s" style="animation-play-state: running; animation-delay: 0s;"></animateTransform>
  <path d="M84.717,33.597c0.791-2.503,1.186-5.138,1.186-7.773C85.903,11.594,74.308,0,60.079,0 c-9.881,0-18.445,5.534-22.793,13.702c-1.581-0.527-3.426-0.791-5.138-0.791c-9.486,0-17.128,7.642-17.128,17.128 c0,1.186,0.132,2.372,0.395,3.426C6.719,34.783,0,42.424,0,51.515C0,61.66,8.169,69.829,18.314,69.829h63.373 C91.831,69.829,100,61.66,100,51.515C99.868,42.556,93.281,35.046,84.717,33.597z" fill="rgba(255, 255, 255, 0.28025821808845774)" transform="scale(0.765)" style="animation-play-state: running; animation-delay: 0s;"></path>
</g><g transform="translate(-100 255.8931853602111) rotate(0)" style="animation-play-state: running; animation-delay: 0s;">
  <animateTransform attributeName="transform" type="translate" keyTimes="0;1" values="-100 255.8931853602111;1536 255.8931853602111" dur="100s" repeatCount="indefinite" begin="-112.28590208240222s" style="animation-play-state: running; animation-delay: 0s;"></animateTransform>
  <path d="M84.717,33.597c0.791-2.503,1.186-5.138,1.186-7.773C85.903,11.594,74.308,0,60.079,0 c-9.881,0-18.445,5.534-22.793,13.702c-1.581-0.527-3.426-0.791-5.138-0.791c-9.486,0-17.128,7.642-17.128,17.128 c0,1.186,0.132,2.372,0.395,3.426C6.719,34.783,0,42.424,0,51.515C0,61.66,8.169,69.829,18.314,69.829h63.373 C91.831,69.829,100,61.66,100,51.515C99.868,42.556,93.281,35.046,84.717,33.597z" fill="rgba(255, 255, 255, 0.28025821808845774)" transform="scale(0.765)" style="animation-play-state: running; animation-delay: 0s;"></path>
</g><g transform="translate(-100 102.306153457527) rotate(0)" style="animation-play-state: running; animation-delay: 0s;">
  <animateTransform attributeName="transform" type="translate" keyTimes="0;1" values="-100 102.306153457527;1536 102.306153457527" dur="100s" repeatCount="indefinite" begin="-39.314478060178494s" style="animation-play-state: running; animation-delay: 0s;"></animateTransform>
  <path d="M84.717,33.597c0.791-2.503,1.186-5.138,1.186-7.773C85.903,11.594,74.308,0,60.079,0 c-9.881,0-18.445,5.534-22.793,13.702c-1.581-0.527-3.426-0.791-5.138-0.791c-9.486,0-17.128,7.642-17.128,17.128 c0,1.186,0.132,2.372,0.395,3.426C6.719,34.783,0,42.424,0,51.515C0,61.66,8.169,69.829,18.314,69.829h63.373 C91.831,69.829,100,61.66,100,51.515C99.868,42.556,93.281,35.046,84.717,33.597z" fill="rgba(255, 255, 255, 0.28025821808845774)" transform="scale(0.765)" style="animation-play-state: running; animation-delay: 0s;"></path>
</g><g transform="translate(-100 211.80979780063876) rotate(0)" style="animation-play-state: running; animation-delay: 0s;">
  <animateTransform attributeName="transform" type="translate" keyTimes="0;1" values="-100 211.80979780063876;1536 211.80979780063876" dur="100s" repeatCount="indefinite" begin="-33.98061662016896s" style="animation-play-state: running; animation-delay: 0s;"></animateTransform>
  <path d="M84.717,33.597c0.791-2.503,1.186-5.138,1.186-7.773C85.903,11.594,74.308,0,60.079,0 c-9.881,0-18.445,5.534-22.793,13.702c-1.581-0.527-3.426-0.791-5.138-0.791c-9.486,0-17.128,7.642-17.128,17.128 c0,1.186,0.132,2.372,0.395,3.426C6.719,34.783,0,42.424,0,51.515C0,61.66,8.169,69.829,18.314,69.829h63.373 C91.831,69.829,100,61.66,100,51.515C99.868,42.556,93.281,35.046,84.717,33.597z" fill="rgba(255, 255, 255, 0.28025821808845774)" transform="scale(0.765)" style="animation-play-state: running; animation-delay: 0s;"></path>
</g><g transform="translate(-100 560.3365040569095) rotate(0)" style="animation-play-state: running; animation-delay: 0s;">
  <animateTransform attributeName="transform" type="translate" keyTimes="0;1" values="-100 560.3365040569095;1536 560.3365040569095" dur="100s" repeatCount="indefinite" begin="-143.38526313188243s" style="animation-play-state: running; animation-delay: 0s;"></animateTransform>
  <path d="M84.717,33.597c0.791-2.503,1.186-5.138,1.186-7.773C85.903,11.594,74.308,0,60.079,0 c-9.881,0-18.445,5.534-22.793,13.702c-1.581-0.527-3.426-0.791-5.138-0.791c-9.486,0-17.128,7.642-17.128,17.128 c0,1.186,0.132,2.372,0.395,3.426C6.719,34.783,0,42.424,0,51.515C0,61.66,8.169,69.829,18.314,69.829h63.373 C91.831,69.829,100,61.66,100,51.515C99.868,42.556,93.281,35.046,84.717,33.597z" fill="rgba(255, 255, 255, 0.28025821808845774)" transform="scale(0.765)" style="animation-play-state: running; animation-delay: 0s;"></path>
</g><g transform="translate(-100 168.93001595200917) rotate(0)" style="animation-play-state: running; animation-delay: 0s;">
  <animateTransform attributeName="transform" type="translate" keyTimes="0;1" values="-100 168.93001595200917;1536 168.93001595200917" dur="66.66666666666667s" repeatCount="indefinite" begin="-157.1122332737351s" style="animation-play-state: running; animation-delay: 0s;"></animateTransform>
  <path d="M84.717,33.597c0.791-2.503,1.186-5.138,1.186-7.773C85.903,11.594,74.308,0,60.079,0 c-9.881,0-18.445,5.534-22.793,13.702c-1.581-0.527-3.426-0.791-5.138-0.791c-9.486,0-17.128,7.642-17.128,17.128 c0,1.186,0.132,2.372,0.395,3.426C6.719,34.783,0,42.424,0,51.515C0,61.66,8.169,69.829,18.314,69.829h63.373 C91.831,69.829,100,61.66,100,51.515C99.868,42.556,93.281,35.046,84.717,33.597z" fill="rgba(255, 255, 255, 0.30541950841103827)" transform="scale(0.8825)" style="animation-play-state: running; animation-delay: 0s;"></path>
</g><g transform="translate(-100 214.7770114555715) rotate(0)" style="animation-play-state: running; animation-delay: 0s;">
  <animateTransform attributeName="transform" type="translate" keyTimes="0;1" values="-100 214.7770114555715;1536 214.7770114555715" dur="66.66666666666667s" repeatCount="indefinite" begin="-2.175643346888023s" style="animation-play-state: running; animation-delay: 0s;"></animateTransform>
  <path d="M84.717,33.597c0.791-2.503,1.186-5.138,1.186-7.773C85.903,11.594,74.308,0,60.079,0 c-9.881,0-18.445,5.534-22.793,13.702c-1.581-0.527-3.426-0.791-5.138-0.791c-9.486,0-17.128,7.642-17.128,17.128 c0,1.186,0.132,2.372,0.395,3.426C6.719,34.783,0,42.424,0,51.515C0,61.66,8.169,69.829,18.314,69.829h63.373 C91.831,69.829,100,61.66,100,51.515C99.868,42.556,93.281,35.046,84.717,33.597z" fill="rgba(255, 255, 255, 0.30541950841103827)" transform="scale(0.8825)" style="animation-play-state: running; animation-delay: 0s;"></path>
</g><g transform="translate(-100 467.1213872028359) rotate(0)" style="animation-play-state: running; animation-delay: 0s;">
  <animateTransform attributeName="transform" type="translate" keyTimes="0;1" values="-100 467.1213872028359;1536 467.1213872028359" dur="66.66666666666667s" repeatCount="indefinite" begin="-167.21677821221007s" style="animation-play-state: running; animation-delay: 0s;"></animateTransform>
  <path d="M84.717,33.597c0.791-2.503,1.186-5.138,1.186-7.773C85.903,11.594,74.308,0,60.079,0 c-9.881,0-18.445,5.534-22.793,13.702c-1.581-0.527-3.426-0.791-5.138-0.791c-9.486,0-17.128,7.642-17.128,17.128 c0,1.186,0.132,2.372,0.395,3.426C6.719,34.783,0,42.424,0,51.515C0,61.66,8.169,69.829,18.314,69.829h63.373 C91.831,69.829,100,61.66,100,51.515C99.868,42.556,93.281,35.046,84.717,33.597z" fill="rgba(255, 255, 255, 0.30541950841103827)" transform="scale(0.8825)" style="animation-play-state: running; animation-delay: 0s;"></path>
</g><g transform="translate(-100 355.3998954888454) rotate(0)" style="animation-play-state: running; animation-delay: 0s;">
  <animateTransform attributeName="transform" type="translate" keyTimes="0;1" values="-100 355.3998954888454;1536 355.3998954888454" dur="66.66666666666667s" repeatCount="indefinite" begin="-161.99071697081004s" style="animation-play-state: running; animation-delay: 0s;"></animateTransform>
  <path d="M84.717,33.597c0.791-2.503,1.186-5.138,1.186-7.773C85.903,11.594,74.308,0,60.079,0 c-9.881,0-18.445,5.534-22.793,13.702c-1.581-0.527-3.426-0.791-5.138-0.791c-9.486,0-17.128,7.642-17.128,17.128 c0,1.186,0.132,2.372,0.395,3.426C6.719,34.783,0,42.424,0,51.515C0,61.66,8.169,69.829,18.314,69.829h63.373 C91.831,69.829,100,61.66,100,51.515C99.868,42.556,93.281,35.046,84.717,33.597z" fill="rgba(255, 255, 255, 0.30541950841103827)" transform="scale(0.8825)" style="animation-play-state: running; animation-delay: 0s;"></path>
</g><g transform="translate(-100 487.57530579859275) rotate(0)" style="animation-play-state: running; animation-delay: 0s;">
  <animateTransform attributeName="transform" type="translate" keyTimes="0;1" values="-100 487.57530579859275;1536 487.57530579859275" dur="66.66666666666667s" repeatCount="indefinite" begin="-14.800015838589609s" style="animation-play-state: running; animation-delay: 0s;"></animateTransform>
  <path d="M84.717,33.597c0.791-2.503,1.186-5.138,1.186-7.773C85.903,11.594,74.308,0,60.079,0 c-9.881,0-18.445,5.534-22.793,13.702c-1.581-0.527-3.426-0.791-5.138-0.791c-9.486,0-17.128,7.642-17.128,17.128 c0,1.186,0.132,2.372,0.395,3.426C6.719,34.783,0,42.424,0,51.515C0,61.66,8.169,69.829,18.314,69.829h63.373 C91.831,69.829,100,61.66,100,51.515C99.868,42.556,93.281,35.046,84.717,33.597z" fill="rgba(255, 255, 255, 0.30541950841103827)" transform="scale(0.8825)" style="animation-play-state: running; animation-delay: 0s;"></path>
</g><g transform="translate(-100 521.6491113157321) rotate(0)" style="animation-play-state: running; animation-delay: 0s;">
  <animateTransform attributeName="transform" type="translate" keyTimes="0;1" values="-100 521.6491113157321;1536 521.6491113157321" dur="66.66666666666667s" repeatCount="indefinite" begin="-89.8894848309594s" style="animation-play-state: running; animation-delay: 0s;"></animateTransform>
  <path d="M84.717,33.597c0.791-2.503,1.186-5.138,1.186-7.773C85.903,11.594,74.308,0,60.079,0 c-9.881,0-18.445,5.534-22.793,13.702c-1.581-0.527-3.426-0.791-5.138-0.791c-9.486,0-17.128,7.642-17.128,17.128 c0,1.186,0.132,2.372,0.395,3.426C6.719,34.783,0,42.424,0,51.515C0,61.66,8.169,69.829,18.314,69.829h63.373 C91.831,69.829,100,61.66,100,51.515C99.868,42.556,93.281,35.046,84.717,33.597z" fill="rgba(255, 255, 255, 0.30541950841103827)" transform="scale(0.8825)" style="animation-play-state: running; animation-delay: 0s;"></path>
</g><g transform="translate(-100 357.70342325514264) rotate(0)" style="animation-play-state: running; animation-delay: 0s;">
  <animateTransform attributeName="transform" type="translate" keyTimes="0;1" values="-100 357.70342325514264;1536 357.70342325514264" dur="66.66666666666667s" repeatCount="indefinite" begin="-121.31939880666165s" style="animation-play-state: running; animation-delay: 0s;"></animateTransform>
  <path d="M84.717,33.597c0.791-2.503,1.186-5.138,1.186-7.773C85.903,11.594,74.308,0,60.079,0 c-9.881,0-18.445,5.534-22.793,13.702c-1.581-0.527-3.426-0.791-5.138-0.791c-9.486,0-17.128,7.642-17.128,17.128 c0,1.186,0.132,2.372,0.395,3.426C6.719,34.783,0,42.424,0,51.515C0,61.66,8.169,69.829,18.314,69.829h63.373 C91.831,69.829,100,61.66,100,51.515C99.868,42.556,93.281,35.046,84.717,33.597z" fill="rgba(255, 255, 255, 0.30541950841103827)" transform="scale(0.8825)" style="animation-play-state: running; animation-delay: 0s;"></path>
</g><g transform="translate(-100 227.84898517486099) rotate(0)" style="animation-play-state: running; animation-delay: 0s;">
  <animateTransform attributeName="transform" type="translate" keyTimes="0;1" values="-100 227.84898517486099;1536 227.84898517486099" dur="66.66666666666667s" repeatCount="indefinite" begin="-13.937261405543433s" style="animation-play-state: running; animation-delay: 0s;"></animateTransform>
  <path d="M84.717,33.597c0.791-2.503,1.186-5.138,1.186-7.773C85.903,11.594,74.308,0,60.079,0 c-9.881,0-18.445,5.534-22.793,13.702c-1.581-0.527-3.426-0.791-5.138-0.791c-9.486,0-17.128,7.642-17.128,17.128 c0,1.186,0.132,2.372,0.395,3.426C6.719,34.783,0,42.424,0,51.515C0,61.66,8.169,69.829,18.314,69.829h63.373 C91.831,69.829,100,61.66,100,51.515C99.868,42.556,93.281,35.046,84.717,33.597z" fill="rgba(255, 255, 255, 0.30541950841103827)" transform="scale(0.8825)" style="animation-play-state: running; animation-delay: 0s;"></path>
</g><g transform="translate(-100 202.77427594556661) rotate(0)" style="animation-play-state: running; animation-delay: 0s;">
  <animateTransform attributeName="transform" type="translate" keyTimes="0;1" values="-100 202.77427594556661;1536 202.77427594556661" dur="66.66666666666667s" repeatCount="indefinite" begin="-190.31018909547205s" style="animation-play-state: running; animation-delay: 0s;"></animateTransform>
  <path d="M84.717,33.597c0.791-2.503,1.186-5.138,1.186-7.773C85.903,11.594,74.308,0,60.079,0 c-9.881,0-18.445,5.534-22.793,13.702c-1.581-0.527-3.426-0.791-5.138-0.791c-9.486,0-17.128,7.642-17.128,17.128 c0,1.186,0.132,2.372,0.395,3.426C6.719,34.783,0,42.424,0,51.515C0,61.66,8.169,69.829,18.314,69.829h63.373 C91.831,69.829,100,61.66,100,51.515C99.868,42.556,93.281,35.046,84.717,33.597z" fill="rgba(255, 255, 255, 0.30541950841103827)" transform="scale(0.8825)" style="animation-play-state: running; animation-delay: 0s;"></path>
</g><g transform="translate(-100 357.9940772313513) rotate(0)" style="animation-play-state: running; animation-delay: 0s;">
  <animateTransform attributeName="transform" type="translate" keyTimes="0;1" values="-100 357.9940772313513;1536 357.9940772313513" dur="66.66666666666667s" repeatCount="indefinite" begin="-134.33568489802346s" style="animation-play-state: running; animation-delay: 0s;"></animateTransform>
  <path d="M84.717,33.597c0.791-2.503,1.186-5.138,1.186-7.773C85.903,11.594,74.308,0,60.079,0 c-9.881,0-18.445,5.534-22.793,13.702c-1.581-0.527-3.426-0.791-5.138-0.791c-9.486,0-17.128,7.642-17.128,17.128 c0,1.186,0.132,2.372,0.395,3.426C6.719,34.783,0,42.424,0,51.515C0,61.66,8.169,69.829,18.314,69.829h63.373 C91.831,69.829,100,61.66,100,51.515C99.868,42.556,93.281,35.046,84.717,33.597z" fill="rgba(255, 255, 255, 0.30541950841103827)" transform="scale(0.8825)" style="animation-play-state: running; animation-delay: 0s;"></path>
</g><g transform="translate(-100 312.49854502497305) rotate(0)" style="animation-play-state: running; animation-delay: 0s;">
  <animateTransform attributeName="transform" type="translate" keyTimes="0;1" values="-100 312.49854502497305;1536 312.49854502497305" dur="66.66666666666667s" repeatCount="indefinite" begin="-182.6487852776749s" style="animation-play-state: running; animation-delay: 0s;"></animateTransform>
  <path d="M84.717,33.597c0.791-2.503,1.186-5.138,1.186-7.773C85.903,11.594,74.308,0,60.079,0 c-9.881,0-18.445,5.534-22.793,13.702c-1.581-0.527-3.426-0.791-5.138-0.791c-9.486,0-17.128,7.642-17.128,17.128 c0,1.186,0.132,2.372,0.395,3.426C6.719,34.783,0,42.424,0,51.515C0,61.66,8.169,69.829,18.314,69.829h63.373 C91.831,69.829,100,61.66,100,51.515C99.868,42.556,93.281,35.046,84.717,33.597z" fill="rgba(255, 255, 255, 0.30541950841103827)" transform="scale(0.8825)" style="animation-play-state: running; animation-delay: 0s;"></path>
</g><g transform="translate(-100 392.3065784392515) rotate(0)" style="animation-play-state: running; animation-delay: 0s;">
  <animateTransform attributeName="transform" type="translate" keyTimes="0;1" values="-100 392.3065784392515;1536 392.3065784392515" dur="66.66666666666667s" repeatCount="indefinite" begin="-100.21617349728338s" style="animation-play-state: running; animation-delay: 0s;"></animateTransform>
  <path d="M84.717,33.597c0.791-2.503,1.186-5.138,1.186-7.773C85.903,11.594,74.308,0,60.079,0 c-9.881,0-18.445,5.534-22.793,13.702c-1.581-0.527-3.426-0.791-5.138-0.791c-9.486,0-17.128,7.642-17.128,17.128 c0,1.186,0.132,2.372,0.395,3.426C6.719,34.783,0,42.424,0,51.515C0,61.66,8.169,69.829,18.314,69.829h63.373 C91.831,69.829,100,61.66,100,51.515C99.868,42.556,93.281,35.046,84.717,33.597z" fill="rgba(255, 255, 255, 0.30541950841103827)" transform="scale(0.8825)" style="animation-play-state: running; animation-delay: 0s;"></path>
</g><g transform="translate(-100 350.2266527724774) rotate(0)" style="animation-play-state: running; animation-delay: 0s;">
  <animateTransform attributeName="transform" type="translate" keyTimes="0;1" values="-100 350.2266527724774;1536 350.2266527724774" dur="50s" repeatCount="indefinite" begin="-27.29934309025337s" style="animation-play-state: running; animation-delay: 0s;"></animateTransform>
  <path d="M84.717,33.597c0.791-2.503,1.186-5.138,1.186-7.773C85.903,11.594,74.308,0,60.079,0 c-9.881,0-18.445,5.534-22.793,13.702c-1.581-0.527-3.426-0.791-5.138-0.791c-9.486,0-17.128,7.642-17.128,17.128 c0,1.186,0.132,2.372,0.395,3.426C6.719,34.783,0,42.424,0,51.515C0,61.66,8.169,69.829,18.314,69.829h63.373 C91.831,69.829,100,61.66,100,51.515C99.868,42.556,93.281,35.046,84.717,33.597z" fill="rgba(255, 255, 255, 0.46477434712071575)" transform="scale(1)" style="animation-play-state: running; animation-delay: 0s;"></path>
</g><g transform="translate(-100 167.54384197177603) rotate(0)" style="animation-play-state: running; animation-delay: 0s;">
  <animateTransform attributeName="transform" type="translate" keyTimes="0;1" values="-100 167.54384197177603;1536 167.54384197177603" dur="50s" repeatCount="indefinite" begin="-119.89049584491798s" style="animation-play-state: running; animation-delay: 0s;"></animateTransform>
  <path d="M84.717,33.597c0.791-2.503,1.186-5.138,1.186-7.773C85.903,11.594,74.308,0,60.079,0 c-9.881,0-18.445,5.534-22.793,13.702c-1.581-0.527-3.426-0.791-5.138-0.791c-9.486,0-17.128,7.642-17.128,17.128 c0,1.186,0.132,2.372,0.395,3.426C6.719,34.783,0,42.424,0,51.515C0,61.66,8.169,69.829,18.314,69.829h63.373 C91.831,69.829,100,61.66,100,51.515C99.868,42.556,93.281,35.046,84.717,33.597z" fill="rgba(255, 255, 255, 0.46477434712071575)" transform="scale(1)" style="animation-play-state: running; animation-delay: 0s;"></path>
</g><g transform="translate(-100 244.73425664175164) rotate(0)" style="animation-play-state: running; animation-delay: 0s;">
  <animateTransform attributeName="transform" type="translate" keyTimes="0;1" values="-100 244.73425664175164;1536 244.73425664175164" dur="50s" repeatCount="indefinite" begin="-129.11621615683833s" style="animation-play-state: running; animation-delay: 0s;"></animateTransform>
  <path d="M84.717,33.597c0.791-2.503,1.186-5.138,1.186-7.773C85.903,11.594,74.308,0,60.079,0 c-9.881,0-18.445,5.534-22.793,13.702c-1.581-0.527-3.426-0.791-5.138-0.791c-9.486,0-17.128,7.642-17.128,17.128 c0,1.186,0.132,2.372,0.395,3.426C6.719,34.783,0,42.424,0,51.515C0,61.66,8.169,69.829,18.314,69.829h63.373 C91.831,69.829,100,61.66,100,51.515C99.868,42.556,93.281,35.046,84.717,33.597z" fill="rgba(255, 255, 255, 0.46477434712071575)" transform="scale(1)" style="animation-play-state: running; animation-delay: 0s;"></path>
</g><g transform="translate(-100 415.02613692317965) rotate(0)" style="animation-play-state: running; animation-delay: 0s;">
  <animateTransform attributeName="transform" type="translate" keyTimes="0;1" values="-100 415.02613692317965;1536 415.02613692317965" dur="50s" repeatCount="indefinite" begin="-8.402229515362203s" style="animation-play-state: running; animation-delay: 0s;"></animateTransform>
  <path d="M84.717,33.597c0.791-2.503,1.186-5.138,1.186-7.773C85.903,11.594,74.308,0,60.079,0 c-9.881,0-18.445,5.534-22.793,13.702c-1.581-0.527-3.426-0.791-5.138-0.791c-9.486,0-17.128,7.642-17.128,17.128 c0,1.186,0.132,2.372,0.395,3.426C6.719,34.783,0,42.424,0,51.515C0,61.66,8.169,69.829,18.314,69.829h63.373 C91.831,69.829,100,61.66,100,51.515C99.868,42.556,93.281,35.046,84.717,33.597z" fill="rgba(255, 255, 255, 0.46477434712071575)" transform="scale(1)" style="animation-play-state: running; animation-delay: 0s;"></path>
</g><g transform="translate(-100 290.07714013842707) rotate(0)" style="animation-play-state: running; animation-delay: 0s;">
  <animateTransform attributeName="transform" type="translate" keyTimes="0;1" values="-100 290.07714013842707;1536 290.07714013842707" dur="50s" repeatCount="indefinite" begin="-25.47155674608339s" style="animation-play-state: running; animation-delay: 0s;"></animateTransform>
  <path d="M84.717,33.597c0.791-2.503,1.186-5.138,1.186-7.773C85.903,11.594,74.308,0,60.079,0 c-9.881,0-18.445,5.534-22.793,13.702c-1.581-0.527-3.426-0.791-5.138-0.791c-9.486,0-17.128,7.642-17.128,17.128 c0,1.186,0.132,2.372,0.395,3.426C6.719,34.783,0,42.424,0,51.515C0,61.66,8.169,69.829,18.314,69.829h63.373 C91.831,69.829,100,61.66,100,51.515C99.868,42.556,93.281,35.046,84.717,33.597z" fill="rgba(255, 255, 255, 0.46477434712071575)" transform="scale(1)" style="animation-play-state: running; animation-delay: 0s;"></path>
</g><g transform="translate(-100 171.12700401742637) rotate(0)" style="animation-play-state: running; animation-delay: 0s;">
  <animateTransform attributeName="transform" type="translate" keyTimes="0;1" values="-100 171.12700401742637;1536 171.12700401742637" dur="50s" repeatCount="indefinite" begin="-196.18404395002273s" style="animation-play-state: running; animation-delay: 0s;"></animateTransform>
  <path d="M84.717,33.597c0.791-2.503,1.186-5.138,1.186-7.773C85.903,11.594,74.308,0,60.079,0 c-9.881,0-18.445,5.534-22.793,13.702c-1.581-0.527-3.426-0.791-5.138-0.791c-9.486,0-17.128,7.642-17.128,17.128 c0,1.186,0.132,2.372,0.395,3.426C6.719,34.783,0,42.424,0,51.515C0,61.66,8.169,69.829,18.314,69.829h63.373 C91.831,69.829,100,61.66,100,51.515C99.868,42.556,93.281,35.046,84.717,33.597z" fill="rgba(255, 255, 255, 0.46477434712071575)" transform="scale(1)" style="animation-play-state: running; animation-delay: 0s;"></path>
</g><g transform="translate(-100 99.77150732237396) rotate(0)" style="animation-play-state: running; animation-delay: 0s;">
  <animateTransform attributeName="transform" type="translate" keyTimes="0;1" values="-100 99.77150732237396;1536 99.77150732237396" dur="50s" repeatCount="indefinite" begin="-9.39992284143436s" style="animation-play-state: running; animation-delay: 0s;"></animateTransform>
  <path d="M84.717,33.597c0.791-2.503,1.186-5.138,1.186-7.773C85.903,11.594,74.308,0,60.079,0 c-9.881,0-18.445,5.534-22.793,13.702c-1.581-0.527-3.426-0.791-5.138-0.791c-9.486,0-17.128,7.642-17.128,17.128 c0,1.186,0.132,2.372,0.395,3.426C6.719,34.783,0,42.424,0,51.515C0,61.66,8.169,69.829,18.314,69.829h63.373 C91.831,69.829,100,61.66,100,51.515C99.868,42.556,93.281,35.046,84.717,33.597z" fill="rgba(255, 255, 255, 0.46477434712071575)" transform="scale(1)" style="animation-play-state: running; animation-delay: 0s;"></path>
</g><g transform="translate(-100 583.165565745177) rotate(0)" style="animation-play-state: running; animation-delay: 0s;">
  <animateTransform attributeName="transform" type="translate" keyTimes="0;1" values="-100 583.165565745177;1536 583.165565745177" dur="50s" repeatCount="indefinite" begin="-90.85514701793231s" style="animation-play-state: running; animation-delay: 0s;"></animateTransform>
  <path d="M84.717,33.597c0.791-2.503,1.186-5.138,1.186-7.773C85.903,11.594,74.308,0,60.079,0 c-9.881,0-18.445,5.534-22.793,13.702c-1.581-0.527-3.426-0.791-5.138-0.791c-9.486,0-17.128,7.642-17.128,17.128 c0,1.186,0.132,2.372,0.395,3.426C6.719,34.783,0,42.424,0,51.515C0,61.66,8.169,69.829,18.314,69.829h63.373 C91.831,69.829,100,61.66,100,51.515C99.868,42.556,93.281,35.046,84.717,33.597z" fill="rgba(255, 255, 255, 0.46477434712071575)" transform="scale(1)" style="animation-play-state: running; animation-delay: 0s;"></path>
</g><g transform="translate(-100 189.94286102075884) rotate(0)" style="animation-play-state: running; animation-delay: 0s;">
  <animateTransform attributeName="transform" type="translate" keyTimes="0;1" values="-100 189.94286102075884;1536 189.94286102075884" dur="50s" repeatCount="indefinite" begin="-156.94486679557426s" style="animation-play-state: running; animation-delay: 0s;"></animateTransform>
  <path d="M84.717,33.597c0.791-2.503,1.186-5.138,1.186-7.773C85.903,11.594,74.308,0,60.079,0 c-9.881,0-18.445,5.534-22.793,13.702c-1.581-0.527-3.426-0.791-5.138-0.791c-9.486,0-17.128,7.642-17.128,17.128 c0,1.186,0.132,2.372,0.395,3.426C6.719,34.783,0,42.424,0,51.515C0,61.66,8.169,69.829,18.314,69.829h63.373 C91.831,69.829,100,61.66,100,51.515C99.868,42.556,93.281,35.046,84.717,33.597z" fill="rgba(255, 255, 255, 0.46477434712071575)" transform="scale(1)" style="animation-play-state: running; animation-delay: 0s;"></path>
</g><g transform="translate(-100 345.90246496589117) rotate(0)" style="animation-play-state: running; animation-delay: 0s;">
  <animateTransform attributeName="transform" type="translate" keyTimes="0;1" values="-100 345.90246496589117;1536 345.90246496589117" dur="50s" repeatCount="indefinite" begin="-185.96288548396157s" style="animation-play-state: running; animation-delay: 0s;"></animateTransform>
  <path d="M84.717,33.597c0.791-2.503,1.186-5.138,1.186-7.773C85.903,11.594,74.308,0,60.079,0 c-9.881,0-18.445,5.534-22.793,13.702c-1.581-0.527-3.426-0.791-5.138-0.791c-9.486,0-17.128,7.642-17.128,17.128 c0,1.186,0.132,2.372,0.395,3.426C6.719,34.783,0,42.424,0,51.515C0,61.66,8.169,69.829,18.314,69.829h63.373 C91.831,69.829,100,61.66,100,51.515C99.868,42.556,93.281,35.046,84.717,33.597z" fill="rgba(255, 255, 255, 0.46477434712071575)" transform="scale(1)" style="animation-play-state: running; animation-delay: 0s;"></path>
</g><g transform="translate(-100 579.9916147721218) rotate(0)" style="animation-play-state: running; animation-delay: 0s;">
  <animateTransform attributeName="transform" type="translate" keyTimes="0;1" values="-100 579.9916147721218;1536 579.9916147721218" dur="50s" repeatCount="indefinite" begin="-57.568396035408355s" style="animation-play-state: running; animation-delay: 0s;"></animateTransform>
  <path d="M84.717,33.597c0.791-2.503,1.186-5.138,1.186-7.773C85.903,11.594,74.308,0,60.079,0 c-9.881,0-18.445,5.534-22.793,13.702c-1.581-0.527-3.426-0.791-5.138-0.791c-9.486,0-17.128,7.642-17.128,17.128 c0,1.186,0.132,2.372,0.395,3.426C6.719,34.783,0,42.424,0,51.515C0,61.66,8.169,69.829,18.314,69.829h63.373 C91.831,69.829,100,61.66,100,51.515C99.868,42.556,93.281,35.046,84.717,33.597z" fill="rgba(255, 255, 255, 0.46477434712071575)" transform="scale(1)" style="animation-play-state: running; animation-delay: 0s;"></path>
</g><g transform="translate(-100 396.7102872575316) rotate(0)" style="animation-play-state: running; animation-delay: 0s;">
  <animateTransform attributeName="transform" type="translate" keyTimes="0;1" values="-100 396.7102872575316;1536 396.7102872575316" dur="50s" repeatCount="indefinite" begin="-134.60344944654173s" style="animation-play-state: running; animation-delay: 0s;"></animateTransform>
  <path d="M84.717,33.597c0.791-2.503,1.186-5.138,1.186-7.773C85.903,11.594,74.308,0,60.079,0 c-9.881,0-18.445,5.534-22.793,13.702c-1.581-0.527-3.426-0.791-5.138-0.791c-9.486,0-17.128,7.642-17.128,17.128 c0,1.186,0.132,2.372,0.395,3.426C6.719,34.783,0,42.424,0,51.515C0,61.66,8.169,69.829,18.314,69.829h63.373 C91.831,69.829,100,61.66,100,51.515C99.868,42.556,93.281,35.046,84.717,33.597z" fill="rgba(255, 255, 255, 0.46477434712071575)" transform="scale(1)" style="animation-play-state: running; animation-delay: 0s;"></path>
</g></g>
</svg>