<?xml version="1.0" encoding="utf-8"?>
<svg xmlns="http://www.w3.org/2000/svg" xmlns:xlink="http://www.w3.org/1999/xlink" style="margin: auto; background: rgba(122, 206, 255, 0); display: block; z-index: 1; position: relative; shape-rendering: auto;" width="3000" height="586" preserveAspectRatio="xMidYMid" viewBox="0 0 3000 586">
<g transform="translate(1500,293) scale(1,1) translate(-1500,-293)"><g transform="translate(-100 55.07326045870502) rotate(0)">
  <animateTransform attributeName="transform" type="translate" keyTimes="0;1" values="-100 55.07326045870502;3000 55.07326045870502" dur="250s" repeatCount="indefinite" begin="-56.344025174462686s"></animateTransform>
  <path d="M84.717,33.597c0.791-2.503,1.186-5.138,1.186-7.773C85.903,11.594,74.308,0,60.079,0 c-9.881,0-18.445,5.534-22.793,13.702c-1.581-0.527-3.426-0.791-5.138-0.791c-9.486,0-17.128,7.642-17.128,17.128 c0,1.186,0.132,2.372,0.395,3.426C6.719,34.783,0,42.424,0,51.515C0,61.66,8.169,69.829,18.314,69.829h63.373 C91.831,69.829,100,61.66,100,51.515C99.868,42.556,93.281,35.046,84.717,33.597z" fill="rgba(189, 222, 255, 0.37587107012348786)" transform="scale(0.55)"></path>
</g><g transform="translate(-100 365.30540575430683) rotate(0)">
  <animateTransform attributeName="transform" type="translate" keyTimes="0;1" values="-100 365.30540575430683;3000 365.30540575430683" dur="250s" repeatCount="indefinite" begin="-86.1487102423495s"></animateTransform>
  <path d="M84.717,33.597c0.791-2.503,1.186-5.138,1.186-7.773C85.903,11.594,74.308,0,60.079,0 c-9.881,0-18.445,5.534-22.793,13.702c-1.581-0.527-3.426-0.791-5.138-0.791c-9.486,0-17.128,7.642-17.128,17.128 c0,1.186,0.132,2.372,0.395,3.426C6.719,34.783,0,42.424,0,51.515C0,61.66,8.169,69.829,18.314,69.829h63.373 C91.831,69.829,100,61.66,100,51.515C99.868,42.556,93.281,35.046,84.717,33.597z" fill="rgba(189, 222, 255, 0.37587107012348786)" transform="scale(0.55)"></path>
</g><g transform="translate(-100 466.4530265415619) rotate(0)">
  <animateTransform attributeName="transform" type="translate" keyTimes="0;1" values="-100 466.4530265415619;3000 466.4530265415619" dur="250s" repeatCount="indefinite" begin="-19.61441203162745s"></animateTransform>
  <path d="M84.717,33.597c0.791-2.503,1.186-5.138,1.186-7.773C85.903,11.594,74.308,0,60.079,0 c-9.881,0-18.445,5.534-22.793,13.702c-1.581-0.527-3.426-0.791-5.138-0.791c-9.486,0-17.128,7.642-17.128,17.128 c0,1.186,0.132,2.372,0.395,3.426C6.719,34.783,0,42.424,0,51.515C0,61.66,8.169,69.829,18.314,69.829h63.373 C91.831,69.829,100,61.66,100,51.515C99.868,42.556,93.281,35.046,84.717,33.597z" fill="rgba(189, 222, 255, 0.37587107012348786)" transform="scale(0.55)"></path>
</g><g transform="translate(-100 349.1424130113768) rotate(0)">
  <animateTransform attributeName="transform" type="translate" keyTimes="0;1" values="-100 349.1424130113768;3000 349.1424130113768" dur="250s" repeatCount="indefinite" begin="-23.389575233708328s"></animateTransform>
  <path d="M84.717,33.597c0.791-2.503,1.186-5.138,1.186-7.773C85.903,11.594,74.308,0,60.079,0 c-9.881,0-18.445,5.534-22.793,13.702c-1.581-0.527-3.426-0.791-5.138-0.791c-9.486,0-17.128,7.642-17.128,17.128 c0,1.186,0.132,2.372,0.395,3.426C6.719,34.783,0,42.424,0,51.515C0,61.66,8.169,69.829,18.314,69.829h63.373 C91.831,69.829,100,61.66,100,51.515C99.868,42.556,93.281,35.046,84.717,33.597z" fill="rgba(189, 222, 255, 0.37587107012348786)" transform="scale(0.55)"></path>
</g><g transform="translate(-100 124.0338502707895) rotate(0)">
  <animateTransform attributeName="transform" type="translate" keyTimes="0;1" values="-100 124.0338502707895;3000 124.0338502707895" dur="250s" repeatCount="indefinite" begin="-140.04372354548212s"></animateTransform>
  <path d="M84.717,33.597c0.791-2.503,1.186-5.138,1.186-7.773C85.903,11.594,74.308,0,60.079,0 c-9.881,0-18.445,5.534-22.793,13.702c-1.581-0.527-3.426-0.791-5.138-0.791c-9.486,0-17.128,7.642-17.128,17.128 c0,1.186,0.132,2.372,0.395,3.426C6.719,34.783,0,42.424,0,51.515C0,61.66,8.169,69.829,18.314,69.829h63.373 C91.831,69.829,100,61.66,100,51.515C99.868,42.556,93.281,35.046,84.717,33.597z" fill="rgba(189, 222, 255, 0.37587107012348786)" transform="scale(0.55)"></path>
</g><g transform="translate(-100 559.1570680610387) rotate(0)">
  <animateTransform attributeName="transform" type="translate" keyTimes="0;1" values="-100 559.1570680610387;3000 559.1570680610387" dur="250s" repeatCount="indefinite" begin="-79.82729947585582s"></animateTransform>
  <path d="M84.717,33.597c0.791-2.503,1.186-5.138,1.186-7.773C85.903,11.594,74.308,0,60.079,0 c-9.881,0-18.445,5.534-22.793,13.702c-1.581-0.527-3.426-0.791-5.138-0.791c-9.486,0-17.128,7.642-17.128,17.128 c0,1.186,0.132,2.372,0.395,3.426C6.719,34.783,0,42.424,0,51.515C0,61.66,8.169,69.829,18.314,69.829h63.373 C91.831,69.829,100,61.66,100,51.515C99.868,42.556,93.281,35.046,84.717,33.597z" fill="rgba(189, 222, 255, 0.37587107012348786)" transform="scale(0.55)"></path>
</g><g transform="translate(-100 26.352263013750935) rotate(0)">
  <animateTransform attributeName="transform" type="translate" keyTimes="0;1" values="-100 26.352263013750935;3000 26.352263013750935" dur="250s" repeatCount="indefinite" begin="-168.0863184623953s"></animateTransform>
  <path d="M84.717,33.597c0.791-2.503,1.186-5.138,1.186-7.773C85.903,11.594,74.308,0,60.079,0 c-9.881,0-18.445,5.534-22.793,13.702c-1.581-0.527-3.426-0.791-5.138-0.791c-9.486,0-17.128,7.642-17.128,17.128 c0,1.186,0.132,2.372,0.395,3.426C6.719,34.783,0,42.424,0,51.515C0,61.66,8.169,69.829,18.314,69.829h63.373 C91.831,69.829,100,61.66,100,51.515C99.868,42.556,93.281,35.046,84.717,33.597z" fill="rgba(189, 222, 255, 0.37587107012348786)" transform="scale(0.55)"></path>
</g><g transform="translate(-100 415.4730001414801) rotate(0)">
  <animateTransform attributeName="transform" type="translate" keyTimes="0;1" values="-100 415.4730001414801;3000 415.4730001414801" dur="250s" repeatCount="indefinite" begin="-126.42553799835198s"></animateTransform>
  <path d="M84.717,33.597c0.791-2.503,1.186-5.138,1.186-7.773C85.903,11.594,74.308,0,60.079,0 c-9.881,0-18.445,5.534-22.793,13.702c-1.581-0.527-3.426-0.791-5.138-0.791c-9.486,0-17.128,7.642-17.128,17.128 c0,1.186,0.132,2.372,0.395,3.426C6.719,34.783,0,42.424,0,51.515C0,61.66,8.169,69.829,18.314,69.829h63.373 C91.831,69.829,100,61.66,100,51.515C99.868,42.556,93.281,35.046,84.717,33.597z" fill="rgba(189, 222, 255, 0.37587107012348786)" transform="scale(0.55)"></path>
</g><g transform="translate(-100 436.5243486406835) rotate(0)">
  <animateTransform attributeName="transform" type="translate" keyTimes="0;1" values="-100 436.5243486406835;3000 436.5243486406835" dur="250s" repeatCount="indefinite" begin="-204.38058224651783s"></animateTransform>
  <path d="M84.717,33.597c0.791-2.503,1.186-5.138,1.186-7.773C85.903,11.594,74.308,0,60.079,0 c-9.881,0-18.445,5.534-22.793,13.702c-1.581-0.527-3.426-0.791-5.138-0.791c-9.486,0-17.128,7.642-17.128,17.128 c0,1.186,0.132,2.372,0.395,3.426C6.719,34.783,0,42.424,0,51.515C0,61.66,8.169,69.829,18.314,69.829h63.373 C91.831,69.829,100,61.66,100,51.515C99.868,42.556,93.281,35.046,84.717,33.597z" fill="rgba(189, 222, 255, 0.37587107012348786)" transform="scale(0.55)"></path>
</g><g transform="translate(-100 364.08196572005755) rotate(0)">
  <animateTransform attributeName="transform" type="translate" keyTimes="0;1" values="-100 364.08196572005755;3000 364.08196572005755" dur="250s" repeatCount="indefinite" begin="-149.88010298562244s"></animateTransform>
  <path d="M84.717,33.597c0.791-2.503,1.186-5.138,1.186-7.773C85.903,11.594,74.308,0,60.079,0 c-9.881,0-18.445,5.534-22.793,13.702c-1.581-0.527-3.426-0.791-5.138-0.791c-9.486,0-17.128,7.642-17.128,17.128 c0,1.186,0.132,2.372,0.395,3.426C6.719,34.783,0,42.424,0,51.515C0,61.66,8.169,69.829,18.314,69.829h63.373 C91.831,69.829,100,61.66,100,51.515C99.868,42.556,93.281,35.046,84.717,33.597z" fill="rgba(189, 222, 255, 0.37587107012348786)" transform="scale(0.55)"></path>
</g><g transform="translate(-100 466.98450951174675) rotate(0)">
  <animateTransform attributeName="transform" type="translate" keyTimes="0;1" values="-100 466.98450951174675;3000 466.98450951174675" dur="250s" repeatCount="indefinite" begin="-217.68209443934856s"></animateTransform>
  <path d="M84.717,33.597c0.791-2.503,1.186-5.138,1.186-7.773C85.903,11.594,74.308,0,60.079,0 c-9.881,0-18.445,5.534-22.793,13.702c-1.581-0.527-3.426-0.791-5.138-0.791c-9.486,0-17.128,7.642-17.128,17.128 c0,1.186,0.132,2.372,0.395,3.426C6.719,34.783,0,42.424,0,51.515C0,61.66,8.169,69.829,18.314,69.829h63.373 C91.831,69.829,100,61.66,100,51.515C99.868,42.556,93.281,35.046,84.717,33.597z" fill="rgba(189, 222, 255, 0.37587107012348786)" transform="scale(0.55)"></path>
</g><g transform="translate(-100 445.706794788759) rotate(0)">
  <animateTransform attributeName="transform" type="translate" keyTimes="0;1" values="-100 445.706794788759;3000 445.706794788759" dur="125s" repeatCount="indefinite" begin="-159.88315727960716s"></animateTransform>
  <path d="M84.717,33.597c0.791-2.503,1.186-5.138,1.186-7.773C85.903,11.594,74.308,0,60.079,0 c-9.881,0-18.445,5.534-22.793,13.702c-1.581-0.527-3.426-0.791-5.138-0.791c-9.486,0-17.128,7.642-17.128,17.128 c0,1.186,0.132,2.372,0.395,3.426C6.719,34.783,0,42.424,0,51.515C0,61.66,8.169,69.829,18.314,69.829h63.373 C91.831,69.829,100,61.66,100,51.515C99.868,42.556,93.281,35.046,84.717,33.597z" fill="rgba(255, 255, 255, 0.2081291346396169)" transform="scale(0.7)"></path>
</g><g transform="translate(-100 54.58623514992857) rotate(0)">
  <animateTransform attributeName="transform" type="translate" keyTimes="0;1" values="-100 54.58623514992857;3000 54.58623514992857" dur="125s" repeatCount="indefinite" begin="-0.7283125570574644s"></animateTransform>
  <path d="M84.717,33.597c0.791-2.503,1.186-5.138,1.186-7.773C85.903,11.594,74.308,0,60.079,0 c-9.881,0-18.445,5.534-22.793,13.702c-1.581-0.527-3.426-0.791-5.138-0.791c-9.486,0-17.128,7.642-17.128,17.128 c0,1.186,0.132,2.372,0.395,3.426C6.719,34.783,0,42.424,0,51.515C0,61.66,8.169,69.829,18.314,69.829h63.373 C91.831,69.829,100,61.66,100,51.515C99.868,42.556,93.281,35.046,84.717,33.597z" fill="rgba(255, 255, 255, 0.2081291346396169)" transform="scale(0.7)"></path>
</g><g transform="translate(-100 217.0313121894843) rotate(0)">
  <animateTransform attributeName="transform" type="translate" keyTimes="0;1" values="-100 217.0313121894843;3000 217.0313121894843" dur="125s" repeatCount="indefinite" begin="-205.54648432955625s"></animateTransform>
  <path d="M84.717,33.597c0.791-2.503,1.186-5.138,1.186-7.773C85.903,11.594,74.308,0,60.079,0 c-9.881,0-18.445,5.534-22.793,13.702c-1.581-0.527-3.426-0.791-5.138-0.791c-9.486,0-17.128,7.642-17.128,17.128 c0,1.186,0.132,2.372,0.395,3.426C6.719,34.783,0,42.424,0,51.515C0,61.66,8.169,69.829,18.314,69.829h63.373 C91.831,69.829,100,61.66,100,51.515C99.868,42.556,93.281,35.046,84.717,33.597z" fill="rgba(255, 255, 255, 0.2081291346396169)" transform="scale(0.7)"></path>
</g><g transform="translate(-100 121.6068262426324) rotate(0)">
  <animateTransform attributeName="transform" type="translate" keyTimes="0;1" values="-100 121.6068262426324;3000 121.6068262426324" dur="125s" repeatCount="indefinite" begin="-0.8964555125364204s"></animateTransform>
  <path d="M84.717,33.597c0.791-2.503,1.186-5.138,1.186-7.773C85.903,11.594,74.308,0,60.079,0 c-9.881,0-18.445,5.534-22.793,13.702c-1.581-0.527-3.426-0.791-5.138-0.791c-9.486,0-17.128,7.642-17.128,17.128 c0,1.186,0.132,2.372,0.395,3.426C6.719,34.783,0,42.424,0,51.515C0,61.66,8.169,69.829,18.314,69.829h63.373 C91.831,69.829,100,61.66,100,51.515C99.868,42.556,93.281,35.046,84.717,33.597z" fill="rgba(255, 255, 255, 0.2081291346396169)" transform="scale(0.7)"></path>
</g><g transform="translate(-100 178.09258478594506) rotate(0)">
  <animateTransform attributeName="transform" type="translate" keyTimes="0;1" values="-100 178.09258478594506;3000 178.09258478594506" dur="125s" repeatCount="indefinite" begin="-33.19994309209301s"></animateTransform>
  <path d="M84.717,33.597c0.791-2.503,1.186-5.138,1.186-7.773C85.903,11.594,74.308,0,60.079,0 c-9.881,0-18.445,5.534-22.793,13.702c-1.581-0.527-3.426-0.791-5.138-0.791c-9.486,0-17.128,7.642-17.128,17.128 c0,1.186,0.132,2.372,0.395,3.426C6.719,34.783,0,42.424,0,51.515C0,61.66,8.169,69.829,18.314,69.829h63.373 C91.831,69.829,100,61.66,100,51.515C99.868,42.556,93.281,35.046,84.717,33.597z" fill="rgba(255, 255, 255, 0.2081291346396169)" transform="scale(0.7)"></path>
</g><g transform="translate(-100 519.2621770437433) rotate(0)">
  <animateTransform attributeName="transform" type="translate" keyTimes="0;1" values="-100 519.2621770437433;3000 519.2621770437433" dur="125s" repeatCount="indefinite" begin="-211.0278014101284s"></animateTransform>
  <path d="M84.717,33.597c0.791-2.503,1.186-5.138,1.186-7.773C85.903,11.594,74.308,0,60.079,0 c-9.881,0-18.445,5.534-22.793,13.702c-1.581-0.527-3.426-0.791-5.138-0.791c-9.486,0-17.128,7.642-17.128,17.128 c0,1.186,0.132,2.372,0.395,3.426C6.719,34.783,0,42.424,0,51.515C0,61.66,8.169,69.829,18.314,69.829h63.373 C91.831,69.829,100,61.66,100,51.515C99.868,42.556,93.281,35.046,84.717,33.597z" fill="rgba(255, 255, 255, 0.2081291346396169)" transform="scale(0.7)"></path>
</g><g transform="translate(-100 503.44198774934927) rotate(0)">
  <animateTransform attributeName="transform" type="translate" keyTimes="0;1" values="-100 503.44198774934927;3000 503.44198774934927" dur="125s" repeatCount="indefinite" begin="-55.62516053386318s"></animateTransform>
  <path d="M84.717,33.597c0.791-2.503,1.186-5.138,1.186-7.773C85.903,11.594,74.308,0,60.079,0 c-9.881,0-18.445,5.534-22.793,13.702c-1.581-0.527-3.426-0.791-5.138-0.791c-9.486,0-17.128,7.642-17.128,17.128 c0,1.186,0.132,2.372,0.395,3.426C6.719,34.783,0,42.424,0,51.515C0,61.66,8.169,69.829,18.314,69.829h63.373 C91.831,69.829,100,61.66,100,51.515C99.868,42.556,93.281,35.046,84.717,33.597z" fill="rgba(255, 255, 255, 0.2081291346396169)" transform="scale(0.7)"></path>
</g><g transform="translate(-100 309.9018285440419) rotate(0)">
  <animateTransform attributeName="transform" type="translate" keyTimes="0;1" values="-100 309.9018285440419;3000 309.9018285440419" dur="125s" repeatCount="indefinite" begin="-36.019807307068774s"></animateTransform>
  <path d="M84.717,33.597c0.791-2.503,1.186-5.138,1.186-7.773C85.903,11.594,74.308,0,60.079,0 c-9.881,0-18.445,5.534-22.793,13.702c-1.581-0.527-3.426-0.791-5.138-0.791c-9.486,0-17.128,7.642-17.128,17.128 c0,1.186,0.132,2.372,0.395,3.426C6.719,34.783,0,42.424,0,51.515C0,61.66,8.169,69.829,18.314,69.829h63.373 C91.831,69.829,100,61.66,100,51.515C99.868,42.556,93.281,35.046,84.717,33.597z" fill="rgba(255, 255, 255, 0.2081291346396169)" transform="scale(0.7)"></path>
</g><g transform="translate(-100 381.3419588014597) rotate(0)">
  <animateTransform attributeName="transform" type="translate" keyTimes="0;1" values="-100 381.3419588014597;3000 381.3419588014597" dur="125s" repeatCount="indefinite" begin="-241.3819676524328s"></animateTransform>
  <path d="M84.717,33.597c0.791-2.503,1.186-5.138,1.186-7.773C85.903,11.594,74.308,0,60.079,0 c-9.881,0-18.445,5.534-22.793,13.702c-1.581-0.527-3.426-0.791-5.138-0.791c-9.486,0-17.128,7.642-17.128,17.128 c0,1.186,0.132,2.372,0.395,3.426C6.719,34.783,0,42.424,0,51.515C0,61.66,8.169,69.829,18.314,69.829h63.373 C91.831,69.829,100,61.66,100,51.515C99.868,42.556,93.281,35.046,84.717,33.597z" fill="rgba(255, 255, 255, 0.2081291346396169)" transform="scale(0.7)"></path>
</g><g transform="translate(-100 488.85514862601195) rotate(0)">
  <animateTransform attributeName="transform" type="translate" keyTimes="0;1" values="-100 488.85514862601195;3000 488.85514862601195" dur="125s" repeatCount="indefinite" begin="-80.55565762462341s"></animateTransform>
  <path d="M84.717,33.597c0.791-2.503,1.186-5.138,1.186-7.773C85.903,11.594,74.308,0,60.079,0 c-9.881,0-18.445,5.534-22.793,13.702c-1.581-0.527-3.426-0.791-5.138-0.791c-9.486,0-17.128,7.642-17.128,17.128 c0,1.186,0.132,2.372,0.395,3.426C6.719,34.783,0,42.424,0,51.515C0,61.66,8.169,69.829,18.314,69.829h63.373 C91.831,69.829,100,61.66,100,51.515C99.868,42.556,93.281,35.046,84.717,33.597z" fill="rgba(255, 255, 255, 0.2081291346396169)" transform="scale(0.7)"></path>
</g><g transform="translate(-100 426.09386589383547) rotate(0)">
  <animateTransform attributeName="transform" type="translate" keyTimes="0;1" values="-100 426.09386589383547;3000 426.09386589383547" dur="125s" repeatCount="indefinite" begin="-129.06109081789785s"></animateTransform>
  <path d="M84.717,33.597c0.791-2.503,1.186-5.138,1.186-7.773C85.903,11.594,74.308,0,60.079,0 c-9.881,0-18.445,5.534-22.793,13.702c-1.581-0.527-3.426-0.791-5.138-0.791c-9.486,0-17.128,7.642-17.128,17.128 c0,1.186,0.132,2.372,0.395,3.426C6.719,34.783,0,42.424,0,51.515C0,61.66,8.169,69.829,18.314,69.829h63.373 C91.831,69.829,100,61.66,100,51.515C99.868,42.556,93.281,35.046,84.717,33.597z" fill="rgba(255, 255, 255, 0.2081291346396169)" transform="scale(0.7)"></path>
</g><g transform="translate(-100 402.63941967814065) rotate(0)">
  <animateTransform attributeName="transform" type="translate" keyTimes="0;1" values="-100 402.63941967814065;3000 402.63941967814065" dur="83.33333333333333s" repeatCount="indefinite" begin="-68.22548042516836s"></animateTransform>
  <path d="M84.717,33.597c0.791-2.503,1.186-5.138,1.186-7.773C85.903,11.594,74.308,0,60.079,0 c-9.881,0-18.445,5.534-22.793,13.702c-1.581-0.527-3.426-0.791-5.138-0.791c-9.486,0-17.128,7.642-17.128,17.128 c0,1.186,0.132,2.372,0.395,3.426C6.719,34.783,0,42.424,0,51.515C0,61.66,8.169,69.829,18.314,69.829h63.373 C91.831,69.829,100,61.66,100,51.515C99.868,42.556,93.281,35.046,84.717,33.597z" fill="rgba(241, 242, 243, 0.317161392704133)" transform="scale(0.85)"></path>
</g><g transform="translate(-100 126.0615819748516) rotate(0)">
  <animateTransform attributeName="transform" type="translate" keyTimes="0;1" values="-100 126.0615819748516;3000 126.0615819748516" dur="83.33333333333333s" repeatCount="indefinite" begin="-179.90939552131297s"></animateTransform>
  <path d="M84.717,33.597c0.791-2.503,1.186-5.138,1.186-7.773C85.903,11.594,74.308,0,60.079,0 c-9.881,0-18.445,5.534-22.793,13.702c-1.581-0.527-3.426-0.791-5.138-0.791c-9.486,0-17.128,7.642-17.128,17.128 c0,1.186,0.132,2.372,0.395,3.426C6.719,34.783,0,42.424,0,51.515C0,61.66,8.169,69.829,18.314,69.829h63.373 C91.831,69.829,100,61.66,100,51.515C99.868,42.556,93.281,35.046,84.717,33.597z" fill="rgba(241, 242, 243, 0.317161392704133)" transform="scale(0.85)"></path>
</g><g transform="translate(-100 431.4438104650792) rotate(0)">
  <animateTransform attributeName="transform" type="translate" keyTimes="0;1" values="-100 431.4438104650792;3000 431.4438104650792" dur="83.33333333333333s" repeatCount="indefinite" begin="-53.78875814235479s"></animateTransform>
  <path d="M84.717,33.597c0.791-2.503,1.186-5.138,1.186-7.773C85.903,11.594,74.308,0,60.079,0 c-9.881,0-18.445,5.534-22.793,13.702c-1.581-0.527-3.426-0.791-5.138-0.791c-9.486,0-17.128,7.642-17.128,17.128 c0,1.186,0.132,2.372,0.395,3.426C6.719,34.783,0,42.424,0,51.515C0,61.66,8.169,69.829,18.314,69.829h63.373 C91.831,69.829,100,61.66,100,51.515C99.868,42.556,93.281,35.046,84.717,33.597z" fill="rgba(241, 242, 243, 0.317161392704133)" transform="scale(0.85)"></path>
</g><g transform="translate(-100 499.0439205244842) rotate(0)">
  <animateTransform attributeName="transform" type="translate" keyTimes="0;1" values="-100 499.0439205244842;3000 499.0439205244842" dur="83.33333333333333s" repeatCount="indefinite" begin="-134.7376242979405s"></animateTransform>
  <path d="M84.717,33.597c0.791-2.503,1.186-5.138,1.186-7.773C85.903,11.594,74.308,0,60.079,0 c-9.881,0-18.445,5.534-22.793,13.702c-1.581-0.527-3.426-0.791-5.138-0.791c-9.486,0-17.128,7.642-17.128,17.128 c0,1.186,0.132,2.372,0.395,3.426C6.719,34.783,0,42.424,0,51.515C0,61.66,8.169,69.829,18.314,69.829h63.373 C91.831,69.829,100,61.66,100,51.515C99.868,42.556,93.281,35.046,84.717,33.597z" fill="rgba(241, 242, 243, 0.317161392704133)" transform="scale(0.85)"></path>
</g><g transform="translate(-100 18.401734318212377) rotate(0)">
  <animateTransform attributeName="transform" type="translate" keyTimes="0;1" values="-100 18.401734318212377;3000 18.401734318212377" dur="83.33333333333333s" repeatCount="indefinite" begin="-100.16098848629701s"></animateTransform>
  <path d="M84.717,33.597c0.791-2.503,1.186-5.138,1.186-7.773C85.903,11.594,74.308,0,60.079,0 c-9.881,0-18.445,5.534-22.793,13.702c-1.581-0.527-3.426-0.791-5.138-0.791c-9.486,0-17.128,7.642-17.128,17.128 c0,1.186,0.132,2.372,0.395,3.426C6.719,34.783,0,42.424,0,51.515C0,61.66,8.169,69.829,18.314,69.829h63.373 C91.831,69.829,100,61.66,100,51.515C99.868,42.556,93.281,35.046,84.717,33.597z" fill="rgba(241, 242, 243, 0.317161392704133)" transform="scale(0.85)"></path>
</g><g transform="translate(-100 204.5527373290136) rotate(0)">
  <animateTransform attributeName="transform" type="translate" keyTimes="0;1" values="-100 204.5527373290136;3000 204.5527373290136" dur="83.33333333333333s" repeatCount="indefinite" begin="-186.8212390883433s"></animateTransform>
  <path d="M84.717,33.597c0.791-2.503,1.186-5.138,1.186-7.773C85.903,11.594,74.308,0,60.079,0 c-9.881,0-18.445,5.534-22.793,13.702c-1.581-0.527-3.426-0.791-5.138-0.791c-9.486,0-17.128,7.642-17.128,17.128 c0,1.186,0.132,2.372,0.395,3.426C6.719,34.783,0,42.424,0,51.515C0,61.66,8.169,69.829,18.314,69.829h63.373 C91.831,69.829,100,61.66,100,51.515C99.868,42.556,93.281,35.046,84.717,33.597z" fill="rgba(241, 242, 243, 0.317161392704133)" transform="scale(0.85)"></path>
</g><g transform="translate(-100 188.75939647569163) rotate(0)">
  <animateTransform attributeName="transform" type="translate" keyTimes="0;1" values="-100 188.75939647569163;3000 188.75939647569163" dur="83.33333333333333s" repeatCount="indefinite" begin="-196.3984307224147s"></animateTransform>
  <path d="M84.717,33.597c0.791-2.503,1.186-5.138,1.186-7.773C85.903,11.594,74.308,0,60.079,0 c-9.881,0-18.445,5.534-22.793,13.702c-1.581-0.527-3.426-0.791-5.138-0.791c-9.486,0-17.128,7.642-17.128,17.128 c0,1.186,0.132,2.372,0.395,3.426C6.719,34.783,0,42.424,0,51.515C0,61.66,8.169,69.829,18.314,69.829h63.373 C91.831,69.829,100,61.66,100,51.515C99.868,42.556,93.281,35.046,84.717,33.597z" fill="rgba(241, 242, 243, 0.317161392704133)" transform="scale(0.85)"></path>
</g><g transform="translate(-100 488.2089966095537) rotate(0)">
  <animateTransform attributeName="transform" type="translate" keyTimes="0;1" values="-100 488.2089966095537;3000 488.2089966095537" dur="83.33333333333333s" repeatCount="indefinite" begin="-181.11894560874103s"></animateTransform>
  <path d="M84.717,33.597c0.791-2.503,1.186-5.138,1.186-7.773C85.903,11.594,74.308,0,60.079,0 c-9.881,0-18.445,5.534-22.793,13.702c-1.581-0.527-3.426-0.791-5.138-0.791c-9.486,0-17.128,7.642-17.128,17.128 c0,1.186,0.132,2.372,0.395,3.426C6.719,34.783,0,42.424,0,51.515C0,61.66,8.169,69.829,18.314,69.829h63.373 C91.831,69.829,100,61.66,100,51.515C99.868,42.556,93.281,35.046,84.717,33.597z" fill="rgba(241, 242, 243, 0.317161392704133)" transform="scale(0.85)"></path>
</g><g transform="translate(-100 103.08398000463453) rotate(0)">
  <animateTransform attributeName="transform" type="translate" keyTimes="0;1" values="-100 103.08398000463453;3000 103.08398000463453" dur="83.33333333333333s" repeatCount="indefinite" begin="-216.9738241315981s"></animateTransform>
  <path d="M84.717,33.597c0.791-2.503,1.186-5.138,1.186-7.773C85.903,11.594,74.308,0,60.079,0 c-9.881,0-18.445,5.534-22.793,13.702c-1.581-0.527-3.426-0.791-5.138-0.791c-9.486,0-17.128,7.642-17.128,17.128 c0,1.186,0.132,2.372,0.395,3.426C6.719,34.783,0,42.424,0,51.515C0,61.66,8.169,69.829,18.314,69.829h63.373 C91.831,69.829,100,61.66,100,51.515C99.868,42.556,93.281,35.046,84.717,33.597z" fill="rgba(241, 242, 243, 0.317161392704133)" transform="scale(0.85)"></path>
</g><g transform="translate(-100 561.3126263845663) rotate(0)">
  <animateTransform attributeName="transform" type="translate" keyTimes="0;1" values="-100 561.3126263845663;3000 561.3126263845663" dur="83.33333333333333s" repeatCount="indefinite" begin="-176.6750008237028s"></animateTransform>
  <path d="M84.717,33.597c0.791-2.503,1.186-5.138,1.186-7.773C85.903,11.594,74.308,0,60.079,0 c-9.881,0-18.445,5.534-22.793,13.702c-1.581-0.527-3.426-0.791-5.138-0.791c-9.486,0-17.128,7.642-17.128,17.128 c0,1.186,0.132,2.372,0.395,3.426C6.719,34.783,0,42.424,0,51.515C0,61.66,8.169,69.829,18.314,69.829h63.373 C91.831,69.829,100,61.66,100,51.515C99.868,42.556,93.281,35.046,84.717,33.597z" fill="rgba(241, 242, 243, 0.317161392704133)" transform="scale(0.85)"></path>
</g><g transform="translate(-100 330.7014601232866) rotate(0)">
  <animateTransform attributeName="transform" type="translate" keyTimes="0;1" values="-100 330.7014601232866;3000 330.7014601232866" dur="83.33333333333333s" repeatCount="indefinite" begin="-105.46665986004822s"></animateTransform>
  <path d="M84.717,33.597c0.791-2.503,1.186-5.138,1.186-7.773C85.903,11.594,74.308,0,60.079,0 c-9.881,0-18.445,5.534-22.793,13.702c-1.581-0.527-3.426-0.791-5.138-0.791c-9.486,0-17.128,7.642-17.128,17.128 c0,1.186,0.132,2.372,0.395,3.426C6.719,34.783,0,42.424,0,51.515C0,61.66,8.169,69.829,18.314,69.829h63.373 C91.831,69.829,100,61.66,100,51.515C99.868,42.556,93.281,35.046,84.717,33.597z" fill="rgba(241, 242, 243, 0.317161392704133)" transform="scale(0.85)"></path>
</g><g transform="translate(-100 81.10039768429291) rotate(0)">
  <animateTransform attributeName="transform" type="translate" keyTimes="0;1" values="-100 81.10039768429291;3000 81.10039768429291" dur="62.5s" repeatCount="indefinite" begin="-247.41374300589862s"></animateTransform>
  <path d="M84.717,33.597c0.791-2.503,1.186-5.138,1.186-7.773C85.903,11.594,74.308,0,60.079,0 c-9.881,0-18.445,5.534-22.793,13.702c-1.581-0.527-3.426-0.791-5.138-0.791c-9.486,0-17.128,7.642-17.128,17.128 c0,1.186,0.132,2.372,0.395,3.426C6.719,34.783,0,42.424,0,51.515C0,61.66,8.169,69.829,18.314,69.829h63.373 C91.831,69.829,100,61.66,100,51.515C99.868,42.556,93.281,35.046,84.717,33.597z" fill="rgba(189, 222, 255, 0.30877429592993955)" transform="scale(1)"></path>
</g><g transform="translate(-100 159.8035806408092) rotate(0)">
  <animateTransform attributeName="transform" type="translate" keyTimes="0;1" values="-100 159.8035806408092;3000 159.8035806408092" dur="62.5s" repeatCount="indefinite" begin="-131.00319820146666s"></animateTransform>
  <path d="M84.717,33.597c0.791-2.503,1.186-5.138,1.186-7.773C85.903,11.594,74.308,0,60.079,0 c-9.881,0-18.445,5.534-22.793,13.702c-1.581-0.527-3.426-0.791-5.138-0.791c-9.486,0-17.128,7.642-17.128,17.128 c0,1.186,0.132,2.372,0.395,3.426C6.719,34.783,0,42.424,0,51.515C0,61.66,8.169,69.829,18.314,69.829h63.373 C91.831,69.829,100,61.66,100,51.515C99.868,42.556,93.281,35.046,84.717,33.597z" fill="rgba(189, 222, 255, 0.30877429592993955)" transform="scale(1)"></path>
</g><g transform="translate(-100 443.17722637185835) rotate(0)">
  <animateTransform attributeName="transform" type="translate" keyTimes="0;1" values="-100 443.17722637185835;3000 443.17722637185835" dur="62.5s" repeatCount="indefinite" begin="-37.83203709072952s"></animateTransform>
  <path d="M84.717,33.597c0.791-2.503,1.186-5.138,1.186-7.773C85.903,11.594,74.308,0,60.079,0 c-9.881,0-18.445,5.534-22.793,13.702c-1.581-0.527-3.426-0.791-5.138-0.791c-9.486,0-17.128,7.642-17.128,17.128 c0,1.186,0.132,2.372,0.395,3.426C6.719,34.783,0,42.424,0,51.515C0,61.66,8.169,69.829,18.314,69.829h63.373 C91.831,69.829,100,61.66,100,51.515C99.868,42.556,93.281,35.046,84.717,33.597z" fill="rgba(189, 222, 255, 0.30877429592993955)" transform="scale(1)"></path>
</g><g transform="translate(-100 481.5949340864633) rotate(0)">
  <animateTransform attributeName="transform" type="translate" keyTimes="0;1" values="-100 481.5949340864633;3000 481.5949340864633" dur="62.5s" repeatCount="indefinite" begin="-146.0163029672898s"></animateTransform>
  <path d="M84.717,33.597c0.791-2.503,1.186-5.138,1.186-7.773C85.903,11.594,74.308,0,60.079,0 c-9.881,0-18.445,5.534-22.793,13.702c-1.581-0.527-3.426-0.791-5.138-0.791c-9.486,0-17.128,7.642-17.128,17.128 c0,1.186,0.132,2.372,0.395,3.426C6.719,34.783,0,42.424,0,51.515C0,61.66,8.169,69.829,18.314,69.829h63.373 C91.831,69.829,100,61.66,100,51.515C99.868,42.556,93.281,35.046,84.717,33.597z" fill="rgba(189, 222, 255, 0.30877429592993955)" transform="scale(1)"></path>
</g><g transform="translate(-100 544.4213052724784) rotate(0)">
  <animateTransform attributeName="transform" type="translate" keyTimes="0;1" values="-100 544.4213052724784;3000 544.4213052724784" dur="62.5s" repeatCount="indefinite" begin="-140.5019381047386s"></animateTransform>
  <path d="M84.717,33.597c0.791-2.503,1.186-5.138,1.186-7.773C85.903,11.594,74.308,0,60.079,0 c-9.881,0-18.445,5.534-22.793,13.702c-1.581-0.527-3.426-0.791-5.138-0.791c-9.486,0-17.128,7.642-17.128,17.128 c0,1.186,0.132,2.372,0.395,3.426C6.719,34.783,0,42.424,0,51.515C0,61.66,8.169,69.829,18.314,69.829h63.373 C91.831,69.829,100,61.66,100,51.515C99.868,42.556,93.281,35.046,84.717,33.597z" fill="rgba(189, 222, 255, 0.30877429592993955)" transform="scale(1)"></path>
</g><g transform="translate(-100 246.12571699748133) rotate(0)">
  <animateTransform attributeName="transform" type="translate" keyTimes="0;1" values="-100 246.12571699748133;3000 246.12571699748133" dur="62.5s" repeatCount="indefinite" begin="-180.49983229908466s"></animateTransform>
  <path d="M84.717,33.597c0.791-2.503,1.186-5.138,1.186-7.773C85.903,11.594,74.308,0,60.079,0 c-9.881,0-18.445,5.534-22.793,13.702c-1.581-0.527-3.426-0.791-5.138-0.791c-9.486,0-17.128,7.642-17.128,17.128 c0,1.186,0.132,2.372,0.395,3.426C6.719,34.783,0,42.424,0,51.515C0,61.66,8.169,69.829,18.314,69.829h63.373 C91.831,69.829,100,61.66,100,51.515C99.868,42.556,93.281,35.046,84.717,33.597z" fill="rgba(189, 222, 255, 0.30877429592993955)" transform="scale(1)"></path>
</g><g transform="translate(-100 489.4167183069453) rotate(0)">
  <animateTransform attributeName="transform" type="translate" keyTimes="0;1" values="-100 489.4167183069453;3000 489.4167183069453" dur="62.5s" repeatCount="indefinite" begin="-150.18552836098513s"></animateTransform>
  <path d="M84.717,33.597c0.791-2.503,1.186-5.138,1.186-7.773C85.903,11.594,74.308,0,60.079,0 c-9.881,0-18.445,5.534-22.793,13.702c-1.581-0.527-3.426-0.791-5.138-0.791c-9.486,0-17.128,7.642-17.128,17.128 c0,1.186,0.132,2.372,0.395,3.426C6.719,34.783,0,42.424,0,51.515C0,61.66,8.169,69.829,18.314,69.829h63.373 C91.831,69.829,100,61.66,100,51.515C99.868,42.556,93.281,35.046,84.717,33.597z" fill="rgba(189, 222, 255, 0.30877429592993955)" transform="scale(1)"></path>
</g><g transform="translate(-100 244.6175649437047) rotate(0)">
  <animateTransform attributeName="transform" type="translate" keyTimes="0;1" values="-100 244.6175649437047;3000 244.6175649437047" dur="62.5s" repeatCount="indefinite" begin="-86.24087019490368s"></animateTransform>
  <path d="M84.717,33.597c0.791-2.503,1.186-5.138,1.186-7.773C85.903,11.594,74.308,0,60.079,0 c-9.881,0-18.445,5.534-22.793,13.702c-1.581-0.527-3.426-0.791-5.138-0.791c-9.486,0-17.128,7.642-17.128,17.128 c0,1.186,0.132,2.372,0.395,3.426C6.719,34.783,0,42.424,0,51.515C0,61.66,8.169,69.829,18.314,69.829h63.373 C91.831,69.829,100,61.66,100,51.515C99.868,42.556,93.281,35.046,84.717,33.597z" fill="rgba(189, 222, 255, 0.30877429592993955)" transform="scale(1)"></path>
</g><g transform="translate(-100 484.7119263135694) rotate(0)">
  <animateTransform attributeName="transform" type="translate" keyTimes="0;1" values="-100 484.7119263135694;3000 484.7119263135694" dur="62.5s" repeatCount="indefinite" begin="-89.2913043081262s"></animateTransform>
  <path d="M84.717,33.597c0.791-2.503,1.186-5.138,1.186-7.773C85.903,11.594,74.308,0,60.079,0 c-9.881,0-18.445,5.534-22.793,13.702c-1.581-0.527-3.426-0.791-5.138-0.791c-9.486,0-17.128,7.642-17.128,17.128 c0,1.186,0.132,2.372,0.395,3.426C6.719,34.783,0,42.424,0,51.515C0,61.66,8.169,69.829,18.314,69.829h63.373 C91.831,69.829,100,61.66,100,51.515C99.868,42.556,93.281,35.046,84.717,33.597z" fill="rgba(189, 222, 255, 0.30877429592993955)" transform="scale(1)"></path>
</g><g transform="translate(-100 332.1489975917102) rotate(0)">
  <animateTransform attributeName="transform" type="translate" keyTimes="0;1" values="-100 332.1489975917102;3000 332.1489975917102" dur="62.5s" repeatCount="indefinite" begin="-172.36529836716107s"></animateTransform>
  <path d="M84.717,33.597c0.791-2.503,1.186-5.138,1.186-7.773C85.903,11.594,74.308,0,60.079,0 c-9.881,0-18.445,5.534-22.793,13.702c-1.581-0.527-3.426-0.791-5.138-0.791c-9.486,0-17.128,7.642-17.128,17.128 c0,1.186,0.132,2.372,0.395,3.426C6.719,34.783,0,42.424,0,51.515C0,61.66,8.169,69.829,18.314,69.829h63.373 C91.831,69.829,100,61.66,100,51.515C99.868,42.556,93.281,35.046,84.717,33.597z" fill="rgba(189, 222, 255, 0.30877429592993955)" transform="scale(1)"></path>
</g><g transform="translate(-100 361.20097829736596) rotate(0)">
  <animateTransform attributeName="transform" type="translate" keyTimes="0;1" values="-100 361.20097829736596;3000 361.20097829736596" dur="62.5s" repeatCount="indefinite" begin="-160.1440809690911s"></animateTransform>
  <path d="M84.717,33.597c0.791-2.503,1.186-5.138,1.186-7.773C85.903,11.594,74.308,0,60.079,0 c-9.881,0-18.445,5.534-22.793,13.702c-1.581-0.527-3.426-0.791-5.138-0.791c-9.486,0-17.128,7.642-17.128,17.128 c0,1.186,0.132,2.372,0.395,3.426C6.719,34.783,0,42.424,0,51.515C0,61.66,8.169,69.829,18.314,69.829h63.373 C91.831,69.829,100,61.66,100,51.515C99.868,42.556,93.281,35.046,84.717,33.597z" fill="rgba(189, 222, 255, 0.30877429592993955)" transform="scale(1)"></path>
</g><g transform="translate(-100 242.39679916313796) rotate(0)">
  <animateTransform attributeName="transform" type="translate" keyTimes="0;1" values="-100 242.39679916313796;3000 242.39679916313796" dur="62.5s" repeatCount="indefinite" begin="-67.17371253365062s"></animateTransform>
  <path d="M84.717,33.597c0.791-2.503,1.186-5.138,1.186-7.773C85.903,11.594,74.308,0,60.079,0 c-9.881,0-18.445,5.534-22.793,13.702c-1.581-0.527-3.426-0.791-5.138-0.791c-9.486,0-17.128,7.642-17.128,17.128 c0,1.186,0.132,2.372,0.395,3.426C6.719,34.783,0,42.424,0,51.515C0,61.66,8.169,69.829,18.314,69.829h63.373 C91.831,69.829,100,61.66,100,51.515C99.868,42.556,93.281,35.046,84.717,33.597z" fill="rgba(189, 222, 255, 0.30877429592993955)" transform="scale(1)"></path>
</g></g>
</svg>