<?xml version="1.0" encoding="utf-8"?>
<svg xmlns="http://www.w3.org/2000/svg" xmlns:xlink="http://www.w3.org/1999/xlink" style="margin: auto; background: rgba(255, 255, 255, 0); display: block; z-index: 1; position: relative; shape-rendering: auto;" width="2188" height="1264" preserveAspectRatio="xMidYMid" viewBox="0 0 2188 1264">
<g transform="translate(1094,632) scale(1,1) translate(-1094,-632)"><g transform="translate(-100 1243.3761909018058) rotate(0)">
  <animateTransform attributeName="transform" type="translate" keyTimes="0;1" values="-100 1243.3761909018058;2188 1243.3761909018058" dur="142.85714285714286s" repeatCount="indefinite" begin="-135.02573926899194s"></animateTransform>
  <path d="M84.717,33.597c0.791-2.503,1.186-5.138,1.186-7.773C85.903,11.594,74.308,0,60.079,0 c-9.881,0-18.445,5.534-22.793,13.702c-1.581-0.527-3.426-0.791-5.138-0.791c-9.486,0-17.128,7.642-17.128,17.128 c0,1.186,0.132,2.372,0.395,3.426C6.719,34.783,0,42.424,0,51.515C0,61.66,8.169,69.829,18.314,69.829h63.373 C91.831,69.829,100,61.66,100,51.515C99.868,42.556,93.281,35.046,84.717,33.597z" fill="rgba(221, 226, 231, 0.3372379032258064)" transform="scale(0.55)"></path>
</g><g transform="translate(-100 48.8018318807041) rotate(0)">
  <animateTransform attributeName="transform" type="translate" keyTimes="0;1" values="-100 48.8018318807041;2188 48.8018318807041" dur="142.85714285714286s" repeatCount="indefinite" begin="-32.26667984025498s"></animateTransform>
  <path d="M84.717,33.597c0.791-2.503,1.186-5.138,1.186-7.773C85.903,11.594,74.308,0,60.079,0 c-9.881,0-18.445,5.534-22.793,13.702c-1.581-0.527-3.426-0.791-5.138-0.791c-9.486,0-17.128,7.642-17.128,17.128 c0,1.186,0.132,2.372,0.395,3.426C6.719,34.783,0,42.424,0,51.515C0,61.66,8.169,69.829,18.314,69.829h63.373 C91.831,69.829,100,61.66,100,51.515C99.868,42.556,93.281,35.046,84.717,33.597z" fill="rgba(221, 226, 231, 0.3372379032258064)" transform="scale(0.55)"></path>
</g><g transform="translate(-100 682.5750567581445) rotate(0)">
  <animateTransform attributeName="transform" type="translate" keyTimes="0;1" values="-100 682.5750567581445;2188 682.5750567581445" dur="142.85714285714286s" repeatCount="indefinite" begin="-31.797315795901252s"></animateTransform>
  <path d="M84.717,33.597c0.791-2.503,1.186-5.138,1.186-7.773C85.903,11.594,74.308,0,60.079,0 c-9.881,0-18.445,5.534-22.793,13.702c-1.581-0.527-3.426-0.791-5.138-0.791c-9.486,0-17.128,7.642-17.128,17.128 c0,1.186,0.132,2.372,0.395,3.426C6.719,34.783,0,42.424,0,51.515C0,61.66,8.169,69.829,18.314,69.829h63.373 C91.831,69.829,100,61.66,100,51.515C99.868,42.556,93.281,35.046,84.717,33.597z" fill="rgba(221, 226, 231, 0.3372379032258064)" transform="scale(0.55)"></path>
</g><g transform="translate(-100 813.9267383546796) rotate(0)">
  <animateTransform attributeName="transform" type="translate" keyTimes="0;1" values="-100 813.9267383546796;2188 813.9267383546796" dur="142.85714285714286s" repeatCount="indefinite" begin="-64.5895970663347s"></animateTransform>
  <path d="M84.717,33.597c0.791-2.503,1.186-5.138,1.186-7.773C85.903,11.594,74.308,0,60.079,0 c-9.881,0-18.445,5.534-22.793,13.702c-1.581-0.527-3.426-0.791-5.138-0.791c-9.486,0-17.128,7.642-17.128,17.128 c0,1.186,0.132,2.372,0.395,3.426C6.719,34.783,0,42.424,0,51.515C0,61.66,8.169,69.829,18.314,69.829h63.373 C91.831,69.829,100,61.66,100,51.515C99.868,42.556,93.281,35.046,84.717,33.597z" fill="rgba(221, 226, 231, 0.3372379032258064)" transform="scale(0.55)"></path>
</g><g transform="translate(-100 793.0306090321244) rotate(0)">
  <animateTransform attributeName="transform" type="translate" keyTimes="0;1" values="-100 793.0306090321244;2188 793.0306090321244" dur="142.85714285714286s" repeatCount="indefinite" begin="-39.37927895010155s"></animateTransform>
  <path d="M84.717,33.597c0.791-2.503,1.186-5.138,1.186-7.773C85.903,11.594,74.308,0,60.079,0 c-9.881,0-18.445,5.534-22.793,13.702c-1.581-0.527-3.426-0.791-5.138-0.791c-9.486,0-17.128,7.642-17.128,17.128 c0,1.186,0.132,2.372,0.395,3.426C6.719,34.783,0,42.424,0,51.515C0,61.66,8.169,69.829,18.314,69.829h63.373 C91.831,69.829,100,61.66,100,51.515C99.868,42.556,93.281,35.046,84.717,33.597z" fill="rgba(221, 226, 231, 0.3372379032258064)" transform="scale(0.55)"></path>
</g><g transform="translate(-100 1259.4822192691859) rotate(0)">
  <animateTransform attributeName="transform" type="translate" keyTimes="0;1" values="-100 1259.4822192691859;2188 1259.4822192691859" dur="142.85714285714286s" repeatCount="indefinite" begin="-93.36505496939778s"></animateTransform>
  <path d="M84.717,33.597c0.791-2.503,1.186-5.138,1.186-7.773C85.903,11.594,74.308,0,60.079,0 c-9.881,0-18.445,5.534-22.793,13.702c-1.581-0.527-3.426-0.791-5.138-0.791c-9.486,0-17.128,7.642-17.128,17.128 c0,1.186,0.132,2.372,0.395,3.426C6.719,34.783,0,42.424,0,51.515C0,61.66,8.169,69.829,18.314,69.829h63.373 C91.831,69.829,100,61.66,100,51.515C99.868,42.556,93.281,35.046,84.717,33.597z" fill="rgba(221, 226, 231, 0.3372379032258064)" transform="scale(0.55)"></path>
</g><g transform="translate(-100 932.0951485505666) rotate(0)">
  <animateTransform attributeName="transform" type="translate" keyTimes="0;1" values="-100 932.0951485505666;2188 932.0951485505666" dur="142.85714285714286s" repeatCount="indefinite" begin="-46.14477569283247s"></animateTransform>
  <path d="M84.717,33.597c0.791-2.503,1.186-5.138,1.186-7.773C85.903,11.594,74.308,0,60.079,0 c-9.881,0-18.445,5.534-22.793,13.702c-1.581-0.527-3.426-0.791-5.138-0.791c-9.486,0-17.128,7.642-17.128,17.128 c0,1.186,0.132,2.372,0.395,3.426C6.719,34.783,0,42.424,0,51.515C0,61.66,8.169,69.829,18.314,69.829h63.373 C91.831,69.829,100,61.66,100,51.515C99.868,42.556,93.281,35.046,84.717,33.597z" fill="rgba(221, 226, 231, 0.3372379032258064)" transform="scale(0.55)"></path>
</g><g transform="translate(-100 719.9888508759179) rotate(0)">
  <animateTransform attributeName="transform" type="translate" keyTimes="0;1" values="-100 719.9888508759179;2188 719.9888508759179" dur="142.85714285714286s" repeatCount="indefinite" begin="-7.418453609517777s"></animateTransform>
  <path d="M84.717,33.597c0.791-2.503,1.186-5.138,1.186-7.773C85.903,11.594,74.308,0,60.079,0 c-9.881,0-18.445,5.534-22.793,13.702c-1.581-0.527-3.426-0.791-5.138-0.791c-9.486,0-17.128,7.642-17.128,17.128 c0,1.186,0.132,2.372,0.395,3.426C6.719,34.783,0,42.424,0,51.515C0,61.66,8.169,69.829,18.314,69.829h63.373 C91.831,69.829,100,61.66,100,51.515C99.868,42.556,93.281,35.046,84.717,33.597z" fill="rgba(221, 226, 231, 0.3372379032258064)" transform="scale(0.55)"></path>
</g><g transform="translate(-100 396.3887156992611) rotate(0)">
  <animateTransform attributeName="transform" type="translate" keyTimes="0;1" values="-100 396.3887156992611;2188 396.3887156992611" dur="142.85714285714286s" repeatCount="indefinite" begin="-49.20452804272792s"></animateTransform>
  <path d="M84.717,33.597c0.791-2.503,1.186-5.138,1.186-7.773C85.903,11.594,74.308,0,60.079,0 c-9.881,0-18.445,5.534-22.793,13.702c-1.581-0.527-3.426-0.791-5.138-0.791c-9.486,0-17.128,7.642-17.128,17.128 c0,1.186,0.132,2.372,0.395,3.426C6.719,34.783,0,42.424,0,51.515C0,61.66,8.169,69.829,18.314,69.829h63.373 C91.831,69.829,100,61.66,100,51.515C99.868,42.556,93.281,35.046,84.717,33.597z" fill="rgba(221, 226, 231, 0.3372379032258064)" transform="scale(0.55)"></path>
</g><g transform="translate(-100 570.5630545406493) rotate(0)">
  <animateTransform attributeName="transform" type="translate" keyTimes="0;1" values="-100 570.5630545406493;2188 570.5630545406493" dur="142.85714285714286s" repeatCount="indefinite" begin="-106.29118900865839s"></animateTransform>
  <path d="M84.717,33.597c0.791-2.503,1.186-5.138,1.186-7.773C85.903,11.594,74.308,0,60.079,0 c-9.881,0-18.445,5.534-22.793,13.702c-1.581-0.527-3.426-0.791-5.138-0.791c-9.486,0-17.128,7.642-17.128,17.128 c0,1.186,0.132,2.372,0.395,3.426C6.719,34.783,0,42.424,0,51.515C0,61.66,8.169,69.829,18.314,69.829h63.373 C91.831,69.829,100,61.66,100,51.515C99.868,42.556,93.281,35.046,84.717,33.597z" fill="rgba(221, 226, 231, 0.3372379032258064)" transform="scale(0.55)"></path>
</g><g transform="translate(-100 187.1575708240817) rotate(0)">
  <animateTransform attributeName="transform" type="translate" keyTimes="0;1" values="-100 187.1575708240817;2188 187.1575708240817" dur="142.85714285714286s" repeatCount="indefinite" begin="-21.793814787319565s"></animateTransform>
  <path d="M84.717,33.597c0.791-2.503,1.186-5.138,1.186-7.773C85.903,11.594,74.308,0,60.079,0 c-9.881,0-18.445,5.534-22.793,13.702c-1.581-0.527-3.426-0.791-5.138-0.791c-9.486,0-17.128,7.642-17.128,17.128 c0,1.186,0.132,2.372,0.395,3.426C6.719,34.783,0,42.424,0,51.515C0,61.66,8.169,69.829,18.314,69.829h63.373 C91.831,69.829,100,61.66,100,51.515C99.868,42.556,93.281,35.046,84.717,33.597z" fill="rgba(221, 226, 231, 0.3372379032258064)" transform="scale(0.55)"></path>
</g><g transform="translate(-100 643.7874246234899) rotate(0)">
  <animateTransform attributeName="transform" type="translate" keyTimes="0;1" values="-100 643.7874246234899;2188 643.7874246234899" dur="142.85714285714286s" repeatCount="indefinite" begin="-13.925406027629611s"></animateTransform>
  <path d="M84.717,33.597c0.791-2.503,1.186-5.138,1.186-7.773C85.903,11.594,74.308,0,60.079,0 c-9.881,0-18.445,5.534-22.793,13.702c-1.581-0.527-3.426-0.791-5.138-0.791c-9.486,0-17.128,7.642-17.128,17.128 c0,1.186,0.132,2.372,0.395,3.426C6.719,34.783,0,42.424,0,51.515C0,61.66,8.169,69.829,18.314,69.829h63.373 C91.831,69.829,100,61.66,100,51.515C99.868,42.556,93.281,35.046,84.717,33.597z" fill="rgba(221, 226, 231, 0.3372379032258064)" transform="scale(0.55)"></path>
</g><g transform="translate(-100 1032.5909195762385) rotate(0)">
  <animateTransform attributeName="transform" type="translate" keyTimes="0;1" values="-100 1032.5909195762385;2188 1032.5909195762385" dur="142.85714285714286s" repeatCount="indefinite" begin="-18.255812702561794s"></animateTransform>
  <path d="M84.717,33.597c0.791-2.503,1.186-5.138,1.186-7.773C85.903,11.594,74.308,0,60.079,0 c-9.881,0-18.445,5.534-22.793,13.702c-1.581-0.527-3.426-0.791-5.138-0.791c-9.486,0-17.128,7.642-17.128,17.128 c0,1.186,0.132,2.372,0.395,3.426C6.719,34.783,0,42.424,0,51.515C0,61.66,8.169,69.829,18.314,69.829h63.373 C91.831,69.829,100,61.66,100,51.515C99.868,42.556,93.281,35.046,84.717,33.597z" fill="rgba(221, 226, 231, 0.3372379032258064)" transform="scale(0.55)"></path>
</g><g transform="translate(-100 684.3654977859514) rotate(0)">
  <animateTransform attributeName="transform" type="translate" keyTimes="0;1" values="-100 684.3654977859514;2188 684.3654977859514" dur="142.85714285714286s" repeatCount="indefinite" begin="-10.102300668676614s"></animateTransform>
  <path d="M84.717,33.597c0.791-2.503,1.186-5.138,1.186-7.773C85.903,11.594,74.308,0,60.079,0 c-9.881,0-18.445,5.534-22.793,13.702c-1.581-0.527-3.426-0.791-5.138-0.791c-9.486,0-17.128,7.642-17.128,17.128 c0,1.186,0.132,2.372,0.395,3.426C6.719,34.783,0,42.424,0,51.515C0,61.66,8.169,69.829,18.314,69.829h63.373 C91.831,69.829,100,61.66,100,51.515C99.868,42.556,93.281,35.046,84.717,33.597z" fill="rgba(221, 226, 231, 0.3372379032258064)" transform="scale(0.55)"></path>
</g><g transform="translate(-100 1223.9562585141541) rotate(0)">
  <animateTransform attributeName="transform" type="translate" keyTimes="0;1" values="-100 1223.9562585141541;2188 1223.9562585141541" dur="142.85714285714286s" repeatCount="indefinite" begin="-139.45713062671416s"></animateTransform>
  <path d="M84.717,33.597c0.791-2.503,1.186-5.138,1.186-7.773C85.903,11.594,74.308,0,60.079,0 c-9.881,0-18.445,5.534-22.793,13.702c-1.581-0.527-3.426-0.791-5.138-0.791c-9.486,0-17.128,7.642-17.128,17.128 c0,1.186,0.132,2.372,0.395,3.426C6.719,34.783,0,42.424,0,51.515C0,61.66,8.169,69.829,18.314,69.829h63.373 C91.831,69.829,100,61.66,100,51.515C99.868,42.556,93.281,35.046,84.717,33.597z" fill="rgba(221, 226, 231, 0.3372379032258064)" transform="scale(0.55)"></path>
</g><g transform="translate(-100 971.2191842507814) rotate(0)">
  <animateTransform attributeName="transform" type="translate" keyTimes="0;1" values="-100 971.2191842507814;2188 971.2191842507814" dur="142.85714285714286s" repeatCount="indefinite" begin="-92.41209717964979s"></animateTransform>
  <path d="M84.717,33.597c0.791-2.503,1.186-5.138,1.186-7.773C85.903,11.594,74.308,0,60.079,0 c-9.881,0-18.445,5.534-22.793,13.702c-1.581-0.527-3.426-0.791-5.138-0.791c-9.486,0-17.128,7.642-17.128,17.128 c0,1.186,0.132,2.372,0.395,3.426C6.719,34.783,0,42.424,0,51.515C0,61.66,8.169,69.829,18.314,69.829h63.373 C91.831,69.829,100,61.66,100,51.515C99.868,42.556,93.281,35.046,84.717,33.597z" fill="rgba(221, 226, 231, 0.3372379032258064)" transform="scale(0.55)"></path>
</g><g transform="translate(-100 664.2977503880661) rotate(0)">
  <animateTransform attributeName="transform" type="translate" keyTimes="0;1" values="-100 664.2977503880661;2188 664.2977503880661" dur="142.85714285714286s" repeatCount="indefinite" begin="-106.85586711069676s"></animateTransform>
  <path d="M84.717,33.597c0.791-2.503,1.186-5.138,1.186-7.773C85.903,11.594,74.308,0,60.079,0 c-9.881,0-18.445,5.534-22.793,13.702c-1.581-0.527-3.426-0.791-5.138-0.791c-9.486,0-17.128,7.642-17.128,17.128 c0,1.186,0.132,2.372,0.395,3.426C6.719,34.783,0,42.424,0,51.515C0,61.66,8.169,69.829,18.314,69.829h63.373 C91.831,69.829,100,61.66,100,51.515C99.868,42.556,93.281,35.046,84.717,33.597z" fill="rgba(221, 226, 231, 0.3372379032258064)" transform="scale(0.55)"></path>
</g><g transform="translate(-100 180.42160714657356) rotate(0)">
  <animateTransform attributeName="transform" type="translate" keyTimes="0;1" values="-100 180.42160714657356;2188 180.42160714657356" dur="142.85714285714286s" repeatCount="indefinite" begin="-73.33964737027613s"></animateTransform>
  <path d="M84.717,33.597c0.791-2.503,1.186-5.138,1.186-7.773C85.903,11.594,74.308,0,60.079,0 c-9.881,0-18.445,5.534-22.793,13.702c-1.581-0.527-3.426-0.791-5.138-0.791c-9.486,0-17.128,7.642-17.128,17.128 c0,1.186,0.132,2.372,0.395,3.426C6.719,34.783,0,42.424,0,51.515C0,61.66,8.169,69.829,18.314,69.829h63.373 C91.831,69.829,100,61.66,100,51.515C99.868,42.556,93.281,35.046,84.717,33.597z" fill="rgba(221, 226, 231, 0.3372379032258064)" transform="scale(0.55)"></path>
</g><g transform="translate(-100 226.24896497441043) rotate(0)">
  <animateTransform attributeName="transform" type="translate" keyTimes="0;1" values="-100 226.24896497441043;2188 226.24896497441043" dur="142.85714285714286s" repeatCount="indefinite" begin="-132.32180168387725s"></animateTransform>
  <path d="M84.717,33.597c0.791-2.503,1.186-5.138,1.186-7.773C85.903,11.594,74.308,0,60.079,0 c-9.881,0-18.445,5.534-22.793,13.702c-1.581-0.527-3.426-0.791-5.138-0.791c-9.486,0-17.128,7.642-17.128,17.128 c0,1.186,0.132,2.372,0.395,3.426C6.719,34.783,0,42.424,0,51.515C0,61.66,8.169,69.829,18.314,69.829h63.373 C91.831,69.829,100,61.66,100,51.515C99.868,42.556,93.281,35.046,84.717,33.597z" fill="rgba(221, 226, 231, 0.3372379032258064)" transform="scale(0.55)"></path>
</g><g transform="translate(-100 601.6756961090612) rotate(0)">
  <animateTransform attributeName="transform" type="translate" keyTimes="0;1" values="-100 601.6756961090612;2188 601.6756961090612" dur="142.85714285714286s" repeatCount="indefinite" begin="-105.9854074079792s"></animateTransform>
  <path d="M84.717,33.597c0.791-2.503,1.186-5.138,1.186-7.773C85.903,11.594,74.308,0,60.079,0 c-9.881,0-18.445,5.534-22.793,13.702c-1.581-0.527-3.426-0.791-5.138-0.791c-9.486,0-17.128,7.642-17.128,17.128 c0,1.186,0.132,2.372,0.395,3.426C6.719,34.783,0,42.424,0,51.515C0,61.66,8.169,69.829,18.314,69.829h63.373 C91.831,69.829,100,61.66,100,51.515C99.868,42.556,93.281,35.046,84.717,33.597z" fill="rgba(221, 226, 231, 0.3372379032258064)" transform="scale(0.55)"></path>
</g><g transform="translate(-100 871.2623806621899) rotate(0)">
  <animateTransform attributeName="transform" type="translate" keyTimes="0;1" values="-100 871.2623806621899;2188 871.2623806621899" dur="142.85714285714286s" repeatCount="indefinite" begin="-120.88097325336695s"></animateTransform>
  <path d="M84.717,33.597c0.791-2.503,1.186-5.138,1.186-7.773C85.903,11.594,74.308,0,60.079,0 c-9.881,0-18.445,5.534-22.793,13.702c-1.581-0.527-3.426-0.791-5.138-0.791c-9.486,0-17.128,7.642-17.128,17.128 c0,1.186,0.132,2.372,0.395,3.426C6.719,34.783,0,42.424,0,51.515C0,61.66,8.169,69.829,18.314,69.829h63.373 C91.831,69.829,100,61.66,100,51.515C99.868,42.556,93.281,35.046,84.717,33.597z" fill="rgba(221, 226, 231, 0.3372379032258064)" transform="scale(0.55)"></path>
</g><g transform="translate(-100 1201.5636134833069) rotate(0)">
  <animateTransform attributeName="transform" type="translate" keyTimes="0;1" values="-100 1201.5636134833069;2188 1201.5636134833069" dur="142.85714285714286s" repeatCount="indefinite" begin="-115.97989945305764s"></animateTransform>
  <path d="M84.717,33.597c0.791-2.503,1.186-5.138,1.186-7.773C85.903,11.594,74.308,0,60.079,0 c-9.881,0-18.445,5.534-22.793,13.702c-1.581-0.527-3.426-0.791-5.138-0.791c-9.486,0-17.128,7.642-17.128,17.128 c0,1.186,0.132,2.372,0.395,3.426C6.719,34.783,0,42.424,0,51.515C0,61.66,8.169,69.829,18.314,69.829h63.373 C91.831,69.829,100,61.66,100,51.515C99.868,42.556,93.281,35.046,84.717,33.597z" fill="rgba(221, 226, 231, 0.3372379032258064)" transform="scale(0.55)"></path>
</g><g transform="translate(-100 506.2452524194994) rotate(0)">
  <animateTransform attributeName="transform" type="translate" keyTimes="0;1" values="-100 506.2452524194994;2188 506.2452524194994" dur="142.85714285714286s" repeatCount="indefinite" begin="-62.22945527382023s"></animateTransform>
  <path d="M84.717,33.597c0.791-2.503,1.186-5.138,1.186-7.773C85.903,11.594,74.308,0,60.079,0 c-9.881,0-18.445,5.534-22.793,13.702c-1.581-0.527-3.426-0.791-5.138-0.791c-9.486,0-17.128,7.642-17.128,17.128 c0,1.186,0.132,2.372,0.395,3.426C6.719,34.783,0,42.424,0,51.515C0,61.66,8.169,69.829,18.314,69.829h63.373 C91.831,69.829,100,61.66,100,51.515C99.868,42.556,93.281,35.046,84.717,33.597z" fill="rgba(221, 226, 231, 0.3372379032258064)" transform="scale(0.55)"></path>
</g><g transform="translate(-100 173.73888689579832) rotate(0)">
  <animateTransform attributeName="transform" type="translate" keyTimes="0;1" values="-100 173.73888689579832;2188 173.73888689579832" dur="142.85714285714286s" repeatCount="indefinite" begin="-103.91611198161208s"></animateTransform>
  <path d="M84.717,33.597c0.791-2.503,1.186-5.138,1.186-7.773C85.903,11.594,74.308,0,60.079,0 c-9.881,0-18.445,5.534-22.793,13.702c-1.581-0.527-3.426-0.791-5.138-0.791c-9.486,0-17.128,7.642-17.128,17.128 c0,1.186,0.132,2.372,0.395,3.426C6.719,34.783,0,42.424,0,51.515C0,61.66,8.169,69.829,18.314,69.829h63.373 C91.831,69.829,100,61.66,100,51.515C99.868,42.556,93.281,35.046,84.717,33.597z" fill="rgba(221, 226, 231, 0.3372379032258064)" transform="scale(0.55)"></path>
</g><g transform="translate(-100 772.8146373141211) rotate(0)">
  <animateTransform attributeName="transform" type="translate" keyTimes="0;1" values="-100 772.8146373141211;2188 772.8146373141211" dur="142.85714285714286s" repeatCount="indefinite" begin="-88.82196278822731s"></animateTransform>
  <path d="M84.717,33.597c0.791-2.503,1.186-5.138,1.186-7.773C85.903,11.594,74.308,0,60.079,0 c-9.881,0-18.445,5.534-22.793,13.702c-1.581-0.527-3.426-0.791-5.138-0.791c-9.486,0-17.128,7.642-17.128,17.128 c0,1.186,0.132,2.372,0.395,3.426C6.719,34.783,0,42.424,0,51.515C0,61.66,8.169,69.829,18.314,69.829h63.373 C91.831,69.829,100,61.66,100,51.515C99.868,42.556,93.281,35.046,84.717,33.597z" fill="rgba(221, 226, 231, 0.3372379032258064)" transform="scale(0.55)"></path>
</g><g transform="translate(-100 19.567619040313577) rotate(0)">
  <animateTransform attributeName="transform" type="translate" keyTimes="0;1" values="-100 19.567619040313577;2188 19.567619040313577" dur="71.42857142857143s" repeatCount="indefinite" begin="-6.146067462370786s"></animateTransform>
  <path d="M84.717,33.597c0.791-2.503,1.186-5.138,1.186-7.773C85.903,11.594,74.308,0,60.079,0 c-9.881,0-18.445,5.534-22.793,13.702c-1.581-0.527-3.426-0.791-5.138-0.791c-9.486,0-17.128,7.642-17.128,17.128 c0,1.186,0.132,2.372,0.395,3.426C6.719,34.783,0,42.424,0,51.515C0,61.66,8.169,69.829,18.314,69.829h63.373 C91.831,69.829,100,61.66,100,51.515C99.868,42.556,93.281,35.046,84.717,33.597z" fill="rgba(221, 226, 231, 0.3372379032258064)" transform="scale(0.7)"></path>
</g><g transform="translate(-100 272.08841412706204) rotate(0)">
  <animateTransform attributeName="transform" type="translate" keyTimes="0;1" values="-100 272.08841412706204;2188 272.08841412706204" dur="71.42857142857143s" repeatCount="indefinite" begin="-4.92604917460282s"></animateTransform>
  <path d="M84.717,33.597c0.791-2.503,1.186-5.138,1.186-7.773C85.903,11.594,74.308,0,60.079,0 c-9.881,0-18.445,5.534-22.793,13.702c-1.581-0.527-3.426-0.791-5.138-0.791c-9.486,0-17.128,7.642-17.128,17.128 c0,1.186,0.132,2.372,0.395,3.426C6.719,34.783,0,42.424,0,51.515C0,61.66,8.169,69.829,18.314,69.829h63.373 C91.831,69.829,100,61.66,100,51.515C99.868,42.556,93.281,35.046,84.717,33.597z" fill="rgba(221, 226, 231, 0.3372379032258064)" transform="scale(0.7)"></path>
</g><g transform="translate(-100 1213.9020535573052) rotate(0)">
  <animateTransform attributeName="transform" type="translate" keyTimes="0;1" values="-100 1213.9020535573052;2188 1213.9020535573052" dur="71.42857142857143s" repeatCount="indefinite" begin="-30.62674613093565s"></animateTransform>
  <path d="M84.717,33.597c0.791-2.503,1.186-5.138,1.186-7.773C85.903,11.594,74.308,0,60.079,0 c-9.881,0-18.445,5.534-22.793,13.702c-1.581-0.527-3.426-0.791-5.138-0.791c-9.486,0-17.128,7.642-17.128,17.128 c0,1.186,0.132,2.372,0.395,3.426C6.719,34.783,0,42.424,0,51.515C0,61.66,8.169,69.829,18.314,69.829h63.373 C91.831,69.829,100,61.66,100,51.515C99.868,42.556,93.281,35.046,84.717,33.597z" fill="rgba(221, 226, 231, 0.3372379032258064)" transform="scale(0.7)"></path>
</g><g transform="translate(-100 590.6723819874885) rotate(0)">
  <animateTransform attributeName="transform" type="translate" keyTimes="0;1" values="-100 590.6723819874885;2188 590.6723819874885" dur="71.42857142857143s" repeatCount="indefinite" begin="-123.58012732014775s"></animateTransform>
  <path d="M84.717,33.597c0.791-2.503,1.186-5.138,1.186-7.773C85.903,11.594,74.308,0,60.079,0 c-9.881,0-18.445,5.534-22.793,13.702c-1.581-0.527-3.426-0.791-5.138-0.791c-9.486,0-17.128,7.642-17.128,17.128 c0,1.186,0.132,2.372,0.395,3.426C6.719,34.783,0,42.424,0,51.515C0,61.66,8.169,69.829,18.314,69.829h63.373 C91.831,69.829,100,61.66,100,51.515C99.868,42.556,93.281,35.046,84.717,33.597z" fill="rgba(221, 226, 231, 0.3372379032258064)" transform="scale(0.7)"></path>
</g><g transform="translate(-100 77.93593242021898) rotate(0)">
  <animateTransform attributeName="transform" type="translate" keyTimes="0;1" values="-100 77.93593242021898;2188 77.93593242021898" dur="71.42857142857143s" repeatCount="indefinite" begin="-0.3238658468719561s"></animateTransform>
  <path d="M84.717,33.597c0.791-2.503,1.186-5.138,1.186-7.773C85.903,11.594,74.308,0,60.079,0 c-9.881,0-18.445,5.534-22.793,13.702c-1.581-0.527-3.426-0.791-5.138-0.791c-9.486,0-17.128,7.642-17.128,17.128 c0,1.186,0.132,2.372,0.395,3.426C6.719,34.783,0,42.424,0,51.515C0,61.66,8.169,69.829,18.314,69.829h63.373 C91.831,69.829,100,61.66,100,51.515C99.868,42.556,93.281,35.046,84.717,33.597z" fill="rgba(221, 226, 231, 0.3372379032258064)" transform="scale(0.7)"></path>
</g><g transform="translate(-100 570.5278096248456) rotate(0)">
  <animateTransform attributeName="transform" type="translate" keyTimes="0;1" values="-100 570.5278096248456;2188 570.5278096248456" dur="71.42857142857143s" repeatCount="indefinite" begin="-137.19056844556903s"></animateTransform>
  <path d="M84.717,33.597c0.791-2.503,1.186-5.138,1.186-7.773C85.903,11.594,74.308,0,60.079,0 c-9.881,0-18.445,5.534-22.793,13.702c-1.581-0.527-3.426-0.791-5.138-0.791c-9.486,0-17.128,7.642-17.128,17.128 c0,1.186,0.132,2.372,0.395,3.426C6.719,34.783,0,42.424,0,51.515C0,61.66,8.169,69.829,18.314,69.829h63.373 C91.831,69.829,100,61.66,100,51.515C99.868,42.556,93.281,35.046,84.717,33.597z" fill="rgba(221, 226, 231, 0.3372379032258064)" transform="scale(0.7)"></path>
</g><g transform="translate(-100 982.0776003066337) rotate(0)">
  <animateTransform attributeName="transform" type="translate" keyTimes="0;1" values="-100 982.0776003066337;2188 982.0776003066337" dur="71.42857142857143s" repeatCount="indefinite" begin="-7.990721831959353s"></animateTransform>
  <path d="M84.717,33.597c0.791-2.503,1.186-5.138,1.186-7.773C85.903,11.594,74.308,0,60.079,0 c-9.881,0-18.445,5.534-22.793,13.702c-1.581-0.527-3.426-0.791-5.138-0.791c-9.486,0-17.128,7.642-17.128,17.128 c0,1.186,0.132,2.372,0.395,3.426C6.719,34.783,0,42.424,0,51.515C0,61.66,8.169,69.829,18.314,69.829h63.373 C91.831,69.829,100,61.66,100,51.515C99.868,42.556,93.281,35.046,84.717,33.597z" fill="rgba(221, 226, 231, 0.3372379032258064)" transform="scale(0.7)"></path>
</g><g transform="translate(-100 204.97309100730797) rotate(0)">
  <animateTransform attributeName="transform" type="translate" keyTimes="0;1" values="-100 204.97309100730797;2188 204.97309100730797" dur="71.42857142857143s" repeatCount="indefinite" begin="-47.9156732410385s"></animateTransform>
  <path d="M84.717,33.597c0.791-2.503,1.186-5.138,1.186-7.773C85.903,11.594,74.308,0,60.079,0 c-9.881,0-18.445,5.534-22.793,13.702c-1.581-0.527-3.426-0.791-5.138-0.791c-9.486,0-17.128,7.642-17.128,17.128 c0,1.186,0.132,2.372,0.395,3.426C6.719,34.783,0,42.424,0,51.515C0,61.66,8.169,69.829,18.314,69.829h63.373 C91.831,69.829,100,61.66,100,51.515C99.868,42.556,93.281,35.046,84.717,33.597z" fill="rgba(221, 226, 231, 0.3372379032258064)" transform="scale(0.7)"></path>
</g><g transform="translate(-100 309.76694264605305) rotate(0)">
  <animateTransform attributeName="transform" type="translate" keyTimes="0;1" values="-100 309.76694264605305;2188 309.76694264605305" dur="71.42857142857143s" repeatCount="indefinite" begin="-106.72465523825072s"></animateTransform>
  <path d="M84.717,33.597c0.791-2.503,1.186-5.138,1.186-7.773C85.903,11.594,74.308,0,60.079,0 c-9.881,0-18.445,5.534-22.793,13.702c-1.581-0.527-3.426-0.791-5.138-0.791c-9.486,0-17.128,7.642-17.128,17.128 c0,1.186,0.132,2.372,0.395,3.426C6.719,34.783,0,42.424,0,51.515C0,61.66,8.169,69.829,18.314,69.829h63.373 C91.831,69.829,100,61.66,100,51.515C99.868,42.556,93.281,35.046,84.717,33.597z" fill="rgba(221, 226, 231, 0.3372379032258064)" transform="scale(0.7)"></path>
</g><g transform="translate(-100 801.4236476096073) rotate(0)">
  <animateTransform attributeName="transform" type="translate" keyTimes="0;1" values="-100 801.4236476096073;2188 801.4236476096073" dur="71.42857142857143s" repeatCount="indefinite" begin="-31.292707527374944s"></animateTransform>
  <path d="M84.717,33.597c0.791-2.503,1.186-5.138,1.186-7.773C85.903,11.594,74.308,0,60.079,0 c-9.881,0-18.445,5.534-22.793,13.702c-1.581-0.527-3.426-0.791-5.138-0.791c-9.486,0-17.128,7.642-17.128,17.128 c0,1.186,0.132,2.372,0.395,3.426C6.719,34.783,0,42.424,0,51.515C0,61.66,8.169,69.829,18.314,69.829h63.373 C91.831,69.829,100,61.66,100,51.515C99.868,42.556,93.281,35.046,84.717,33.597z" fill="rgba(221, 226, 231, 0.3372379032258064)" transform="scale(0.7)"></path>
</g><g transform="translate(-100 1217.5847601874452) rotate(0)">
  <animateTransform attributeName="transform" type="translate" keyTimes="0;1" values="-100 1217.5847601874452;2188 1217.5847601874452" dur="71.42857142857143s" repeatCount="indefinite" begin="-3.833318889900493s"></animateTransform>
  <path d="M84.717,33.597c0.791-2.503,1.186-5.138,1.186-7.773C85.903,11.594,74.308,0,60.079,0 c-9.881,0-18.445,5.534-22.793,13.702c-1.581-0.527-3.426-0.791-5.138-0.791c-9.486,0-17.128,7.642-17.128,17.128 c0,1.186,0.132,2.372,0.395,3.426C6.719,34.783,0,42.424,0,51.515C0,61.66,8.169,69.829,18.314,69.829h63.373 C91.831,69.829,100,61.66,100,51.515C99.868,42.556,93.281,35.046,84.717,33.597z" fill="rgba(221, 226, 231, 0.3372379032258064)" transform="scale(0.7)"></path>
</g><g transform="translate(-100 947.9773734614027) rotate(0)">
  <animateTransform attributeName="transform" type="translate" keyTimes="0;1" values="-100 947.9773734614027;2188 947.9773734614027" dur="71.42857142857143s" repeatCount="indefinite" begin="-61.38321058987963s"></animateTransform>
  <path d="M84.717,33.597c0.791-2.503,1.186-5.138,1.186-7.773C85.903,11.594,74.308,0,60.079,0 c-9.881,0-18.445,5.534-22.793,13.702c-1.581-0.527-3.426-0.791-5.138-0.791c-9.486,0-17.128,7.642-17.128,17.128 c0,1.186,0.132,2.372,0.395,3.426C6.719,34.783,0,42.424,0,51.515C0,61.66,8.169,69.829,18.314,69.829h63.373 C91.831,69.829,100,61.66,100,51.515C99.868,42.556,93.281,35.046,84.717,33.597z" fill="rgba(221, 226, 231, 0.3372379032258064)" transform="scale(0.7)"></path>
</g><g transform="translate(-100 703.25154547811) rotate(0)">
  <animateTransform attributeName="transform" type="translate" keyTimes="0;1" values="-100 703.25154547811;2188 703.25154547811" dur="71.42857142857143s" repeatCount="indefinite" begin="-126.08912791532696s"></animateTransform>
  <path d="M84.717,33.597c0.791-2.503,1.186-5.138,1.186-7.773C85.903,11.594,74.308,0,60.079,0 c-9.881,0-18.445,5.534-22.793,13.702c-1.581-0.527-3.426-0.791-5.138-0.791c-9.486,0-17.128,7.642-17.128,17.128 c0,1.186,0.132,2.372,0.395,3.426C6.719,34.783,0,42.424,0,51.515C0,61.66,8.169,69.829,18.314,69.829h63.373 C91.831,69.829,100,61.66,100,51.515C99.868,42.556,93.281,35.046,84.717,33.597z" fill="rgba(221, 226, 231, 0.3372379032258064)" transform="scale(0.7)"></path>
</g><g transform="translate(-100 372.56049303283424) rotate(0)">
  <animateTransform attributeName="transform" type="translate" keyTimes="0;1" values="-100 372.56049303283424;2188 372.56049303283424" dur="71.42857142857143s" repeatCount="indefinite" begin="-81.74529562229242s"></animateTransform>
  <path d="M84.717,33.597c0.791-2.503,1.186-5.138,1.186-7.773C85.903,11.594,74.308,0,60.079,0 c-9.881,0-18.445,5.534-22.793,13.702c-1.581-0.527-3.426-0.791-5.138-0.791c-9.486,0-17.128,7.642-17.128,17.128 c0,1.186,0.132,2.372,0.395,3.426C6.719,34.783,0,42.424,0,51.515C0,61.66,8.169,69.829,18.314,69.829h63.373 C91.831,69.829,100,61.66,100,51.515C99.868,42.556,93.281,35.046,84.717,33.597z" fill="rgba(221, 226, 231, 0.3372379032258064)" transform="scale(0.7)"></path>
</g><g transform="translate(-100 62.5443368874284) rotate(0)">
  <animateTransform attributeName="transform" type="translate" keyTimes="0;1" values="-100 62.5443368874284;2188 62.5443368874284" dur="71.42857142857143s" repeatCount="indefinite" begin="-122.99600377436369s"></animateTransform>
  <path d="M84.717,33.597c0.791-2.503,1.186-5.138,1.186-7.773C85.903,11.594,74.308,0,60.079,0 c-9.881,0-18.445,5.534-22.793,13.702c-1.581-0.527-3.426-0.791-5.138-0.791c-9.486,0-17.128,7.642-17.128,17.128 c0,1.186,0.132,2.372,0.395,3.426C6.719,34.783,0,42.424,0,51.515C0,61.66,8.169,69.829,18.314,69.829h63.373 C91.831,69.829,100,61.66,100,51.515C99.868,42.556,93.281,35.046,84.717,33.597z" fill="rgba(221, 226, 231, 0.3372379032258064)" transform="scale(0.7)"></path>
</g><g transform="translate(-100 552.633048477283) rotate(0)">
  <animateTransform attributeName="transform" type="translate" keyTimes="0;1" values="-100 552.633048477283;2188 552.633048477283" dur="71.42857142857143s" repeatCount="indefinite" begin="-13.299667338210515s"></animateTransform>
  <path d="M84.717,33.597c0.791-2.503,1.186-5.138,1.186-7.773C85.903,11.594,74.308,0,60.079,0 c-9.881,0-18.445,5.534-22.793,13.702c-1.581-0.527-3.426-0.791-5.138-0.791c-9.486,0-17.128,7.642-17.128,17.128 c0,1.186,0.132,2.372,0.395,3.426C6.719,34.783,0,42.424,0,51.515C0,61.66,8.169,69.829,18.314,69.829h63.373 C91.831,69.829,100,61.66,100,51.515C99.868,42.556,93.281,35.046,84.717,33.597z" fill="rgba(221, 226, 231, 0.3372379032258064)" transform="scale(0.7)"></path>
</g><g transform="translate(-100 129.58479800247184) rotate(0)">
  <animateTransform attributeName="transform" type="translate" keyTimes="0;1" values="-100 129.58479800247184;2188 129.58479800247184" dur="71.42857142857143s" repeatCount="indefinite" begin="-122.9796845135594s"></animateTransform>
  <path d="M84.717,33.597c0.791-2.503,1.186-5.138,1.186-7.773C85.903,11.594,74.308,0,60.079,0 c-9.881,0-18.445,5.534-22.793,13.702c-1.581-0.527-3.426-0.791-5.138-0.791c-9.486,0-17.128,7.642-17.128,17.128 c0,1.186,0.132,2.372,0.395,3.426C6.719,34.783,0,42.424,0,51.515C0,61.66,8.169,69.829,18.314,69.829h63.373 C91.831,69.829,100,61.66,100,51.515C99.868,42.556,93.281,35.046,84.717,33.597z" fill="rgba(221, 226, 231, 0.3372379032258064)" transform="scale(0.7)"></path>
</g><g transform="translate(-100 1185.5368494579764) rotate(0)">
  <animateTransform attributeName="transform" type="translate" keyTimes="0;1" values="-100 1185.5368494579764;2188 1185.5368494579764" dur="71.42857142857143s" repeatCount="indefinite" begin="-61.551374359842406s"></animateTransform>
  <path d="M84.717,33.597c0.791-2.503,1.186-5.138,1.186-7.773C85.903,11.594,74.308,0,60.079,0 c-9.881,0-18.445,5.534-22.793,13.702c-1.581-0.527-3.426-0.791-5.138-0.791c-9.486,0-17.128,7.642-17.128,17.128 c0,1.186,0.132,2.372,0.395,3.426C6.719,34.783,0,42.424,0,51.515C0,61.66,8.169,69.829,18.314,69.829h63.373 C91.831,69.829,100,61.66,100,51.515C99.868,42.556,93.281,35.046,84.717,33.597z" fill="rgba(221, 226, 231, 0.3372379032258064)" transform="scale(0.7)"></path>
</g><g transform="translate(-100 356.33774265516837) rotate(0)">
  <animateTransform attributeName="transform" type="translate" keyTimes="0;1" values="-100 356.33774265516837;2188 356.33774265516837" dur="71.42857142857143s" repeatCount="indefinite" begin="-66.9956099289059s"></animateTransform>
  <path d="M84.717,33.597c0.791-2.503,1.186-5.138,1.186-7.773C85.903,11.594,74.308,0,60.079,0 c-9.881,0-18.445,5.534-22.793,13.702c-1.581-0.527-3.426-0.791-5.138-0.791c-9.486,0-17.128,7.642-17.128,17.128 c0,1.186,0.132,2.372,0.395,3.426C6.719,34.783,0,42.424,0,51.515C0,61.66,8.169,69.829,18.314,69.829h63.373 C91.831,69.829,100,61.66,100,51.515C99.868,42.556,93.281,35.046,84.717,33.597z" fill="rgba(221, 226, 231, 0.3372379032258064)" transform="scale(0.7)"></path>
</g><g transform="translate(-100 694.0582977254847) rotate(0)">
  <animateTransform attributeName="transform" type="translate" keyTimes="0;1" values="-100 694.0582977254847;2188 694.0582977254847" dur="71.42857142857143s" repeatCount="indefinite" begin="-112.29816670808293s"></animateTransform>
  <path d="M84.717,33.597c0.791-2.503,1.186-5.138,1.186-7.773C85.903,11.594,74.308,0,60.079,0 c-9.881,0-18.445,5.534-22.793,13.702c-1.581-0.527-3.426-0.791-5.138-0.791c-9.486,0-17.128,7.642-17.128,17.128 c0,1.186,0.132,2.372,0.395,3.426C6.719,34.783,0,42.424,0,51.515C0,61.66,8.169,69.829,18.314,69.829h63.373 C91.831,69.829,100,61.66,100,51.515C99.868,42.556,93.281,35.046,84.717,33.597z" fill="rgba(221, 226, 231, 0.3372379032258064)" transform="scale(0.7)"></path>
</g><g transform="translate(-100 89.25364810461076) rotate(0)">
  <animateTransform attributeName="transform" type="translate" keyTimes="0;1" values="-100 89.25364810461076;2188 89.25364810461076" dur="71.42857142857143s" repeatCount="indefinite" begin="-105.29834887034791s"></animateTransform>
  <path d="M84.717,33.597c0.791-2.503,1.186-5.138,1.186-7.773C85.903,11.594,74.308,0,60.079,0 c-9.881,0-18.445,5.534-22.793,13.702c-1.581-0.527-3.426-0.791-5.138-0.791c-9.486,0-17.128,7.642-17.128,17.128 c0,1.186,0.132,2.372,0.395,3.426C6.719,34.783,0,42.424,0,51.515C0,61.66,8.169,69.829,18.314,69.829h63.373 C91.831,69.829,100,61.66,100,51.515C99.868,42.556,93.281,35.046,84.717,33.597z" fill="rgba(221, 226, 231, 0.3372379032258064)" transform="scale(0.7)"></path>
</g><g transform="translate(-100 246.41669692803845) rotate(0)">
  <animateTransform attributeName="transform" type="translate" keyTimes="0;1" values="-100 246.41669692803845;2188 246.41669692803845" dur="71.42857142857143s" repeatCount="indefinite" begin="-53.30204267808766s"></animateTransform>
  <path d="M84.717,33.597c0.791-2.503,1.186-5.138,1.186-7.773C85.903,11.594,74.308,0,60.079,0 c-9.881,0-18.445,5.534-22.793,13.702c-1.581-0.527-3.426-0.791-5.138-0.791c-9.486,0-17.128,7.642-17.128,17.128 c0,1.186,0.132,2.372,0.395,3.426C6.719,34.783,0,42.424,0,51.515C0,61.66,8.169,69.829,18.314,69.829h63.373 C91.831,69.829,100,61.66,100,51.515C99.868,42.556,93.281,35.046,84.717,33.597z" fill="rgba(221, 226, 231, 0.3372379032258064)" transform="scale(0.7)"></path>
</g><g transform="translate(-100 113.69218798871218) rotate(0)">
  <animateTransform attributeName="transform" type="translate" keyTimes="0;1" values="-100 113.69218798871218;2188 113.69218798871218" dur="71.42857142857143s" repeatCount="indefinite" begin="-134.86887881888234s"></animateTransform>
  <path d="M84.717,33.597c0.791-2.503,1.186-5.138,1.186-7.773C85.903,11.594,74.308,0,60.079,0 c-9.881,0-18.445,5.534-22.793,13.702c-1.581-0.527-3.426-0.791-5.138-0.791c-9.486,0-17.128,7.642-17.128,17.128 c0,1.186,0.132,2.372,0.395,3.426C6.719,34.783,0,42.424,0,51.515C0,61.66,8.169,69.829,18.314,69.829h63.373 C91.831,69.829,100,61.66,100,51.515C99.868,42.556,93.281,35.046,84.717,33.597z" fill="rgba(221, 226, 231, 0.3372379032258064)" transform="scale(0.7)"></path>
</g><g transform="translate(-100 1049.3000365501375) rotate(0)">
  <animateTransform attributeName="transform" type="translate" keyTimes="0;1" values="-100 1049.3000365501375;2188 1049.3000365501375" dur="71.42857142857143s" repeatCount="indefinite" begin="-12.954703913779841s"></animateTransform>
  <path d="M84.717,33.597c0.791-2.503,1.186-5.138,1.186-7.773C85.903,11.594,74.308,0,60.079,0 c-9.881,0-18.445,5.534-22.793,13.702c-1.581-0.527-3.426-0.791-5.138-0.791c-9.486,0-17.128,7.642-17.128,17.128 c0,1.186,0.132,2.372,0.395,3.426C6.719,34.783,0,42.424,0,51.515C0,61.66,8.169,69.829,18.314,69.829h63.373 C91.831,69.829,100,61.66,100,51.515C99.868,42.556,93.281,35.046,84.717,33.597z" fill="rgba(221, 226, 231, 0.3372379032258064)" transform="scale(0.7)"></path>
</g><g transform="translate(-100 676.9803313720541) rotate(0)">
  <animateTransform attributeName="transform" type="translate" keyTimes="0;1" values="-100 676.9803313720541;2188 676.9803313720541" dur="71.42857142857143s" repeatCount="indefinite" begin="-81.55371753228421s"></animateTransform>
  <path d="M84.717,33.597c0.791-2.503,1.186-5.138,1.186-7.773C85.903,11.594,74.308,0,60.079,0 c-9.881,0-18.445,5.534-22.793,13.702c-1.581-0.527-3.426-0.791-5.138-0.791c-9.486,0-17.128,7.642-17.128,17.128 c0,1.186,0.132,2.372,0.395,3.426C6.719,34.783,0,42.424,0,51.515C0,61.66,8.169,69.829,18.314,69.829h63.373 C91.831,69.829,100,61.66,100,51.515C99.868,42.556,93.281,35.046,84.717,33.597z" fill="rgba(221, 226, 231, 0.3372379032258064)" transform="scale(0.7)"></path>
</g><g transform="translate(-100 162.28612960510077) rotate(0)">
  <animateTransform attributeName="transform" type="translate" keyTimes="0;1" values="-100 162.28612960510077;2188 162.28612960510077" dur="47.61904761904762s" repeatCount="indefinite" begin="-31.574624886779013s"></animateTransform>
  <path d="M84.717,33.597c0.791-2.503,1.186-5.138,1.186-7.773C85.903,11.594,74.308,0,60.079,0 c-9.881,0-18.445,5.534-22.793,13.702c-1.581-0.527-3.426-0.791-5.138-0.791c-9.486,0-17.128,7.642-17.128,17.128 c0,1.186,0.132,2.372,0.395,3.426C6.719,34.783,0,42.424,0,51.515C0,61.66,8.169,69.829,18.314,69.829h63.373 C91.831,69.829,100,61.66,100,51.515C99.868,42.556,93.281,35.046,84.717,33.597z" fill="rgba(221, 226, 231, 0.3372379032258064)" transform="scale(0.85)"></path>
</g><g transform="translate(-100 544.9856349469783) rotate(0)">
  <animateTransform attributeName="transform" type="translate" keyTimes="0;1" values="-100 544.9856349469783;2188 544.9856349469783" dur="47.61904761904762s" repeatCount="indefinite" begin="-60.2318086041108s"></animateTransform>
  <path d="M84.717,33.597c0.791-2.503,1.186-5.138,1.186-7.773C85.903,11.594,74.308,0,60.079,0 c-9.881,0-18.445,5.534-22.793,13.702c-1.581-0.527-3.426-0.791-5.138-0.791c-9.486,0-17.128,7.642-17.128,17.128 c0,1.186,0.132,2.372,0.395,3.426C6.719,34.783,0,42.424,0,51.515C0,61.66,8.169,69.829,18.314,69.829h63.373 C91.831,69.829,100,61.66,100,51.515C99.868,42.556,93.281,35.046,84.717,33.597z" fill="rgba(221, 226, 231, 0.3372379032258064)" transform="scale(0.85)"></path>
</g><g transform="translate(-100 177.93053825720764) rotate(0)">
  <animateTransform attributeName="transform" type="translate" keyTimes="0;1" values="-100 177.93053825720764;2188 177.93053825720764" dur="47.61904761904762s" repeatCount="indefinite" begin="-58.576196664411924s"></animateTransform>
  <path d="M84.717,33.597c0.791-2.503,1.186-5.138,1.186-7.773C85.903,11.594,74.308,0,60.079,0 c-9.881,0-18.445,5.534-22.793,13.702c-1.581-0.527-3.426-0.791-5.138-0.791c-9.486,0-17.128,7.642-17.128,17.128 c0,1.186,0.132,2.372,0.395,3.426C6.719,34.783,0,42.424,0,51.515C0,61.66,8.169,69.829,18.314,69.829h63.373 C91.831,69.829,100,61.66,100,51.515C99.868,42.556,93.281,35.046,84.717,33.597z" fill="rgba(221, 226, 231, 0.3372379032258064)" transform="scale(0.85)"></path>
</g><g transform="translate(-100 838.4261581367616) rotate(0)">
  <animateTransform attributeName="transform" type="translate" keyTimes="0;1" values="-100 838.4261581367616;2188 838.4261581367616" dur="47.61904761904762s" repeatCount="indefinite" begin="-103.08590915217488s"></animateTransform>
  <path d="M84.717,33.597c0.791-2.503,1.186-5.138,1.186-7.773C85.903,11.594,74.308,0,60.079,0 c-9.881,0-18.445,5.534-22.793,13.702c-1.581-0.527-3.426-0.791-5.138-0.791c-9.486,0-17.128,7.642-17.128,17.128 c0,1.186,0.132,2.372,0.395,3.426C6.719,34.783,0,42.424,0,51.515C0,61.66,8.169,69.829,18.314,69.829h63.373 C91.831,69.829,100,61.66,100,51.515C99.868,42.556,93.281,35.046,84.717,33.597z" fill="rgba(221, 226, 231, 0.3372379032258064)" transform="scale(0.85)"></path>
</g><g transform="translate(-100 762.3971286033257) rotate(0)">
  <animateTransform attributeName="transform" type="translate" keyTimes="0;1" values="-100 762.3971286033257;2188 762.3971286033257" dur="47.61904761904762s" repeatCount="indefinite" begin="-60.438594421438225s"></animateTransform>
  <path d="M84.717,33.597c0.791-2.503,1.186-5.138,1.186-7.773C85.903,11.594,74.308,0,60.079,0 c-9.881,0-18.445,5.534-22.793,13.702c-1.581-0.527-3.426-0.791-5.138-0.791c-9.486,0-17.128,7.642-17.128,17.128 c0,1.186,0.132,2.372,0.395,3.426C6.719,34.783,0,42.424,0,51.515C0,61.66,8.169,69.829,18.314,69.829h63.373 C91.831,69.829,100,61.66,100,51.515C99.868,42.556,93.281,35.046,84.717,33.597z" fill="rgba(221, 226, 231, 0.3372379032258064)" transform="scale(0.85)"></path>
</g><g transform="translate(-100 618.2268866196513) rotate(0)">
  <animateTransform attributeName="transform" type="translate" keyTimes="0;1" values="-100 618.2268866196513;2188 618.2268866196513" dur="47.61904761904762s" repeatCount="indefinite" begin="-94.52732523584426s"></animateTransform>
  <path d="M84.717,33.597c0.791-2.503,1.186-5.138,1.186-7.773C85.903,11.594,74.308,0,60.079,0 c-9.881,0-18.445,5.534-22.793,13.702c-1.581-0.527-3.426-0.791-5.138-0.791c-9.486,0-17.128,7.642-17.128,17.128 c0,1.186,0.132,2.372,0.395,3.426C6.719,34.783,0,42.424,0,51.515C0,61.66,8.169,69.829,18.314,69.829h63.373 C91.831,69.829,100,61.66,100,51.515C99.868,42.556,93.281,35.046,84.717,33.597z" fill="rgba(221, 226, 231, 0.3372379032258064)" transform="scale(0.85)"></path>
</g><g transform="translate(-100 245.11458347134044) rotate(0)">
  <animateTransform attributeName="transform" type="translate" keyTimes="0;1" values="-100 245.11458347134044;2188 245.11458347134044" dur="47.61904761904762s" repeatCount="indefinite" begin="-73.73372763054603s"></animateTransform>
  <path d="M84.717,33.597c0.791-2.503,1.186-5.138,1.186-7.773C85.903,11.594,74.308,0,60.079,0 c-9.881,0-18.445,5.534-22.793,13.702c-1.581-0.527-3.426-0.791-5.138-0.791c-9.486,0-17.128,7.642-17.128,17.128 c0,1.186,0.132,2.372,0.395,3.426C6.719,34.783,0,42.424,0,51.515C0,61.66,8.169,69.829,18.314,69.829h63.373 C91.831,69.829,100,61.66,100,51.515C99.868,42.556,93.281,35.046,84.717,33.597z" fill="rgba(221, 226, 231, 0.3372379032258064)" transform="scale(0.85)"></path>
</g><g transform="translate(-100 380.22152143629125) rotate(0)">
  <animateTransform attributeName="transform" type="translate" keyTimes="0;1" values="-100 380.22152143629125;2188 380.22152143629125" dur="47.61904761904762s" repeatCount="indefinite" begin="-72.15563295428048s"></animateTransform>
  <path d="M84.717,33.597c0.791-2.503,1.186-5.138,1.186-7.773C85.903,11.594,74.308,0,60.079,0 c-9.881,0-18.445,5.534-22.793,13.702c-1.581-0.527-3.426-0.791-5.138-0.791c-9.486,0-17.128,7.642-17.128,17.128 c0,1.186,0.132,2.372,0.395,3.426C6.719,34.783,0,42.424,0,51.515C0,61.66,8.169,69.829,18.314,69.829h63.373 C91.831,69.829,100,61.66,100,51.515C99.868,42.556,93.281,35.046,84.717,33.597z" fill="rgba(221, 226, 231, 0.3372379032258064)" transform="scale(0.85)"></path>
</g><g transform="translate(-100 1220.5633178614617) rotate(0)">
  <animateTransform attributeName="transform" type="translate" keyTimes="0;1" values="-100 1220.5633178614617;2188 1220.5633178614617" dur="47.61904761904762s" repeatCount="indefinite" begin="-51.16718690842911s"></animateTransform>
  <path d="M84.717,33.597c0.791-2.503,1.186-5.138,1.186-7.773C85.903,11.594,74.308,0,60.079,0 c-9.881,0-18.445,5.534-22.793,13.702c-1.581-0.527-3.426-0.791-5.138-0.791c-9.486,0-17.128,7.642-17.128,17.128 c0,1.186,0.132,2.372,0.395,3.426C6.719,34.783,0,42.424,0,51.515C0,61.66,8.169,69.829,18.314,69.829h63.373 C91.831,69.829,100,61.66,100,51.515C99.868,42.556,93.281,35.046,84.717,33.597z" fill="rgba(221, 226, 231, 0.3372379032258064)" transform="scale(0.85)"></path>
</g><g transform="translate(-100 1127.2149369345284) rotate(0)">
  <animateTransform attributeName="transform" type="translate" keyTimes="0;1" values="-100 1127.2149369345284;2188 1127.2149369345284" dur="47.61904761904762s" repeatCount="indefinite" begin="-114.90394885817817s"></animateTransform>
  <path d="M84.717,33.597c0.791-2.503,1.186-5.138,1.186-7.773C85.903,11.594,74.308,0,60.079,0 c-9.881,0-18.445,5.534-22.793,13.702c-1.581-0.527-3.426-0.791-5.138-0.791c-9.486,0-17.128,7.642-17.128,17.128 c0,1.186,0.132,2.372,0.395,3.426C6.719,34.783,0,42.424,0,51.515C0,61.66,8.169,69.829,18.314,69.829h63.373 C91.831,69.829,100,61.66,100,51.515C99.868,42.556,93.281,35.046,84.717,33.597z" fill="rgba(221, 226, 231, 0.3372379032258064)" transform="scale(0.85)"></path>
</g><g transform="translate(-100 423.2539407111217) rotate(0)">
  <animateTransform attributeName="transform" type="translate" keyTimes="0;1" values="-100 423.2539407111217;2188 423.2539407111217" dur="47.61904761904762s" repeatCount="indefinite" begin="-127.63239875336801s"></animateTransform>
  <path d="M84.717,33.597c0.791-2.503,1.186-5.138,1.186-7.773C85.903,11.594,74.308,0,60.079,0 c-9.881,0-18.445,5.534-22.793,13.702c-1.581-0.527-3.426-0.791-5.138-0.791c-9.486,0-17.128,7.642-17.128,17.128 c0,1.186,0.132,2.372,0.395,3.426C6.719,34.783,0,42.424,0,51.515C0,61.66,8.169,69.829,18.314,69.829h63.373 C91.831,69.829,100,61.66,100,51.515C99.868,42.556,93.281,35.046,84.717,33.597z" fill="rgba(221, 226, 231, 0.3372379032258064)" transform="scale(0.85)"></path>
</g><g transform="translate(-100 66.53022918364732) rotate(0)">
  <animateTransform attributeName="transform" type="translate" keyTimes="0;1" values="-100 66.53022918364732;2188 66.53022918364732" dur="47.61904761904762s" repeatCount="indefinite" begin="-126.69202258397961s"></animateTransform>
  <path d="M84.717,33.597c0.791-2.503,1.186-5.138,1.186-7.773C85.903,11.594,74.308,0,60.079,0 c-9.881,0-18.445,5.534-22.793,13.702c-1.581-0.527-3.426-0.791-5.138-0.791c-9.486,0-17.128,7.642-17.128,17.128 c0,1.186,0.132,2.372,0.395,3.426C6.719,34.783,0,42.424,0,51.515C0,61.66,8.169,69.829,18.314,69.829h63.373 C91.831,69.829,100,61.66,100,51.515C99.868,42.556,93.281,35.046,84.717,33.597z" fill="rgba(221, 226, 231, 0.3372379032258064)" transform="scale(0.85)"></path>
</g><g transform="translate(-100 913.6499971781016) rotate(0)">
  <animateTransform attributeName="transform" type="translate" keyTimes="0;1" values="-100 913.6499971781016;2188 913.6499971781016" dur="47.61904761904762s" repeatCount="indefinite" begin="-103.54487229465377s"></animateTransform>
  <path d="M84.717,33.597c0.791-2.503,1.186-5.138,1.186-7.773C85.903,11.594,74.308,0,60.079,0 c-9.881,0-18.445,5.534-22.793,13.702c-1.581-0.527-3.426-0.791-5.138-0.791c-9.486,0-17.128,7.642-17.128,17.128 c0,1.186,0.132,2.372,0.395,3.426C6.719,34.783,0,42.424,0,51.515C0,61.66,8.169,69.829,18.314,69.829h63.373 C91.831,69.829,100,61.66,100,51.515C99.868,42.556,93.281,35.046,84.717,33.597z" fill="rgba(221, 226, 231, 0.3372379032258064)" transform="scale(0.85)"></path>
</g><g transform="translate(-100 693.7928195322088) rotate(0)">
  <animateTransform attributeName="transform" type="translate" keyTimes="0;1" values="-100 693.7928195322088;2188 693.7928195322088" dur="47.61904761904762s" repeatCount="indefinite" begin="-73.89489255215685s"></animateTransform>
  <path d="M84.717,33.597c0.791-2.503,1.186-5.138,1.186-7.773C85.903,11.594,74.308,0,60.079,0 c-9.881,0-18.445,5.534-22.793,13.702c-1.581-0.527-3.426-0.791-5.138-0.791c-9.486,0-17.128,7.642-17.128,17.128 c0,1.186,0.132,2.372,0.395,3.426C6.719,34.783,0,42.424,0,51.515C0,61.66,8.169,69.829,18.314,69.829h63.373 C91.831,69.829,100,61.66,100,51.515C99.868,42.556,93.281,35.046,84.717,33.597z" fill="rgba(221, 226, 231, 0.3372379032258064)" transform="scale(0.85)"></path>
</g><g transform="translate(-100 363.0135177018141) rotate(0)">
  <animateTransform attributeName="transform" type="translate" keyTimes="0;1" values="-100 363.0135177018141;2188 363.0135177018141" dur="47.61904761904762s" repeatCount="indefinite" begin="-125.00727634677645s"></animateTransform>
  <path d="M84.717,33.597c0.791-2.503,1.186-5.138,1.186-7.773C85.903,11.594,74.308,0,60.079,0 c-9.881,0-18.445,5.534-22.793,13.702c-1.581-0.527-3.426-0.791-5.138-0.791c-9.486,0-17.128,7.642-17.128,17.128 c0,1.186,0.132,2.372,0.395,3.426C6.719,34.783,0,42.424,0,51.515C0,61.66,8.169,69.829,18.314,69.829h63.373 C91.831,69.829,100,61.66,100,51.515C99.868,42.556,93.281,35.046,84.717,33.597z" fill="rgba(221, 226, 231, 0.3372379032258064)" transform="scale(0.85)"></path>
</g><g transform="translate(-100 138.53576365946412) rotate(0)">
  <animateTransform attributeName="transform" type="translate" keyTimes="0;1" values="-100 138.53576365946412;2188 138.53576365946412" dur="47.61904761904762s" repeatCount="indefinite" begin="-3.251137645738097s"></animateTransform>
  <path d="M84.717,33.597c0.791-2.503,1.186-5.138,1.186-7.773C85.903,11.594,74.308,0,60.079,0 c-9.881,0-18.445,5.534-22.793,13.702c-1.581-0.527-3.426-0.791-5.138-0.791c-9.486,0-17.128,7.642-17.128,17.128 c0,1.186,0.132,2.372,0.395,3.426C6.719,34.783,0,42.424,0,51.515C0,61.66,8.169,69.829,18.314,69.829h63.373 C91.831,69.829,100,61.66,100,51.515C99.868,42.556,93.281,35.046,84.717,33.597z" fill="rgba(221, 226, 231, 0.3372379032258064)" transform="scale(0.85)"></path>
</g><g transform="translate(-100 752.3596222031274) rotate(0)">
  <animateTransform attributeName="transform" type="translate" keyTimes="0;1" values="-100 752.3596222031274;2188 752.3596222031274" dur="47.61904761904762s" repeatCount="indefinite" begin="-133.2285153823951s"></animateTransform>
  <path d="M84.717,33.597c0.791-2.503,1.186-5.138,1.186-7.773C85.903,11.594,74.308,0,60.079,0 c-9.881,0-18.445,5.534-22.793,13.702c-1.581-0.527-3.426-0.791-5.138-0.791c-9.486,0-17.128,7.642-17.128,17.128 c0,1.186,0.132,2.372,0.395,3.426C6.719,34.783,0,42.424,0,51.515C0,61.66,8.169,69.829,18.314,69.829h63.373 C91.831,69.829,100,61.66,100,51.515C99.868,42.556,93.281,35.046,84.717,33.597z" fill="rgba(221, 226, 231, 0.3372379032258064)" transform="scale(0.85)"></path>
</g><g transform="translate(-100 930.2651579644004) rotate(0)">
  <animateTransform attributeName="transform" type="translate" keyTimes="0;1" values="-100 930.2651579644004;2188 930.2651579644004" dur="47.61904761904762s" repeatCount="indefinite" begin="-98.20962198007565s"></animateTransform>
  <path d="M84.717,33.597c0.791-2.503,1.186-5.138,1.186-7.773C85.903,11.594,74.308,0,60.079,0 c-9.881,0-18.445,5.534-22.793,13.702c-1.581-0.527-3.426-0.791-5.138-0.791c-9.486,0-17.128,7.642-17.128,17.128 c0,1.186,0.132,2.372,0.395,3.426C6.719,34.783,0,42.424,0,51.515C0,61.66,8.169,69.829,18.314,69.829h63.373 C91.831,69.829,100,61.66,100,51.515C99.868,42.556,93.281,35.046,84.717,33.597z" fill="rgba(221, 226, 231, 0.3372379032258064)" transform="scale(0.85)"></path>
</g><g transform="translate(-100 371.92521527465794) rotate(0)">
  <animateTransform attributeName="transform" type="translate" keyTimes="0;1" values="-100 371.92521527465794;2188 371.92521527465794" dur="47.61904761904762s" repeatCount="indefinite" begin="-43.953192315431934s"></animateTransform>
  <path d="M84.717,33.597c0.791-2.503,1.186-5.138,1.186-7.773C85.903,11.594,74.308,0,60.079,0 c-9.881,0-18.445,5.534-22.793,13.702c-1.581-0.527-3.426-0.791-5.138-0.791c-9.486,0-17.128,7.642-17.128,17.128 c0,1.186,0.132,2.372,0.395,3.426C6.719,34.783,0,42.424,0,51.515C0,61.66,8.169,69.829,18.314,69.829h63.373 C91.831,69.829,100,61.66,100,51.515C99.868,42.556,93.281,35.046,84.717,33.597z" fill="rgba(221, 226, 231, 0.3372379032258064)" transform="scale(0.85)"></path>
</g><g transform="translate(-100 1150.9658541861288) rotate(0)">
  <animateTransform attributeName="transform" type="translate" keyTimes="0;1" values="-100 1150.9658541861288;2188 1150.9658541861288" dur="47.61904761904762s" repeatCount="indefinite" begin="-104.77675064017232s"></animateTransform>
  <path d="M84.717,33.597c0.791-2.503,1.186-5.138,1.186-7.773C85.903,11.594,74.308,0,60.079,0 c-9.881,0-18.445,5.534-22.793,13.702c-1.581-0.527-3.426-0.791-5.138-0.791c-9.486,0-17.128,7.642-17.128,17.128 c0,1.186,0.132,2.372,0.395,3.426C6.719,34.783,0,42.424,0,51.515C0,61.66,8.169,69.829,18.314,69.829h63.373 C91.831,69.829,100,61.66,100,51.515C99.868,42.556,93.281,35.046,84.717,33.597z" fill="rgba(221, 226, 231, 0.3372379032258064)" transform="scale(0.85)"></path>
</g><g transform="translate(-100 507.1255984929114) rotate(0)">
  <animateTransform attributeName="transform" type="translate" keyTimes="0;1" values="-100 507.1255984929114;2188 507.1255984929114" dur="47.61904761904762s" repeatCount="indefinite" begin="-96.50433845838835s"></animateTransform>
  <path d="M84.717,33.597c0.791-2.503,1.186-5.138,1.186-7.773C85.903,11.594,74.308,0,60.079,0 c-9.881,0-18.445,5.534-22.793,13.702c-1.581-0.527-3.426-0.791-5.138-0.791c-9.486,0-17.128,7.642-17.128,17.128 c0,1.186,0.132,2.372,0.395,3.426C6.719,34.783,0,42.424,0,51.515C0,61.66,8.169,69.829,18.314,69.829h63.373 C91.831,69.829,100,61.66,100,51.515C99.868,42.556,93.281,35.046,84.717,33.597z" fill="rgba(221, 226, 231, 0.3372379032258064)" transform="scale(0.85)"></path>
</g><g transform="translate(-100 377.2756253914096) rotate(0)">
  <animateTransform attributeName="transform" type="translate" keyTimes="0;1" values="-100 377.2756253914096;2188 377.2756253914096" dur="47.61904761904762s" repeatCount="indefinite" begin="-126.79072216249605s"></animateTransform>
  <path d="M84.717,33.597c0.791-2.503,1.186-5.138,1.186-7.773C85.903,11.594,74.308,0,60.079,0 c-9.881,0-18.445,5.534-22.793,13.702c-1.581-0.527-3.426-0.791-5.138-0.791c-9.486,0-17.128,7.642-17.128,17.128 c0,1.186,0.132,2.372,0.395,3.426C6.719,34.783,0,42.424,0,51.515C0,61.66,8.169,69.829,18.314,69.829h63.373 C91.831,69.829,100,61.66,100,51.515C99.868,42.556,93.281,35.046,84.717,33.597z" fill="rgba(221, 226, 231, 0.3372379032258064)" transform="scale(0.85)"></path>
</g><g transform="translate(-100 695.9985917315009) rotate(0)">
  <animateTransform attributeName="transform" type="translate" keyTimes="0;1" values="-100 695.9985917315009;2188 695.9985917315009" dur="47.61904761904762s" repeatCount="indefinite" begin="-119.01857310546167s"></animateTransform>
  <path d="M84.717,33.597c0.791-2.503,1.186-5.138,1.186-7.773C85.903,11.594,74.308,0,60.079,0 c-9.881,0-18.445,5.534-22.793,13.702c-1.581-0.527-3.426-0.791-5.138-0.791c-9.486,0-17.128,7.642-17.128,17.128 c0,1.186,0.132,2.372,0.395,3.426C6.719,34.783,0,42.424,0,51.515C0,61.66,8.169,69.829,18.314,69.829h63.373 C91.831,69.829,100,61.66,100,51.515C99.868,42.556,93.281,35.046,84.717,33.597z" fill="rgba(221, 226, 231, 0.3372379032258064)" transform="scale(0.85)"></path>
</g><g transform="translate(-100 874.444978541412) rotate(0)">
  <animateTransform attributeName="transform" type="translate" keyTimes="0;1" values="-100 874.444978541412;2188 874.444978541412" dur="47.61904761904762s" repeatCount="indefinite" begin="-19.10258909468968s"></animateTransform>
  <path d="M84.717,33.597c0.791-2.503,1.186-5.138,1.186-7.773C85.903,11.594,74.308,0,60.079,0 c-9.881,0-18.445,5.534-22.793,13.702c-1.581-0.527-3.426-0.791-5.138-0.791c-9.486,0-17.128,7.642-17.128,17.128 c0,1.186,0.132,2.372,0.395,3.426C6.719,34.783,0,42.424,0,51.515C0,61.66,8.169,69.829,18.314,69.829h63.373 C91.831,69.829,100,61.66,100,51.515C99.868,42.556,93.281,35.046,84.717,33.597z" fill="rgba(221, 226, 231, 0.3372379032258064)" transform="scale(0.85)"></path>
</g><g transform="translate(-100 225.09746634502062) rotate(0)">
  <animateTransform attributeName="transform" type="translate" keyTimes="0;1" values="-100 225.09746634502062;2188 225.09746634502062" dur="47.61904761904762s" repeatCount="indefinite" begin="-9.041367591939219s"></animateTransform>
  <path d="M84.717,33.597c0.791-2.503,1.186-5.138,1.186-7.773C85.903,11.594,74.308,0,60.079,0 c-9.881,0-18.445,5.534-22.793,13.702c-1.581-0.527-3.426-0.791-5.138-0.791c-9.486,0-17.128,7.642-17.128,17.128 c0,1.186,0.132,2.372,0.395,3.426C6.719,34.783,0,42.424,0,51.515C0,61.66,8.169,69.829,18.314,69.829h63.373 C91.831,69.829,100,61.66,100,51.515C99.868,42.556,93.281,35.046,84.717,33.597z" fill="rgba(221, 226, 231, 0.3372379032258064)" transform="scale(0.85)"></path>
</g><g transform="translate(-100 851.5789844942722) rotate(0)">
  <animateTransform attributeName="transform" type="translate" keyTimes="0;1" values="-100 851.5789844942722;2188 851.5789844942722" dur="35.714285714285715s" repeatCount="indefinite" begin="-120.40025079508331s"></animateTransform>
  <path d="M84.717,33.597c0.791-2.503,1.186-5.138,1.186-7.773C85.903,11.594,74.308,0,60.079,0 c-9.881,0-18.445,5.534-22.793,13.702c-1.581-0.527-3.426-0.791-5.138-0.791c-9.486,0-17.128,7.642-17.128,17.128 c0,1.186,0.132,2.372,0.395,3.426C6.719,34.783,0,42.424,0,51.515C0,61.66,8.169,69.829,18.314,69.829h63.373 C91.831,69.829,100,61.66,100,51.515C99.868,42.556,93.281,35.046,84.717,33.597z" fill="rgba(221, 226, 231, 0.3372379032258064)" transform="scale(1)"></path>
</g><g transform="translate(-100 885.0483223794887) rotate(0)">
  <animateTransform attributeName="transform" type="translate" keyTimes="0;1" values="-100 885.0483223794887;2188 885.0483223794887" dur="35.714285714285715s" repeatCount="indefinite" begin="-37.48736707967585s"></animateTransform>
  <path d="M84.717,33.597c0.791-2.503,1.186-5.138,1.186-7.773C85.903,11.594,74.308,0,60.079,0 c-9.881,0-18.445,5.534-22.793,13.702c-1.581-0.527-3.426-0.791-5.138-0.791c-9.486,0-17.128,7.642-17.128,17.128 c0,1.186,0.132,2.372,0.395,3.426C6.719,34.783,0,42.424,0,51.515C0,61.66,8.169,69.829,18.314,69.829h63.373 C91.831,69.829,100,61.66,100,51.515C99.868,42.556,93.281,35.046,84.717,33.597z" fill="rgba(221, 226, 231, 0.3372379032258064)" transform="scale(1)"></path>
</g><g transform="translate(-100 876.6907163930864) rotate(0)">
  <animateTransform attributeName="transform" type="translate" keyTimes="0;1" values="-100 876.6907163930864;2188 876.6907163930864" dur="35.714285714285715s" repeatCount="indefinite" begin="-67.26610885085654s"></animateTransform>
  <path d="M84.717,33.597c0.791-2.503,1.186-5.138,1.186-7.773C85.903,11.594,74.308,0,60.079,0 c-9.881,0-18.445,5.534-22.793,13.702c-1.581-0.527-3.426-0.791-5.138-0.791c-9.486,0-17.128,7.642-17.128,17.128 c0,1.186,0.132,2.372,0.395,3.426C6.719,34.783,0,42.424,0,51.515C0,61.66,8.169,69.829,18.314,69.829h63.373 C91.831,69.829,100,61.66,100,51.515C99.868,42.556,93.281,35.046,84.717,33.597z" fill="rgba(221, 226, 231, 0.3372379032258064)" transform="scale(1)"></path>
</g><g transform="translate(-100 891.6794179349467) rotate(0)">
  <animateTransform attributeName="transform" type="translate" keyTimes="0;1" values="-100 891.6794179349467;2188 891.6794179349467" dur="35.714285714285715s" repeatCount="indefinite" begin="-40.96409959284791s"></animateTransform>
  <path d="M84.717,33.597c0.791-2.503,1.186-5.138,1.186-7.773C85.903,11.594,74.308,0,60.079,0 c-9.881,0-18.445,5.534-22.793,13.702c-1.581-0.527-3.426-0.791-5.138-0.791c-9.486,0-17.128,7.642-17.128,17.128 c0,1.186,0.132,2.372,0.395,3.426C6.719,34.783,0,42.424,0,51.515C0,61.66,8.169,69.829,18.314,69.829h63.373 C91.831,69.829,100,61.66,100,51.515C99.868,42.556,93.281,35.046,84.717,33.597z" fill="rgba(221, 226, 231, 0.3372379032258064)" transform="scale(1)"></path>
</g><g transform="translate(-100 119.91900300582077) rotate(0)">
  <animateTransform attributeName="transform" type="translate" keyTimes="0;1" values="-100 119.91900300582077;2188 119.91900300582077" dur="35.714285714285715s" repeatCount="indefinite" begin="-142.07440768436007s"></animateTransform>
  <path d="M84.717,33.597c0.791-2.503,1.186-5.138,1.186-7.773C85.903,11.594,74.308,0,60.079,0 c-9.881,0-18.445,5.534-22.793,13.702c-1.581-0.527-3.426-0.791-5.138-0.791c-9.486,0-17.128,7.642-17.128,17.128 c0,1.186,0.132,2.372,0.395,3.426C6.719,34.783,0,42.424,0,51.515C0,61.66,8.169,69.829,18.314,69.829h63.373 C91.831,69.829,100,61.66,100,51.515C99.868,42.556,93.281,35.046,84.717,33.597z" fill="rgba(221, 226, 231, 0.3372379032258064)" transform="scale(1)"></path>
</g><g transform="translate(-100 34.159633232574365) rotate(0)">
  <animateTransform attributeName="transform" type="translate" keyTimes="0;1" values="-100 34.159633232574365;2188 34.159633232574365" dur="35.714285714285715s" repeatCount="indefinite" begin="-79.7481552359452s"></animateTransform>
  <path d="M84.717,33.597c0.791-2.503,1.186-5.138,1.186-7.773C85.903,11.594,74.308,0,60.079,0 c-9.881,0-18.445,5.534-22.793,13.702c-1.581-0.527-3.426-0.791-5.138-0.791c-9.486,0-17.128,7.642-17.128,17.128 c0,1.186,0.132,2.372,0.395,3.426C6.719,34.783,0,42.424,0,51.515C0,61.66,8.169,69.829,18.314,69.829h63.373 C91.831,69.829,100,61.66,100,51.515C99.868,42.556,93.281,35.046,84.717,33.597z" fill="rgba(221, 226, 231, 0.3372379032258064)" transform="scale(1)"></path>
</g><g transform="translate(-100 669.4098200752127) rotate(0)">
  <animateTransform attributeName="transform" type="translate" keyTimes="0;1" values="-100 669.4098200752127;2188 669.4098200752127" dur="35.714285714285715s" repeatCount="indefinite" begin="-17.9588061591865s"></animateTransform>
  <path d="M84.717,33.597c0.791-2.503,1.186-5.138,1.186-7.773C85.903,11.594,74.308,0,60.079,0 c-9.881,0-18.445,5.534-22.793,13.702c-1.581-0.527-3.426-0.791-5.138-0.791c-9.486,0-17.128,7.642-17.128,17.128 c0,1.186,0.132,2.372,0.395,3.426C6.719,34.783,0,42.424,0,51.515C0,61.66,8.169,69.829,18.314,69.829h63.373 C91.831,69.829,100,61.66,100,51.515C99.868,42.556,93.281,35.046,84.717,33.597z" fill="rgba(221, 226, 231, 0.3372379032258064)" transform="scale(1)"></path>
</g><g transform="translate(-100 281.83070642847576) rotate(0)">
  <animateTransform attributeName="transform" type="translate" keyTimes="0;1" values="-100 281.83070642847576;2188 281.83070642847576" dur="35.714285714285715s" repeatCount="indefinite" begin="-16.93868948210943s"></animateTransform>
  <path d="M84.717,33.597c0.791-2.503,1.186-5.138,1.186-7.773C85.903,11.594,74.308,0,60.079,0 c-9.881,0-18.445,5.534-22.793,13.702c-1.581-0.527-3.426-0.791-5.138-0.791c-9.486,0-17.128,7.642-17.128,17.128 c0,1.186,0.132,2.372,0.395,3.426C6.719,34.783,0,42.424,0,51.515C0,61.66,8.169,69.829,18.314,69.829h63.373 C91.831,69.829,100,61.66,100,51.515C99.868,42.556,93.281,35.046,84.717,33.597z" fill="rgba(221, 226, 231, 0.3372379032258064)" transform="scale(1)"></path>
</g><g transform="translate(-100 650.515762687445) rotate(0)">
  <animateTransform attributeName="transform" type="translate" keyTimes="0;1" values="-100 650.515762687445;2188 650.515762687445" dur="35.714285714285715s" repeatCount="indefinite" begin="-89.2061562751387s"></animateTransform>
  <path d="M84.717,33.597c0.791-2.503,1.186-5.138,1.186-7.773C85.903,11.594,74.308,0,60.079,0 c-9.881,0-18.445,5.534-22.793,13.702c-1.581-0.527-3.426-0.791-5.138-0.791c-9.486,0-17.128,7.642-17.128,17.128 c0,1.186,0.132,2.372,0.395,3.426C6.719,34.783,0,42.424,0,51.515C0,61.66,8.169,69.829,18.314,69.829h63.373 C91.831,69.829,100,61.66,100,51.515C99.868,42.556,93.281,35.046,84.717,33.597z" fill="rgba(221, 226, 231, 0.3372379032258064)" transform="scale(1)"></path>
</g><g transform="translate(-100 450.16568218038833) rotate(0)">
  <animateTransform attributeName="transform" type="translate" keyTimes="0;1" values="-100 450.16568218038833;2188 450.16568218038833" dur="35.714285714285715s" repeatCount="indefinite" begin="-99.8243858295246s"></animateTransform>
  <path d="M84.717,33.597c0.791-2.503,1.186-5.138,1.186-7.773C85.903,11.594,74.308,0,60.079,0 c-9.881,0-18.445,5.534-22.793,13.702c-1.581-0.527-3.426-0.791-5.138-0.791c-9.486,0-17.128,7.642-17.128,17.128 c0,1.186,0.132,2.372,0.395,3.426C6.719,34.783,0,42.424,0,51.515C0,61.66,8.169,69.829,18.314,69.829h63.373 C91.831,69.829,100,61.66,100,51.515C99.868,42.556,93.281,35.046,84.717,33.597z" fill="rgba(221, 226, 231, 0.3372379032258064)" transform="scale(1)"></path>
</g><g transform="translate(-100 1238.9347369651825) rotate(0)">
  <animateTransform attributeName="transform" type="translate" keyTimes="0;1" values="-100 1238.9347369651825;2188 1238.9347369651825" dur="35.714285714285715s" repeatCount="indefinite" begin="-0.25518643072970043s"></animateTransform>
  <path d="M84.717,33.597c0.791-2.503,1.186-5.138,1.186-7.773C85.903,11.594,74.308,0,60.079,0 c-9.881,0-18.445,5.534-22.793,13.702c-1.581-0.527-3.426-0.791-5.138-0.791c-9.486,0-17.128,7.642-17.128,17.128 c0,1.186,0.132,2.372,0.395,3.426C6.719,34.783,0,42.424,0,51.515C0,61.66,8.169,69.829,18.314,69.829h63.373 C91.831,69.829,100,61.66,100,51.515C99.868,42.556,93.281,35.046,84.717,33.597z" fill="rgba(221, 226, 231, 0.3372379032258064)" transform="scale(1)"></path>
</g><g transform="translate(-100 762.9379929750958) rotate(0)">
  <animateTransform attributeName="transform" type="translate" keyTimes="0;1" values="-100 762.9379929750958;2188 762.9379929750958" dur="35.714285714285715s" repeatCount="indefinite" begin="-29.098668771080774s"></animateTransform>
  <path d="M84.717,33.597c0.791-2.503,1.186-5.138,1.186-7.773C85.903,11.594,74.308,0,60.079,0 c-9.881,0-18.445,5.534-22.793,13.702c-1.581-0.527-3.426-0.791-5.138-0.791c-9.486,0-17.128,7.642-17.128,17.128 c0,1.186,0.132,2.372,0.395,3.426C6.719,34.783,0,42.424,0,51.515C0,61.66,8.169,69.829,18.314,69.829h63.373 C91.831,69.829,100,61.66,100,51.515C99.868,42.556,93.281,35.046,84.717,33.597z" fill="rgba(221, 226, 231, 0.3372379032258064)" transform="scale(1)"></path>
</g><g transform="translate(-100 1035.534728724682) rotate(0)">
  <animateTransform attributeName="transform" type="translate" keyTimes="0;1" values="-100 1035.534728724682;2188 1035.534728724682" dur="35.714285714285715s" repeatCount="indefinite" begin="-7.234954560961603s"></animateTransform>
  <path d="M84.717,33.597c0.791-2.503,1.186-5.138,1.186-7.773C85.903,11.594,74.308,0,60.079,0 c-9.881,0-18.445,5.534-22.793,13.702c-1.581-0.527-3.426-0.791-5.138-0.791c-9.486,0-17.128,7.642-17.128,17.128 c0,1.186,0.132,2.372,0.395,3.426C6.719,34.783,0,42.424,0,51.515C0,61.66,8.169,69.829,18.314,69.829h63.373 C91.831,69.829,100,61.66,100,51.515C99.868,42.556,93.281,35.046,84.717,33.597z" fill="rgba(221, 226, 231, 0.3372379032258064)" transform="scale(1)"></path>
</g><g transform="translate(-100 1006.4262987383524) rotate(0)">
  <animateTransform attributeName="transform" type="translate" keyTimes="0;1" values="-100 1006.4262987383524;2188 1006.4262987383524" dur="35.714285714285715s" repeatCount="indefinite" begin="-1.079989747483642s"></animateTransform>
  <path d="M84.717,33.597c0.791-2.503,1.186-5.138,1.186-7.773C85.903,11.594,74.308,0,60.079,0 c-9.881,0-18.445,5.534-22.793,13.702c-1.581-0.527-3.426-0.791-5.138-0.791c-9.486,0-17.128,7.642-17.128,17.128 c0,1.186,0.132,2.372,0.395,3.426C6.719,34.783,0,42.424,0,51.515C0,61.66,8.169,69.829,18.314,69.829h63.373 C91.831,69.829,100,61.66,100,51.515C99.868,42.556,93.281,35.046,84.717,33.597z" fill="rgba(221, 226, 231, 0.3372379032258064)" transform="scale(1)"></path>
</g><g transform="translate(-100 399.8241035083619) rotate(0)">
  <animateTransform attributeName="transform" type="translate" keyTimes="0;1" values="-100 399.8241035083619;2188 399.8241035083619" dur="35.714285714285715s" repeatCount="indefinite" begin="-3.8082093265690964s"></animateTransform>
  <path d="M84.717,33.597c0.791-2.503,1.186-5.138,1.186-7.773C85.903,11.594,74.308,0,60.079,0 c-9.881,0-18.445,5.534-22.793,13.702c-1.581-0.527-3.426-0.791-5.138-0.791c-9.486,0-17.128,7.642-17.128,17.128 c0,1.186,0.132,2.372,0.395,3.426C6.719,34.783,0,42.424,0,51.515C0,61.66,8.169,69.829,18.314,69.829h63.373 C91.831,69.829,100,61.66,100,51.515C99.868,42.556,93.281,35.046,84.717,33.597z" fill="rgba(221, 226, 231, 0.3372379032258064)" transform="scale(1)"></path>
</g><g transform="translate(-100 465.7596868444448) rotate(0)">
  <animateTransform attributeName="transform" type="translate" keyTimes="0;1" values="-100 465.7596868444448;2188 465.7596868444448" dur="35.714285714285715s" repeatCount="indefinite" begin="-21.91774270079394s"></animateTransform>
  <path d="M84.717,33.597c0.791-2.503,1.186-5.138,1.186-7.773C85.903,11.594,74.308,0,60.079,0 c-9.881,0-18.445,5.534-22.793,13.702c-1.581-0.527-3.426-0.791-5.138-0.791c-9.486,0-17.128,7.642-17.128,17.128 c0,1.186,0.132,2.372,0.395,3.426C6.719,34.783,0,42.424,0,51.515C0,61.66,8.169,69.829,18.314,69.829h63.373 C91.831,69.829,100,61.66,100,51.515C99.868,42.556,93.281,35.046,84.717,33.597z" fill="rgba(221, 226, 231, 0.3372379032258064)" transform="scale(1)"></path>
</g><g transform="translate(-100 1164.0943940179584) rotate(0)">
  <animateTransform attributeName="transform" type="translate" keyTimes="0;1" values="-100 1164.0943940179584;2188 1164.0943940179584" dur="35.714285714285715s" repeatCount="indefinite" begin="-53.9102265288216s"></animateTransform>
  <path d="M84.717,33.597c0.791-2.503,1.186-5.138,1.186-7.773C85.903,11.594,74.308,0,60.079,0 c-9.881,0-18.445,5.534-22.793,13.702c-1.581-0.527-3.426-0.791-5.138-0.791c-9.486,0-17.128,7.642-17.128,17.128 c0,1.186,0.132,2.372,0.395,3.426C6.719,34.783,0,42.424,0,51.515C0,61.66,8.169,69.829,18.314,69.829h63.373 C91.831,69.829,100,61.66,100,51.515C99.868,42.556,93.281,35.046,84.717,33.597z" fill="rgba(221, 226, 231, 0.3372379032258064)" transform="scale(1)"></path>
</g><g transform="translate(-100 118.07574911219906) rotate(0)">
  <animateTransform attributeName="transform" type="translate" keyTimes="0;1" values="-100 118.07574911219906;2188 118.07574911219906" dur="35.714285714285715s" repeatCount="indefinite" begin="-59.56317514943829s"></animateTransform>
  <path d="M84.717,33.597c0.791-2.503,1.186-5.138,1.186-7.773C85.903,11.594,74.308,0,60.079,0 c-9.881,0-18.445,5.534-22.793,13.702c-1.581-0.527-3.426-0.791-5.138-0.791c-9.486,0-17.128,7.642-17.128,17.128 c0,1.186,0.132,2.372,0.395,3.426C6.719,34.783,0,42.424,0,51.515C0,61.66,8.169,69.829,18.314,69.829h63.373 C91.831,69.829,100,61.66,100,51.515C99.868,42.556,93.281,35.046,84.717,33.597z" fill="rgba(221, 226, 231, 0.3372379032258064)" transform="scale(1)"></path>
</g><g transform="translate(-100 946.5224240697388) rotate(0)">
  <animateTransform attributeName="transform" type="translate" keyTimes="0;1" values="-100 946.5224240697388;2188 946.5224240697388" dur="35.714285714285715s" repeatCount="indefinite" begin="-106.19655412754965s"></animateTransform>
  <path d="M84.717,33.597c0.791-2.503,1.186-5.138,1.186-7.773C85.903,11.594,74.308,0,60.079,0 c-9.881,0-18.445,5.534-22.793,13.702c-1.581-0.527-3.426-0.791-5.138-0.791c-9.486,0-17.128,7.642-17.128,17.128 c0,1.186,0.132,2.372,0.395,3.426C6.719,34.783,0,42.424,0,51.515C0,61.66,8.169,69.829,18.314,69.829h63.373 C91.831,69.829,100,61.66,100,51.515C99.868,42.556,93.281,35.046,84.717,33.597z" fill="rgba(221, 226, 231, 0.3372379032258064)" transform="scale(1)"></path>
</g><g transform="translate(-100 1059.7456747715607) rotate(0)">
  <animateTransform attributeName="transform" type="translate" keyTimes="0;1" values="-100 1059.7456747715607;2188 1059.7456747715607" dur="35.714285714285715s" repeatCount="indefinite" begin="-99.36758113332608s"></animateTransform>
  <path d="M84.717,33.597c0.791-2.503,1.186-5.138,1.186-7.773C85.903,11.594,74.308,0,60.079,0 c-9.881,0-18.445,5.534-22.793,13.702c-1.581-0.527-3.426-0.791-5.138-0.791c-9.486,0-17.128,7.642-17.128,17.128 c0,1.186,0.132,2.372,0.395,3.426C6.719,34.783,0,42.424,0,51.515C0,61.66,8.169,69.829,18.314,69.829h63.373 C91.831,69.829,100,61.66,100,51.515C99.868,42.556,93.281,35.046,84.717,33.597z" fill="rgba(221, 226, 231, 0.3372379032258064)" transform="scale(1)"></path>
</g><g transform="translate(-100 178.71972610774714) rotate(0)">
  <animateTransform attributeName="transform" type="translate" keyTimes="0;1" values="-100 178.71972610774714;2188 178.71972610774714" dur="35.714285714285715s" repeatCount="indefinite" begin="-49.42128176419744s"></animateTransform>
  <path d="M84.717,33.597c0.791-2.503,1.186-5.138,1.186-7.773C85.903,11.594,74.308,0,60.079,0 c-9.881,0-18.445,5.534-22.793,13.702c-1.581-0.527-3.426-0.791-5.138-0.791c-9.486,0-17.128,7.642-17.128,17.128 c0,1.186,0.132,2.372,0.395,3.426C6.719,34.783,0,42.424,0,51.515C0,61.66,8.169,69.829,18.314,69.829h63.373 C91.831,69.829,100,61.66,100,51.515C99.868,42.556,93.281,35.046,84.717,33.597z" fill="rgba(221, 226, 231, 0.3372379032258064)" transform="scale(1)"></path>
</g><g transform="translate(-100 216.408128592772) rotate(0)">
  <animateTransform attributeName="transform" type="translate" keyTimes="0;1" values="-100 216.408128592772;2188 216.408128592772" dur="35.714285714285715s" repeatCount="indefinite" begin="-14.404480755897874s"></animateTransform>
  <path d="M84.717,33.597c0.791-2.503,1.186-5.138,1.186-7.773C85.903,11.594,74.308,0,60.079,0 c-9.881,0-18.445,5.534-22.793,13.702c-1.581-0.527-3.426-0.791-5.138-0.791c-9.486,0-17.128,7.642-17.128,17.128 c0,1.186,0.132,2.372,0.395,3.426C6.719,34.783,0,42.424,0,51.515C0,61.66,8.169,69.829,18.314,69.829h63.373 C91.831,69.829,100,61.66,100,51.515C99.868,42.556,93.281,35.046,84.717,33.597z" fill="rgba(221, 226, 231, 0.3372379032258064)" transform="scale(1)"></path>
</g><g transform="translate(-100 183.49439611217488) rotate(0)">
  <animateTransform attributeName="transform" type="translate" keyTimes="0;1" values="-100 183.49439611217488;2188 183.49439611217488" dur="35.714285714285715s" repeatCount="indefinite" begin="-125.56472877931498s"></animateTransform>
  <path d="M84.717,33.597c0.791-2.503,1.186-5.138,1.186-7.773C85.903,11.594,74.308,0,60.079,0 c-9.881,0-18.445,5.534-22.793,13.702c-1.581-0.527-3.426-0.791-5.138-0.791c-9.486,0-17.128,7.642-17.128,17.128 c0,1.186,0.132,2.372,0.395,3.426C6.719,34.783,0,42.424,0,51.515C0,61.66,8.169,69.829,18.314,69.829h63.373 C91.831,69.829,100,61.66,100,51.515C99.868,42.556,93.281,35.046,84.717,33.597z" fill="rgba(221, 226, 231, 0.3372379032258064)" transform="scale(1)"></path>
</g><g transform="translate(-100 895.4678629337243) rotate(0)">
  <animateTransform attributeName="transform" type="translate" keyTimes="0;1" values="-100 895.4678629337243;2188 895.4678629337243" dur="35.714285714285715s" repeatCount="indefinite" begin="-58.9164628156342s"></animateTransform>
  <path d="M84.717,33.597c0.791-2.503,1.186-5.138,1.186-7.773C85.903,11.594,74.308,0,60.079,0 c-9.881,0-18.445,5.534-22.793,13.702c-1.581-0.527-3.426-0.791-5.138-0.791c-9.486,0-17.128,7.642-17.128,17.128 c0,1.186,0.132,2.372,0.395,3.426C6.719,34.783,0,42.424,0,51.515C0,61.66,8.169,69.829,18.314,69.829h63.373 C91.831,69.829,100,61.66,100,51.515C99.868,42.556,93.281,35.046,84.717,33.597z" fill="rgba(221, 226, 231, 0.3372379032258064)" transform="scale(1)"></path>
</g><g transform="translate(-100 1101.8002326654328) rotate(0)">
  <animateTransform attributeName="transform" type="translate" keyTimes="0;1" values="-100 1101.8002326654328;2188 1101.8002326654328" dur="35.714285714285715s" repeatCount="indefinite" begin="-37.28127322259638s"></animateTransform>
  <path d="M84.717,33.597c0.791-2.503,1.186-5.138,1.186-7.773C85.903,11.594,74.308,0,60.079,0 c-9.881,0-18.445,5.534-22.793,13.702c-1.581-0.527-3.426-0.791-5.138-0.791c-9.486,0-17.128,7.642-17.128,17.128 c0,1.186,0.132,2.372,0.395,3.426C6.719,34.783,0,42.424,0,51.515C0,61.66,8.169,69.829,18.314,69.829h63.373 C91.831,69.829,100,61.66,100,51.515C99.868,42.556,93.281,35.046,84.717,33.597z" fill="rgba(221, 226, 231, 0.3372379032258064)" transform="scale(1)"></path>
</g></g>
</svg>