<?xml version="1.0" encoding="utf-8"?>
<svg xmlns="http://www.w3.org/2000/svg" xmlns:xlink="http://www.w3.org/1999/xlink" style="margin: auto; background: rgba(122, 206, 255, 0); display: block; z-index: 1; position: relative; shape-rendering: auto;" width="1536" height="664" preserveAspectRatio="xMidYMid" viewBox="0 0 1536 664">
<g transform="translate(768,332) scale(1,1) translate(-768,-332)"><g transform="translate(-100 486.9001821211351) rotate(0)">
  <animateTransform attributeName="transform" type="translate" keyTimes="0;1" values="-100 486.9001821211351;1536 486.9001821211351" dur="83.33333333333333s" repeatCount="indefinite" begin="-33.004394601278555s"></animateTransform>
  <path d="M84.717,33.597c0.791-2.503,1.186-5.138,1.186-7.773C85.903,11.594,74.308,0,60.079,0 c-9.881,0-18.445,5.534-22.793,13.702c-1.581-0.527-3.426-0.791-5.138-0.791c-9.486,0-17.128,7.642-17.128,17.128 c0,1.186,0.132,2.372,0.395,3.426C6.719,34.783,0,42.424,0,51.515C0,61.66,8.169,69.829,18.314,69.829h63.373 C91.831,69.829,100,61.66,100,51.515C99.868,42.556,93.281,35.046,84.717,33.597z" fill="rgba(255, 255, 255, 0.2970324116368448)" transform="scale(0.9300000000000002)"></path>
</g><g transform="translate(-100 236.9429638263963) rotate(0)">
  <animateTransform attributeName="transform" type="translate" keyTimes="0;1" values="-100 236.9429638263963;1536 236.9429638263963" dur="83.33333333333333s" repeatCount="indefinite" begin="-18.0849271464113s"></animateTransform>
  <path d="M84.717,33.597c0.791-2.503,1.186-5.138,1.186-7.773C85.903,11.594,74.308,0,60.079,0 c-9.881,0-18.445,5.534-22.793,13.702c-1.581-0.527-3.426-0.791-5.138-0.791c-9.486,0-17.128,7.642-17.128,17.128 c0,1.186,0.132,2.372,0.395,3.426C6.719,34.783,0,42.424,0,51.515C0,61.66,8.169,69.829,18.314,69.829h63.373 C91.831,69.829,100,61.66,100,51.515C99.868,42.556,93.281,35.046,84.717,33.597z" fill="rgba(255, 255, 255, 0.2970324116368448)" transform="scale(0.9300000000000002)"></path>
</g><g transform="translate(-100 257.56808422641825) rotate(0)">
  <animateTransform attributeName="transform" type="translate" keyTimes="0;1" values="-100 257.56808422641825;1536 257.56808422641825" dur="83.33333333333333s" repeatCount="indefinite" begin="-24.68041879007132s"></animateTransform>
  <path d="M84.717,33.597c0.791-2.503,1.186-5.138,1.186-7.773C85.903,11.594,74.308,0,60.079,0 c-9.881,0-18.445,5.534-22.793,13.702c-1.581-0.527-3.426-0.791-5.138-0.791c-9.486,0-17.128,7.642-17.128,17.128 c0,1.186,0.132,2.372,0.395,3.426C6.719,34.783,0,42.424,0,51.515C0,61.66,8.169,69.829,18.314,69.829h63.373 C91.831,69.829,100,61.66,100,51.515C99.868,42.556,93.281,35.046,84.717,33.597z" fill="rgba(255, 255, 255, 0.2970324116368448)" transform="scale(0.9300000000000002)"></path>
</g><g transform="translate(-100 324.1064564023738) rotate(0)">
  <animateTransform attributeName="transform" type="translate" keyTimes="0;1" values="-100 324.1064564023738;1536 324.1064564023738" dur="83.33333333333333s" repeatCount="indefinite" begin="-35.476186692935876s"></animateTransform>
  <path d="M84.717,33.597c0.791-2.503,1.186-5.138,1.186-7.773C85.903,11.594,74.308,0,60.079,0 c-9.881,0-18.445,5.534-22.793,13.702c-1.581-0.527-3.426-0.791-5.138-0.791c-9.486,0-17.128,7.642-17.128,17.128 c0,1.186,0.132,2.372,0.395,3.426C6.719,34.783,0,42.424,0,51.515C0,61.66,8.169,69.829,18.314,69.829h63.373 C91.831,69.829,100,61.66,100,51.515C99.868,42.556,93.281,35.046,84.717,33.597z" fill="rgba(255, 255, 255, 0.2970324116368448)" transform="scale(0.9300000000000002)"></path>
</g><g transform="translate(-100 12.057289444537787) rotate(0)">
  <animateTransform attributeName="transform" type="translate" keyTimes="0;1" values="-100 12.057289444537787;1536 12.057289444537787" dur="83.33333333333333s" repeatCount="indefinite" begin="-74.1144854269321s"></animateTransform>
  <path d="M84.717,33.597c0.791-2.503,1.186-5.138,1.186-7.773C85.903,11.594,74.308,0,60.079,0 c-9.881,0-18.445,5.534-22.793,13.702c-1.581-0.527-3.426-0.791-5.138-0.791c-9.486,0-17.128,7.642-17.128,17.128 c0,1.186,0.132,2.372,0.395,3.426C6.719,34.783,0,42.424,0,51.515C0,61.66,8.169,69.829,18.314,69.829h63.373 C91.831,69.829,100,61.66,100,51.515C99.868,42.556,93.281,35.046,84.717,33.597z" fill="rgba(255, 255, 255, 0.2970324116368448)" transform="scale(0.9300000000000002)"></path>
</g><g transform="translate(-100 659.7674680078035) rotate(0)">
  <animateTransform attributeName="transform" type="translate" keyTimes="0;1" values="-100 659.7674680078035;1536 659.7674680078035" dur="83.33333333333333s" repeatCount="indefinite" begin="-3.5535220460696237s"></animateTransform>
  <path d="M84.717,33.597c0.791-2.503,1.186-5.138,1.186-7.773C85.903,11.594,74.308,0,60.079,0 c-9.881,0-18.445,5.534-22.793,13.702c-1.581-0.527-3.426-0.791-5.138-0.791c-9.486,0-17.128,7.642-17.128,17.128 c0,1.186,0.132,2.372,0.395,3.426C6.719,34.783,0,42.424,0,51.515C0,61.66,8.169,69.829,18.314,69.829h63.373 C91.831,69.829,100,61.66,100,51.515C99.868,42.556,93.281,35.046,84.717,33.597z" fill="rgba(255, 255, 255, 0.2970324116368448)" transform="scale(0.9300000000000002)"></path>
</g><g transform="translate(-100 413.4500193620703) rotate(0)">
  <animateTransform attributeName="transform" type="translate" keyTimes="0;1" values="-100 413.4500193620703;1536 413.4500193620703" dur="83.33333333333333s" repeatCount="indefinite" begin="-56.68793670252009s"></animateTransform>
  <path d="M84.717,33.597c0.791-2.503,1.186-5.138,1.186-7.773C85.903,11.594,74.308,0,60.079,0 c-9.881,0-18.445,5.534-22.793,13.702c-1.581-0.527-3.426-0.791-5.138-0.791c-9.486,0-17.128,7.642-17.128,17.128 c0,1.186,0.132,2.372,0.395,3.426C6.719,34.783,0,42.424,0,51.515C0,61.66,8.169,69.829,18.314,69.829h63.373 C91.831,69.829,100,61.66,100,51.515C99.868,42.556,93.281,35.046,84.717,33.597z" fill="rgba(255, 255, 255, 0.2970324116368448)" transform="scale(0.9300000000000002)"></path>
</g><g transform="translate(-100 74.30392773063758) rotate(0)">
  <animateTransform attributeName="transform" type="translate" keyTimes="0;1" values="-100 74.30392773063758;1536 74.30392773063758" dur="83.33333333333333s" repeatCount="indefinite" begin="-63.44821492185056s"></animateTransform>
  <path d="M84.717,33.597c0.791-2.503,1.186-5.138,1.186-7.773C85.903,11.594,74.308,0,60.079,0 c-9.881,0-18.445,5.534-22.793,13.702c-1.581-0.527-3.426-0.791-5.138-0.791c-9.486,0-17.128,7.642-17.128,17.128 c0,1.186,0.132,2.372,0.395,3.426C6.719,34.783,0,42.424,0,51.515C0,61.66,8.169,69.829,18.314,69.829h63.373 C91.831,69.829,100,61.66,100,51.515C99.868,42.556,93.281,35.046,84.717,33.597z" fill="rgba(255, 255, 255, 0.2970324116368448)" transform="scale(0.9300000000000002)"></path>
</g><g transform="translate(-100 391.0429576401288) rotate(0)">
  <animateTransform attributeName="transform" type="translate" keyTimes="0;1" values="-100 391.0429576401288;1536 391.0429576401288" dur="83.33333333333333s" repeatCount="indefinite" begin="-78.28694443545189s"></animateTransform>
  <path d="M84.717,33.597c0.791-2.503,1.186-5.138,1.186-7.773C85.903,11.594,74.308,0,60.079,0 c-9.881,0-18.445,5.534-22.793,13.702c-1.581-0.527-3.426-0.791-5.138-0.791c-9.486,0-17.128,7.642-17.128,17.128 c0,1.186,0.132,2.372,0.395,3.426C6.719,34.783,0,42.424,0,51.515C0,61.66,8.169,69.829,18.314,69.829h63.373 C91.831,69.829,100,61.66,100,51.515C99.868,42.556,93.281,35.046,84.717,33.597z" fill="rgba(255, 255, 255, 0.2970324116368448)" transform="scale(0.9300000000000002)"></path>
</g><g transform="translate(-100 472.2922438088643) rotate(0)">
  <animateTransform attributeName="transform" type="translate" keyTimes="0;1" values="-100 472.2922438088643;1536 472.2922438088643" dur="83.33333333333333s" repeatCount="indefinite" begin="-8.64107641141848s"></animateTransform>
  <path d="M84.717,33.597c0.791-2.503,1.186-5.138,1.186-7.773C85.903,11.594,74.308,0,60.079,0 c-9.881,0-18.445,5.534-22.793,13.702c-1.581-0.527-3.426-0.791-5.138-0.791c-9.486,0-17.128,7.642-17.128,17.128 c0,1.186,0.132,2.372,0.395,3.426C6.719,34.783,0,42.424,0,51.515C0,61.66,8.169,69.829,18.314,69.829h63.373 C91.831,69.829,100,61.66,100,51.515C99.868,42.556,93.281,35.046,84.717,33.597z" fill="rgba(255, 255, 255, 0.2970324116368448)" transform="scale(0.9300000000000002)"></path>
</g><g transform="translate(-100 645.0212352420026) rotate(0)">
  <animateTransform attributeName="transform" type="translate" keyTimes="0;1" values="-100 645.0212352420026;1536 645.0212352420026" dur="41.666666666666664s" repeatCount="indefinite" begin="-55.37485697162985s"></animateTransform>
  <path d="M84.717,33.597c0.791-2.503,1.186-5.138,1.186-7.773C85.903,11.594,74.308,0,60.079,0 c-9.881,0-18.445,5.534-22.793,13.702c-1.581-0.527-3.426-0.791-5.138-0.791c-9.486,0-17.128,7.642-17.128,17.128 c0,1.186,0.132,2.372,0.395,3.426C6.719,34.783,0,42.424,0,51.515C0,61.66,8.169,69.829,18.314,69.829h63.373 C91.831,69.829,100,61.66,100,51.515C99.868,42.556,93.281,35.046,84.717,33.597z" fill="rgba(255, 255, 255, 0.28025821808845774)" transform="scale(1.02)"></path>
</g><g transform="translate(-100 618.8801851020495) rotate(0)">
  <animateTransform attributeName="transform" type="translate" keyTimes="0;1" values="-100 618.8801851020495;1536 618.8801851020495" dur="41.666666666666664s" repeatCount="indefinite" begin="-42.643234200996304s"></animateTransform>
  <path d="M84.717,33.597c0.791-2.503,1.186-5.138,1.186-7.773C85.903,11.594,74.308,0,60.079,0 c-9.881,0-18.445,5.534-22.793,13.702c-1.581-0.527-3.426-0.791-5.138-0.791c-9.486,0-17.128,7.642-17.128,17.128 c0,1.186,0.132,2.372,0.395,3.426C6.719,34.783,0,42.424,0,51.515C0,61.66,8.169,69.829,18.314,69.829h63.373 C91.831,69.829,100,61.66,100,51.515C99.868,42.556,93.281,35.046,84.717,33.597z" fill="rgba(255, 255, 255, 0.28025821808845774)" transform="scale(1.02)"></path>
</g><g transform="translate(-100 302.72975463323485) rotate(0)">
  <animateTransform attributeName="transform" type="translate" keyTimes="0;1" values="-100 302.72975463323485;1536 302.72975463323485" dur="41.666666666666664s" repeatCount="indefinite" begin="-11.71106955109045s"></animateTransform>
  <path d="M84.717,33.597c0.791-2.503,1.186-5.138,1.186-7.773C85.903,11.594,74.308,0,60.079,0 c-9.881,0-18.445,5.534-22.793,13.702c-1.581-0.527-3.426-0.791-5.138-0.791c-9.486,0-17.128,7.642-17.128,17.128 c0,1.186,0.132,2.372,0.395,3.426C6.719,34.783,0,42.424,0,51.515C0,61.66,8.169,69.829,18.314,69.829h63.373 C91.831,69.829,100,61.66,100,51.515C99.868,42.556,93.281,35.046,84.717,33.597z" fill="rgba(255, 255, 255, 0.28025821808845774)" transform="scale(1.02)"></path>
</g><g transform="translate(-100 577.173689583182) rotate(0)">
  <animateTransform attributeName="transform" type="translate" keyTimes="0;1" values="-100 577.173689583182;1536 577.173689583182" dur="41.666666666666664s" repeatCount="indefinite" begin="-48.023677755590334s"></animateTransform>
  <path d="M84.717,33.597c0.791-2.503,1.186-5.138,1.186-7.773C85.903,11.594,74.308,0,60.079,0 c-9.881,0-18.445,5.534-22.793,13.702c-1.581-0.527-3.426-0.791-5.138-0.791c-9.486,0-17.128,7.642-17.128,17.128 c0,1.186,0.132,2.372,0.395,3.426C6.719,34.783,0,42.424,0,51.515C0,61.66,8.169,69.829,18.314,69.829h63.373 C91.831,69.829,100,61.66,100,51.515C99.868,42.556,93.281,35.046,84.717,33.597z" fill="rgba(255, 255, 255, 0.28025821808845774)" transform="scale(1.02)"></path>
</g><g transform="translate(-100 429.5364415532285) rotate(0)">
  <animateTransform attributeName="transform" type="translate" keyTimes="0;1" values="-100 429.5364415532285;1536 429.5364415532285" dur="41.666666666666664s" repeatCount="indefinite" begin="-70.49286515014258s"></animateTransform>
  <path d="M84.717,33.597c0.791-2.503,1.186-5.138,1.186-7.773C85.903,11.594,74.308,0,60.079,0 c-9.881,0-18.445,5.534-22.793,13.702c-1.581-0.527-3.426-0.791-5.138-0.791c-9.486,0-17.128,7.642-17.128,17.128 c0,1.186,0.132,2.372,0.395,3.426C6.719,34.783,0,42.424,0,51.515C0,61.66,8.169,69.829,18.314,69.829h63.373 C91.831,69.829,100,61.66,100,51.515C99.868,42.556,93.281,35.046,84.717,33.597z" fill="rgba(255, 255, 255, 0.28025821808845774)" transform="scale(1.02)"></path>
</g><g transform="translate(-100 628.7142767485233) rotate(0)">
  <animateTransform attributeName="transform" type="translate" keyTimes="0;1" values="-100 628.7142767485233;1536 628.7142767485233" dur="41.666666666666664s" repeatCount="indefinite" begin="-46.688167024705756s"></animateTransform>
  <path d="M84.717,33.597c0.791-2.503,1.186-5.138,1.186-7.773C85.903,11.594,74.308,0,60.079,0 c-9.881,0-18.445,5.534-22.793,13.702c-1.581-0.527-3.426-0.791-5.138-0.791c-9.486,0-17.128,7.642-17.128,17.128 c0,1.186,0.132,2.372,0.395,3.426C6.719,34.783,0,42.424,0,51.515C0,61.66,8.169,69.829,18.314,69.829h63.373 C91.831,69.829,100,61.66,100,51.515C99.868,42.556,93.281,35.046,84.717,33.597z" fill="rgba(255, 255, 255, 0.28025821808845774)" transform="scale(1.02)"></path>
</g><g transform="translate(-100 428.81157648977) rotate(0)">
  <animateTransform attributeName="transform" type="translate" keyTimes="0;1" values="-100 428.81157648977;1536 428.81157648977" dur="41.666666666666664s" repeatCount="indefinite" begin="-32.029909143424476s"></animateTransform>
  <path d="M84.717,33.597c0.791-2.503,1.186-5.138,1.186-7.773C85.903,11.594,74.308,0,60.079,0 c-9.881,0-18.445,5.534-22.793,13.702c-1.581-0.527-3.426-0.791-5.138-0.791c-9.486,0-17.128,7.642-17.128,17.128 c0,1.186,0.132,2.372,0.395,3.426C6.719,34.783,0,42.424,0,51.515C0,61.66,8.169,69.829,18.314,69.829h63.373 C91.831,69.829,100,61.66,100,51.515C99.868,42.556,93.281,35.046,84.717,33.597z" fill="rgba(255, 255, 255, 0.28025821808845774)" transform="scale(1.02)"></path>
</g><g transform="translate(-100 114.27054920247335) rotate(0)">
  <animateTransform attributeName="transform" type="translate" keyTimes="0;1" values="-100 114.27054920247335;1536 114.27054920247335" dur="41.666666666666664s" repeatCount="indefinite" begin="-10.949238183576458s"></animateTransform>
  <path d="M84.717,33.597c0.791-2.503,1.186-5.138,1.186-7.773C85.903,11.594,74.308,0,60.079,0 c-9.881,0-18.445,5.534-22.793,13.702c-1.581-0.527-3.426-0.791-5.138-0.791c-9.486,0-17.128,7.642-17.128,17.128 c0,1.186,0.132,2.372,0.395,3.426C6.719,34.783,0,42.424,0,51.515C0,61.66,8.169,69.829,18.314,69.829h63.373 C91.831,69.829,100,61.66,100,51.515C99.868,42.556,93.281,35.046,84.717,33.597z" fill="rgba(255, 255, 255, 0.28025821808845774)" transform="scale(1.02)"></path>
</g><g transform="translate(-100 516.11304490466) rotate(0)">
  <animateTransform attributeName="transform" type="translate" keyTimes="0;1" values="-100 516.11304490466;1536 516.11304490466" dur="41.666666666666664s" repeatCount="indefinite" begin="-4.687012500155482s"></animateTransform>
  <path d="M84.717,33.597c0.791-2.503,1.186-5.138,1.186-7.773C85.903,11.594,74.308,0,60.079,0 c-9.881,0-18.445,5.534-22.793,13.702c-1.581-0.527-3.426-0.791-5.138-0.791c-9.486,0-17.128,7.642-17.128,17.128 c0,1.186,0.132,2.372,0.395,3.426C6.719,34.783,0,42.424,0,51.515C0,61.66,8.169,69.829,18.314,69.829h63.373 C91.831,69.829,100,61.66,100,51.515C99.868,42.556,93.281,35.046,84.717,33.597z" fill="rgba(255, 255, 255, 0.28025821808845774)" transform="scale(1.02)"></path>
</g><g transform="translate(-100 582.1355696117757) rotate(0)">
  <animateTransform attributeName="transform" type="translate" keyTimes="0;1" values="-100 582.1355696117757;1536 582.1355696117757" dur="41.666666666666664s" repeatCount="indefinite" begin="-16.04794968132959s"></animateTransform>
  <path d="M84.717,33.597c0.791-2.503,1.186-5.138,1.186-7.773C85.903,11.594,74.308,0,60.079,0 c-9.881,0-18.445,5.534-22.793,13.702c-1.581-0.527-3.426-0.791-5.138-0.791c-9.486,0-17.128,7.642-17.128,17.128 c0,1.186,0.132,2.372,0.395,3.426C6.719,34.783,0,42.424,0,51.515C0,61.66,8.169,69.829,18.314,69.829h63.373 C91.831,69.829,100,61.66,100,51.515C99.868,42.556,93.281,35.046,84.717,33.597z" fill="rgba(255, 255, 255, 0.28025821808845774)" transform="scale(1.02)"></path>
</g><g transform="translate(-100 614.6296412839665) rotate(0)">
  <animateTransform attributeName="transform" type="translate" keyTimes="0;1" values="-100 614.6296412839665;1536 614.6296412839665" dur="27.777777777777775s" repeatCount="indefinite" begin="-56.10899283173004s"></animateTransform>
  <path d="M84.717,33.597c0.791-2.503,1.186-5.138,1.186-7.773C85.903,11.594,74.308,0,60.079,0 c-9.881,0-18.445,5.534-22.793,13.702c-1.581-0.527-3.426-0.791-5.138-0.791c-9.486,0-17.128,7.642-17.128,17.128 c0,1.186,0.132,2.372,0.395,3.426C6.719,34.783,0,42.424,0,51.515C0,61.66,8.169,69.829,18.314,69.829h63.373 C91.831,69.829,100,61.66,100,51.515C99.868,42.556,93.281,35.046,84.717,33.597z" fill="rgba(255, 255, 255, 0.30541950841103827)" transform="scale(1.1100000000000003)"></path>
</g><g transform="translate(-100 178.57520207561097) rotate(0)">
  <animateTransform attributeName="transform" type="translate" keyTimes="0;1" values="-100 178.57520207561097;1536 178.57520207561097" dur="27.777777777777775s" repeatCount="indefinite" begin="-23.5910294602036s"></animateTransform>
  <path d="M84.717,33.597c0.791-2.503,1.186-5.138,1.186-7.773C85.903,11.594,74.308,0,60.079,0 c-9.881,0-18.445,5.534-22.793,13.702c-1.581-0.527-3.426-0.791-5.138-0.791c-9.486,0-17.128,7.642-17.128,17.128 c0,1.186,0.132,2.372,0.395,3.426C6.719,34.783,0,42.424,0,51.515C0,61.66,8.169,69.829,18.314,69.829h63.373 C91.831,69.829,100,61.66,100,51.515C99.868,42.556,93.281,35.046,84.717,33.597z" fill="rgba(255, 255, 255, 0.30541950841103827)" transform="scale(1.1100000000000003)"></path>
</g><g transform="translate(-100 51.92055662016683) rotate(0)">
  <animateTransform attributeName="transform" type="translate" keyTimes="0;1" values="-100 51.92055662016683;1536 51.92055662016683" dur="27.777777777777775s" repeatCount="indefinite" begin="-36.18635286012968s"></animateTransform>
  <path d="M84.717,33.597c0.791-2.503,1.186-5.138,1.186-7.773C85.903,11.594,74.308,0,60.079,0 c-9.881,0-18.445,5.534-22.793,13.702c-1.581-0.527-3.426-0.791-5.138-0.791c-9.486,0-17.128,7.642-17.128,17.128 c0,1.186,0.132,2.372,0.395,3.426C6.719,34.783,0,42.424,0,51.515C0,61.66,8.169,69.829,18.314,69.829h63.373 C91.831,69.829,100,61.66,100,51.515C99.868,42.556,93.281,35.046,84.717,33.597z" fill="rgba(255, 255, 255, 0.30541950841103827)" transform="scale(1.1100000000000003)"></path>
</g><g transform="translate(-100 512.6833213492357) rotate(0)">
  <animateTransform attributeName="transform" type="translate" keyTimes="0;1" values="-100 512.6833213492357;1536 512.6833213492357" dur="27.777777777777775s" repeatCount="indefinite" begin="-50.91921882485228s"></animateTransform>
  <path d="M84.717,33.597c0.791-2.503,1.186-5.138,1.186-7.773C85.903,11.594,74.308,0,60.079,0 c-9.881,0-18.445,5.534-22.793,13.702c-1.581-0.527-3.426-0.791-5.138-0.791c-9.486,0-17.128,7.642-17.128,17.128 c0,1.186,0.132,2.372,0.395,3.426C6.719,34.783,0,42.424,0,51.515C0,61.66,8.169,69.829,18.314,69.829h63.373 C91.831,69.829,100,61.66,100,51.515C99.868,42.556,93.281,35.046,84.717,33.597z" fill="rgba(255, 255, 255, 0.30541950841103827)" transform="scale(1.1100000000000003)"></path>
</g><g transform="translate(-100 659.8427327352658) rotate(0)">
  <animateTransform attributeName="transform" type="translate" keyTimes="0;1" values="-100 659.8427327352658;1536 659.8427327352658" dur="27.777777777777775s" repeatCount="indefinite" begin="-48.27153986097746s"></animateTransform>
  <path d="M84.717,33.597c0.791-2.503,1.186-5.138,1.186-7.773C85.903,11.594,74.308,0,60.079,0 c-9.881,0-18.445,5.534-22.793,13.702c-1.581-0.527-3.426-0.791-5.138-0.791c-9.486,0-17.128,7.642-17.128,17.128 c0,1.186,0.132,2.372,0.395,3.426C6.719,34.783,0,42.424,0,51.515C0,61.66,8.169,69.829,18.314,69.829h63.373 C91.831,69.829,100,61.66,100,51.515C99.868,42.556,93.281,35.046,84.717,33.597z" fill="rgba(255, 255, 255, 0.30541950841103827)" transform="scale(1.1100000000000003)"></path>
</g><g transform="translate(-100 82.22371439742182) rotate(0)">
  <animateTransform attributeName="transform" type="translate" keyTimes="0;1" values="-100 82.22371439742182;1536 82.22371439742182" dur="27.777777777777775s" repeatCount="indefinite" begin="-72.41734669816834s"></animateTransform>
  <path d="M84.717,33.597c0.791-2.503,1.186-5.138,1.186-7.773C85.903,11.594,74.308,0,60.079,0 c-9.881,0-18.445,5.534-22.793,13.702c-1.581-0.527-3.426-0.791-5.138-0.791c-9.486,0-17.128,7.642-17.128,17.128 c0,1.186,0.132,2.372,0.395,3.426C6.719,34.783,0,42.424,0,51.515C0,61.66,8.169,69.829,18.314,69.829h63.373 C91.831,69.829,100,61.66,100,51.515C99.868,42.556,93.281,35.046,84.717,33.597z" fill="rgba(255, 255, 255, 0.30541950841103827)" transform="scale(1.1100000000000003)"></path>
</g><g transform="translate(-100 565.3834010963104) rotate(0)">
  <animateTransform attributeName="transform" type="translate" keyTimes="0;1" values="-100 565.3834010963104;1536 565.3834010963104" dur="27.777777777777775s" repeatCount="indefinite" begin="-8.085998440844639s"></animateTransform>
  <path d="M84.717,33.597c0.791-2.503,1.186-5.138,1.186-7.773C85.903,11.594,74.308,0,60.079,0 c-9.881,0-18.445,5.534-22.793,13.702c-1.581-0.527-3.426-0.791-5.138-0.791c-9.486,0-17.128,7.642-17.128,17.128 c0,1.186,0.132,2.372,0.395,3.426C6.719,34.783,0,42.424,0,51.515C0,61.66,8.169,69.829,18.314,69.829h63.373 C91.831,69.829,100,61.66,100,51.515C99.868,42.556,93.281,35.046,84.717,33.597z" fill="rgba(255, 255, 255, 0.30541950841103827)" transform="scale(1.1100000000000003)"></path>
</g><g transform="translate(-100 481.72374436056526) rotate(0)">
  <animateTransform attributeName="transform" type="translate" keyTimes="0;1" values="-100 481.72374436056526;1536 481.72374436056526" dur="27.777777777777775s" repeatCount="indefinite" begin="-66.29278498569695s"></animateTransform>
  <path d="M84.717,33.597c0.791-2.503,1.186-5.138,1.186-7.773C85.903,11.594,74.308,0,60.079,0 c-9.881,0-18.445,5.534-22.793,13.702c-1.581-0.527-3.426-0.791-5.138-0.791c-9.486,0-17.128,7.642-17.128,17.128 c0,1.186,0.132,2.372,0.395,3.426C6.719,34.783,0,42.424,0,51.515C0,61.66,8.169,69.829,18.314,69.829h63.373 C91.831,69.829,100,61.66,100,51.515C99.868,42.556,93.281,35.046,84.717,33.597z" fill="rgba(255, 255, 255, 0.30541950841103827)" transform="scale(1.1100000000000003)"></path>
</g><g transform="translate(-100 374.0052258129799) rotate(0)">
  <animateTransform attributeName="transform" type="translate" keyTimes="0;1" values="-100 374.0052258129799;1536 374.0052258129799" dur="27.777777777777775s" repeatCount="indefinite" begin="-60.074453165182334s"></animateTransform>
  <path d="M84.717,33.597c0.791-2.503,1.186-5.138,1.186-7.773C85.903,11.594,74.308,0,60.079,0 c-9.881,0-18.445,5.534-22.793,13.702c-1.581-0.527-3.426-0.791-5.138-0.791c-9.486,0-17.128,7.642-17.128,17.128 c0,1.186,0.132,2.372,0.395,3.426C6.719,34.783,0,42.424,0,51.515C0,61.66,8.169,69.829,18.314,69.829h63.373 C91.831,69.829,100,61.66,100,51.515C99.868,42.556,93.281,35.046,84.717,33.597z" fill="rgba(255, 255, 255, 0.30541950841103827)" transform="scale(1.1100000000000003)"></path>
</g><g transform="translate(-100 26.20757707777907) rotate(0)">
  <animateTransform attributeName="transform" type="translate" keyTimes="0;1" values="-100 26.20757707777907;1536 26.20757707777907" dur="27.777777777777775s" repeatCount="indefinite" begin="-70.96625222821639s"></animateTransform>
  <path d="M84.717,33.597c0.791-2.503,1.186-5.138,1.186-7.773C85.903,11.594,74.308,0,60.079,0 c-9.881,0-18.445,5.534-22.793,13.702c-1.581-0.527-3.426-0.791-5.138-0.791c-9.486,0-17.128,7.642-17.128,17.128 c0,1.186,0.132,2.372,0.395,3.426C6.719,34.783,0,42.424,0,51.515C0,61.66,8.169,69.829,18.314,69.829h63.373 C91.831,69.829,100,61.66,100,51.515C99.868,42.556,93.281,35.046,84.717,33.597z" fill="rgba(255, 255, 255, 0.30541950841103827)" transform="scale(1.1100000000000003)"></path>
</g><g transform="translate(-100 119.0359744896971) rotate(0)">
  <animateTransform attributeName="transform" type="translate" keyTimes="0;1" values="-100 119.0359744896971;1536 119.0359744896971" dur="20.833333333333332s" repeatCount="indefinite" begin="-42.746050882988804s"></animateTransform>
  <path d="M84.717,33.597c0.791-2.503,1.186-5.138,1.186-7.773C85.903,11.594,74.308,0,60.079,0 c-9.881,0-18.445,5.534-22.793,13.702c-1.581-0.527-3.426-0.791-5.138-0.791c-9.486,0-17.128,7.642-17.128,17.128 c0,1.186,0.132,2.372,0.395,3.426C6.719,34.783,0,42.424,0,51.515C0,61.66,8.169,69.829,18.314,69.829h63.373 C91.831,69.829,100,61.66,100,51.515C99.868,42.556,93.281,35.046,84.717,33.597z" fill="rgba(255, 255, 255, 0.46477434712071575)" transform="scale(1.2000000000000002)"></path>
</g><g transform="translate(-100 375.0907553673547) rotate(0)">
  <animateTransform attributeName="transform" type="translate" keyTimes="0;1" values="-100 375.0907553673547;1536 375.0907553673547" dur="20.833333333333332s" repeatCount="indefinite" begin="-1.0208920585883519s"></animateTransform>
  <path d="M84.717,33.597c0.791-2.503,1.186-5.138,1.186-7.773C85.903,11.594,74.308,0,60.079,0 c-9.881,0-18.445,5.534-22.793,13.702c-1.581-0.527-3.426-0.791-5.138-0.791c-9.486,0-17.128,7.642-17.128,17.128 c0,1.186,0.132,2.372,0.395,3.426C6.719,34.783,0,42.424,0,51.515C0,61.66,8.169,69.829,18.314,69.829h63.373 C91.831,69.829,100,61.66,100,51.515C99.868,42.556,93.281,35.046,84.717,33.597z" fill="rgba(255, 255, 255, 0.46477434712071575)" transform="scale(1.2000000000000002)"></path>
</g><g transform="translate(-100 366.801988631826) rotate(0)">
  <animateTransform attributeName="transform" type="translate" keyTimes="0;1" values="-100 366.801988631826;1536 366.801988631826" dur="20.833333333333332s" repeatCount="indefinite" begin="-46.954676883702746s"></animateTransform>
  <path d="M84.717,33.597c0.791-2.503,1.186-5.138,1.186-7.773C85.903,11.594,74.308,0,60.079,0 c-9.881,0-18.445,5.534-22.793,13.702c-1.581-0.527-3.426-0.791-5.138-0.791c-9.486,0-17.128,7.642-17.128,17.128 c0,1.186,0.132,2.372,0.395,3.426C6.719,34.783,0,42.424,0,51.515C0,61.66,8.169,69.829,18.314,69.829h63.373 C91.831,69.829,100,61.66,100,51.515C99.868,42.556,93.281,35.046,84.717,33.597z" fill="rgba(255, 255, 255, 0.46477434712071575)" transform="scale(1.2000000000000002)"></path>
</g><g transform="translate(-100 230.1830967564184) rotate(0)">
  <animateTransform attributeName="transform" type="translate" keyTimes="0;1" values="-100 230.1830967564184;1536 230.1830967564184" dur="20.833333333333332s" repeatCount="indefinite" begin="-50.348106956054124s"></animateTransform>
  <path d="M84.717,33.597c0.791-2.503,1.186-5.138,1.186-7.773C85.903,11.594,74.308,0,60.079,0 c-9.881,0-18.445,5.534-22.793,13.702c-1.581-0.527-3.426-0.791-5.138-0.791c-9.486,0-17.128,7.642-17.128,17.128 c0,1.186,0.132,2.372,0.395,3.426C6.719,34.783,0,42.424,0,51.515C0,61.66,8.169,69.829,18.314,69.829h63.373 C91.831,69.829,100,61.66,100,51.515C99.868,42.556,93.281,35.046,84.717,33.597z" fill="rgba(255, 255, 255, 0.46477434712071575)" transform="scale(1.2000000000000002)"></path>
</g><g transform="translate(-100 47.09705338164359) rotate(0)">
  <animateTransform attributeName="transform" type="translate" keyTimes="0;1" values="-100 47.09705338164359;1536 47.09705338164359" dur="20.833333333333332s" repeatCount="indefinite" begin="-61.07741057759439s"></animateTransform>
  <path d="M84.717,33.597c0.791-2.503,1.186-5.138,1.186-7.773C85.903,11.594,74.308,0,60.079,0 c-9.881,0-18.445,5.534-22.793,13.702c-1.581-0.527-3.426-0.791-5.138-0.791c-9.486,0-17.128,7.642-17.128,17.128 c0,1.186,0.132,2.372,0.395,3.426C6.719,34.783,0,42.424,0,51.515C0,61.66,8.169,69.829,18.314,69.829h63.373 C91.831,69.829,100,61.66,100,51.515C99.868,42.556,93.281,35.046,84.717,33.597z" fill="rgba(255, 255, 255, 0.46477434712071575)" transform="scale(1.2000000000000002)"></path>
</g><g transform="translate(-100 610.5667190991168) rotate(0)">
  <animateTransform attributeName="transform" type="translate" keyTimes="0;1" values="-100 610.5667190991168;1536 610.5667190991168" dur="20.833333333333332s" repeatCount="indefinite" begin="-38.2334969979025s"></animateTransform>
  <path d="M84.717,33.597c0.791-2.503,1.186-5.138,1.186-7.773C85.903,11.594,74.308,0,60.079,0 c-9.881,0-18.445,5.534-22.793,13.702c-1.581-0.527-3.426-0.791-5.138-0.791c-9.486,0-17.128,7.642-17.128,17.128 c0,1.186,0.132,2.372,0.395,3.426C6.719,34.783,0,42.424,0,51.515C0,61.66,8.169,69.829,18.314,69.829h63.373 C91.831,69.829,100,61.66,100,51.515C99.868,42.556,93.281,35.046,84.717,33.597z" fill="rgba(255, 255, 255, 0.46477434712071575)" transform="scale(1.2000000000000002)"></path>
</g><g transform="translate(-100 544.9562969350329) rotate(0)">
  <animateTransform attributeName="transform" type="translate" keyTimes="0;1" values="-100 544.9562969350329;1536 544.9562969350329" dur="20.833333333333332s" repeatCount="indefinite" begin="-43.827709403094495s"></animateTransform>
  <path d="M84.717,33.597c0.791-2.503,1.186-5.138,1.186-7.773C85.903,11.594,74.308,0,60.079,0 c-9.881,0-18.445,5.534-22.793,13.702c-1.581-0.527-3.426-0.791-5.138-0.791c-9.486,0-17.128,7.642-17.128,17.128 c0,1.186,0.132,2.372,0.395,3.426C6.719,34.783,0,42.424,0,51.515C0,61.66,8.169,69.829,18.314,69.829h63.373 C91.831,69.829,100,61.66,100,51.515C99.868,42.556,93.281,35.046,84.717,33.597z" fill="rgba(255, 255, 255, 0.46477434712071575)" transform="scale(1.2000000000000002)"></path>
</g><g transform="translate(-100 457.68056991962345) rotate(0)">
  <animateTransform attributeName="transform" type="translate" keyTimes="0;1" values="-100 457.68056991962345;1536 457.68056991962345" dur="20.833333333333332s" repeatCount="indefinite" begin="-74.69893509681853s"></animateTransform>
  <path d="M84.717,33.597c0.791-2.503,1.186-5.138,1.186-7.773C85.903,11.594,74.308,0,60.079,0 c-9.881,0-18.445,5.534-22.793,13.702c-1.581-0.527-3.426-0.791-5.138-0.791c-9.486,0-17.128,7.642-17.128,17.128 c0,1.186,0.132,2.372,0.395,3.426C6.719,34.783,0,42.424,0,51.515C0,61.66,8.169,69.829,18.314,69.829h63.373 C91.831,69.829,100,61.66,100,51.515C99.868,42.556,93.281,35.046,84.717,33.597z" fill="rgba(255, 255, 255, 0.46477434712071575)" transform="scale(1.2000000000000002)"></path>
</g><g transform="translate(-100 232.9082192229142) rotate(0)">
  <animateTransform attributeName="transform" type="translate" keyTimes="0;1" values="-100 232.9082192229142;1536 232.9082192229142" dur="20.833333333333332s" repeatCount="indefinite" begin="-54.278280101634785s"></animateTransform>
  <path d="M84.717,33.597c0.791-2.503,1.186-5.138,1.186-7.773C85.903,11.594,74.308,0,60.079,0 c-9.881,0-18.445,5.534-22.793,13.702c-1.581-0.527-3.426-0.791-5.138-0.791c-9.486,0-17.128,7.642-17.128,17.128 c0,1.186,0.132,2.372,0.395,3.426C6.719,34.783,0,42.424,0,51.515C0,61.66,8.169,69.829,18.314,69.829h63.373 C91.831,69.829,100,61.66,100,51.515C99.868,42.556,93.281,35.046,84.717,33.597z" fill="rgba(255, 255, 255, 0.46477434712071575)" transform="scale(1.2000000000000002)"></path>
</g><g transform="translate(-100 426.67688463406205) rotate(0)">
  <animateTransform attributeName="transform" type="translate" keyTimes="0;1" values="-100 426.67688463406205;1536 426.67688463406205" dur="20.833333333333332s" repeatCount="indefinite" begin="-73.7537805402431s"></animateTransform>
  <path d="M84.717,33.597c0.791-2.503,1.186-5.138,1.186-7.773C85.903,11.594,74.308,0,60.079,0 c-9.881,0-18.445,5.534-22.793,13.702c-1.581-0.527-3.426-0.791-5.138-0.791c-9.486,0-17.128,7.642-17.128,17.128 c0,1.186,0.132,2.372,0.395,3.426C6.719,34.783,0,42.424,0,51.515C0,61.66,8.169,69.829,18.314,69.829h63.373 C91.831,69.829,100,61.66,100,51.515C99.868,42.556,93.281,35.046,84.717,33.597z" fill="rgba(255, 255, 255, 0.46477434712071575)" transform="scale(1.2000000000000002)"></path>
</g><g transform="translate(-100 365.33893314566495) rotate(0)">
  <animateTransform attributeName="transform" type="translate" keyTimes="0;1" values="-100 365.33893314566495;1536 365.33893314566495" dur="20.833333333333332s" repeatCount="indefinite" begin="-54.56221796144881s"></animateTransform>
  <path d="M84.717,33.597c0.791-2.503,1.186-5.138,1.186-7.773C85.903,11.594,74.308,0,60.079,0 c-9.881,0-18.445,5.534-22.793,13.702c-1.581-0.527-3.426-0.791-5.138-0.791c-9.486,0-17.128,7.642-17.128,17.128 c0,1.186,0.132,2.372,0.395,3.426C6.719,34.783,0,42.424,0,51.515C0,61.66,8.169,69.829,18.314,69.829h63.373 C91.831,69.829,100,61.66,100,51.515C99.868,42.556,93.281,35.046,84.717,33.597z" fill="rgba(255, 255, 255, 0.46477434712071575)" transform="scale(1.2000000000000002)"></path>
</g></g>
</svg>