<?xml version="1.0" encoding="utf-8"?><svg xmlns="http://www.w3.org/2000/svg" xmlns:xlink="http://www.w3.org/1999/xlink" width="1536" height="664" preserveAspectRatio="xMidYMid" viewBox="0 0 1536 664" style="z-index:1;margin-right:-2px;display:block;background-repeat-y:initial;background-repeat-x:initial;background-color:rgba(122, 206, 255, 0);animation-play-state:paused" ><g transform="translate(768,332) scale(1,1) translate(-768,-332)" style="transform:matrix(1, 0, 0, 1, 0, 0);animation-play-state:paused" ><g transform="matrix(1,0,0,1,879.1619262695312,141.815185546875)" style="transform:matrix(1, 0, 0, 1, 879.162, 141.815);animation-play-state:paused" ><path d="M84.717,33.597c0.791-2.503,1.186-5.138,1.186-7.773C85.903,11.594,74.308,0,60.079,0 c-9.881,0-18.445,5.534-22.793,13.702c-1.581-0.527-3.426-0.791-5.138-0.791c-9.486,0-17.128,7.642-17.128,17.128 c0,1.186,0.132,2.372,0.395,3.426C6.719,34.783,0,42.424,0,51.515C0,61.66,8.169,69.829,18.314,69.829h63.373 C91.831,69.829,100,61.66,100,51.515C99.868,42.556,93.281,35.046,84.717,33.597z" fill="rgba(189, 222, 255, 0.2970324116368448)" transform="scale(0.6475)" style="transform:matrix(0.6475, 0, 0, 0.6475, 0, 0);animation-play-state:paused" ></path></g>
<g transform="matrix(1,0,0,1,276.02630615234375,566.7517700195312)" style="transform:matrix(1, 0, 0, 1, 276.026, 566.752);animation-play-state:paused" ><path d="M84.717,33.597c0.791-2.503,1.186-5.138,1.186-7.773C85.903,11.594,74.308,0,60.079,0 c-9.881,0-18.445,5.534-22.793,13.702c-1.581-0.527-3.426-0.791-5.138-0.791c-9.486,0-17.128,7.642-17.128,17.128 c0,1.186,0.132,2.372,0.395,3.426C6.719,34.783,0,42.424,0,51.515C0,61.66,8.169,69.829,18.314,69.829h63.373 C91.831,69.829,100,61.66,100,51.515C99.868,42.556,93.281,35.046,84.717,33.597z" fill="rgba(189, 222, 255, 0.2970324116368448)" transform="scale(0.6475)" style="transform:matrix(0.6475, 0, 0, 0.6475, 0, 0);animation-play-state:paused" ></path></g>
<g transform="matrix(1,0,0,1,1109.794921875,431.0323181152344)" style="transform:matrix(1, 0, 0, 1, 1109.79, 431.032);animation-play-state:paused" ><path d="M84.717,33.597c0.791-2.503,1.186-5.138,1.186-7.773C85.903,11.594,74.308,0,60.079,0 c-9.881,0-18.445,5.534-22.793,13.702c-1.581-0.527-3.426-0.791-5.138-0.791c-9.486,0-17.128,7.642-17.128,17.128 c0,1.186,0.132,2.372,0.395,3.426C6.719,34.783,0,42.424,0,51.515C0,61.66,8.169,69.829,18.314,69.829h63.373 C91.831,69.829,100,61.66,100,51.515C99.868,42.556,93.281,35.046,84.717,33.597z" fill="rgba(189, 222, 255, 0.2970324116368448)" transform="scale(0.6475)" style="transform:matrix(0.6475, 0, 0, 0.6475, 0, 0);animation-play-state:paused" ></path></g>
<g transform="matrix(1,0,0,1,843.62646484375,239.72711181640625)" style="transform:matrix(1, 0, 0, 1, 843.626, 239.727);animation-play-state:paused" ><path d="M84.717,33.597c0.791-2.503,1.186-5.138,1.186-7.773C85.903,11.594,74.308,0,60.079,0 c-9.881,0-18.445,5.534-22.793,13.702c-1.581-0.527-3.426-0.791-5.138-0.791c-9.486,0-17.128,7.642-17.128,17.128 c0,1.186,0.132,2.372,0.395,3.426C6.719,34.783,0,42.424,0,51.515C0,61.66,8.169,69.829,18.314,69.829h63.373 C91.831,69.829,100,61.66,100,51.515C99.868,42.556,93.281,35.046,84.717,33.597z" fill="rgba(189, 222, 255, 0.2970324116368448)" transform="scale(0.6475)" style="transform:matrix(0.6475, 0, 0, 0.6475, 0, 0);animation-play-state:paused" ></path></g>
<g transform="matrix(1,0,0,1,1250.7587890625,358.5207214355469)" style="transform:matrix(1, 0, 0, 1, 1250.76, 358.521);animation-play-state:paused" ><path d="M84.717,33.597c0.791-2.503,1.186-5.138,1.186-7.773C85.903,11.594,74.308,0,60.079,0 c-9.881,0-18.445,5.534-22.793,13.702c-1.581-0.527-3.426-0.791-5.138-0.791c-9.486,0-17.128,7.642-17.128,17.128 c0,1.186,0.132,2.372,0.395,3.426C6.719,34.783,0,42.424,0,51.515C0,61.66,8.169,69.829,18.314,69.829h63.373 C91.831,69.829,100,61.66,100,51.515C99.868,42.556,93.281,35.046,84.717,33.597z" fill="rgba(189, 222, 255, 0.2970324116368448)" transform="scale(0.6475)" style="transform:matrix(0.6475, 0, 0, 0.6475, 0, 0);animation-play-state:paused" ></path></g>
<g transform="matrix(1,0,0,1,904.6322631835938,208.1661376953125)" style="transform:matrix(1, 0, 0, 1, 904.632, 208.166);animation-play-state:paused" ><path d="M84.717,33.597c0.791-2.503,1.186-5.138,1.186-7.773C85.903,11.594,74.308,0,60.079,0 c-9.881,0-18.445,5.534-22.793,13.702c-1.581-0.527-3.426-0.791-5.138-0.791c-9.486,0-17.128,7.642-17.128,17.128 c0,1.186,0.132,2.372,0.395,3.426C6.719,34.783,0,42.424,0,51.515C0,61.66,8.169,69.829,18.314,69.829h63.373 C91.831,69.829,100,61.66,100,51.515C99.868,42.556,93.281,35.046,84.717,33.597z" fill="rgba(189, 222, 255, 0.2970324116368448)" transform="scale(0.6475)" style="transform:matrix(0.6475, 0, 0, 0.6475, 0, 0);animation-play-state:paused" ></path></g>
<g transform="matrix(1,0,0,1,938.880615234375,533.274658203125)" style="transform:matrix(1, 0, 0, 1, 938.881, 533.275);animation-play-state:paused" ><path d="M84.717,33.597c0.791-2.503,1.186-5.138,1.186-7.773C85.903,11.594,74.308,0,60.079,0 c-9.881,0-18.445,5.534-22.793,13.702c-1.581-0.527-3.426-0.791-5.138-0.791c-9.486,0-17.128,7.642-17.128,17.128 c0,1.186,0.132,2.372,0.395,3.426C6.719,34.783,0,42.424,0,51.515C0,61.66,8.169,69.829,18.314,69.829h63.373 C91.831,69.829,100,61.66,100,51.515C99.868,42.556,93.281,35.046,84.717,33.597z" fill="rgba(189, 222, 255, 0.2970324116368448)" transform="scale(0.6475)" style="transform:matrix(0.6475, 0, 0, 0.6475, 0, 0);animation-play-state:paused" ></path></g>
<g transform="matrix(1,0,0,1,665.5386962890625,625.3414306640625)" style="transform:matrix(1, 0, 0, 1, 665.539, 625.341);animation-play-state:paused" ><path d="M84.717,33.597c0.791-2.503,1.186-5.138,1.186-7.773C85.903,11.594,74.308,0,60.079,0 c-9.881,0-18.445,5.534-22.793,13.702c-1.581-0.527-3.426-0.791-5.138-0.791c-9.486,0-17.128,7.642-17.128,17.128 c0,1.186,0.132,2.372,0.395,3.426C6.719,34.783,0,42.424,0,51.515C0,61.66,8.169,69.829,18.314,69.829h63.373 C91.831,69.829,100,61.66,100,51.515C99.868,42.556,93.281,35.046,84.717,33.597z" fill="rgba(189, 222, 255, 0.2970324116368448)" transform="scale(0.6475)" style="transform:matrix(0.6475, 0, 0, 0.6475, 0, 0);animation-play-state:paused" ></path></g>
<g transform="matrix(1,0,0,1,107.70407104492188,643.4281005859375)" style="transform:matrix(1, 0, 0, 1, 107.704, 643.428);animation-play-state:paused" ><path d="M84.717,33.597c0.791-2.503,1.186-5.138,1.186-7.773C85.903,11.594,74.308,0,60.079,0 c-9.881,0-18.445,5.534-22.793,13.702c-1.581-0.527-3.426-0.791-5.138-0.791c-9.486,0-17.128,7.642-17.128,17.128 c0,1.186,0.132,2.372,0.395,3.426C6.719,34.783,0,42.424,0,51.515C0,61.66,8.169,69.829,18.314,69.829h63.373 C91.831,69.829,100,61.66,100,51.515C99.868,42.556,93.281,35.046,84.717,33.597z" fill="rgba(189, 222, 255, 0.2970324116368448)" transform="scale(0.6475)" style="transform:matrix(0.6475, 0, 0, 0.6475, 0, 0);animation-play-state:paused" ></path></g>
<g transform="matrix(1,0,0,1,240.5098876953125,638.9514770507812)" style="transform:matrix(1, 0, 0, 1, 240.51, 638.951);animation-play-state:paused" ><path d="M84.717,33.597c0.791-2.503,1.186-5.138,1.186-7.773C85.903,11.594,74.308,0,60.079,0 c-9.881,0-18.445,5.534-22.793,13.702c-1.581-0.527-3.426-0.791-5.138-0.791c-9.486,0-17.128,7.642-17.128,17.128 c0,1.186,0.132,2.372,0.395,3.426C6.719,34.783,0,42.424,0,51.515C0,61.66,8.169,69.829,18.314,69.829h63.373 C91.831,69.829,100,61.66,100,51.515C99.868,42.556,93.281,35.046,84.717,33.597z" fill="rgba(189, 222, 255, 0.2970324116368448)" transform="scale(0.6475)" style="transform:matrix(0.6475, 0, 0, 0.6475, 0, 0);animation-play-state:paused" ></path></g>
<g transform="matrix(1,0,0,1,828.957275390625,463.1068420410156)" style="transform:matrix(1, 0, 0, 1, 828.957, 463.107);animation-play-state:paused" ><path d="M84.717,33.597c0.791-2.503,1.186-5.138,1.186-7.773C85.903,11.594,74.308,0,60.079,0 c-9.881,0-18.445,5.534-22.793,13.702c-1.581-0.527-3.426-0.791-5.138-0.791c-9.486,0-17.128,7.642-17.128,17.128 c0,1.186,0.132,2.372,0.395,3.426C6.719,34.783,0,42.424,0,51.515C0,61.66,8.169,69.829,18.314,69.829h63.373 C91.831,69.829,100,61.66,100,51.515C99.868,42.556,93.281,35.046,84.717,33.597z" fill="rgba(189, 222, 255, 0.2970324116368448)" transform="scale(0.6475)" style="transform:matrix(0.6475, 0, 0, 0.6475, 0, 0);animation-play-state:paused" ></path></g>
<g transform="matrix(1,0,0,1,464.4083251953125,106.67220306396484)" style="transform:matrix(1, 0, 0, 1, 464.408, 106.672);animation-play-state:paused" ><path d="M84.717,33.597c0.791-2.503,1.186-5.138,1.186-7.773C85.903,11.594,74.308,0,60.079,0 c-9.881,0-18.445,5.534-22.793,13.702c-1.581-0.527-3.426-0.791-5.138-0.791c-9.486,0-17.128,7.642-17.128,17.128 c0,1.186,0.132,2.372,0.395,3.426C6.719,34.783,0,42.424,0,51.515C0,61.66,8.169,69.829,18.314,69.829h63.373 C91.831,69.829,100,61.66,100,51.515C99.868,42.556,93.281,35.046,84.717,33.597z" fill="rgba(189, 222, 255, 0.2970324116368448)" transform="scale(0.6475)" style="transform:matrix(0.6475, 0, 0, 0.6475, 0, 0);animation-play-state:paused" ></path></g>
<g transform="matrix(1,0,0,1,984.9697265625,413.1202087402344)" style="transform:matrix(1, 0, 0, 1, 984.97, 413.12);animation-play-state:paused" ><path d="M84.717,33.597c0.791-2.503,1.186-5.138,1.186-7.773C85.903,11.594,74.308,0,60.079,0 c-9.881,0-18.445,5.534-22.793,13.702c-1.581-0.527-3.426-0.791-5.138-0.791c-9.486,0-17.128,7.642-17.128,17.128 c0,1.186,0.132,2.372,0.395,3.426C6.719,34.783,0,42.424,0,51.515C0,61.66,8.169,69.829,18.314,69.829h63.373 C91.831,69.829,100,61.66,100,51.515C99.868,42.556,93.281,35.046,84.717,33.597z" fill="rgba(255, 255, 255, 0.28025821808845774)" transform="scale(0.765)" style="transform:matrix(0.765, 0, 0, 0.765, 0, 0);animation-play-state:paused" ></path></g>
<g transform="matrix(1,0,0,1,1058.694091796875,407.35919189453125)" style="transform:matrix(1, 0, 0, 1, 1058.69, 407.359);animation-play-state:paused" ><path d="M84.717,33.597c0.791-2.503,1.186-5.138,1.186-7.773C85.903,11.594,74.308,0,60.079,0 c-9.881,0-18.445,5.534-22.793,13.702c-1.581-0.527-3.426-0.791-5.138-0.791c-9.486,0-17.128,7.642-17.128,17.128 c0,1.186,0.132,2.372,0.395,3.426C6.719,34.783,0,42.424,0,51.515C0,61.66,8.169,69.829,18.314,69.829h63.373 C91.831,69.829,100,61.66,100,51.515C99.868,42.556,93.281,35.046,84.717,33.597z" fill="rgba(255, 255, 255, 0.28025821808845774)" transform="scale(0.765)" style="transform:matrix(0.765, 0, 0, 0.765, 0, 0);animation-play-state:paused" ></path></g>
<g transform="matrix(1,0,0,1,633.6173706054688,472.70135498046875)" style="transform:matrix(1, 0, 0, 1, 633.617, 472.701);animation-play-state:paused" ><path d="M84.717,33.597c0.791-2.503,1.186-5.138,1.186-7.773C85.903,11.594,74.308,0,60.079,0 c-9.881,0-18.445,5.534-22.793,13.702c-1.581-0.527-3.426-0.791-5.138-0.791c-9.486,0-17.128,7.642-17.128,17.128 c0,1.186,0.132,2.372,0.395,3.426C6.719,34.783,0,42.424,0,51.515C0,61.66,8.169,69.829,18.314,69.829h63.373 C91.831,69.829,100,61.66,100,51.515C99.868,42.556,93.281,35.046,84.717,33.597z" fill="rgba(255, 255, 255, 0.28025821808845774)" transform="scale(0.765)" style="transform:matrix(0.765, 0, 0, 0.765, 0, 0);animation-play-state:paused" ></path></g>
<g transform="matrix(1,0,0,1,1029.38232421875,574.6651000976562)" style="transform:matrix(1, 0, 0, 1, 1029.38, 574.665);animation-play-state:paused" ><path d="M84.717,33.597c0.791-2.503,1.186-5.138,1.186-7.773C85.903,11.594,74.308,0,60.079,0 c-9.881,0-18.445,5.534-22.793,13.702c-1.581-0.527-3.426-0.791-5.138-0.791c-9.486,0-17.128,7.642-17.128,17.128 c0,1.186,0.132,2.372,0.395,3.426C6.719,34.783,0,42.424,0,51.515C0,61.66,8.169,69.829,18.314,69.829h63.373 C91.831,69.829,100,61.66,100,51.515C99.868,42.556,93.281,35.046,84.717,33.597z" fill="rgba(255, 255, 255, 0.28025821808845774)" transform="scale(0.765)" style="transform:matrix(0.765, 0, 0, 0.765, 0, 0);animation-play-state:paused" ></path></g>
<g transform="matrix(1,0,0,1,252.14016723632812,544.1943359375)" style="transform:matrix(1, 0, 0, 1, 252.14, 544.194);animation-play-state:paused" ><path d="M84.717,33.597c0.791-2.503,1.186-5.138,1.186-7.773C85.903,11.594,74.308,0,60.079,0 c-9.881,0-18.445,5.534-22.793,13.702c-1.581-0.527-3.426-0.791-5.138-0.791c-9.486,0-17.128,7.642-17.128,17.128 c0,1.186,0.132,2.372,0.395,3.426C6.719,34.783,0,42.424,0,51.515C0,61.66,8.169,69.829,18.314,69.829h63.373 C91.831,69.829,100,61.66,100,51.515C99.868,42.556,93.281,35.046,84.717,33.597z" fill="rgba(255, 255, 255, 0.28025821808845774)" transform="scale(0.765)" style="transform:matrix(0.765, 0, 0, 0.765, 0, 0);animation-play-state:paused" ></path></g>
<g transform="matrix(1,0,0,1,645.9207153320312,259.9666748046875)" style="transform:matrix(1, 0, 0, 1, 645.921, 259.967);animation-play-state:paused" ><path d="M84.717,33.597c0.791-2.503,1.186-5.138,1.186-7.773C85.903,11.594,74.308,0,60.079,0 c-9.881,0-18.445,5.534-22.793,13.702c-1.581-0.527-3.426-0.791-5.138-0.791c-9.486,0-17.128,7.642-17.128,17.128 c0,1.186,0.132,2.372,0.395,3.426C6.719,34.783,0,42.424,0,51.515C0,61.66,8.169,69.829,18.314,69.829h63.373 C91.831,69.829,100,61.66,100,51.515C99.868,42.556,93.281,35.046,84.717,33.597z" fill="rgba(255, 255, 255, 0.28025821808845774)" transform="scale(0.765)" style="transform:matrix(0.765, 0, 0, 0.765, 0, 0);animation-play-state:paused" ></path></g>
<g transform="matrix(1,0,0,1,1375.162841796875,612.2881469726562)" style="transform:matrix(1, 0, 0, 1, 1375.16, 612.288);animation-play-state:paused" ><path d="M84.717,33.597c0.791-2.503,1.186-5.138,1.186-7.773C85.903,11.594,74.308,0,60.079,0 c-9.881,0-18.445,5.534-22.793,13.702c-1.581-0.527-3.426-0.791-5.138-0.791c-9.486,0-17.128,7.642-17.128,17.128 c0,1.186,0.132,2.372,0.395,3.426C6.719,34.783,0,42.424,0,51.515C0,61.66,8.169,69.829,18.314,69.829h63.373 C91.831,69.829,100,61.66,100,51.515C99.868,42.556,93.281,35.046,84.717,33.597z" fill="rgba(255, 255, 255, 0.28025821808845774)" transform="scale(0.765)" style="transform:matrix(0.765, 0, 0, 0.765, 0, 0);animation-play-state:paused" ></path></g>
<g transform="matrix(1,0,0,1,1351.3695068359375,522.9636840820312)" style="transform:matrix(1, 0, 0, 1, 1351.37, 522.964);animation-play-state:paused" ><path d="M84.717,33.597c0.791-2.503,1.186-5.138,1.186-7.773C85.903,11.594,74.308,0,60.079,0 c-9.881,0-18.445,5.534-22.793,13.702c-1.581-0.527-3.426-0.791-5.138-0.791c-9.486,0-17.128,7.642-17.128,17.128 c0,1.186,0.132,2.372,0.395,3.426C6.719,34.783,0,42.424,0,51.515C0,61.66,8.169,69.829,18.314,69.829h63.373 C91.831,69.829,100,61.66,100,51.515C99.868,42.556,93.281,35.046,84.717,33.597z" fill="rgba(255, 255, 255, 0.28025821808845774)" transform="scale(0.765)" style="transform:matrix(0.765, 0, 0, 0.765, 0, 0);animation-play-state:paused" ></path></g>
<g transform="matrix(1,0,0,1,-32.647003173828125,336.7500305175781)" style="transform:matrix(1, 0, 0, 1, -32.647, 336.75);animation-play-state:paused" ><path d="M84.717,33.597c0.791-2.503,1.186-5.138,1.186-7.773C85.903,11.594,74.308,0,60.079,0 c-9.881,0-18.445,5.534-22.793,13.702c-1.581-0.527-3.426-0.791-5.138-0.791c-9.486,0-17.128,7.642-17.128,17.128 c0,1.186,0.132,2.372,0.395,3.426C6.719,34.783,0,42.424,0,51.515C0,61.66,8.169,69.829,18.314,69.829h63.373 C91.831,69.829,100,61.66,100,51.515C99.868,42.556,93.281,35.046,84.717,33.597z" fill="rgba(255, 255, 255, 0.28025821808845774)" transform="scale(0.765)" style="transform:matrix(0.765, 0, 0, 0.765, 0, 0);animation-play-state:paused" ></path></g>
<g transform="matrix(1,0,0,1,-46.4161262512207,145.23800659179688)" style="transform:matrix(1, 0, 0, 1, -46.4161, 145.238);animation-play-state:paused" ><path d="M84.717,33.597c0.791-2.503,1.186-5.138,1.186-7.773C85.903,11.594,74.308,0,60.079,0 c-9.881,0-18.445,5.534-22.793,13.702c-1.581-0.527-3.426-0.791-5.138-0.791c-9.486,0-17.128,7.642-17.128,17.128 c0,1.186,0.132,2.372,0.395,3.426C6.719,34.783,0,42.424,0,51.515C0,61.66,8.169,69.829,18.314,69.829h63.373 C91.831,69.829,100,61.66,100,51.515C99.868,42.556,93.281,35.046,84.717,33.597z" fill="rgba(255, 255, 255, 0.28025821808845774)" transform="scale(0.765)" style="transform:matrix(0.765, 0, 0, 0.765, 0, 0);animation-play-state:paused" ></path></g>
<g transform="matrix(1,0,0,1,557.85791015625,554.4823608398438)" style="transform:matrix(1, 0, 0, 1, 557.858, 554.482);animation-play-state:paused" ><path d="M84.717,33.597c0.791-2.503,1.186-5.138,1.186-7.773C85.903,11.594,74.308,0,60.079,0 c-9.881,0-18.445,5.534-22.793,13.702c-1.581-0.527-3.426-0.791-5.138-0.791c-9.486,0-17.128,7.642-17.128,17.128 c0,1.186,0.132,2.372,0.395,3.426C6.719,34.783,0,42.424,0,51.515C0,61.66,8.169,69.829,18.314,69.829h63.373 C91.831,69.829,100,61.66,100,51.515C99.868,42.556,93.281,35.046,84.717,33.597z" fill="rgba(255, 255, 255, 0.28025821808845774)" transform="scale(0.765)" style="transform:matrix(0.765, 0, 0, 0.765, 0, 0);animation-play-state:paused" ></path></g>
<g transform="matrix(1,0,0,1,881.3619995117188,65.70126342773438)" style="transform:matrix(1, 0, 0, 1, 881.362, 65.7013);animation-play-state:paused" ><path d="M84.717,33.597c0.791-2.503,1.186-5.138,1.186-7.773C85.903,11.594,74.308,0,60.079,0 c-9.881,0-18.445,5.534-22.793,13.702c-1.581-0.527-3.426-0.791-5.138-0.791c-9.486,0-17.128,7.642-17.128,17.128 c0,1.186,0.132,2.372,0.395,3.426C6.719,34.783,0,42.424,0,51.515C0,61.66,8.169,69.829,18.314,69.829h63.373 C91.831,69.829,100,61.66,100,51.515C99.868,42.556,93.281,35.046,84.717,33.597z" fill="rgba(255, 255, 255, 0.28025821808845774)" transform="scale(0.765)" style="transform:matrix(0.765, 0, 0, 0.765, 0, 0);animation-play-state:paused" ></path></g>
<g transform="matrix(1,0,0,1,812.0088500976562,242.34071350097656)" style="transform:matrix(1, 0, 0, 1, 812.009, 242.341);animation-play-state:paused" ><path d="M84.717,33.597c0.791-2.503,1.186-5.138,1.186-7.773C85.903,11.594,74.308,0,60.079,0 c-9.881,0-18.445,5.534-22.793,13.702c-1.581-0.527-3.426-0.791-5.138-0.791c-9.486,0-17.128,7.642-17.128,17.128 c0,1.186,0.132,2.372,0.395,3.426C6.719,34.783,0,42.424,0,51.515C0,61.66,8.169,69.829,18.314,69.829h63.373 C91.831,69.829,100,61.66,100,51.515C99.868,42.556,93.281,35.046,84.717,33.597z" fill="rgba(241, 242, 243, 0.30541950841103827)" transform="scale(0.8825)" style="transform:matrix(0.8825, 0, 0, 0.8825, 0, 0);animation-play-state:paused" ></path></g>
<g transform="matrix(1,0,0,1,265.4078674316406,411.331787109375)" style="transform:matrix(1, 0, 0, 1, 265.408, 411.332);animation-play-state:paused" ><path d="M84.717,33.597c0.791-2.503,1.186-5.138,1.186-7.773C85.903,11.594,74.308,0,60.079,0 c-9.881,0-18.445,5.534-22.793,13.702c-1.581-0.527-3.426-0.791-5.138-0.791c-9.486,0-17.128,7.642-17.128,17.128 c0,1.186,0.132,2.372,0.395,3.426C6.719,34.783,0,42.424,0,51.515C0,61.66,8.169,69.829,18.314,69.829h63.373 C91.831,69.829,100,61.66,100,51.515C99.868,42.556,93.281,35.046,84.717,33.597z" fill="rgba(241, 242, 243, 0.30541950841103827)" transform="scale(0.8825)" style="transform:matrix(0.8825, 0, 0, 0.8825, 0, 0);animation-play-state:paused" ></path></g>
<g transform="matrix(1,0,0,1,-47.76459884643555,330.56158447265625)" style="transform:matrix(1, 0, 0, 1, -47.7646, 330.562);animation-play-state:paused" ><path d="M84.717,33.597c0.791-2.503,1.186-5.138,1.186-7.773C85.903,11.594,74.308,0,60.079,0 c-9.881,0-18.445,5.534-22.793,13.702c-1.581-0.527-3.426-0.791-5.138-0.791c-9.486,0-17.128,7.642-17.128,17.128 c0,1.186,0.132,2.372,0.395,3.426C6.719,34.783,0,42.424,0,51.515C0,61.66,8.169,69.829,18.314,69.829h63.373 C91.831,69.829,100,61.66,100,51.515C99.868,42.556,93.281,35.046,84.717,33.597z" fill="rgba(241, 242, 243, 0.30541950841103827)" transform="scale(0.8825)" style="transform:matrix(0.8825, 0, 0, 0.8825, 0, 0);animation-play-state:paused" ></path></g>
<g transform="matrix(1,0,0,1,-43.0720329284668,276.3464050292969)" style="transform:matrix(1, 0, 0, 1, -43.072, 276.346);animation-play-state:paused" ><path d="M84.717,33.597c0.791-2.503,1.186-5.138,1.186-7.773C85.903,11.594,74.308,0,60.079,0 c-9.881,0-18.445,5.534-22.793,13.702c-1.581-0.527-3.426-0.791-5.138-0.791c-9.486,0-17.128,7.642-17.128,17.128 c0,1.186,0.132,2.372,0.395,3.426C6.719,34.783,0,42.424,0,51.515C0,61.66,8.169,69.829,18.314,69.829h63.373 C91.831,69.829,100,61.66,100,51.515C99.868,42.556,93.281,35.046,84.717,33.597z" fill="rgba(241, 242, 243, 0.30541950841103827)" transform="scale(0.8825)" style="transform:matrix(0.8825, 0, 0, 0.8825, 0, 0);animation-play-state:paused" ></path></g>
<g transform="matrix(1,0,0,1,985.5960693359375,249.52723693847656)" style="transform:matrix(1, 0, 0, 1, 985.596, 249.527);animation-play-state:paused" ><path d="M84.717,33.597c0.791-2.503,1.186-5.138,1.186-7.773C85.903,11.594,74.308,0,60.079,0 c-9.881,0-18.445,5.534-22.793,13.702c-1.581-0.527-3.426-0.791-5.138-0.791c-9.486,0-17.128,7.642-17.128,17.128 c0,1.186,0.132,2.372,0.395,3.426C6.719,34.783,0,42.424,0,51.515C0,61.66,8.169,69.829,18.314,69.829h63.373 C91.831,69.829,100,61.66,100,51.515C99.868,42.556,93.281,35.046,84.717,33.597z" fill="rgba(241, 242, 243, 0.30541950841103827)" transform="scale(0.8825)" style="transform:matrix(0.8825, 0, 0, 0.8825, 0, 0);animation-play-state:paused" ></path></g>
<g transform="matrix(1,0,0,1,1103.2908935546875,137.39170837402344)" style="transform:matrix(1, 0, 0, 1, 1103.29, 137.392);animation-play-state:paused" ><path d="M84.717,33.597c0.791-2.503,1.186-5.138,1.186-7.773C85.903,11.594,74.308,0,60.079,0 c-9.881,0-18.445,5.534-22.793,13.702c-1.581-0.527-3.426-0.791-5.138-0.791c-9.486,0-17.128,7.642-17.128,17.128 c0,1.186,0.132,2.372,0.395,3.426C6.719,34.783,0,42.424,0,51.515C0,61.66,8.169,69.829,18.314,69.829h63.373 C91.831,69.829,100,61.66,100,51.515C99.868,42.556,93.281,35.046,84.717,33.597z" fill="rgba(241, 242, 243, 0.30541950841103827)" transform="scale(0.8825)" style="transform:matrix(0.8825, 0, 0, 0.8825, 0, 0);animation-play-state:paused" ></path></g>
<g transform="matrix(1,0,0,1,77.14027404785156,448.8742980957031)" style="transform:matrix(1, 0, 0, 1, 77.1403, 448.874);animation-play-state:paused" ><path d="M84.717,33.597c0.791-2.503,1.186-5.138,1.186-7.773C85.903,11.594,74.308,0,60.079,0 c-9.881,0-18.445,5.534-22.793,13.702c-1.581-0.527-3.426-0.791-5.138-0.791c-9.486,0-17.128,7.642-17.128,17.128 c0,1.186,0.132,2.372,0.395,3.426C6.719,34.783,0,42.424,0,51.515C0,61.66,8.169,69.829,18.314,69.829h63.373 C91.831,69.829,100,61.66,100,51.515C99.868,42.556,93.281,35.046,84.717,33.597z" fill="rgba(241, 242, 243, 0.30541950841103827)" transform="scale(0.8825)" style="transform:matrix(0.8825, 0, 0, 0.8825, 0, 0);animation-play-state:paused" ></path></g>
<g transform="matrix(1,0,0,1,1305.604736328125,251.1173095703125)" style="transform:matrix(1, 0, 0, 1, 1305.6, 251.117);animation-play-state:paused" ><path d="M84.717,33.597c0.791-2.503,1.186-5.138,1.186-7.773C85.903,11.594,74.308,0,60.079,0 c-9.881,0-18.445,5.534-22.793,13.702c-1.581-0.527-3.426-0.791-5.138-0.791c-9.486,0-17.128,7.642-17.128,17.128 c0,1.186,0.132,2.372,0.395,3.426C6.719,34.783,0,42.424,0,51.515C0,61.66,8.169,69.829,18.314,69.829h63.373 C91.831,69.829,100,61.66,100,51.515C99.868,42.556,93.281,35.046,84.717,33.597z" fill="rgba(241, 242, 243, 0.30541950841103827)" transform="scale(0.8825)" style="transform:matrix(0.8825, 0, 0, 0.8825, 0, 0);animation-play-state:paused" ></path></g>
<g transform="matrix(1,0,0,1,691.087158203125,174.5166015625)" style="transform:matrix(1, 0, 0, 1, 691.087, 174.517);animation-play-state:paused" ><path d="M84.717,33.597c0.791-2.503,1.186-5.138,1.186-7.773C85.903,11.594,74.308,0,60.079,0 c-9.881,0-18.445,5.534-22.793,13.702c-1.581-0.527-3.426-0.791-5.138-0.791c-9.486,0-17.128,7.642-17.128,17.128 c0,1.186,0.132,2.372,0.395,3.426C6.719,34.783,0,42.424,0,51.515C0,61.66,8.169,69.829,18.314,69.829h63.373 C91.831,69.829,100,61.66,100,51.515C99.868,42.556,93.281,35.046,84.717,33.597z" fill="rgba(241, 242, 243, 0.30541950841103827)" transform="scale(0.8825)" style="transform:matrix(0.8825, 0, 0, 0.8825, 0, 0);animation-play-state:paused" ></path></g>
<g transform="matrix(1,0,0,1,1142.6966552734375,19.676593780517578)" style="transform:matrix(1, 0, 0, 1, 1142.7, 19.6766);animation-play-state:paused" ><path d="M84.717,33.597c0.791-2.503,1.186-5.138,1.186-7.773C85.903,11.594,74.308,0,60.079,0 c-9.881,0-18.445,5.534-22.793,13.702c-1.581-0.527-3.426-0.791-5.138-0.791c-9.486,0-17.128,7.642-17.128,17.128 c0,1.186,0.132,2.372,0.395,3.426C6.719,34.783,0,42.424,0,51.515C0,61.66,8.169,69.829,18.314,69.829h63.373 C91.831,69.829,100,61.66,100,51.515C99.868,42.556,93.281,35.046,84.717,33.597z" fill="rgba(241, 242, 243, 0.30541950841103827)" transform="scale(0.8825)" style="transform:matrix(0.8825, 0, 0, 0.8825, 0, 0);animation-play-state:paused" ></path></g>
<g transform="matrix(1,0,0,1,324.6517028808594,254.88693237304688)" style="transform:matrix(1, 0, 0, 1, 324.652, 254.887);animation-play-state:paused" ><path d="M84.717,33.597c0.791-2.503,1.186-5.138,1.186-7.773C85.903,11.594,74.308,0,60.079,0 c-9.881,0-18.445,5.534-22.793,13.702c-1.581-0.527-3.426-0.791-5.138-0.791c-9.486,0-17.128,7.642-17.128,17.128 c0,1.186,0.132,2.372,0.395,3.426C6.719,34.783,0,42.424,0,51.515C0,61.66,8.169,69.829,18.314,69.829h63.373 C91.831,69.829,100,61.66,100,51.515C99.868,42.556,93.281,35.046,84.717,33.597z" fill="rgba(241, 242, 243, 0.30541950841103827)" transform="scale(0.8825)" style="transform:matrix(0.8825, 0, 0, 0.8825, 0, 0);animation-play-state:paused" ></path></g>
<g transform="matrix(1,0,0,1,186.70382690429688,250.61883544921875)" style="transform:matrix(1, 0, 0, 1, 186.704, 250.619);animation-play-state:paused" ><path d="M84.717,33.597c0.791-2.503,1.186-5.138,1.186-7.773C85.903,11.594,74.308,0,60.079,0 c-9.881,0-18.445,5.534-22.793,13.702c-1.581-0.527-3.426-0.791-5.138-0.791c-9.486,0-17.128,7.642-17.128,17.128 c0,1.186,0.132,2.372,0.395,3.426C6.719,34.783,0,42.424,0,51.515C0,61.66,8.169,69.829,18.314,69.829h63.373 C91.831,69.829,100,61.66,100,51.515C99.868,42.556,93.281,35.046,84.717,33.597z" fill="rgba(241, 242, 243, 0.30541950841103827)" transform="scale(0.8825)" style="transform:matrix(0.8825, 0, 0, 0.8825, 0, 0);animation-play-state:paused" ></path></g>
<g transform="matrix(1,0,0,1,990.1700439453125,527.870361328125)" style="transform:matrix(1, 0, 0, 1, 990.17, 527.87);animation-play-state:paused" ><path d="M84.717,33.597c0.791-2.503,1.186-5.138,1.186-7.773C85.903,11.594,74.308,0,60.079,0 c-9.881,0-18.445,5.534-22.793,13.702c-1.581-0.527-3.426-0.791-5.138-0.791c-9.486,0-17.128,7.642-17.128,17.128 c0,1.186,0.132,2.372,0.395,3.426C6.719,34.783,0,42.424,0,51.515C0,61.66,8.169,69.829,18.314,69.829h63.373 C91.831,69.829,100,61.66,100,51.515C99.868,42.556,93.281,35.046,84.717,33.597z" fill="rgba(189, 222, 255, 0.46477434712071575)" transform="scale(1)" style="transform:matrix(1, 0, 0, 1, 0, 0);animation-play-state:paused" ></path></g>
<g transform="matrix(1,0,0,1,184.30044555664062,465.4198913574219)" style="transform:matrix(1, 0, 0, 1, 184.3, 465.42);animation-play-state:paused" ><path d="M84.717,33.597c0.791-2.503,1.186-5.138,1.186-7.773C85.903,11.594,74.308,0,60.079,0 c-9.881,0-18.445,5.534-22.793,13.702c-1.581-0.527-3.426-0.791-5.138-0.791c-9.486,0-17.128,7.642-17.128,17.128 c0,1.186,0.132,2.372,0.395,3.426C6.719,34.783,0,42.424,0,51.515C0,61.66,8.169,69.829,18.314,69.829h63.373 C91.831,69.829,100,61.66,100,51.515C99.868,42.556,93.281,35.046,84.717,33.597z" fill="rgba(189, 222, 255, 0.46477434712071575)" transform="scale(1)" style="transform:matrix(1, 0, 0, 1, 0, 0);animation-play-state:paused" ></path></g>
<g transform="matrix(1,0,0,1,1411.2740478515625,239.3051300048828)" style="transform:matrix(1, 0, 0, 1, 1411.27, 239.305);animation-play-state:paused" ><path d="M84.717,33.597c0.791-2.503,1.186-5.138,1.186-7.773C85.903,11.594,74.308,0,60.079,0 c-9.881,0-18.445,5.534-22.793,13.702c-1.581-0.527-3.426-0.791-5.138-0.791c-9.486,0-17.128,7.642-17.128,17.128 c0,1.186,0.132,2.372,0.395,3.426C6.719,34.783,0,42.424,0,51.515C0,61.66,8.169,69.829,18.314,69.829h63.373 C91.831,69.829,100,61.66,100,51.515C99.868,42.556,93.281,35.046,84.717,33.597z" fill="rgba(189, 222, 255, 0.46477434712071575)" transform="scale(1)" style="transform:matrix(1, 0, 0, 1, 0, 0);animation-play-state:paused" ></path></g>
<g transform="matrix(1,0,0,1,121.20237731933594,410.99676513671875)" style="transform:matrix(1, 0, 0, 1, 121.202, 410.997);animation-play-state:paused" ><path d="M84.717,33.597c0.791-2.503,1.186-5.138,1.186-7.773C85.903,11.594,74.308,0,60.079,0 c-9.881,0-18.445,5.534-22.793,13.702c-1.581-0.527-3.426-0.791-5.138-0.791c-9.486,0-17.128,7.642-17.128,17.128 c0,1.186,0.132,2.372,0.395,3.426C6.719,34.783,0,42.424,0,51.515C0,61.66,8.169,69.829,18.314,69.829h63.373 C91.831,69.829,100,61.66,100,51.515C99.868,42.556,93.281,35.046,84.717,33.597z" fill="rgba(189, 222, 255, 0.46477434712071575)" transform="scale(1)" style="transform:matrix(1, 0, 0, 1, 0, 0);animation-play-state:paused" ></path></g>
<g transform="matrix(1,0,0,1,854.1964111328125,543.5186767578125)" style="transform:matrix(1, 0, 0, 1, 854.196, 543.519);animation-play-state:paused" ><path d="M84.717,33.597c0.791-2.503,1.186-5.138,1.186-7.773C85.903,11.594,74.308,0,60.079,0 c-9.881,0-18.445,5.534-22.793,13.702c-1.581-0.527-3.426-0.791-5.138-0.791c-9.486,0-17.128,7.642-17.128,17.128 c0,1.186,0.132,2.372,0.395,3.426C6.719,34.783,0,42.424,0,51.515C0,61.66,8.169,69.829,18.314,69.829h63.373 C91.831,69.829,100,61.66,100,51.515C99.868,42.556,93.281,35.046,84.717,33.597z" fill="rgba(189, 222, 255, 0.46477434712071575)" transform="scale(1)" style="transform:matrix(1, 0, 0, 1, 0, 0);animation-play-state:paused" ></path></g>
<g transform="matrix(1,0,0,1,646.11328125,461.5894470214844)" style="transform:matrix(1, 0, 0, 1, 646.113, 461.589);animation-play-state:paused" ><path d="M84.717,33.597c0.791-2.503,1.186-5.138,1.186-7.773C85.903,11.594,74.308,0,60.079,0 c-9.881,0-18.445,5.534-22.793,13.702c-1.581-0.527-3.426-0.791-5.138-0.791c-9.486,0-17.128,7.642-17.128,17.128 c0,1.186,0.132,2.372,0.395,3.426C6.719,34.783,0,42.424,0,51.515C0,61.66,8.169,69.829,18.314,69.829h63.373 C91.831,69.829,100,61.66,100,51.515C99.868,42.556,93.281,35.046,84.717,33.597z" fill="rgba(189, 222, 255, 0.46477434712071575)" transform="scale(1)" style="transform:matrix(1, 0, 0, 1, 0, 0);animation-play-state:paused" ></path></g>
<g transform="matrix(1,0,0,1,422.89703369140625,258.2109375)" style="transform:matrix(1, 0, 0, 1, 422.897, 258.211);animation-play-state:paused" ><path d="M84.717,33.597c0.791-2.503,1.186-5.138,1.186-7.773C85.903,11.594,74.308,0,60.079,0 c-9.881,0-18.445,5.534-22.793,13.702c-1.581-0.527-3.426-0.791-5.138-0.791c-9.486,0-17.128,7.642-17.128,17.128 c0,1.186,0.132,2.372,0.395,3.426C6.719,34.783,0,42.424,0,51.515C0,61.66,8.169,69.829,18.314,69.829h63.373 C91.831,69.829,100,61.66,100,51.515C99.868,42.556,93.281,35.046,84.717,33.597z" fill="rgba(189, 222, 255, 0.46477434712071575)" transform="scale(1)" style="transform:matrix(1, 0, 0, 1, 0, 0);animation-play-state:paused" ></path></g>
<g transform="matrix(1,0,0,1,718.423095703125,180.9008026123047)" style="transform:matrix(1, 0, 0, 1, 718.423, 180.901);animation-play-state:paused" ><path d="M84.717,33.597c0.791-2.503,1.186-5.138,1.186-7.773C85.903,11.594,74.308,0,60.079,0 c-9.881,0-18.445,5.534-22.793,13.702c-1.581-0.527-3.426-0.791-5.138-0.791c-9.486,0-17.128,7.642-17.128,17.128 c0,1.186,0.132,2.372,0.395,3.426C6.719,34.783,0,42.424,0,51.515C0,61.66,8.169,69.829,18.314,69.829h63.373 C91.831,69.829,100,61.66,100,51.515C99.868,42.556,93.281,35.046,84.717,33.597z" fill="rgba(189, 222, 255, 0.46477434712071575)" transform="scale(1)" style="transform:matrix(1, 0, 0, 1, 0, 0);animation-play-state:paused" ></path></g>
<g transform="matrix(1,0,0,1,853.4736328125,275.7733154296875)" style="transform:matrix(1, 0, 0, 1, 853.474, 275.773);animation-play-state:paused" ><path d="M84.717,33.597c0.791-2.503,1.186-5.138,1.186-7.773C85.903,11.594,74.308,0,60.079,0 c-9.881,0-18.445,5.534-22.793,13.702c-1.581-0.527-3.426-0.791-5.138-0.791c-9.486,0-17.128,7.642-17.128,17.128 c0,1.186,0.132,2.372,0.395,3.426C6.719,34.783,0,42.424,0,51.515C0,61.66,8.169,69.829,18.314,69.829h63.373 C91.831,69.829,100,61.66,100,51.515C99.868,42.556,93.281,35.046,84.717,33.597z" fill="rgba(189, 222, 255, 0.46477434712071575)" transform="scale(1)" style="transform:matrix(1, 0, 0, 1, 0, 0);animation-play-state:paused" ></path></g>
<g transform="matrix(1,0,0,1,1038.8387451171875,544.2214965820312)" style="transform:matrix(1, 0, 0, 1, 1038.84, 544.221);animation-play-state:paused" ><path d="M84.717,33.597c0.791-2.503,1.186-5.138,1.186-7.773C85.903,11.594,74.308,0,60.079,0 c-9.881,0-18.445,5.534-22.793,13.702c-1.581-0.527-3.426-0.791-5.138-0.791c-9.486,0-17.128,7.642-17.128,17.128 c0,1.186,0.132,2.372,0.395,3.426C6.719,34.783,0,42.424,0,51.515C0,61.66,8.169,69.829,18.314,69.829h63.373 C91.831,69.829,100,61.66,100,51.515C99.868,42.556,93.281,35.046,84.717,33.597z" fill="rgba(189, 222, 255, 0.46477434712071575)" transform="scale(1)" style="transform:matrix(1, 0, 0, 1, 0, 0);animation-play-state:paused" ></path></g>
<g transform="matrix(1,0,0,1,756.0709838867188,61.282047271728516)" style="transform:matrix(1, 0, 0, 1, 756.071, 61.282);animation-play-state:paused" ><path d="M84.717,33.597c0.791-2.503,1.186-5.138,1.186-7.773C85.903,11.594,74.308,0,60.079,0 c-9.881,0-18.445,5.534-22.793,13.702c-1.581-0.527-3.426-0.791-5.138-0.791c-9.486,0-17.128,7.642-17.128,17.128 c0,1.186,0.132,2.372,0.395,3.426C6.719,34.783,0,42.424,0,51.515C0,61.66,8.169,69.829,18.314,69.829h63.373 C91.831,69.829,100,61.66,100,51.515C99.868,42.556,93.281,35.046,84.717,33.597z" fill="rgba(189, 222, 255, 0.46477434712071575)" transform="scale(1)" style="transform:matrix(1, 0, 0, 1, 0, 0);animation-play-state:paused" ></path></g>
<g transform="matrix(1,0,0,1,658.733642578125,223.16720581054688)" style="transform:matrix(1, 0, 0, 1, 658.734, 223.167);animation-play-state:paused" ><path d="M84.717,33.597c0.791-2.503,1.186-5.138,1.186-7.773C85.903,11.594,74.308,0,60.079,0 c-9.881,0-18.445,5.534-22.793,13.702c-1.581-0.527-3.426-0.791-5.138-0.791c-9.486,0-17.128,7.642-17.128,17.128 c0,1.186,0.132,2.372,0.395,3.426C6.719,34.783,0,42.424,0,51.515C0,61.66,8.169,69.829,18.314,69.829h63.373 C91.831,69.829,100,61.66,100,51.515C99.868,42.556,93.281,35.046,84.717,33.597z" fill="rgba(189, 222, 255, 0.46477434712071575)" transform="scale(1)" style="transform:matrix(1, 0, 0, 1, 0, 0);animation-play-state:paused" ></path></g></g></svg>